<?xml version="1.0" ?>
<svg xmlns="http://www.w3.org/2000/svg" version="1.1" width="224" height="224">
  <defs/>
  <g>
    <path d="M 188.0000762939453 38.99987030029297 C 184.65626525878906 33.87461853027344 186.7849578857422 30.447301864624023 191.32899475097656 35.130638122558594" stroke-width="3.0" fill="none" stroke="rgb(2, 2, 2)" stroke-opacity="0.99" stroke-linecap="round" stroke-linejoin="round"/>
    <path d="M 36.99966812133789 81.99956512451172 C 34.03602981567383 74.50431060791016 35.78348159790039 72.02509307861328 39.30564880371094 70.0009994506836" stroke-width="3.0" fill="none" stroke="rgb(2, 2, 2)" stroke-opacity="0.99" stroke-linecap="round" stroke-linejoin="round"/>
    <path d="M 192.00013732910156 38.00143051147461 C 194.62759399414062 41.26757049560547 197.98114013671875 46.10726547241211 192.7843780517578 51.44243240356445" stroke-width="3.0" fill="none" stroke="rgb(2, 2, 2)" stroke-opacity="0.99" stroke-linecap="round" stroke-linejoin="round"/>
    <path d="M 61.00039291381836 79.99984741210938 C 60.70097351074219 83.93811798095703 64.25399780273438 86.0584487915039 62.36418151855469 83.94290924072266" stroke-width="3.0" fill="none" stroke="rgb(2, 2, 2)" stroke-opacity="0.99000007" stroke-linecap="round" stroke-linejoin="round"/>
    <path d="M 76.00023651123047 9.999641418457031 C 71.82038879394531 7.356900215148926 67.4104232788086 6.575274467468262 73.00325775146484 5.7155280113220215" stroke-width="3.0" fill="none" stroke="rgb(2, 2, 2)" stroke-opacity="0.99000007" stroke-linecap="round" stroke-linejoin="round"/>
    <path d="M 40.999656677246094 109.99105834960938 C 42.02328109741211 108.88643646240234 44.034751892089844 105.90072631835938 47.14315414428711 107.12579345703125" stroke-width="3.0" fill="none" stroke="rgb(2, 2, 2)" stroke-opacity="0.99000007" stroke-linecap="round" stroke-linejoin="round"/>
    <path d="M 13.000187873840332 218.9998779296875 C 14.726503372192383 215.1263885498047 12.90793228149414 210.397705078125 8.740723609924316 211.3192901611328" stroke-width="3.0" fill="none" stroke="rgb(2, 2, 2)" stroke-opacity="0.99000007" stroke-linecap="round" stroke-linejoin="round"/>
    <path d="M 42.99958419799805 169.00042724609375 C 43.53500747680664 174.32432556152344 39.230010986328125 181.1165313720703 37.891910552978516 177.11244201660156" stroke-width="3.0" fill="none" stroke="rgb(2, 2, -2)" stroke-opacity="0.99000007" stroke-linecap="round" stroke-linejoin="round"/>
    <path d="M 84.99993133544922 197.00021362304688 C 83.37287902832031 194.5651397705078 87.07424926757812 197.1920166015625 90.65996551513672 201.9303741455078" stroke-width="3.0" fill="none" stroke="rgb(2, 2, 2)" stroke-opacity="0.99" stroke-linecap="round" stroke-linejoin="round"/>
    <path d="M 44.99794387817383 67.9974594116211 C 44.402008056640625 64.58958435058594 40.017242431640625 67.28663635253906 38.95625305175781 69.58830261230469" stroke-width="3.0" fill="none" stroke="rgb(2, 2, 2)" stroke-opacity="0.99000007" stroke-linecap="round" stroke-linejoin="round"/>
    <path d="M 87.00009155273438 30.99979019165039 C 90.02681732177734 33.507591247558594 96.77152252197266 32.093482971191406 91.69944763183594 28.174259185791016" stroke-width="3.0" fill="none" stroke="rgb(2, 2, 2)" stroke-opacity="0.99000007" stroke-linecap="round" stroke-linejoin="round"/>
    <path d="M 155.00006103515625 210.00006103515625 C 156.9528045654297 207.7442626953125 160.50254821777344 204.9729461669922 163.04867553710938 201.4540252685547" stroke-width="3.0" fill="none" stroke="rgb(2, 2, 2)" stroke-opacity="0.99000007" stroke-linecap="round" stroke-linejoin="round"/>
    <path d="M 52.99993896484375 186.9995880126953 C 53.194549560546875 187.0520782470703 55.41941833496094 186.00515747070312 52.85185241699219 185.93289184570312" stroke-width="3.0" fill="none" stroke="rgb(2, 2, 2)" stroke-opacity="0.99000007" stroke-linecap="round" stroke-linejoin="round"/>
    <path d="M 170.00021362304688 78.9998779296875 C 173.1899871826172 75.42855072021484 170.29730224609375 68.03730773925781 167.2934112548828 70.24616241455078" stroke-width="3.0" fill="none" stroke="rgb(2, 2, 2)" stroke-opacity="0.99" stroke-linecap="round" stroke-linejoin="round"/>
    <path d="M 68.99995422363281 70.00053405761719 C 69.1826171875 70.77281951904297 69.50022888183594 75.2650375366211 69.32872009277344 73.86515808105469" stroke-width="3.0" fill="none" stroke="rgb(2, 2, 2)" stroke-opacity="0.99000007" stroke-linecap="round" stroke-linejoin="round"/>
    <path d="M 50.9998779296875 144.00009155273438 C 48.365882873535156 147.97555541992188 48.17411422729492 144.38189697265625 50.45148468017578 147.6570281982422" stroke-width="3.0" fill="none" stroke="rgb(2, 2, 2)" stroke-opacity="0.99000007" stroke-linecap="round" stroke-linejoin="round"/>
    <path d="M 59.99992370605469 13.999958992004395 C 63.20454788208008 13.513946533203125 65.19093322753906 15.511053085327148 66.0738525390625 13.347883224487305" stroke-width="3.0" fill="none" stroke="rgb(2, 2, 2)" stroke-opacity="0.99000007" stroke-linecap="round" stroke-linejoin="round"/>
    <path d="M 138.99990844726562 36.99993133544922 C 139.643310546875 33.62031173706055 139.4769744873047 27.065025329589844 139.28778076171875 26.452457427978516" stroke-width="3.0" fill="none" stroke="rgb(2, 2, -2)" stroke-opacity="0.99000007" stroke-linecap="round" stroke-linejoin="round"/>
    <path d="M 35.9997444152832 82.00039672851562 C 31.161405563354492 83.23151397705078 28.240253448486328 87.7102279663086 25.884645462036133 90.03824615478516" stroke-width="3.0" fill="none" stroke="rgb(2, 2, 2)" stroke-opacity="0.9900001" stroke-linecap="round" stroke-linejoin="round"/>
    <path d="M 98.0004653930664 89.00009155273438 C 104.99986267089844 93.13192749023438 108.72040557861328 91.1255111694336 110.53033447265625 89.86932373046875" stroke-width="3.0" fill="none" stroke="rgb(2, 2, 2)" stroke-opacity="0.99" stroke-linecap="round" stroke-linejoin="round"/>
    <path d="M 111.99993896484375 107.99980926513672 C 114.57856750488281 111.51070404052734 115.69832611083984 112.0536880493164 111.8245620727539 111.22945404052734" stroke-width="3.0" fill="none" stroke="rgb(2, 2, 2)" stroke-opacity="0.99000007" stroke-linecap="round" stroke-linejoin="round"/>
    <path d="M 107.00057220458984 67.0001220703125 C 110.18717956542969 62.62809753417969 105.3021469116211 68.1470718383789 104.42699432373047 67.91825103759766" stroke-width="3.0" fill="none" stroke="rgb(2, 2, 2)" stroke-opacity="0.99000007" stroke-linecap="round" stroke-linejoin="round"/>
    <path d="M 98.000244140625 56.00010681152344 C 95.90681457519531 52.97676086425781 97.10802459716797 58.163902282714844 93.42391967773438 52.08533477783203" stroke-width="3.0" fill="none" stroke="rgb(2, 2, 2)" stroke-opacity="0.9900001" stroke-linecap="round" stroke-linejoin="round"/>
    <path d="M 145.0006103515625 157.9999237060547 C 147.4003143310547 163.26243591308594 146.77566528320312 168.04208374023438 146.69369506835938 165.34909057617188" stroke-width="3.0" fill="none" stroke="rgb(2, 2, -2)" stroke-opacity="0.99000007" stroke-linecap="round" stroke-linejoin="round"/>
    <path d="M 63.999942779541016 57.99995803833008 C 60.4444580078125 61.222137451171875 55.3046760559082 64.76302337646484 58.46236801147461 63.61280059814453" stroke-width="3.0" fill="none" stroke="rgb(2, 2, 2)" stroke-opacity="0.99" stroke-linecap="round" stroke-linejoin="round"/>
    <path d="M 52.001312255859375 93.0008544921875 C 53.849124908447266 93.41936492919922 54.34336853027344 90.76355743408203 52.105079650878906 94.53544616699219" stroke-width="3.0" fill="none" stroke="rgb(2, 2, 2)" stroke-opacity="0.99000025" stroke-linecap="round" stroke-linejoin="round"/>
    <path d="M 15.999703407287598 152.0003662109375 C 18.460582733154297 158.1046600341797 21.20895767211914 158.87786865234375 24.17435073852539 160.3409881591797" stroke-width="3.0" fill="none" stroke="rgb(2, 2, 2)" stroke-opacity="0.99" stroke-linecap="round" stroke-linejoin="round"/>
    <path d="M 57.99944305419922 115.9997787475586 C 60.03131866455078 116.12969207763672 57.850284576416016 118.41607666015625 58.04933547973633 120.9308853149414" stroke-width="3.0" fill="none" stroke="rgb(2, 2, -2)" stroke-opacity="0.99000007" stroke-linecap="round" stroke-linejoin="round"/>
    <path d="M 191.00018310546875 26.00014305114746 C 195.02699279785156 23.720142364501953 198.20614624023438 19.225818634033203 203.47589111328125 17.576189041137695" stroke-width="3.0" fill="none" stroke="rgb(2, 2, 2)" stroke-opacity="0.99" stroke-linecap="round" stroke-linejoin="round"/>
    <path d="M 88.00019836425781 107.00012969970703 C 85.98318481445312 109.15544891357422 85.4994125366211 113.41492462158203 84.1451187133789 107.35243225097656" stroke-width="3.0" fill="none" stroke="rgb(2, 2, -2)" stroke-opacity="0.99000007" stroke-linecap="round" stroke-linejoin="round"/>
    <path d="M 24.000503540039062 91.00009155273438 C 24.873544692993164 88.10771942138672 27.535297393798828 85.0774154663086 34.38520431518555 83.86823272705078" stroke-width="3.0" fill="none" stroke="rgb(2, 2, 2)" stroke-opacity="0.9900001" stroke-linecap="round" stroke-linejoin="round"/>
    <path d="M 188.9996795654297 60.00068664550781 C 187.989501953125 65.40670013427734 192.3391876220703 67.1409912109375 195.2502899169922 64.80973815917969" stroke-width="3.0" fill="none" stroke="rgb(2, 2, -2)" stroke-opacity="0.99000007" stroke-linecap="round" stroke-linejoin="round"/>
    <path d="M 38.99982833862305 70.00015258789062 C 36.51930236816406 67.171142578125 31.189773559570312 64.97325134277344 24.404748916625977 67.13287353515625" stroke-width="3.0" fill="none" stroke="rgb(2, 2, 2)" stroke-opacity="0.99" stroke-linecap="round" stroke-linejoin="round"/>
    <path d="M 4.000133037567139 103.00038146972656 C 1.9449659585952759 100.74404907226562 4.617823123931885 97.33385467529297 -1.1365690231323242 101.79714965820312" stroke-width="3.0" fill="none" stroke="rgb(2, 2, 2)" stroke-opacity="0.99000007" stroke-linecap="round" stroke-linejoin="round"/>
    <path d="M 209.99990844726562 53.999916076660156 C 211.7798614501953 48.45782470703125 209.70175170898438 43.8140869140625 209.38291931152344 47.56882858276367" stroke-width="3.0" fill="none" stroke="rgb(2, 2, 2)" stroke-opacity="0.99000007" stroke-linecap="round" stroke-linejoin="round"/>
    <path d="M 207.9996337890625 51.00006866455078 C 203.21612548828125 53.20638656616211 208.3406982421875 54.89778137207031 206.14097595214844 59.162208557128906" stroke-width="3.0" fill="none" stroke="rgb(2, 2, 2)" stroke-opacity="0.99000007" stroke-linecap="round" stroke-linejoin="round"/>
    <path d="M 112.00009155273438 159.9998779296875 C 108.98189544677734 155.73243713378906 108.37317657470703 158.60867309570312 106.28137969970703 161.02052307128906" stroke-width="3.0" fill="none" stroke="rgb(2, 2, 2)" stroke-opacity="0.99" stroke-linecap="round" stroke-linejoin="round"/>
    <path d="M 35.00006103515625 11.998223304748535 C 36.579105377197266 14.876843452453613 34.94602966308594 14.397407531738281 34.47161102294922 12.51017951965332" stroke-width="3.0" fill="none" stroke="rgb(2, 2, 2)" stroke-opacity="0.99000007" stroke-linecap="round" stroke-linejoin="round"/>
    <path d="M 186.99993896484375 44.99905014038086 C 190.94268798828125 42.76893615722656 187.5059356689453 37.186683654785156 183.042724609375 35.948787689208984" stroke-width="3.0" fill="none" stroke="rgb(2, 2, 2)" stroke-opacity="0.99000007" stroke-linecap="round" stroke-linejoin="round"/>
    <path d="M 81.9997329711914 63.00020217895508 C 84.76972961425781 67.20272064208984 88.35990142822266 65.27034759521484 91.23091888427734 61.82414627075195" stroke-width="3.0" fill="none" stroke="rgb(2, 2, 2)" stroke-opacity="0.99000007" stroke-linecap="round" stroke-linejoin="round"/>
    <path d="M 14.00008773803711 198.00006103515625 C 19.02979850769043 197.33245849609375 17.665550231933594 193.08578491210938 14.579427719116211 191.90731811523438" stroke-width="3.0" fill="none" stroke="rgb(2, 2, -2)" stroke-opacity="0.99000007" stroke-linecap="round" stroke-linejoin="round"/>
    <path d="M 213.0000762939453 109.99972534179688 C 211.98960876464844 110.57479858398438 211.27462768554688 103.44738006591797 209.34225463867188 106.0905532836914" stroke-width="3.0" fill="none" stroke="rgb(2, 2, 2)" stroke-opacity="0.99000007" stroke-linecap="round" stroke-linejoin="round"/>
    <path d="M 125.9999008178711 177.99981689453125 C 125.34851837158203 183.22366333007812 122.47747802734375 184.9488067626953 122.64347076416016 185.8895721435547" stroke-width="3.0" fill="none" stroke="rgb(2, 2, 2)" stroke-opacity="0.99" stroke-linecap="round" stroke-linejoin="round"/>
    <path d="M 39.00299835205078 125.9998779296875 C 40.55210876464844 127.29619598388672 45.24184036254883 122.68029022216797 45.505550384521484 128.88803100585938" stroke-width="3.0" fill="none" stroke="rgb(2, 2, -2)" stroke-opacity="0.99000007" stroke-linecap="round" stroke-linejoin="round"/>
    <path d="M 71.00193786621094 113.99947357177734 C 69.93277740478516 114.11089324951172 66.5146255493164 110.27275848388672 67.18325805664062 114.3178482055664" stroke-width="3.0" fill="none" stroke="rgb(-2, 2, -2)" stroke-opacity="0.9900001" stroke-linecap="round" stroke-linejoin="round"/>
    <path d="M 53.00019836425781 99.0000991821289 C 58.2205696105957 98.30210876464844 56.15263748168945 100.96007537841797 51.05205535888672 98.76805114746094" stroke-width="3.0" fill="none" stroke="rgb(2, 2, 2)" stroke-opacity="0.99000007" stroke-linecap="round" stroke-linejoin="round"/>
    <path d="M 193.99398803710938 163.9999237060547 C 196.63133239746094 165.90432739257812 199.00289916992188 167.20541381835938 195.80780029296875 166.35877990722656" stroke-width="3.0" fill="none" stroke="rgb(2, 2, -2)" stroke-opacity="0.99000007" stroke-linecap="round" stroke-linejoin="round"/>
    <path d="M 121.00005340576172 122.00016021728516 C 122.84905242919922 124.8846664428711 124.37863159179688 130.2104949951172 126.9970932006836 134.651611328125" stroke-width="3.0" fill="none" stroke="rgb(2, 2, -2)" stroke-opacity="0.99" stroke-linecap="round" stroke-linejoin="round"/>
    <path d="M 67.00019836425781 58.99978256225586 C 69.62432098388672 63.30961608886719 70.9342041015625 59.51287841796875 67.75653076171875 63.66746139526367" stroke-width="3.0" fill="none" stroke="rgb(2, 2, 2)" stroke-opacity="0.99000007" stroke-linecap="round" stroke-linejoin="round"/>
    <path d="M 7.002045154571533 201.0007781982422 C 6.582874774932861 202.01341247558594 12.454692840576172 199.4863739013672 15.021163940429688 194.44927978515625" stroke-width="3.0" fill="none" stroke="rgb(2, 2, 2)" stroke-opacity="0.99000007" stroke-linecap="round" stroke-linejoin="round"/>
    <path d="M 8.99982738494873 114.99968719482422 C 8.241547584533691 113.50474548339844 9.426803588867188 113.27483367919922 10.062797546386719 112.64456939697266" stroke-width="3.0" fill="none" stroke="rgb(2, 2, 2)" stroke-opacity="0.99000007" stroke-linecap="round" stroke-linejoin="round"/>
    <path d="M 21.052547454833984 57.00007629394531 C 27.212528228759766 54.3376579284668 25.455034255981445 51.8372917175293 25.971803665161133 48.70524597167969" stroke-width="3.0" fill="none" stroke="rgb(2, 2, 2)" stroke-opacity="0.99" stroke-linecap="round" stroke-linejoin="round"/>
    <path d="M 202.00009155273438 50.9998893737793 C 204.90794372558594 55.092559814453125 205.32350158691406 57.45730972290039 201.8531951904297 54.5333251953125" stroke-width="3.0" fill="none" stroke="rgb(2, 2, 2)" stroke-opacity="0.99000007" stroke-linecap="round" stroke-linejoin="round"/>
    <path d="M 170.99942016601562 178.9994354248047 C 170.60043334960938 178.09495544433594 170.08502197265625 180.8909912109375 170.17396545410156 178.64996337890625" stroke-width="3.0" fill="none" stroke="rgb(2, 2, -2)" stroke-opacity="0.99000007" stroke-linecap="round" stroke-linejoin="round"/>
    <path d="M 39.00027847290039 132.99966430664062 C 41.139408111572266 131.9652557373047 41.56600570678711 134.21788024902344 40.27235794067383 140.10531616210938" stroke-width="3.0" fill="none" stroke="rgb(2, 2, -2)" stroke-opacity="0.99000007" stroke-linecap="round" stroke-linejoin="round"/>
    <path d="M 166.00010681152344 164.00022888183594 C 168.30752563476562 167.060546875 173.77320861816406 168.38499450683594 174.6168975830078 168.67462158203125" stroke-width="3.0" fill="none" stroke="rgb(2, 2, -2)" stroke-opacity="0.99000007" stroke-linecap="round" stroke-linejoin="round"/>
    <path d="M 64.00018310546875 170.98922729492188 C 65.95620727539062 172.96258544921875 63.6741943359375 167.49514770507812 60.817054748535156 165.2093048095703" stroke-width="3.0" fill="none" stroke="rgb(2, 2, 2)" stroke-opacity="0.99000007" stroke-linecap="round" stroke-linejoin="round"/>
    <path d="M 206.9999542236328 45.9998779296875 C 208.60848999023438 43.86701965332031 208.34683227539062 46.0677604675293 209.7406768798828 41.068023681640625" stroke-width="3.0" fill="none" stroke="rgb(2, 2, 2)" stroke-opacity="0.99000007" stroke-linecap="round" stroke-linejoin="round"/>
    <path d="M 30.000078201293945 19.00005340576172 C 24.41799545288086 19.540632247924805 28.566713333129883 21.613868713378906 26.67961883544922 20.037670135498047" stroke-width="3.0" fill="none" stroke="rgb(2, 2, 2)" stroke-opacity="0.99" stroke-linecap="round" stroke-linejoin="round"/>
    <path d="M 161.9999237060547 201.99978637695312 C 157.7973175048828 203.3023681640625 157.70419311523438 207.66085815429688 153.93655395507812 209.86669921875" stroke-width="3.0" fill="none" stroke="rgb(2, 2, 2)" stroke-opacity="0.99000007" stroke-linecap="round" stroke-linejoin="round"/>
    <path d="M 51.999752044677734 109.00015258789062 C 51.626224517822266 109.68363952636719 57.8370246887207 108.39453125 56.937747955322266 106.1646499633789" stroke-width="3.0" fill="none" stroke="rgb(2, 2, -2)" stroke-opacity="0.99000007" stroke-linecap="round" stroke-linejoin="round"/>
    <path d="M 110.99987030029297 142.993408203125 C 105.42806243896484 141.4650115966797 101.13211822509766 140.16456604003906 100.1221694946289 138.8465576171875" stroke-width="3.0" fill="none" stroke="rgb(2, 2, -2)" stroke-opacity="0.99000007" stroke-linecap="round" stroke-linejoin="round"/>
    <path d="M 113.0002670288086 106.001953125 C 111.5848617553711 109.22685241699219 115.27152252197266 108.35421752929688 115.94793701171875 113.00759887695312" stroke-width="3.0" fill="none" stroke="rgb(2, 2, 2)" stroke-opacity="0.99000007" stroke-linecap="round" stroke-linejoin="round"/>
    <path d="M 64.00007629394531 56.99847412109375 C 67.8131332397461 56.774898529052734 62.76460266113281 60.708885192871094 61.44748306274414 62.55513000488281" stroke-width="3.0" fill="none" stroke="rgb(2, 2, 2)" stroke-opacity="0.99" stroke-linecap="round" stroke-linejoin="round"/>
    <path d="M 44.99974822998047 118.00019836425781 C 40.26876449584961 115.88616943359375 36.01927185058594 119.3173599243164 31.295194625854492 116.16934204101562" stroke-width="3.0" fill="none" stroke="rgb(2, 2, -2)" stroke-opacity="0.99000007" stroke-linecap="round" stroke-linejoin="round"/>
    <path d="M 213.99986267089844 118.00012969970703 C 213.75836181640625 119.51126861572266 218.5479736328125 116.0571517944336 223.97354125976562 121.57276916503906" stroke-width="3.0" fill="none" stroke="rgb(2, 2, 2)" stroke-opacity="0.99000007" stroke-linecap="round" stroke-linejoin="round"/>
    <path d="M 115.0001220703125 170.00018310546875 C 111.7641372680664 170.14761352539062 112.94537353515625 173.3136444091797 111.58080291748047 170.62266540527344" stroke-width="3.0" fill="none" stroke="rgb(2, 2, 2)" stroke-opacity="0.99000007" stroke-linecap="round" stroke-linejoin="round"/>
    <path d="M 54.002708435058594 92.9995346069336 C 50.85112380981445 94.43041229248047 53.77653121948242 96.69871520996094 56.356021881103516 95.01676940917969" stroke-width="3.0" fill="none" stroke="rgb(2, 2, 2)" stroke-opacity="0.99000007" stroke-linecap="round" stroke-linejoin="round"/>
    <path d="M 176.99993896484375 68.9998550415039 C 176.18661499023438 68.3459701538086 180.24314880371094 67.57426452636719 179.9754180908203 72.67143249511719" stroke-width="3.0" fill="none" stroke="rgb(2, 2, 2)" stroke-opacity="0.99000007" stroke-linecap="round" stroke-linejoin="round"/>
    <path d="M 83.00038146972656 9.999948501586914 C 86.97489166259766 15.109010696411133 88.2823257446289 13.11598014831543 88.8544692993164 16.080123901367188" stroke-width="3.0" fill="none" stroke="rgb(2, 2, 2)" stroke-opacity="0.99000007" stroke-linecap="round" stroke-linejoin="round"/>
    <path d="M 71.99966430664062 172.99977111816406 C 68.41576385498047 166.78811645507812 71.55256652832031 162.74014282226562 70.32657623291016 158.93035888671875" stroke-width="3.0" fill="none" stroke="rgb(2, 2, 2)" stroke-opacity="0.99" stroke-linecap="round" stroke-linejoin="round"/>
    <path d="M 43.999839782714844 116.00006866455078 C 44.015872955322266 120.7695541381836 46.68714141845703 124.60424041748047 48.21525955200195 118.26470184326172" stroke-width="3.0" fill="none" stroke="rgb(2, 2, 2)" stroke-opacity="0.99000007" stroke-linecap="round" stroke-linejoin="round"/>
    <path d="M 143.9996795654297 104.00035095214844 C 138.91786193847656 107.68115997314453 140.91571044921875 110.57569122314453 142.915771484375 111.2162857055664" stroke-width="3.0" fill="none" stroke="rgb(2, 2, 2)" stroke-opacity="0.99" stroke-linecap="round" stroke-linejoin="round"/>
    <path d="M 39.9997444152832 127.99977111816406 C 36.03730392456055 131.13705444335938 37.34916305541992 124.00177001953125 31.860639572143555 122.51810455322266" stroke-width="3.0" fill="none" stroke="rgb(2, 2, -2)" stroke-opacity="0.99000007" stroke-linecap="round" stroke-linejoin="round"/>
    <path d="M 42.99980545043945 82.99988555908203 C 41.36739730834961 85.52197265625 45.32511520385742 81.97325134277344 46.331172943115234 80.98532104492188" stroke-width="3.0" fill="none" stroke="rgb(2, 2, 2)" stroke-opacity="0.99000007" stroke-linecap="round" stroke-linejoin="round"/>
    <path d="M 7.9998273849487305 192.9999237060547 C 6.564621448516846 195.26515197753906 8.701288223266602 192.6621856689453 12.242715835571289 193.67202758789062" stroke-width="3.0" fill="none" stroke="rgb(2, 2, 2)" stroke-opacity="0.99000007" stroke-linecap="round" stroke-linejoin="round"/>
    <path d="M 118.99992370605469 122.00016021728516 C 116.90717315673828 126.59444427490234 113.72820281982422 128.97442626953125 114.21421813964844 126.92514038085938" stroke-width="3.0" fill="none" stroke="rgb(2, 2, 2)" stroke-opacity="0.99000007" stroke-linecap="round" stroke-linejoin="round"/>
    <path d="M 44.998863220214844 7.000071048736572 C 48.0684700012207 7.2655816078186035 53.387813568115234 4.753150463104248 51.703800201416016 6.464226245880127" stroke-width="3.0" fill="none" stroke="rgb(2, 2, 2)" stroke-opacity="0.99000007" stroke-linecap="round" stroke-linejoin="round"/>
    <path d="M 95.0001220703125 64.00016021728516 C 97.08635711669922 61.55322265625 90.17117309570312 60.658912658691406 89.45740509033203 59.94715118408203" stroke-width="3.0" fill="none" stroke="rgb(2, 2, -2)" stroke-opacity="0.99000007" stroke-linecap="round" stroke-linejoin="round"/>
    <path d="M 128.00006103515625 52.00035858154297 C 133.56028747558594 47.01576232910156 133.69749450683594 53.45745849609375 130.87950134277344 56.93634796142578" stroke-width="3.0" fill="none" stroke="rgb(2, 2, 2)" stroke-opacity="0.99000007" stroke-linecap="round" stroke-linejoin="round"/>
    <path d="M 46.99983596801758 101.9999008178711 C 42.4586181640625 106.44379425048828 36.28597640991211 106.94357299804688 39.130977630615234 105.00285339355469" stroke-width="3.0" fill="none" stroke="rgb(2, 2, 2)" stroke-opacity="0.99000007" stroke-linecap="round" stroke-linejoin="round"/>
    <path d="M 169.99990844726562 66.99996185302734 C 166.07012939453125 67.38056182861328 159.72291564941406 70.40253448486328 154.95790100097656 68.55005645751953" stroke-width="3.0" fill="none" stroke="rgb(2, 2, 2)" stroke-opacity="0.99" stroke-linecap="round" stroke-linejoin="round"/>
    <path d="M 113.99988555908203 182.00303649902344 C 119.19091796875 179.64724731445312 117.86161041259766 182.74102783203125 119.48778533935547 181.01605224609375" stroke-width="3.0" fill="none" stroke="rgb(2, 2, 2)" stroke-opacity="0.99" stroke-linecap="round" stroke-linejoin="round"/>
    <path d="M 117.9993896484375 59.99991226196289 C 110.87615203857422 56.308048248291016 115.58718872070312 61.70881271362305 115.48113250732422 63.03187561035156" stroke-width="3.0" fill="none" stroke="rgb(2, 2, 2)" stroke-opacity="0.99000007" stroke-linecap="round" stroke-linejoin="round"/>
    <path d="M 157.99989318847656 197.99981689453125 C 156.60842895507812 201.61245727539062 160.61245727539062 203.1917266845703 158.72344970703125 210.63987731933594" stroke-width="3.0" fill="none" stroke="rgb(2, 2, 2)" stroke-opacity="0.9900001" stroke-linecap="round" stroke-linejoin="round"/>
    <path d="M 145.99957275390625 183.0004425048828 C 146.8170166015625 184.31129455566406 144.3140411376953 186.24952697753906 145.777099609375 187.83047485351562" stroke-width="3.0" fill="none" stroke="rgb(2, 2, -2)" stroke-opacity="0.99000007" stroke-linecap="round" stroke-linejoin="round"/>
    <path d="M 95.99970245361328 52.9994010925293 C 93.6452407836914 51.49894332885742 97.62124633789062 54.13031768798828 94.90087127685547 47.95500183105469" stroke-width="3.0" fill="none" stroke="rgb(2, 2, 2)" stroke-opacity="0.9900001" stroke-linecap="round" stroke-linejoin="round"/>
    <path d="M 63.0001335144043 176.00013732910156 C 61.09754180908203 180.83767700195312 62.03630828857422 179.8769073486328 62.8199577331543 178.5680694580078" stroke-width="3.0" fill="none" stroke="rgb(2, 2, -2)" stroke-opacity="0.99000007" stroke-linecap="round" stroke-linejoin="round"/>
    <path d="M 140.0000762939453 20.000110626220703 C 138.4120635986328 24.253429412841797 134.59902954101562 23.797576904296875 133.94854736328125 26.38548469543457" stroke-width="3.0" fill="none" stroke="rgb(2, -2, 2)" stroke-opacity="0.99000007" stroke-linecap="round" stroke-linejoin="round"/>
    <path d="M 74.0001449584961 74.9997329711914 C 76.61433410644531 75.86868286132812 75.7255630493164 79.56576538085938 70.44771575927734 75.28145599365234" stroke-width="3.0" fill="none" stroke="rgb(2, 2, 2)" stroke-opacity="0.99" stroke-linecap="round" stroke-linejoin="round"/>
    <path d="M 56.00014114379883 137.99990844726562 C 55.593605041503906 139.47540283203125 50.896385192871094 137.755615234375 50.65563201904297 141.7307586669922" stroke-width="3.0" fill="none" stroke="rgb(2, 2, 2)" stroke-opacity="0.99" stroke-linecap="round" stroke-linejoin="round"/>
    <path d="M 64.9999008178711 111.99980163574219 C 65.62417602539062 114.4538803100586 70.38465118408203 113.66124725341797 68.21009826660156 111.13290405273438" stroke-width="3.0" fill="none" stroke="rgb(-2, 2, 2)" stroke-opacity="0.9900002" stroke-linecap="round" stroke-linejoin="round"/>
    <path d="M 146.0001678466797 147.0552978515625 C 142.96693420410156 143.35585021972656 141.42340087890625 145.99424743652344 140.78302001953125 151.19308471679688" stroke-width="3.0" fill="none" stroke="rgb(2, 2, 2)" stroke-opacity="0.99" stroke-linecap="round" stroke-linejoin="round"/>
    <path d="M 154.00006103515625 123.99858093261719 C 156.03758239746094 126.20963287353516 150.61904907226562 122.46405792236328 154.0634002685547 124.00859832763672" stroke-width="3.0" fill="none" stroke="rgb(2, 2, 2)" stroke-opacity="0.99000007" stroke-linecap="round" stroke-linejoin="round"/>
    <path d="M 8.999740600585938 164.99984741210938 C 12.153179168701172 167.42132568359375 14.6414155960083 162.00132751464844 14.881570816040039 163.98526000976562" stroke-width="3.0" fill="none" stroke="rgb(2, 2, 2)" stroke-opacity="0.99" stroke-linecap="round" stroke-linejoin="round"/>
    <path d="M 120.99969482421875 120.99983978271484 C 121.90518951416016 120.53758239746094 120.71477508544922 121.45756530761719 117.72411346435547 122.14356994628906" stroke-width="3.0" fill="none" stroke="rgb(2, 2, 2)" stroke-opacity="0.99000007" stroke-linecap="round" stroke-linejoin="round"/>
  </g>
</svg>
