<?xml version="1.0" ?>
<svg xmlns="http://www.w3.org/2000/svg" version="1.1" width="224" height="224">
  <defs/>
  <g>
    <path d="M 187.64865112304688 42.35905456542969 C 186.09848022460938 35.24055099487305 184.03109741210938 34.16748046875 187.18069458007812 41.1840705871582" stroke-width="3.0" fill="none" stroke="rgb(0, 0, 1)" stroke-opacity="0.37589264" stroke-linecap="round" stroke-linejoin="round"/>
    <path d="M 33.69335174560547 69.49260711669922 C 37.67987823486328 65.34957122802734 37.21800231933594 68.12543487548828 33.500614166259766 68.9660415649414" stroke-width="3.0" fill="none" stroke="rgb(0, 0, 0)" stroke-opacity="0.30332068" stroke-linecap="round" stroke-linejoin="round"/>
    <path d="M 189.28355407714844 49.064701080322266 C 186.34043884277344 44.440452575683594 189.53140258789062 40.038963317871094 188.9425506591797 55.593257904052734" stroke-width="3.0" fill="none" stroke="rgb(0, 0, 1)" stroke-opacity="0.46160984" stroke-linecap="round" stroke-linejoin="round"/>
    <path d="M 57.74595642089844 75.98960876464844 C 59.00131607055664 73.92935943603516 60.06778335571289 74.32715606689453 58.54011154174805 75.07564544677734" stroke-width="3.0" fill="none" stroke="rgb(0, 0, 1)" stroke-opacity="0.26856238" stroke-linecap="round" stroke-linejoin="round"/>
    <path d="M 66.80113983154297 20.20216941833496 C 74.9464111328125 15.485788345336914 87.23542785644531 13.5043306350708 86.33377075195312 17.491212844848633" stroke-width="3.0" fill="none" stroke="rgb(0, -1, 2)" stroke-opacity="0.28742862" stroke-linecap="round" stroke-linejoin="round"/>
    <path d="M 47.5936279296875 104.98309326171875 C 39.03294372558594 122.35140228271484 47.42889404296875 105.2223129272461 43.7529182434082 114.25716400146484" stroke-width="3.0" fill="none" stroke="rgb(0, -1, 2)" stroke-opacity="0.2540003" stroke-linecap="round" stroke-linejoin="round"/>
    <path d="M 19.013534545898438 225.9342041015625 C 15.143939971923828 213.7174072265625 20.198259353637695 198.94891357421875 18.814197540283203 202.3946533203125" stroke-width="3.0" fill="none" stroke="rgb(-2, 2, 0)" stroke-opacity="0.34932253" stroke-linecap="round" stroke-linejoin="round"/>
    <path d="M 32.312286376953125 149.79542541503906 C 42.477115631103516 169.1381378173828 34.816551208496094 199.01210021972656 31.18802833557129 170.7423095703125" stroke-width="3.0" fill="none" stroke="rgb(-1, 1, 2)" stroke-opacity="0.18290836" stroke-linecap="round" stroke-linejoin="round"/>
    <path d="M 86.16148376464844 204.5233154296875 C 85.29736328125 203.92941284179688 84.99375915527344 203.00076293945312 85.00415802001953 203.53387451171875" stroke-width="3.0" fill="none" stroke="rgb(1, 0, -1)" stroke-opacity="0.2429567" stroke-linecap="round" stroke-linejoin="round"/>
    <path d="M 48.75663375854492 59.674495697021484 C 37.948204040527344 64.21502685546875 28.248653411865234 62.358612060546875 22.610597610473633 71.81171417236328" stroke-width="3.0" fill="none" stroke="rgb(0, 0, 1)" stroke-opacity="0.18353663" stroke-linecap="round" stroke-linejoin="round"/>
    <path d="M 86.1595687866211 23.83946418762207 C 61.67518615722656 41.02548599243164 118.52212524414062 30.44615364074707 93.2560806274414 28.512454986572266" stroke-width="3.0" fill="none" stroke="rgb(0, 0, 1)" stroke-opacity="0.3982147" stroke-linecap="round" stroke-linejoin="round"/>
    <path d="M 159.57579040527344 205.46115112304688 C 159.38775634765625 206.208251953125 158.76438903808594 199.5947723388672 158.63137817382812 200.990234375" stroke-width="3.0" fill="none" stroke="rgb(1, 0, 0)" stroke-opacity="0.27828884" stroke-linecap="round" stroke-linejoin="round"/>
    <path d="M 53.38064956665039 186.2264862060547 C 51.6810188293457 186.415771484375 57.10728454589844 185.863037109375 54.452816009521484 185.9132537841797" stroke-width="3.0" fill="none" stroke="rgb(0, 1, 0)" stroke-opacity="0.04692601" stroke-linecap="round" stroke-linejoin="round"/>
    <path d="M 180.7301483154297 123.50079345703125 C 162.82489013671875 64.4593276977539 146.383544921875 76.1171875 155.2566375732422 67.61219787597656" stroke-width="3.0" fill="none" stroke="rgb(-3, 1, 3)" stroke-opacity="0.23978859" stroke-linecap="round" stroke-linejoin="round"/>
    <path d="M 75.43558502197266 79.55169677734375 C 75.51731872558594 77.85720825195312 74.57241821289062 79.5839614868164 75.2601547241211 79.35789489746094" stroke-width="3.0" fill="none" stroke="rgb(0, 0, 0)" stroke-opacity="0.25574395" stroke-linecap="round" stroke-linejoin="round"/>
    <path d="M 52.158477783203125 142.10134887695312 C 48.66339111328125 139.89833068847656 57.66427230834961 139.44923400878906 44.408687591552734 175.11972045898438" stroke-width="3.0" fill="none" stroke="rgb(-1, 1, 1)" stroke-opacity="0.16980916" stroke-linecap="round" stroke-linejoin="round"/>
    <path d="M 60.0819091796875 24.076366424560547 C 78.10618591308594 20.75672149658203 55.864013671875 16.091432571411133 41.10323715209961 40.04629135131836" stroke-width="3.0" fill="none" stroke="rgb(-3, 0, 2)" stroke-opacity="0.20958267" stroke-linecap="round" stroke-linejoin="round"/>
    <path d="M 140.50180053710938 61.21255874633789 C 136.32437133789062 28.322233200073242 139.67364501953125 25.790861129760742 140.65577697753906 17.716915130615234" stroke-width="3.0" fill="none" stroke="rgb(-1, 0, 1)" stroke-opacity="0.3298679" stroke-linecap="round" stroke-linejoin="round"/>
    <path d="M 34.16383743286133 66.47264862060547 C 21.317859649658203 71.3071517944336 21.909053802490234 68.37762451171875 24.037242889404297 69.39695739746094" stroke-width="3.0" fill="none" stroke="rgb(1, -1, 0)" stroke-opacity="0.3358134" stroke-linecap="round" stroke-linejoin="round"/>
    <path d="M 90.6164321899414 76.28289794921875 C 98.29138946533203 86.86942291259766 99.97782897949219 82.96771240234375 100.97203826904297 84.45940399169922" stroke-width="3.0" fill="none" stroke="rgb(0, 0, 0)" stroke-opacity="0.2087696" stroke-linecap="round" stroke-linejoin="round"/>
    <path d="M 126.97118377685547 115.23886108398438 C 125.10869598388672 105.11603546142578 126.06195831298828 107.07550048828125 125.27886199951172 109.14469909667969" stroke-width="3.0" fill="none" stroke="rgb(1, 0, 0)" stroke-opacity="0.36655056" stroke-linecap="round" stroke-linejoin="round"/>
    <path d="M 100.09397888183594 63.65791702270508 C 102.65998840332031 60.73732376098633 102.97278594970703 66.71369934082031 107.61965942382812 53.21394348144531" stroke-width="3.0" fill="none" stroke="rgb(0, 0, 0)" stroke-opacity="0.48806906" stroke-linecap="round" stroke-linejoin="round"/>
    <path d="M 99.5502700805664 55.494483947753906 C 88.48806762695312 49.934181213378906 91.01505279541016 52.9857177734375 92.09259796142578 47.19533157348633" stroke-width="3.0" fill="none" stroke="rgb(1, 0, 1)" stroke-opacity="0.70051277" stroke-linecap="round" stroke-linejoin="round"/>
    <path d="M 150.19046020507812 153.70697021484375 C 156.10971069335938 156.59121704101562 157.5856170654297 167.10733032226562 157.88624572753906 165.1430206298828" stroke-width="3.0" fill="none" stroke="rgb(2, -1, 0)" stroke-opacity="0.36895368" stroke-linecap="round" stroke-linejoin="round"/>
    <path d="M 60.646484375 62.05363845825195 C 61.12138748168945 62.07101821899414 60.7391357421875 61.93351745605469 60.78957748413086 61.7298469543457" stroke-width="3.0" fill="none" stroke="rgb(0, 0, 0)" stroke-opacity="0.38595065" stroke-linecap="round" stroke-linejoin="round"/>
    <path d="M 53.84477996826172 94.67000579833984 C 46.18716049194336 99.57299041748047 51.4260368347168 90.53666687011719 52.04313659667969 92.56934356689453" stroke-width="3.0" fill="none" stroke="rgb(0, 0, 1)" stroke-opacity="0.002579134" stroke-linecap="round" stroke-linejoin="round"/>
    <path d="M 19.307783126831055 137.80479431152344 C 22.982688903808594 153.9452362060547 18.955699920654297 150.88198852539062 28.65382194519043 168.15679931640625" stroke-width="3.0" fill="none" stroke="rgb(-1, 0, 2)" stroke-opacity="0.2736294" stroke-linecap="round" stroke-linejoin="round"/>
    <path d="M 56.18034744262695 114.40867614746094 C 59.58312225341797 124.9099349975586 58.31599807739258 116.5533676147461 61.97819137573242 126.75309753417969" stroke-width="3.0" fill="none" stroke="rgb(1, 1, -2)" stroke-opacity="0.21356489" stroke-linecap="round" stroke-linejoin="round"/>
    <path d="M 200.33920288085938 18.995044708251953 C 201.71261596679688 19.036056518554688 200.19003295898438 18.708740234375 200.54847717285156 18.71318817138672" stroke-width="3.0" fill="none" stroke="rgb(0, 0, 0)" stroke-opacity="0.3762335" stroke-linecap="round" stroke-linejoin="round"/>
    <path d="M 86.76361083984375 84.14471435546875 C 85.25454711914062 105.9690170288086 96.94461059570312 111.0344467163086 74.59175872802734 155.9274444580078" stroke-width="3.0" fill="none" stroke="rgb(2, -3, 2)" stroke-opacity="0.3488676" stroke-linecap="round" stroke-linejoin="round"/>
    <path d="M 30.814193725585938 73.07935333251953 C 26.359235763549805 83.63603973388672 23.892770767211914 77.94998168945312 32.15001678466797 72.49472045898438" stroke-width="3.0" fill="none" stroke="rgb(0, -1, 0)" stroke-opacity="0.07551739" stroke-linecap="round" stroke-linejoin="round"/>
    <path d="M 184.11903381347656 62.03334426879883 C 190.3291473388672 54.58604431152344 203.5806121826172 54.54154968261719 201.41522216796875 54.75423049926758" stroke-width="3.0" fill="none" stroke="rgb(-2, 0, 1)" stroke-opacity="0.29279965" stroke-linecap="round" stroke-linejoin="round"/>
    <path d="M 32.64208984375 59.92037582397461 C 38.03255844116211 58.74845504760742 26.173297882080078 55.7235107421875 12.271867752075195 86.960205078125" stroke-width="3.0" fill="none" stroke="rgb(-3, 3, 0)" stroke-opacity="0.2701655" stroke-linecap="round" stroke-linejoin="round"/>
    <path d="M -7.880207061767578 93.08845520019531 C -7.926443099975586 90.20526885986328 -9.19582748413086 91.4319839477539 -8.021794319152832 105.26133728027344" stroke-width="3.0" fill="none" stroke="rgb(0, 0, 0)" stroke-opacity="0.8579024" stroke-linecap="round" stroke-linejoin="round"/>
    <path d="M 209.91578674316406 56.05172348022461 C 206.69430541992188 57.88435745239258 209.61932373046875 49.15037536621094 208.1529083251953 51.03505325317383" stroke-width="3.0" fill="none" stroke="rgb(1, 1, 1)" stroke-opacity="0.27161962" stroke-linecap="round" stroke-linejoin="round"/>
    <path d="M 206.2714080810547 53.6385612487793 C 201.3411865234375 59.969295501708984 202.43316650390625 57.00410461425781 205.21548461914062 56.20775604248047" stroke-width="3.0" fill="none" stroke="rgb(1, 0, 0)" stroke-opacity="0.23683067" stroke-linecap="round" stroke-linejoin="round"/>
    <path d="M 103.65238952636719 157.9259490966797 C 105.8830795288086 156.00344848632812 91.51274108886719 161.83421325683594 103.4832992553711 157.3950958251953" stroke-width="3.0" fill="none" stroke="rgb(0, 0, 2)" stroke-opacity="0.2578845" stroke-linecap="round" stroke-linejoin="round"/>
    <path d="M 32.35129928588867 3.314072847366333 C 31.346426010131836 3.7591099739074707 32.10235595703125 1.9845142364501953 31.84872055053711 3.2541861534118652" stroke-width="3.0" fill="none" stroke="rgb(1, 0, -2)" stroke-opacity="0.10771214" stroke-linecap="round" stroke-linejoin="round"/>
    <path d="M 187.47239685058594 42.23847579956055 C 187.341552734375 50.09715270996094 186.2026824951172 31.585023880004883 158.78761291503906 5.129110336303711" stroke-width="3.0" fill="none" stroke="rgb(-3, 0, 2)" stroke-opacity="0.2396808" stroke-linecap="round" stroke-linejoin="round"/>
    <path d="M 78.19034576416016 35.57606887817383 C 85.31734466552734 58.29426193237305 84.0875244140625 62.282047271728516 97.25334167480469 60.61183166503906" stroke-width="3.0" fill="none" stroke="rgb(-2, 1, 1)" stroke-opacity="0.31588155" stroke-linecap="round" stroke-linejoin="round"/>
    <path d="M 19.219491958618164 203.89736938476562 C 18.467342376708984 206.9548797607422 21.751327514648438 197.7989501953125 21.78109359741211 189.25489807128906" stroke-width="3.0" fill="none" stroke="rgb(0, 1, -1)" stroke-opacity="0.31435025" stroke-linecap="round" stroke-linejoin="round"/>
    <path d="M 213.56573486328125 111.15157318115234 C 211.4004364013672 115.0477523803711 213.777099609375 109.62212371826172 212.23007202148438 103.00630187988281" stroke-width="3.0" fill="none" stroke="rgb(-1, 1, 2)" stroke-opacity="0.2859436" stroke-linecap="round" stroke-linejoin="round"/>
    <path d="M 129.7234649658203 184.31077575683594 C 129.33428955078125 184.4055633544922 129.6698455810547 183.1929168701172 131.6502227783203 183.22898864746094" stroke-width="3.0" fill="none" stroke="rgb(0, 0, 0)" stroke-opacity="0.3738494" stroke-linecap="round" stroke-linejoin="round"/>
    <path d="M 43.199127197265625 122.4955825805664 C 41.97568130493164 122.48068237304688 44.486881256103516 118.58335876464844 43.11031723022461 124.2997055053711" stroke-width="3.0" fill="none" stroke="rgb(1, 0, 0)" stroke-opacity="0.5046705" stroke-linecap="round" stroke-linejoin="round"/>
    <path d="M 71.09870147705078 114.47879791259766 C 69.17121124267578 113.66900634765625 73.37848663330078 117.8127212524414 71.79749298095703 116.32061767578125" stroke-width="3.0" fill="none" stroke="rgb(0, 1, -2)" stroke-opacity="0.22511555" stroke-linecap="round" stroke-linejoin="round"/>
    <path d="M 57.664669036865234 91.72843933105469 C 58.73240280151367 93.79069519042969 57.82907485961914 91.15772247314453 57.5479621887207 91.48456573486328" stroke-width="3.0" fill="none" stroke="rgb(1, 0, 0)" stroke-opacity="0.20665742" stroke-linecap="round" stroke-linejoin="round"/>
    <path d="M 194.4469451904297 160.8410186767578 C 192.51229858398438 156.52706909179688 193.98609924316406 162.60162353515625 203.75108337402344 140.64608764648438" stroke-width="3.0" fill="none" stroke="rgb(0, 0, 2)" stroke-opacity="0.2760154" stroke-linecap="round" stroke-linejoin="round"/>
    <path d="M 129.87083435058594 111.88020324707031 C 134.84994506835938 120.85694122314453 133.82391357421875 113.16758728027344 138.51895141601562 150.40234375" stroke-width="3.0" fill="none" stroke="rgb(1, -2, 1)" stroke-opacity="0.27822253" stroke-linecap="round" stroke-linejoin="round"/>
    <path d="M 62.0615348815918 58.796180725097656 C 61.836570739746094 58.27745056152344 62.1075325012207 59.56084060668945 62.57332229614258 59.12687683105469" stroke-width="3.0" fill="none" stroke="rgb(0, 0, 0)" stroke-opacity="0.2981351" stroke-linecap="round" stroke-linejoin="round"/>
    <path d="M 19.37546157836914 211.85891723632812 C 18.896394729614258 199.61334228515625 17.670167922973633 198.3755340576172 23.194692611694336 165.16624450683594" stroke-width="3.0" fill="none" stroke="rgb(-2, 2, 3)" stroke-opacity="0.2550088" stroke-linecap="round" stroke-linejoin="round"/>
    <path d="M 13.647893905639648 132.68841552734375 C 11.38392448425293 115.84327697753906 13.0360689163208 119.50369262695312 12.443231582641602 101.4317398071289" stroke-width="3.0" fill="none" stroke="rgb(-3, 1, 3)" stroke-opacity="0.12526514" stroke-linecap="round" stroke-linejoin="round"/>
    <path d="M 41.567588806152344 44.861717224121094 C 30.382471084594727 53.961612701416016 31.779617309570312 57.018951416015625 39.075439453125 50.80241775512695" stroke-width="3.0" fill="none" stroke="rgb(0, 0, 3)" stroke-opacity="0.29013914" stroke-linecap="round" stroke-linejoin="round"/>
    <path d="M 199.3886260986328 63.061744689941406 C 225.68002319335938 55.30842590332031 217.80035400390625 58.101966857910156 197.53549194335938 57.654422760009766" stroke-width="3.0" fill="none" stroke="rgb(0, 0, 0)" stroke-opacity="0.16849945" stroke-linecap="round" stroke-linejoin="round"/>
    <path d="M 168.92279052734375 196.1476593017578 C 155.7662811279297 155.43687438964844 170.7252655029297 158.65414428710938 169.21792602539062 182.5353546142578" stroke-width="3.0" fill="none" stroke="rgb(-2, 0, 2)" stroke-opacity="0.04596654" stroke-linecap="round" stroke-linejoin="round"/>
    <path d="M 37.36661148071289 114.40972900390625 C 42.88669204711914 108.28406524658203 45.91499328613281 120.5313949584961 41.375885009765625 163.7590789794922" stroke-width="3.0" fill="none" stroke="rgb(0, 0, 0)" stroke-opacity="0.34052032" stroke-linecap="round" stroke-linejoin="round"/>
    <path d="M 156.96360778808594 158.8946533203125 C 169.77183532714844 168.5947265625 177.66903686523438 174.9888458251953 190.99844360351562 162.65818786621094" stroke-width="3.0" fill="none" stroke="rgb(0, 0, 0)" stroke-opacity="0.25853115" stroke-linecap="round" stroke-linejoin="round"/>
    <path d="M 59.86204147338867 159.5608367919922 C 65.09430694580078 184.7666015625 59.264530181884766 160.4529571533203 62.65434265136719 155.9807586669922" stroke-width="3.0" fill="none" stroke="rgb(1, -2, 0)" stroke-opacity="0.4534846" stroke-linecap="round" stroke-linejoin="round"/>
    <path d="M 209.03709411621094 46.95188522338867 C 213.2699432373047 42.230010986328125 210.3805694580078 42.53689193725586 211.3231964111328 54.187957763671875" stroke-width="3.0" fill="none" stroke="rgb(0, 0, 0)" stroke-opacity="0.057395734" stroke-linecap="round" stroke-linejoin="round"/>
    <path d="M 36.98322677612305 17.321090698242188 C 36.69575500488281 17.303466796875 36.868778228759766 17.35634422302246 36.781707763671875 17.211095809936523" stroke-width="3.0" fill="none" stroke="rgb(1, 0, -1)" stroke-opacity="0.2181428" stroke-linecap="round" stroke-linejoin="round"/>
    <path d="M 158.31182861328125 189.8613739013672 C 157.7950439453125 209.5703125 159.02159118652344 209.5050811767578 157.19822692871094 202.62091064453125" stroke-width="3.0" fill="none" stroke="rgb(1, 0, 0)" stroke-opacity="0.092894875" stroke-linecap="round" stroke-linejoin="round"/>
    <path d="M 63.50409698486328 117.02021789550781 C 68.88805389404297 103.96173858642578 64.31111145019531 116.93547821044922 62.47146224975586 111.18292236328125" stroke-width="3.0" fill="none" stroke="rgb(-1, 2, -2)" stroke-opacity="0.42050382" stroke-linecap="round" stroke-linejoin="round"/>
    <path d="M 129.84564208984375 142.9403076171875 C 99.32247161865234 142.70809936523438 85.4849853515625 143.25997924804688 98.24925231933594 148.05816650390625" stroke-width="3.0" fill="none" stroke="rgb(-1, 1, 0)" stroke-opacity="0.24407873" stroke-linecap="round" stroke-linejoin="round"/>
    <path d="M 124.06249237060547 105.33064270019531 C 124.56431579589844 106.26101684570312 124.74910736083984 107.64356994628906 123.05730438232422 103.80667114257812" stroke-width="3.0" fill="none" stroke="rgb(0, 0, 1)" stroke-opacity="0.2928848" stroke-linecap="round" stroke-linejoin="round"/>
    <path d="M 64.3912124633789 59.75992965698242 C 63.64077377319336 60.907752990722656 61.055023193359375 59.829444885253906 63.85451889038086 59.54265213012695" stroke-width="3.0" fill="none" stroke="rgb(1, 0, 0)" stroke-opacity="0.35699615" stroke-linecap="round" stroke-linejoin="round"/>
    <path d="M 41.99919509887695 114.69912719726562 C 38.62425231933594 112.29271697998047 33.75033950805664 128.87538146972656 32.870140075683594 150.94216918945312" stroke-width="3.0" fill="none" stroke="rgb(0, 2, -1)" stroke-opacity="0.4607949" stroke-linecap="round" stroke-linejoin="round"/>
    <path d="M 222.16270446777344 113.3990249633789 C 203.72842407226562 115.53581237792969 218.89712524414062 113.96210479736328 235.20948791503906 118.3948745727539" stroke-width="3.0" fill="none" stroke="rgb(0, 0, 1)" stroke-opacity="0.20601629" stroke-linecap="round" stroke-linejoin="round"/>
    <path d="M 104.63874816894531 169.9638671875 C 105.32962799072266 170.25436401367188 104.32563781738281 172.50064086914062 105.03005981445312 172.8438720703125" stroke-width="3.0" fill="none" stroke="rgb(0, 0, -1)" stroke-opacity="0.110844195" stroke-linecap="round" stroke-linejoin="round"/>
    <path d="M 46.87990951538086 99.89278411865234 C 50.72832489013672 91.67945861816406 53.37235641479492 101.68683624267578 51.300411224365234 104.78324127197266" stroke-width="3.0" fill="none" stroke="rgb(0, 0, 1)" stroke-opacity="0.0647102" stroke-linecap="round" stroke-linejoin="round"/>
    <path d="M 179.06597900390625 68.15599822998047 C 178.23707580566406 70.37557983398438 179.95205688476562 68.77975463867188 181.3885498046875 63.88536834716797" stroke-width="3.0" fill="none" stroke="rgb(-1, 1, 1)" stroke-opacity="0.2792152" stroke-linecap="round" stroke-linejoin="round"/>
    <path d="M 95.962890625 21.661916732788086 C 79.80587005615234 18.40708351135254 91.63983154296875 12.746898651123047 98.62772369384766 24.319355010986328" stroke-width="3.0" fill="none" stroke="rgb(3, -4, 0)" stroke-opacity="0.60133964" stroke-linecap="round" stroke-linejoin="round"/>
    <path d="M 73.23844909667969 165.0541229248047 C 76.32064819335938 150.1267547607422 74.87345123291016 150.6487579345703 76.8598861694336 145.48199462890625" stroke-width="3.0" fill="none" stroke="rgb(1, -1, 2)" stroke-opacity="0.34632245" stroke-linecap="round" stroke-linejoin="round"/>
    <path d="M 44.15131759643555 114.56277465820312 C 42.261837005615234 111.95927429199219 50.10513687133789 127.6378402709961 42.90575408935547 110.24469757080078" stroke-width="3.0" fill="none" stroke="rgb(0, 0, 0)" stroke-opacity="0.28212672" stroke-linecap="round" stroke-linejoin="round"/>
    <path d="M 149.8464813232422 103.529541015625 C 149.3281707763672 102.2092056274414 149.1635284423828 103.49637603759766 150.5500030517578 104.78128051757812" stroke-width="3.0" fill="none" stroke="rgb(0, 0, 0)" stroke-opacity="0.39211643" stroke-linecap="round" stroke-linejoin="round"/>
    <path d="M 42.4970703125 117.70570373535156 C 29.844934463500977 137.70249938964844 40.567447662353516 110.76639556884766 40.689117431640625 118.57255554199219" stroke-width="3.0" fill="none" stroke="rgb(1, -1, 0)" stroke-opacity="0.4298478" stroke-linecap="round" stroke-linejoin="round"/>
    <path d="M 47.88347625732422 87.8001480102539 C 45.94599533081055 88.67579650878906 49.72551727294922 87.34205627441406 51.67184829711914 83.1480712890625" stroke-width="3.0" fill="none" stroke="rgb(-1, 1, 2)" stroke-opacity="0.1783773" stroke-linecap="round" stroke-linejoin="round"/>
    <path d="M 19.050172805786133 198.91079711914062 C 18.313404083251953 202.01376342773438 19.174041748046875 198.99542236328125 20.820453643798828 196.22145080566406" stroke-width="3.0" fill="none" stroke="rgb(1, 1, 0)" stroke-opacity="0.33376744" stroke-linecap="round" stroke-linejoin="round"/>
    <path d="M 128.09963989257812 118.81676483154297 C 129.13780212402344 128.1905517578125 129.65428161621094 120.20306396484375 131.335205078125 126.39107513427734" stroke-width="3.0" fill="none" stroke="rgb(1, -1, 0)" stroke-opacity="0.43033704" stroke-linecap="round" stroke-linejoin="round"/>
    <path d="M 52.38137435913086 -5.113427639007568 C 56.07400131225586 -3.648117780685425 57.12858581542969 -5.855424880981445 52.012428283691406 -5.039597988128662" stroke-width="3.0" fill="none" stroke="rgb(0, 0, 0)" stroke-opacity="0.62695765" stroke-linecap="round" stroke-linejoin="round"/>
    <path d="M 86.4376449584961 61.46928405761719 C 99.95948028564453 82.13182067871094 77.79597473144531 67.55426788330078 99.9405746459961 65.60934448242188" stroke-width="3.0" fill="none" stroke="rgb(-2, 1, 0)" stroke-opacity="0.21708082" stroke-linecap="round" stroke-linejoin="round"/>
    <path d="M 130.64584350585938 56.319183349609375 C 127.26358795166016 56.64897918701172 129.15869140625 57.07512283325195 136.36871337890625 55.94263458251953" stroke-width="3.0" fill="none" stroke="rgb(0, 0, 0)" stroke-opacity="0.4572959" stroke-linecap="round" stroke-linejoin="round"/>
    <path d="M 42.60993576049805 115.09915924072266 C 44.78160095214844 113.34846496582031 36.785552978515625 107.51203155517578 38.85532760620117 117.1520004272461" stroke-width="3.0" fill="none" stroke="rgb(1, -2, 2)" stroke-opacity="0.49587306" stroke-linecap="round" stroke-linejoin="round"/>
    <path d="M 163.65113830566406 70.77643585205078 C 162.80357360839844 67.41574096679688 166.96788024902344 84.1062240600586 147.0568389892578 60.287620544433594" stroke-width="3.0" fill="none" stroke="rgb(0, 1, 1)" stroke-opacity="0.28930762" stroke-linecap="round" stroke-linejoin="round"/>
    <path d="M 116.53006744384766 178.85633850097656 C 117.45262908935547 179.03712463378906 115.57965087890625 178.6362762451172 116.11468505859375 178.38926696777344" stroke-width="3.0" fill="none" stroke="rgb(0, 1, -1)" stroke-opacity="0.2208738" stroke-linecap="round" stroke-linejoin="round"/>
    <path d="M 108.36698913574219 52.212467193603516 C 98.32856750488281 61.98674011230469 116.48314666748047 49.49740219116211 110.33294677734375 42.90129089355469" stroke-width="3.0" fill="none" stroke="rgb(0, 0, 0)" stroke-opacity="0.37797788" stroke-linecap="round" stroke-linejoin="round"/>
    <path d="M 158.57595825195312 203.3251495361328 C 158.55821228027344 202.3650665283203 158.61044311523438 207.7116241455078 159.01380920410156 199.7744598388672" stroke-width="3.0" fill="none" stroke="rgb(1, 1, 0)" stroke-opacity="0.3936244" stroke-linecap="round" stroke-linejoin="round"/>
    <path d="M 147.36497497558594 181.3762664794922 C 148.0360565185547 183.99725341796875 146.50596618652344 178.29978942871094 147.45822143554688 178.1019744873047" stroke-width="3.0" fill="none" stroke="rgb(0, 0, 0)" stroke-opacity="0.33806956" stroke-linecap="round" stroke-linejoin="round"/>
    <path d="M 89.02574920654297 58.228233337402344 C 109.44004821777344 52.775691986083984 101.18052673339844 59.44031524658203 89.94701385498047 38.493717193603516" stroke-width="3.0" fill="none" stroke="rgb(0, 0, 0)" stroke-opacity="0.22332543" stroke-linecap="round" stroke-linejoin="round"/>
    <path d="M 73.4609603881836 172.37684631347656 C 72.56086730957031 171.82400512695312 73.00448608398438 170.7864227294922 73.2395248413086 166.24755859375" stroke-width="3.0" fill="none" stroke="rgb(0, 0, 0)" stroke-opacity="0.2157726" stroke-linecap="round" stroke-linejoin="round"/>
    <path d="M 131.28285217285156 4.506989479064941 C 148.57965087890625 21.249940872192383 122.1857681274414 34.56253433227539 134.616943359375 20.421875" stroke-width="3.0" fill="none" stroke="rgb(0, 0, 0)" stroke-opacity="0.29954326" stroke-linecap="round" stroke-linejoin="round"/>
    <path d="M 75.15658569335938 69.99784851074219 C 68.80374908447266 73.61344909667969 77.77915954589844 70.88709259033203 72.09188079833984 71.18806457519531" stroke-width="3.0" fill="none" stroke="rgb(0, 0, 1)" stroke-opacity="0.22768162" stroke-linecap="round" stroke-linejoin="round"/>
    <path d="M 55.01000213623047 117.62250518798828 C 60.0424690246582 145.21429443359375 53.443519592285156 131.75343322753906 56.810447692871094 140.9560089111328" stroke-width="3.0" fill="none" stroke="rgb(-1, 1, 0)" stroke-opacity="0.18312432" stroke-linecap="round" stroke-linejoin="round"/>
    <path d="M 70.30169677734375 102.75326538085938 C 73.27120208740234 116.15190887451172 80.76937103271484 116.64863586425781 74.24197387695312 93.3851547241211" stroke-width="3.0" fill="none" stroke="rgb(-3, 1, -2)" stroke-opacity="0.12686317" stroke-linecap="round" stroke-linejoin="round"/>
    <path d="M 136.07467651367188 128.1260223388672 C 142.32554626464844 136.0625762939453 146.3072052001953 143.69407653808594 151.49070739746094 153.3472137451172" stroke-width="3.0" fill="none" stroke="rgb(1, -1, 0)" stroke-opacity="0.25301003" stroke-linecap="round" stroke-linejoin="round"/>
    <path d="M 153.2120361328125 134.2718963623047 C 153.17636108398438 128.50143432617188 153.0545196533203 128.33251953125 152.4613800048828 126.74702453613281" stroke-width="3.0" fill="none" stroke="rgb(0, 0, 0)" stroke-opacity="0.27139628" stroke-linecap="round" stroke-linejoin="round"/>
    <path d="M 23.596050262451172 171.18016052246094 C 23.39361572265625 174.59056091308594 23.644987106323242 171.7928466796875 23.36707305908203 171.1446075439453" stroke-width="3.0" fill="none" stroke="rgb(0, 0, 0)" stroke-opacity="0.39601386" stroke-linecap="round" stroke-linejoin="round"/>
    <path d="M 134.8365936279297 127.37257385253906 C 136.06961059570312 131.893798828125 140.28948974609375 130.28759765625 133.3545684814453 125.25505828857422" stroke-width="3.0" fill="none" stroke="rgb(1, -2, 1)" stroke-opacity="0.30956078" stroke-linecap="round" stroke-linejoin="round"/>
  </g>
</svg>
