<?xml version="1.0" ?>
<svg xmlns="http://www.w3.org/2000/svg" version="1.1" width="224" height="224">
  <defs/>
  <g>
    <path d="M 188.80528259277344 60.56477355957031 C 187.82911682128906 25.929189682006836 196.68185424804688 74.89087677001953 190.55776977539062 52.205047607421875" stroke-width="3.0" fill="none" stroke="rgb(-4, -4, 7)" stroke-opacity="0.41150084" stroke-linecap="round" stroke-linejoin="round"/>
    <path d="M 19.281051635742188 93.13582611083984 C 30.499549865722656 64.78389739990234 44.40791702270508 75.37802124023438 18.954500198364258 86.3451156616211" stroke-width="3.0" fill="none" stroke="rgb(2, -3, 0)" stroke-opacity="0.047791995" stroke-linecap="round" stroke-linejoin="round"/>
    <path d="M 193.93092346191406 45.004547119140625 C 205.52279663085938 76.95654296875 198.48727416992188 26.997638702392578 191.96029663085938 56.7423095703125" stroke-width="3.0" fill="none" stroke="rgb(0, 0, 0)" stroke-opacity="0.01641876" stroke-linecap="round" stroke-linejoin="round"/>
    <path d="M 59.53590393066406 64.23055267333984 C 69.59354400634766 95.37879943847656 92.4681396484375 44.26706314086914 68.44947814941406 73.51383972167969" stroke-width="3.0" fill="none" stroke="rgb(1, -2, 2)" stroke-opacity="0.056744307" stroke-linecap="round" stroke-linejoin="round"/>
    <path d="M 42.295475006103516 31.72757339477539 C 94.92107391357422 -9.949666976928711 123.3470687866211 37.25831985473633 83.96719360351562 31.89689064025879" stroke-width="3.0" fill="none" stroke="rgb(-3, -1, 3)" stroke-opacity="0.33955535" stroke-linecap="round" stroke-linejoin="round"/>
    <path d="M 53.685848236083984 86.93351745605469 C 4.650756359100342 155.13165283203125 32.62019729614258 8.332801818847656 27.944421768188477 149.86810302734375" stroke-width="3.0" fill="none" stroke="rgb(2, 0, -2)" stroke-opacity="0.04626436" stroke-linecap="round" stroke-linejoin="round"/>
    <path d="M 25.080154418945312 233.31414794921875 C 38.7629508972168 231.413818359375 37.40699005126953 217.8079833984375 36.31288146972656 228.71441650390625" stroke-width="3.0" fill="none" stroke="rgb(0, 0, 0)" stroke-opacity="0.0058087823" stroke-linecap="round" stroke-linejoin="round"/>
    <path d="M 35.56949234008789 176.24703979492188 C 33.308616638183594 124.15396881103516 52.645687103271484 227.9227752685547 29.41385841369629 165.11566162109375" stroke-width="3.0" fill="none" stroke="rgb(-1, 0, 1)" stroke-opacity="0.10083896" stroke-linecap="round" stroke-linejoin="round"/>
    <path d="M 88.49309539794922 163.65750122070312 C 77.8156509399414 196.22763061523438 85.12444305419922 314.7519226074219 87.48726654052734 172.24542236328125" stroke-width="3.0" fill="none" stroke="rgb(0, 1, 0)" stroke-opacity="0.11781472" stroke-linecap="round" stroke-linejoin="round"/>
    <path d="M 50.03539276123047 60.86742401123047 C 18.318269729614258 61.7379150390625 51.15452194213867 59.84698486328125 17.733915328979492 74.06925201416016" stroke-width="3.0" fill="none" stroke="rgb(0, -1, 2)" stroke-opacity="0.13484497" stroke-linecap="round" stroke-linejoin="round"/>
    <path d="M 101.70906829833984 14.707534790039062 C 32.09334945678711 46.199127197265625 144.10873413085938 47.68251419067383 91.30394744873047 24.070316314697266" stroke-width="3.0" fill="none" stroke="rgb(-1, -1, 2)" stroke-opacity="0.21008095" stroke-linecap="round" stroke-linejoin="round"/>
    <path d="M 175.3091583251953 238.18922424316406 C 156.79934692382812 212.3097686767578 173.20606994628906 203.5065155029297 149.71908569335938 152.2464599609375" stroke-width="3.0" fill="none" stroke="rgb(0, -1, 0)" stroke-opacity="0.1459149" stroke-linecap="round" stroke-linejoin="round"/>
    <path d="M 48.836639404296875 227.52723693847656 C 46.4813117980957 208.1566619873047 69.32486724853516 130.50076293945312 55.18336868286133 231.97528076171875" stroke-width="3.0" fill="none" stroke="rgb(-2, 0, 2)" stroke-opacity="0.069861285" stroke-linecap="round" stroke-linejoin="round"/>
    <path d="M 185.45115661621094 151.25389099121094 C 169.7354278564453 40.86422348022461 116.96055603027344 74.228515625 156.89886474609375 37.809757232666016" stroke-width="3.0" fill="none" stroke="rgb(-3, 2, 2)" stroke-opacity="0.18467155" stroke-linecap="round" stroke-linejoin="round"/>
    <path d="M 91.8443832397461 112.13758087158203 C 79.51052856445312 39.980018615722656 99.07926177978516 63.134525299072266 67.16526794433594 99.42071533203125" stroke-width="3.0" fill="none" stroke="rgb(4, -1, -1)" stroke-opacity="0.0691286" stroke-linecap="round" stroke-linejoin="round"/>
    <path d="M 57.8541145324707 118.06198120117188 C 49.76649475097656 109.40234375 55.89583206176758 152.76126098632812 44.15961837768555 174.46014404296875" stroke-width="3.0" fill="none" stroke="rgb(-2, 1, 2)" stroke-opacity="0.23872252" stroke-linecap="round" stroke-linejoin="round"/>
    <path d="M 40.961265563964844 38.38853073120117 C 50.2608757019043 33.50558090209961 40.96187210083008 33.43745040893555 38.72430419921875 40.153892517089844" stroke-width="3.0" fill="none" stroke="rgb(0, -1, 1)" stroke-opacity="0.42579737" stroke-linecap="round" stroke-linejoin="round"/>
    <path d="M 139.77609252929688 57.838768005371094 C 134.89564514160156 24.2032527923584 151.0860137939453 2.046527862548828 118.23599243164062 35.11116409301758" stroke-width="3.0" fill="none" stroke="rgb(0, -1, 0)" stroke-opacity="0.3035918" stroke-linecap="round" stroke-linejoin="round"/>
    <path d="M 34.414642333984375 60.39261245727539 C 27.329673767089844 59.40757751464844 23.800405502319336 77.0958023071289 28.710954666137695 67.21450805664062" stroke-width="3.0" fill="none" stroke="rgb(-1, 0, 0)" stroke-opacity="0.2241515" stroke-linecap="round" stroke-linejoin="round"/>
    <path d="M 93.53923034667969 66.36750030517578 C 112.6527099609375 54.48762130737305 85.30960845947266 70.82474517822266 76.38088989257812 54.071964263916016" stroke-width="3.0" fill="none" stroke="rgb(0, 1, -1)" stroke-opacity="0.124026775" stroke-linecap="round" stroke-linejoin="round"/>
    <path d="M 149.1139678955078 138.8350372314453 C 130.10597229003906 107.38861846923828 139.1278839111328 119.58441162109375 121.50664520263672 70.37657928466797" stroke-width="3.0" fill="none" stroke="rgb(-4, 3, 4)" stroke-opacity="0.077777416" stroke-linecap="round" stroke-linejoin="round"/>
    <path d="M 115.04716491699219 46.849422454833984 C 93.70883178710938 71.40223693847656 122.10865020751953 43.06932067871094 110.36913299560547 42.999393463134766" stroke-width="3.0" fill="none" stroke="rgb(0, 0, -1)" stroke-opacity="0.30567053" stroke-linecap="round" stroke-linejoin="round"/>
    <path d="M 100.76028442382812 57.09413146972656 C 85.61968994140625 53.89072036743164 95.99321746826172 42.53664779663086 95.83433532714844 53.3129768371582" stroke-width="3.0" fill="none" stroke="rgb(0, -1, 1)" stroke-opacity="0.6411234" stroke-linecap="round" stroke-linejoin="round"/>
    <path d="M 130.6239471435547 126.42472839355469 C 159.15406799316406 153.7811279296875 152.74839782714844 192.74005126953125 158.3020782470703 158.82101440429688" stroke-width="3.0" fill="none" stroke="rgb(2, -2, -1)" stroke-opacity="0.07886364" stroke-linecap="round" stroke-linejoin="round"/>
    <path d="M 53.953617095947266 63.5157470703125 C 49.28693771362305 56.9870491027832 117.71192932128906 70.94483184814453 37.549198150634766 63.40789794921875" stroke-width="3.0" fill="none" stroke="rgb(2, -2, 2)" stroke-opacity="0.03130532" stroke-linecap="round" stroke-linejoin="round"/>
    <path d="M 59.023033142089844 102.7748794555664 C 28.519954681396484 56.90861129760742 51.49419021606445 39.40003967285156 52.68844985961914 114.20707702636719" stroke-width="3.0" fill="none" stroke="rgb(2, -1, 0)" stroke-opacity="0.009767012" stroke-linecap="round" stroke-linejoin="round"/>
    <path d="M 17.715091705322266 99.83757019042969 C 31.493406295776367 155.8815460205078 13.641255378723145 118.75142669677734 35.109580993652344 180.80970764160156" stroke-width="3.0" fill="none" stroke="rgb(-3, 2, 3)" stroke-opacity="0.0894475" stroke-linecap="round" stroke-linejoin="round"/>
    <path d="M 51.65670394897461 105.02010345458984 C 64.61428833007812 161.02467346191406 77.02509307861328 33.99729919433594 58.83134078979492 179.7567138671875" stroke-width="3.0" fill="none" stroke="rgb(-4, 3, 1)" stroke-opacity="0.10961512" stroke-linecap="round" stroke-linejoin="round"/>
    <path d="M 208.5471954345703 2.0297691822052 C 195.14735412597656 21.78249168395996 211.47100830078125 12.404674530029297 198.27549743652344 17.091318130493164" stroke-width="3.0" fill="none" stroke="rgb(0, 0, 0)" stroke-opacity="0.007895937" stroke-linecap="round" stroke-linejoin="round"/>
    <path d="M 93.6725845336914 84.54053497314453 C 76.7907943725586 97.55253601074219 102.8077621459961 84.2439193725586 78.39622497558594 156.45152282714844" stroke-width="3.0" fill="none" stroke="rgb(2, -2, 1)" stroke-opacity="0.3850649" stroke-linecap="round" stroke-linejoin="round"/>
    <path d="M 19.42523956298828 82.95652770996094 C 51.353057861328125 89.79429626464844 -4.606297492980957 110.10721588134766 40.97275924682617 74.57842254638672" stroke-width="3.0" fill="none" stroke="rgb(1, -2, 0)" stroke-opacity="0.040520176" stroke-linecap="round" stroke-linejoin="round"/>
    <path d="M 187.2035675048828 63.02082061767578 C 169.0736846923828 50.44808578491211 174.11070251464844 63.30856704711914 189.0738525390625 59.16386795043945" stroke-width="3.0" fill="none" stroke="rgb(-1, 0, 0)" stroke-opacity="0.07585744" stroke-linecap="round" stroke-linejoin="round"/>
    <path d="M 33.5327033996582 53.55603790283203 C 55.22798538208008 47.959228515625 4.324895858764648 77.35559844970703 10.881979942321777 92.50151062011719" stroke-width="3.0" fill="none" stroke="rgb(-2, 1, 2)" stroke-opacity="0.15224636" stroke-linecap="round" stroke-linejoin="round"/>
    <path d="M -7.880927085876465 93.08792877197266 C -7.927267551422119 90.20471954345703 -9.196883201599121 91.43144989013672 -8.022367477416992 105.26133728027344" stroke-width="3.0" fill="none" stroke="rgb(0, 0, 0)" stroke-opacity="0.85789436" stroke-linecap="round" stroke-linejoin="round"/>
    <path d="M 201.8130340576172 55.914337158203125 C 216.24827575683594 48.68707275390625 213.83047485351562 78.48431396484375 201.9991912841797 48.252960205078125" stroke-width="3.0" fill="none" stroke="rgb(0, 0, 0)" stroke-opacity="0.011066713" stroke-linecap="round" stroke-linejoin="round"/>
    <path d="M 212.68614196777344 54.566246032714844 C 189.9708709716797 39.85848617553711 175.30020141601562 25.007465362548828 211.6058349609375 49.78263854980469" stroke-width="3.0" fill="none" stroke="rgb(0, 0, 0)" stroke-opacity="0.009481494" stroke-linecap="round" stroke-linejoin="round"/>
    <path d="M 84.822998046875 201.7613525390625 C 74.8777847290039 118.16170501708984 92.21259307861328 135.2730255126953 96.84820556640625 156.6321563720703" stroke-width="3.0" fill="none" stroke="rgb(-1, 1, 1)" stroke-opacity="0.11719368" stroke-linecap="round" stroke-linejoin="round"/>
    <path d="M 40.31650161743164 0.5477325320243835 C 27.16547966003418 1.1322617530822754 29.38174819946289 1.0633418560028076 8.739627838134766 0.5619022250175476" stroke-width="3.0" fill="none" stroke="rgb(-1, 0, 1)" stroke-opacity="0.023199126" stroke-linecap="round" stroke-linejoin="round"/>
    <path d="M 184.89952087402344 36.77865982055664 C 193.05653381347656 62.448516845703125 182.2172088623047 21.773008346557617 150.3573760986328 -3.928448438644409" stroke-width="3.0" fill="none" stroke="rgb(-2, 2, 1)" stroke-opacity="0.34111887" stroke-linecap="round" stroke-linejoin="round"/>
    <path d="M 78.9245834350586 43.14076232910156 C 102.22254943847656 60.96720504760742 72.28355407714844 75.91529083251953 106.69518280029297 58.36274337768555" stroke-width="3.0" fill="none" stroke="rgb(-2, 1, 2)" stroke-opacity="0.3160405" stroke-linecap="round" stroke-linejoin="round"/>
    <path d="M 32.4990348815918 242.89295959472656 C 31.626205444335938 165.9781494140625 27.563425064086914 202.8512420654297 27.414684295654297 172.51309204101562" stroke-width="3.0" fill="none" stroke="rgb(0, -2, 1)" stroke-opacity="0.09328979" stroke-linecap="round" stroke-linejoin="round"/>
    <path d="M 210.80018615722656 128.78720092773438 C 214.20040893554688 179.4007110595703 218.0971221923828 45.94987487792969 191.23666381835938 58.26810073852539" stroke-width="3.0" fill="none" stroke="rgb(-2, 2, 3)" stroke-opacity="0.23395027" stroke-linecap="round" stroke-linejoin="round"/>
    <path d="M 148.86968994140625 238.3011932373047 C 150.20462036132812 232.22177124023438 147.0170440673828 221.93902587890625 147.49253845214844 240.9585418701172" stroke-width="3.0" fill="none" stroke="rgb(0, 0, 0)" stroke-opacity="0.25416926" stroke-linecap="round" stroke-linejoin="round"/>
    <path d="M 52.455177307128906 122.4720458984375 C 39.073951721191406 106.68598937988281 32.28553009033203 112.04484558105469 48.417232513427734 141.21493530273438" stroke-width="3.0" fill="none" stroke="rgb(0, 0, 0)" stroke-opacity="0.03675208" stroke-linecap="round" stroke-linejoin="round"/>
    <path d="M 78.10669708251953 116.66912841796875 C 54.69963836669922 62.63264465332031 104.12791442871094 121.57626342773438 50.9061279296875 167.61526489257812" stroke-width="3.0" fill="none" stroke="rgb(-2, 2, -2)" stroke-opacity="0.100259654" stroke-linecap="round" stroke-linejoin="round"/>
    <path d="M 79.09880828857422 72.36087799072266 C 43.198631286621094 135.32452392578125 59.825462341308594 82.0372543334961 47.7249755859375 116.78266906738281" stroke-width="3.0" fill="none" stroke="rgb(1, -1, 0)" stroke-opacity="0.031371843" stroke-linecap="round" stroke-linejoin="round"/>
    <path d="M 195.64389038085938 168.58590698242188 C 202.53829956054688 116.56611633300781 198.7521209716797 187.85203552246094 210.2728271484375 128.3363800048828" stroke-width="3.0" fill="none" stroke="rgb(-2, 2, 1)" stroke-opacity="0.19184053" stroke-linecap="round" stroke-linejoin="round"/>
    <path d="M 124.09439849853516 95.47634887695312 C 144.06858825683594 121.6874771118164 119.18695831298828 146.91790771484375 156.16888427734375 160.64791870117188" stroke-width="3.0" fill="none" stroke="rgb(1, -1, 2)" stroke-opacity="0.106294475" stroke-linecap="round" stroke-linejoin="round"/>
    <path d="M 65.98699188232422 46.386512756347656 C 28.327510833740234 55.58820724487305 77.10151672363281 22.75288963317871 43.579349517822266 57.60300827026367" stroke-width="3.0" fill="none" stroke="rgb(1, -1, 1)" stroke-opacity="0.042314935" stroke-linecap="round" stroke-linejoin="round"/>
    <path d="M 22.388404846191406 242.98251342773438 C 12.499147415161133 173.994384765625 28.769441604614258 190.57925415039062 17.78268814086914 148.55929565429688" stroke-width="3.0" fill="none" stroke="rgb(-2, 2, 1)" stroke-opacity="0.30464023" stroke-linecap="round" stroke-linejoin="round"/>
    <path d="M 29.403839111328125 168.18055725097656 C 9.711921691894531 136.65890502929688 11.612410545349121 113.99967956542969 11.090648651123047 84.03973388671875" stroke-width="3.0" fill="none" stroke="rgb(-2, 2, 2)" stroke-opacity="0.1737543" stroke-linecap="round" stroke-linejoin="round"/>
    <path d="M 66.2601547241211 30.48479461669922 C 45.67032241821289 32.83361053466797 13.06231689453125 60.65224075317383 50.78420639038086 48.9083137512207" stroke-width="3.0" fill="none" stroke="rgb(0, -2, 3)" stroke-opacity="0.11002472" stroke-linecap="round" stroke-linejoin="round"/>
    <path d="M 200.2010955810547 146.99667358398438 C 174.147216796875 31.33237648010254 216.0147705078125 80.76002502441406 186.5968017578125 48.746524810791016" stroke-width="3.0" fill="none" stroke="rgb(-5, 4, 0)" stroke-opacity="0.048190136" stroke-linecap="round" stroke-linejoin="round"/>
    <path d="M 187.0236358642578 236.19644165039062 C 178.26536560058594 130.26234436035156 197.6259002685547 145.82470703125 192.21673583984375 231.70289611816406" stroke-width="3.0" fill="none" stroke="rgb(-3, 2, 3)" stroke-opacity="0.14656715" stroke-linecap="round" stroke-linejoin="round"/>
    <path d="M 41.987525939941406 138.21559143066406 C 43.37632751464844 97.7946548461914 45.71085739135742 165.4792022705078 39.42742156982422 180.90565490722656" stroke-width="3.0" fill="none" stroke="rgb(-2, -1, 3)" stroke-opacity="0.32170585" stroke-linecap="round" stroke-linejoin="round"/>
    <path d="M 149.92193603515625 149.2399444580078 C 166.0275115966797 171.23162841796875 183.38096618652344 178.13494873046875 193.7878875732422 153.67698669433594" stroke-width="3.0" fill="none" stroke="rgb(0, 0, 1)" stroke-opacity="0.21863852" stroke-linecap="round" stroke-linejoin="round"/>
    <path d="M 94.9898452758789 143.18795776367188 C 76.75550079345703 116.98750305175781 66.13577270507812 183.33045959472656 89.78462219238281 114.68927764892578" stroke-width="3.0" fill="none" stroke="rgb(5, -5, 4)" stroke-opacity="0.25557494" stroke-linecap="round" stroke-linejoin="round"/>
    <path d="M 210.64883422851562 44.39830780029297 C 218.63580322265625 15.056997299194336 215.07150268554688 26.93791389465332 215.4561309814453 66.85066986083984" stroke-width="3.0" fill="none" stroke="rgb(0, 0, 0)" stroke-opacity="0.005542342" stroke-linecap="round" stroke-linejoin="round"/>
    <path d="M 40.73740768432617 19.0565128326416 C 14.930960655212402 10.523712158203125 15.46694564819336 4.702001094818115 41.259769439697266 15.668854713439941" stroke-width="3.0" fill="none" stroke="rgb(0, 0, 0)" stroke-opacity="0.0075921826" stroke-linecap="round" stroke-linejoin="round"/>
    <path d="M 145.09927368164062 156.3581085205078 C 155.41197204589844 268.616455078125 147.3535919189453 303.1437683105469 142.27102661132812 154.2681427001953" stroke-width="3.0" fill="none" stroke="rgb(-2, 3, 0)" stroke-opacity="0.18467738" stroke-linecap="round" stroke-linejoin="round"/>
    <path d="M 70.63008880615234 116.51634216308594 C 75.26136016845703 82.78746795654297 75.98278045654297 130.96395874023438 65.74920654296875 102.56806945800781" stroke-width="3.0" fill="none" stroke="rgb(0, 2, -2)" stroke-opacity="0.15687725" stroke-linecap="round" stroke-linejoin="round"/>
    <path d="M 141.70274353027344 151.24822998046875 C 60.16294860839844 138.80996704101562 82.4169921875 141.51564025878906 72.99718475341797 164.04190063476562" stroke-width="3.0" fill="none" stroke="rgb(2, 0, -2)" stroke-opacity="0.15678662" stroke-linecap="round" stroke-linejoin="round"/>
    <path d="M 130.02793884277344 125.69213104248047 C 124.43224334716797 117.70831298828125 116.2520980834961 59.4036979675293 129.6199951171875 59.90003204345703" stroke-width="3.0" fill="none" stroke="rgb(-5, 4, 3)" stroke-opacity="0.25736678" stroke-linecap="round" stroke-linejoin="round"/>
    <path d="M 63.87699890136719 52.230838775634766 C 62.00762176513672 79.37359619140625 86.91136932373047 23.0531005859375 38.42332077026367 71.54926300048828" stroke-width="3.0" fill="none" stroke="rgb(1, -2, 1)" stroke-opacity="0.032013226" stroke-linecap="round" stroke-linejoin="round"/>
    <path d="M 31.74483299255371 107.21300506591797 C 35.980995178222656 126.39680480957031 22.92555046081543 108.28641510009766 36.099693298339844 161.46653747558594" stroke-width="3.0" fill="none" stroke="rgb(1, 2, -3)" stroke-opacity="0.22251095" stroke-linecap="round" stroke-linejoin="round"/>
    <path d="M 221.71035766601562 108.32843017578125 C 169.38214111328125 112.40020751953125 154.7785186767578 120.32801818847656 220.47178649902344 111.526611328125" stroke-width="3.0" fill="none" stroke="rgb(0, 0, 0)" stroke-opacity="0.0021678165" stroke-linecap="round" stroke-linejoin="round"/>
    <path d="M 98.51598358154297 152.9461669921875 C 93.57762908935547 163.89231872558594 101.12818908691406 115.88689422607422 98.63957977294922 239.1816864013672" stroke-width="3.0" fill="none" stroke="rgb(-2, 1, 2)" stroke-opacity="0.13960342" stroke-linecap="round" stroke-linejoin="round"/>
    <path d="M 35.4472770690918 101.63507080078125 C 49.969661712646484 60.288272857666016 49.4967041015625 94.5585708618164 34.234004974365234 136.28126525878906" stroke-width="3.0" fill="none" stroke="rgb(1, -2, 2)" stroke-opacity="0.04351983" stroke-linecap="round" stroke-linejoin="round"/>
    <path d="M 190.5660400390625 57.427101135253906 C 129.8042449951172 125.00203704833984 199.6318359375 27.834030151367188 167.02684020996094 64.0582046508789" stroke-width="3.0" fill="none" stroke="rgb(-1, 2, 0)" stroke-opacity="0.05755226" stroke-linecap="round" stroke-linejoin="round"/>
    <path d="M 103.81498718261719 14.82528305053711 C 81.16010284423828 31.63448715209961 119.16920471191406 7.003924369812012 100.42496490478516 23.13055419921875" stroke-width="3.0" fill="none" stroke="rgb(-1, 0, 0)" stroke-opacity="0.71615636" stroke-linecap="round" stroke-linejoin="round"/>
    <path d="M 73.88175201416016 195.5892791748047 C 72.84297180175781 124.60538482666016 93.58464050292969 158.4125213623047 83.38269805908203 120.15802001953125" stroke-width="3.0" fill="none" stroke="rgb(0, -1, 2)" stroke-opacity="0.1282884" stroke-linecap="round" stroke-linejoin="round"/>
    <path d="M 50.38686752319336 85.21994018554688 C 40.197914123535156 101.10785675048828 64.41436767578125 165.2208709716797 55.02083969116211 100.97792053222656" stroke-width="3.0" fill="none" stroke="rgb(0, 0, -1)" stroke-opacity="0.059418947" stroke-linecap="round" stroke-linejoin="round"/>
    <path d="M 152.90492248535156 81.42639923095703 C 154.98959350585938 85.03278350830078 153.02659606933594 71.09900665283203 135.17599487304688 66.65792846679688" stroke-width="3.0" fill="none" stroke="rgb(0, 0, -2)" stroke-opacity="0.023000382" stroke-linecap="round" stroke-linejoin="round"/>
    <path d="M 38.35845947265625 112.85707092285156 C 22.044099807739258 163.95004272460938 35.069000244140625 68.44679260253906 40.23332214355469 164.22113037109375" stroke-width="3.0" fill="none" stroke="rgb(0, 3, -4)" stroke-opacity="0.1652264" stroke-linecap="round" stroke-linejoin="round"/>
    <path d="M 54.094425201416016 84.224609375 C -29.44329833984375 118.89230346679688 49.89854049682617 100.12104034423828 62.21125411987305 72.63634490966797" stroke-width="3.0" fill="none" stroke="rgb(1, -1, 1)" stroke-opacity="0.050050434" stroke-linecap="round" stroke-linejoin="round"/>
    <path d="M 20.07626724243164 190.67088317871094 C 22.713720321655273 236.29649353027344 24.10721206665039 239.9547119140625 26.994037628173828 191.3550262451172" stroke-width="3.0" fill="none" stroke="rgb(1, -4, 3)" stroke-opacity="0.0639021" stroke-linecap="round" stroke-linejoin="round"/>
    <path d="M 128.43133544921875 123.09896850585938 C 135.44505310058594 129.93104553222656 128.4187774658203 135.0133056640625 134.4012908935547 144.45423889160156" stroke-width="3.0" fill="none" stroke="rgb(0, -2, 3)" stroke-opacity="0.38672346" stroke-linecap="round" stroke-linejoin="round"/>
    <path d="M 52.382720947265625 -5.118897914886475 C 56.077659606933594 -3.6557493209838867 57.132144927978516 -5.863734245300293 52.015377044677734 -5.046064853668213" stroke-width="3.0" fill="none" stroke="rgb(0, 0, 0)" stroke-opacity="0.6268536" stroke-linecap="round" stroke-linejoin="round"/>
    <path d="M 77.16668701171875 38.373077392578125 C 97.69131469726562 80.37545776367188 71.632568359375 54.3838005065918 100.98927307128906 57.178409576416016" stroke-width="3.0" fill="none" stroke="rgb(-1, 1, 1)" stroke-opacity="0.24999085" stroke-linecap="round" stroke-linejoin="round"/>
    <path d="M 136.03567504882812 94.11986541748047 C 119.92374420166016 48.72261428833008 118.4944076538086 56.242332458496094 160.4198455810547 63.23261260986328" stroke-width="3.0" fill="none" stroke="rgb(-2, 2, 1)" stroke-opacity="0.08863339" stroke-linecap="round" stroke-linejoin="round"/>
    <path d="M 46.45994186401367 110.30903625488281 C 37.819942474365234 153.1343231201172 36.180702209472656 142.8173828125 40.30255126953125 168.33074951171875" stroke-width="3.0" fill="none" stroke="rgb(0, 1, -2)" stroke-opacity="0.1846941" stroke-linecap="round" stroke-linejoin="round"/>
    <path d="M 183.7921905517578 63.2474479675293 C 160.301513671875 99.12406921386719 191.80838012695312 127.59170532226562 149.96710205078125 55.20152282714844" stroke-width="3.0" fill="none" stroke="rgb(-3, 2, 3)" stroke-opacity="0.10220526" stroke-linecap="round" stroke-linejoin="round"/>
    <path d="M 133.27650451660156 227.93666076660156 C 134.02943420410156 195.6969757080078 123.34305572509766 213.93569946289062 138.35977172851562 234.79840087890625" stroke-width="3.0" fill="none" stroke="rgb(0, 0, 2)" stroke-opacity="0.07735406" stroke-linecap="round" stroke-linejoin="round"/>
    <path d="M 128.56576538085938 6.142588138580322 C 65.68016815185547 2.5548553466796875 169.0275115966797 104.79170227050781 111.28421020507812 4.575852870941162" stroke-width="3.0" fill="none" stroke="rgb(0, 0, 0)" stroke-opacity="0.32282242" stroke-linecap="round" stroke-linejoin="round"/>
    <path d="M 163.31568908691406 227.57733154296875 C 149.4548797607422 120.11980438232422 173.37884521484375 164.23190307617188 177.22055053710938 230.33265686035156" stroke-width="3.0" fill="none" stroke="rgb(-2, 1, 2)" stroke-opacity="0.073741145" stroke-linecap="round" stroke-linejoin="round"/>
    <path d="M 139.552734375 153.30979919433594 C 145.89013671875 255.92994689941406 142.631103515625 314.5082702636719 137.07220458984375 151.8753662109375" stroke-width="3.0" fill="none" stroke="rgb(0, 3, -3)" stroke-opacity="0.14968087" stroke-linecap="round" stroke-linejoin="round"/>
    <path d="M 81.36622619628906 49.64783477783203 C 121.6243667602539 56.75954055786133 96.15660095214844 62.94755935668945 92.08429718017578 24.561630249023438" stroke-width="3.0" fill="none" stroke="rgb(-1, -2, 2)" stroke-opacity="0.17414097" stroke-linecap="round" stroke-linejoin="round"/>
    <path d="M 66.0965805053711 236.27572631835938 C 60.53441619873047 192.30352783203125 64.4776611328125 234.79739379882812 66.34410095214844 156.75173950195312" stroke-width="3.0" fill="none" stroke="rgb(0, 0, 1)" stroke-opacity="0.35635853" stroke-linecap="round" stroke-linejoin="round"/>
    <path d="M 128.50498962402344 12.169845581054688 C 147.821044921875 -12.007393836975098 124.59603118896484 131.5136260986328 134.4490966796875 20.246315002441406" stroke-width="3.0" fill="none" stroke="rgb(3, -3, 0)" stroke-opacity="0.30080616" stroke-linecap="round" stroke-linejoin="round"/>
    <path d="M 79.07503509521484 46.54210662841797 C 97.02033996582031 89.00077056884766 94.96080780029297 73.11971282958984 74.67961120605469 71.07445526123047" stroke-width="3.0" fill="none" stroke="rgb(2, -3, 2)" stroke-opacity="0.18517576" stroke-linecap="round" stroke-linejoin="round"/>
    <path d="M 55.73114013671875 117.468017578125 C 62.87391662597656 159.2049560546875 46.90943908691406 145.0897979736328 56.69071960449219 177.95582580566406" stroke-width="3.0" fill="none" stroke="rgb(-2, 1, 1)" stroke-opacity="0.12651044" stroke-linecap="round" stroke-linejoin="round"/>
    <path d="M 73.60930633544922 91.77306365966797 C 90.57592010498047 119.34689331054688 65.8682861328125 81.03011322021484 79.0078125 81.76310729980469" stroke-width="3.0" fill="none" stroke="rgb(-1, 2, -1)" stroke-opacity="0.09504325" stroke-linecap="round" stroke-linejoin="round"/>
    <path d="M 130.79229736328125 110.9280776977539 C 133.36123657226562 119.49095916748047 144.3936309814453 140.8497772216797 158.12950134277344 160.23013305664062" stroke-width="3.0" fill="none" stroke="rgb(0, -3, 2)" stroke-opacity="0.27373466" stroke-linecap="round" stroke-linejoin="round"/>
    <path d="M 177.22425842285156 160.2317352294922 C 154.65313720703125 114.19746398925781 188.61940002441406 167.592529296875 149.60194396972656 73.79354858398438" stroke-width="3.0" fill="none" stroke="rgb(-2, 2, -3)" stroke-opacity="0.043391112" stroke-linecap="round" stroke-linejoin="round"/>
    <path d="M 21.273950576782227 171.61776733398438 C 24.31545639038086 166.43870544433594 26.754859924316406 169.2266082763672 22.174320220947266 150.6522674560547" stroke-width="3.0" fill="none" stroke="rgb(-1, 0, 2)" stroke-opacity="0.09898433" stroke-linecap="round" stroke-linejoin="round"/>
    <path d="M 140.0332489013672 70.7383804321289 C 182.48614501953125 177.08590698242188 160.74468994140625 187.2832489013672 139.13368225097656 86.8150634765625" stroke-width="3.0" fill="none" stroke="rgb(-2, 3, 0)" stroke-opacity="0.06259129" stroke-linecap="round" stroke-linejoin="round"/>
  </g>
</svg>
