<?xml version="1.0" ?>
<svg xmlns="http://www.w3.org/2000/svg" version="1.1" width="224" height="224">
  <defs/>
  <g>
    <path d="M 178.90777587890625 206.7213592529297 C 144.3466339111328 206.91453552246094 175.09573364257812 206.73611450195312 153.3927001953125 201.2408447265625" stroke-width="2.6012396812438965" fill="none" stroke="rgb(0, 1, 0)" stroke-opacity="0.08200591" stroke-linecap="round" stroke-linejoin="round"/>
    <path d="M 105.54508209228516 171.02415466308594 C 99.6775131225586 132.607177734375 94.7864990234375 140.26882934570312 111.4925765991211 144.2508087158203" stroke-width="2.6461305618286133" fill="none" stroke="rgb(0, -1, 0)" stroke-opacity="0.14317776" stroke-linecap="round" stroke-linejoin="round"/>
    <path d="M 125.73967742919922 95.5656509399414 C 109.40177154541016 48.13608932495117 98.8139877319336 81.584716796875 121.84540557861328 86.93053436279297" stroke-width="7.845216751098633" fill="none" stroke="rgb(0, -1, 0)" stroke-opacity="0.12698025" stroke-linecap="round" stroke-linejoin="round"/>
    <path d="M 183.9687042236328 77.5425033569336 C 187.24234008789062 55.1825065612793 175.72425842285156 60.49830627441406 186.13296508789062 48.10393524169922" stroke-width="7.329066753387451" fill="none" stroke="rgb(0, 0, 0)" stroke-opacity="0.12288862" stroke-linecap="round" stroke-linejoin="round"/>
    <path d="M 108.68587493896484 137.24533081054688 C 73.31392669677734 139.97039794921875 80.67156219482422 136.2557373046875 66.45103454589844 138.98963928222656" stroke-width="1.9217588901519775" fill="none" stroke="rgb(1, -1, 0)" stroke-opacity="0.2524923" stroke-linecap="round" stroke-linejoin="round"/>
    <path d="M 91.95547485351562 156.9590301513672 C 93.48924255371094 185.1722869873047 105.83827209472656 179.1963348388672 110.93268585205078 143.46990966796875" stroke-width="10.834922790527344" fill="none" stroke="rgb(4, -3, -4)" stroke-opacity="0.320279" stroke-linecap="round" stroke-linejoin="round"/>
    <path d="M 184.01377868652344 134.21270751953125 C 174.08644104003906 145.1936492919922 184.31312561035156 128.3727264404297 183.02865600585938 136.75347900390625" stroke-width="2.6714470386505127" fill="none" stroke="rgb(0, 0, 0)" stroke-opacity="0.031289004" stroke-linecap="round" stroke-linejoin="round"/>
    <path d="M 26.34893798828125 130.0406036376953 C -3.7792375087738037 126.83099365234375 29.417015075683594 133.96182250976562 0.7398064136505127 131.26284790039062" stroke-width="4.723183631896973" fill="none" stroke="rgb(0, 0, 1)" stroke-opacity="0.024399744" stroke-linecap="round" stroke-linejoin="round"/>
    <path d="M 197.11917114257812 147.58712768554688 C 252.3214569091797 127.31106567382812 181.33824157714844 126.18328857421875 214.98629760742188 146.9592742919922" stroke-width="4.639141082763672" fill="none" stroke="rgb(-2, 2, -1)" stroke-opacity="0.10909594" stroke-linecap="round" stroke-linejoin="round"/>
    <path d="M 124.97286224365234 169.38839721679688 C 129.70294189453125 151.0009765625 102.27283477783203 169.11666870117188 131.71145629882812 167.88246154785156" stroke-width="4.334219455718994" fill="none" stroke="rgb(-1, 0, 0)" stroke-opacity="0.08786437" stroke-linecap="round" stroke-linejoin="round"/>
    <path d="M 150.49569702148438 67.49307250976562 C 131.55368041992188 75.30565643310547 128.2873992919922 74.93010711669922 152.04556274414062 53.822998046875" stroke-width="7.776575565338135" fill="none" stroke="rgb(4, -2, -5)" stroke-opacity="0.08811648" stroke-linecap="round" stroke-linejoin="round"/>
    <path d="M 91.97398376464844 162.0054931640625 C 87.60979461669922 127.25839233398438 111.52012634277344 121.69393920898438 99.46064758300781 144.2012939453125" stroke-width="9.460600852966309" fill="none" stroke="rgb(2, -2, 0)" stroke-opacity="0.11829139" stroke-linecap="round" stroke-linejoin="round"/>
    <path d="M 30.066125869750977 233.4908905029297 C 32.98613357543945 223.36337280273438 27.35207176208496 224.9497833251953 32.9639892578125 228.13272094726562" stroke-width="2.3796069622039795" fill="none" stroke="rgb(0, 0, 0)" stroke-opacity="0.76427865" stroke-linecap="round" stroke-linejoin="round"/>
    <path d="M -3.436655044555664 192.89678955078125 C 21.64701271057129 182.91976928710938 17.71942138671875 195.29830932617188 44.7290153503418 199.2682342529297" stroke-width="8.660486221313477" fill="none" stroke="rgb(0, 0, 2)" stroke-opacity="0.08058869" stroke-linecap="round" stroke-linejoin="round"/>
    <path d="M 129.0000762939453 94.70832824707031 C 135.9764404296875 98.92479705810547 143.9122314453125 86.10182189941406 158.4596405029297 104.26217651367188" stroke-width="2.88606595993042" fill="none" stroke="rgb(0, 0, 1)" stroke-opacity="0.4328482" stroke-linecap="round" stroke-linejoin="round"/>
    <path d="M 79.68174743652344 93.53677368164062 C 109.37962341308594 83.00516510009766 111.4790267944336 64.69949340820312 110.84733581542969 77.5203628540039" stroke-width="3.1109042167663574" fill="none" stroke="rgb(-3, 0, 1)" stroke-opacity="0.2606507" stroke-linecap="round" stroke-linejoin="round"/>
    <path d="M 97.08806610107422 3.7780613899230957 C 1.3815797567367554 9.97244644165039 -23.575593948364258 -2.724062919616699 38.334205627441406 0.724223256111145" stroke-width="12.861515045166016" fill="none" stroke="rgb(-3, 5, -5)" stroke-opacity="0.43735775" stroke-linecap="round" stroke-linejoin="round"/>
    <path d="M 107.81952667236328 96.109130859375 C 88.68267059326172 129.01380920410156 103.97076416015625 124.47842407226562 110.70670318603516 108.96385192871094" stroke-width="10.825278282165527" fill="none" stroke="rgb(3, -4, 1)" stroke-opacity="0.25941208" stroke-linecap="round" stroke-linejoin="round"/>
    <path d="M 172.3866424560547 44.253631591796875 C 180.3260955810547 36.023773193359375 185.99400329589844 54.174102783203125 180.0295867919922 45.76240539550781" stroke-width="2.594325304031372" fill="none" stroke="rgb(0, 0, 0)" stroke-opacity="0.09113806" stroke-linecap="round" stroke-linejoin="round"/>
    <path d="M 103.78901672363281 91.37586975097656 C 99.95420837402344 103.86481475830078 96.49626922607422 100.29210662841797 95.82613372802734 117.1088638305664" stroke-width="13.835095405578613" fill="none" stroke="rgb(0, -2, 3)" stroke-opacity="0.48086146" stroke-linecap="round" stroke-linejoin="round"/>
    <path d="M 97.50788879394531 101.98157501220703 C 111.00479888916016 113.1439208984375 96.57041931152344 125.82042694091797 91.56774139404297 132.1285858154297" stroke-width="5.490044116973877" fill="none" stroke="rgb(1, -4, 4)" stroke-opacity="0.19228812" stroke-linecap="round" stroke-linejoin="round"/>
    <path d="M 200.8393096923828 99.33950805664062 C 161.62350463867188 92.10895538330078 170.3839569091797 74.41600799560547 181.1789093017578 85.41024017333984" stroke-width="8.459707260131836" fill="none" stroke="rgb(0, 0, 0)" stroke-opacity="0.13140084" stroke-linecap="round" stroke-linejoin="round"/>
    <path d="M 86.4835205078125 137.65882873535156 C 94.02729797363281 79.50492858886719 118.54267120361328 88.05989074707031 112.38157653808594 84.25209045410156" stroke-width="12.76884651184082" fill="none" stroke="rgb(1, -2, 2)" stroke-opacity="0.6112959" stroke-linecap="round" stroke-linejoin="round"/>
    <path d="M 119.31334686279297 177.83506774902344 C 123.6803207397461 201.82928466796875 117.47644805908203 187.25978088378906 103.72891998291016 193.5258026123047" stroke-width="3.423828601837158" fill="none" stroke="rgb(-1, 1, 1)" stroke-opacity="0.047663737" stroke-linecap="round" stroke-linejoin="round"/>
    <path d="M 130.56797790527344 -2.6049227714538574 C 104.04712677001953 8.320904731750488 160.55152893066406 1.5369009971618652 99.3531265258789 8.109512329101562" stroke-width="6.569979667663574" fill="none" stroke="rgb(-4, 3, -7)" stroke-opacity="0.21564882" stroke-linecap="round" stroke-linejoin="round"/>
    <path d="M 171.32762145996094 41.75139236450195 C 159.0325164794922 58.98904037475586 166.86619567871094 65.85128784179688 155.61248779296875 71.82945251464844" stroke-width="5.598637580871582" fill="none" stroke="rgb(1, -2, 2)" stroke-opacity="0.10003116" stroke-linecap="round" stroke-linejoin="round"/>
    <path d="M 115.43343353271484 106.78848266601562 C 171.39956665039062 79.63099670410156 141.44454956054688 82.67081451416016 125.73130798339844 75.47502136230469" stroke-width="5.88580322265625" fill="none" stroke="rgb(0, -1, 2)" stroke-opacity="0.1459679" stroke-linecap="round" stroke-linejoin="round"/>
    <path d="M 207.24879455566406 162.48919677734375 C 227.67825317382812 133.80279541015625 181.55294799804688 154.32421875 219.3236846923828 159.8596954345703" stroke-width="4.1874823570251465" fill="none" stroke="rgb(0, 0, -1)" stroke-opacity="0.09011519" stroke-linecap="round" stroke-linejoin="round"/>
    <path d="M 174.69126892089844 116.41461944580078 C 152.2402801513672 86.15739440917969 137.8793182373047 81.41068267822266 119.56974029541016 101.4950180053711" stroke-width="14.251840591430664" fill="none" stroke="rgb(0, -1, -2)" stroke-opacity="0.25557464" stroke-linecap="round" stroke-linejoin="round"/>
    <path d="M 14.40252685546875 5.817368507385254 C -28.539615631103516 15.497933387756348 -23.983280181884766 14.189292907714844 6.077309608459473 4.574655055999756" stroke-width="4.692091464996338" fill="none" stroke="rgb(-2, 1, -1)" stroke-opacity="0.24130708" stroke-linecap="round" stroke-linejoin="round"/>
    <path d="M 184.21823120117188 102.13890838623047 C 182.54380798339844 141.5145263671875 186.22279357910156 122.70834350585938 201.463623046875 131.3635711669922" stroke-width="16.27033805847168" fill="none" stroke="rgb(0, -1, 0)" stroke-opacity="0.07281594" stroke-linecap="round" stroke-linejoin="round"/>
    <path d="M 4.711941242218018 171.41705322265625 C 18.645524978637695 167.13465881347656 3.3268957138061523 176.2787322998047 23.08092498779297 170.1405029296875" stroke-width="4.8030104637146" fill="none" stroke="rgb(0, 0, 0)" stroke-opacity="0.024914248" stroke-linecap="round" stroke-linejoin="round"/>
    <path d="M 175.42605590820312 46.880523681640625 C 184.5493927001953 48.29145050048828 177.8299560546875 33.96598434448242 177.9476318359375 46.18971252441406" stroke-width="2.428558826446533" fill="none" stroke="rgb(0, 0, 0)" stroke-opacity="0.10960654" stroke-linecap="round" stroke-linejoin="round"/>
    <path d="M 191.3440399169922 90.95724487304688 C 192.74172973632812 99.89641571044922 184.3435821533203 85.48969268798828 204.9859619140625 83.36780548095703" stroke-width="3.4196743965148926" fill="none" stroke="rgb(0, 0, 0)" stroke-opacity="0.07621315" stroke-linecap="round" stroke-linejoin="round"/>
    <path d="M 128.0426025390625 82.29664611816406 C 118.9395523071289 79.4348373413086 126.08003234863281 63.66020584106445 132.10894775390625 84.14018249511719" stroke-width="7.41318941116333" fill="none" stroke="rgb(0, -1, 0)" stroke-opacity="0.10356337" stroke-linecap="round" stroke-linejoin="round"/>
    <path d="M 228.8909149169922 91.34989929199219 C 228.84666442871094 85.00286865234375 227.49378967285156 83.0810775756836 231.5040740966797 85.9732894897461" stroke-width="2.0" fill="none" stroke="rgb(0, 0, 0)" stroke-opacity="0.82232195" stroke-linecap="round" stroke-linejoin="round"/>
    <path d="M 60.047019958496094 91.0577392578125 C 71.34156799316406 97.479248046875 70.14161682128906 87.86527252197266 63.473358154296875 94.06858825683594" stroke-width="2.49310302734375" fill="none" stroke="rgb(0, 0, -1)" stroke-opacity="0.028068282" stroke-linecap="round" stroke-linejoin="round"/>
    <path d="M 212.8921356201172 98.58674621582031 C 187.44969177246094 64.55145263671875 219.58543395996094 51.57706832885742 224.96414184570312 92.1788101196289" stroke-width="18.584125518798828" fill="none" stroke="rgb(4, -4, 4)" stroke-opacity="0.2411417" stroke-linecap="round" stroke-linejoin="round"/>
    <path d="M 113.92041015625 82.13311767578125 C 110.3791732788086 131.5851287841797 99.2961196899414 125.873291015625 91.27183532714844 141.4396514892578" stroke-width="17.123355865478516" fill="none" stroke="rgb(4, -5, 0)" stroke-opacity="0.24883947" stroke-linecap="round" stroke-linejoin="round"/>
    <path d="M 108.49874877929688 82.09733581542969 C 107.64727783203125 95.6158676147461 97.70962524414062 85.61344146728516 117.81952667236328 68.5468521118164" stroke-width="3.387925863265991" fill="none" stroke="rgb(0, 2, 1)" stroke-opacity="0.46035278" stroke-linecap="round" stroke-linejoin="round"/>
    <path d="M 93.9797592163086 186.18301391601562 C 104.07250213623047 143.64553833007812 77.0718002319336 128.11741638183594 85.33219146728516 146.5717315673828" stroke-width="16.928375244140625" fill="none" stroke="rgb(2, -3, 2)" stroke-opacity="0.46450832" stroke-linecap="round" stroke-linejoin="round"/>
    <path d="M 101.93170928955078 88.54045867919922 C 101.76367950439453 93.36241149902344 114.47245788574219 69.19573974609375 96.24925231933594 101.976318359375" stroke-width="1.8593895435333252" fill="none" stroke="rgb(-1, 1, 0)" stroke-opacity="0.54425883" stroke-linecap="round" stroke-linejoin="round"/>
    <path d="M 126.3981704711914 87.29154968261719 C 123.76255798339844 84.3986587524414 112.67172241210938 95.02294158935547 119.13433074951172 93.92254638671875" stroke-width="3.0931007862091064" fill="none" stroke="rgb(0, 0, -1)" stroke-opacity="0.07380283" stroke-linecap="round" stroke-linejoin="round"/>
    <path d="M 143.8291473388672 90.11835479736328 C 162.06475830078125 75.18717956542969 148.79229736328125 63.2233772277832 172.6108856201172 45.65292739868164" stroke-width="14.671688079833984" fill="none" stroke="rgb(3, -3, 1)" stroke-opacity="0.16118908" stroke-linecap="round" stroke-linejoin="round"/>
    <path d="M 141.25308227539062 46.26970672607422 C 148.81332397460938 45.58283233642578 131.73370361328125 50.132328033447266 115.26699829101562 67.90948486328125" stroke-width="2.467316150665283" fill="none" stroke="rgb(-3, 0, 1)" stroke-opacity="0.30788916" stroke-linecap="round" stroke-linejoin="round"/>
    <path d="M 204.043212890625 95.92507934570312 C 212.19102478027344 97.25788879394531 210.38815307617188 94.17477416992188 220.08331298828125 98.01725769042969" stroke-width="11.280025482177734" fill="none" stroke="rgb(0, -3, 2)" stroke-opacity="0.25184444" stroke-linecap="round" stroke-linejoin="round"/>
    <path d="M 157.56362915039062 42.48524856567383 C 124.89495086669922 64.48384857177734 110.57452392578125 61.73261260986328 117.46497344970703 69.61949920654297" stroke-width="5.056098937988281" fill="none" stroke="rgb(-2, -1, 3)" stroke-opacity="0.3340871" stroke-linecap="round" stroke-linejoin="round"/>
    <path d="M 89.94366455078125 39.765872955322266 C 107.76554107666016 42.33015060424805 107.26490783691406 37.998146057128906 98.23515319824219 36.76630783081055" stroke-width="2.374464273452759" fill="none" stroke="rgb(0, 0, 0)" stroke-opacity="0.016517058" stroke-linecap="round" stroke-linejoin="round"/>
    <path d="M 187.17800903320312 163.2363739013672 C 207.415283203125 156.81967163085938 183.18898010253906 162.67300415039062 199.96340942382812 160.4684295654297" stroke-width="5.426289081573486" fill="none" stroke="rgb(-1, 0, 1)" stroke-opacity="0.14369842" stroke-linecap="round" stroke-linejoin="round"/>
    <path d="M 227.86192321777344 54.24918746948242 C 233.36068725585938 49.6422233581543 236.56619262695312 48.66976547241211 223.67422485351562 55.52113342285156" stroke-width="5.632869720458984" fill="none" stroke="rgb(0, 0, 0)" stroke-opacity="0.0066618905" stroke-linecap="round" stroke-linejoin="round"/>
    <path d="M 175.3858642578125 197.126220703125 C 191.39096069335938 196.25550842285156 153.2478485107422 192.28672790527344 189.53717041015625 195.2291717529297" stroke-width="3.767545700073242" fill="none" stroke="rgb(-1, 0, 2)" stroke-opacity="0.28232872" stroke-linecap="round" stroke-linejoin="round"/>
    <path d="M 80.22669219970703 154.11959838867188 C 99.2369613647461 141.073974609375 88.49020385742188 148.74456787109375 92.67061614990234 137.0152587890625" stroke-width="6.867949485778809" fill="none" stroke="rgb(3, -3, 1)" stroke-opacity="0.68027997" stroke-linecap="round" stroke-linejoin="round"/>
    <path d="M 132.0019073486328 70.74201965332031 C 126.87187194824219 74.34693145751953 143.68995666503906 74.33195495605469 135.04249572753906 68.53804779052734" stroke-width="2.2471790313720703" fill="none" stroke="rgb(2, -2, -1)" stroke-opacity="0.25353226" stroke-linecap="round" stroke-linejoin="round"/>
    <path d="M 151.6483917236328 74.95037841796875 C 113.30449676513672 66.08358001708984 131.4763946533203 76.71128845214844 112.0123062133789 101.61490631103516" stroke-width="11.079557418823242" fill="none" stroke="rgb(5, -3, -2)" stroke-opacity="0.1305746" stroke-linecap="round" stroke-linejoin="round"/>
    <path d="M 119.15066528320312 90.69630432128906 C 110.930419921875 91.54790496826172 132.08489990234375 94.56918334960938 116.6152114868164 109.17179870605469" stroke-width="9.205977439880371" fill="none" stroke="rgb(2, 0, -1)" stroke-opacity="0.07378452" stroke-linecap="round" stroke-linejoin="round"/>
    <path d="M 197.1112518310547 106.02473449707031 C 209.8058624267578 101.09248352050781 185.2445831298828 108.453125 232.59425354003906 102.20508575439453" stroke-width="8.11023998260498" fill="none" stroke="rgb(-2, -1, 3)" stroke-opacity="0.69831043" stroke-linecap="round" stroke-linejoin="round"/>
    <path d="M 77.9247817993164 108.46395874023438 C 84.24324035644531 90.08059692382812 138.218017578125 74.78347778320312 89.36186218261719 83.9891357421875" stroke-width="2.96362042427063" fill="none" stroke="rgb(-1, 0, 2)" stroke-opacity="0.24840078" stroke-linecap="round" stroke-linejoin="round"/>
    <path d="M 201.62620544433594 48.5884895324707 C 172.93472290039062 47.07626724243164 181.01144409179688 36.278079986572266 160.42214965820312 45.27177429199219" stroke-width="1.8425347805023193" fill="none" stroke="rgb(0, -1, 1)" stroke-opacity="0.19740254" stroke-linecap="round" stroke-linejoin="round"/>
    <path d="M 71.00906372070312 -11.227145195007324 C 67.00167846679688 -8.59847640991211 67.61363220214844 -10.27443790435791 74.7789535522461 -12.079562187194824" stroke-width="2.0" fill="none" stroke="rgb(0, 0, 0)" stroke-opacity="0.85257393" stroke-linecap="round" stroke-linejoin="round"/>
    <path d="M 132.5001678466797 55.043296813964844 C 149.05763244628906 39.217376708984375 162.3830108642578 42.56995391845703 141.3520965576172 48.24843215942383" stroke-width="3.787706136703491" fill="none" stroke="rgb(-2, 0, 1)" stroke-opacity="0.43407682" stroke-linecap="round" stroke-linejoin="round"/>
    <path d="M 141.83233642578125 50.12560272216797 C 125.73748016357422 61.4453010559082 127.80377960205078 63.95281219482422 111.47233581542969 78.1771011352539" stroke-width="9.503596305847168" fill="none" stroke="rgb(-3, -2, 4)" stroke-opacity="0.27857596" stroke-linecap="round" stroke-linejoin="round"/>
    <path d="M 223.95266723632812 135.23182678222656 C 230.888916015625 144.87660217285156 202.7991180419922 139.43331909179688 215.4259796142578 124.21112060546875" stroke-width="2.9036049842834473" fill="none" stroke="rgb(0, 1, -2)" stroke-opacity="0.13934617" stroke-linecap="round" stroke-linejoin="round"/>
    <path d="M 116.54188537597656 80.27061462402344 C 98.70496368408203 91.72410583496094 101.93809509277344 89.43782043457031 126.95555877685547 55.86131286621094" stroke-width="6.461308002471924" fill="none" stroke="rgb(-2, 0, 2)" stroke-opacity="0.39951456" stroke-linecap="round" stroke-linejoin="round"/>
    <path d="M 77.68274688720703 127.51959228515625 C 99.70397186279297 154.21856689453125 79.675537109375 134.1531982421875 85.442626953125 152.83241271972656" stroke-width="5.446351051330566" fill="none" stroke="rgb(0, -3, 3)" stroke-opacity="0.772205" stroke-linecap="round" stroke-linejoin="round"/>
    <path d="M 25.526268005371094 188.88853454589844 C 70.8460693359375 189.8880615234375 30.083261489868164 175.97210693359375 57.196044921875 183.75723266601562" stroke-width="4.899196624755859" fill="none" stroke="rgb(1, 1, -4)" stroke-opacity="0.13804433" stroke-linecap="round" stroke-linejoin="round"/>
    <path d="M 173.58111572265625 93.8981704711914 C 170.92764282226562 120.52840423583984 191.6644744873047 165.07923889160156 167.1821746826172 193.136474609375" stroke-width="5.885603904724121" fill="none" stroke="rgb(1, -2, 3)" stroke-opacity="0.353243" stroke-linecap="round" stroke-linejoin="round"/>
    <path d="M 115.33834075927734 159.0688018798828 C 107.32023620605469 117.87287902832031 96.43492126464844 123.14220428466797 88.3944091796875 115.22441101074219" stroke-width="6.797635078430176" fill="none" stroke="rgb(4, -3, 0)" stroke-opacity="0.20170188" stroke-linecap="round" stroke-linejoin="round"/>
    <path d="M 109.5058822631836 101.10458374023438 C 93.15021514892578 131.58641052246094 97.57196044921875 137.1338348388672 112.31377410888672 96.8055191040039" stroke-width="12.4500093460083" fill="none" stroke="rgb(3, -4, 2)" stroke-opacity="0.20917398" stroke-linecap="round" stroke-linejoin="round"/>
    <path d="M 188.1766815185547 107.65658569335938 C 156.88372802734375 96.5677261352539 168.6241455078125 80.15840148925781 164.76661682128906 89.98125457763672" stroke-width="5.2263569831848145" fill="none" stroke="rgb(3, -1, -1)" stroke-opacity="0.12406158" stroke-linecap="round" stroke-linejoin="round"/>
    <path d="M 104.6454086303711 123.58599853515625 C 84.86343383789062 131.6847381591797 99.51725769042969 137.32327270507812 95.40767669677734 116.12742614746094" stroke-width="9.851775169372559" fill="none" stroke="rgb(3, -4, 4)" stroke-opacity="0.14968123" stroke-linecap="round" stroke-linejoin="round"/>
    <path d="M 182.82752990722656 147.2127685546875 C 186.17359924316406 148.36260986328125 176.0813751220703 147.2890625 181.12034606933594 110.03358459472656" stroke-width="11.224096298217773" fill="none" stroke="rgb(2, -4, -2)" stroke-opacity="0.3470284" stroke-linecap="round" stroke-linejoin="round"/>
    <path d="M 105.17803192138672 81.58441925048828 C 84.52837371826172 109.51129913330078 90.4754409790039 95.70838928222656 110.50047302246094 75.37523651123047" stroke-width="8.554703712463379" fill="none" stroke="rgb(-2, 1, 1)" stroke-opacity="0.30556646" stroke-linecap="round" stroke-linejoin="round"/>
    <path d="M 96.68059539794922 159.26654052734375 C 80.57772064208984 208.5667266845703 97.4582290649414 175.7574005126953 97.25447845458984 200.25979614257812" stroke-width="3.878539800643921" fill="none" stroke="rgb(1, -2, 2)" stroke-opacity="0.21582897" stroke-linecap="round" stroke-linejoin="round"/>
    <path d="M 137.53819274902344 76.95013427734375 C 131.34474182128906 85.74057006835938 127.37383270263672 75.85231018066406 125.29216766357422 78.05630493164062" stroke-width="6.186311721801758" fill="none" stroke="rgb(0, 0, 0)" stroke-opacity="0.060490668" stroke-linecap="round" stroke-linejoin="round"/>
    <path d="M 155.42454528808594 96.60757446289062 C 146.2898712158203 83.38150024414062 147.42662048339844 75.52159881591797 154.44357299804688 91.92207336425781" stroke-width="3.2847461700439453" fill="none" stroke="rgb(-1, 0, 2)" stroke-opacity="0.32747665" stroke-linecap="round" stroke-linejoin="round"/>
    <path d="M 196.54940795898438 83.4819107055664 C 210.72808837890625 45.00517654418945 191.1271514892578 69.23289489746094 192.1372833251953 106.9461441040039" stroke-width="7.402794361114502" fill="none" stroke="rgb(1, 1, -1)" stroke-opacity="0.07257008" stroke-linecap="round" stroke-linejoin="round"/>
    <path d="M 178.2124786376953 107.724365234375 C 177.76388549804688 137.95068359375 180.83041381835938 119.24987030029297 165.2327117919922 102.10548400878906" stroke-width="7.850585460662842" fill="none" stroke="rgb(4, -2, 0)" stroke-opacity="0.30141282" stroke-linecap="round" stroke-linejoin="round"/>
    <path d="M 110.15353393554688 199.36651611328125 C 75.48878479003906 186.3394775390625 92.67440795898438 150.1893768310547 108.6004409790039 186.61965942382812" stroke-width="4.3055243492126465" fill="none" stroke="rgb(0, -1, 0)" stroke-opacity="0.10589834" stroke-linecap="round" stroke-linejoin="round"/>
    <path d="M 107.3162841796875 131.23782348632812 C 120.19878387451172 155.4161376953125 108.30232238769531 168.54653930664062 98.56224060058594 185.55531311035156" stroke-width="4.129177570343018" fill="none" stroke="rgb(5, -3, -4)" stroke-opacity="0.1934976" stroke-linecap="round" stroke-linejoin="round"/>
    <path d="M 115.56025695800781 74.18081665039062 C 134.3989715576172 91.5026626586914 122.67452239990234 82.45265197753906 128.16281127929688 99.93924713134766" stroke-width="6.641689300537109" fill="none" stroke="rgb(0, -1, 0)" stroke-opacity="0.12885298" stroke-linecap="round" stroke-linejoin="round"/>
    <path d="M 145.24615478515625 57.22917175292969 C 130.96315002441406 69.21397399902344 139.35205078125 50.264400482177734 145.5428466796875 65.6762924194336" stroke-width="5.3571696281433105" fill="none" stroke="rgb(0, -1, 0)" stroke-opacity="0.054669555" stroke-linecap="round" stroke-linejoin="round"/>
    <path d="M 127.76782989501953 227.89349365234375 C 119.27494812011719 226.08670043945312 130.2635040283203 230.76901245117188 128.0310821533203 234.0016326904297" stroke-width="2.0" fill="none" stroke="rgb(0, 0, 0)" stroke-opacity="0.32869858" stroke-linecap="round" stroke-linejoin="round"/>
    <path d="M 229.9906463623047 52.679569244384766 C 234.56314086914062 52.9187126159668 223.287353515625 58.55246353149414 210.31353759765625 48.20595932006836" stroke-width="5.697629451751709" fill="none" stroke="rgb(0, 0, 0)" stroke-opacity="0.045053825" stroke-linecap="round" stroke-linejoin="round"/>
    <path d="M 202.67236328125 195.1546173095703 C 187.1398468017578 196.5621337890625 178.11181640625 188.36094665527344 187.8148193359375 188.85096740722656" stroke-width="3.736863136291504" fill="none" stroke="rgb(0, 0, 0)" stroke-opacity="0.12519038" stroke-linecap="round" stroke-linejoin="round"/>
    <path d="M 104.62142181396484 132.8339385986328 C 121.72576904296875 87.17755126953125 142.32833862304688 82.62299346923828 104.66289520263672 122.6464614868164" stroke-width="4.265867710113525" fill="none" stroke="rgb(3, -1, -3)" stroke-opacity="0.2697282" stroke-linecap="round" stroke-linejoin="round"/>
    <path d="M 158.53286743164062 78.7074966430664 C 152.77880859375 119.99163055419922 195.47471618652344 110.49297332763672 169.76609802246094 105.87592315673828" stroke-width="8.782864570617676" fill="none" stroke="rgb(-2, 0, 4)" stroke-opacity="0.38024992" stroke-linecap="round" stroke-linejoin="round"/>
    <path d="M 53.69194412231445 101.5467758178711 C 64.1360092163086 105.84689331054688 59.88679885864258 98.60926055908203 50.82241439819336 96.9477767944336" stroke-width="2.154149293899536" fill="none" stroke="rgb(0, 0, 0)" stroke-opacity="0.016520243" stroke-linecap="round" stroke-linejoin="round"/>
    <path d="M 210.16917419433594 104.97162628173828 C 208.14793395996094 89.8810806274414 197.7508544921875 82.30555725097656 200.19287109375 98.19950103759766" stroke-width="9.75944995880127" fill="none" stroke="rgb(-2, -1, 5)" stroke-opacity="0.26473334" stroke-linecap="round" stroke-linejoin="round"/>
    <path d="M 67.8230972290039 222.73316955566406 C 19.451261520385742 203.82022094726562 24.52164077758789 202.0033721923828 4.485238075256348 197.5338592529297" stroke-width="4.717653274536133" fill="none" stroke="rgb(0, 0, 0)" stroke-opacity="0.07901331" stroke-linecap="round" stroke-linejoin="round"/>
    <path d="M 152.48141479492188 42.18853759765625 C 165.8278350830078 42.47513198852539 173.81068420410156 40.80385208129883 155.5685272216797 45.54018020629883" stroke-width="4.015724182128906" fill="none" stroke="rgb(-2, 0, 2)" stroke-opacity="0.22222967" stroke-linecap="round" stroke-linejoin="round"/>
    <path d="M 234.41990661621094 48.78022766113281 C 242.98106384277344 47.70597457885742 252.41859436035156 46.030643463134766 194.2876434326172 55.26655960083008" stroke-width="15.871304512023926" fill="none" stroke="rgb(2, -1, -4)" stroke-opacity="0.19829616" stroke-linecap="round" stroke-linejoin="round"/>
    <path d="M 130.0580596923828 83.3150863647461 C 148.547119140625 78.1946792602539 150.38140869140625 89.97369384765625 131.0096435546875 94.84825134277344" stroke-width="5.858204364776611" fill="none" stroke="rgb(1, -2, 0)" stroke-opacity="0.18521391" stroke-linecap="round" stroke-linejoin="round"/>
    <path d="M 128.49070739746094 87.25025177001953 C 153.48643493652344 88.97979736328125 145.05372619628906 103.0326919555664 146.66481018066406 71.03571319580078" stroke-width="9.590962409973145" fill="none" stroke="rgb(0, -1, 0)" stroke-opacity="0.1134871" stroke-linecap="round" stroke-linejoin="round"/>
    <path d="M 160.92062377929688 98.71967315673828 C 171.80738830566406 72.0437240600586 171.03781127929688 65.6944580078125 173.50576782226562 53.81108093261719" stroke-width="6.348723411560059" fill="none" stroke="rgb(0, 0, 1)" stroke-opacity="0.17594233" stroke-linecap="round" stroke-linejoin="round"/>
    <path d="M 138.500244140625 49.68117904663086 C 169.24078369140625 35.736793518066406 138.57037353515625 55.974971771240234 155.96066284179688 42.887237548828125" stroke-width="5.5641655921936035" fill="none" stroke="rgb(-1, 0, 2)" stroke-opacity="0.15692486" stroke-linecap="round" stroke-linejoin="round"/>
    <path d="M 200.02378845214844 88.98750305175781 C 207.93402099609375 119.22920227050781 196.1832275390625 98.16661071777344 186.45004272460938 113.98835754394531" stroke-width="3.354618549346924" fill="none" stroke="rgb(-1, 0, 2)" stroke-opacity="0.2641726" stroke-linecap="round" stroke-linejoin="round"/>
  </g>
</svg>
