<?xml version="1.0" ?>
<svg xmlns="http://www.w3.org/2000/svg" version="1.1" width="224" height="224">
  <defs/>
  <g>
    <path d="M 191.0166778564453 195.12034606933594 C 115.55226135253906 206.334228515625 174.30813598632812 186.34237670898438 152.9320831298828 188.60108947753906" stroke-width="4.318211078643799" fill="none" stroke="rgb(-3, 0, 2)" stroke-opacity="0.17090335" stroke-linecap="round" stroke-linejoin="round"/>
    <path d="M 114.99476623535156 117.1981430053711 C 128.88754272460938 96.47132110595703 109.31974792480469 130.6786651611328 112.2880630493164 132.80764770507812" stroke-width="5.624289035797119" fill="none" stroke="rgb(1, -1, -1)" stroke-opacity="0.4582945" stroke-linecap="round" stroke-linejoin="round"/>
    <path d="M 147.75808715820312 88.34484100341797 C 139.2504119873047 69.9245834350586 94.5401382446289 90.81016540527344 116.74223327636719 102.87403869628906" stroke-width="17.7625732421875" fill="none" stroke="rgb(3, -3, -3)" stroke-opacity="0.1882424" stroke-linecap="round" stroke-linejoin="round"/>
    <path d="M 201.7871856689453 71.43933868408203 C 182.6947479248047 38.143653869628906 207.61070251464844 67.30403900146484 187.99205017089844 82.63116455078125" stroke-width="6.521693706512451" fill="none" stroke="rgb(2, -2, 0)" stroke-opacity="0.07427758" stroke-linecap="round" stroke-linejoin="round"/>
    <path d="M 85.11929321289062 122.74691009521484 C 91.24783325195312 155.7533416748047 85.7171401977539 141.71414184570312 92.02106475830078 112.0918197631836" stroke-width="7.361011981964111" fill="none" stroke="rgb(1, -1, -1)" stroke-opacity="0.5021635" stroke-linecap="round" stroke-linejoin="round"/>
    <path d="M 113.80372619628906 135.82870483398438 C 118.5644760131836 182.34568786621094 102.024658203125 148.28831481933594 100.0235824584961 206.48997497558594" stroke-width="4.709781646728516" fill="none" stroke="rgb(2, -1, -1)" stroke-opacity="0.26262572" stroke-linecap="round" stroke-linejoin="round"/>
    <path d="M 177.9813995361328 150.35191345214844 C 175.60255432128906 144.14425659179688 172.1888427734375 142.27236938476562 177.8376922607422 130.1331024169922" stroke-width="2.8730881214141846" fill="none" stroke="rgb(0, 0, 0)" stroke-opacity="0.35445032" stroke-linecap="round" stroke-linejoin="round"/>
    <path d="M 73.54951477050781 136.14146423339844 C 28.757959365844727 128.97543334960938 102.04825592041016 139.90005493164062 6.922076225280762 133.7855224609375" stroke-width="9.806113243103027" fill="none" stroke="rgb(-2, 0, 3)" stroke-opacity="0.024310647" stroke-linecap="round" stroke-linejoin="round"/>
    <path d="M -6.420568943023682 150.95599365234375 C 11.390432357788086 161.9911651611328 -26.977998733520508 148.1367950439453 25.47769546508789 151.35665893554688" stroke-width="5.854788780212402" fill="none" stroke="rgb(-1, 0, 1)" stroke-opacity="0.019896567" stroke-linecap="round" stroke-linejoin="round"/>
    <path d="M 171.56629943847656 179.9583740234375 C 77.33708953857422 177.14306640625 188.655029296875 175.46829223632812 109.14411926269531 176.1797637939453" stroke-width="27.56934928894043" fill="none" stroke="rgb(-3, 4, -4)" stroke-opacity="0.13307118" stroke-linecap="round" stroke-linejoin="round"/>
    <path d="M 143.49134826660156 47.735042572021484 C 162.9652557373047 88.53099822998047 142.21600341796875 104.7260971069336 156.8419952392578 49.47391128540039" stroke-width="11.880839347839355" fill="none" stroke="rgb(4, -3, -1)" stroke-opacity="0.14067595" stroke-linecap="round" stroke-linejoin="round"/>
    <path d="M 109.39288330078125 137.07260131835938 C 55.56443786621094 169.17420959472656 98.00737762451172 121.10144805908203 111.07699584960938 143.43258666992188" stroke-width="13.182367324829102" fill="none" stroke="rgb(2, -2, 0)" stroke-opacity="0.2928891" stroke-linecap="round" stroke-linejoin="round"/>
    <path d="M 33.75361633300781 232.76026916503906 C 38.7288932800293 228.1455078125 38.33319091796875 229.59677124023438 28.599546432495117 233.2135467529297" stroke-width="4.185284614562988" fill="none" stroke="rgb(0, 0, 0)" stroke-opacity="0.89294934" stroke-linecap="round" stroke-linejoin="round"/>
    <path d="M 83.91365051269531 198.839111328125 C -9.309118270874023 184.66281127929688 75.05245208740234 189.0824737548828 6.576110363006592 187.69090270996094" stroke-width="5.433454990386963" fill="none" stroke="rgb(-2, 2, 0)" stroke-opacity="0.1540864" stroke-linecap="round" stroke-linejoin="round"/>
    <path d="M 130.06964111328125 93.52509307861328 C 169.4793243408203 95.80413818359375 153.05401611328125 80.14918518066406 131.14956665039062 85.48259735107422" stroke-width="4.41273307800293" fill="none" stroke="rgb(0, -1, 1)" stroke-opacity="0.37716767" stroke-linecap="round" stroke-linejoin="round"/>
    <path d="M 139.36460876464844 82.4507064819336 C 97.8459243774414 76.88246154785156 128.7205047607422 68.98274993896484 81.71247100830078 133.62957763671875" stroke-width="6.229825496673584" fill="none" stroke="rgb(0, -1, 1)" stroke-opacity="0.09359328" stroke-linecap="round" stroke-linejoin="round"/>
    <path d="M 70.6684799194336 2.579162836074829 C -48.609989166259766 10.996156692504883 -41.131866455078125 12.3290433883667 28.76557731628418 -5.154900074005127" stroke-width="12.735260963439941" fill="none" stroke="rgb(-1, 1, -1)" stroke-opacity="0.30026445" stroke-linecap="round" stroke-linejoin="round"/>
    <path d="M 132.08421325683594 99.00609588623047 C 149.58843994140625 79.5683822631836 111.9091567993164 116.73370361328125 122.94607543945312 107.98777770996094" stroke-width="2.2138473987579346" fill="none" stroke="rgb(-1, 0, 0)" stroke-opacity="0.20087026" stroke-linecap="round" stroke-linejoin="round"/>
    <path d="M 186.8623046875 65.19328308105469 C 171.17625427246094 53.3056640625 198.1004638671875 37.443477630615234 177.1714630126953 42.871681213378906" stroke-width="3.9842092990875244" fill="none" stroke="rgb(0, 0, 0)" stroke-opacity="0.14641619" stroke-linecap="round" stroke-linejoin="round"/>
    <path d="M 108.33109283447266 78.32038116455078 C 94.06777954101562 104.79443359375 93.78783416748047 89.48367309570312 94.2943115234375 121.29950714111328" stroke-width="12.765460014343262" fill="none" stroke="rgb(-1, 1, 1)" stroke-opacity="0.42396292" stroke-linecap="round" stroke-linejoin="round"/>
    <path d="M 104.37544250488281 123.07022857666016 C 123.05867004394531 71.15852355957031 69.41787719726562 82.13758850097656 108.39947509765625 128.2139129638672" stroke-width="14.558720588684082" fill="none" stroke="rgb(2, -2, 0)" stroke-opacity="0.23129286" stroke-linecap="round" stroke-linejoin="round"/>
    <path d="M 194.150146484375 108.06798553466797 C 252.19540405273438 88.2682113647461 168.4130096435547 112.8204116821289 176.6999053955078 68.58415222167969" stroke-width="7.939621448516846" fill="none" stroke="rgb(2, -2, 0)" stroke-opacity="0.124008015" stroke-linecap="round" stroke-linejoin="round"/>
    <path d="M 80.58335876464844 85.93333435058594 C 123.2582778930664 68.72447204589844 120.11404418945312 74.40701293945312 114.948974609375 76.41838073730469" stroke-width="2.012691020965576" fill="none" stroke="rgb(-1, 1, 0)" stroke-opacity="0.21112326" stroke-linecap="round" stroke-linejoin="round"/>
    <path d="M 94.33654022216797 157.3084259033203 C 110.1890640258789 187.52247619628906 102.60424041748047 158.2728729248047 99.4286117553711 141.62757873535156" stroke-width="5.7791972160339355" fill="none" stroke="rgb(3, -2, 0)" stroke-opacity="0.29349893" stroke-linecap="round" stroke-linejoin="round"/>
    <path d="M 129.97010803222656 -2.151054859161377 C 304.1935119628906 3.9050633907318115 301.4631042480469 4.244410037994385 66.20929718017578 4.158553600311279" stroke-width="12.369800567626953" fill="none" stroke="rgb(-3, 3, -3)" stroke-opacity="0.43100786" stroke-linecap="round" stroke-linejoin="round"/>
    <path d="M 169.2234344482422 48.499176025390625 C 155.1101837158203 109.86589813232422 157.76028442382812 94.7662353515625 165.93263244628906 56.15409469604492" stroke-width="14.260103225708008" fill="none" stroke="rgb(1, -3, 2)" stroke-opacity="0.22930144" stroke-linecap="round" stroke-linejoin="round"/>
    <path d="M 163.52490234375 95.92903900146484 C 115.13909912109375 35.256526947021484 154.73292541503906 96.45135498046875 119.90682220458984 79.31951904296875" stroke-width="12.93549919128418" fill="none" stroke="rgb(3, -2, -3)" stroke-opacity="0.1175341" stroke-linecap="round" stroke-linejoin="round"/>
    <path d="M -8.003539085388184 177.37539672851562 C -11.673245429992676 175.20529174804688 -9.31137752532959 177.3317413330078 -12.245501518249512 164.6925506591797" stroke-width="3.808821201324463" fill="none" stroke="rgb(0, 0, 0)" stroke-opacity="0.8857618" stroke-linecap="round" stroke-linejoin="round"/>
    <path d="M 176.876953125 117.02161407470703 C 147.475830078125 93.4967041015625 145.6798858642578 73.67866516113281 115.38994598388672 108.98265075683594" stroke-width="10.598993301391602" fill="none" stroke="rgb(2, -1, -2)" stroke-opacity="0.28862897" stroke-linecap="round" stroke-linejoin="round"/>
    <path d="M 59.083614349365234 2.3626725673675537 C -25.519107818603516 0.020787328481674194 -19.963590621948242 4.246918201446533 70.30004119873047 3.453218460083008" stroke-width="8.84105396270752" fill="none" stroke="rgb(-5, 4, -2)" stroke-opacity="0.45252833" stroke-linecap="round" stroke-linejoin="round"/>
    <path d="M 177.40365600585938 146.96397399902344 C 182.05918884277344 137.59840393066406 175.49954223632812 116.42454528808594 183.2541046142578 105.34487915039062" stroke-width="12.31517219543457" fill="none" stroke="rgb(2, -2, -3)" stroke-opacity="0.28757355" stroke-linecap="round" stroke-linejoin="round"/>
    <path d="M -9.839005470275879 193.9962615966797 C 39.05002212524414 193.0451202392578 11.675996780395508 206.351318359375 63.20748519897461 198.1398162841797" stroke-width="8.267804145812988" fill="none" stroke="rgb(-4, -3, 5)" stroke-opacity="0.14786784" stroke-linecap="round" stroke-linejoin="round"/>
    <path d="M 175.43658447265625 41.36613464355469 C 198.92120361328125 49.779850006103516 196.938720703125 49.86933135986328 208.39520263671875 46.640220642089844" stroke-width="1.8347868919372559" fill="none" stroke="rgb(-2, -1, 3)" stroke-opacity="0.23188429" stroke-linecap="round" stroke-linejoin="round"/>
    <path d="M 208.53594970703125 98.82957458496094 C 181.6366729736328 60.12294387817383 188.09219360351562 83.57791900634766 216.92794799804688 99.16293334960938" stroke-width="12.756551742553711" fill="none" stroke="rgb(2, -2, 0)" stroke-opacity="0.059372667" stroke-linecap="round" stroke-linejoin="round"/>
    <path d="M 125.89466857910156 74.19943237304688 C 110.27236938476562 116.86253356933594 91.11153411865234 126.72640228271484 114.21290588378906 77.98807525634766" stroke-width="17.250041961669922" fill="none" stroke="rgb(3, -3, 1)" stroke-opacity="0.19779122" stroke-linecap="round" stroke-linejoin="round"/>
    <path d="M 7.179342746734619 86.20689392089844 C 71.4737319946289 89.87044525146484 -14.617661476135254 80.9988784790039 66.27263641357422 86.5562973022461" stroke-width="8.444327354431152" fill="none" stroke="rgb(0, -1, 1)" stroke-opacity="0.021801086" stroke-linecap="round" stroke-linejoin="round"/>
    <path d="M 106.32718658447266 80.89530944824219 C 93.59053802490234 90.31734466552734 102.04193878173828 85.88832092285156 121.55325317382812 63.26103973388672" stroke-width="3.6957790851593018" fill="none" stroke="rgb(-3, 2, 2)" stroke-opacity="0.7378978" stroke-linecap="round" stroke-linejoin="round"/>
    <path d="M 179.56492614746094 120.88197326660156 C 216.45106506347656 128.2778778076172 278.9711608886719 97.09895324707031 231.49166870117188 101.44761657714844" stroke-width="14.706911087036133" fill="none" stroke="rgb(-1, -6, 4)" stroke-opacity="0.09488159" stroke-linecap="round" stroke-linejoin="round"/>
    <path d="M 111.28046417236328 117.80489349365234 C 122.76014709472656 100.56318664550781 94.86927032470703 135.25558471679688 111.40455627441406 118.06820678710938" stroke-width="2.8787925243377686" fill="none" stroke="rgb(0, 0, -1)" stroke-opacity="0.23310861" stroke-linecap="round" stroke-linejoin="round"/>
    <path d="M 75.01248931884766 69.79423522949219 C 157.32029724121094 55.655357360839844 117.43462371826172 52.667503356933594 110.87804412841797 75.4482192993164" stroke-width="4.9475178718566895" fill="none" stroke="rgb(0, 0, 0)" stroke-opacity="0.024588885" stroke-linecap="round" stroke-linejoin="round"/>
    <path d="M 77.16231536865234 155.366455078125 C 94.42022705078125 122.37022399902344 101.99173736572266 143.6686553955078 85.42636108398438 144.80599975585938" stroke-width="4.846393585205078" fill="none" stroke="rgb(0, -2, 2)" stroke-opacity="0.5908205" stroke-linecap="round" stroke-linejoin="round"/>
    <path d="M 84.87325286865234 128.49029541015625 C 97.06549835205078 89.31536102294922 101.38823699951172 79.0674819946289 99.06439208984375 88.3360366821289" stroke-width="6.733635425567627" fill="none" stroke="rgb(0, 2, -1)" stroke-opacity="0.72432655" stroke-linecap="round" stroke-linejoin="round"/>
    <path d="M 124.69210815429688 80.3860092163086 C 103.39954376220703 79.19270324707031 98.02422332763672 49.90339279174805 115.4857406616211 93.43873596191406" stroke-width="14.508585929870605" fill="none" stroke="rgb(0, 0, 0)" stroke-opacity="0.027448092" stroke-linecap="round" stroke-linejoin="round"/>
    <path d="M 196.51329040527344 103.55989074707031 C 162.14857482910156 99.56250762939453 170.60638427734375 74.88255310058594 169.3829803466797 52.91133117675781" stroke-width="7.748810768127441" fill="none" stroke="rgb(2, -3, 3)" stroke-opacity="0.24030305" stroke-linecap="round" stroke-linejoin="round"/>
    <path d="M 111.37979125976562 71.11795806884766 C 121.53101348876953 68.19068908691406 109.82501983642578 67.02803802490234 139.4197235107422 47.20042037963867" stroke-width="3.1068527698516846" fill="none" stroke="rgb(-4, 3, 3)" stroke-opacity="0.5105789" stroke-linecap="round" stroke-linejoin="round"/>
    <path d="M 197.4643096923828 102.60450744628906 C 207.08709716796875 90.98667907714844 195.30178833007812 90.4153823852539 195.3422088623047 80.11982727050781" stroke-width="8.325541496276855" fill="none" stroke="rgb(0, -1, 0)" stroke-opacity="0.15101674" stroke-linecap="round" stroke-linejoin="round"/>
    <path d="M 125.91401672363281 57.0968132019043 C 183.13360595703125 43.56852340698242 191.34353637695312 45.023902893066406 117.0997085571289 71.15361785888672" stroke-width="10.042401313781738" fill="none" stroke="rgb(2, -2, -1)" stroke-opacity="0.119978726" stroke-linecap="round" stroke-linejoin="round"/>
    <path d="M 93.08223724365234 40.152992248535156 C 119.80712127685547 35.36054229736328 84.79795837402344 47.14191436767578 120.26113891601562 39.523433685302734" stroke-width="3.8676891326904297" fill="none" stroke="rgb(1, 0, -1)" stroke-opacity="0.022076031" stroke-linecap="round" stroke-linejoin="round"/>
    <path d="M 200.30526733398438 144.1987762451172 C 223.7556610107422 152.1139678955078 200.2292022705078 126.19807434082031 217.67913818359375 157.4073486328125" stroke-width="5.5077033042907715" fill="none" stroke="rgb(-1, 1, -1)" stroke-opacity="0.1201422" stroke-linecap="round" stroke-linejoin="round"/>
    <path d="M 32.186832427978516 47.24654769897461 C 10.038247108459473 46.842376708984375 -6.6696672439575195 44.33037185668945 10.446725845336914 49.948585510253906" stroke-width="9.896004676818848" fill="none" stroke="rgb(0, 0, 0)" stroke-opacity="0.015704282" stroke-linecap="round" stroke-linejoin="round"/>
    <path d="M 86.314697265625 216.2391357421875 C 296.8635559082031 209.3573760986328 99.87543487548828 206.9027557373047 215.9813690185547 212.8428955078125" stroke-width="3.9355132579803467" fill="none" stroke="rgb(-4, 4, -3)" stroke-opacity="0.24263772" stroke-linecap="round" stroke-linejoin="round"/>
    <path d="M 95.9271011352539 182.70814514160156 C 134.4984130859375 126.30570983886719 66.4617691040039 123.32439422607422 96.53544616699219 173.50828552246094" stroke-width="12.041728019714355" fill="none" stroke="rgb(5, -4, -5)" stroke-opacity="0.35715985" stroke-linecap="round" stroke-linejoin="round"/>
    <path d="M 121.76185607910156 65.82110595703125 C 135.3257293701172 58.660404205322266 101.45320129394531 69.75720977783203 153.3601837158203 42.41883087158203" stroke-width="6.310361862182617" fill="none" stroke="rgb(-3, 2, 4)" stroke-opacity="0.31620353" stroke-linecap="round" stroke-linejoin="round"/>
    <path d="M 114.91117095947266 58.29525375366211 C 113.5649642944336 86.49484252929688 139.95108032226562 102.64847564697266 138.16119384765625 70.8830337524414" stroke-width="14.709409713745117" fill="none" stroke="rgb(1, -1, 0)" stroke-opacity="0.027957665" stroke-linecap="round" stroke-linejoin="round"/>
    <path d="M 104.05094909667969 94.98590087890625 C 111.80058288574219 132.23345947265625 103.37247467041016 141.20042419433594 91.04239654541016 101.73648834228516" stroke-width="14.447422981262207" fill="none" stroke="rgb(2, -2, 1)" stroke-opacity="0.3597242" stroke-linecap="round" stroke-linejoin="round"/>
    <path d="M 33.898990631103516 98.65547943115234 C 9.5869140625 102.89723205566406 41.60512924194336 93.87991333007812 8.316187858581543 98.20639038085938" stroke-width="3.005985736846924" fill="none" stroke="rgb(0, 0, 0)" stroke-opacity="0.025758287" stroke-linecap="round" stroke-linejoin="round"/>
    <path d="M 98.73249816894531 96.78268432617188 C 111.78874206542969 78.38326263427734 130.77468872070312 54.75493240356445 110.64706420898438 88.00694274902344" stroke-width="6.5354084968566895" fill="none" stroke="rgb(-4, 1, 1)" stroke-opacity="0.16746125" stroke-linecap="round" stroke-linejoin="round"/>
    <path d="M 181.5164794921875 73.96026611328125 C 185.6908721923828 53.39369583129883 181.85147094726562 40.13828659057617 195.63499450683594 59.234615325927734" stroke-width="10.185853004455566" fill="none" stroke="rgb(1, -1, -2)" stroke-opacity="0.08337302" stroke-linecap="round" stroke-linejoin="round"/>
    <path d="M 97.88612365722656 3.640198230743408 C 89.3837890625 -55.36711120605469 80.84269714355469 -20.26587677001953 72.43264770507812 -13.212042808532715" stroke-width="13.065165519714355" fill="none" stroke="rgb(-2, 3, -3)" stroke-opacity="0.2063063" stroke-linecap="round" stroke-linejoin="round"/>
    <path d="M 133.81204223632812 49.09605407714844 C 197.2515869140625 30.631898880004883 136.66285705566406 49.25698471069336 164.75814819335938 41.22263717651367" stroke-width="3.228790760040283" fill="none" stroke="rgb(-2, 0, 2)" stroke-opacity="0.37865722" stroke-linecap="round" stroke-linejoin="round"/>
    <path d="M 154.5963592529297 45.71673583984375 C 128.26531982421875 55.66373062133789 118.98992919921875 72.02485656738281 118.54521942138672 65.1329116821289" stroke-width="9.273399353027344" fill="none" stroke="rgb(-1, 0, 1)" stroke-opacity="0.29581726" stroke-linecap="round" stroke-linejoin="round"/>
    <path d="M 205.23048400878906 128.5229949951172 C 232.875244140625 145.3006134033203 199.13937377929688 144.6110076904297 214.5087127685547 125.78777313232422" stroke-width="4.535970687866211" fill="none" stroke="rgb(1, 2, -3)" stroke-opacity="0.24652742" stroke-linecap="round" stroke-linejoin="round"/>
    <path d="M 119.71092224121094 78.86676025390625 C 108.98440551757812 67.94992065429688 125.19894409179688 74.09453582763672 116.34070587158203 71.45438385009766" stroke-width="3.0966877937316895" fill="none" stroke="rgb(0, 0, 0)" stroke-opacity="0.061703164" stroke-linecap="round" stroke-linejoin="round"/>
    <path d="M 93.68677520751953 108.73445892333984 C 78.9820785522461 165.4137725830078 96.75994110107422 125.74397277832031 90.9052505493164 187.33314514160156" stroke-width="13.305868148803711" fill="none" stroke="rgb(1, -2, 1)" stroke-opacity="0.41750965" stroke-linecap="round" stroke-linejoin="round"/>
    <path d="M 32.4930419921875 185.91343688964844 C 121.55228424072266 187.38192749023438 12.420699119567871 189.3260040283203 88.45535278320312 186.43824768066406" stroke-width="6.295161724090576" fill="none" stroke="rgb(0, 3, -4)" stroke-opacity="0.34260955" stroke-linecap="round" stroke-linejoin="round"/>
    <path d="M 205.69772338867188 155.69418334960938 C 206.458740234375 109.5448226928711 257.4946594238281 159.9413299560547 201.7559814453125 153.32691955566406" stroke-width="5.5146965980529785" fill="none" stroke="rgb(-3, 3, -3)" stroke-opacity="0.161633" stroke-linecap="round" stroke-linejoin="round"/>
    <path d="M 78.3531265258789 121.10282135009766 C 101.94596099853516 166.83026123046875 82.05790710449219 124.23033905029297 88.1524429321289 110.18539428710938" stroke-width="2.03266978263855" fill="none" stroke="rgb(0, 0, 0)" stroke-opacity="0.712106" stroke-linecap="round" stroke-linejoin="round"/>
    <path d="M 114.69143676757812 98.47953033447266 C 81.28311157226562 148.23585510253906 89.81348419189453 81.00534057617188 99.44087982177734 88.18119812011719" stroke-width="17.724454879760742" fill="none" stroke="rgb(0, -1, 1)" stroke-opacity="0.10842455" stroke-linecap="round" stroke-linejoin="round"/>
    <path d="M 169.43626403808594 77.51325988769531 C 171.7434539794922 65.41873931884766 166.83062744140625 58.653343200683594 167.7786865234375 54.55809783935547" stroke-width="2.275749921798706" fill="none" stroke="rgb(-1, 0, 2)" stroke-opacity="0.2812073" stroke-linecap="round" stroke-linejoin="round"/>
    <path d="M 109.04153442382812 124.04335021972656 C 63.80231857299805 137.26412963867188 110.21116638183594 135.37579345703125 115.45271301269531 105.99717712402344" stroke-width="5.768922805786133" fill="none" stroke="rgb(2, -1, -2)" stroke-opacity="0.114041544" stroke-linecap="round" stroke-linejoin="round"/>
    <path d="M 161.16134643554688 188.29566955566406 C 192.48306274414062 180.16697692871094 171.8824005126953 116.1821060180664 177.20530700683594 129.82569885253906" stroke-width="5.868546962738037" fill="none" stroke="rgb(1, -1, 0)" stroke-opacity="0.43115124" stroke-linecap="round" stroke-linejoin="round"/>
    <path d="M 97.35454559326172 130.16323852539062 C 96.25533294677734 105.39070129394531 102.40245056152344 101.04312896728516 118.61981964111328 70.92405700683594" stroke-width="4.734396457672119" fill="none" stroke="rgb(0, -1, 1)" stroke-opacity="0.32962537" stroke-linecap="round" stroke-linejoin="round"/>
    <path d="M 127.11406707763672 194.00741577148438 C 31.42899513244629 188.5634765625 148.3321990966797 234.88279724121094 82.09938049316406 211.73167419433594" stroke-width="9.460722923278809" fill="none" stroke="rgb(-1, 1, 2)" stroke-opacity="0.16132939" stroke-linecap="round" stroke-linejoin="round"/>
    <path d="M 93.34906005859375 79.96498107910156 C 158.4272918701172 99.57845306396484 165.10101318359375 55.1641845703125 122.94560241699219 67.841552734375" stroke-width="12.275924682617188" fill="none" stroke="rgb(1, -2, 0)" stroke-opacity="0.095113166" stroke-linecap="round" stroke-linejoin="round"/>
    <path d="M 92.12603759765625 103.23944854736328 C 136.15518188476562 57.75700759887695 97.700439453125 60.28539276123047 163.19961547851562 91.3871841430664" stroke-width="16.94544219970703" fill="none" stroke="rgb(0, -2, 2)" stroke-opacity="0.10418346" stroke-linecap="round" stroke-linejoin="round"/>
    <path d="M 221.90805053710938 93.5458755493164 C 188.90554809570312 76.4392318725586 187.57876586914062 74.16636657714844 223.94442749023438 76.82565307617188" stroke-width="19.518321990966797" fill="none" stroke="rgb(9, -9, 10)" stroke-opacity="0.2286393" stroke-linecap="round" stroke-linejoin="round"/>
    <path d="M 177.26771545410156 102.73120880126953 C 176.734130859375 126.36250305175781 190.48110961914062 121.66602325439453 160.40921020507812 98.71073913574219" stroke-width="16.284181594848633" fill="none" stroke="rgb(1, -1, -2)" stroke-opacity="0.21010932" stroke-linecap="round" stroke-linejoin="round"/>
    <path d="M 93.7229995727539 202.54515075683594 C 92.54613494873047 208.7399444580078 68.64208984375 200.57749938964844 103.26642608642578 144.73703002929688" stroke-width="3.806614875793457" fill="none" stroke="rgb(2, -1, 0)" stroke-opacity="0.22775379" stroke-linecap="round" stroke-linejoin="round"/>
    <path d="M 198.442138671875 155.8956298828125 C 166.19851684570312 157.4876251220703 187.8426971435547 139.33193969726562 174.23040771484375 212.4193572998047" stroke-width="5.592907905578613" fill="none" stroke="rgb(3, -3, 1)" stroke-opacity="0.1653868" stroke-linecap="round" stroke-linejoin="round"/>
    <path d="M 127.55802917480469 73.28219604492188 C 136.22128295898438 84.61811065673828 92.09170532226562 121.51145935058594 103.89889526367188 100.37855529785156" stroke-width="4.9055023193359375" fill="none" stroke="rgb(1, -2, 0)" stroke-opacity="0.093308456" stroke-linecap="round" stroke-linejoin="round"/>
    <path d="M 162.72230529785156 61.1981086730957 C 178.9030303955078 94.02460479736328 107.72953796386719 69.6644287109375 149.4947967529297 56.40958786010742" stroke-width="9.768250465393066" fill="none" stroke="rgb(2, -4, 3)" stroke-opacity="0.11122117" stroke-linecap="round" stroke-linejoin="round"/>
    <path d="M 90.94430541992188 203.40020751953125 C 158.45188903808594 197.24505615234375 196.73721313476562 212.71548461914062 139.9176483154297 198.07142639160156" stroke-width="17.81472396850586" fill="none" stroke="rgb(-1, 3, -4)" stroke-opacity="0.17277662" stroke-linecap="round" stroke-linejoin="round"/>
    <path d="M 242.13497924804688 59.974124908447266 C 194.62940979003906 61.622474670410156 184.08909606933594 61.2651252746582 201.6688232421875 52.57672882080078" stroke-width="10.795073509216309" fill="none" stroke="rgb(5, -4, -5)" stroke-opacity="0.18923314" stroke-linecap="round" stroke-linejoin="round"/>
    <path d="M 228.4305419921875 200.28472900390625 C 220.39968872070312 195.7785186767578 250.12551879882812 208.65345764160156 219.19029235839844 216.10345458984375" stroke-width="7.460235118865967" fill="none" stroke="rgb(-1, 2, -2)" stroke-opacity="0.12055725" stroke-linecap="round" stroke-linejoin="round"/>
    <path d="M 128.2218475341797 89.98355865478516 C 99.71900939941406 115.5136947631836 106.08364868164062 154.6759033203125 96.42420196533203 101.11668395996094" stroke-width="8.84195327758789" fill="none" stroke="rgb(1, -2, -1)" stroke-opacity="0.13325773" stroke-linecap="round" stroke-linejoin="round"/>
    <path d="M 146.72886657714844 88.86714935302734 C 183.6352081298828 130.05470275878906 155.29537963867188 86.99383544921875 178.77804565429688 133.6613006591797" stroke-width="8.075239181518555" fill="none" stroke="rgb(-1, -2, 4)" stroke-opacity="0.37552032" stroke-linecap="round" stroke-linejoin="round"/>
    <path d="M 100.20880889892578 86.29683685302734 C 70.34813690185547 97.7329330444336 80.89657592773438 107.13914489746094 76.28504943847656 105.62274932861328" stroke-width="2.880617618560791" fill="none" stroke="rgb(-2, 0, 2)" stroke-opacity="0.4184535" stroke-linecap="round" stroke-linejoin="round"/>
    <path d="M 187.2547607421875 114.90670776367188 C 190.33026123046875 97.098388671875 201.24586486816406 115.29625701904297 237.28492736816406 95.0400161743164" stroke-width="1.8183860778808594" fill="none" stroke="rgb(-2, 0, 2)" stroke-opacity="0.47750944" stroke-linecap="round" stroke-linejoin="round"/>
    <path d="M 2.020164728164673 228.4619140625 C 86.03594970703125 208.6084442138672 42.770469665527344 207.27334594726562 89.86400604248047 208.8403778076172" stroke-width="9.07326889038086" fill="none" stroke="rgb(-2, -1, 2)" stroke-opacity="0.121870466" stroke-linecap="round" stroke-linejoin="round"/>
    <path d="M 173.79415893554688 40.61107635498047 C 165.33326721191406 39.453208923339844 166.69537353515625 42.07330322265625 159.673095703125 44.916969299316406" stroke-width="4.904453754425049" fill="none" stroke="rgb(0, -2, 1)" stroke-opacity="0.280336" stroke-linecap="round" stroke-linejoin="round"/>
    <path d="M 229.13882446289062 46.5740852355957 C 253.66653442382812 3.7176477909088135 246.2701873779297 44.1700325012207 211.98641967773438 51.23295593261719" stroke-width="12.195721626281738" fill="none" stroke="rgb(3, -2, -4)" stroke-opacity="0.25000462" stroke-linecap="round" stroke-linejoin="round"/>
    <path d="M 155.3717498779297 72.7301254272461 C 163.04617309570312 117.651123046875 146.94061279296875 82.82085418701172 168.04115295410156 104.53945922851562" stroke-width="9.736495971679688" fill="none" stroke="rgb(-1, 2, 0)" stroke-opacity="0.19879517" stroke-linecap="round" stroke-linejoin="round"/>
    <path d="M 127.26008605957031 90.4850082397461 C 75.02596282958984 133.47573852539062 136.93798828125 44.42009353637695 152.1501007080078 73.76919555664062" stroke-width="20.572376251220703" fill="none" stroke="rgb(3, -4, 0)" stroke-opacity="0.14313021" stroke-linecap="round" stroke-linejoin="round"/>
    <path d="M 178.11077880859375 51.751373291015625 C 200.1396484375 140.73886108398438 166.86834716796875 101.58114624023438 180.1080322265625 73.28875732421875" stroke-width="13.540358543395996" fill="none" stroke="rgb(8, -4, -8)" stroke-opacity="0.23357363" stroke-linecap="round" stroke-linejoin="round"/>
    <path d="M 156.85862731933594 55.683345794677734 C 184.2171173095703 44.24665069580078 174.49549865722656 37.425140380859375 144.82928466796875 67.82231140136719" stroke-width="17.1203556060791" fill="none" stroke="rgb(3, -3, -3)" stroke-opacity="0.08813166" stroke-linecap="round" stroke-linejoin="round"/>
    <path d="M 204.07778930664062 95.63288116455078 C 203.86158752441406 101.46620178222656 198.88507080078125 99.79837799072266 238.86497497558594 112.6107177734375" stroke-width="15.643190383911133" fill="none" stroke="rgb(-3, 0, 3)" stroke-opacity="0.10979579" stroke-linecap="round" stroke-linejoin="round"/>
  </g>
</svg>
