<?xml version="1.0" ?>
<svg xmlns="http://www.w3.org/2000/svg" version="1.1" width="224" height="224">
  <defs/>
  <g>
    <path d="M 167.7183380126953 200.33482360839844 C 167.413818359375 195.11483764648438 171.61468505859375 202.5669708251953 167.6054229736328 199.34054565429688" stroke-width="1.8229920864105225" fill="none" stroke="rgb(0, 0, 0)" stroke-opacity="0.4134543" stroke-linecap="round" stroke-linejoin="round"/>
    <path d="M 115.56027221679688 112.30548095703125 C 125.27429962158203 107.83782196044922 111.24211883544922 121.91407012939453 112.84483337402344 133.785888671875" stroke-width="3.989475727081299" fill="none" stroke="rgb(2, -2, -3)" stroke-opacity="0.7220085" stroke-linecap="round" stroke-linejoin="round"/>
    <path d="M 150.02926635742188 83.90045166015625 C 122.02654266357422 85.09080505371094 129.57305908203125 79.244140625 124.70294189453125 81.99543762207031" stroke-width="11.222475051879883" fill="none" stroke="rgb(0, -1, 2)" stroke-opacity="0.58105004" stroke-linecap="round" stroke-linejoin="round"/>
    <path d="M 190.32530212402344 69.06242370605469 C 190.3212890625 67.74089813232422 193.09878540039062 74.4260025024414 191.15591430664062 71.97280883789062" stroke-width="1.8884508609771729" fill="none" stroke="rgb(0, 1, 0)" stroke-opacity="0.47664112" stroke-linecap="round" stroke-linejoin="round"/>
    <path d="M 88.73763275146484 126.40705108642578 C 84.68733215332031 138.24539184570312 87.381103515625 123.53746795654297 85.4598159790039 124.37890625" stroke-width="6.338909149169922" fill="none" stroke="rgb(1, -1, -1)" stroke-opacity="0.6962684" stroke-linecap="round" stroke-linejoin="round"/>
    <path d="M 112.85552978515625 130.9586639404297 C 119.80647277832031 155.33511352539062 113.68634796142578 146.40565490722656 112.34151458740234 169.68991088867188" stroke-width="2.310882091522217" fill="none" stroke="rgb(0, -1, 2)" stroke-opacity="0.29321742" stroke-linecap="round" stroke-linejoin="round"/>
    <path d="M 178.07891845703125 138.21859741210938 C 173.8056640625 150.24501037597656 179.87132263183594 151.4844512939453 177.019775390625 145.76559448242188" stroke-width="2.3214309215545654" fill="none" stroke="rgb(1, 0, 0)" stroke-opacity="0.65124744" stroke-linecap="round" stroke-linejoin="round"/>
    <path d="M 21.281673431396484 127.9799575805664 C 16.400808334350586 126.69096374511719 17.496519088745117 127.5389633178711 20.08272933959961 128.09385681152344" stroke-width="1.8475556373596191" fill="none" stroke="rgb(0, 0, 0)" stroke-opacity="0.22367822" stroke-linecap="round" stroke-linejoin="round"/>
    <path d="M 12.843517303466797 146.12286376953125 C 12.272825241088867 147.72256469726562 8.370969772338867 146.9353790283203 20.844064712524414 144.3310089111328" stroke-width="1.9698307514190674" fill="none" stroke="rgb(1, 0, 0)" stroke-opacity="0.2190314" stroke-linecap="round" stroke-linejoin="round"/>
    <path d="M 144.8273162841797 173.82083129882812 C 144.8359375 173.1416778564453 144.4426727294922 171.73251342773438 144.51858520507812 172.8269805908203" stroke-width="1.8623626232147217" fill="none" stroke="rgb(0, 1, 0)" stroke-opacity="0.45811757" stroke-linecap="round" stroke-linejoin="round"/>
    <path d="M 141.7204132080078 57.369075775146484 C 155.07154846191406 53.148101806640625 130.79525756835938 71.64546203613281 146.31993103027344 67.50789642333984" stroke-width="4.199759483337402" fill="none" stroke="rgb(2, -3, -1)" stroke-opacity="0.19924876" stroke-linecap="round" stroke-linejoin="round"/>
    <path d="M 97.72168731689453 147.66810607910156 C 95.12103271484375 152.59222412109375 93.01461029052734 138.6579132080078 104.67343139648438 147.00538635253906" stroke-width="1.8299202919006348" fill="none" stroke="rgb(2, -2, 1)" stroke-opacity="0.42344305" stroke-linecap="round" stroke-linejoin="round"/>
    <path d="M 33.75368118286133 232.75985717773438 C 38.728763580322266 228.1453399658203 38.33290100097656 229.5967254638672 28.59952735900879 233.21322631835938" stroke-width="4.185371398925781" fill="none" stroke="rgb(0, 0, 0)" stroke-opacity="0.8929545" stroke-linecap="round" stroke-linejoin="round"/>
    <path d="M 35.86883544921875 191.0239715576172 C 22.80752182006836 187.64723205566406 33.31803894042969 194.4241485595703 25.729951858520508 188.71807861328125" stroke-width="1.9805288314819336" fill="none" stroke="rgb(0, 1, -2)" stroke-opacity="0.3249461" stroke-linecap="round" stroke-linejoin="round"/>
    <path d="M 135.19241333007812 84.71522521972656 C 152.07147216796875 87.70775604248047 137.083740234375 80.03447723388672 125.45256805419922 89.66976165771484" stroke-width="2.703855276107788" fill="none" stroke="rgb(-1, -3, 2)" stroke-opacity="0.9481582" stroke-linecap="round" stroke-linejoin="round"/>
    <path d="M 124.16716766357422 87.21357727050781 C 105.70863342285156 79.69234466552734 111.32633209228516 97.1802978515625 108.48603057861328 92.5898666381836" stroke-width="9.236010551452637" fill="none" stroke="rgb(4, 0, 0)" stroke-opacity="0.7114316" stroke-linecap="round" stroke-linejoin="round"/>
    <path d="M 69.62689208984375 4.6352219581604 C -5.666990280151367 4.478346347808838 -11.202173233032227 5.773097038269043 31.006549835205078 2.906421661376953" stroke-width="13.36900806427002" fill="none" stroke="rgb(-3, 3, -3)" stroke-opacity="0.539471" stroke-linecap="round" stroke-linejoin="round"/>
    <path d="M 116.25812530517578 105.64939880371094 C 118.89970397949219 104.20677947998047 110.82180786132812 101.97130584716797 115.24493408203125 107.27981567382812" stroke-width="6.368916988372803" fill="none" stroke="rgb(0, 0, 0)" stroke-opacity="0.7677358" stroke-linecap="round" stroke-linejoin="round"/>
    <path d="M 179.34947204589844 61.41298294067383 C 172.5828094482422 38.942691802978516 175.76548767089844 43.22160720825195 173.3522186279297 45.08148193359375" stroke-width="8.796852111816406" fill="none" stroke="rgb(2, -1, -2)" stroke-opacity="0.20984596" stroke-linecap="round" stroke-linejoin="round"/>
    <path d="M 101.14555358886719 86.99100494384766 C 102.9081802368164 94.94348907470703 96.36209106445312 93.74373626708984 92.12549591064453 120.73013305664062" stroke-width="11.823627471923828" fill="none" stroke="rgb(-2, 1, 2)" stroke-opacity="0.86644983" stroke-linecap="round" stroke-linejoin="round"/>
    <path d="M 105.91468048095703 130.1256103515625 C 108.44246673583984 112.344482421875 94.88627624511719 104.83697509765625 110.63566589355469 111.3143081665039" stroke-width="11.733729362487793" fill="none" stroke="rgb(1, -2, 0)" stroke-opacity="0.50979304" stroke-linecap="round" stroke-linejoin="round"/>
    <path d="M 197.96893310546875 87.47313690185547 C 198.82546997070312 87.47686767578125 198.09690856933594 88.1094970703125 198.018310546875 87.42894744873047" stroke-width="1.897140622138977" fill="none" stroke="rgb(0, 0, 0)" stroke-opacity="0.54244673" stroke-linecap="round" stroke-linejoin="round"/>
    <path d="M 89.9056396484375 88.69011688232422 C 105.95466613769531 76.12186431884766 106.06555938720703 84.75614929199219 104.17259979248047 81.43360900878906" stroke-width="7.081153392791748" fill="none" stroke="rgb(-1, 1, 1)" stroke-opacity="0.28640655" stroke-linecap="round" stroke-linejoin="round"/>
    <path d="M 103.78558349609375 173.68777465820312 C 105.37229919433594 171.08474731445312 103.91661071777344 179.4293212890625 106.18783569335938 177.77711486816406" stroke-width="1.917001724243164" fill="none" stroke="rgb(0, 0, 1)" stroke-opacity="0.5103649" stroke-linecap="round" stroke-linejoin="round"/>
    <path d="M 118.06929016113281 -9.143438339233398 C 149.453125 1.3243167400360107 156.59884643554688 -0.5716412663459778 112.81613159179688 1.0386499166488647" stroke-width="3.4950995445251465" fill="none" stroke="rgb(-1, 1, 0)" stroke-opacity="0.7050091" stroke-linecap="round" stroke-linejoin="round"/>
    <path d="M 169.38858032226562 53.32701110839844 C 167.2099609375 84.81522369384766 157.07810974121094 76.59776306152344 167.55636596679688 47.00613784790039" stroke-width="9.184232711791992" fill="none" stroke="rgb(2, -2, 2)" stroke-opacity="0.3010266" stroke-linecap="round" stroke-linejoin="round"/>
    <path d="M 136.83047485351562 73.10965728759766 C 130.9090576171875 87.05645751953125 124.35166931152344 93.19412231445312 113.64544677734375 67.88040924072266" stroke-width="5.898104667663574" fill="none" stroke="rgb(3, -1, 1)" stroke-opacity="0.3705788" stroke-linecap="round" stroke-linejoin="round"/>
    <path d="M -8.00306510925293 177.37493896484375 C -11.672553062438965 175.2050018310547 -9.310638427734375 177.33132934570312 -12.244755744934082 164.69271850585938" stroke-width="3.8089308738708496" fill="none" stroke="rgb(0, 0, 0)" stroke-opacity="0.88576746" stroke-linecap="round" stroke-linejoin="round"/>
    <path d="M 163.1995391845703 103.1064453125 C 147.78009033203125 81.17994689941406 130.71206665039062 88.07147979736328 119.42823028564453 105.85862731933594" stroke-width="10.879201889038086" fill="none" stroke="rgb(3, -1, -2)" stroke-opacity="0.62084603" stroke-linecap="round" stroke-linejoin="round"/>
    <path d="M 32.96846008300781 5.539482116699219 C -13.87623119354248 0.5496671795845032 -13.43784236907959 19.545045852661133 21.109310150146484 0.6513308882713318" stroke-width="7.159694194793701" fill="none" stroke="rgb(-4, 2, -2)" stroke-opacity="0.47270676" stroke-linecap="round" stroke-linejoin="round"/>
    <path d="M 178.6520233154297 143.35421752929688 C 181.1328125 133.1178741455078 177.96490478515625 127.37359619140625 171.04150390625 107.95435333251953" stroke-width="10.669329643249512" fill="none" stroke="rgb(2, -2, -2)" stroke-opacity="0.48287067" stroke-linecap="round" stroke-linejoin="round"/>
    <path d="M 18.45438003540039 180.48651123046875 C 24.916059494018555 181.86782836914062 25.58568000793457 181.74453735351562 23.694278717041016 181.48875427246094" stroke-width="1.8131260871887207" fill="none" stroke="rgb(0, 1, 0)" stroke-opacity="0.48880517" stroke-linecap="round" stroke-linejoin="round"/>
    <path d="M 204.26361083984375 46.86302185058594 C 226.30987548828125 41.4701042175293 215.60145568847656 45.55801773071289 217.1758270263672 44.54317092895508" stroke-width="1.804523229598999" fill="none" stroke="rgb(0, 1, 1)" stroke-opacity="0.5019358" stroke-linecap="round" stroke-linejoin="round"/>
    <path d="M 197.46994018554688 89.71804809570312 C 198.3566131591797 84.5298843383789 196.40638732910156 85.55416870117188 197.2144317626953 86.83821868896484" stroke-width="1.8407832384109497" fill="none" stroke="rgb(0, 0, 0)" stroke-opacity="0.46027967" stroke-linecap="round" stroke-linejoin="round"/>
    <path d="M 128.0821990966797 88.89652252197266 C 116.51712036132812 104.07339477539062 113.99542236328125 108.73491668701172 119.21157836914062 78.35331726074219" stroke-width="7.044783592224121" fill="none" stroke="rgb(2, 0, 0)" stroke-opacity="0.5552953" stroke-linecap="round" stroke-linejoin="round"/>
    <path d="M 17.059011459350586 89.70755004882812 C 22.76030158996582 89.40216064453125 20.370670318603516 89.3477783203125 18.14961051940918 90.0009994506836" stroke-width="1.875601053237915" fill="none" stroke="rgb(1, 0, 0)" stroke-opacity="0.37782055" stroke-linecap="round" stroke-linejoin="round"/>
    <path d="M 102.35830688476562 82.95783996582031 C 93.43000793457031 91.81485748291016 103.19043731689453 84.7212142944336 108.17730712890625 78.5565414428711" stroke-width="3.667320966720581" fill="none" stroke="rgb(0, 0, 0)" stroke-opacity="0.8234003" stroke-linecap="round" stroke-linejoin="round"/>
    <path d="M 221.64501953125 99.99736785888672 C 232.35708618164062 96.02344512939453 232.386474609375 95.81859588623047 222.9059295654297 100.80879974365234" stroke-width="1.8702203035354614" fill="none" stroke="rgb(0, 0, 2)" stroke-opacity="0.6298744" stroke-linecap="round" stroke-linejoin="round"/>
    <path d="M 120.96428680419922 109.55670928955078 C 111.77021026611328 108.26405334472656 111.83779907226562 112.72163391113281 111.05132293701172 125.32484436035156" stroke-width="4.708446025848389" fill="none" stroke="rgb(1, -1, -2)" stroke-opacity="0.5147517" stroke-linecap="round" stroke-linejoin="round"/>
    <path d="M 105.19053649902344 81.41432189941406 C 111.34306335449219 83.16889190673828 115.75741577148438 83.0712661743164 110.56565856933594 79.66061401367188" stroke-width="7.937624931335449" fill="none" stroke="rgb(0, 2, 2)" stroke-opacity="0.6793915" stroke-linecap="round" stroke-linejoin="round"/>
    <path d="M 81.12003326416016 152.4496307373047 C 87.20978546142578 130.922119140625 100.0679702758789 131.05657958984375 88.10447692871094 145.3212890625" stroke-width="8.277203559875488" fill="none" stroke="rgb(0, -1, 1)" stroke-opacity="0.5795818" stroke-linecap="round" stroke-linejoin="round"/>
    <path d="M 88.64204406738281 120.7823486328125 C 91.35394287109375 89.50697326660156 101.84857177734375 92.0005874633789 99.90617370605469 94.45560455322266" stroke-width="10.31454086303711" fill="none" stroke="rgb(-1, 0, 0)" stroke-opacity="0.74831265" stroke-linecap="round" stroke-linejoin="round"/>
    <path d="M 118.57254028320312 96.17024230957031 C 111.66258239746094 86.19731903076172 102.65548706054688 98.71602630615234 117.1881103515625 101.1987533569336" stroke-width="8.832215309143066" fill="none" stroke="rgb(3, -2, 0)" stroke-opacity="0.8149842" stroke-linecap="round" stroke-linejoin="round"/>
    <path d="M 165.09164428710938 83.65201568603516 C 166.18113708496094 81.5654525756836 168.89341735839844 76.1507568359375 169.44248962402344 76.13555908203125" stroke-width="2.7635695934295654" fill="none" stroke="rgb(0, 0, 1)" stroke-opacity="0.38521853" stroke-linecap="round" stroke-linejoin="round"/>
    <path d="M 120.85355377197266 67.15552520751953 C 119.57752227783203 63.62687301635742 118.75506591796875 59.85069274902344 136.21205139160156 54.92560577392578" stroke-width="2.457517385482788" fill="none" stroke="rgb(-1, 0, 1)" stroke-opacity="0.5935558" stroke-linecap="round" stroke-linejoin="round"/>
    <path d="M 217.9630584716797 98.24153137207031 C 221.9038848876953 98.09920501708984 221.9685516357422 100.75125122070312 200.14825439453125 95.31388092041016" stroke-width="10.979532241821289" fill="none" stroke="rgb(2, -3, 1)" stroke-opacity="0.21443172" stroke-linecap="round" stroke-linejoin="round"/>
    <path d="M 134.73025512695312 68.42308044433594 C 136.99993896484375 56.9492301940918 148.87242126464844 60.32735061645508 124.25769805908203 66.03388214111328" stroke-width="6.637115478515625" fill="none" stroke="rgb(4, -3, -3)" stroke-opacity="0.33346763" stroke-linecap="round" stroke-linejoin="round"/>
    <path d="M 94.88468933105469 38.47494888305664 C 93.88597869873047 36.997215270996094 98.23657989501953 38.35535430908203 96.94667053222656 37.7325553894043" stroke-width="1.9133919477462769" fill="none" stroke="rgb(1, 0, 0)" stroke-opacity="0.2887242" stroke-linecap="round" stroke-linejoin="round"/>
    <path d="M 219.29196166992188 154.7275390625 C 211.98934936523438 164.95643615722656 213.7507781982422 156.10316467285156 221.35403442382812 158.9180145263672" stroke-width="1.967800498008728" fill="none" stroke="rgb(0, 0, 0)" stroke-opacity="0.420364" stroke-linecap="round" stroke-linejoin="round"/>
    <path d="M 25.505475997924805 50.266727447509766 C 28.81397247314453 49.37495040893555 19.247486114501953 51.63871765136719 20.326372146606445 51.46466064453125" stroke-width="1.8964004516601562" fill="none" stroke="rgb(0, 1, 0)" stroke-opacity="0.26558354" stroke-linecap="round" stroke-linejoin="round"/>
    <path d="M 170.002197265625 209.70880126953125 C 175.224609375 211.2888946533203 168.84373474121094 209.2798614501953 178.84613037109375 212.4788055419922" stroke-width="1.7725059986114502" fill="none" stroke="rgb(1, 0, 2)" stroke-opacity="0.4027968" stroke-linecap="round" stroke-linejoin="round"/>
    <path d="M 95.27074432373047 171.1434783935547 C 107.70368957519531 139.22145080566406 92.63919067382812 127.75012969970703 89.67608642578125 157.3366241455078" stroke-width="4.491267204284668" fill="none" stroke="rgb(1, -1, 1)" stroke-opacity="0.2502952" stroke-linecap="round" stroke-linejoin="round"/>
    <path d="M 123.68948364257812 63.64240264892578 C 119.53912353515625 66.8959732055664 116.2012939453125 66.66048431396484 138.9813995361328 47.288841247558594" stroke-width="3.2283542156219482" fill="none" stroke="rgb(-2, 1, 2)" stroke-opacity="0.63566124" stroke-linecap="round" stroke-linejoin="round"/>
    <path d="M 119.21578216552734 65.77198028564453 C 105.99540710449219 81.8563232421875 107.30144500732422 80.28251647949219 129.2296142578125 74.95746612548828" stroke-width="7.162821292877197" fill="none" stroke="rgb(0, 0, 2)" stroke-opacity="0.5664842" stroke-linecap="round" stroke-linejoin="round"/>
    <path d="M 104.91091918945312 104.75321197509766 C 100.01148223876953 120.22175598144531 104.82244110107422 135.3335418701172 96.13433074951172 121.85880279541016" stroke-width="14.46333122253418" fill="none" stroke="rgb(3, -3, 2)" stroke-opacity="0.79422605" stroke-linecap="round" stroke-linejoin="round"/>
    <path d="M 29.023256301879883 100.6110610961914 C 28.508085250854492 100.39921569824219 28.595870971679688 100.00072479248047 29.317689895629883 100.9251480102539" stroke-width="1.8933879137039185" fill="none" stroke="rgb(0, 1, 0)" stroke-opacity="0.3929419" stroke-linecap="round" stroke-linejoin="round"/>
    <path d="M 104.14585876464844 80.94145965576172 C 107.79148864746094 81.12903594970703 99.6412353515625 84.38600158691406 101.82745361328125 80.33929443359375" stroke-width="2.497676134109497" fill="none" stroke="rgb(0, 0, 0)" stroke-opacity="0.73755014" stroke-linecap="round" stroke-linejoin="round"/>
    <path d="M 176.74461364746094 42.97795104980469 C 192.48587036132812 51.083953857421875 175.09844970703125 45.500152587890625 185.1400146484375 65.54319763183594" stroke-width="5.87355375289917" fill="none" stroke="rgb(1, -1, 0)" stroke-opacity="0.20695789" stroke-linecap="round" stroke-linejoin="round"/>
    <path d="M 76.11026000976562 8.163382530212402 C 72.90888977050781 -16.785968780517578 74.31200408935547 -14.343194961547852 69.91911315917969 -12.013376235961914" stroke-width="5.6927642822265625" fill="none" stroke="rgb(-1, 1, -2)" stroke-opacity="0.43128762" stroke-linecap="round" stroke-linejoin="round"/>
    <path d="M 139.9493408203125 50.83968734741211 C 150.27276611328125 38.63800048828125 153.02154541015625 45.40761947631836 159.9324493408203 41.31420135498047" stroke-width="2.898639440536499" fill="none" stroke="rgb(-2, 0, 2)" stroke-opacity="0.48357987" stroke-linecap="round" stroke-linejoin="round"/>
    <path d="M 147.6939697265625 49.4195671081543 C 120.09749603271484 64.2929458618164 129.52903747558594 58.393550872802734 119.4824447631836 67.72937774658203" stroke-width="11.791305541992188" fill="none" stroke="rgb(-2, 0, 3)" stroke-opacity="0.46506324" stroke-linecap="round" stroke-linejoin="round"/>
    <path d="M 210.06228637695312 136.4520263671875 C 223.28216552734375 147.94436645507812 211.3721923828125 137.2210693359375 209.74868774414062 128.61297607421875" stroke-width="2.923473834991455" fill="none" stroke="rgb(-1, 2, -1)" stroke-opacity="0.3493646" stroke-linecap="round" stroke-linejoin="round"/>
    <path d="M 106.0867691040039 78.10930633544922 C 102.61349487304688 77.9742660522461 109.23201751708984 76.9784927368164 116.76222229003906 68.95591735839844" stroke-width="5.0033278465271" fill="none" stroke="rgb(-2, 0, 3)" stroke-opacity="0.7551145" stroke-linecap="round" stroke-linejoin="round"/>
    <path d="M 86.26309204101562 125.84966278076172 C 91.01901245117188 140.40008544921875 83.94163513183594 131.5175323486328 93.99717712402344 179.6920928955078" stroke-width="12.829665184020996" fill="none" stroke="rgb(2, -2, -1)" stroke-opacity="0.46010444" stroke-linecap="round" stroke-linejoin="round"/>
    <path d="M 36.135128021240234 181.5435333251953 C 47.4482536315918 184.9498291015625 36.71416091918945 182.8693389892578 45.16099166870117 183.73512268066406" stroke-width="1.936947226524353" fill="none" stroke="rgb(1, 0, -1)" stroke-opacity="0.37526762" stroke-linecap="round" stroke-linejoin="round"/>
    <path d="M 205.22653198242188 155.58807373046875 C 199.0784912109375 133.74012756347656 227.5143280029297 146.2852783203125 200.0485076904297 148.2674102783203" stroke-width="5.71586799621582" fill="none" stroke="rgb(0, 0, -2)" stroke-opacity="0.1368498" stroke-linecap="round" stroke-linejoin="round"/>
    <path d="M 78.24182891845703 121.73668670654297 C 95.19029235839844 143.56591796875 83.09891510009766 127.56062316894531 84.62871551513672 124.19094848632812" stroke-width="1.831393837928772" fill="none" stroke="rgb(1, -2, -1)" stroke-opacity="0.83932406" stroke-linecap="round" stroke-linejoin="round"/>
    <path d="M 117.81793212890625 103.68560791015625 C 103.70237731933594 103.0596923828125 92.1990737915039 98.82431030273438 117.25770568847656 103.1232681274414" stroke-width="10.132165908813477" fill="none" stroke="rgb(2, 0, 0)" stroke-opacity="0.6593269" stroke-linecap="round" stroke-linejoin="round"/>
    <path d="M 168.17654418945312 74.25751495361328 C 170.09976196289062 63.58283996582031 167.5182647705078 67.36910247802734 169.79208374023438 52.73366928100586" stroke-width="1.8842837810516357" fill="none" stroke="rgb(0, 0, 1)" stroke-opacity="0.51542544" stroke-linecap="round" stroke-linejoin="round"/>
    <path d="M 109.1419906616211 114.84901428222656 C 106.8423843383789 118.67951965332031 114.70796203613281 118.37287139892578 113.0369644165039 111.3001708984375" stroke-width="5.353067398071289" fill="none" stroke="rgb(1, -2, 0)" stroke-opacity="0.62222743" stroke-linecap="round" stroke-linejoin="round"/>
    <path d="M 176.3181915283203 178.7297821044922 C 183.86964416503906 156.70030212402344 177.1319122314453 143.6756591796875 178.23863220214844 136.03675842285156" stroke-width="6.243782043457031" fill="none" stroke="rgb(2, -3, 0)" stroke-opacity="0.42673337" stroke-linecap="round" stroke-linejoin="round"/>
    <path d="M 102.8046646118164 96.97927856445312 C 99.0697250366211 100.6026611328125 101.90096282958984 89.083740234375 112.37258911132812 84.6369857788086" stroke-width="5.902092933654785" fill="none" stroke="rgb(-3, -1, 2)" stroke-opacity="1.0014286" stroke-linecap="round" stroke-linejoin="round"/>
    <path d="M 97.64163970947266 177.04620361328125 C 95.10063934326172 179.85556030273438 94.77363586425781 173.5441131591797 99.16158294677734 186.33847045898438" stroke-width="1.9559037685394287" fill="none" stroke="rgb(1, 0, 2)" stroke-opacity="0.55774224" stroke-linecap="round" stroke-linejoin="round"/>
    <path d="M 122.37262725830078 88.19871520996094 C 140.60671997070312 80.50235748291016 148.85382080078125 63.6013069152832 121.31501770019531 74.44076538085938" stroke-width="7.892248153686523" fill="none" stroke="rgb(3, -3, -3)" stroke-opacity="0.47946784" stroke-linecap="round" stroke-linejoin="round"/>
    <path d="M 110.39530181884766 87.63572692871094 C 123.74375915527344 74.26885986328125 121.66561126708984 79.82140350341797 148.85848999023438 78.25051879882812" stroke-width="6.165364742279053" fill="none" stroke="rgb(3, 0, 1)" stroke-opacity="0.503249" stroke-linecap="round" stroke-linejoin="round"/>
    <path d="M 211.59413146972656 77.37954711914062 C 211.7681884765625 77.29902648925781 211.80760192871094 77.27373504638672 212.26370239257812 77.4642333984375" stroke-width="1.847846508026123" fill="none" stroke="rgb(0, 0, 0)" stroke-opacity="0.44509572" stroke-linecap="round" stroke-linejoin="round"/>
    <path d="M 165.43931579589844 107.56209564208984 C 186.19960021972656 131.18833923339844 196.44375610351562 107.76510620117188 162.8800811767578 101.60316467285156" stroke-width="9.650247573852539" fill="none" stroke="rgb(4, -2, 0)" stroke-opacity="0.33044872" stroke-linecap="round" stroke-linejoin="round"/>
    <path d="M 91.81660461425781 186.96029663085938 C 75.92745971679688 185.7054901123047 83.87096405029297 191.2056884765625 87.89533233642578 175.47434997558594" stroke-width="2.7002577781677246" fill="none" stroke="rgb(0, 0, 2)" stroke-opacity="0.4225345" stroke-linecap="round" stroke-linejoin="round"/>
    <path d="M 181.2277069091797 168.66481018066406 C 187.59140014648438 162.907958984375 174.6016387939453 166.05332946777344 174.90211486816406 201.3578643798828" stroke-width="2.0768203735351562" fill="none" stroke="rgb(2, -2, 1)" stroke-opacity="0.332747" stroke-linecap="round" stroke-linejoin="round"/>
    <path d="M 126.57889556884766 82.51130676269531 C 127.04220581054688 93.8524398803711 112.9405746459961 96.78308868408203 119.19343566894531 93.32709503173828" stroke-width="7.2771220207214355" fill="none" stroke="rgb(2, 0, -2)" stroke-opacity="0.6099853" stroke-linecap="round" stroke-linejoin="round"/>
    <path d="M 144.85662841796875 63.83327102661133 C 140.49642944335938 69.18913269042969 134.40452575683594 66.69316864013672 137.0213165283203 65.10739135742188" stroke-width="3.6516001224517822" fill="none" stroke="rgb(1, 0, -1)" stroke-opacity="0.2674204" stroke-linecap="round" stroke-linejoin="round"/>
    <path d="M 131.57130432128906 210.5240936279297 C 130.4339599609375 210.68104553222656 137.18365478515625 209.65982055664062 136.20545959472656 210.00286865234375" stroke-width="1.8313276767730713" fill="none" stroke="rgb(1, 0, 0)" stroke-opacity="0.40961185" stroke-linecap="round" stroke-linejoin="round"/>
    <path d="M 226.20657348632812 54.50241470336914 C 213.9304962158203 51.521209716796875 210.08499145507812 44.69548416137695 214.5163116455078 47.130088806152344" stroke-width="7.832492351531982" fill="none" stroke="rgb(2, -2, -2)" stroke-opacity="0.23651153" stroke-linecap="round" stroke-linejoin="round"/>
    <path d="M 215.48468017578125 212.6732940673828 C 215.80067443847656 212.98800659179688 217.72747802734375 204.84463500976562 217.15798950195312 207.67823791503906" stroke-width="1.8521850109100342" fill="none" stroke="rgb(0, 1, 0)" stroke-opacity="0.33128664" stroke-linecap="round" stroke-linejoin="round"/>
    <path d="M 122.97501373291016 93.5923843383789 C 120.59659576416016 101.24018096923828 117.9616470336914 110.97553253173828 108.672119140625 111.78131103515625" stroke-width="6.826032638549805" fill="none" stroke="rgb(2, 0, -2)" stroke-opacity="0.69371295" stroke-linecap="round" stroke-linejoin="round"/>
    <path d="M 159.8328857421875 103.7776870727539 C 166.74871826171875 113.20709991455078 173.47012329101562 110.28897094726562 171.72579956054688 117.38372039794922" stroke-width="2.2901179790496826" fill="none" stroke="rgb(2, 0, 0)" stroke-opacity="0.6741034" stroke-linecap="round" stroke-linejoin="round"/>
    <path d="M 97.05504608154297 85.73072814941406 C 71.59021759033203 100.93096160888672 80.50106048583984 103.59915161132812 77.08283996582031 108.4002914428711" stroke-width="1.871975302696228" fill="none" stroke="rgb(-2, 1, 2)" stroke-opacity="0.49759153" stroke-linecap="round" stroke-linejoin="round"/>
    <path d="M 191.7089080810547 105.9350814819336 C 202.84141540527344 101.49526977539062 206.20181274414062 106.8576431274414 225.72573852539062 98.07038116455078" stroke-width="5.601922988891602" fill="none" stroke="rgb(0, -2, 1)" stroke-opacity="0.3585708" stroke-linecap="round" stroke-linejoin="round"/>
    <path d="M 42.32493591308594 203.5797576904297 C 45.46733474731445 203.5753173828125 40.70832443237305 203.01353454589844 46.65596008300781 204.96861267089844" stroke-width="1.919443130493164" fill="none" stroke="rgb(1, 0, 0)" stroke-opacity="0.31735685" stroke-linecap="round" stroke-linejoin="round"/>
    <path d="M 172.41448974609375 42.95169448852539 C 174.29513549804688 51.1837272644043 180.2816619873047 38.806114196777344 160.75369262695312 42.65171813964844" stroke-width="6.47153902053833" fill="none" stroke="rgb(0, -1, 0)" stroke-opacity="0.19854024" stroke-linecap="round" stroke-linejoin="round"/>
    <path d="M 228.239990234375 46.686527252197266 C 236.09523010253906 33.940799713134766 234.25880432128906 43.15022277832031 221.927490234375 44.64505386352539" stroke-width="6.84867525100708" fill="none" stroke="rgb(0, 0, 0)" stroke-opacity="0.30522072" stroke-linecap="round" stroke-linejoin="round"/>
    <path d="M 141.3609619140625 83.71708679199219 C 139.01698303222656 80.4251708984375 141.40753173828125 71.7284927368164 142.76336669921875 86.99518585205078" stroke-width="5.044846534729004" fill="none" stroke="rgb(0, 1, 0)" stroke-opacity="0.39241266" stroke-linecap="round" stroke-linejoin="round"/>
    <path d="M 121.0550537109375 76.17298889160156 C 112.25777435302734 79.912353515625 106.82098388671875 65.92406463623047 142.6692352294922 72.48408508300781" stroke-width="9.874079704284668" fill="none" stroke="rgb(1, -2, 0)" stroke-opacity="0.31924328" stroke-linecap="round" stroke-linejoin="round"/>
    <path d="M 183.10586547851562 68.5468521118164 C 184.22845458984375 72.52135467529297 185.38856506347656 73.3634033203125 184.43772888183594 73.00965881347656" stroke-width="1.8880138397216797" fill="none" stroke="rgb(0, 0, 0)" stroke-opacity="0.5391716" stroke-linecap="round" stroke-linejoin="round"/>
    <path d="M 150.29635620117188 44.69175338745117 C 169.28314208984375 49.7145881652832 166.7130889892578 41.789188385009766 147.74012756347656 55.695343017578125" stroke-width="5.523266792297363" fill="none" stroke="rgb(3, -3, 1)" stroke-opacity="0.24160385" stroke-linecap="round" stroke-linejoin="round"/>
    <path d="M 218.24981689453125 97.71969604492188 C 214.5558319091797 97.97185516357422 218.46206665039062 98.47786712646484 230.86497497558594 97.60486602783203" stroke-width="1.7974979877471924" fill="none" stroke="rgb(1, 0, 1)" stroke-opacity="0.6977033" stroke-linecap="round" stroke-linejoin="round"/>
  </g>
</svg>
