<?xml version="1.0" ?>
<svg xmlns="http://www.w3.org/2000/svg" version="1.1" width="224" height="224">
  <defs/>
  <g>
    <path d="M 167.0016326904297 206.99993896484375 C 165.24588012695312 212.06309509277344 165.60964965820312 209.81028747558594 168.55612182617188 208.35842895507812" stroke-width="5.8000054359436035" fill="none" stroke="rgb(2, 2, 2)" stroke-opacity="0.99" stroke-linecap="round" stroke-linejoin="round"/>
    <path d="M 110.99989318847656 121.0001220703125 C 113.49059295654297 120.63933563232422 114.61567687988281 125.75397491455078 117.06053924560547 129.2469024658203" stroke-width="5.800004482269287" fill="none" stroke="rgb(2, 2, 2)" stroke-opacity="0.99" stroke-linecap="round" stroke-linejoin="round"/>
    <path d="M 133.9998321533203 86.99940490722656 C 132.29891967773438 82.55448913574219 137.40838623046875 79.80703735351562 138.95973205566406 85.07306671142578" stroke-width="6.199975967407227" fill="none" stroke="rgb(2, 2, 2)" stroke-opacity="0.99000037" stroke-linecap="round" stroke-linejoin="round"/>
    <path d="M 196.99993896484375 64.00030517578125 C 201.7957305908203 63.40541458129883 197.49012756347656 66.07488250732422 202.6282501220703 60.765201568603516" stroke-width="5.800009250640869" fill="none" stroke="rgb(2, 2, 2)" stroke-opacity="0.99" stroke-linecap="round" stroke-linejoin="round"/>
    <path d="M 97.000244140625 128.0023193359375 C 100.20157623291016 127.0766830444336 96.87848663330078 129.19757080078125 91.46023559570312 130.4028778076172" stroke-width="6.1999969482421875" fill="none" stroke="rgb(2, 2, 2)" stroke-opacity="0.99" stroke-linecap="round" stroke-linejoin="round"/>
    <path d="M 107.99993896484375 157.00009155273438 C 112.25126647949219 157.44949340820312 106.94032287597656 157.53411865234375 108.22266387939453 156.2794189453125" stroke-width="5.800004959106445" fill="none" stroke="rgb(2, 2, 2)" stroke-opacity="0.99" stroke-linecap="round" stroke-linejoin="round"/>
    <path d="M 183.9998779296875 146.99964904785156 C 189.07424926757812 147.39056396484375 191.8350372314453 146.35186767578125 193.7504119873047 148.25283813476562" stroke-width="5.80000638961792" fill="none" stroke="rgb(2, 2, 2)" stroke-opacity="0.99" stroke-linecap="round" stroke-linejoin="round"/>
    <path d="M 23.00115966796875 133.9998321533203 C 21.26609230041504 133.53970336914062 22.830698013305664 132.67222595214844 23.172340393066406 132.7030792236328" stroke-width="5.800008773803711" fill="none" stroke="rgb(2, 2, 2)" stroke-opacity="0.99" stroke-linecap="round" stroke-linejoin="round"/>
    <path d="M 18.00004768371582 143.00009155273438 C 16.531558990478516 144.64749145507812 17.237380981445312 142.36647033691406 16.94203758239746 143.41448974609375" stroke-width="5.800002098083496" fill="none" stroke="rgb(2, 2, 2)" stroke-opacity="0.99" stroke-linecap="round" stroke-linejoin="round"/>
    <path d="M 142.0000762939453 169.9999237060547 C 140.07029724121094 173.27003479003906 141.0355987548828 172.8734893798828 137.40234375 169.90219116210938" stroke-width="5.800004482269287" fill="none" stroke="rgb(2, 2, 2)" stroke-opacity="0.99" stroke-linecap="round" stroke-linejoin="round"/>
    <path d="M 141.99879455566406 63.999900817871094 C 141.32862854003906 65.76506042480469 136.6012420654297 69.42609405517578 140.74679565429688 68.09069061279297" stroke-width="5.800012111663818" fill="none" stroke="rgb(2, 2, 2)" stroke-opacity="0.9900001" stroke-linecap="round" stroke-linejoin="round"/>
    <path d="M 97.98361206054688 145.98049926757812 C 101.97212982177734 141.65826416015625 96.47830963134766 143.03350830078125 97.83307647705078 149.11843872070312" stroke-width="6.199868202209473" fill="none" stroke="rgb(2, 2, 2)" stroke-opacity="0.9900001" stroke-linecap="round" stroke-linejoin="round"/>
    <path d="M 36.00006866455078 223.99996948242188 C 36.0102424621582 224.06622314453125 32.59423828125 227.6550750732422 28.128623962402344 225.95989990234375" stroke-width="5.8000030517578125" fill="none" stroke="rgb(2, 2, 2)" stroke-opacity="0.99000007" stroke-linecap="round" stroke-linejoin="round"/>
    <path d="M 30.000076293945312 188.00921630859375 C 29.482675552368164 190.71649169921875 24.810583114624023 190.41851806640625 29.831146240234375 188.20387268066406" stroke-width="5.800008296966553" fill="none" stroke="rgb(2, 2, -2)" stroke-opacity="0.99" stroke-linecap="round" stroke-linejoin="round"/>
    <path d="M 146.0001220703125 90.00112915039062 C 144.7642364501953 92.90019989013672 139.39599609375 92.71949005126953 140.84632873535156 89.59213256835938" stroke-width="5.800019264221191" fill="none" stroke="rgb(2, -2, 2)" stroke-opacity="0.9900002" stroke-linecap="round" stroke-linejoin="round"/>
    <path d="M 114.99984741210938 82.99959564208984 C 108.64629364013672 82.88672637939453 111.34281921386719 89.77269744873047 107.5046615600586 86.5365982055664" stroke-width="6.199991226196289" fill="none" stroke="rgb(2, 2, 2)" stroke-opacity="0.9900002" stroke-linecap="round" stroke-linejoin="round"/>
    <path d="M 28.000150680541992 4.999713897705078 C 23.979528427124023 5.320858478546143 22.421920776367188 3.880122661590576 29.145910263061523 2.0689640045166016" stroke-width="6.1999616622924805" fill="none" stroke="rgb(2, 2, 2)" stroke-opacity="0.99" stroke-linecap="round" stroke-linejoin="round"/>
    <path d="M 111.00025177001953 106.00037384033203 C 116.6890640258789 107.5848159790039 118.08365631103516 105.52542877197266 115.9338607788086 106.74826049804688" stroke-width="5.800032615661621" fill="none" stroke="rgb(2, 2, -2)" stroke-opacity="0.99000007" stroke-linecap="round" stroke-linejoin="round"/>
    <path d="M 178.00006103515625 54.00008010864258 C 177.06675720214844 48.7701416015625 177.42596435546875 44.303836822509766 174.34249877929688 44.50992202758789" stroke-width="6.199927806854248" fill="none" stroke="rgb(2, 2, -2)" stroke-opacity="0.99000007" stroke-linecap="round" stroke-linejoin="round"/>
    <path d="M 102.0016098022461 93.98114776611328 C 103.79915618896484 97.78054809570312 104.3955078125 100.07450103759766 103.42152404785156 102.65875244140625" stroke-width="6.199985504150391" fill="none" stroke="rgb(2, 2, 2)" stroke-opacity="0.9900002" stroke-linecap="round" stroke-linejoin="round"/>
    <path d="M 108.00108337402344 108.99990844726562 C 109.85823059082031 109.16478729248047 105.61634826660156 113.73619079589844 108.19963836669922 115.80670166015625" stroke-width="5.800014019012451" fill="none" stroke="rgb(2, 2, 2)" stroke-opacity="0.9900001" stroke-linecap="round" stroke-linejoin="round"/>
    <path d="M 197.0001220703125 73.99995422363281 C 194.012451171875 78.29489135742188 190.18722534179688 80.0855484008789 194.1165008544922 77.72553253173828" stroke-width="6.199978828430176" fill="none" stroke="rgb(2, 2, 2)" stroke-opacity="0.99" stroke-linecap="round" stroke-linejoin="round"/>
    <path d="M 101.00138092041016 87.99971771240234 C 107.60865783691406 87.22785949707031 102.65422058105469 84.72879791259766 101.41383361816406 82.71886444091797" stroke-width="6.199995040893555" fill="none" stroke="rgb(2, 2, -2)" stroke-opacity="0.9900001" stroke-linecap="round" stroke-linejoin="round"/>
    <path d="M 118.99995422363281 180.9997100830078 C 117.7253646850586 181.17721557617188 122.00482177734375 175.7352752685547 125.90904998779297 174.03475952148438" stroke-width="5.800002574920654" fill="none" stroke="rgb(2, 2, -2)" stroke-opacity="0.99" stroke-linecap="round" stroke-linejoin="round"/>
    <path d="M 128.00006103515625 4.99991512298584 C 128.16876220703125 5.68812370300293 123.17182922363281 3.5553739070892334 119.40223693847656 5.361405372619629" stroke-width="5.800004959106445" fill="none" stroke="rgb(2, 2, -2)" stroke-opacity="0.99" stroke-linecap="round" stroke-linejoin="round"/>
    <path d="M 162.9999237060547 54.0003776550293 C 163.22512817382812 59.21816635131836 166.2076416015625 54.39374923706055 164.7165069580078 50.66255187988281" stroke-width="5.800013542175293" fill="none" stroke="rgb(2, 2, 2)" stroke-opacity="0.99" stroke-linecap="round" stroke-linejoin="round"/>
    <path d="M 127.0 77.0 C 124.58892059326172 78.1679458618164 124.33081817626953 80.75953674316406 118.76031494140625 84.75506591796875" stroke-width="6.199989318847656" fill="none" stroke="rgb(2, 2, 2)" stroke-opacity="0.99000037" stroke-linecap="round" stroke-linejoin="round"/>
    <path d="M 1.0000386238098145 167.99993896484375 C -0.6170076131820679 169.5539093017578 2.412446975708008 170.3424530029297 -0.44371500611305237 169.6457977294922" stroke-width="5.800003528594971" fill="none" stroke="rgb(2, 2, 2)" stroke-opacity="0.99000007" stroke-linecap="round" stroke-linejoin="round"/>
    <path d="M 143.99913024902344 90.99961853027344 C 138.81332397460938 93.17940521240234 142.35162353515625 89.98519897460938 135.0869140625 89.545166015625" stroke-width="6.199981689453125" fill="none" stroke="rgb(2, -2, -2)" stroke-opacity="0.9900004" stroke-linecap="round" stroke-linejoin="round"/>
    <path d="M 16.99919319152832 7.998833656311035 C 11.710464477539062 9.419683456420898 13.027250289916992 7.540070056915283 15.4030122756958 7.419211387634277" stroke-width="5.800023555755615" fill="none" stroke="rgb(2, 2, 2)" stroke-opacity="0.99" stroke-linecap="round" stroke-linejoin="round"/>
    <path d="M 183.9906768798828 138.99131774902344 C 181.39877319335938 141.21978759765625 178.9679412841797 134.63241577148438 181.50929260253906 134.69412231445312" stroke-width="6.1999711990356445" fill="none" stroke="rgb(2, 2, -2)" stroke-opacity="0.99000007" stroke-linecap="round" stroke-linejoin="round"/>
    <path d="M 16.999950408935547 186.00027465820312 C 19.425844192504883 180.70654296875 17.804969787597656 177.86412048339844 16.97067642211914 178.86708068847656" stroke-width="5.8000054359436035" fill="none" stroke="rgb(2, 2, 2)" stroke-opacity="0.99" stroke-linecap="round" stroke-linejoin="round"/>
    <path d="M 219.0003204345703 42.999942779541016 C 215.36814880371094 43.2069206237793 211.30313110351562 39.937992095947266 213.9767608642578 41.47687911987305" stroke-width="5.800003528594971" fill="none" stroke="rgb(2, 2, 2)" stroke-opacity="0.99" stroke-linecap="round" stroke-linejoin="round"/>
    <path d="M 203.0000762939453 83.99968719482422 C 203.95370483398438 84.51985931396484 200.0178985595703 80.56305694580078 200.43174743652344 80.07484436035156" stroke-width="5.800025463104248" fill="none" stroke="rgb(2, 2, 2)" stroke-opacity="0.99" stroke-linecap="round" stroke-linejoin="round"/>
    <path d="M 127.99844360351562 88.99887084960938 C 124.80972290039062 91.38127899169922 120.654296875 85.98898315429688 120.32006072998047 80.89649200439453" stroke-width="6.199965000152588" fill="none" stroke="rgb(2, 2, -2)" stroke-opacity="0.9900002" stroke-linecap="round" stroke-linejoin="round"/>
    <path d="M 17.999881744384766 85.99996948242188 C 16.37207794189453 87.03429412841797 17.770038604736328 88.05586242675781 16.715755462646484 86.84864044189453" stroke-width="5.800002574920654" fill="none" stroke="rgb(2, 2, 2)" stroke-opacity="0.99" stroke-linecap="round" stroke-linejoin="round"/>
    <path d="M 95.9997787475586 90.00016784667969 C 92.89210510253906 87.78003692626953 97.64368438720703 82.89871215820312 95.34253692626953 79.65750885009766" stroke-width="5.8000030517578125" fill="none" stroke="rgb(2, 2, 2)" stroke-opacity="0.99" stroke-linecap="round" stroke-linejoin="round"/>
    <path d="M 210.99990844726562 95.9988784790039 C 215.0454864501953 94.06026458740234 215.41558837890625 93.56867218017578 213.2349395751953 93.02912139892578" stroke-width="5.80000638961792" fill="none" stroke="rgb(2, 2, 2)" stroke-opacity="0.99000007" stroke-linecap="round" stroke-linejoin="round"/>
    <path d="M 110.96775817871094 110.94121551513672 C 111.3252944946289 111.9007339477539 110.55331420898438 116.04195404052734 110.31999206542969 114.33043670654297" stroke-width="6.199887752532959" fill="none" stroke="rgb(2, 2, 2)" stroke-opacity="0.9900004" stroke-linecap="round" stroke-linejoin="round"/>
    <path d="M 106.99984741210938 79.9998779296875 C 108.9238510131836 85.44279479980469 114.86123657226562 77.97879028320312 110.06619262695312 74.41496276855469" stroke-width="5.800023078918457" fill="none" stroke="rgb(2, 2, -2)" stroke-opacity="0.99000007" stroke-linecap="round" stroke-linejoin="round"/>
    <path d="M 92.20298767089844 146.3872833251953 C 94.4787826538086 147.90867614746094 93.28263854980469 144.3977508544922 98.59432220458984 142.0869598388672" stroke-width="5.800027370452881" fill="none" stroke="rgb(2, 2, 2)" stroke-opacity="0.9900001" stroke-linecap="round" stroke-linejoin="round"/>
    <path d="M 98.00019073486328 95.99980163574219 C 95.23607635498047 92.74591827392578 100.07669067382812 92.39718627929688 103.16829681396484 93.91924285888672" stroke-width="6.199256896972656" fill="none" stroke="rgb(2, -2, 2)" stroke-opacity="0.9900004" stroke-linecap="round" stroke-linejoin="round"/>
    <path d="M 119.0000991821289 95.00004577636719 C 118.73907470703125 94.37244415283203 115.49504089355469 93.14974212646484 115.59931945800781 95.46705627441406" stroke-width="5.800011157989502" fill="none" stroke="rgb(2, 2, -2)" stroke-opacity="0.99000007" stroke-linecap="round" stroke-linejoin="round"/>
    <path d="M 156.9999237060547 70.99990844726562 C 162.51089477539062 73.0324478149414 164.54217529296875 71.28043365478516 165.78451538085938 71.21055603027344" stroke-width="5.800026893615723" fill="none" stroke="rgb(2, 2, 2)" stroke-opacity="0.99" stroke-linecap="round" stroke-linejoin="round"/>
    <path d="M 133.9993438720703 55.9991455078125 C 136.24879455566406 52.362022399902344 133.4811553955078 55.9094123840332 129.23004150390625 56.656368255615234" stroke-width="5.800006866455078" fill="none" stroke="rgb(2, 2, -2)" stroke-opacity="0.9900001" stroke-linecap="round" stroke-linejoin="round"/>
    <path d="M 213.99676513671875 97.99324798583984 C 215.40440368652344 101.11249542236328 215.67465209960938 99.66783905029297 213.74899291992188 96.0696029663086" stroke-width="5.800097465515137" fill="none" stroke="rgb(2, 2, -2)" stroke-opacity="0.99000025" stroke-linecap="round" stroke-linejoin="round"/>
    <path d="M 134.00006103515625 58.00027084350586 C 131.86825561523438 57.38547134399414 128.86880493164062 59.76409912109375 131.50299072265625 57.626190185546875" stroke-width="6.199822902679443" fill="none" stroke="rgb(2, 2, 2)" stroke-opacity="0.9900001" stroke-linecap="round" stroke-linejoin="round"/>
    <path d="M 98.00005340576172 40.999794006347656 C 95.88184356689453 38.05990982055664 93.22332763671875 39.083011627197266 98.659912109375 39.775691986083984" stroke-width="5.800003528594971" fill="none" stroke="rgb(2, 2, 2)" stroke-opacity="0.99" stroke-linecap="round" stroke-linejoin="round"/>
    <path d="M 205.0018310546875 160.00009155273438 C 212.35256958007812 159.60708618164062 217.04318237304688 161.86544799804688 221.74884033203125 163.4326934814453" stroke-width="5.800005912780762" fill="none" stroke="rgb(2, 2, 2)" stroke-opacity="0.99" stroke-linecap="round" stroke-linejoin="round"/>
    <path d="M 31.000041961669922 53.000057220458984 C 27.89060401916504 51.52927017211914 23.21494483947754 53.676090240478516 22.672222137451172 52.76540756225586" stroke-width="5.800002574920654" fill="none" stroke="rgb(2, 2, 2)" stroke-opacity="0.99" stroke-linecap="round" stroke-linejoin="round"/>
    <path d="M 181.0001220703125 209.9999542236328 C 177.57379150390625 214.5840606689453 179.97998046875 213.40707397460938 176.2465362548828 209.88218688964844" stroke-width="5.8000078201293945" fill="none" stroke="rgb(2, 2, 2)" stroke-opacity="0.99" stroke-linecap="round" stroke-linejoin="round"/>
    <path d="M 86.99994659423828 147.99969482421875 C 88.71768951416016 144.92230224609375 93.17478942871094 148.82005310058594 96.4597396850586 151.80133056640625" stroke-width="5.800004959106445" fill="none" stroke="rgb(2, 2, 2)" stroke-opacity="0.99000007" stroke-linecap="round" stroke-linejoin="round"/>
    <path d="M 141.00131225585938 64.00012969970703 C 137.23609924316406 65.75379180908203 133.8429412841797 67.54216766357422 130.57589721679688 62.58696365356445" stroke-width="6.199995040893555" fill="none" stroke="rgb(2, 2, 2)" stroke-opacity="0.99000007" stroke-linecap="round" stroke-linejoin="round"/>
    <path d="M 117.00187683105469 75.00315856933594 C 115.31676483154297 74.96207427978516 119.44195556640625 79.67829895019531 126.79450225830078 74.36549377441406" stroke-width="6.199991703033447" fill="none" stroke="rgb(2, 2, 2)" stroke-opacity="0.9900001" stroke-linecap="round" stroke-linejoin="round"/>
    <path d="M 101.99982452392578 108.99987030029297 C 99.71334075927734 111.77854919433594 105.07906341552734 113.64363098144531 104.79438018798828 111.69024658203125" stroke-width="6.199990272521973" fill="none" stroke="rgb(2, 2, -2)" stroke-opacity="0.9900002" stroke-linecap="round" stroke-linejoin="round"/>
    <path d="M 33.999717712402344 107.00041961669922 C 31.069660186767578 102.17768859863281 30.744592666625977 105.37940216064453 32.58401107788086 107.67485809326172" stroke-width="5.800003528594971" fill="none" stroke="rgb(2, 2, 2)" stroke-opacity="0.99" stroke-linecap="round" stroke-linejoin="round"/>
    <path d="M 95.99989318847656 85.99979400634766 C 95.91881561279297 84.46660614013672 92.68128204345703 81.56714630126953 97.15011596679688 81.89781188964844" stroke-width="6.199982643127441" fill="none" stroke="rgb(-2, 2, 2)" stroke-opacity="1.0099975" stroke-linecap="round" stroke-linejoin="round"/>
    <path d="M 185.0004425048828 48.000057220458984 C 181.87701416015625 45.80415344238281 176.47625732421875 51.070396423339844 180.16017150878906 49.882225036621094" stroke-width="5.800014495849609" fill="none" stroke="rgb(2, 2, 2)" stroke-opacity="0.99000007" stroke-linecap="round" stroke-linejoin="round"/>
    <path d="M 72.00006103515625 7.987757682800293 C 71.35787200927734 1.3552215099334717 68.65975952148438 -2.051722526550293 72.16473388671875 -4.5006103515625" stroke-width="5.800004482269287" fill="none" stroke="rgb(2, 2, -2)" stroke-opacity="0.99" stroke-linecap="round" stroke-linejoin="round"/>
    <path d="M 146.99989318847656 43.99995803833008 C 149.92312622070312 41.405941009521484 151.96029663085938 46.926761627197266 152.31320190429688 45.79425048828125" stroke-width="5.800004482269287" fill="none" stroke="rgb(2, 2, 2)" stroke-opacity="0.99000007" stroke-linecap="round" stroke-linejoin="round"/>
    <path d="M 132.99183654785156 57.99872589111328 C 128.73007202148438 59.049930572509766 125.94860076904297 57.396400451660156 126.2643814086914 62.958595275878906" stroke-width="5.801234722137451" fill="none" stroke="rgb(2, 2, 2)" stroke-opacity="0.9900001" stroke-linecap="round" stroke-linejoin="round"/>
    <path d="M 215.00059509277344 132.99993896484375 C 211.96495056152344 136.41648864746094 207.9792022705078 140.53172302246094 203.1616973876953 136.8744354248047" stroke-width="5.80001163482666" fill="none" stroke="rgb(2, 2, 2)" stroke-opacity="0.99" stroke-linecap="round" stroke-linejoin="round"/>
    <path d="M 111.00007629394531 86.00003051757812 C 109.34020233154297 82.74345397949219 110.3702392578125 77.41835021972656 115.14305114746094 77.97885131835938" stroke-width="5.800007343292236" fill="none" stroke="rgb(2, 2, 2)" stroke-opacity="0.9900002" stroke-linecap="round" stroke-linejoin="round"/>
    <path d="M 89.99996185302734 136.0006866455078 C 88.91108703613281 138.9047088623047 87.94656372070312 141.47056579589844 89.78868103027344 146.5648956298828" stroke-width="6.199993133544922" fill="none" stroke="rgb(-2, 2, 2)" stroke-opacity="0.9900002" stroke-linecap="round" stroke-linejoin="round"/>
    <path d="M 45.999916076660156 181.00039672851562 C 47.57902908325195 178.12860107421875 46.962703704833984 176.35414123535156 49.89474105834961 175.84869384765625" stroke-width="5.800002574920654" fill="none" stroke="rgb(2, 2, 2)" stroke-opacity="0.99" stroke-linecap="round" stroke-linejoin="round"/>
    <path d="M 205.9999237060547 140.9996795654297 C 203.09048461914062 143.79656982421875 208.0167694091797 145.6202392578125 209.05661010742188 144.65589904785156" stroke-width="6.199986934661865" fill="none" stroke="rgb(2, 2, -2)" stroke-opacity="0.99000007" stroke-linecap="round" stroke-linejoin="round"/>
    <path d="M 85.00090789794922 124.99984741210938 C 91.64086151123047 129.7923126220703 90.34742736816406 126.32188415527344 94.51138305664062 124.07032775878906" stroke-width="5.800018787384033" fill="none" stroke="rgb(2, 2, 2)" stroke-opacity="0.99000007" stroke-linecap="round" stroke-linejoin="round"/>
    <path d="M 112.99432373046875 110.0059585571289 C 108.43701934814453 107.66048431396484 104.65363311767578 105.18741607666016 106.51551818847656 104.79601287841797" stroke-width="6.199983596801758" fill="none" stroke="rgb(2, 2, 2)" stroke-opacity="0.9900005" stroke-linecap="round" stroke-linejoin="round"/>
    <path d="M 166.00909423828125 77.00066375732422 C 166.96376037597656 75.20330047607422 162.31190490722656 79.18998718261719 157.82789611816406 80.09761047363281" stroke-width="6.199984073638916" fill="none" stroke="rgb(2, 2, 2)" stroke-opacity="0.99" stroke-linecap="round" stroke-linejoin="round"/>
    <path d="M 115.00206756591797 109.00565338134766 C 116.06779479980469 113.60938262939453 120.52169036865234 114.69440460205078 118.92664337158203 112.02033233642578" stroke-width="5.800097942352295" fill="none" stroke="rgb(2, 2, -2)" stroke-opacity="0.9900001" stroke-linecap="round" stroke-linejoin="round"/>
    <path d="M 183.9984893798828 144.99427795410156 C 182.21548461914062 140.28810119628906 179.4900665283203 141.7470245361328 184.3663787841797 140.04776000976562" stroke-width="5.800079345703125" fill="none" stroke="rgb(2, 2, 2)" stroke-opacity="0.99000007" stroke-linecap="round" stroke-linejoin="round"/>
    <path d="M 102.00823211669922 98.00470733642578 C 99.9184799194336 99.02899169921875 105.42898559570312 95.823974609375 106.76805114746094 91.42524719238281" stroke-width="6.1999664306640625" fill="none" stroke="rgb(2, 2, 2)" stroke-opacity="0.9900001" stroke-linecap="round" stroke-linejoin="round"/>
    <path d="M 98.99995422363281 185.999755859375 C 103.40982818603516 188.1011962890625 105.57749938964844 183.9091796875 106.34441375732422 186.4368896484375" stroke-width="5.800009727478027" fill="none" stroke="rgb(2, 2, 2)" stroke-opacity="0.99" stroke-linecap="round" stroke-linejoin="round"/>
    <path d="M 131.00022888183594 88.00025177001953 C 128.3433837890625 84.1570816040039 128.20535278320312 80.35533905029297 126.17227172851562 76.68087768554688" stroke-width="5.800037860870361" fill="none" stroke="rgb(2, -2, 2)" stroke-opacity="1.0099995" stroke-linecap="round" stroke-linejoin="round"/>
    <path d="M 127.00045013427734 77.99979400634766 C 131.59327697753906 80.9174575805664 135.70375061035156 83.12666320800781 141.2825469970703 82.62446594238281" stroke-width="6.199985980987549" fill="none" stroke="rgb(2, 2, 2)" stroke-opacity="0.9900001" stroke-linecap="round" stroke-linejoin="round"/>
    <path d="M 214.0000457763672 82.00004577636719 C 215.6363983154297 81.92134094238281 210.30316162109375 78.66707611083984 210.94557189941406 76.7562255859375" stroke-width="5.800003528594971" fill="none" stroke="rgb(2, 2, 2)" stroke-opacity="0.99" stroke-linecap="round" stroke-linejoin="round"/>
    <path d="M 173.99969482421875 114.00007629394531 C 175.11676025390625 115.22938537597656 170.01304626464844 109.95831298828125 166.66021728515625 107.47684478759766" stroke-width="5.800103664398193" fill="none" stroke="rgb(2, 2, 2)" stroke-opacity="0.99000007" stroke-linecap="round" stroke-linejoin="round"/>
    <path d="M 90.999755859375 187.99964904785156 C 91.22073364257812 189.22312927246094 88.45146942138672 190.09535217285156 88.87937927246094 190.55642700195312" stroke-width="5.800010681152344" fill="none" stroke="rgb(2, 2, 2)" stroke-opacity="0.99" stroke-linecap="round" stroke-linejoin="round"/>
    <path d="M 177.00006103515625 154.99966430664062 C 176.03590393066406 155.15895080566406 171.29515075683594 158.84544372558594 174.35720825195312 159.90896606445312" stroke-width="5.800004959106445" fill="none" stroke="rgb(2, 2, 2)" stroke-opacity="0.99" stroke-linecap="round" stroke-linejoin="round"/>
    <path d="M 125.99767303466797 85.99906921386719 C 120.58949279785156 91.54182434082031 120.37322998046875 88.78269958496094 122.41000366210938 89.02733612060547" stroke-width="6.199963569641113" fill="none" stroke="rgb(2, 2, -2)" stroke-opacity="0.9900002" stroke-linecap="round" stroke-linejoin="round"/>
    <path d="M 141.9637451171875 65.07120513916016 C 143.28175354003906 64.06585693359375 142.47369384765625 62.7303581237793 145.18556213378906 68.07994079589844" stroke-width="6.199982166290283" fill="none" stroke="rgb(2, 2, 2)" stroke-opacity="0.9900001" stroke-linecap="round" stroke-linejoin="round"/>
    <path d="M 126.00012969970703 217.0001220703125 C 125.97317504882812 218.61312866210938 130.7132110595703 215.9330291748047 133.68093872070312 212.74407958984375" stroke-width="5.800005912780762" fill="none" stroke="rgb(2, 2, -2)" stroke-opacity="0.99" stroke-linecap="round" stroke-linejoin="round"/>
    <path d="M 222.99990844726562 48.000057220458984 C 221.33224487304688 44.67279052734375 217.5874786376953 47.7385139465332 218.71493530273438 44.61416244506836" stroke-width="5.800008296966553" fill="none" stroke="rgb(2, 2, -2)" stroke-opacity="0.9900001" stroke-linecap="round" stroke-linejoin="round"/>
    <path d="M 207.99993896484375 197.9999542236328 C 209.66629028320312 201.59046936035156 205.4031524658203 201.13095092773438 208.28323364257812 201.42527770996094" stroke-width="5.8000030517578125" fill="none" stroke="rgb(2, 2, 2)" stroke-opacity="0.99" stroke-linecap="round" stroke-linejoin="round"/>
    <path d="M 114.99886322021484 107.00193786621094 C 118.3651123046875 108.6943588256836 115.2764663696289 109.65364074707031 119.60304260253906 110.2349853515625" stroke-width="6.199934482574463" fill="none" stroke="rgb(2, 2, -2)" stroke-opacity="0.9900006" stroke-linecap="round" stroke-linejoin="round"/>
    <path d="M 168.9998779296875 102.99994659423828 C 171.74754333496094 103.1633529663086 166.26914978027344 106.31861877441406 166.11508178710938 106.53215789794922" stroke-width="5.800005912780762" fill="none" stroke="rgb(2, 2, -2)" stroke-opacity="0.99000007" stroke-linecap="round" stroke-linejoin="round"/>
    <path d="M 76.99996948242188 99.00010681152344 C 80.84795379638672 97.95610046386719 82.28640747070312 101.50186157226562 78.44965362548828 104.5614013671875" stroke-width="5.8000030517578125" fill="none" stroke="rgb(2, 2, 2)" stroke-opacity="0.99" stroke-linecap="round" stroke-linejoin="round"/>
    <path d="M 203.9997100830078 97.99964904785156 C 206.98814392089844 96.8028564453125 208.9847869873047 100.50691986083984 214.34002685546875 102.26939392089844" stroke-width="5.800019264221191" fill="none" stroke="rgb(2, 2, 2)" stroke-opacity="0.99000007" stroke-linecap="round" stroke-linejoin="round"/>
    <path d="M 41.00004959106445 203.99996948242188 C 40.63066864013672 207.54928588867188 43.153846740722656 202.85679626464844 41.149085998535156 206.59426879882812" stroke-width="5.800002574920654" fill="none" stroke="rgb(2, 2, 2)" stroke-opacity="0.99" stroke-linecap="round" stroke-linejoin="round"/>
    <path d="M 166.9998016357422 45.000083923339844 C 171.1747283935547 44.681819915771484 171.0809783935547 44.56049728393555 166.64097595214844 44.830406188964844" stroke-width="5.800005912780762" fill="none" stroke="rgb(2, 2, 2)" stroke-opacity="0.99000007" stroke-linecap="round" stroke-linejoin="round"/>
    <path d="M 220.86053466796875 43.03739929199219 C 224.56919860839844 43.09486389160156 224.9691162109375 42.09979248046875 217.87216186523438 45.367225646972656" stroke-width="6.19992733001709" fill="none" stroke="rgb(2, 2, 2)" stroke-opacity="1.0099986" stroke-linecap="round" stroke-linejoin="round"/>
    <path d="M 144.0001220703125 86.99955749511719 C 143.27467346191406 83.44244384765625 142.6697235107422 79.89531707763672 143.89515686035156 80.56231689453125" stroke-width="5.800012588500977" fill="none" stroke="rgb(2, 2, 2)" stroke-opacity="0.99000007" stroke-linecap="round" stroke-linejoin="round"/>
    <path d="M 125.0083999633789 79.00955963134766 C 120.7226333618164 79.33891296386719 118.58099365234375 82.84024810791016 120.43110656738281 81.3035659790039" stroke-width="6.199923515319824" fill="none" stroke="rgb(2, 2, 2)" stroke-opacity="0.9900885" stroke-linecap="round" stroke-linejoin="round"/>
    <path d="M 176.99993896484375 76.99671173095703 C 180.38067626953125 76.00678253173828 185.1856231689453 76.24918365478516 184.50257873535156 77.0030288696289" stroke-width="5.800003528594971" fill="none" stroke="rgb(2, 2, 2)" stroke-opacity="0.99" stroke-linecap="round" stroke-linejoin="round"/>
    <path d="M 150.00030517578125 48.99968719482422 C 152.7450714111328 44.971561431884766 150.49917602539062 50.01148986816406 152.91709899902344 45.16035842895508" stroke-width="5.800010681152344" fill="none" stroke="rgb(2, 2, 2)" stroke-opacity="0.9900001" stroke-linecap="round" stroke-linejoin="round"/>
    <path d="M 219.00025939941406 110.00012969970703 C 215.68621826171875 108.79044342041016 213.22592163085938 104.77469635009766 218.82427978515625 101.80266571044922" stroke-width="5.800034046173096" fill="none" stroke="rgb(2, 2, 2)" stroke-opacity="0.99" stroke-linecap="round" stroke-linejoin="round"/>
  </g>
</svg>
