<?xml version="1.0" ?>
<svg xmlns="http://www.w3.org/2000/svg" version="1.1" width="224" height="224">
  <defs/>
  <g>
    <path d="M 70.74163818359375 206.3748016357422 C 71.2876205444336 206.46095275878906 70.67758178710938 205.93380737304688 70.82386779785156 206.32432556152344" stroke-width="3.0" fill="none" stroke="rgb(0, 0, 0)" stroke-opacity="0.27055955" stroke-linecap="round" stroke-linejoin="round"/>
    <path d="M 109.22638702392578 123.73951721191406 C 111.4574966430664 120.36820220947266 103.83717346191406 120.91167449951172 109.36621856689453 129.7214813232422" stroke-width="3.0" fill="none" stroke="rgb(0, 0, 2)" stroke-opacity="0.5094606" stroke-linecap="round" stroke-linejoin="round"/>
    <path d="M 173.24765014648438 81.73541259765625 C 133.9997100830078 98.22962951660156 135.13084411621094 70.90275573730469 139.4600830078125 79.73424530029297" stroke-width="3.0" fill="none" stroke="rgb(0, 0, 0)" stroke-opacity="0.14692062" stroke-linecap="round" stroke-linejoin="round"/>
    <path d="M 234.30880737304688 62.18917465209961 C 231.13555908203125 56.11515426635742 228.79232788085938 51.20889663696289 230.82469177246094 57.483245849609375" stroke-width="3.0" fill="none" stroke="rgb(0, 0, 0)" stroke-opacity="0.87111205" stroke-linecap="round" stroke-linejoin="round"/>
    <path d="M 145.0000762939453 135.07119750976562 C 144.13392639160156 135.12265014648438 137.985107421875 131.8681640625 141.7127227783203 132.2385711669922" stroke-width="3.0" fill="none" stroke="rgb(1, 0, 0)" stroke-opacity="0.30689955" stroke-linecap="round" stroke-linejoin="round"/>
    <path d="M 180.02764892578125 158.33590698242188 C 180.80560302734375 159.50914001464844 179.374267578125 160.17938232421875 178.7440948486328 157.1140899658203" stroke-width="3.0" fill="none" stroke="rgb(0, 1, 2)" stroke-opacity="0.3457457" stroke-linecap="round" stroke-linejoin="round"/>
    <path d="M 65.41691589355469 156.86192321777344 C 64.775634765625 156.97607421875 66.1720199584961 156.4273681640625 65.9940185546875 156.2028350830078" stroke-width="3.0" fill="none" stroke="rgb(0, 0, 0)" stroke-opacity="0.3589667" stroke-linecap="round" stroke-linejoin="round"/>
    <path d="M 210.33502197265625 136.24281311035156 C 220.00128173828125 139.04849243164062 220.1527862548828 137.11611938476562 212.69662475585938 140.90005493164062" stroke-width="3.0" fill="none" stroke="rgb(0, 0, -1)" stroke-opacity="0.15138261" stroke-linecap="round" stroke-linejoin="round"/>
    <path d="M 136.39744567871094 164.6291046142578 C 114.40596008300781 120.03557586669922 122.151123046875 116.85551452636719 120.87580871582031 133.11798095703125" stroke-width="3.0" fill="none" stroke="rgb(1, -2, 0)" stroke-opacity="0.30163512" stroke-linecap="round" stroke-linejoin="round"/>
    <path d="M 145.3065185546875 192.2723846435547 C 150.4246368408203 191.12538146972656 139.97581481933594 193.3581085205078 146.34854125976562 192.15370178222656" stroke-width="3.0" fill="none" stroke="rgb(0, 1, 0)" stroke-opacity="0.21874024" stroke-linecap="round" stroke-linejoin="round"/>
    <path d="M 116.53233337402344 49.70805358886719 C 104.21400451660156 42.51542663574219 108.3326187133789 46.1601448059082 111.91490936279297 49.10952377319336" stroke-width="3.0" fill="none" stroke="rgb(-1, 1, -2)" stroke-opacity="0.26519278" stroke-linecap="round" stroke-linejoin="round"/>
    <path d="M 39.61373519897461 155.33299255371094 C 34.22461700439453 145.93154907226562 32.229740142822266 144.77313232421875 38.93836975097656 161.31900024414062" stroke-width="3.0" fill="none" stroke="rgb(0, 0, 0)" stroke-opacity="0.10385456" stroke-linecap="round" stroke-linejoin="round"/>
    <path d="M 87.38780975341797 225.05844116210938 C 59.10816192626953 219.4976348876953 53.84685134887695 221.96954345703125 57.86003875732422 229.88534545898438" stroke-width="3.0" fill="none" stroke="rgb(0, 0, -1)" stroke-opacity="0.23647624" stroke-linecap="round" stroke-linejoin="round"/>
    <path d="M 190.67868041992188 204.38381958007812 C 200.13453674316406 193.00331115722656 195.7098388671875 188.6910858154297 196.14161682128906 193.27969360351562" stroke-width="3.0" fill="none" stroke="rgb(0, 0, 0)" stroke-opacity="0.12350098" stroke-linecap="round" stroke-linejoin="round"/>
    <path d="M 129.0070037841797 74.5326156616211 C 118.39420318603516 104.69050598144531 82.21723175048828 97.74920654296875 91.40483093261719 78.96713256835938" stroke-width="3.0" fill="none" stroke="rgb(0, 0, -1)" stroke-opacity="0.23976211" stroke-linecap="round" stroke-linejoin="round"/>
    <path d="M 130.46060180664062 79.14517974853516 C 128.39976501464844 77.80168914794922 129.8562469482422 86.03197479248047 132.59471130371094 84.83684539794922" stroke-width="3.0" fill="none" stroke="rgb(1, 0, -1)" stroke-opacity="0.26451823" stroke-linecap="round" stroke-linejoin="round"/>
    <path d="M -4.475541114807129 -9.352109909057617 C -11.946920394897461 -5.126315593719482 -8.228981018066406 -4.479544162750244 2.2483389377593994 -9.086967468261719" stroke-width="3.0" fill="none" stroke="rgb(0, 0, 0)" stroke-opacity="0.8548661" stroke-linecap="round" stroke-linejoin="round"/>
    <path d="M 140.84178161621094 88.2762222290039 C 144.1652374267578 95.04319763183594 136.86180114746094 82.56304168701172 154.583984375 98.97835540771484" stroke-width="3.0" fill="none" stroke="rgb(-2, 2, 0)" stroke-opacity="0.1510874" stroke-linecap="round" stroke-linejoin="round"/>
    <path d="M 111.29141235351562 42.8106575012207 C 105.54847717285156 36.00419616699219 106.0443115234375 36.492637634277344 107.36231994628906 40.94425964355469" stroke-width="3.0" fill="none" stroke="rgb(0, 1, 0)" stroke-opacity="0.25381404" stroke-linecap="round" stroke-linejoin="round"/>
    <path d="M 189.11251831054688 97.30465698242188 C 207.54136657714844 89.81269836425781 204.0275115966797 80.6383056640625 218.9988555908203 68.99948120117188" stroke-width="3.0" fill="none" stroke="rgb(-4, 1, 0)" stroke-opacity="0.14863206" stroke-linecap="round" stroke-linejoin="round"/>
    <path d="M 112.5749282836914 119.71220397949219 C 114.97579956054688 114.39432525634766 102.09896087646484 123.03202819824219 131.55145263671875 128.5127410888672" stroke-width="3.0" fill="none" stroke="rgb(1, -1, 2)" stroke-opacity="0.34849194" stroke-linecap="round" stroke-linejoin="round"/>
    <path d="M 151.15872192382812 48.883174896240234 C 138.2711639404297 74.0394287109375 132.82408142089844 71.95771789550781 146.00099182128906 53.83060836791992" stroke-width="3.0" fill="none" stroke="rgb(-1, 1, 0)" stroke-opacity="0.14694977" stroke-linecap="round" stroke-linejoin="round"/>
    <path d="M 91.1005630493164 82.00807189941406 C 95.61892700195312 80.8134994506836 85.81436920166016 80.60091400146484 89.45654296875 85.58242797851562" stroke-width="3.0" fill="none" stroke="rgb(2, 0, 0)" stroke-opacity="0.3264522" stroke-linecap="round" stroke-linejoin="round"/>
    <path d="M 40.33613967895508 191.6940155029297 C 40.93074417114258 195.09152221679688 40.45598220825195 190.51321411132812 40.864078521728516 193.264892578125" stroke-width="3.0" fill="none" stroke="rgb(0, 1, 0)" stroke-opacity="0.19428946" stroke-linecap="round" stroke-linejoin="round"/>
    <path d="M 130.06027221679688 4.309310436248779 C 129.86463928222656 3.5067105293273926 129.1473388671875 5.242714881896973 130.02749633789062 4.034719467163086" stroke-width="3.0" fill="none" stroke="rgb(1, 0, 0)" stroke-opacity="0.1746334" stroke-linecap="round" stroke-linejoin="round"/>
    <path d="M 41.233741760253906 49.962459564208984 C 26.19849967956543 48.013038635253906 42.01945114135742 52.52798843383789 31.424297332763672 45.75640869140625" stroke-width="3.0" fill="none" stroke="rgb(1, 2, -2)" stroke-opacity="0.2974193" stroke-linecap="round" stroke-linejoin="round"/>
    <path d="M 183.5073699951172 79.76761627197266 C 176.2386474609375 75.93006896972656 183.46163940429688 83.08830261230469 180.76206970214844 79.79029846191406" stroke-width="3.0" fill="none" stroke="rgb(1, 0, 0)" stroke-opacity="0.29059148" stroke-linecap="round" stroke-linejoin="round"/>
    <path d="M 131.39056396484375 172.64971923828125 C 129.31117248535156 181.54112243652344 142.16140747070312 178.39727783203125 135.3107452392578 173.55160522460938" stroke-width="3.0" fill="none" stroke="rgb(0, 0, 0)" stroke-opacity="0.25288752" stroke-linecap="round" stroke-linejoin="round"/>
    <path d="M 118.63124084472656 75.56084442138672 C 132.08973693847656 83.52318572998047 117.14421844482422 89.279052734375 97.40576934814453 83.16231536865234" stroke-width="3.0" fill="none" stroke="rgb(3, -3, 0)" stroke-opacity="0.39818302" stroke-linecap="round" stroke-linejoin="round"/>
    <path d="M 92.25182342529297 24.697463989257812 C 89.43343353271484 23.13212776184082 94.39054107666016 25.523481369018555 92.81976318359375 24.734058380126953" stroke-width="3.0" fill="none" stroke="rgb(0, 0, 1)" stroke-opacity="0.16932064" stroke-linecap="round" stroke-linejoin="round"/>
    <path d="M 141.37326049804688 143.3230438232422 C 133.27069091796875 150.56068420410156 127.28913879394531 153.36477661132812 140.22799682617188 138.60546875" stroke-width="3.0" fill="none" stroke="rgb(3, 0, -2)" stroke-opacity="0.28514117" stroke-linecap="round" stroke-linejoin="round"/>
    <path d="M 40.35810089111328 190.42958068847656 C 41.81857681274414 191.64427185058594 35.63765335083008 193.63290405273438 40.29202651977539 188.3615264892578" stroke-width="3.0" fill="none" stroke="rgb(0, 1, 0)" stroke-opacity="0.24690047" stroke-linecap="round" stroke-linejoin="round"/>
    <path d="M 230.9052276611328 23.68268585205078 C 230.7308807373047 21.267431259155273 234.5464324951172 18.73240852355957 229.9905548095703 18.960508346557617" stroke-width="3.0" fill="none" stroke="rgb(0, 0, 0)" stroke-opacity="0.7700532" stroke-linecap="round" stroke-linejoin="round"/>
    <path d="M 32.02316665649414 73.47920989990234 C 45.6824836730957 79.89745330810547 36.37687301635742 88.92054748535156 23.143400192260742 63.87021255493164" stroke-width="3.0" fill="none" stroke="rgb(-2, 1, -2)" stroke-opacity="0.08670631" stroke-linecap="round" stroke-linejoin="round"/>
    <path d="M 116.91017150878906 68.5467529296875 C 127.89986419677734 83.87116241455078 125.0735855102539 56.944061279296875 96.41535949707031 52.16456604003906" stroke-width="3.0" fill="none" stroke="rgb(0, 1, -1)" stroke-opacity="0.13633195" stroke-linecap="round" stroke-linejoin="round"/>
    <path d="M 66.9261703491211 77.53466033935547 C 38.21432876586914 79.31663513183594 55.630882263183594 78.74574279785156 68.48741149902344 82.04576110839844" stroke-width="3.0" fill="none" stroke="rgb(2, -1, -3)" stroke-opacity="0.24514715" stroke-linecap="round" stroke-linejoin="round"/>
    <path d="M 198.3595733642578 75.02354431152344 C 195.58071899414062 75.44226837158203 208.1180419921875 77.76444244384766 187.5140838623047 74.67683410644531" stroke-width="3.0" fill="none" stroke="rgb(1, 0, -1)" stroke-opacity="0.20946951" stroke-linecap="round" stroke-linejoin="round"/>
    <path d="M 231.38058471679688 85.41355895996094 C 231.7008514404297 88.5181884765625 231.19906616210938 93.51103973388672 232.64236450195312 82.58351135253906" stroke-width="3.0" fill="none" stroke="rgb(0, 0, 0)" stroke-opacity="0.8285352" stroke-linecap="round" stroke-linejoin="round"/>
    <path d="M 145.30020141601562 103.02249145507812 C 142.1249237060547 101.97957611083984 150.6332244873047 105.23377227783203 147.45867919921875 104.01287078857422" stroke-width="3.0" fill="none" stroke="rgb(1, 0, 0)" stroke-opacity="0.31441712" stroke-linecap="round" stroke-linejoin="round"/>
    <path d="M 122.12276458740234 49.78468322753906 C 130.50625610351562 70.91410827636719 128.425048828125 63.93614959716797 130.9086151123047 53.38779830932617" stroke-width="3.0" fill="none" stroke="rgb(-1, 1, 0)" stroke-opacity="0.09979156" stroke-linecap="round" stroke-linejoin="round"/>
    <path d="M 143.2716522216797 134.22137451171875 C 147.52084350585938 137.49591064453125 158.37510681152344 143.83465576171875 153.7101593017578 178.03802490234375" stroke-width="3.0" fill="none" stroke="rgb(-1, 0, 3)" stroke-opacity="0.09001913" stroke-linecap="round" stroke-linejoin="round"/>
    <path d="M 117.3999252319336 83.56555938720703 C 87.61900329589844 73.03589630126953 105.1890640258789 99.01651763916016 110.95219421386719 80.7842788696289" stroke-width="3.0" fill="none" stroke="rgb(4, -4, 1)" stroke-opacity="0.6235223" stroke-linecap="round" stroke-linejoin="round"/>
    <path d="M 41.990596771240234 82.114990234375 C 39.723976135253906 79.67344665527344 44.429100036621094 85.0681381225586 41.73038101196289 81.89913177490234" stroke-width="3.0" fill="none" stroke="rgb(-1, 1, 0)" stroke-opacity="0.28343332" stroke-linecap="round" stroke-linejoin="round"/>
    <path d="M 63.471771240234375 64.12397003173828 C 55.07854080200195 62.271278381347656 50.14432907104492 58.00749206542969 55.51041030883789 63.809722900390625" stroke-width="3.0" fill="none" stroke="rgb(1, 0, -1)" stroke-opacity="0.3001072" stroke-linecap="round" stroke-linejoin="round"/>
    <path d="M 130.82640075683594 47.45966720581055 C 118.9024429321289 36.16666030883789 128.80677795410156 58.02182388305664 119.87403869628906 36.97487258911133" stroke-width="3.0" fill="none" stroke="rgb(-1, 1, -2)" stroke-opacity="0.22835961" stroke-linecap="round" stroke-linejoin="round"/>
    <path d="M 74.70775604248047 97.15166473388672 C 73.58600616455078 83.89107513427734 77.85747528076172 90.3385238647461 76.53694152832031 91.48960876464844" stroke-width="3.0" fill="none" stroke="rgb(1, 0, 2)" stroke-opacity="0.27401787" stroke-linecap="round" stroke-linejoin="round"/>
    <path d="M 226.3570556640625 42.1667366027832 C 221.0717010498047 50.20668411254883 222.43882751464844 55.844879150390625 230.1051483154297 51.263206481933594" stroke-width="3.0" fill="none" stroke="rgb(0, 0, 0)" stroke-opacity="0.35239556" stroke-linecap="round" stroke-linejoin="round"/>
    <path d="M 149.22666931152344 27.00785255432129 C 148.2019500732422 26.89776039123535 146.38436889648438 35.249359130859375 151.3520965576172 25.092838287353516" stroke-width="3.0" fill="none" stroke="rgb(0, 0, 1)" stroke-opacity="0.3612145" stroke-linecap="round" stroke-linejoin="round"/>
    <path d="M 141.36773681640625 171.09902954101562 C 130.0779266357422 167.6529998779297 149.3966064453125 181.5970458984375 137.63629150390625 160.26576232910156" stroke-width="3.0" fill="none" stroke="rgb(0, -2, 2)" stroke-opacity="0.5259043" stroke-linecap="round" stroke-linejoin="round"/>
    <path d="M 168.29603576660156 41.975223541259766 C 161.3462371826172 37.160465240478516 161.3572998046875 34.3441276550293 164.67347717285156 38.15312576293945" stroke-width="3.0" fill="none" stroke="rgb(0, 0, 3)" stroke-opacity="0.32515872" stroke-linecap="round" stroke-linejoin="round"/>
    <path d="M 174.58297729492188 215.48207092285156 C 176.73379516601562 215.52935791015625 175.064697265625 211.25607299804688 176.18832397460938 212.3777618408203" stroke-width="3.0" fill="none" stroke="rgb(0, 1, 0)" stroke-opacity="0.18380061" stroke-linecap="round" stroke-linejoin="round"/>
    <path d="M 117.80665588378906 146.289306640625 C 116.76432800292969 147.38616943359375 127.8488540649414 164.3670654296875 128.35357666015625 173.07249450683594" stroke-width="3.0" fill="none" stroke="rgb(0, 0, 0)" stroke-opacity="0.20504534" stroke-linecap="round" stroke-linejoin="round"/>
    <path d="M 73.2962875366211 67.77845001220703 C 74.86659240722656 65.4969711303711 68.61692810058594 68.59552764892578 77.31913757324219 65.62916564941406" stroke-width="3.0" fill="none" stroke="rgb(0, 0, 0)" stroke-opacity="0.38888878" stroke-linecap="round" stroke-linejoin="round"/>
    <path d="M 132.48892211914062 71.20465087890625 C 130.54916381835938 59.78334045410156 132.41619873046875 70.23816680908203 139.40516662597656 61.11650848388672" stroke-width="3.0" fill="none" stroke="rgb(0, 1, -1)" stroke-opacity="0.063458845" stroke-linecap="round" stroke-linejoin="round"/>
    <path d="M 85.79733276367188 125.95103454589844 C 74.52356719970703 122.27753448486328 73.9205322265625 126.30012512207031 83.01707458496094 126.08295440673828" stroke-width="3.0" fill="none" stroke="rgb(1, 0, 0)" stroke-opacity="0.20155235" stroke-linecap="round" stroke-linejoin="round"/>
    <path d="M 196.06065368652344 110.31431579589844 C 191.33712768554688 98.62654113769531 195.0107421875 100.59517669677734 198.5205841064453 109.5689697265625" stroke-width="3.0" fill="none" stroke="rgb(1, -1, 2)" stroke-opacity="0.30959287" stroke-linecap="round" stroke-linejoin="round"/>
    <path d="M 76.75736236572266 77.12361907958984 C 77.95082092285156 71.762451171875 78.9260025024414 71.0385513305664 76.60722351074219 73.26349639892578" stroke-width="3.0" fill="none" stroke="rgb(1, 0, -1)" stroke-opacity="0.22986381" stroke-linecap="round" stroke-linejoin="round"/>
    <path d="M 160.32557678222656 30.539220809936523 C 159.68569946289062 29.389894485473633 157.7620849609375 30.9642333984375 158.35064697265625 29.957300186157227" stroke-width="3.0" fill="none" stroke="rgb(0, 0, 1)" stroke-opacity="0.29998365" stroke-linecap="round" stroke-linejoin="round"/>
    <path d="M 232.90692138671875 1.4474643468856812 C 230.80555725097656 -4.904055118560791 226.98777770996094 -7.997734069824219 229.52549743652344 7.324355125427246" stroke-width="3.0" fill="none" stroke="rgb(0, 0, 0)" stroke-opacity="0.89579123" stroke-linecap="round" stroke-linejoin="round"/>
    <path d="M 103.20658111572266 31.327098846435547 C 103.68083953857422 31.200284957885742 98.17301940917969 31.345439910888672 105.23724365234375 32.93069076538086" stroke-width="3.0" fill="none" stroke="rgb(0, 0, 2)" stroke-opacity="0.22451791" stroke-linecap="round" stroke-linejoin="round"/>
    <path d="M 11.346453666687012 38.55677795410156 C 32.722381591796875 41.47126007080078 20.262531280517578 40.99952697753906 35.96488571166992 44.9665641784668" stroke-width="3.0" fill="none" stroke="rgb(0, 3, -3)" stroke-opacity="0.16971804" stroke-linecap="round" stroke-linejoin="round"/>
    <path d="M 197.01634216308594 135.7087860107422 C 189.37826538085938 134.45431518554688 189.63294982910156 132.4737548828125 192.71170043945312 134.92234802246094" stroke-width="3.0" fill="none" stroke="rgb(1, 0, 0)" stroke-opacity="0.31273228" stroke-linecap="round" stroke-linejoin="round"/>
    <path d="M 114.33282470703125 88.54240417480469 C 115.56082153320312 64.23978424072266 110.74034881591797 63.13787078857422 120.22938537597656 68.48150634765625" stroke-width="3.0" fill="none" stroke="rgb(0, -1, 0)" stroke-opacity="0.092089824" stroke-linecap="round" stroke-linejoin="round"/>
    <path d="M 198.60177612304688 139.1552276611328 C 218.30934143066406 139.6525115966797 207.88551330566406 138.5258026123047 201.96737670898438 144.0855712890625" stroke-width="3.0" fill="none" stroke="rgb(0, 0, 0)" stroke-opacity="0.23081973" stroke-linecap="round" stroke-linejoin="round"/>
    <path d="M 80.0714340209961 181.140380859375 C 79.86361694335938 181.5332794189453 78.2717056274414 181.39352416992188 80.1964111328125 181.29310607910156" stroke-width="3.0" fill="none" stroke="rgb(0, 0, 0)" stroke-opacity="0.28820464" stroke-linecap="round" stroke-linejoin="round"/>
    <path d="M 106.72657775878906 132.67669677734375 C 120.05192565917969 144.51295471191406 114.18525695800781 167.211181640625 118.29534912109375 151.58888244628906" stroke-width="3.0" fill="none" stroke="rgb(0, 0, 2)" stroke-opacity="0.24263583" stroke-linecap="round" stroke-linejoin="round"/>
    <path d="M 67.60664367675781 124.00228881835938 C 68.64613342285156 123.18142700195312 65.57478332519531 123.9302978515625 68.95575714111328 123.65574645996094" stroke-width="3.0" fill="none" stroke="rgb(0, 0, 1)" stroke-opacity="0.30973592" stroke-linecap="round" stroke-linejoin="round"/>
    <path d="M 115.56886291503906 111.03845977783203 C 110.92412567138672 114.80580139160156 114.47512817382812 109.22120666503906 111.07926940917969 116.68891906738281" stroke-width="3.0" fill="none" stroke="rgb(1, 0, 0)" stroke-opacity="0.0795189" stroke-linecap="round" stroke-linejoin="round"/>
    <path d="M 78.78069305419922 69.95974731445312 C 81.89545440673828 64.82029724121094 74.25981903076172 70.92768096923828 75.87715911865234 70.1067886352539" stroke-width="3.0" fill="none" stroke="rgb(2, 0, -1)" stroke-opacity="0.27958846" stroke-linecap="round" stroke-linejoin="round"/>
    <path d="M 158.09962463378906 104.90243530273438 C 157.12124633789062 104.70269012451172 158.86766052246094 104.83507537841797 157.95594787597656 103.43135070800781" stroke-width="3.0" fill="none" stroke="rgb(0, 0, -2)" stroke-opacity="0.4161736" stroke-linecap="round" stroke-linejoin="round"/>
    <path d="M 82.52565002441406 140.2155303955078 C 73.68502044677734 147.0264434814453 75.02311706542969 162.35272216796875 72.98300170898438 150.81787109375" stroke-width="3.0" fill="none" stroke="rgb(0, 0, 2)" stroke-opacity="0.123097435" stroke-linecap="round" stroke-linejoin="round"/>
    <path d="M 126.54161834716797 91.01825714111328 C 123.13031005859375 99.18273162841797 142.99269104003906 94.0016098022461 128.7362060546875 97.40149688720703" stroke-width="3.0" fill="none" stroke="rgb(0, 0, -1)" stroke-opacity="0.22888322" stroke-linecap="round" stroke-linejoin="round"/>
    <path d="M 194.7175750732422 193.9174346923828 C 197.4705047607422 193.197998046875 194.68299865722656 194.09036254882812 195.40802001953125 194.2460174560547" stroke-width="3.0" fill="none" stroke="rgb(0, 0, 0)" stroke-opacity="0.32069358" stroke-linecap="round" stroke-linejoin="round"/>
    <path d="M 120.9239730834961 82.17801666259766 C 122.05022430419922 70.34109497070312 99.16500091552734 63.00967025756836 87.56970977783203 78.23825073242188" stroke-width="3.0" fill="none" stroke="rgb(2, 0, -2)" stroke-opacity="0.41490883" stroke-linecap="round" stroke-linejoin="round"/>
    <path d="M 181.36099243164062 72.0738296508789 C 184.72129821777344 72.69385528564453 177.30136108398438 78.50225830078125 198.54705810546875 78.9881820678711" stroke-width="3.0" fill="none" stroke="rgb(1, 0, 0)" stroke-opacity="0.251124" stroke-linecap="round" stroke-linejoin="round"/>
    <path d="M 50.54288864135742 77.98292541503906 C 54.16236877441406 80.79876708984375 63.268943786621094 73.5264892578125 53.80144500732422 76.88307189941406" stroke-width="3.0" fill="none" stroke="rgb(1, -1, 1)" stroke-opacity="0.23527886" stroke-linecap="round" stroke-linejoin="round"/>
    <path d="M 121.36747741699219 105.93136596679688 C 130.2447509765625 101.74988555908203 117.64502716064453 110.8423843383789 125.85212707519531 100.37864685058594" stroke-width="3.0" fill="none" stroke="rgb(1, 0, 0)" stroke-opacity="0.3256976" stroke-linecap="round" stroke-linejoin="round"/>
    <path d="M 128.90182495117188 196.84945678710938 C 129.77650451660156 196.80926513671875 129.3241729736328 197.09889221191406 129.03346252441406 197.1483917236328" stroke-width="3.0" fill="none" stroke="rgb(0, 0, 1)" stroke-opacity="0.17546506" stroke-linecap="round" stroke-linejoin="round"/>
    <path d="M 69.1792221069336 165.08578491210938 C 69.70794677734375 160.10646057128906 69.56059265136719 169.66929626464844 68.75382232666016 165.96226501464844" stroke-width="3.0" fill="none" stroke="rgb(0, 0, 1)" stroke-opacity="0.29727346" stroke-linecap="round" stroke-linejoin="round"/>
    <path d="M 120.60955047607422 70.05078125 C 108.56768798828125 73.2533950805664 114.96024322509766 78.38356018066406 118.14955139160156 71.04035186767578" stroke-width="3.0" fill="none" stroke="rgb(0, 0, 0)" stroke-opacity="0.04395457" stroke-linecap="round" stroke-linejoin="round"/>
    <path d="M 220.96826171875 45.836727142333984 C 208.0150604248047 47.47216796875 204.9956817626953 49.138553619384766 178.2470245361328 63.302127838134766" stroke-width="3.0" fill="none" stroke="rgb(0, 1, -3)" stroke-opacity="0.20309769" stroke-linecap="round" stroke-linejoin="round"/>
    <path d="M 178.00997924804688 215.52838134765625 C 178.12928771972656 215.20094299316406 178.3788299560547 212.92782592773438 176.75547790527344 216.4752197265625" stroke-width="3.0" fill="none" stroke="rgb(0, 1, 0)" stroke-opacity="0.23224482" stroke-linecap="round" stroke-linejoin="round"/>
    <path d="M 65.05021667480469 30.77308464050293 C 64.72502136230469 31.08469581604004 64.483154296875 30.61975860595703 64.80318450927734 30.355018615722656" stroke-width="3.0" fill="none" stroke="rgb(0, 1, -1)" stroke-opacity="0.24296525" stroke-linecap="round" stroke-linejoin="round"/>
    <path d="M 183.85317993164062 201.76014709472656 C 183.7130126953125 201.35752868652344 184.291015625 200.20681762695312 184.35499572753906 201.5684051513672" stroke-width="3.0" fill="none" stroke="rgb(0, 0, 0)" stroke-opacity="0.28213814" stroke-linecap="round" stroke-linejoin="round"/>
    <path d="M 118.23522186279297 102.66139221191406 C 113.93551635742188 107.40648651123047 110.32792663574219 109.28551483154297 108.17117309570312 109.07701110839844" stroke-width="3.0" fill="none" stroke="rgb(0, 0, -1)" stroke-opacity="0.051741958" stroke-linecap="round" stroke-linejoin="round"/>
    <path d="M 160.89259338378906 103.5780029296875 C 164.3872528076172 104.02847290039062 164.85476684570312 102.45172119140625 155.14329528808594 101.88809204101562" stroke-width="3.0" fill="none" stroke="rgb(0, 1, -2)" stroke-opacity="0.24172857" stroke-linecap="round" stroke-linejoin="round"/>
    <path d="M 189.66773986816406 112.30280303955078 C 180.7039337158203 116.2786636352539 172.1116485595703 120.27091979980469 186.45928955078125 114.39781951904297" stroke-width="3.0" fill="none" stroke="rgb(1, 0, 1)" stroke-opacity="0.29538277" stroke-linecap="round" stroke-linejoin="round"/>
    <path d="M 63.81646728515625 92.05025482177734 C 77.3470687866211 89.0819091796875 77.19174194335938 95.1937255859375 72.24238586425781 93.28668975830078" stroke-width="3.0" fill="none" stroke="rgb(1, 0, -1)" stroke-opacity="0.3526427" stroke-linecap="round" stroke-linejoin="round"/>
    <path d="M 140.81610107421875 208.24803161621094 C 145.5367889404297 208.2648162841797 138.9768829345703 208.245361328125 140.17831420898438 208.16360473632812" stroke-width="3.0" fill="none" stroke="rgb(0, 0, 0)" stroke-opacity="0.19755068" stroke-linecap="round" stroke-linejoin="round"/>
    <path d="M 159.4161834716797 31.27378273010254 C 153.78497314453125 31.851364135742188 157.81008911132812 26.279766082763672 158.5012664794922 32.226131439208984" stroke-width="3.0" fill="none" stroke="rgb(0, 0, 0)" stroke-opacity="0.32162416" stroke-linecap="round" stroke-linejoin="round"/>
    <path d="M 231.47366333007812 19.6411075592041 C 232.72805786132812 27.423147201538086 227.72683715820312 26.83005714416504 228.21266174316406 19.663148880004883" stroke-width="3.0" fill="none" stroke="rgb(0, 0, 0)" stroke-opacity="0.8436973" stroke-linecap="round" stroke-linejoin="round"/>
    <path d="M 163.48822021484375 77.10301971435547 C 133.70204162597656 87.01122283935547 152.2114715576172 45.50151824951172 172.49847412109375 70.07125854492188" stroke-width="3.0" fill="none" stroke="rgb(4, -3, 0)" stroke-opacity="0.6263686" stroke-linecap="round" stroke-linejoin="round"/>
    <path d="M 179.6619110107422 74.31378173828125 C 174.85533142089844 59.52220916748047 185.41311645507812 58.84096908569336 166.48695373535156 82.26322174072266" stroke-width="3.0" fill="none" stroke="rgb(0, 1, -2)" stroke-opacity="0.11551348" stroke-linecap="round" stroke-linejoin="round"/>
    <path d="M 77.72183990478516 66.81996154785156 C 76.89227294921875 66.92037200927734 74.79508972167969 69.62244415283203 78.14899444580078 69.28202819824219" stroke-width="3.0" fill="none" stroke="rgb(2, 0, 0)" stroke-opacity="0.37803447" stroke-linecap="round" stroke-linejoin="round"/>
    <path d="M 92.33307647705078 31.16143798828125 C 91.303955078125 31.783462524414062 95.503173828125 32.05303955078125 93.83678436279297 31.45516586303711" stroke-width="3.0" fill="none" stroke="rgb(0, 0, -1)" stroke-opacity="0.319614" stroke-linecap="round" stroke-linejoin="round"/>
    <path d="M 160.13156127929688 105.4090805053711 C 161.02052307128906 106.73046875 160.24598693847656 104.17049407958984 161.22088623046875 103.94847106933594" stroke-width="3.0" fill="none" stroke="rgb(0, 0, -1)" stroke-opacity="0.42393795" stroke-linecap="round" stroke-linejoin="round"/>
  </g>
</svg>
