<?xml version="1.0" ?>
<svg xmlns="http://www.w3.org/2000/svg" version="1.1" width="224" height="224">
  <defs/>
  <g>
    <path d="M 78.00041961669922 206.0006561279297 C 74.24675750732422 211.0643768310547 76.61101531982422 212.80844116210938 81.5553970336914 209.3586883544922" stroke-width="3.0" fill="none" stroke="rgb(2, 2, 2)" stroke-opacity="0.99000007" stroke-linecap="round" stroke-linejoin="round"/>
    <path d="M 101.99958038330078 117.00015258789062 C 104.49089813232422 116.63936614990234 107.61516571044922 119.75563049316406 110.06037902832031 125.24869537353516" stroke-width="3.0" fill="none" stroke="rgb(2, 2, 2)" stroke-opacity="0.99000007" stroke-linecap="round" stroke-linejoin="round"/>
    <path d="M 138.99974060058594 76.9999008178711 C 137.3773193359375 74.53689575195312 142.4718017578125 71.8002700805664 141.9612274169922 73.07367706298828" stroke-width="3.0" fill="none" stroke="rgb(2, 2, -2)" stroke-opacity="0.99000007" stroke-linecap="round" stroke-linejoin="round"/>
    <path d="M 219.99945068359375 55.00027847290039 C 224.81204223632812 54.40543746948242 222.46949768066406 57.07131576538086 225.62791442871094 53.763946533203125" stroke-width="3.0" fill="none" stroke="rgb(2, 2, 2)" stroke-opacity="0.99000007" stroke-linecap="round" stroke-linejoin="round"/>
    <path d="M 149.9985809326172 127.99958038330078 C 153.16793823242188 125.2246322631836 147.8798065185547 127.19806671142578 144.4595947265625 128.39317321777344" stroke-width="3.0" fill="none" stroke="rgb(2, 2, 2)" stroke-opacity="0.99000007" stroke-linecap="round" stroke-linejoin="round"/>
    <path d="M 176.99986267089844 164.0001678466797 C 181.25367736816406 164.4489288330078 175.94068908691406 164.52232360839844 177.22235107421875 161.2801055908203" stroke-width="3.0" fill="none" stroke="rgb(2, 2, -2)" stroke-opacity="0.99000007" stroke-linecap="round" stroke-linejoin="round"/>
    <path d="M 47.99988555908203 153.00054931640625 C 51.082069396972656 157.38986206054688 53.84089660644531 156.35076904296875 57.7501106262207 156.25306701660156" stroke-width="3.0" fill="none" stroke="rgb(2, 2, 2)" stroke-opacity="0.99" stroke-linecap="round" stroke-linejoin="round"/>
    <path d="M 214.00033569335938 132.99989318847656 C 212.26502990722656 132.5396728515625 213.830810546875 131.6720733642578 214.17120361328125 133.70156860351562" stroke-width="3.0" fill="none" stroke="rgb(2, 2, -2)" stroke-opacity="0.99000007" stroke-linecap="round" stroke-linejoin="round"/>
    <path d="M 128.00070190429688 149.99984741210938 C 126.5328140258789 149.64576721191406 125.24906921386719 147.3560791015625 126.94203186035156 148.41453552246094" stroke-width="3.0" fill="none" stroke="rgb(2, 2, 2)" stroke-opacity="0.9900001" stroke-linecap="round" stroke-linejoin="round"/>
    <path d="M 145.0000457763672 175.00006103515625 C 141.0724334716797 178.2715301513672 144.03500366210938 179.873046875 140.40234375 178.90151977539062" stroke-width="3.0" fill="none" stroke="rgb(2, 2, 2)" stroke-opacity="0.99000007" stroke-linecap="round" stroke-linejoin="round"/>
    <path d="M 109.00019073486328 53.99982452392578 C 110.3177719116211 53.77754211425781 105.60075378417969 57.431095123291016 109.74686431884766 60.08643341064453" stroke-width="3.0" fill="none" stroke="rgb(2, 2, -2)" stroke-opacity="0.99000007" stroke-linecap="round" stroke-linejoin="round"/>
    <path d="M 36.00004959106445 152.99960327148438 C 39.98495864868164 146.66758728027344 36.47489547729492 150.02444458007812 37.833717346191406 154.1208953857422" stroke-width="3.0" fill="none" stroke="rgb(2, 2, -2)" stroke-opacity="0.99000007" stroke-linecap="round" stroke-linejoin="round"/>
    <path d="M 64.99876403808594 222.0006866455078 C 61.014469146728516 222.0673828125 59.588226318359375 225.65591430664062 57.127532958984375 225.95974731445312" stroke-width="3.0" fill="none" stroke="rgb(2, 2, 2)" stroke-opacity="0.9900002" stroke-linecap="round" stroke-linejoin="round"/>
    <path d="M 181.9999237060547 193.98745727539062 C 181.4788360595703 194.71640014648438 176.80931091308594 194.4192657470703 181.83096313476562 190.20423889160156" stroke-width="3.0" fill="none" stroke="rgb(2, 2, 2)" stroke-opacity="0.99000007" stroke-linecap="round" stroke-linejoin="round"/>
    <path d="M 112.99942016601562 81.99919891357422 C 111.72909545898438 84.8985366821289 106.37406921386719 84.71764373779297 107.84425354003906 81.58949279785156" stroke-width="3.0" fill="none" stroke="rgb(2, 2, -2)" stroke-opacity="0.9900003" stroke-linecap="round" stroke-linejoin="round"/>
    <path d="M 126.00054168701172 72.99983215332031 C 123.64481353759766 74.88394927978516 126.34169006347656 79.77175903320312 122.50450134277344 76.53675079345703" stroke-width="3.0" fill="none" stroke="rgb(2, 2, 2)" stroke-opacity="0.99000007" stroke-linecap="round" stroke-linejoin="round"/>
    <path d="M 6.99977970123291 4.01511287689209 C 0.9792991280555725 6.320427894592285 -0.5561454892158508 4.881128311157227 4.146340370178223 3.0687973499298096" stroke-width="3.0" fill="none" stroke="rgb(2, 2, 2)" stroke-opacity="0.99000007" stroke-linecap="round" stroke-linejoin="round"/>
    <path d="M 136.99900817871094 104.00006103515625 C 140.6914520263672 105.58604431152344 142.08494567871094 103.52605438232422 139.93356323242188 104.74794006347656" stroke-width="3.0" fill="none" stroke="rgb(2, 2, -2)" stroke-opacity="0.9900001" stroke-linecap="round" stroke-linejoin="round"/>
    <path d="M 111.00010681152344 42.00040817260742 C 108.06826782226562 38.767677307128906 110.42597961425781 34.290164947509766 109.3421401977539 34.5087890625" stroke-width="3.0" fill="none" stroke="rgb(2, 2, 2)" stroke-opacity="0.99000007" stroke-linecap="round" stroke-linejoin="round"/>
    <path d="M 207.99993896484375 81.00244140625 C 209.79869079589844 84.79010009765625 210.395263671875 89.07218170166016 207.4215850830078 93.65802001953125" stroke-width="3.0" fill="none" stroke="rgb(-2, 2, 2)" stroke-opacity="0.99000007" stroke-linecap="round" stroke-linejoin="round"/>
    <path d="M 106.99898529052734 106.9999008178711 C 104.87898254394531 109.1318359375 100.61813354492188 113.7326431274414 103.19976806640625 115.80655670166016" stroke-width="3.0" fill="none" stroke="rgb(2, 2, -2)" stroke-opacity="0.99" stroke-linecap="round" stroke-linejoin="round"/>
    <path d="M 143.9989776611328 63.00016784667969 C 139.01312255859375 69.29528045654297 135.18751525878906 71.08572387695312 139.11666870117188 68.72566986083984" stroke-width="3.0" fill="none" stroke="rgb(2, -2, 2)" stroke-opacity="0.9900004" stroke-linecap="round" stroke-linejoin="round"/>
    <path d="M 82.00011444091797 77.99967193603516 C 86.61296844482422 77.22901153564453 81.6556167602539 76.72688293457031 82.41380310058594 74.71868896484375" stroke-width="3.0" fill="none" stroke="rgb(2, 2, 2)" stroke-opacity="0.99000007" stroke-linecap="round" stroke-linejoin="round"/>
    <path d="M 44.9998779296875 186.99986267089844 C 43.72602844238281 187.17811584472656 48.005428314208984 181.73580932617188 51.90904998779297 182.03323364257812" stroke-width="3.0" fill="none" stroke="rgb(2, 2, 2)" stroke-opacity="0.99000007" stroke-linecap="round" stroke-linejoin="round"/>
    <path d="M 133.0000762939453 5.999820709228516 C 133.15577697753906 8.687679290771484 130.1689910888672 6.555208683013916 126.40192413330078 6.370896339416504" stroke-width="3.0" fill="none" stroke="rgb(2, 2, 2)" stroke-opacity="0.99" stroke-linecap="round" stroke-linejoin="round"/>
    <path d="M 30.000181198120117 42.00165557861328 C 32.22441864013672 47.22005081176758 37.2043342590332 44.382755279541016 31.717199325561523 40.66112518310547" stroke-width="3.0" fill="none" stroke="rgb(2, 2, 2)" stroke-opacity="0.99000007" stroke-linecap="round" stroke-linejoin="round"/>
    <path d="M 178.9965057373047 67.99986267089844 C 176.58978271484375 69.16883087158203 176.9091033935547 72.37622833251953 171.7597198486328 74.75499725341797" stroke-width="3.0" fill="none" stroke="rgb(2, 2, -2)" stroke-opacity="0.99000007" stroke-linecap="round" stroke-linejoin="round"/>
    <path d="M 125.99954986572266 173.99990844726562 C 124.38209533691406 173.55877685546875 127.4110107421875 174.344482421875 124.55510711669922 175.64553833007812" stroke-width="3.0" fill="none" stroke="rgb(2, 2, 2)" stroke-opacity="0.99000007" stroke-linecap="round" stroke-linejoin="round"/>
    <path d="M 118.00013732910156 80.99987030029297 C 114.81379699707031 85.17631530761719 118.3510971069336 79.98711395263672 113.0848617553711 81.54261016845703" stroke-width="3.0" fill="none" stroke="rgb(2, -2, 2)" stroke-opacity="0.9900002" stroke-linecap="round" stroke-linejoin="round"/>
    <path d="M 94.00030517578125 10.000429153442383 C 92.7080307006836 15.416542053222656 94.02639770507812 13.539140701293945 94.40253448486328 11.419219017028809" stroke-width="3.0" fill="none" stroke="rgb(2, 2, 2)" stroke-opacity="0.99000007" stroke-linecap="round" stroke-linejoin="round"/>
    <path d="M 144.9998779296875 141.99961853027344 C 142.3993682861328 144.26478576660156 139.96902465820312 139.63037109375 142.50875854492188 139.69393920898438" stroke-width="3.0" fill="none" stroke="rgb(2, 2, -2)" stroke-opacity="0.99000007" stroke-linecap="round" stroke-linejoin="round"/>
    <path d="M 44.00034713745117 191.00022888183594 C 50.4253044128418 185.7047576904297 48.80430221557617 180.8662109375 45.970306396484375 183.8668212890625" stroke-width="3.0" fill="none" stroke="rgb(2, 2, 2)" stroke-opacity="0.99000007" stroke-linecap="round" stroke-linejoin="round"/>
    <path d="M 223.95436096191406 22.999645233154297 C 218.4122772216797 23.206579208374023 216.3001708984375 19.937604904174805 216.97628784179688 21.476797103881836" stroke-width="3.0" fill="none" stroke="rgb(2, 2, 2)" stroke-opacity="0.99000007" stroke-linecap="round" stroke-linejoin="round"/>
    <path d="M 47.00017547607422 74.99964904785156 C 47.956153869628906 75.51968383789062 44.01883316040039 71.56262969970703 44.432098388671875 73.07463073730469" stroke-width="3.0" fill="none" stroke="rgb(2, 2, 2)" stroke-opacity="0.99000007" stroke-linecap="round" stroke-linejoin="round"/>
    <path d="M 117.9998550415039 77.0000991821289 C 114.80583190917969 81.38195037841797 110.6492691040039 75.99258422851562 110.3197021484375 72.89579010009766" stroke-width="3.0" fill="none" stroke="rgb(2, -2, 2)" stroke-opacity="0.9900006" stroke-linecap="round" stroke-linejoin="round"/>
    <path d="M 62.000099182128906 75.99989318847656 C 62.37234115600586 77.0373306274414 65.76887512207031 78.06505584716797 62.71578598022461 76.8519058227539" stroke-width="3.0" fill="none" stroke="rgb(2, 2, 2)" stroke-opacity="0.99000007" stroke-linecap="round" stroke-linejoin="round"/>
    <path d="M 197.9994354248047 80.99518585205078 C 194.8920135498047 74.78207397460938 199.64349365234375 69.90122985839844 197.3424835205078 68.65741729736328" stroke-width="3.0" fill="none" stroke="rgb(2, 2, -2)" stroke-opacity="0.99" stroke-linecap="round" stroke-linejoin="round"/>
    <path d="M 220.999267578125 85.00018310546875 C 225.05612182617188 85.09862518310547 225.41986083984375 86.56089782714844 221.23529052734375 84.02880096435547" stroke-width="3.0" fill="none" stroke="rgb(2, 2, -2)" stroke-opacity="0.99000007" stroke-linecap="round" stroke-linejoin="round"/>
    <path d="M 147.00010681152344 107.99957275390625 C 149.32615661621094 108.90189361572266 148.55238342285156 113.03144073486328 146.3218536376953 111.33142852783203" stroke-width="3.0" fill="none" stroke="rgb(2, 2, -2)" stroke-opacity="0.99000007" stroke-linecap="round" stroke-linejoin="round"/>
    <path d="M 134.00018310546875 68.00008392333984 C 137.92123413085938 73.44850158691406 141.86236572265625 67.97760772705078 139.0658721923828 64.39132690429688" stroke-width="3.0" fill="none" stroke="rgb(2, 2, -2)" stroke-opacity="0.9900001" stroke-linecap="round" stroke-linejoin="round"/>
    <path d="M 153.9998779296875 153.000244140625 C 154.37738037109375 152.95599365234375 151.28927612304688 149.4013671875 156.59469604492188 147.08828735351562" stroke-width="3.0" fill="none" stroke="rgb(2, 2, 2)" stroke-opacity="0.99000007" stroke-linecap="round" stroke-linejoin="round"/>
    <path d="M 112.9999008178711 84.00015258789062 C 106.25105285644531 82.7452163696289 111.08161926269531 82.397216796875 114.18401336669922 83.9198226928711" stroke-width="3.0" fill="none" stroke="rgb(2, 2, 2)" stroke-opacity="0.9900003" stroke-linecap="round" stroke-linejoin="round"/>
    <path d="M 45.00015640258789 87.0001220703125 C 42.74171829223633 86.38053894042969 41.49643325805664 83.15455627441406 43.598812103271484 85.46727752685547" stroke-width="3.0" fill="none" stroke="rgb(2, 2, -2)" stroke-opacity="0.99000007" stroke-linecap="round" stroke-linejoin="round"/>
    <path d="M 47.000099182128906 62.99968338012695 C 52.51170349121094 67.0313491821289 54.54348373413086 61.28281784057617 57.78472137451172 63.21045684814453" stroke-width="3.0" fill="none" stroke="rgb(2, 2, 2)" stroke-opacity="0.99" stroke-linecap="round" stroke-linejoin="round"/>
    <path d="M 120.00066375732422 42.99980163574219 C 122.25215911865234 39.36115264892578 121.4798583984375 42.90878677368164 115.23057556152344 43.65592575073242" stroke-width="3.0" fill="none" stroke="rgb(2, 2, 2)" stroke-opacity="0.99000007" stroke-linecap="round" stroke-linejoin="round"/>
    <path d="M 80.00020599365234 90.00032806396484 C 81.40626525878906 95.11378479003906 83.6748046875 93.66769409179688 83.7486572265625 90.06986236572266" stroke-width="3.0" fill="none" stroke="rgb(2, 2, 2)" stroke-opacity="0.99000007" stroke-linecap="round" stroke-linejoin="round"/>
    <path d="M 215.99989318847656 47.00008773803711 C 213.86334228515625 46.38547897338867 210.8624725341797 48.76409149169922 213.48904418945312 46.627079010009766" stroke-width="3.0" fill="none" stroke="rgb(2, 2, -2)" stroke-opacity="0.9900001" stroke-linecap="round" stroke-linejoin="round"/>
    <path d="M 157.0001678466797 20.999876022338867 C 154.88084411621094 18.059856414794922 150.22593688964844 19.083139419555664 155.66029357910156 21.775514602661133" stroke-width="3.0" fill="none" stroke="rgb(2, 2, 2)" stroke-opacity="0.99000007" stroke-linecap="round" stroke-linejoin="round"/>
    <path d="M 128.99984741210938 168.99949645996094 C 134.35365295410156 166.60690307617188 139.04310607910156 168.86529541015625 141.7494659423828 172.43228149414062" stroke-width="3.0" fill="none" stroke="rgb(2, 2, 2)" stroke-opacity="0.99000007" stroke-linecap="round" stroke-linejoin="round"/>
    <path d="M 169.00064086914062 39.00008010864258 C 165.89183044433594 37.52916717529297 161.2171173095703 39.67596435546875 160.67283630371094 38.765159606933594" stroke-width="3.0" fill="none" stroke="rgb(2, 2, 2)" stroke-opacity="0.99000007" stroke-linecap="round" stroke-linejoin="round"/>
    <path d="M 180.99993896484375 208.9999237060547 C 175.57977294921875 213.5863800048828 177.97634887695312 214.3606414794922 176.24586486816406 210.8818817138672" stroke-width="3.0" fill="none" stroke="rgb(2, 2, 2)" stroke-opacity="0.99000007" stroke-linecap="round" stroke-linejoin="round"/>
    <path d="M 117.00025177001953 154.99778747558594 C 118.72008514404297 153.92111206054688 123.17886352539062 157.81805419921875 128.45953369140625 160.80113220214844" stroke-width="3.0" fill="none" stroke="rgb(2, 2, 2)" stroke-opacity="0.99000007" stroke-linecap="round" stroke-linejoin="round"/>
    <path d="M 87.00050354003906 56.999900817871094 C 85.2338638305664 58.73768997192383 77.85143280029297 58.542884826660156 76.57555389404297 55.586875915527344" stroke-width="3.0" fill="none" stroke="rgb(2, 2, -2)" stroke-opacity="0.99" stroke-linecap="round" stroke-linejoin="round"/>
    <path d="M 138.01901245117188 66.99769592285156 C 136.3312530517578 64.96188354492188 140.44540405273438 69.67862701416016 145.7949981689453 64.36561584472656" stroke-width="3.0" fill="none" stroke="rgb(2, 2, -2)" stroke-opacity="0.9900001" stroke-linecap="round" stroke-linejoin="round"/>
    <path d="M 89.0003662109375 106.99987030029297 C 88.71307373046875 109.77854919433594 94.07862091064453 111.6435546875 93.79264831542969 111.68990325927734" stroke-width="3.0" fill="none" stroke="rgb(2, 2, 2)" stroke-opacity="0.99" stroke-linecap="round" stroke-linejoin="round"/>
    <path d="M 192.0013885498047 105.99900817871094 C 191.06979370117188 99.17774200439453 192.7437286376953 100.38113403320312 192.58653259277344 106.67450714111328" stroke-width="3.0" fill="none" stroke="rgb(2, 2, 2)" stroke-opacity="0.9900001" stroke-linecap="round" stroke-linejoin="round"/>
    <path d="M 74.99957275390625 74.01713562011719 C 74.9404296875 74.40789031982422 73.39207458496094 71.55026245117188 74.15238952636719 71.89636993408203" stroke-width="3.0" fill="none" stroke="rgb(2, 2, 2)" stroke-opacity="0.9900001" stroke-linecap="round" stroke-linejoin="round"/>
    <path d="M 171.00039672851562 30.000028610229492 C 167.8649139404297 25.804475784301758 162.47030639648438 31.07120704650879 164.16075134277344 29.88265609741211" stroke-width="3.0" fill="none" stroke="rgb(2, 2, 2)" stroke-opacity="0.99000007" stroke-linecap="round" stroke-linejoin="round"/>
    <path d="M 223.99993896484375 10.000128746032715 C 221.35800170898438 5.355068206787109 218.6602325439453 1.948150873184204 222.46885681152344 1.4935978651046753" stroke-width="3.0" fill="none" stroke="rgb(2, 2, 2)" stroke-opacity="0.99000007" stroke-linecap="round" stroke-linejoin="round"/>
    <path d="M 90.99969482421875 23.999942779541016 C 93.92359161376953 21.396141052246094 95.96019744873047 26.926584243774414 94.3142318725586 25.794382095336914" stroke-width="3.0" fill="none" stroke="rgb(2, 2, 2)" stroke-opacity="0.99000007" stroke-linecap="round" stroke-linejoin="round"/>
    <path d="M 36.000091552734375 46.999610900878906 C 31.744367599487305 46.05214309692383 30.95149040222168 46.37379837036133 31.264955520629883 49.960731506347656" stroke-width="3.0" fill="none" stroke="rgb(2, 2, -2)" stroke-opacity="0.99000007" stroke-linecap="round" stroke-linejoin="round"/>
    <path d="M 191.00010681152344 132.9999237060547 C 185.96597290039062 134.41690063476562 181.9808807373047 138.53207397460938 179.16139221191406 136.8740692138672" stroke-width="3.0" fill="none" stroke="rgb(2, 2, 2)" stroke-opacity="0.99" stroke-linecap="round" stroke-linejoin="round"/>
    <path d="M 114.99961853027344 76.0007553100586 C 112.11480712890625 72.58983612060547 110.43075561523438 69.41348266601562 115.143310546875 69.97869110107422" stroke-width="3.0" fill="none" stroke="rgb(2, 2, -2)" stroke-opacity="0.99000007" stroke-linecap="round" stroke-linejoin="round"/>
    <path d="M 204.99932861328125 139.9999237060547 C 205.9096221923828 138.90997314453125 204.9463348388672 141.47203063964844 206.78843688964844 146.56622314453125" stroke-width="3.0" fill="none" stroke="rgb(2, 2, 2)" stroke-opacity="0.99000007" stroke-linecap="round" stroke-linejoin="round"/>
    <path d="M 78.00304412841797 186.00006103515625 C 79.57946014404297 181.12921142578125 78.96322631835938 179.35508728027344 83.89470672607422 182.84780883789062" stroke-width="3.0" fill="none" stroke="rgb(2, 2, 2)" stroke-opacity="0.99" stroke-linecap="round" stroke-linejoin="round"/>
    <path d="M 114.00012969970703 143.00106811523438 C 113.09024047851562 147.7967529296875 118.01666259765625 151.61729431152344 119.05661010742188 150.65579223632812" stroke-width="3.0" fill="none" stroke="rgb(2, 2, 2)" stroke-opacity="0.99000007" stroke-linecap="round" stroke-linejoin="round"/>
    <path d="M 65.99952697753906 120.99988555908203 C 70.63850402832031 123.79281616210938 67.35034942626953 120.32256317138672 71.51276397705078 120.07027435302734" stroke-width="3.0" fill="none" stroke="rgb(2, 2, 2)" stroke-opacity="0.99" stroke-linecap="round" stroke-linejoin="round"/>
    <path d="M 118.00090026855469 107.00020599365234 C 113.45993041992188 106.64212799072266 111.67021942138672 104.17084503173828 113.51512908935547 103.79566192626953" stroke-width="3.0" fill="none" stroke="rgb(2, 2, -2)" stroke-opacity="0.99000007" stroke-linecap="round" stroke-linejoin="round"/>
    <path d="M 78.99937438964844 69.9997787475586 C 77.97181701660156 66.20682525634766 73.31922149658203 70.19601440429688 70.8275146484375 71.09740447998047" stroke-width="3.0" fill="none" stroke="rgb(2, 2, 2)" stroke-opacity="0.99000007" stroke-linecap="round" stroke-linejoin="round"/>
    <path d="M 156.00021362304688 107.99981689453125 C 155.07460021972656 110.60954284667969 159.5238037109375 111.69395446777344 159.9264678955078 111.01651000976562" stroke-width="3.0" fill="none" stroke="rgb(2, 2, -2)" stroke-opacity="0.99000007" stroke-linecap="round" stroke-linejoin="round"/>
    <path d="M 73.99730682373047 150.00022888183594 C 74.21508026123047 145.29074096679688 71.48926544189453 148.7483367919922 74.36631774902344 145.0484619140625" stroke-width="3.0" fill="none" stroke="rgb(2, 2, 2)" stroke-opacity="0.99000007" stroke-linecap="round" stroke-linejoin="round"/>
    <path d="M 128.99981689453125 93.96415710449219 C 126.91380310058594 91.04386138916016 132.4281005859375 91.82061004638672 129.76881408691406 87.42500305175781" stroke-width="3.0" fill="none" stroke="rgb(2, 2, 2)" stroke-opacity="0.99000007" stroke-linecap="round" stroke-linejoin="round"/>
    <path d="M 183.00010681152344 190.9998779296875 C 189.4119415283203 195.09967041015625 191.57888793945312 190.9075164794922 192.34426879882812 189.43707275390625" stroke-width="3.0" fill="none" stroke="rgb(2, 2, 2)" stroke-opacity="0.99000007" stroke-linecap="round" stroke-linejoin="round"/>
    <path d="M 111.99984741210938 78.00013732910156 C 107.35724639892578 74.14389038085938 107.37538146972656 70.19450378417969 103.1731185913086 66.68124389648438" stroke-width="3.0" fill="none" stroke="rgb(2, 2, -2)" stroke-opacity="0.99000007" stroke-linecap="round" stroke-linejoin="round"/>
    <path d="M 179.00006103515625 67.99995422363281 C 183.59422302246094 70.91728973388672 187.70343017578125 75.12284088134766 193.28231811523438 74.62419891357422" stroke-width="3.0" fill="none" stroke="rgb(2, 2, 2)" stroke-opacity="0.99" stroke-linecap="round" stroke-linejoin="round"/>
    <path d="M 57.000755310058594 73.00004577636719 C 56.638336181640625 74.91957092285156 53.30278396606445 71.66419219970703 55.94540023803711 67.75626373291016" stroke-width="3.0" fill="none" stroke="rgb(2, 2, 2)" stroke-opacity="0.99" stroke-linecap="round" stroke-linejoin="round"/>
    <path d="M 128.00022888183594 110.00025177001953 C 133.1160430908203 109.23002624511719 128.01263427734375 103.95880126953125 124.6597900390625 103.4771499633789" stroke-width="3.0" fill="none" stroke="rgb(2, 2, -2)" stroke-opacity="0.99" stroke-linecap="round" stroke-linejoin="round"/>
    <path d="M 128.9998016357422 192.99977111816406 C 129.2213134765625 196.22035217285156 128.44577026367188 195.1029052734375 128.87828063964844 195.55630493164062" stroke-width="3.0" fill="none" stroke="rgb(2, 2, 2)" stroke-opacity="0.99000007" stroke-linecap="round" stroke-linejoin="round"/>
    <path d="M 75.00004577636719 161.00006103515625 C 72.04024505615234 163.13661193847656 67.30084228515625 166.81443786621094 70.36339569091797 165.90968322753906" stroke-width="3.0" fill="none" stroke="rgb(2, 2, 2)" stroke-opacity="0.99000007" stroke-linecap="round" stroke-linejoin="round"/>
    <path d="M 115.00005340576172 75.99982452392578 C 109.5919418334961 79.543212890625 109.37837982177734 76.7848892211914 111.42100524902344 77.0311508178711" stroke-width="3.0" fill="none" stroke="rgb(2, 2, 2)" stroke-opacity="0.99000025" stroke-linecap="round" stroke-linejoin="round"/>
    <path d="M 202.9998321533203 56.00019454956055 C 204.28623962402344 57.05227279663086 203.47344970703125 53.730621337890625 204.18572998046875 59.07987976074219" stroke-width="3.0" fill="none" stroke="rgb(2, 2, -2)" stroke-opacity="0.99000007" stroke-linecap="round" stroke-linejoin="round"/>
    <path d="M 174.99949645996094 216.00022888183594 C 172.9735107421875 215.61508178710938 175.7154083251953 212.93394470214844 180.68087768554688 211.74400329589844" stroke-width="3.0" fill="none" stroke="rgb(2, 2, 2)" stroke-opacity="0.99000007" stroke-linecap="round" stroke-linejoin="round"/>
    <path d="M 60.00006866455078 31.000337600708008 C 58.3345832824707 27.673736572265625 56.58305740356445 30.733232498168945 59.71220016479492 27.636619567871094" stroke-width="3.0" fill="none" stroke="rgb(2, 2, 2)" stroke-opacity="0.99" stroke-linecap="round" stroke-linejoin="round"/>
    <path d="M 183.00006103515625 201.00067138671875 C 184.66651916503906 204.59188842773438 180.404052734375 206.1241912841797 185.28204345703125 206.42494201660156" stroke-width="3.0" fill="none" stroke="rgb(2, 2, 2)" stroke-opacity="0.99000007" stroke-linecap="round" stroke-linejoin="round"/>
    <path d="M 113.00021362304688 106.99976348876953 C 118.365234375 106.69351959228516 113.28108215332031 109.64373016357422 117.60578155517578 108.2347412109375" stroke-width="3.0" fill="none" stroke="rgb(2, 2, -2)" stroke-opacity="0.9900002" stroke-linecap="round" stroke-linejoin="round"/>
    <path d="M 157.0000762939453 100.99994659423828 C 163.73379516601562 103.16094970703125 158.24310302734375 104.31761932373047 154.1163787841797 104.53192901611328" stroke-width="3.0" fill="none" stroke="rgb(2, 2, -2)" stroke-opacity="0.99000007" stroke-linecap="round" stroke-linejoin="round"/>
    <path d="M 181.99993896484375 94.99983215332031 C 183.8486785888672 91.95550537109375 185.2875213623047 97.49952697753906 183.44869995117188 98.56151580810547" stroke-width="3.0" fill="none" stroke="rgb(2, 2, -2)" stroke-opacity="0.99000007" stroke-linecap="round" stroke-linejoin="round"/>
    <path d="M 70.00092315673828 90.0020980834961 C 74.99498748779297 90.33951568603516 78.98025512695312 92.51610565185547 80.34043884277344 96.26932525634766" stroke-width="3.0" fill="none" stroke="rgb(2, 2, 2)" stroke-opacity="0.99" stroke-linecap="round" stroke-linejoin="round"/>
    <path d="M 143.00086975097656 205.9999237060547 C 144.6296844482422 211.52552795410156 147.1518096923828 206.8547821044922 143.14910888671875 208.59458923339844" stroke-width="3.0" fill="none" stroke="rgb(2, 2, -2)" stroke-opacity="0.99000007" stroke-linecap="round" stroke-linejoin="round"/>
    <path d="M 170.00006103515625 25.000436782836914 C 174.1785430908203 26.679841995239258 174.08274841308594 26.559547424316406 171.64089965820312 22.83064842224121" stroke-width="3.0" fill="none" stroke="rgb(2, 2, 2)" stroke-opacity="0.99000007" stroke-linecap="round" stroke-linejoin="round"/>
    <path d="M 222.99281311035156 24.999324798583984 C 226.6016082763672 25.082801818847656 225.11129760742188 24.07624053955078 221.87168884277344 23.374027252197266" stroke-width="3.0" fill="none" stroke="rgb(2, 2, 2)" stroke-opacity="0.9900001" stroke-linecap="round" stroke-linejoin="round"/>
    <path d="M 152.00006103515625 76.99967193603516 C 151.27841186523438 73.4181900024414 152.6558380126953 67.92278289794922 153.89431762695312 70.562255859375" stroke-width="3.0" fill="none" stroke="rgb(2, 2, 2)" stroke-opacity="0.9900001" stroke-linecap="round" stroke-linejoin="round"/>
    <path d="M 163.0013427734375 70.99993896484375 C 158.72569274902344 71.3331298828125 156.58114624023438 72.84132385253906 160.42884826660156 73.30040740966797" stroke-width="3.0" fill="none" stroke="rgb(2, 2, 2)" stroke-opacity="0.99000025" stroke-linecap="round" stroke-linejoin="round"/>
    <path d="M 74.0008316040039 67.99964141845703 C 77.38198852539062 69.00653839111328 82.18765258789062 69.24872589111328 81.50294494628906 70.00263977050781" stroke-width="3.0" fill="none" stroke="rgb(2, 2, -2)" stroke-opacity="0.99000007" stroke-linecap="round" stroke-linejoin="round"/>
    <path d="M 84.9999008178711 28.000547409057617 C 87.73954010009766 27.966299057006836 83.49944305419922 31.013202667236328 85.91712951660156 26.160383224487305" stroke-width="3.0" fill="none" stroke="rgb(2, 2, 2)" stroke-opacity="0.99000007" stroke-linecap="round" stroke-linejoin="round"/>
    <path d="M 152.00045776367188 107.00007629394531 C 150.68565368652344 105.79014587402344 148.22552490234375 101.76939392089844 153.8236083984375 100.80248260498047" stroke-width="3.0" fill="none" stroke="rgb(2, 2, 2)" stroke-opacity="0.99" stroke-linecap="round" stroke-linejoin="round"/>
  </g>
</svg>
