<?xml version="1.0" ?>
<svg xmlns="http://www.w3.org/2000/svg" version="1.1" width="224" height="224">
  <defs/>
  <g>
    <path d="M 92.27714538574219 206.474853515625 C 83.9167251586914 187.97459411621094 98.96600341796875 222.59423828125 46.846622467041016 181.83865356445312" stroke-width="3.0" fill="none" stroke="rgb(1, 0, 0)" stroke-opacity="0.024460675" stroke-linecap="round" stroke-linejoin="round"/>
    <path d="M 109.5833511352539 134.1418914794922 C 139.78378295898438 110.24261474609375 84.40478515625 114.73303985595703 118.9139404296875 147.2861328125" stroke-width="3.0" fill="none" stroke="rgb(-1, -2, 2)" stroke-opacity="0.22420388" stroke-linecap="round" stroke-linejoin="round"/>
    <path d="M 173.37277221679688 76.51053619384766 C 167.65769958496094 106.14563751220703 118.91694641113281 77.83528137207031 162.6881103515625 74.04047393798828" stroke-width="3.0" fill="none" stroke="rgb(-2, -3, 4)" stroke-opacity="0.29031006" stroke-linecap="round" stroke-linejoin="round"/>
    <path d="M 234.30967712402344 62.189674377441406 C 231.13592529296875 56.115234375 228.79261779785156 51.20858383178711 230.82492065429688 57.48341751098633" stroke-width="3.0" fill="none" stroke="rgb(0, 0, 0)" stroke-opacity="0.8711054" stroke-linecap="round" stroke-linejoin="round"/>
    <path d="M 140.32278442382812 136.8441619873047 C 132.82980346679688 149.01177978515625 88.62811279296875 137.62417602539062 200.4990234375 110.73213195800781" stroke-width="3.0" fill="none" stroke="rgb(-3, 2, 2)" stroke-opacity="0.20114957" stroke-linecap="round" stroke-linejoin="round"/>
    <path d="M 166.06568908691406 185.1539306640625 C 175.1661834716797 167.7258758544922 170.0872039794922 99.45921325683594 131.23068237304688 142.5154571533203" stroke-width="3.0" fill="none" stroke="rgb(0, 2, -1)" stroke-opacity="0.038514886" stroke-linecap="round" stroke-linejoin="round"/>
    <path d="M 61.10752487182617 165.6305694580078 C 109.39859771728516 97.3179931640625 78.56744384765625 173.76446533203125 117.86174011230469 160.1083221435547" stroke-width="3.0" fill="none" stroke="rgb(0, 2, -3)" stroke-opacity="0.11632517" stroke-linecap="round" stroke-linejoin="round"/>
    <path d="M 147.92733764648438 123.91868591308594 C 273.3620300292969 150.77772521972656 196.40574645996094 124.91461181640625 216.7407684326172 139.5928192138672" stroke-width="3.0" fill="none" stroke="rgb(3, -3, 4)" stroke-opacity="0.14687212" stroke-linecap="round" stroke-linejoin="round"/>
    <path d="M 137.75079345703125 165.08001708984375 C 109.79875183105469 121.48474884033203 146.46824645996094 166.13905334472656 121.61588287353516 132.56578063964844" stroke-width="3.0" fill="none" stroke="rgb(1, -1, 1)" stroke-opacity="0.41415843" stroke-linecap="round" stroke-linejoin="round"/>
    <path d="M 133.35739135742188 186.1519317626953 C 142.743896484375 175.70797729492188 112.15422058105469 189.72373962402344 153.9300537109375 207.1773223876953" stroke-width="3.0" fill="none" stroke="rgb(-1, 0, 0)" stroke-opacity="0.038625" stroke-linecap="round" stroke-linejoin="round"/>
    <path d="M 127.41352081298828 35.53255844116211 C 159.51559448242188 44.08964157104492 39.4360237121582 46.2635612487793 116.41496276855469 52.73950958251953" stroke-width="3.0" fill="none" stroke="rgb(-2, 2, -1)" stroke-opacity="0.08353432" stroke-linecap="round" stroke-linejoin="round"/>
    <path d="M 39.61852264404297 166.30247497558594 C 50.148990631103516 181.48208618164062 28.594051361083984 228.58099365234375 40.51399230957031 178.38623046875" stroke-width="3.0" fill="none" stroke="rgb(2, 0, -2)" stroke-opacity="0.08685773" stroke-linecap="round" stroke-linejoin="round"/>
    <path d="M 125.41691589355469 231.67950439453125 C 69.95608520507812 198.09774780273438 6.786230087280273 233.519287109375 118.20381927490234 219.8047332763672" stroke-width="3.0" fill="none" stroke="rgb(-3, 2, 2)" stroke-opacity="0.06528664" stroke-linecap="round" stroke-linejoin="round"/>
    <path d="M 187.7062530517578 211.0237579345703 C 193.8997039794922 185.44393920898438 205.0128936767578 99.09214782714844 184.61843872070312 211.70840454101562" stroke-width="3.0" fill="none" stroke="rgb(2, 0, -3)" stroke-opacity="0.04866443" stroke-linecap="round" stroke-linejoin="round"/>
    <path d="M 123.80352020263672 85.1884994506836 C 104.53291320800781 111.33103942871094 69.05513000488281 82.19410705566406 103.92660522460938 73.255615234375" stroke-width="3.0" fill="none" stroke="rgb(0, 1, -2)" stroke-opacity="0.27463695" stroke-linecap="round" stroke-linejoin="round"/>
    <path d="M 127.56954193115234 85.07926177978516 C 128.07984924316406 40.248722076416016 105.444580078125 92.93290710449219 152.79629516601562 56.543888092041016" stroke-width="3.0" fill="none" stroke="rgb(0, 2, -3)" stroke-opacity="0.12758759" stroke-linecap="round" stroke-linejoin="round"/>
    <path d="M -4.47635555267334 -9.353033065795898 C -11.947755813598633 -5.127041816711426 -8.229575157165527 -4.48017692565918 2.248188018798828 -9.087686538696289" stroke-width="3.0" fill="none" stroke="rgb(0, 0, 0)" stroke-opacity="0.85485804" stroke-linecap="round" stroke-linejoin="round"/>
    <path d="M 143.12477111816406 55.55396270751953 C 129.5067901611328 85.3372802734375 105.53169250488281 28.116024017333984 155.1457977294922 109.5659408569336" stroke-width="3.0" fill="none" stroke="rgb(-2, 2, -3)" stroke-opacity="0.0756197" stroke-linecap="round" stroke-linejoin="round"/>
    <path d="M 112.5313491821289 54.15031433105469 C 98.498046875 29.846073150634766 73.06485748291016 32.92866134643555 97.17697143554688 42.819210052490234" stroke-width="3.0" fill="none" stroke="rgb(-1, 2, -4)" stroke-opacity="0.095798686" stroke-linecap="round" stroke-linejoin="round"/>
    <path d="M 178.84991455078125 96.91045379638672 C 215.31056213378906 94.60973358154297 203.9165496826172 69.73876953125 233.5399932861328 59.47391891479492" stroke-width="3.0" fill="none" stroke="rgb(-2, 2, -2)" stroke-opacity="0.15197743" stroke-linecap="round" stroke-linejoin="round"/>
    <path d="M 115.0649642944336 123.14845275878906 C 163.77064514160156 133.67666625976562 80.74771118164062 102.95276641845703 143.15394592285156 131.85423278808594" stroke-width="3.0" fill="none" stroke="rgb(0, -3, 2)" stroke-opacity="0.21773382" stroke-linecap="round" stroke-linejoin="round"/>
    <path d="M 177.3208770751953 79.65695190429688 C 157.1887664794922 36.461326599121094 134.1124725341797 79.96245574951172 143.07949829101562 65.78727722167969" stroke-width="3.0" fill="none" stroke="rgb(0, 2, -3)" stroke-opacity="0.2830412" stroke-linecap="round" stroke-linejoin="round"/>
    <path d="M 93.59532165527344 83.83855438232422 C 169.3181915283203 82.60045623779297 55.933380126953125 74.8604507446289 102.9073715209961 88.12425231933594" stroke-width="3.0" fill="none" stroke="rgb(2, -3, 2)" stroke-opacity="0.4639946" stroke-linecap="round" stroke-linejoin="round"/>
    <path d="M 46.141178131103516 194.94029235839844 C 57.68692398071289 175.70718383789062 16.075040817260742 209.94549560546875 62.50374221801758 212.68817138671875" stroke-width="3.0" fill="none" stroke="rgb(-2, 2, 0)" stroke-opacity="0.065141015" stroke-linecap="round" stroke-linejoin="round"/>
    <path d="M 112.0449447631836 5.422316074371338 C 134.04502868652344 6.067693710327148 126.34606170654297 9.301112174987793 76.1041259765625 4.0981526374816895" stroke-width="3.0" fill="none" stroke="rgb(0, 0, 0)" stroke-opacity="0.0059168483" stroke-linecap="round" stroke-linejoin="round"/>
    <path d="M 70.88289642333984 46.32212829589844 C 9.120285987854004 36.47410583496094 53.06840896606445 37.379241943359375 3.667001962661743 34.577640533447266" stroke-width="3.0" fill="none" stroke="rgb(-2, 2, -2)" stroke-opacity="0.10712661" stroke-linecap="round" stroke-linejoin="round"/>
    <path d="M 195.11151123046875 81.50911712646484 C 158.50660705566406 87.57032012939453 191.15725708007812 127.49765014648438 175.27130126953125 60.33941650390625" stroke-width="3.0" fill="none" stroke="rgb(-1, 3, -2)" stroke-opacity="0.14001954" stroke-linecap="round" stroke-linejoin="round"/>
    <path d="M 134.48294067382812 169.41448974609375 C 135.8508758544922 191.3567657470703 152.59005737304688 158.92578125 132.3048858642578 175.46849060058594" stroke-width="3.0" fill="none" stroke="rgb(-4, 1, 3)" stroke-opacity="0.27594495" stroke-linecap="round" stroke-linejoin="round"/>
    <path d="M 111.18634033203125 61.94253158569336 C 143.6800537109375 92.67481994628906 96.72623443603516 90.15686798095703 100.86942291259766 76.442626953125" stroke-width="3.0" fill="none" stroke="rgb(0, 0, 1)" stroke-opacity="0.3211724" stroke-linecap="round" stroke-linejoin="round"/>
    <path d="M 118.46743774414062 28.47433853149414 C 94.88429260253906 17.134960174560547 45.566162109375 72.94461822509766 95.84956359863281 29.411630630493164" stroke-width="3.0" fill="none" stroke="rgb(-2, 0, 2)" stroke-opacity="0.10288724" stroke-linecap="round" stroke-linejoin="round"/>
    <path d="M 143.0014190673828 143.20965576171875 C 133.8878936767578 134.71832275390625 119.29108428955078 165.22703552246094 141.4428253173828 142.02603149414062" stroke-width="3.0" fill="none" stroke="rgb(2, -2, -1)" stroke-opacity="0.3333209" stroke-linecap="round" stroke-linejoin="round"/>
    <path d="M 42.235591888427734 173.8299102783203 C 31.720258712768555 237.3397674560547 33.936283111572266 159.6479034423828 44.93932342529297 186.61561584472656" stroke-width="3.0" fill="none" stroke="rgb(2, 0, -3)" stroke-opacity="0.10410176" stroke-linecap="round" stroke-linejoin="round"/>
    <path d="M 230.90594482421875 23.682750701904297 C 230.7325897216797 21.26726722717285 234.54876708984375 18.732112884521484 229.9917449951172 18.96004867553711" stroke-width="3.0" fill="none" stroke="rgb(0, 0, 0)" stroke-opacity="0.7700327" stroke-linecap="round" stroke-linejoin="round"/>
    <path d="M -1.8201476335525513 40.50082015991211 C 29.79038429260254 60.80325698852539 39.12570571899414 79.57212829589844 -5.149026393890381 39.530330657958984" stroke-width="3.0" fill="none" stroke="rgb(-1, 2, -2)" stroke-opacity="0.09474524" stroke-linecap="round" stroke-linejoin="round"/>
    <path d="M 108.50727081298828 59.14726638793945 C 148.7878875732422 120.59998321533203 110.37332153320312 25.779085159301758 85.7371826171875 65.6762924194336" stroke-width="3.0" fill="none" stroke="rgb(0, 1, -2)" stroke-opacity="0.11423121" stroke-linecap="round" stroke-linejoin="round"/>
    <path d="M 83.23103332519531 56.82700729370117 C 34.92184066772461 108.6131591796875 42.42463684082031 53.113704681396484 83.92845153808594 88.80541229248047" stroke-width="3.0" fill="none" stroke="rgb(1, -1, 1)" stroke-opacity="0.072515324" stroke-linecap="round" stroke-linejoin="round"/>
    <path d="M 199.14244079589844 79.23487091064453 C 216.7357940673828 48.12968063354492 172.6909637451172 112.32592010498047 204.75587463378906 52.328147888183594" stroke-width="3.0" fill="none" stroke="rgb(1, 1, -3)" stroke-opacity="0.045536652" stroke-linecap="round" stroke-linejoin="round"/>
    <path d="M 231.38145446777344 85.41350555419922 C 231.7012176513672 88.51834869384766 231.1997833251953 93.51126861572266 232.64332580566406 82.58342742919922" stroke-width="3.0" fill="none" stroke="rgb(0, 0, 0)" stroke-opacity="0.82852435" stroke-linecap="round" stroke-linejoin="round"/>
    <path d="M 117.5442886352539 106.83686828613281 C 120.14262390136719 105.01115417480469 150.6053924560547 102.16521453857422 152.09153747558594 107.38048553466797" stroke-width="3.0" fill="none" stroke="rgb(2, -2, -1)" stroke-opacity="0.20902075" stroke-linecap="round" stroke-linejoin="round"/>
    <path d="M 117.72776794433594 35.94858932495117 C 139.39390563964844 78.69952392578125 122.48170471191406 114.67729949951172 137.80233764648438 36.985408782958984" stroke-width="3.0" fill="none" stroke="rgb(-3, 3, -3)" stroke-opacity="0.124817796" stroke-linecap="round" stroke-linejoin="round"/>
    <path d="M 124.77454376220703 127.32848358154297 C 163.80308532714844 118.34161376953125 162.3539581298828 206.8917694091797 136.5821075439453 188.05662536621094" stroke-width="3.0" fill="none" stroke="rgb(-2, 2, 1)" stroke-opacity="0.07526074" stroke-linecap="round" stroke-linejoin="round"/>
    <path d="M 119.84381866455078 80.05815124511719 C 79.97872924804688 52.43710708618164 106.8216323852539 110.31753540039062 111.20870208740234 76.16492462158203" stroke-width="3.0" fill="none" stroke="rgb(1, -2, 3)" stroke-opacity="0.56834257" stroke-linecap="round" stroke-linejoin="round"/>
    <path d="M 19.18153190612793 58.983787536621094 C 31.219409942626953 87.96826171875 54.82801818847656 89.62501525878906 31.27048683166504 69.66654968261719" stroke-width="3.0" fill="none" stroke="rgb(-2, 2, -2)" stroke-opacity="0.06742912" stroke-linecap="round" stroke-linejoin="round"/>
    <path d="M 72.59664916992188 66.19436645507812 C 61.84186935424805 64.04875946044922 60.55975341796875 63.5031623840332 65.66475677490234 66.072998046875" stroke-width="3.0" fill="none" stroke="rgb(1, -1, 0)" stroke-opacity="0.23270963" stroke-linecap="round" stroke-linejoin="round"/>
    <path d="M 169.91253662109375 54.733768463134766 C 110.28921508789062 16.399320602416992 159.1990203857422 78.40499114990234 102.1067123413086 34.4218864440918" stroke-width="3.0" fill="none" stroke="rgb(-3, 2, -2)" stroke-opacity="0.08664054" stroke-linecap="round" stroke-linejoin="round"/>
    <path d="M 111.90695190429688 118.94762420654297 C -12.285633087158203 100.0098648071289 128.0950164794922 97.06324768066406 60.89064025878906 104.98194885253906" stroke-width="3.0" fill="none" stroke="rgb(3, -2, 1)" stroke-opacity="0.103115276" stroke-linecap="round" stroke-linejoin="round"/>
    <path d="M 231.66603088378906 43.57929229736328 C 222.5981903076172 50.141639709472656 225.80934143066406 55.647918701171875 230.91587829589844 51.36970520019531" stroke-width="3.0" fill="none" stroke="rgb(0, 0, 0)" stroke-opacity="0.29039225" stroke-linecap="round" stroke-linejoin="round"/>
    <path d="M 128.7332305908203 27.3056697845459 C 169.40003967285156 23.761323928833008 73.7119369506836 18.017793655395508 150.6027069091797 26.57455825805664" stroke-width="3.0" fill="none" stroke="rgb(1, 0, 1)" stroke-opacity="0.15524428" stroke-linecap="round" stroke-linejoin="round"/>
    <path d="M 142.5467529296875 176.9232940673828 C 139.56431579589844 128.37489318847656 153.1759033203125 208.97254943847656 123.86091613769531 123.62152862548828" stroke-width="3.0" fill="none" stroke="rgb(1, 0, 0)" stroke-opacity="0.10893367" stroke-linecap="round" stroke-linejoin="round"/>
    <path d="M 192.44332885742188 81.81704711914062 C 127.85994720458984 11.22933292388916 204.69952392578125 41.82886505126953 148.0772247314453 52.41910171508789" stroke-width="3.0" fill="none" stroke="rgb(-1, 1, 0)" stroke-opacity="0.08572154" stroke-linecap="round" stroke-linejoin="round"/>
    <path d="M 174.6118621826172 223.3284149169922 C 183.22918701171875 27.10841178894043 219.77247619628906 243.19700622558594 119.45619201660156 220.76727294921875" stroke-width="3.0" fill="none" stroke="rgb(-3, 2, 1)" stroke-opacity="0.0337638" stroke-linecap="round" stroke-linejoin="round"/>
    <path d="M 105.31063079833984 137.29588317871094 C 111.27863311767578 126.72770690917969 135.87448120117188 192.4499053955078 140.42825317382812 179.406005859375" stroke-width="3.0" fill="none" stroke="rgb(-1, 2, 0)" stroke-opacity="0.22442918" stroke-linecap="round" stroke-linejoin="round"/>
    <path d="M 47.26301193237305 52.45418167114258 C 112.43218994140625 63.55660629272461 9.399480819702148 89.22666931152344 65.10322570800781 51.886905670166016" stroke-width="3.0" fill="none" stroke="rgb(0, 0, -2)" stroke-opacity="0.04059866" stroke-linecap="round" stroke-linejoin="round"/>
    <path d="M 169.23468017578125 79.33584594726562 C 132.02532958984375 84.9177474975586 134.15048217773438 81.27911376953125 148.0290985107422 50.248260498046875" stroke-width="3.0" fill="none" stroke="rgb(1, 0, -2)" stroke-opacity="0.19712383" stroke-linecap="round" stroke-linejoin="round"/>
    <path d="M 108.35989379882812 131.20034790039062 C 110.84053802490234 133.07705688476562 98.66427612304688 117.65316009521484 111.37884521484375 130.05162048339844" stroke-width="3.0" fill="none" stroke="rgb(-1, -1, 2)" stroke-opacity="0.44106677" stroke-linecap="round" stroke-linejoin="round"/>
    <path d="M 195.7960968017578 108.89395141601562 C 148.29782104492188 97.36426544189453 196.65158081054688 93.39998626708984 193.97265625 110.38716888427734" stroke-width="3.0" fill="none" stroke="rgb(-1, -1, 2)" stroke-opacity="0.109589756" stroke-linecap="round" stroke-linejoin="round"/>
    <path d="M 78.68045806884766 65.98368835449219 C 75.37185668945312 114.61607360839844 94.20174407958984 43.62159729003906 79.39302825927734 79.302001953125" stroke-width="3.0" fill="none" stroke="rgb(-2, 2, 0)" stroke-opacity="0.12280184" stroke-linecap="round" stroke-linejoin="round"/>
    <path d="M 177.34764099121094 45.99974060058594 C 124.23123168945312 11.90482234954834 132.5487060546875 30.868696212768555 162.75894165039062 33.47393035888672" stroke-width="3.0" fill="none" stroke="rgb(-1, -1, 2)" stroke-opacity="0.099180944" stroke-linecap="round" stroke-linejoin="round"/>
    <path d="M 232.90737915039062 1.4469833374023438 C 230.80601501464844 -4.904629230499268 226.98814392089844 -7.9982476234436035 229.5257568359375 7.3246684074401855" stroke-width="3.0" fill="none" stroke="rgb(0, 0, 0)" stroke-opacity="0.89578617" stroke-linecap="round" stroke-linejoin="round"/>
    <path d="M 124.12586212158203 26.82457733154297 C 92.9864273071289 15.98526668548584 110.1951675415039 37.25226974487305 105.82832336425781 29.488237380981445" stroke-width="3.0" fill="none" stroke="rgb(-1, 0, 1)" stroke-opacity="0.10135424" stroke-linecap="round" stroke-linejoin="round"/>
    <path d="M -10.057146072387695 28.199697494506836 C 7.514863967895508 53.82263946533203 8.935591697692871 28.618459701538086 70.87496948242188 64.89751434326172" stroke-width="3.0" fill="none" stroke="rgb(0, 2, -2)" stroke-opacity="0.172176" stroke-linecap="round" stroke-linejoin="round"/>
    <path d="M 204.328857421875 154.2086944580078 C 208.6569366455078 131.51954650878906 134.09727478027344 120.15398406982422 209.80503845214844 132.97352600097656" stroke-width="3.0" fill="none" stroke="rgb(-1, 0, 2)" stroke-opacity="0.12730238" stroke-linecap="round" stroke-linejoin="round"/>
    <path d="M 99.0649185180664 82.88616943359375 C 142.56817626953125 105.22343444824219 97.53789520263672 22.577302932739258 129.11866760253906 83.12484741210938" stroke-width="3.0" fill="none" stroke="rgb(2, -3, 0)" stroke-opacity="0.13531676" stroke-linecap="round" stroke-linejoin="round"/>
    <path d="M 182.3887939453125 133.88351440429688 C 262.19580078125 147.3701171875 162.99722290039062 139.5420684814453 210.9398193359375 138.52806091308594" stroke-width="3.0" fill="none" stroke="rgb(-1, -1, 4)" stroke-opacity="0.19268903" stroke-linecap="round" stroke-linejoin="round"/>
    <path d="M 99.4645004272461 167.31088256835938 C 79.47378540039062 232.6181640625 110.62370300292969 199.4585723876953 103.5633773803711 167.2410125732422" stroke-width="3.0" fill="none" stroke="rgb(-1, 0, 3)" stroke-opacity="0.03359433" stroke-linecap="round" stroke-linejoin="round"/>
    <path d="M 101.09783935546875 139.86080932617188 C 128.94883728027344 182.27114868164062 104.85527038574219 147.55039978027344 121.60296630859375 147.66665649414062" stroke-width="3.0" fill="none" stroke="rgb(2, 3, -3)" stroke-opacity="0.2681165" stroke-linecap="round" stroke-linejoin="round"/>
    <path d="M 39.47660827636719 163.61129760742188 C 9.00439167022705 112.26184844970703 130.81961059570312 121.32192993164062 89.88288879394531 132.61358642578125" stroke-width="3.0" fill="none" stroke="rgb(-2, 2, 1)" stroke-opacity="0.069155686" stroke-linecap="round" stroke-linejoin="round"/>
    <path d="M 124.4758529663086 100.112060546875 C 108.34829711914062 134.52090454101562 40.42365264892578 92.19403076171875 128.82957458496094 120.349853515625" stroke-width="3.0" fill="none" stroke="rgb(1, 0, 0)" stroke-opacity="0.071933806" stroke-linecap="round" stroke-linejoin="round"/>
    <path d="M 66.57796478271484 83.75218963623047 C 34.64297866821289 50.98857879638672 46.84356689453125 110.1493911743164 83.9150619506836 42.42274856567383" stroke-width="3.0" fill="none" stroke="rgb(1, 0, 0)" stroke-opacity="0.049733862" stroke-linecap="round" stroke-linejoin="round"/>
    <path d="M 114.89142608642578 113.36299133300781 C 157.7649383544922 130.52285766601562 155.5635528564453 86.11856079101562 139.67897033691406 109.55459594726562" stroke-width="3.0" fill="none" stroke="rgb(-1, 2, -4)" stroke-opacity="0.063569166" stroke-linecap="round" stroke-linejoin="round"/>
    <path d="M 119.81166076660156 144.95379638671875 C 98.92765808105469 112.31620025634766 77.12083435058594 145.255859375 93.66508483886719 131.38832092285156" stroke-width="3.0" fill="none" stroke="rgb(1, 0, 0)" stroke-opacity="0.16595288" stroke-linecap="round" stroke-linejoin="round"/>
    <path d="M 126.5384521484375 92.02314758300781 C 128.9078369140625 94.57901000976562 136.43093872070312 97.72911834716797 139.15219116210938 91.05810546875" stroke-width="3.0" fill="none" stroke="rgb(2, -1, -2)" stroke-opacity="0.34183416" stroke-linecap="round" stroke-linejoin="round"/>
    <path d="M 181.45843505859375 212.76377868652344 C 187.1925811767578 166.28961181640625 196.84271240234375 220.6649932861328 206.58412170410156 144.28697204589844" stroke-width="3.0" fill="none" stroke="rgb(-2, 1, 2)" stroke-opacity="0.067778364" stroke-linecap="round" stroke-linejoin="round"/>
    <path d="M 95.05416870117188 89.00706481933594 C 140.06829833984375 100.7028579711914 109.75684356689453 34.941925048828125 83.77153015136719 82.21063995361328" stroke-width="3.0" fill="none" stroke="rgb(2, 1, -3)" stroke-opacity="0.21194683" stroke-linecap="round" stroke-linejoin="round"/>
    <path d="M 176.62631225585938 62.19364547729492 C 196.6997528076172 16.853771209716797 162.5802459716797 60.84918975830078 198.20394897460938 80.50531005859375" stroke-width="3.0" fill="none" stroke="rgb(0, 0, 0)" stroke-opacity="0.044010535" stroke-linecap="round" stroke-linejoin="round"/>
    <path d="M 35.50822830200195 80.4001235961914 C 50.906925201416016 105.88616180419922 111.03329467773438 87.08848571777344 52.11145782470703 78.93055725097656" stroke-width="3.0" fill="none" stroke="rgb(-1, 1, -2)" stroke-opacity="0.13985187" stroke-linecap="round" stroke-linejoin="round"/>
    <path d="M 131.84335327148438 108.32911682128906 C 102.7780532836914 58.75636291503906 176.8404998779297 100.99930572509766 121.77926635742188 89.56453704833984" stroke-width="3.0" fill="none" stroke="rgb(0, 2, -2)" stroke-opacity="0.06487836" stroke-linecap="round" stroke-linejoin="round"/>
    <path d="M 143.84991455078125 212.70269775390625 C 115.04753112792969 202.96841430664062 126.28643798828125 198.43728637695312 109.97970581054688 170.70176696777344" stroke-width="3.0" fill="none" stroke="rgb(-2, 0, 2)" stroke-opacity="0.06066057" stroke-linecap="round" stroke-linejoin="round"/>
    <path d="M 91.72932434082031 123.67827606201172 C 40.33534240722656 131.73532104492188 49.36909866333008 238.48861694335938 86.12442779541016 135.46298217773438" stroke-width="3.0" fill="none" stroke="rgb(-1, 1, 1)" stroke-opacity="0.033512145" stroke-linecap="round" stroke-linejoin="round"/>
    <path d="M 125.62142944335938 70.28296661376953 C 86.93236541748047 10.08474349975586 123.98684692382812 61.942955017089844 133.49644470214844 104.70597839355469" stroke-width="3.0" fill="none" stroke="rgb(-1, 3, -3)" stroke-opacity="0.09398986" stroke-linecap="round" stroke-linejoin="round"/>
    <path d="M 245.6276397705078 41.25786209106445 C 175.5029296875 53.50696563720703 200.5695343017578 62.13259506225586 178.1204071044922 63.85588073730469" stroke-width="3.0" fill="none" stroke="rgb(-2, 2, -2)" stroke-opacity="0.23669112" stroke-linecap="round" stroke-linejoin="round"/>
    <path d="M 178.29440307617188 203.17189025878906 C 185.14193725585938 243.7413330078125 122.06604766845703 206.49319458007812 151.37518310546875 226.09146118164062" stroke-width="3.0" fill="none" stroke="rgb(0, 0, 1)" stroke-opacity="0.04680579" stroke-linecap="round" stroke-linejoin="round"/>
    <path d="M 68.9716796875 31.7844181060791 C 60.14154815673828 19.412765502929688 77.65706634521484 34.770263671875 56.08184814453125 21.734403610229492" stroke-width="3.0" fill="none" stroke="rgb(0, 0, 0)" stroke-opacity="0.00529497" stroke-linecap="round" stroke-linejoin="round"/>
    <path d="M 184.82484436035156 205.65892028808594 C 235.42982482910156 214.83433532714844 157.21421813964844 197.73855590820312 195.72410583496094 198.47427368164062" stroke-width="3.0" fill="none" stroke="rgb(0, 0, -1)" stroke-opacity="0.046455722" stroke-linecap="round" stroke-linejoin="round"/>
    <path d="M 125.18952941894531 78.20670318603516 C 124.8498764038086 108.64652252197266 87.75450897216797 133.36839294433594 78.59550476074219 89.12890625" stroke-width="3.0" fill="none" stroke="rgb(-2, 2, 0)" stroke-opacity="0.059246644" stroke-linecap="round" stroke-linejoin="round"/>
    <path d="M 141.66439819335938 99.30953216552734 C 239.56072998046875 139.7119598388672 151.958251953125 105.8472671508789 133.79708862304688 80.86734008789062" stroke-width="3.0" fill="none" stroke="rgb(-2, 2, -2)" stroke-opacity="0.05154772" stroke-linecap="round" stroke-linejoin="round"/>
    <path d="M 210.3860321044922 115.7527084350586 C 209.12449645996094 156.0331573486328 238.46636962890625 60.85161590576172 136.12355041503906 126.42082214355469" stroke-width="3.0" fill="none" stroke="rgb(-2, 0, 2)" stroke-opacity="0.072890684" stroke-linecap="round" stroke-linejoin="round"/>
    <path d="M 39.664058685302734 84.59757232666016 C 176.74636840820312 128.10177612304688 122.85537719726562 183.3332977294922 76.1280288696289 81.28778839111328" stroke-width="3.0" fill="none" stroke="rgb(-1, 2, 0)" stroke-opacity="0.046966877" stroke-linecap="round" stroke-linejoin="round"/>
    <path d="M 139.239501953125 211.41917419433594 C 110.15412902832031 202.5226593017578 101.207275390625 190.1555938720703 142.15411376953125 211.59552001953125" stroke-width="3.0" fill="none" stroke="rgb(-1, -1, 2)" stroke-opacity="0.0379549" stroke-linecap="round" stroke-linejoin="round"/>
    <path d="M 152.49742126464844 36.33104705810547 C 148.7958221435547 14.380646705627441 186.85182189941406 57.05522155761719 103.63683319091797 47.803863525390625" stroke-width="3.0" fill="none" stroke="rgb(-3, 4, -4)" stroke-opacity="0.11136451" stroke-linecap="round" stroke-linejoin="round"/>
    <path d="M 231.47445678710938 19.640472412109375 C 232.7283477783203 27.42324447631836 227.72720336914062 26.830224990844727 228.21298217773438 19.662935256958008" stroke-width="3.0" fill="none" stroke="rgb(0, 0, 0)" stroke-opacity="0.8436873" stroke-linecap="round" stroke-linejoin="round"/>
    <path d="M 162.89529418945312 77.2887191772461 C 139.32015991210938 86.08976745605469 150.8875732421875 55.394752502441406 172.71917724609375 75.13007354736328" stroke-width="3.0" fill="none" stroke="rgb(2, -2, 1)" stroke-opacity="0.6536331" stroke-linecap="round" stroke-linejoin="round"/>
    <path d="M 183.46463012695312 86.71691131591797 C 170.974853515625 1.3923343420028687 182.62747192382812 112.72787475585938 146.18658447265625 75.81214141845703" stroke-width="3.0" fill="none" stroke="rgb(2, -1, 0)" stroke-opacity="0.1052177" stroke-linecap="round" stroke-linejoin="round"/>
    <path d="M 63.30641555786133 73.08345031738281 C 95.54618072509766 39.56822204589844 48.27595520019531 110.20785522460938 109.7170639038086 122.73365020751953" stroke-width="3.0" fill="none" stroke="rgb(1, -3, 3)" stroke-opacity="0.10915793" stroke-linecap="round" stroke-linejoin="round"/>
    <path d="M 88.45310974121094 59.32251739501953 C 67.46817779541016 12.285879135131836 130.9354248046875 78.64093017578125 77.85215759277344 44.02455520629883" stroke-width="3.0" fill="none" stroke="rgb(-1, 2, -2)" stroke-opacity="0.07662888" stroke-linecap="round" stroke-linejoin="round"/>
    <path d="M 150.050048828125 121.3896255493164 C 183.80844116210938 105.9449691772461 180.0443878173828 79.59451293945312 167.8857879638672 109.25946044921875" stroke-width="3.0" fill="none" stroke="rgb(-4, 1, 3)" stroke-opacity="0.1212722" stroke-linecap="round" stroke-linejoin="round"/>
  </g>
</svg>
