<?xml version="1.0" ?>
<svg xmlns="http://www.w3.org/2000/svg" version="1.1" width="224" height="224">
  <defs/>
  <g>
    <path d="M 138.0000762939453 39.00037384033203 C 135.40457153320312 34.78512191772461 132.2677001953125 31.899730682373047 135.3712921142578 37.35270690917969" stroke-width="3.0" fill="none" stroke="rgb(2, 2, -2)" stroke-opacity="0.9900001" stroke-linecap="round" stroke-linejoin="round"/>
    <path d="M 40.00022888183594 163.00030517578125 C 38.51103591918945 160.2215576171875 36.40562057495117 160.9639434814453 39.16987609863281 167.62637329101562" stroke-width="3.0" fill="none" stroke="rgb(2, 2, 2)" stroke-opacity="0.99000007" stroke-linecap="round" stroke-linejoin="round"/>
    <path d="M 142.99981689453125 44.00261688232422 C 145.659423828125 49.022621154785156 148.19918823242188 46.226497650146484 147.87135314941406 47.529029846191406" stroke-width="3.0" fill="none" stroke="rgb(2, 2, -2)" stroke-opacity="0.9900001" stroke-linecap="round" stroke-linejoin="round"/>
    <path d="M 123.00126647949219 90.99987030029297 C 123.44284057617188 89.53252410888672 128.3661346435547 87.105712890625 124.52655029296875 89.08936309814453" stroke-width="3.0" fill="none" stroke="rgb(2, 2, 2)" stroke-opacity="0.99000007" stroke-linecap="round" stroke-linejoin="round"/>
    <path d="M 112.99989318847656 170.9998321533203 C 115.66126251220703 163.82093811035156 118.05509948730469 167.49310302734375 121.65494537353516 167.57742309570312" stroke-width="3.0" fill="none" stroke="rgb(2, 2, 2)" stroke-opacity="0.99000007" stroke-linecap="round" stroke-linejoin="round"/>
    <path d="M 140.9998016357422 86.00006866455078 C 144.68702697753906 87.60029602050781 142.5883331298828 83.0882568359375 138.20468139648438 82.1137924194336" stroke-width="3.0" fill="none" stroke="rgb(2, 2, 2)" stroke-opacity="0.99000007" stroke-linecap="round" stroke-linejoin="round"/>
    <path d="M 107.00006866455078 204.99990844726562 C 106.15826416015625 205.67535400390625 98.58491516113281 210.94869995117188 101.33087921142578 209.5403594970703" stroke-width="3.0" fill="none" stroke="rgb(2, 2, 2)" stroke-opacity="0.99" stroke-linecap="round" stroke-linejoin="round"/>
    <path d="M 148.00015258789062 23.999385833740234 C 147.03134155273438 23.222333908081055 147.09686279296875 21.570297241210938 143.28759765625 26.886337280273438" stroke-width="3.0" fill="none" stroke="rgb(2, 2, -2)" stroke-opacity="0.99000216" stroke-linecap="round" stroke-linejoin="round"/>
    <path d="M 159.9999237060547 1.000369906425476 C 159.08351135253906 4.821269989013672 159.93629455566406 7.619655132293701 162.56285095214844 11.133055686950684" stroke-width="3.0" fill="none" stroke="rgb(2, 2, 2)" stroke-opacity="0.99" stroke-linecap="round" stroke-linejoin="round"/>
    <path d="M 131.9996795654297 144.00038146972656 C 132.72164916992188 149.49693298339844 135.27735900878906 150.98876953125 130.93893432617188 149.21014404296875" stroke-width="3.0" fill="none" stroke="rgb(2, 2, 2)" stroke-opacity="0.99000007" stroke-linecap="round" stroke-linejoin="round"/>
    <path d="M 117.99993896484375 161.00022888183594 C 119.78956604003906 159.3737335205078 124.69386291503906 159.63246154785156 129.3408966064453 158.4183807373047" stroke-width="3.0" fill="none" stroke="rgb(2, 2, 2)" stroke-opacity="0.99000007" stroke-linecap="round" stroke-linejoin="round"/>
    <path d="M 107.00240325927734 17.000192642211914 C 111.96800994873047 16.68647003173828 108.96424102783203 18.726646423339844 105.83379364013672 19.946331024169922" stroke-width="3.0" fill="none" stroke="rgb(2, 2, 2)" stroke-opacity="0.9900001" stroke-linecap="round" stroke-linejoin="round"/>
    <path d="M 107.99970245361328 23.00026512145996 C 109.29681396484375 25.58745574951172 110.01934051513672 32.436824798583984 113.68875122070312 35.413536071777344" stroke-width="3.0" fill="none" stroke="rgb(2, 2, 2)" stroke-opacity="0.99000007" stroke-linecap="round" stroke-linejoin="round"/>
    <path d="M 84.0001220703125 55.999916076660156 C 90.62178039550781 55.36606979370117 92.12109375 54.665245056152344 91.8674545288086 59.69928741455078" stroke-width="3.0" fill="none" stroke="rgb(2, 2, 2)" stroke-opacity="0.99000007" stroke-linecap="round" stroke-linejoin="round"/>
    <path d="M 115.99977111816406 166.9996337890625 C 115.67213439941406 165.97520446777344 112.35130310058594 171.40274047851562 114.44824981689453 166.64498901367188" stroke-width="3.0" fill="none" stroke="rgb(2, -2, 2)" stroke-opacity="0.9900002" stroke-linecap="round" stroke-linejoin="round"/>
    <path d="M 109.99962615966797 25.00007438659668 C 105.40811157226562 23.933334350585938 100.22421264648438 23.054887771606445 100.90814971923828 23.78264617919922" stroke-width="3.0" fill="none" stroke="rgb(2, 2, 2)" stroke-opacity="0.99000007" stroke-linecap="round" stroke-linejoin="round"/>
    <path d="M 5.000104904174805 151.00035095214844 C 2.727553367614746 147.9891815185547 2.2087626457214355 144.5386505126953 -0.8824874758720398 143.5205535888672" stroke-width="3.0" fill="none" stroke="rgb(2, 2, -2)" stroke-opacity="0.99000007" stroke-linecap="round" stroke-linejoin="round"/>
    <path d="M 162.00006103515625 2.9999170303344727 C 165.3136444091797 4.544770240783691 165.40626525878906 3.6820852756500244 165.5462188720703 3.9255337715148926" stroke-width="3.0" fill="none" stroke="rgb(2, 2, 2)" stroke-opacity="0.99000007" stroke-linecap="round" stroke-linejoin="round"/>
    <path d="M 156.99459838867188 89.00003814697266 C 152.38662719726562 92.98004913330078 148.41355895996094 88.7995376586914 153.62237548828125 86.13934326171875" stroke-width="3.0" fill="none" stroke="rgb(2, 2, 2)" stroke-opacity="0.99000007" stroke-linecap="round" stroke-linejoin="round"/>
    <path d="M 152.9994659423828 124.99988555908203 C 155.78396606445312 129.28492736816406 161.80882263183594 126.33072662353516 160.14744567871094 128.40283203125" stroke-width="3.0" fill="none" stroke="rgb(2, 2, 2)" stroke-opacity="0.99" stroke-linecap="round" stroke-linejoin="round"/>
    <path d="M 134.0001220703125 42.000606536865234 C 135.7607879638672 36.49235153198242 132.6036834716797 33.08376693725586 128.84825134277344 34.401092529296875" stroke-width="3.0" fill="none" stroke="rgb(2, 2, -2)" stroke-opacity="0.9900002" stroke-linecap="round" stroke-linejoin="round"/>
    <path d="M 82.00009155273438 42.997074127197266 C 83.49903106689453 36.57587432861328 76.61876678466797 42.08864212036133 72.6668930053711 38.584510803222656" stroke-width="3.0" fill="none" stroke="rgb(2, 2, 2)" stroke-opacity="0.99000007" stroke-linecap="round" stroke-linejoin="round"/>
    <path d="M 6.9999165534973145 112.99983215332031 C 2.0420758724212646 117.5862808227539 4.966665267944336 120.33417510986328 1.3945908546447754 115.14962005615234" stroke-width="3.0" fill="none" stroke="rgb(2, 2, 2)" stroke-opacity="0.99000007" stroke-linecap="round" stroke-linejoin="round"/>
    <path d="M 113.00012969970703 13.999844551086426 C 110.33515930175781 16.23643684387207 112.3504409790039 15.457111358642578 111.36247253417969 16.992090225219727" stroke-width="3.0" fill="none" stroke="rgb(2, 2, -2)" stroke-opacity="0.99000007" stroke-linecap="round" stroke-linejoin="round"/>
    <path d="M 78.99995422363281 71.99986267089844 C 76.94229125976562 77.10677337646484 75.34222412109375 72.55484008789062 72.470947265625 67.76006317138672" stroke-width="3.0" fill="none" stroke="rgb(-2, 2, 2)" stroke-opacity="0.99000007" stroke-linecap="round" stroke-linejoin="round"/>
    <path d="M 31.000076293945312 218.99990844726562 C 37.6563835144043 220.44223022460938 33.92922592163086 224.6011962890625 32.674434661865234 224.81143188476562" stroke-width="3.0" fill="none" stroke="rgb(2, 2, -2)" stroke-opacity="0.99000007" stroke-linecap="round" stroke-linejoin="round"/>
    <path d="M 115.00010681152344 222.99966430664062 C 117.22251892089844 227.99636840820312 119.19257354736328 229.84376525878906 120.05473327636719 230.36871337890625" stroke-width="3.0" fill="none" stroke="rgb(2, 2, 2)" stroke-opacity="0.9900001" stroke-linecap="round" stroke-linejoin="round"/>
    <path d="M 50.999664306640625 157.00010681152344 C 46.633888244628906 155.50347900390625 39.51953887939453 154.0504150390625 40.537261962890625 158.1085662841797" stroke-width="3.0" fill="none" stroke="rgb(2, 2, 2)" stroke-opacity="0.99000007" stroke-linecap="round" stroke-linejoin="round"/>
    <path d="M 172.99993896484375 90.00004577636719 C 169.71714782714844 87.56185913085938 172.77354431152344 86.86436462402344 173.62008666992188 87.15438079833984" stroke-width="3.0" fill="none" stroke="rgb(2, 2, 2)" stroke-opacity="0.99000007" stroke-linecap="round" stroke-linejoin="round"/>
    <path d="M 6.999903678894043 164.0002899169922 C 6.064007759094238 168.16966247558594 3.7846217155456543 165.33538818359375 -1.21134614944458 159.76583862304688" stroke-width="3.0" fill="none" stroke="rgb(2, 2, 2)" stroke-opacity="0.99000007" stroke-linecap="round" stroke-linejoin="round"/>
    <path d="M 131.0001220703125 74.99897003173828 C 128.8188018798828 74.74908447265625 121.3915023803711 69.86676788330078 122.43130493164062 68.05660247802734" stroke-width="3.0" fill="none" stroke="rgb(2, 2, 2)" stroke-opacity="0.9900001" stroke-linecap="round" stroke-linejoin="round"/>
    <path d="M 110.0002670288086 28.999324798583984 C 105.53721618652344 31.602624893188477 101.25587463378906 27.99331283569336 103.61028289794922 22.42505645751953" stroke-width="3.0" fill="none" stroke="rgb(2, 2, 2)" stroke-opacity="0.9900001" stroke-linecap="round" stroke-linejoin="round"/>
    <path d="M 86.99988555908203 45.9998893737793 C 83.34938049316406 48.4013557434082 88.29106903076172 46.46479415893555 91.29207611083984 43.638954162597656" stroke-width="3.0" fill="none" stroke="rgb(2, 2, 2)" stroke-opacity="0.99000007" stroke-linecap="round" stroke-linejoin="round"/>
    <path d="M 151.99951171875 13.999780654907227 C 152.64617919921875 19.0808048248291 156.16079711914062 18.042282104492188 155.1168670654297 21.408124923706055" stroke-width="3.0" fill="none" stroke="rgb(2, 2, 2)" stroke-opacity="0.99000007" stroke-linecap="round" stroke-linejoin="round"/>
    <path d="M 146.00021362304688 48.999759674072266 C 147.76934814453125 44.437644958496094 146.19384765625 42.81039810180664 143.51182556152344 44.03420639038086" stroke-width="3.0" fill="none" stroke="rgb(2, 2, 2)" stroke-opacity="0.99000025" stroke-linecap="round" stroke-linejoin="round"/>
    <path d="M 109.99991607666016 116.99854278564453 C 112.18663024902344 109.6013412475586 107.87029266357422 112.08050537109375 107.66998291015625 110.70695495605469" stroke-width="3.0" fill="none" stroke="rgb(2, 2, 2)" stroke-opacity="0.99" stroke-linecap="round" stroke-linejoin="round"/>
    <path d="M 194.99937438964844 216.99853515625 C 195.92384338378906 215.70443725585938 194.40170288085938 221.2129364013672 191.498779296875 225.5542449951172" stroke-width="3.0" fill="none" stroke="rgb(2, 2, -2)" stroke-opacity="0.99000007" stroke-linecap="round" stroke-linejoin="round"/>
    <path d="M 88.99934387207031 25.99887466430664 C 90.02932739257812 27.381668090820312 85.77981567382812 32.072879791259766 86.8548355102539 31.148622512817383" stroke-width="3.0" fill="none" stroke="rgb(2, 2, -2)" stroke-opacity="0.9900004" stroke-linecap="round" stroke-linejoin="round"/>
    <path d="M -0.999669075012207 102.99968719482422 C -1.9958604574203491 108.36072540283203 0.45462697744369507 102.9800796508789 2.285001277923584 103.8294677734375" stroke-width="3.0" fill="none" stroke="rgb(2, 2, 2)" stroke-opacity="0.9900001" stroke-linecap="round" stroke-linejoin="round"/>
    <path d="M 145.0001678466797 26.000070571899414 C 139.5620574951172 23.74527931213379 143.0084686279297 21.7811336517334 149.73489379882812 22.061965942382812" stroke-width="3.0" fill="none" stroke="rgb(2, 2, -2)" stroke-opacity="0.9900011" stroke-linecap="round" stroke-linejoin="round"/>
    <path d="M 175.99990844726562 151.00123596191406 C 174.47120666503906 153.91998291015625 173.41473388671875 152.50498962402344 176.07032775878906 149.92971801757812" stroke-width="3.0" fill="none" stroke="rgb(2, 2, -2)" stroke-opacity="0.99000007" stroke-linecap="round" stroke-linejoin="round"/>
    <path d="M 209.00025939941406 187.9997100830078 C 205.26792907714844 190.83607482910156 206.73023986816406 190.61712646484375 208.68093872070312 188.5198974609375" stroke-width="3.0" fill="none" stroke="rgb(2, 2, -2)" stroke-opacity="0.99000007" stroke-linecap="round" stroke-linejoin="round"/>
    <path d="M 22.999889373779297 219.9998779296875 C 22.090078353881836 223.8158416748047 24.80861473083496 225.91415405273438 26.80491828918457 231.15667724609375" stroke-width="3.0" fill="none" stroke="rgb(2, 2, 2)" stroke-opacity="0.99000007" stroke-linecap="round" stroke-linejoin="round"/>
    <path d="M 145.0001678466797 185.0000457763672 C 152.08364868164062 181.94654846191406 149.70840454101562 178.71665954589844 145.88946533203125 179.4749298095703" stroke-width="3.0" fill="none" stroke="rgb(2, 2, 2)" stroke-opacity="0.99" stroke-linecap="round" stroke-linejoin="round"/>
    <path d="M 9.000068664550781 185.99900817871094 C 6.861907005310059 187.13636779785156 9.745102882385254 191.1614227294922 7.430854320526123 195.87059020996094" stroke-width="3.0" fill="none" stroke="rgb(2, 2, -2)" stroke-opacity="0.99" stroke-linecap="round" stroke-linejoin="round"/>
    <path d="M 156.00022888183594 96.00005340576172 C 154.11439514160156 92.98655700683594 148.8958740234375 95.4326400756836 144.99404907226562 91.77792358398438" stroke-width="3.0" fill="none" stroke="rgb(2, 2, 2)" stroke-opacity="0.99" stroke-linecap="round" stroke-linejoin="round"/>
    <path d="M 183.00030517578125 186.0000762939453 C 186.003662109375 180.74388122558594 188.1164093017578 176.87667846679688 192.40567016601562 175.91331481933594" stroke-width="3.0" fill="none" stroke="rgb(2, 2, 2)" stroke-opacity="0.99" stroke-linecap="round" stroke-linejoin="round"/>
    <path d="M 9.000060081481934 75.99988555908203 C 10.417075157165527 77.97461700439453 3.015856981277466 79.84823608398438 6.559416770935059 79.61332702636719" stroke-width="3.0" fill="none" stroke="rgb(2, 2, 2)" stroke-opacity="0.99000007" stroke-linecap="round" stroke-linejoin="round"/>
    <path d="M 152.99984741210938 55.9990119934082 C 158.22372436523438 51.4204216003418 160.1265869140625 48.90925216674805 163.08909606933594 48.117584228515625" stroke-width="3.0" fill="none" stroke="rgb(2, 2, -2)" stroke-opacity="0.99" stroke-linecap="round" stroke-linejoin="round"/>
    <path d="M 121.00015258789062 79.0000991821289 C 118.85200500488281 81.31560516357422 114.74005126953125 84.28819274902344 112.56300354003906 82.15729522705078" stroke-width="3.0" fill="none" stroke="rgb(2, 2, 2)" stroke-opacity="0.99000007" stroke-linecap="round" stroke-linejoin="round"/>
    <path d="M 120.9922866821289 91.99991607666016 C 118.1700439453125 90.93376922607422 112.63727569580078 91.7822265625 109.0797119140625 94.11164093017578" stroke-width="3.0" fill="none" stroke="rgb(2, 2, 2)" stroke-opacity="0.99" stroke-linecap="round" stroke-linejoin="round"/>
    <path d="M 83.00015258789062 131.0000762939453 C 84.90970611572266 135.77337646484375 82.82575988769531 131.8544921875 80.958740234375 134.06890869140625" stroke-width="3.0" fill="none" stroke="rgb(2, 2, 2)" stroke-opacity="0.99000007" stroke-linecap="round" stroke-linejoin="round"/>
    <path d="M 46.99961471557617 221.9998016357422 C 50.561439514160156 217.4102783203125 51.80132293701172 221.8013458251953 50.22983169555664 222.92645263671875" stroke-width="3.0" fill="none" stroke="rgb(2, 2, 2)" stroke-opacity="0.99000007" stroke-linecap="round" stroke-linejoin="round"/>
    <path d="M 163.9998016357422 86.00028991699219 C 169.14105224609375 84.4963150024414 172.49334716796875 84.939453125 171.22532653808594 83.59429168701172" stroke-width="3.0" fill="none" stroke="rgb(2, 2, 2)" stroke-opacity="0.99" stroke-linecap="round" stroke-linejoin="round"/>
    <path d="M 49.99955368041992 186.00091552734375 C 46.444129943847656 180.75985717773438 46.533329010009766 177.33518981933594 51.582366943359375 174.59678649902344" stroke-width="3.0" fill="none" stroke="rgb(2, 2, 2)" stroke-opacity="0.99" stroke-linecap="round" stroke-linejoin="round"/>
    <path d="M 162.9947509765625 35.999900817871094 C 163.8354034423828 35.04488754272461 166.98240661621094 36.678916931152344 159.68112182617188 32.197166442871094" stroke-width="3.0" fill="none" stroke="rgb(2, 2, -2)" stroke-opacity="0.99000007" stroke-linecap="round" stroke-linejoin="round"/>
    <path d="M 141.9999542236328 15.999740600585938 C 143.1577911376953 17.444215774536133 143.27020263671875 18.792949676513672 146.2840118408203 23.16802978515625" stroke-width="3.0" fill="none" stroke="rgb(2, 2, 2)" stroke-opacity="0.99000007" stroke-linecap="round" stroke-linejoin="round"/>
    <path d="M 152.0000457763672 78.00038146972656 C 157.34344482421875 84.96527099609375 154.59066772460938 87.28001403808594 153.11923217773438 91.36859893798828" stroke-width="3.0" fill="none" stroke="rgb(2, 2, -2)" stroke-opacity="0.9900001" stroke-linecap="round" stroke-linejoin="round"/>
    <path d="M 153.00082397460938 39.0001106262207 C 159.20314025878906 36.9637336730957 162.3730010986328 35.3995361328125 160.33346557617188 35.9130973815918" stroke-width="3.0" fill="none" stroke="rgb(2, 2, 2)" stroke-opacity="0.9900001" stroke-linecap="round" stroke-linejoin="round"/>
    <path d="M 94.00020599365234 209.99917602539062 C 91.73069763183594 209.9415283203125 98.18260192871094 213.07470703125 93.590087890625 209.7970428466797" stroke-width="3.0" fill="none" stroke="rgb(2, 2, 2)" stroke-opacity="0.99000007" stroke-linecap="round" stroke-linejoin="round"/>
    <path d="M 47.00004959106445 188.00006103515625 C 50.169193267822266 182.9316864013672 47.884117126464844 184.08526611328125 46.94673538208008 186.4781951904297" stroke-width="3.0" fill="none" stroke="rgb(2, 2, 2)" stroke-opacity="0.9900002" stroke-linecap="round" stroke-linejoin="round"/>
    <path d="M 73.99996185302734 42.0001220703125 C 72.60621643066406 38.14409637451172 76.36952209472656 44.4133186340332 77.63054656982422 42.14693069458008" stroke-width="3.0" fill="none" stroke="rgb(2, 2, 2)" stroke-opacity="0.99000007" stroke-linecap="round" stroke-linejoin="round"/>
    <path d="M 132.0002899169922 20.999818801879883 C 130.9703826904297 20.636398315429688 135.67950439453125 21.765573501586914 132.3816680908203 24.30819320678711" stroke-width="3.0" fill="none" stroke="rgb(2, 2, -2)" stroke-opacity="0.99000007" stroke-linecap="round" stroke-linejoin="round"/>
    <path d="M 115.9998779296875 146.9998016357422 C 120.16549682617188 146.7547607421875 114.33494567871094 142.0064239501953 112.91321563720703 136.69374084472656" stroke-width="3.0" fill="none" stroke="rgb(2, 2, 2)" stroke-opacity="0.99000007" stroke-linecap="round" stroke-linejoin="round"/>
    <path d="M 6.999578475952148 131.00006103515625 C 9.860300064086914 132.61903381347656 4.629647254943848 137.2904052734375 0.9337809085845947 137.68540954589844" stroke-width="3.0" fill="none" stroke="rgb(2, 2, 2)" stroke-opacity="0.99000007" stroke-linecap="round" stroke-linejoin="round"/>
    <path d="M 81.0001220703125 71.99964904785156 C 86.29061889648438 66.65194702148438 91.65441131591797 63.300907135009766 89.49592590332031 63.45232009887695" stroke-width="3.0" fill="none" stroke="rgb(2, 2, 2)" stroke-opacity="0.99000007" stroke-linecap="round" stroke-linejoin="round"/>
    <path d="M 3.0001163482666016 132.9999237060547 C 9.858436584472656 137.3946533203125 10.335379600524902 140.98414611816406 8.62496566772461 143.2391815185547" stroke-width="3.0" fill="none" stroke="rgb(2, 2, 2)" stroke-opacity="0.99000007" stroke-linecap="round" stroke-linejoin="round"/>
    <path d="M 134.00027465820312 43.000545501708984 C 130.08375549316406 47.07415008544922 129.77247619628906 46.54524612426758 132.66534423828125 47.43970489501953" stroke-width="3.0" fill="none" stroke="rgb(2, 2, -2)" stroke-opacity="0.99000007" stroke-linecap="round" stroke-linejoin="round"/>
    <path d="M 134.9995880126953 82.99989318847656 C 139.46202087402344 82.44711303710938 141.76785278320312 83.08748626708984 145.85751342773438 79.10357666015625" stroke-width="3.0" fill="none" stroke="rgb(2, 2, 2)" stroke-opacity="0.99000007" stroke-linecap="round" stroke-linejoin="round"/>
    <path d="M 146.99993896484375 4.00015115737915 C 148.62594604492188 1.0406357049942017 146.04983520507812 2.3044979572296143 146.55316162109375 2.5457921028137207" stroke-width="3.0" fill="none" stroke="rgb(2, 2, 2)" stroke-opacity="0.99000007" stroke-linecap="round" stroke-linejoin="round"/>
    <path d="M 138.00047302246094 129.9947967529297 C 136.74134826660156 129.2728271484375 139.07728576660156 134.82371520996094 134.99505615234375 136.24423217773438" stroke-width="3.0" fill="none" stroke="rgb(2, 2, 2)" stroke-opacity="0.99000007" stroke-linecap="round" stroke-linejoin="round"/>
    <path d="M 66.99995422363281 76.0000991821289 C 70.64118194580078 81.57941436767578 74.364990234375 84.53884887695312 77.29874420166016 86.60443878173828" stroke-width="3.0" fill="none" stroke="rgb(2, 2, 2)" stroke-opacity="0.99" stroke-linecap="round" stroke-linejoin="round"/>
    <path d="M 80.00007629394531 76.99955749511719 C 82.28030395507812 74.04077911376953 78.1811752319336 72.63623809814453 78.92798614501953 79.8075942993164" stroke-width="3.0" fill="none" stroke="rgb(2, 2, -2)" stroke-opacity="0.9900001" stroke-linecap="round" stroke-linejoin="round"/>
    <path d="M 44.00096130371094 185.9998321533203 C 42.38648986816406 183.0242462158203 43.29548645019531 185.30331420898438 47.88416290283203 190.668212890625" stroke-width="3.0" fill="none" stroke="rgb(2, 2, 2)" stroke-opacity="0.99000007" stroke-linecap="round" stroke-linejoin="round"/>
    <path d="M 80.9998550415039 172.9998779296875 C 80.52305603027344 173.30467224121094 84.38573455810547 175.98936462402344 82.2156753540039 174.70066833496094" stroke-width="3.0" fill="none" stroke="rgb(2, 2, -2)" stroke-opacity="0.99000007" stroke-linecap="round" stroke-linejoin="round"/>
    <path d="M 6.002862453460693 133.99977111816406 C 8.255553245544434 132.4502410888672 11.752655029296875 135.75950622558594 9.665621757507324 130.7689971923828" stroke-width="3.0" fill="none" stroke="rgb(2, 2, -2)" stroke-opacity="0.99000007" stroke-linecap="round" stroke-linejoin="round"/>
    <path d="M 122.99989318847656 17.99932861328125 C 127.0425033569336 15.189102172851562 130.9754180908203 11.878952026367188 127.4913330078125 10.01513957977295" stroke-width="3.0" fill="none" stroke="rgb(2, 2, 2)" stroke-opacity="0.99" stroke-linecap="round" stroke-linejoin="round"/>
    <path d="M 85.9927978515625 25.999902725219727 C 80.63481903076172 21.386682510375977 82.30218505859375 26.6921443939209 85.91744995117188 31.845792770385742" stroke-width="3.0" fill="none" stroke="rgb(2, 2, 2)" stroke-opacity="0.99" stroke-linecap="round" stroke-linejoin="round"/>
    <path d="M 123.99989318847656 67.0001449584961 C 123.9818344116211 72.408935546875 127.63410949707031 73.68156433105469 124.93939208984375 76.52758026123047" stroke-width="3.0" fill="none" stroke="rgb(2, 2, 2)" stroke-opacity="0.99000007" stroke-linecap="round" stroke-linejoin="round"/>
    <path d="M 0.00015242397785186768 124.99779510498047 C -3.0963118076324463 127.80873107910156 0.6639457941055298 129.943359375 -1.8147640228271484 132.95645141601562" stroke-width="3.0" fill="none" stroke="rgb(2, 2, 2)" stroke-opacity="0.9900004" stroke-linecap="round" stroke-linejoin="round"/>
    <path d="M 151.00042724609375 13.999881744384766 C 154.68869018554688 15.275753021240234 157.6404571533203 20.48878288269043 162.79563903808594 20.044631958007812" stroke-width="3.0" fill="none" stroke="rgb(2, 2, 2)" stroke-opacity="0.99" stroke-linecap="round" stroke-linejoin="round"/>
    <path d="M 149.0009307861328 38.99983215332031 C 149.8172149658203 40.14235305786133 149.2879638671875 43.602020263671875 144.1874542236328 45.73617172241211" stroke-width="3.0" fill="none" stroke="rgb(2, 2, 2)" stroke-opacity="0.9900001" stroke-linecap="round" stroke-linejoin="round"/>
    <path d="M 81.99821472167969 56.00044250488281 C 84.36676788330078 62.19077682495117 79.21981811523438 57.7428092956543 77.11068725585938 55.22450256347656" stroke-width="3.0" fill="none" stroke="rgb(2, 2, 2)" stroke-opacity="0.99000007" stroke-linecap="round" stroke-linejoin="round"/>
    <path d="M 129.99891662597656 148.99395751953125 C 129.35220336914062 152.16502380371094 129.8546142578125 147.63595581054688 127.99449157714844 142.4480743408203" stroke-width="3.0" fill="none" stroke="rgb(2, 2, 2)" stroke-opacity="0.99000007" stroke-linecap="round" stroke-linejoin="round"/>
    <path d="M 187.99960327148438 180.99984741210938 C 190.67311096191406 175.475341796875 191.5066375732422 172.91998291015625 187.76565551757812 174.22633361816406" stroke-width="3.0" fill="none" stroke="rgb(2, 2, 2)" stroke-opacity="0.99000007" stroke-linecap="round" stroke-linejoin="round"/>
    <path d="M 79.00027465820312 141.9996795654297 C 84.30670928955078 141.63230895996094 80.41020965576172 141.0991668701172 86.83296203613281 140.40985107421875" stroke-width="3.0" fill="none" stroke="rgb(2, 2, -2)" stroke-opacity="0.9900002" stroke-linecap="round" stroke-linejoin="round"/>
    <path d="M 133.99929809570312 54.996273040771484 C 128.98593139648438 55.83725357055664 125.63501739501953 57.50828170776367 130.04586791992188 55.916072845458984" stroke-width="3.0" fill="none" stroke="rgb(2, 2, 2)" stroke-opacity="0.9900001" stroke-linecap="round" stroke-linejoin="round"/>
    <path d="M 113.98004913330078 119.00045013427734 C 108.6384048461914 120.66045379638672 111.6507339477539 117.39836883544922 115.9334716796875 117.45148468017578" stroke-width="3.0" fill="none" stroke="rgb(2, 2, 2)" stroke-opacity="0.99000007" stroke-linecap="round" stroke-linejoin="round"/>
    <path d="M 147.99972534179688 151.99069213867188 C 145.5288848876953 151.08770751953125 146.39088439941406 149.65753173828125 149.78375244140625 149.39891052246094" stroke-width="3.0" fill="none" stroke="rgb(2, 2, 2)" stroke-opacity="0.9900001" stroke-linecap="round" stroke-linejoin="round"/>
    <path d="M 80.00010681152344 218.9999237060547 C 77.38187408447266 221.1820526123047 70.94923400878906 221.08261108398438 75.73841094970703 222.10362243652344" stroke-width="3.0" fill="none" stroke="rgb(2, 2, 2)" stroke-opacity="0.99" stroke-linecap="round" stroke-linejoin="round"/>
    <path d="M 81.00015258789062 52.99990463256836 C 85.94722747802734 46.18698501586914 91.69599914550781 48.992088317871094 86.48698425292969 50.66661071777344" stroke-width="3.0" fill="none" stroke="rgb(2, 2, -2)" stroke-opacity="0.99000007" stroke-linecap="round" stroke-linejoin="round"/>
    <path d="M 97.00225067138672 50.0002326965332 C 100.51435852050781 53.668975830078125 101.90225982666016 49.81898880004883 99.29876708984375 51.57658767700195" stroke-width="3.0" fill="none" stroke="rgb(2, 2, -2)" stroke-opacity="0.99000007" stroke-linecap="round" stroke-linejoin="round"/>
    <path d="M 133.99984741210938 116.00018310546875 C 132.8605499267578 115.75968933105469 137.81455993652344 113.36264038085938 136.8837432861328 114.59564971923828" stroke-width="3.0" fill="none" stroke="rgb(2, 2, -2)" stroke-opacity="0.99000007" stroke-linecap="round" stroke-linejoin="round"/>
    <path d="M 142.9996337890625 100.0006103515625 C 138.70750427246094 100.6870346069336 132.7976531982422 96.93158721923828 139.5486602783203 95.44976043701172" stroke-width="3.0" fill="none" stroke="rgb(2, 2, 2)" stroke-opacity="0.99" stroke-linecap="round" stroke-linejoin="round"/>
    <path d="M 76.99995422363281 56.99988555908203 C 73.84864807128906 58.949005126953125 76.83251953125 57.626800537109375 81.61940002441406 59.7015495300293" stroke-width="3.0" fill="none" stroke="rgb(2, 2, 2)" stroke-opacity="0.99000007" stroke-linecap="round" stroke-linejoin="round"/>
    <path d="M 151.00018310546875 26.000043869018555 C 156.38177490234375 24.317943572998047 154.0301513671875 24.50720977783203 155.81008911132812 27.530263900756836" stroke-width="3.0" fill="none" stroke="rgb(2, 2, 2)" stroke-opacity="0.99000007" stroke-linecap="round" stroke-linejoin="round"/>
    <path d="M 5.000243663787842 84.99996185302734 C 3.6304874420166016 88.17711639404297 -0.14171214401721954 85.56603240966797 -0.7796206474304199 90.66348266601562" stroke-width="3.0" fill="none" stroke="rgb(2, 2, 2)" stroke-opacity="0.99000007" stroke-linecap="round" stroke-linejoin="round"/>
    <path d="M 62.00003433227539 143.99978637695312 C 63.36836242675781 146.9243621826172 59.14624786376953 148.47723388671875 61.909420013427734 150.30230712890625" stroke-width="3.0" fill="none" stroke="rgb(2, 2, 2)" stroke-opacity="0.99000007" stroke-linecap="round" stroke-linejoin="round"/>
    <path d="M 90.00008392333984 26.999807357788086 C 86.3815689086914 24.094623565673828 82.80026245117188 25.501293182373047 85.59652709960938 31.23120880126953" stroke-width="3.0" fill="none" stroke="rgb(2, 2, 2)" stroke-opacity="0.9900001" stroke-linecap="round" stroke-linejoin="round"/>
    <path d="M 145.0000762939453 145.9999237060547 C 150.0684051513672 148.42393493652344 152.33148193359375 153.0729522705078 154.62234497070312 155.6133270263672" stroke-width="3.0" fill="none" stroke="rgb(2, 2, 2)" stroke-opacity="0.99" stroke-linecap="round" stroke-linejoin="round"/>
    <path d="M 96.9998779296875 113.00086975097656 C 98.8277359008789 112.04159545898438 95.6591567993164 110.56980895996094 96.7373275756836 110.660400390625" stroke-width="3.0" fill="none" stroke="rgb(2, 2, 2)" stroke-opacity="0.99000007" stroke-linecap="round" stroke-linejoin="round"/>
    <path d="M 153.99969482421875 85.99979400634766 C 147.64268493652344 86.92975616455078 150.32981872558594 85.67565155029297 154.63609313964844 82.87493133544922" stroke-width="3.0" fill="none" stroke="rgb(-2, 2, 2)" stroke-opacity="0.9900011" stroke-linecap="round" stroke-linejoin="round"/>
    <path d="M 92.00037384033203 131.00006103515625 C 99.17185974121094 127.95040130615234 100.31977081298828 124.46794128417969 98.8480453491211 119.4700698852539" stroke-width="3.0" fill="none" stroke="rgb(2, 2, -2)" stroke-opacity="0.99" stroke-linecap="round" stroke-linejoin="round"/>
    <path d="M 8.000175476074219 146.99961853027344 C 12.773571014404297 151.846923828125 10.68075180053711 147.05325317382812 10.706966400146484 141.45916748046875" stroke-width="3.0" fill="none" stroke="rgb(2, 2, 2)" stroke-opacity="0.9900001" stroke-linecap="round" stroke-linejoin="round"/>
    <path d="M 134.00637817382812 55.88119125366211 C 128.55239868164062 55.04411315917969 131.14500427246094 57.76521301269531 136.07290649414062 55.350643157958984" stroke-width="3.0" fill="none" stroke="rgb(2, 2, 2)" stroke-opacity="0.9900001" stroke-linecap="round" stroke-linejoin="round"/>
    <path d="M 153.99916076660156 39.99979782104492 C 155.5167694091797 40.22377395629883 157.72340393066406 37.765403747558594 157.6086883544922 38.34199142456055" stroke-width="3.0" fill="none" stroke="rgb(2, 2, 2)" stroke-opacity="0.99000055" stroke-linecap="round" stroke-linejoin="round"/>
    <path d="M 223.99847412109375 210.9982147216797 C 225.14486694335938 208.96392822265625 220.2211456298828 214.2381134033203 221.04727172851562 211.01724243164062" stroke-width="3.0" fill="none" stroke="rgb(2, 2, 2)" stroke-opacity="0.9900001" stroke-linecap="round" stroke-linejoin="round"/>
    <path d="M 121.00020599365234 68.00289154052734 C 119.42596435546875 64.12491607666016 124.6458969116211 59.73568344116211 123.4699478149414 60.726463317871094" stroke-width="3.0" fill="none" stroke="rgb(2, 2, 2)" stroke-opacity="0.99000007" stroke-linecap="round" stroke-linejoin="round"/>
    <path d="M 124.99961853027344 86.00052642822266 C 122.55609893798828 91.99131774902344 118.09638214111328 95.48583221435547 123.15596008300781 98.97846984863281" stroke-width="3.0" fill="none" stroke="rgb(2, 2, -2)" stroke-opacity="0.99000007" stroke-linecap="round" stroke-linejoin="round"/>
    <path d="M 80.99974822998047 46.00101089477539 C 77.2591323852539 44.232154846191406 80.09588623046875 44.06904602050781 77.14996337890625 44.63107681274414" stroke-width="3.0" fill="none" stroke="rgb(2, 2, -2)" stroke-opacity="0.99000007" stroke-linecap="round" stroke-linejoin="round"/>
    <path d="M 5.0015387535095215 144.99993896484375 C 9.035696983337402 144.66452026367188 14.438672065734863 140.3211669921875 11.15054988861084 140.0779571533203" stroke-width="3.0" fill="none" stroke="rgb(2, 2, 2)" stroke-opacity="0.99000007" stroke-linecap="round" stroke-linejoin="round"/>
    <path d="M 5.000046730041504 118.00006103515625 C 9.586271286010742 112.96783447265625 10.375345230102539 112.09163665771484 14.590909004211426 108.5952377319336" stroke-width="3.0" fill="none" stroke="rgb(2, 2, 2)" stroke-opacity="0.99" stroke-linecap="round" stroke-linejoin="round"/>
    <path d="M 72.00022888183594 82.00005340576172 C 78.09844970703125 82.75554656982422 80.55810546875 82.28301239013672 78.1832046508789 86.23682403564453" stroke-width="3.0" fill="none" stroke="rgb(2, 2, 2)" stroke-opacity="0.9900001" stroke-linecap="round" stroke-linejoin="round"/>
    <path d="M 33.999691009521484 113.99983215332031 C 34.56203079223633 119.18883514404297 39.253238677978516 124.11905670166016 39.04771423339844 122.23284912109375" stroke-width="3.0" fill="none" stroke="rgb(2, 2, 2)" stroke-opacity="0.99" stroke-linecap="round" stroke-linejoin="round"/>
    <path d="M 106.99979400634766 16.000244140625 C 105.94214630126953 17.723052978515625 105.38336181640625 18.09797477722168 103.14884948730469 21.66580581665039" stroke-width="3.0" fill="none" stroke="rgb(2, 2, 2)" stroke-opacity="0.99000007" stroke-linecap="round" stroke-linejoin="round"/>
    <path d="M 86.99984741210938 141.9998016357422 C 82.24351501464844 145.21099853515625 85.96017456054688 144.89056396484375 86.4823226928711 143.25125122070312" stroke-width="3.0" fill="none" stroke="rgb(2, 2, 2)" stroke-opacity="0.9900001" stroke-linecap="round" stroke-linejoin="round"/>
    <path d="M 118.99951934814453 82.00016784667969 C 122.56461334228516 83.7175521850586 119.69840240478516 87.81474304199219 120.53640747070312 92.25897216796875" stroke-width="3.0" fill="none" stroke="rgb(2, 2, 2)" stroke-opacity="0.9900001" stroke-linecap="round" stroke-linejoin="round"/>
    <path d="M 38.00015640258789 206.00018310546875 C 35.367427825927734 207.831298828125 34.25272750854492 211.01077270507812 36.51970672607422 211.6284942626953" stroke-width="3.0" fill="none" stroke="rgb(2, 2, 2)" stroke-opacity="0.99000007" stroke-linecap="round" stroke-linejoin="round"/>
    <path d="M 89.00049591064453 64.99964141845703 C 95.51370239257812 66.7818832397461 95.74876403808594 68.6314468383789 98.50042724609375 65.23766326904297" stroke-width="3.0" fill="none" stroke="rgb(2, 2, 2)" stroke-opacity="0.99" stroke-linecap="round" stroke-linejoin="round"/>
    <path d="M 39.00028991699219 221.9999542236328 C 35.644187927246094 220.97264099121094 31.06692123413086 222.52915954589844 28.553720474243164 219.5242919921875" stroke-width="3.0" fill="none" stroke="rgb(2, 2, -2)" stroke-opacity="0.99000007" stroke-linecap="round" stroke-linejoin="round"/>
    <path d="M 3.0026443004608154 151.9974365234375 C -0.6012109518051147 149.34625244140625 4.16754674911499 147.17477416992188 3.3251953125 153.53387451171875" stroke-width="3.0" fill="none" stroke="rgb(2, 2, -2)" stroke-opacity="0.99000037" stroke-linecap="round" stroke-linejoin="round"/>
    <path d="M 161.0000457763672 153.0001220703125 C 157.57896423339844 150.88787841796875 161.45191955566406 152.3140411376953 158.59442138671875 148.78587341308594" stroke-width="3.0" fill="none" stroke="rgb(2, 2, 2)" stroke-opacity="0.99" stroke-linecap="round" stroke-linejoin="round"/>
    <path d="M 155.99978637695312 38.99929428100586 C 159.32147216796875 39.46015930175781 162.71897888183594 39.06842803955078 160.01651000976562 43.56246566772461" stroke-width="3.0" fill="none" stroke="rgb(2, 2, 2)" stroke-opacity="0.99000007" stroke-linecap="round" stroke-linejoin="round"/>
    <path d="M 69.99968719482422 220.00025939941406 C 63.84402847290039 223.34298706054688 67.5836410522461 218.34649658203125 68.6488265991211 222.6654510498047" stroke-width="3.0" fill="none" stroke="rgb(2, 2, -2)" stroke-opacity="0.99000007" stroke-linecap="round" stroke-linejoin="round"/>
    <path d="M 115.99987030029297 125.00009155273438 C 120.88831329345703 129.8549346923828 114.47798156738281 133.13153076171875 111.09789276123047 134.58505249023438" stroke-width="3.0" fill="none" stroke="rgb(2, 2, 2)" stroke-opacity="0.99000007" stroke-linecap="round" stroke-linejoin="round"/>
    <path d="M 88.00627136230469 141.99989318847656 C 83.79190826416016 140.16697692871094 81.21009826660156 138.9712371826172 82.70502471923828 144.2101593017578" stroke-width="3.0" fill="none" stroke="rgb(2, 2, 2)" stroke-opacity="0.9900002" stroke-linecap="round" stroke-linejoin="round"/>
    <path d="M 179.00009155273438 218.99984741210938 C 175.7184295654297 219.79336547851562 175.77410888671875 221.50619506835938 172.1291961669922 216.4661102294922" stroke-width="3.0" fill="none" stroke="rgb(2, 2, 2)" stroke-opacity="0.99" stroke-linecap="round" stroke-linejoin="round"/>
    <path d="M 135.00152587890625 125.99980163574219 C 136.2042694091797 126.63480377197266 133.4482879638672 127.21637725830078 138.1632537841797 128.86920166015625" stroke-width="3.0" fill="none" stroke="rgb(2, 2, -2)" stroke-opacity="0.9900001" stroke-linecap="round" stroke-linejoin="round"/>
  </g>
</svg>
