<?xml version="1.0" ?>
<svg xmlns="http://www.w3.org/2000/svg" version="1.1" width="224" height="224">
  <defs/>
  <g>
    <path d="M 146.02218627929688 36.99390411376953 C 153.41055297851562 39.96623992919922 140.86260986328125 23.53728485107422 135.63624572753906 43.53132629394531" stroke-width="3.0" fill="none" stroke="rgb(1, 0, 0)" stroke-opacity="0.46154472" stroke-linecap="round" stroke-linejoin="round"/>
    <path d="M 43.534828186035156 163.1138153076172 C 51.30074691772461 150.66668701171875 33.238433837890625 160.67991638183594 40.269004821777344 178.72671508789062" stroke-width="3.0" fill="none" stroke="rgb(0, -1, 1)" stroke-opacity="0.27744627" stroke-linecap="round" stroke-linejoin="round"/>
    <path d="M 146.21913146972656 46.09187316894531 C 143.22216796875 52.51622009277344 146.64920043945312 43.90533447265625 143.97616577148438 46.901771545410156" stroke-width="3.0" fill="none" stroke="rgb(0, -1, 1)" stroke-opacity="0.3161615" stroke-linecap="round" stroke-linejoin="round"/>
    <path d="M 123.96382141113281 90.64494323730469 C 123.46710205078125 95.1846694946289 120.22295379638672 87.68688201904297 121.13500213623047 73.61571502685547" stroke-width="3.0" fill="none" stroke="rgb(1, -1, 2)" stroke-opacity="0.20701729" stroke-linecap="round" stroke-linejoin="round"/>
    <path d="M 98.1305923461914 188.0514373779297 C 126.75724792480469 166.614990234375 113.76728057861328 149.09593200683594 123.64033508300781 162.5599822998047" stroke-width="3.0" fill="none" stroke="rgb(0, -3, 2)" stroke-opacity="0.37086594" stroke-linecap="round" stroke-linejoin="round"/>
    <path d="M 141.24742126464844 77.66249084472656 C 133.83657836914062 80.28740692138672 148.840576171875 77.8935546875 143.17457580566406 78.73738861083984" stroke-width="3.0" fill="none" stroke="rgb(2, 0, -1)" stroke-opacity="0.5429266" stroke-linecap="round" stroke-linejoin="round"/>
    <path d="M 101.46356201171875 208.2010040283203 C 99.26434326171875 207.8833465576172 103.59750366210938 208.30636596679688 102.67393493652344 208.3832244873047" stroke-width="3.0" fill="none" stroke="rgb(0, 1, -1)" stroke-opacity="0.33257103" stroke-linecap="round" stroke-linejoin="round"/>
    <path d="M 147.43898010253906 20.03077507019043 C 147.94456481933594 21.3654842376709 146.87222290039062 17.904705047607422 137.542724609375 44.55411148071289" stroke-width="3.0" fill="none" stroke="rgb(0, 0, 0)" stroke-opacity="0.2461975" stroke-linecap="round" stroke-linejoin="round"/>
    <path d="M 167.32313537597656 -7.477084636688232 C 162.13394165039062 -10.387885093688965 162.8510284423828 -5.373041152954102 152.9752960205078 8.388245582580566" stroke-width="3.0" fill="none" stroke="rgb(-1, 1, 2)" stroke-opacity="0.5046401" stroke-linecap="round" stroke-linejoin="round"/>
    <path d="M 125.06055450439453 145.46202087402344 C 136.85977172851562 145.3670654296875 128.7139892578125 135.2879638671875 125.20624542236328 154.3180389404297" stroke-width="3.0" fill="none" stroke="rgb(1, -1, 0)" stroke-opacity="0.13811432" stroke-linecap="round" stroke-linejoin="round"/>
    <path d="M 129.73753356933594 168.90126037597656 C 126.24236297607422 172.39102172851562 127.84239196777344 163.5481719970703 139.02537536621094 146.51345825195312" stroke-width="3.0" fill="none" stroke="rgb(0, 1, 0)" stroke-opacity="0.2283662" stroke-linecap="round" stroke-linejoin="round"/>
    <path d="M 100.71110534667969 27.635278701782227 C 119.43521118164062 20.912389755249023 118.38209533691406 21.315555572509766 109.44851684570312 23.7967586517334" stroke-width="3.0" fill="none" stroke="rgb(0, 0, 0)" stroke-opacity="0.098614015" stroke-linecap="round" stroke-linejoin="round"/>
    <path d="M 107.99935913085938 28.977096557617188 C 104.6532211303711 22.377227783203125 104.51864624023438 40.72791290283203 116.50648498535156 38.373531341552734" stroke-width="3.0" fill="none" stroke="rgb(-1, 0, 1)" stroke-opacity="0.17214012" stroke-linecap="round" stroke-linejoin="round"/>
    <path d="M 84.1449203491211 58.01957321166992 C 92.24093627929688 65.75625610351562 93.84064483642578 55.932289123535156 94.07190704345703 58.065711975097656" stroke-width="3.0" fill="none" stroke="rgb(-1, 1, 0)" stroke-opacity="0.30792004" stroke-linecap="round" stroke-linejoin="round"/>
    <path d="M 106.17536926269531 186.3411407470703 C 126.01932525634766 157.75393676757812 121.87751770019531 169.1753387451172 116.5993423461914 155.20498657226562" stroke-width="3.0" fill="none" stroke="rgb(-1, 0, 3)" stroke-opacity="0.41861346" stroke-linecap="round" stroke-linejoin="round"/>
    <path d="M 119.54810333251953 22.724994659423828 C 109.54568481445312 29.502151489257812 110.15026092529297 33.19249725341797 117.32493591308594 29.22207260131836" stroke-width="3.0" fill="none" stroke="rgb(1, 0, 1)" stroke-opacity="0.17408662" stroke-linecap="round" stroke-linejoin="round"/>
    <path d="M -2.2850613594055176 139.60401916503906 C 10.828548431396484 147.8235321044922 -1.8788902759552002 144.60882568359375 -8.734631538391113 142.62120056152344" stroke-width="3.0" fill="none" stroke="rgb(1, -2, -1)" stroke-opacity="0.4459537" stroke-linecap="round" stroke-linejoin="round"/>
    <path d="M 160.6415252685547 -5.005366325378418 C 155.98793029785156 2.2412099838256836 158.28640747070312 -0.8125457763671875 160.25244140625 -7.597473621368408" stroke-width="3.0" fill="none" stroke="rgb(0, 0, 0)" stroke-opacity="0.6564901" stroke-linecap="round" stroke-linejoin="round"/>
    <path d="M 156.8638458251953 85.16317749023438 C 153.59178161621094 86.69212341308594 155.77911376953125 83.85079956054688 162.86672973632812 86.51536560058594" stroke-width="3.0" fill="none" stroke="rgb(1, -1, 1)" stroke-opacity="0.3810936" stroke-linecap="round" stroke-linejoin="round"/>
    <path d="M 160.55892944335938 126.47386169433594 C 160.26766967773438 126.83048248291016 161.13278198242188 127.39694213867188 161.33372497558594 125.98481750488281" stroke-width="3.0" fill="none" stroke="rgb(0, 1, 0)" stroke-opacity="0.1188003" stroke-linecap="round" stroke-linejoin="round"/>
    <path d="M 131.90724182128906 45.567508697509766 C 147.21270751953125 27.908552169799805 149.67361450195312 27.870851516723633 120.91170501708984 37.46383285522461" stroke-width="3.0" fill="none" stroke="rgb(0, 0, 1)" stroke-opacity="0.19587259" stroke-linecap="round" stroke-linejoin="round"/>
    <path d="M 87.9186782836914 45.367801666259766 C 90.02399444580078 42.442264556884766 87.22437286376953 46.46571731567383 87.6038589477539 45.797393798828125" stroke-width="3.0" fill="none" stroke="rgb(2, 0, -1)" stroke-opacity="0.5624945" stroke-linecap="round" stroke-linejoin="round"/>
    <path d="M 20.187131881713867 86.8488540649414 C -5.282628536224365 109.33197784423828 11.733575820922852 156.58584594726562 8.657631874084473 108.83715057373047" stroke-width="3.0" fill="none" stroke="rgb(-1, 0, 3)" stroke-opacity="0.16385236" stroke-linecap="round" stroke-linejoin="round"/>
    <path d="M 110.03040313720703 25.03053092956543 C 119.93173217773438 20.77947998046875 117.16720581054688 22.959930419921875 115.06423950195312 23.13996696472168" stroke-width="3.0" fill="none" stroke="rgb(1, 0, 0)" stroke-opacity="0.2989598" stroke-linecap="round" stroke-linejoin="round"/>
    <path d="M 71.05656433105469 77.9371109008789 C 67.42891693115234 85.48820495605469 69.24517059326172 78.42837524414062 77.87896728515625 79.06622314453125" stroke-width="3.0" fill="none" stroke="rgb(1, 0, 0)" stroke-opacity="0.4159121" stroke-linecap="round" stroke-linejoin="round"/>
    <path d="M 28.201208114624023 231.4350128173828 C 40.022361755371094 227.7108917236328 33.627708435058594 233.30870056152344 26.91273307800293 232.17311096191406" stroke-width="3.0" fill="none" stroke="rgb(0, 0, 0)" stroke-opacity="0.8164935" stroke-linecap="round" stroke-linejoin="round"/>
    <path d="M 116.16011047363281 233.30108642578125 C 112.03553771972656 232.6981201171875 115.8681640625 233.10104370117188 117.32884979248047 232.66514587402344" stroke-width="3.0" fill="none" stroke="rgb(0, 0, 0)" stroke-opacity="0.89699554" stroke-linecap="round" stroke-linejoin="round"/>
    <path d="M 43.77578353881836 161.89442443847656 C 62.20372009277344 136.0377960205078 46.54042434692383 137.04208374023438 40.76343536376953 172.55731201171875" stroke-width="3.0" fill="none" stroke="rgb(0, 1, 0)" stroke-opacity="0.24292853" stroke-linecap="round" stroke-linejoin="round"/>
    <path d="M 166.43292236328125 81.21929931640625 C 167.9766387939453 81.75941467285156 166.7277374267578 87.55559539794922 163.65821838378906 87.13558959960938" stroke-width="3.0" fill="none" stroke="rgb(1, -2, 1)" stroke-opacity="0.34354836" stroke-linecap="round" stroke-linejoin="round"/>
    <path d="M 8.546225547790527 169.50694274902344 C 0.0925852358341217 171.080322265625 -1.787243366241455 171.66685485839844 4.059940814971924 151.70367431640625" stroke-width="3.0" fill="none" stroke="rgb(0, 0, 0)" stroke-opacity="0.33313745" stroke-linecap="round" stroke-linejoin="round"/>
    <path d="M 123.18636322021484 73.48703002929688 C 129.0391082763672 73.52783203125 115.9734878540039 69.13033294677734 134.66592407226562 76.5589370727539" stroke-width="3.0" fill="none" stroke="rgb(2, 0, -3)" stroke-opacity="0.4010173" stroke-linecap="round" stroke-linejoin="round"/>
    <path d="M 124.0217514038086 24.970544815063477 C 108.90372467041016 25.673246383666992 110.64725494384766 31.76410484313965 111.38252258300781 24.83556365966797" stroke-width="3.0" fill="none" stroke="rgb(0, 0, 0)" stroke-opacity="0.22566608" stroke-linecap="round" stroke-linejoin="round"/>
    <path d="M 85.80847930908203 50.016151428222656 C 83.86685943603516 59.557228088378906 86.18756866455078 44.652435302734375 85.89562225341797 49.658836364746094" stroke-width="3.0" fill="none" stroke="rgb(2, -1, 0)" stroke-opacity="0.531701" stroke-linecap="round" stroke-linejoin="round"/>
    <path d="M 154.4517059326172 8.588808059692383 C 142.49960327148438 24.99319839477539 150.3085174560547 18.822599411010742 148.11508178710938 18.593246459960938" stroke-width="3.0" fill="none" stroke="rgb(-2, 1, 1)" stroke-opacity="0.4118392" stroke-linecap="round" stroke-linejoin="round"/>
    <path d="M 144.90530395507812 42.83100128173828 C 149.65467834472656 49.95216751098633 141.0298614501953 47.553428649902344 143.08828735351562 45.85095977783203" stroke-width="3.0" fill="none" stroke="rgb(1, -1, 2)" stroke-opacity="0.41593364" stroke-linecap="round" stroke-linejoin="round"/>
    <path d="M 115.1595230102539 115.12084197998047 C 114.7044448852539 118.11331176757812 113.36288452148438 112.58676147460938 113.14239501953125 114.491455078125" stroke-width="3.0" fill="none" stroke="rgb(1, 1, -2)" stroke-opacity="0.2841884" stroke-linecap="round" stroke-linejoin="round"/>
    <path d="M 197.3316192626953 227.9398956298828 C 193.81124877929688 227.77316284179688 197.58682250976562 231.01268005371094 199.48509216308594 234.0612335205078" stroke-width="3.0" fill="none" stroke="rgb(0, 0, 0)" stroke-opacity="0.7898829" stroke-linecap="round" stroke-linejoin="round"/>
    <path d="M 97.69671630859375 38.56710433959961 C 98.58753204345703 32.36144256591797 92.88309478759766 43.6558952331543 91.25985717773438 37.187896728515625" stroke-width="3.0" fill="none" stroke="rgb(2, -2, 4)" stroke-opacity="0.2121706" stroke-linecap="round" stroke-linejoin="round"/>
    <path d="M -8.222752571105957 108.87568664550781 C -4.998844623565674 108.8641586303711 -1.494970679283142 108.16732788085938 -6.718682289123535 111.4781265258789" stroke-width="3.0" fill="none" stroke="rgb(0, 0, 0)" stroke-opacity="0.8796952" stroke-linecap="round" stroke-linejoin="round"/>
    <path d="M 139.5971221923828 29.90662956237793 C 142.89358520507812 38.341766357421875 144.44871520996094 21.635318756103516 147.48402404785156 19.728107452392578" stroke-width="3.0" fill="none" stroke="rgb(1, 0, -2)" stroke-opacity="0.46464536" stroke-linecap="round" stroke-linejoin="round"/>
    <path d="M 171.9894561767578 158.64096069335938 C 171.06930541992188 158.6557159423828 173.2259521484375 158.7928009033203 172.17465209960938 158.5172882080078" stroke-width="3.0" fill="none" stroke="rgb(0, 1, -1)" stroke-opacity="0.208981" stroke-linecap="round" stroke-linejoin="round"/>
    <path d="M 209.700927734375 184.78199768066406 C 208.6665802001953 184.79705810546875 209.5802459716797 184.8070831298828 210.1514129638672 184.80223083496094" stroke-width="3.0" fill="none" stroke="rgb(0, 0, 0)" stroke-opacity="0.1700121" stroke-linecap="round" stroke-linejoin="round"/>
    <path d="M 19.26612663269043 233.72189331054688 C 14.38374137878418 230.26954650878906 15.839845657348633 233.1082000732422 18.475051879882812 238.4232635498047" stroke-width="3.0" fill="none" stroke="rgb(0, 0, 0)" stroke-opacity="0.87245303" stroke-linecap="round" stroke-linejoin="round"/>
    <path d="M 143.9683380126953 177.96673583984375 C 144.77346801757812 177.8227996826172 141.88043212890625 178.33233642578125 143.09214782714844 178.1684112548828" stroke-width="3.0" fill="none" stroke="rgb(0, 1, -1)" stroke-opacity="0.28693128" stroke-linecap="round" stroke-linejoin="round"/>
    <path d="M 9.849740982055664 180.29173278808594 C 11.157546043395996 180.4048309326172 7.767202854156494 179.9718017578125 9.888160705566406 180.1025390625" stroke-width="3.0" fill="none" stroke="rgb(0, 0, 0)" stroke-opacity="0.3701719" stroke-linecap="round" stroke-linejoin="round"/>
    <path d="M 147.62120056152344 82.38289642333984 C 148.96246337890625 86.3692398071289 140.31419372558594 79.73182678222656 156.150146484375 87.07512664794922" stroke-width="3.0" fill="none" stroke="rgb(3, -1, 0)" stroke-opacity="0.66750216" stroke-linecap="round" stroke-linejoin="round"/>
    <path d="M 190.8550567626953 184.5600128173828 C 187.9012451171875 184.60435485839844 192.96519470214844 182.67681884765625 192.01651000976562 184.91477966308594" stroke-width="3.0" fill="none" stroke="rgb(0, 2, 0)" stroke-opacity="0.28806934" stroke-linecap="round" stroke-linejoin="round"/>
    <path d="M 9.299455642700195 89.20990753173828 C 6.310087203979492 87.30233001708984 0.8486165404319763 89.36495208740234 3.547095775604248 88.52458953857422" stroke-width="3.0" fill="none" stroke="rgb(0, -1, 2)" stroke-opacity="0.2744075" stroke-linecap="round" stroke-linejoin="round"/>
    <path d="M 158.62599182128906 50.23015213012695 C 158.9333953857422 55.463985443115234 159.56407165527344 48.33071517944336 158.46621704101562 50.52017593383789" stroke-width="3.0" fill="none" stroke="rgb(0, 0, 0)" stroke-opacity="0.26721942" stroke-linecap="round" stroke-linejoin="round"/>
    <path d="M 122.55857849121094 71.11135864257812 C 123.23739624023438 90.8867416381836 122.16446685791016 91.54009246826172 121.63960266113281 83.61460876464844" stroke-width="3.0" fill="none" stroke="rgb(1, 0, 0)" stroke-opacity="0.30857614" stroke-linecap="round" stroke-linejoin="round"/>
    <path d="M 121.44767761230469 97.39594268798828 C 120.02201843261719 97.02874755859375 122.6047134399414 92.97684478759766 119.94313049316406 94.58958435058594" stroke-width="3.0" fill="none" stroke="rgb(0, 1, -1)" stroke-opacity="0.47668913" stroke-linecap="round" stroke-linejoin="round"/>
    <path d="M 80.70445251464844 124.02416229248047 C 90.0191650390625 139.61277770996094 81.2048568725586 134.96104431152344 81.9848861694336 129.69732666015625" stroke-width="3.0" fill="none" stroke="rgb(0, 1, 0)" stroke-opacity="0.18386349" stroke-linecap="round" stroke-linejoin="round"/>
    <path d="M 58.09923553466797 233.97496032714844 C 62.74176025390625 227.54098510742188 55.8004150390625 232.1405487060547 44.8784065246582 229.44593811035156" stroke-width="3.0" fill="none" stroke="rgb(0, 0, 0)" stroke-opacity="0.8515535" stroke-linecap="round" stroke-linejoin="round"/>
    <path d="M 159.4984893798828 77.95787048339844 C 166.65821838378906 87.8276596069336 169.17691040039062 87.09215545654297 156.4754180908203 86.05789947509766" stroke-width="3.0" fill="none" stroke="rgb(2, -2, 2)" stroke-opacity="0.4552544" stroke-linecap="round" stroke-linejoin="round"/>
    <path d="M 47.51864242553711 185.33750915527344 C 49.45180892944336 184.0724639892578 42.56950378417969 186.13555908203125 47.70632553100586 186.58242797851562" stroke-width="3.0" fill="none" stroke="rgb(1, -1, 2)" stroke-opacity="0.5118721" stroke-linecap="round" stroke-linejoin="round"/>
    <path d="M 160.11056518554688 37.021358489990234 C 160.47824096679688 37.10190963745117 159.5348663330078 39.754066467285156 159.93093872070312 38.0081901550293" stroke-width="3.0" fill="none" stroke="rgb(1, 0, 0)" stroke-opacity="0.26428592" stroke-linecap="round" stroke-linejoin="round"/>
    <path d="M 147.56549072265625 18.717266082763672 C 148.10487365722656 18.772117614746094 146.59512329101562 21.883682250976562 145.7522430419922 21.38447380065918" stroke-width="3.0" fill="none" stroke="rgb(0, 0, 0)" stroke-opacity="0.6102965" stroke-linecap="round" stroke-linejoin="round"/>
    <path d="M 128.7402801513672 72.18280029296875 C 161.10694885253906 82.75333404541016 154.55096435546875 92.68717193603516 163.50880432128906 86.33320617675781" stroke-width="3.0" fill="none" stroke="rgb(1, 1, -2)" stroke-opacity="0.23752923" stroke-linecap="round" stroke-linejoin="round"/>
    <path d="M 154.91539001464844 44.12724685668945 C 160.35598754882812 42.10976028442383 162.1685791015625 37.84026336669922 155.9646453857422 45.374080657958984" stroke-width="3.0" fill="none" stroke="rgb(1, 0, 0)" stroke-opacity="0.1879758" stroke-linecap="round" stroke-linejoin="round"/>
    <path d="M 94.47146606445312 212.53729248046875 C 94.61163330078125 212.8986053466797 94.02228546142578 212.31094360351562 94.51689147949219 212.6332244873047" stroke-width="3.0" fill="none" stroke="rgb(0, 0, 0)" stroke-opacity="0.24470656" stroke-linecap="round" stroke-linejoin="round"/>
    <path d="M 37.393680572509766 183.5458984375 C 58.67885971069336 191.20025634765625 45.12356185913086 184.24253845214844 51.4693603515625 187.3411865234375" stroke-width="3.0" fill="none" stroke="rgb(1, 0, 0)" stroke-opacity="0.20434915" stroke-linecap="round" stroke-linejoin="round"/>
    <path d="M 88.58152770996094 46.263648986816406 C 99.39007568359375 43.917388916015625 90.22858428955078 40.75728988647461 89.38468170166016 44.035560607910156" stroke-width="3.0" fill="none" stroke="rgb(3, -1, 0)" stroke-opacity="0.30491406" stroke-linecap="round" stroke-linejoin="round"/>
    <path d="M 132.70855712890625 33.66432189941406 C 125.40120697021484 24.037519454956055 132.94033813476562 32.13645935058594 129.64183044433594 31.094112396240234" stroke-width="3.0" fill="none" stroke="rgb(-1, 0, 3)" stroke-opacity="0.47878358" stroke-linecap="round" stroke-linejoin="round"/>
    <path d="M 125.2409439086914 151.8651580810547 C 125.95952606201172 151.90589904785156 118.51193237304688 139.9618377685547 106.54178619384766 126.59683990478516" stroke-width="3.0" fill="none" stroke="rgb(2, -1, -1)" stroke-opacity="0.3625708" stroke-linecap="round" stroke-linejoin="round"/>
    <path d="M 9.616783142089844 146.84645080566406 C 17.572473526000977 120.83418273925781 9.629751205444336 130.45814514160156 -6.529804706573486 137.04559326171875" stroke-width="3.0" fill="none" stroke="rgb(0, 0, 1)" stroke-opacity="0.21082109" stroke-linecap="round" stroke-linejoin="round"/>
    <path d="M 71.12237548828125 69.43872833251953 C 91.83364868164062 75.25160217285156 91.29739379882812 61.16898727416992 91.75778198242188 61.96881866455078" stroke-width="3.0" fill="none" stroke="rgb(-1, -1, 1)" stroke-opacity="0.3170426" stroke-linecap="round" stroke-linejoin="round"/>
    <path d="M -6.121799945831299 138.67843627929688 C 20.80483055114746 137.90902709960938 4.834885597229004 137.0507049560547 6.734536647796631 147.0598907470703" stroke-width="3.0" fill="none" stroke="rgb(2, -2, 1)" stroke-opacity="0.23912339" stroke-linecap="round" stroke-linejoin="round"/>
    <path d="M 135.693603515625 40.49205780029297 C 133.59327697753906 50.83915710449219 134.37789916992188 40.86604690551758 143.4459228515625 52.398719787597656" stroke-width="3.0" fill="none" stroke="rgb(2, -1, -2)" stroke-opacity="0.38364226" stroke-linecap="round" stroke-linejoin="round"/>
    <path d="M 145.6337432861328 76.935546875 C 139.14956665039062 79.04488372802734 143.65538024902344 75.65338134765625 143.5974578857422 76.82252502441406" stroke-width="3.0" fill="none" stroke="rgb(1, -1, 0)" stroke-opacity="0.50138545" stroke-linecap="round" stroke-linejoin="round"/>
    <path d="M 150.67369079589844 -6.621047496795654 C 150.97564697265625 -6.199038982391357 152.74050903320312 -4.035140037536621 153.63426208496094 -3.3396494388580322" stroke-width="3.0" fill="none" stroke="rgb(0, 0, 0)" stroke-opacity="0.67119235" stroke-linecap="round" stroke-linejoin="round"/>
    <path d="M 136.0402069091797 130.8954620361328 C 133.9897918701172 125.403076171875 140.7973175048828 137.0178985595703 137.92771911621094 132.4253692626953" stroke-width="3.0" fill="none" stroke="rgb(1, -1, 2)" stroke-opacity="0.49016824" stroke-linecap="round" stroke-linejoin="round"/>
    <path d="M 69.70250701904297 76.21919250488281 C 75.06061553955078 81.16001892089844 81.67353057861328 78.907470703125 71.35399627685547 83.69164276123047" stroke-width="3.0" fill="none" stroke="rgb(1, 0, 0)" stroke-opacity="0.42558783" stroke-linecap="round" stroke-linejoin="round"/>
    <path d="M 72.18700408935547 83.84639739990234 C 90.7813720703125 71.84534454345703 87.22480010986328 68.35639190673828 76.37568664550781 74.80133819580078" stroke-width="3.0" fill="none" stroke="rgb(-1, 1, 1)" stroke-opacity="0.2580477" stroke-linecap="round" stroke-linejoin="round"/>
    <path d="M 47.02559280395508 182.32852172851562 C 47.78028106689453 184.53387451171875 47.595211029052734 190.25282287597656 45.65724182128906 180.00970458984375" stroke-width="3.0" fill="none" stroke="rgb(0, -1, 1)" stroke-opacity="0.30335468" stroke-linecap="round" stroke-linejoin="round"/>
    <path d="M 76.90518188476562 166.92355346679688 C 75.50634765625 166.7628631591797 85.15027618408203 166.57330322265625 82.4655532836914 166.43409729003906" stroke-width="3.0" fill="none" stroke="rgb(0, 1, 1)" stroke-opacity="0.019305449" stroke-linecap="round" stroke-linejoin="round"/>
    <path d="M 1.7563490867614746 136.67588806152344 C 17.92201805114746 129.80271911621094 17.18660545349121 139.45921325683594 6.82545804977417 134.77853393554688" stroke-width="3.0" fill="none" stroke="rgb(1, -2, 1)" stroke-opacity="0.22077788" stroke-linecap="round" stroke-linejoin="round"/>
    <path d="M 126.82218933105469 18.283058166503906 C 126.83995819091797 21.215408325195312 126.85404968261719 13.726112365722656 126.67255401611328 14.825843811035156" stroke-width="3.0" fill="none" stroke="rgb(1, 0, 0)" stroke-opacity="0.22539005" stroke-linecap="round" stroke-linejoin="round"/>
    <path d="M 93.76698303222656 36.66579055786133 C 92.74200439453125 35.10676574707031 93.7466812133789 38.135982513427734 91.63230895996094 38.37104034423828" stroke-width="3.0" fill="none" stroke="rgb(2, -2, 3)" stroke-opacity="0.43437192" stroke-linecap="round" stroke-linejoin="round"/>
    <path d="M 120.89041900634766 68.4237289428711 C 122.23297119140625 74.86932373046875 122.4350357055664 79.59304809570312 122.22383880615234 69.77050018310547" stroke-width="3.0" fill="none" stroke="rgb(1, 0, 0)" stroke-opacity="0.41539186" stroke-linecap="round" stroke-linejoin="round"/>
    <path d="M -6.818183898925781 119.80342102050781 C -8.19217586517334 122.68328094482422 -4.670185565948486 126.44219970703125 -7.267360210418701 138.46189880371094" stroke-width="3.0" fill="none" stroke="rgb(0, 0, 0)" stroke-opacity="0.92414016" stroke-linecap="round" stroke-linejoin="round"/>
    <path d="M 145.54515075683594 21.208662033081055 C 144.18389892578125 25.59241485595703 146.9039764404297 19.51008415222168 147.70877075195312 20.734333038330078" stroke-width="3.0" fill="none" stroke="rgb(1, 0, 0)" stroke-opacity="0.6811353" stroke-linecap="round" stroke-linejoin="round"/>
    <path d="M 148.15769958496094 45.350528717041016 C 158.44189453125 45.63926315307617 153.34019470214844 48.20499038696289 133.79925537109375 43.43699645996094" stroke-width="3.0" fill="none" stroke="rgb(1, -1, 0)" stroke-opacity="0.09309883" stroke-linecap="round" stroke-linejoin="round"/>
    <path d="M 78.54766082763672 63.47068405151367 C 79.21187591552734 65.33619689941406 71.3756103515625 60.093902587890625 77.89108276367188 63.376731872558594" stroke-width="3.0" fill="none" stroke="rgb(1, -2, 4)" stroke-opacity="0.42048362" stroke-linecap="round" stroke-linejoin="round"/>
    <path d="M 130.1934814453125 148.09132385253906 C 124.0244140625 157.192138671875 140.17913818359375 144.574462890625 116.21570587158203 136.6485595703125" stroke-width="3.0" fill="none" stroke="rgb(1, 0, -3)" stroke-opacity="0.21177582" stroke-linecap="round" stroke-linejoin="round"/>
    <path d="M 191.87420654296875 171.78152465820312 C 191.68670654296875 168.51895141601562 193.39126586914062 182.53781127929688 191.15518188476562 181.499267578125" stroke-width="3.0" fill="none" stroke="rgb(0, 0, 0)" stroke-opacity="0.057830364" stroke-linecap="round" stroke-linejoin="round"/>
    <path d="M 61.69289779663086 142.9884796142578 C 91.28202819824219 146.13729858398438 82.56404876708984 143.51756286621094 95.11866760253906 141.93804931640625" stroke-width="3.0" fill="none" stroke="rgb(0, 1, -2)" stroke-opacity="0.2302072" stroke-linecap="round" stroke-linejoin="round"/>
    <path d="M 129.4244842529297 54.12561798095703 C 145.53807067871094 52.6861457824707 134.5021209716797 53.49814224243164 140.21768188476562 56.07526779174805" stroke-width="3.0" fill="none" stroke="rgb(1, 0, -1)" stroke-opacity="0.18988948" stroke-linecap="round" stroke-linejoin="round"/>
    <path d="M 112.28572845458984 116.2243423461914 C 110.78479766845703 122.25200653076172 113.6968002319336 117.49807739257812 110.20281982421875 115.1904067993164" stroke-width="3.0" fill="none" stroke="rgb(1, 0, -1)" stroke-opacity="0.2095703" stroke-linecap="round" stroke-linejoin="round"/>
    <path d="M 140.6013946533203 152.01626586914062 C 140.6292724609375 150.5204620361328 150.05555725097656 147.0399932861328 139.63363647460938 135.53805541992188" stroke-width="3.0" fill="none" stroke="rgb(-1, 0, 1)" stroke-opacity="0.20049338" stroke-linecap="round" stroke-linejoin="round"/>
    <path d="M 68.74444580078125 228.76568603515625 C 79.63856506347656 228.32652282714844 62.01775360107422 228.0784912109375 76.66768646240234 231.40283203125" stroke-width="3.0" fill="none" stroke="rgb(0, 0, 0)" stroke-opacity="0.8438707" stroke-linecap="round" stroke-linejoin="round"/>
    <path d="M 83.06463623046875 58.42451477050781 C 90.43319702148438 48.712554931640625 92.34341430664062 46.712982177734375 86.52461242675781 57.912925720214844" stroke-width="3.0" fill="none" stroke="rgb(0, -1, 1)" stroke-opacity="0.30627295" stroke-linecap="round" stroke-linejoin="round"/>
    <path d="M 109.37457275390625 41.441341400146484 C 95.89210510253906 48.586116790771484 98.97959899902344 51.863101959228516 91.31309509277344 58.45124816894531" stroke-width="3.0" fill="none" stroke="rgb(-4, 1, 2)" stroke-opacity="0.20519213" stroke-linecap="round" stroke-linejoin="round"/>
    <path d="M 131.01214599609375 118.85303497314453 C 130.06349182128906 109.11122131347656 129.08596801757812 102.34624481201172 129.56546020507812 110.72708129882812" stroke-width="3.0" fill="none" stroke="rgb(0, 1, 0)" stroke-opacity="0.20861083" stroke-linecap="round" stroke-linejoin="round"/>
    <path d="M 135.30670166015625 91.82695770263672 C 135.8126220703125 92.24906921386719 135.43515014648438 91.65286254882812 135.60035705566406 91.6856460571289" stroke-width="3.0" fill="none" stroke="rgb(0, 0, 0)" stroke-opacity="0.29961267" stroke-linecap="round" stroke-linejoin="round"/>
    <path d="M 83.6314926147461 54.78187561035156 C 73.83329772949219 47.14114761352539 80.10032653808594 54.824405670166016 85.0789794921875 47.83858108520508" stroke-width="3.0" fill="none" stroke="rgb(1, 0, 0)" stroke-opacity="0.30820155" stroke-linecap="round" stroke-linejoin="round"/>
    <path d="M 145.41665649414062 22.14374542236328 C 146.23828125 20.27558135986328 146.0802459716797 27.25994300842285 143.39442443847656 24.939599990844727" stroke-width="3.0" fill="none" stroke="rgb(0, 0, 0)" stroke-opacity="0.6553435" stroke-linecap="round" stroke-linejoin="round"/>
    <path d="M -8.690119743347168 98.6619873046875 C -3.5797417163848877 98.0338363647461 -12.229310035705566 95.54146575927734 -8.368426322937012 94.0306625366211" stroke-width="3.0" fill="none" stroke="rgb(0, 0, 0)" stroke-opacity="0.72668016" stroke-linecap="round" stroke-linejoin="round"/>
    <path d="M 58.685028076171875 143.05088806152344 C 58.173423767089844 137.0452880859375 56.17369079589844 139.1892547607422 56.5794792175293 146.80052185058594" stroke-width="3.0" fill="none" stroke="rgb(0, 1, -1)" stroke-opacity="0.20760256" stroke-linecap="round" stroke-linejoin="round"/>
    <path d="M 93.69235229492188 34.36357498168945 C 105.01288604736328 29.927196502685547 98.81886291503906 35.01821517944336 96.64258575439453 35.495567321777344" stroke-width="3.0" fill="none" stroke="rgb(0, -1, 3)" stroke-opacity="0.17945774" stroke-linecap="round" stroke-linejoin="round"/>
    <path d="M 138.59083557128906 153.79949951171875 C 142.89566040039062 149.7905731201172 147.72267150878906 141.2083282470703 133.91336059570312 158.6160430908203" stroke-width="3.0" fill="none" stroke="rgb(2, -1, 1)" stroke-opacity="0.5693834" stroke-linecap="round" stroke-linejoin="round"/>
    <path d="M 99.49275970458984 115.96910095214844 C 93.03958892822266 108.47576904296875 96.3019027709961 112.09056854248047 93.68682098388672 110.0376205444336" stroke-width="3.0" fill="none" stroke="rgb(0, 0, 0)" stroke-opacity="0.036461245" stroke-linecap="round" stroke-linejoin="round"/>
    <path d="M 158.09239196777344 83.71424865722656 C 138.7715301513672 70.44336700439453 134.3765106201172 70.92776489257812 154.30368041992188 84.01997375488281" stroke-width="3.0" fill="none" stroke="rgb(0, 0, 1)" stroke-opacity="0.29250512" stroke-linecap="round" stroke-linejoin="round"/>
    <path d="M 99.95126342773438 127.15887451171875 C 104.84412384033203 122.73017883300781 100.62393188476562 126.31393432617188 100.4927749633789 127.21007537841797" stroke-width="3.0" fill="none" stroke="rgb(0, 0, 0)" stroke-opacity="0.426614" stroke-linecap="round" stroke-linejoin="round"/>
    <path d="M -4.731990814208984 150.544189453125 C 7.065525531768799 150.61862182617188 11.561326026916504 145.04629516601562 3.4892938137054443 155.45736694335938" stroke-width="3.0" fill="none" stroke="rgb(1, 0, -2)" stroke-opacity="0.64598244" stroke-linecap="round" stroke-linejoin="round"/>
    <path d="M 146.52133178710938 58.21306610107422 C 132.68734741210938 53.931793212890625 134.40838623046875 55.398216247558594 144.72647094726562 55.91639709472656" stroke-width="3.0" fill="none" stroke="rgb(0, 0, -1)" stroke-opacity="0.23651929" stroke-linecap="round" stroke-linejoin="round"/>
    <path d="M 152.4706268310547 40.87266540527344 C 160.14768981933594 38.123252868652344 160.47622680664062 37.43318176269531 159.28688049316406 39.14616012573242" stroke-width="3.0" fill="none" stroke="rgb(0, 0, 0)" stroke-opacity="0.07612387" stroke-linecap="round" stroke-linejoin="round"/>
    <path d="M 231.72152709960938 216.01651000976562 C 233.4080810546875 212.9885711669922 236.76475524902344 211.52842712402344 233.7650604248047 208.61058044433594" stroke-width="3.0" fill="none" stroke="rgb(0, 0, 0)" stroke-opacity="0.8223263" stroke-linecap="round" stroke-linejoin="round"/>
    <path d="M 125.20893096923828 70.80867767333984 C 117.49678802490234 65.59243774414062 121.23657989501953 63.79859161376953 122.85414123535156 72.92121124267578" stroke-width="3.0" fill="none" stroke="rgb(1, 0, 0)" stroke-opacity="0.3077969" stroke-linecap="round" stroke-linejoin="round"/>
    <path d="M 122.94685363769531 87.75961303710938 C 126.10527038574219 86.47866821289062 124.16480255126953 85.01738739013672 128.8755340576172 105.36115264892578" stroke-width="3.0" fill="none" stroke="rgb(0, 0, 0)" stroke-opacity="0.1844485" stroke-linecap="round" stroke-linejoin="round"/>
    <path d="M 87.87405395507812 49.95335006713867 C 89.34699249267578 53.004737854003906 84.69962310791016 47.31827163696289 89.76589965820312 39.24842071533203" stroke-width="3.0" fill="none" stroke="rgb(0, 0, 0)" stroke-opacity="0.2590574" stroke-linecap="round" stroke-linejoin="round"/>
    <path d="M -5.602382659912109 145.47100830078125 C 10.609514236450195 149.19989013671875 6.799483299255371 142.44125366210938 2.0239598751068115 157.7586669921875" stroke-width="3.0" fill="none" stroke="rgb(1, 2, -3)" stroke-opacity="0.65325755" stroke-linecap="round" stroke-linejoin="round"/>
    <path d="M 7.146709442138672 118.64592742919922 C 6.273386478424072 112.91996765136719 7.404256820678711 116.8858413696289 6.028046607971191 116.7532958984375" stroke-width="3.0" fill="none" stroke="rgb(1, 0, -2)" stroke-opacity="0.45182917" stroke-linecap="round" stroke-linejoin="round"/>
    <path d="M 63.786033630371094 86.12290954589844 C 70.80654907226562 78.39537811279297 76.98626708984375 93.1724853515625 46.66111373901367 83.91307067871094" stroke-width="3.0" fill="none" stroke="rgb(0, 1, -1)" stroke-opacity="0.32531118" stroke-linecap="round" stroke-linejoin="round"/>
    <path d="M 30.7096004486084 110.34700775146484 C 35.39907455444336 137.68997192382812 39.79665756225586 129.42808532714844 8.494588851928711 165.19288635253906" stroke-width="3.0" fill="none" stroke="rgb(0, 0, 0)" stroke-opacity="0.21634239" stroke-linecap="round" stroke-linejoin="round"/>
    <path d="M 107.34915161132812 28.129413604736328 C 109.73636627197266 24.857898712158203 109.77436065673828 27.523117065429688 106.17801666259766 28.366439819335938" stroke-width="3.0" fill="none" stroke="rgb(1, 0, -1)" stroke-opacity="0.51610076" stroke-linecap="round" stroke-linejoin="round"/>
    <path d="M 119.642822265625 156.04586791992188 C 87.30911254882812 135.5382080078125 89.22508239746094 135.29429626464844 96.18097686767578 141.79910278320312" stroke-width="3.0" fill="none" stroke="rgb(1, 0, -2)" stroke-opacity="0.16343728" stroke-linecap="round" stroke-linejoin="round"/>
    <path d="M 118.00733947753906 80.13980102539062 C 121.51934814453125 83.39433288574219 123.68709564208984 95.44705963134766 126.21896362304688 100.48986053466797" stroke-width="3.0" fill="none" stroke="rgb(0, 0, 0)" stroke-opacity="0.2534236" stroke-linecap="round" stroke-linejoin="round"/>
    <path d="M 23.007417678833008 213.97213745117188 C 23.47066879272461 214.78147888183594 27.65385627746582 210.40176391601562 23.470733642578125 214.531494140625" stroke-width="3.0" fill="none" stroke="rgb(0, 1, -1)" stroke-opacity="0.111485" stroke-linecap="round" stroke-linejoin="round"/>
    <path d="M 81.58893585205078 70.30260467529297 C 78.5240249633789 70.15873718261719 96.71237182617188 66.80904388427734 83.2858657836914 65.8073959350586" stroke-width="3.0" fill="none" stroke="rgb(1, 0, 1)" stroke-opacity="0.40613988" stroke-linecap="round" stroke-linejoin="round"/>
    <path d="M 30.636629104614258 229.18016052246094 C 33.6291618347168 231.0612030029297 37.06777572631836 222.63987731933594 35.25887680053711 228.5851287841797" stroke-width="3.0" fill="none" stroke="rgb(0, 0, 0)" stroke-opacity="0.7806264" stroke-linecap="round" stroke-linejoin="round"/>
    <path d="M -4.346107006072998 150.75401306152344 C -2.10748553276062 150.7646484375 7.486178398132324 139.5785675048828 -1.7320338487625122 160.1511993408203" stroke-width="3.0" fill="none" stroke="rgb(1, 3, -3)" stroke-opacity="0.71095085" stroke-linecap="round" stroke-linejoin="round"/>
    <path d="M 158.61573791503906 153.3206024169922 C 158.0652618408203 152.7110137939453 158.68698120117188 152.99578857421875 158.84201049804688 152.40899658203125" stroke-width="3.0" fill="none" stroke="rgb(0, 0, 0)" stroke-opacity="0.2322615" stroke-linecap="round" stroke-linejoin="round"/>
    <path d="M 156.044189453125 39.065757751464844 C 160.69561767578125 42.49445724487305 157.19937133789062 38.87983322143555 157.01937866210938 38.21023941040039" stroke-width="3.0" fill="none" stroke="rgb(0, 0, 0)" stroke-opacity="0.10974158" stroke-linecap="round" stroke-linejoin="round"/>
    <path d="M 71.77752685546875 231.97311401367188 C 55.61968231201172 232.4866943359375 72.3536148071289 233.37689208984375 73.05277252197266 228.5189971923828" stroke-width="3.0" fill="none" stroke="rgb(0, 0, 0)" stroke-opacity="0.6429863" stroke-linecap="round" stroke-linejoin="round"/>
    <path d="M 126.26080322265625 124.00006866455078 C 119.2926254272461 133.93032836914062 113.36031341552734 131.9419708251953 111.23548126220703 126.23895263671875" stroke-width="3.0" fill="none" stroke="rgb(0, 0, -1)" stroke-opacity="0.31967944" stroke-linecap="round" stroke-linejoin="round"/>
    <path d="M 87.93538665771484 140.94725036621094 C 79.31519317626953 143.63783264160156 88.30571746826172 134.8836212158203 87.97191619873047 140.62091064453125" stroke-width="3.0" fill="none" stroke="rgb(0, 0, 1)" stroke-opacity="0.24183445" stroke-linecap="round" stroke-linejoin="round"/>
    <path d="M 168.63687133789062 230.9974822998047 C 187.0454559326172 228.065673828125 182.54397583007812 230.76502990722656 177.88485717773438 227.25587463378906" stroke-width="3.0" fill="none" stroke="rgb(0, 0, 0)" stroke-opacity="0.5132305" stroke-linecap="round" stroke-linejoin="round"/>
    <path d="M 130.7572021484375 119.77178955078125 C 136.4526824951172 131.77566528320312 134.63804626464844 128.96774291992188 137.69801330566406 133.02699279785156" stroke-width="3.0" fill="none" stroke="rgb(0, 0, 2)" stroke-opacity="0.2550384" stroke-linecap="round" stroke-linejoin="round"/>
  </g>
</svg>
