<?xml version="1.0" ?>
<svg xmlns="http://www.w3.org/2000/svg" version="1.1" width="224" height="224">
  <defs/>
  <g>
    <path d="M 142.54641723632812 34.566558837890625 C 127.52037048339844 65.97525024414062 145.76486206054688 18.195465087890625 135.4330291748047 43.576011657714844" stroke-width="3.0" fill="none" stroke="rgb(1, 0, 0)" stroke-opacity="0.6992063" stroke-linecap="round" stroke-linejoin="round"/>
    <path d="M 33.151832580566406 163.81112670898438 C 83.73812103271484 102.0124740600586 8.266413688659668 175.65809631347656 38.89404296875 169.12506103515625" stroke-width="3.0" fill="none" stroke="rgb(0, -2, 2)" stroke-opacity="0.16290785" stroke-linecap="round" stroke-linejoin="round"/>
    <path d="M 154.97616577148438 68.15461730957031 C 134.36964416503906 34.9907341003418 164.20706176757812 52.25251770019531 136.48733520507812 43.270721435546875" stroke-width="3.0" fill="none" stroke="rgb(-2, -1, 2)" stroke-opacity="0.2322012" stroke-linecap="round" stroke-linejoin="round"/>
    <path d="M 109.03392028808594 93.82952880859375 C 127.38204956054688 124.41252899169922 104.85135650634766 11.872583389282227 118.56389617919922 60.33187484741211" stroke-width="3.0" fill="none" stroke="rgb(1, 0, 0)" stroke-opacity="0.028974941" stroke-linecap="round" stroke-linejoin="round"/>
    <path d="M 99.8492202758789 188.69204711914062 C 119.09103393554688 154.31784057617188 120.03544616699219 166.244140625 130.6346435546875 167.60818481445312" stroke-width="3.0" fill="none" stroke="rgb(-1, -2, 2)" stroke-opacity="0.3237847" stroke-linecap="round" stroke-linejoin="round"/>
    <path d="M 138.8726043701172 76.30528259277344 C 130.98196411132812 61.307518005371094 131.77130126953125 89.01142120361328 150.44760131835938 76.30360412597656" stroke-width="3.0" fill="none" stroke="rgb(0, 0, 0)" stroke-opacity="0.1063627" stroke-linecap="round" stroke-linejoin="round"/>
    <path d="M 102.07908630371094 205.0724334716797 C 141.33169555664062 222.88780212402344 105.1552963256836 148.6914520263672 112.30879974365234 217.92808532714844" stroke-width="3.0" fill="none" stroke="rgb(-1, 0, -1)" stroke-opacity="0.019250322" stroke-linecap="round" stroke-linejoin="round"/>
    <path d="M 140.55712890625 43.27250289916992 C 150.8204803466797 12.238706588745117 149.62612915039062 24.501667022705078 137.9368896484375 42.16380310058594" stroke-width="3.0" fill="none" stroke="rgb(0, 0, 0)" stroke-opacity="-0.010863885" stroke-linecap="round" stroke-linejoin="round"/>
    <path d="M 166.81288146972656 -8.998356819152832 C 159.72152709960938 -34.59311294555664 171.9356689453125 -23.001728057861328 153.0705108642578 6.747560501098633" stroke-width="3.0" fill="none" stroke="rgb(-1, 0, 1)" stroke-opacity="0.36439264" stroke-linecap="round" stroke-linejoin="round"/>
    <path d="M 135.2419891357422 143.45130920410156 C 151.4898681640625 173.75831604003906 114.37451171875 123.31961822509766 130.4767303466797 150.5026397705078" stroke-width="3.0" fill="none" stroke="rgb(1, -1, -1)" stroke-opacity="0.12673269" stroke-linecap="round" stroke-linejoin="round"/>
    <path d="M 108.42225646972656 189.6046142578125 C 151.47177124023438 146.1026611328125 116.86149597167969 178.34580993652344 143.59805297851562 147.3446044921875" stroke-width="3.0" fill="none" stroke="rgb(-3, -1, 3)" stroke-opacity="0.28100803" stroke-linecap="round" stroke-linejoin="round"/>
    <path d="M 108.01551818847656 29.597015380859375 C 122.8144760131836 28.602333068847656 120.03168487548828 25.024303436279297 106.7691650390625 27.038171768188477" stroke-width="3.0" fill="none" stroke="rgb(1, -3, 3)" stroke-opacity="0.08908216" stroke-linecap="round" stroke-linejoin="round"/>
    <path d="M 104.70905303955078 34.75722885131836 C 107.3316650390625 34.363929748535156 109.3350830078125 42.638099670410156 128.47341918945312 34.531715393066406" stroke-width="3.0" fill="none" stroke="rgb(-2, -2, 2)" stroke-opacity="0.22603428" stroke-linecap="round" stroke-linejoin="round"/>
    <path d="M 73.89861297607422 75.91497802734375 C 94.69361114501953 70.74842834472656 106.461181640625 18.47870635986328 86.90437316894531 64.3453140258789" stroke-width="3.0" fill="none" stroke="rgb(0, 0, 0)" stroke-opacity="0.02580651" stroke-linecap="round" stroke-linejoin="round"/>
    <path d="M 118.41727447509766 184.39089965820312 C 76.14009094238281 188.80003356933594 143.3129425048828 170.4123992919922 108.25660705566406 149.58412170410156" stroke-width="3.0" fill="none" stroke="rgb(0, -1, 1)" stroke-opacity="0.30440065" stroke-linecap="round" stroke-linejoin="round"/>
    <path d="M 118.02899169921875 25.279447555541992 C 110.34795379638672 25.822330474853516 106.17401123046875 34.876068115234375 123.07474517822266 33.74321746826172" stroke-width="3.0" fill="none" stroke="rgb(1, -2, 2)" stroke-opacity="0.16848125" stroke-linecap="round" stroke-linejoin="round"/>
    <path d="M -3.363762617111206 132.53884887695312 C 9.94971752166748 155.7775115966797 17.87381935119629 148.1160430908203 -37.419158935546875 151.39352416992188" stroke-width="3.0" fill="none" stroke="rgb(1, 0, -2)" stroke-opacity="0.26742667" stroke-linecap="round" stroke-linejoin="round"/>
    <path d="M 159.63449096679688 -5.308403968811035 C 152.94979858398438 1.4162932634353638 157.1160430908203 -1.3686786890029907 160.0554962158203 -7.70130729675293" stroke-width="3.0" fill="none" stroke="rgb(0, 0, 0)" stroke-opacity="0.92559004" stroke-linecap="round" stroke-linejoin="round"/>
    <path d="M 141.46522521972656 73.55805969238281 C 178.10775756835938 84.69097137451172 154.77931213378906 88.0587158203125 158.39524841308594 89.42501068115234" stroke-width="3.0" fill="none" stroke="rgb(0, -1, 2)" stroke-opacity="0.054138795" stroke-linecap="round" stroke-linejoin="round"/>
    <path d="M 162.49932861328125 128.0618896484375 C 162.06944274902344 127.90174865722656 159.27110290527344 128.35687255859375 170.15879821777344 128.15744018554688" stroke-width="3.0" fill="none" stroke="rgb(0, 0, 0)" stroke-opacity="0.011020484" stroke-linecap="round" stroke-linejoin="round"/>
    <path d="M 101.47539520263672 74.3050308227539 C 149.99337768554688 27.777053833007812 141.18345642089844 25.801244735717773 127.47325897216797 35.64990997314453" stroke-width="3.0" fill="none" stroke="rgb(0, 0, 0)" stroke-opacity="0.016496507" stroke-linecap="round" stroke-linejoin="round"/>
    <path d="M 83.43826293945312 57.153202056884766 C 92.72220611572266 40.844459533691406 96.27799224853516 44.16679763793945 96.12725067138672 40.579811096191406" stroke-width="3.0" fill="none" stroke="rgb(0, -1, 2)" stroke-opacity="0.06422278" stroke-linecap="round" stroke-linejoin="round"/>
    <path d="M 48.71516418457031 83.585693359375 C -11.837645530700684 65.56049346923828 11.003193855285645 187.36521911621094 10.520938873291016 97.80986022949219" stroke-width="3.0" fill="none" stroke="rgb(-1, -2, 2)" stroke-opacity="0.118710056" stroke-linecap="round" stroke-linejoin="round"/>
    <path d="M 117.06985473632812 25.377460479736328 C 125.05451202392578 30.824832916259766 114.02339172363281 33.651695251464844 118.07666778564453 28.13435935974121" stroke-width="3.0" fill="none" stroke="rgb(0, 0, 0)" stroke-opacity="0.030495595" stroke-linecap="round" stroke-linejoin="round"/>
    <path d="M 67.8233642578125 74.75674438476562 C 90.51329040527344 77.54871368408203 75.89656066894531 72.65821838378906 80.33497619628906 77.2015609741211" stroke-width="3.0" fill="none" stroke="rgb(1, 0, 0)" stroke-opacity="0.27596036" stroke-linecap="round" stroke-linejoin="round"/>
    <path d="M 28.201108932495117 231.43572998046875 C 40.02243423461914 227.71139526367188 33.62752914428711 233.30958557128906 26.912353515625 232.17442321777344" stroke-width="3.0" fill="none" stroke="rgb(0, 0, 0)" stroke-opacity="0.81648004" stroke-linecap="round" stroke-linejoin="round"/>
    <path d="M 116.16016387939453 233.30160522460938 C 112.0353012084961 232.6982879638672 115.86803436279297 233.1011505126953 117.32878875732422 232.66514587402344" stroke-width="3.0" fill="none" stroke="rgb(0, 0, 0)" stroke-opacity="0.8969908" stroke-linecap="round" stroke-linejoin="round"/>
    <path d="M 40.51783752441406 167.58853149414062 C 37.608272552490234 122.51465606689453 47.90781784057617 110.880615234375 40.18089294433594 184.64938354492188" stroke-width="3.0" fill="none" stroke="rgb(-1, 0, 2)" stroke-opacity="0.11054637" stroke-linecap="round" stroke-linejoin="round"/>
    <path d="M 155.04124450683594 87.92233276367188 C 158.79359436035156 90.86029815673828 176.05801391601562 90.3543472290039 144.61691284179688 79.18528747558594" stroke-width="3.0" fill="none" stroke="rgb(4, -3, -4)" stroke-opacity="0.34730116" stroke-linecap="round" stroke-linejoin="round"/>
    <path d="M 12.093713760375977 168.3675994873047 C 8.471099853515625 155.76942443847656 -2.2413806915283203 199.3401336669922 1.2658898830413818 110.40757751464844" stroke-width="3.0" fill="none" stroke="rgb(2, -1, 1)" stroke-opacity="0.19438995" stroke-linecap="round" stroke-linejoin="round"/>
    <path d="M 122.60810089111328 70.7612533569336 C 93.88712310791016 29.082412719726562 123.9253158569336 77.42845916748047 145.9199676513672 66.89299774169922" stroke-width="3.0" fill="none" stroke="rgb(1, 0, 0)" stroke-opacity="0.03282094" stroke-linecap="round" stroke-linejoin="round"/>
    <path d="M 134.96128845214844 31.097951889038086 C 101.22761535644531 12.64438247680664 133.99757385253906 34.672279357910156 109.3636703491211 28.2700252532959" stroke-width="3.0" fill="none" stroke="rgb(1, -2, 2)" stroke-opacity="0.09363387" stroke-linecap="round" stroke-linejoin="round"/>
    <path d="M 97.61101531982422 52.520103454589844 C 56.88880157470703 69.30352783203125 84.95216369628906 48.77405548095703 99.40140533447266 48.17557144165039" stroke-width="3.0" fill="none" stroke="rgb(1, -1, 0)" stroke-opacity="0.057053205" stroke-linecap="round" stroke-linejoin="round"/>
    <path d="M 150.94642639160156 15.284040451049805 C 142.88038635253906 20.88275146484375 159.36151123046875 0.46993929147720337 152.6465606689453 12.303253173828125" stroke-width="3.0" fill="none" stroke="rgb(-2, 1, 1)" stroke-opacity="0.26932886" stroke-linecap="round" stroke-linejoin="round"/>
    <path d="M 146.27688598632812 37.805171966552734 C 163.45736694335938 60.16426467895508 103.97521209716797 38.65834426879883 147.0067596435547 51.31993865966797" stroke-width="3.0" fill="none" stroke="rgb(0, -2, 1)" stroke-opacity="0.10247131" stroke-linecap="round" stroke-linejoin="round"/>
    <path d="M 109.22425842285156 107.83662414550781 C 135.03286743164062 125.82754516601562 44.567081451416016 110.21023559570312 124.1080551147461 113.54139709472656" stroke-width="3.0" fill="none" stroke="rgb(1, 0, -2)" stroke-opacity="0.039663844" stroke-linecap="round" stroke-linejoin="round"/>
    <path d="M 197.33189392089844 227.94068908691406 C 193.8111572265625 227.774658203125 197.5868682861328 231.0133819580078 199.48545837402344 234.0616912841797" stroke-width="3.0" fill="none" stroke="rgb(0, 0, 0)" stroke-opacity="0.7898646" stroke-linecap="round" stroke-linejoin="round"/>
    <path d="M 115.0379638671875 38.51178741455078 C 104.90959167480469 46.10630798339844 80.59484100341797 38.65863037109375 100.44109344482422 34.56300354003906" stroke-width="3.0" fill="none" stroke="rgb(-2, 0, 2)" stroke-opacity="0.12280588" stroke-linecap="round" stroke-linejoin="round"/>
    <path d="M -8.223124504089355 108.87596893310547 C -4.999051570892334 108.8641586303711 -1.495163917541504 108.16755676269531 -6.7191548347473145 111.47850036621094" stroke-width="3.0" fill="none" stroke="rgb(0, 0, 0)" stroke-opacity="0.879689" stroke-linecap="round" stroke-linejoin="round"/>
    <path d="M 144.9361572265625 26.339696884155273 C 136.7272186279297 48.27961349487305 138.0337677001953 30.260913848876953 148.98573303222656 15.049272537231445" stroke-width="3.0" fill="none" stroke="rgb(0, 0, 0)" stroke-opacity="-0.014857826" stroke-linecap="round" stroke-linejoin="round"/>
    <path d="M 134.42420959472656 158.73426818847656 C 171.97146606445312 162.6243438720703 146.734375 157.8331298828125 221.9317626953125 158.0824737548828" stroke-width="3.0" fill="none" stroke="rgb(-1, 0, 3)" stroke-opacity="0.013964397" stroke-linecap="round" stroke-linejoin="round"/>
    <path d="M 215.54127502441406 178.72232055664062 C 218.2342071533203 211.430419921875 201.4212646484375 145.2779083251953 215.56407165527344 225.0041961669922" stroke-width="3.0" fill="none" stroke="rgb(-1, 2, -4)" stroke-opacity="0.024623062" stroke-linecap="round" stroke-linejoin="round"/>
    <path d="M 19.26581573486328 233.72268676757812 C 14.383325576782227 230.26980590820312 15.83936595916748 233.10850524902344 18.474620819091797 238.42356872558594" stroke-width="3.0" fill="none" stroke="rgb(0, 0, 0)" stroke-opacity="0.8724465" stroke-linecap="round" stroke-linejoin="round"/>
    <path d="M 151.8423614501953 174.13404846191406 C 132.7720184326172 188.24215698242188 92.68448638916016 173.97494506835938 140.61952209472656 175.97325134277344" stroke-width="3.0" fill="none" stroke="rgb(0, 0, -1)" stroke-opacity="0.013971654" stroke-linecap="round" stroke-linejoin="round"/>
    <path d="M 1.9645891189575195 183.9957275390625 C 35.31852722167969 183.3890380859375 -24.319774627685547 198.33863830566406 33.0400390625 135.23216247558594" stroke-width="3.0" fill="none" stroke="rgb(-2, 2, 0)" stroke-opacity="0.15474668" stroke-linecap="round" stroke-linejoin="round"/>
    <path d="M 132.54574584960938 71.89740753173828 C 160.79241943359375 104.40884399414062 140.117431640625 69.85504150390625 151.81787109375 81.78427124023438" stroke-width="3.0" fill="none" stroke="rgb(0, 0, 0)" stroke-opacity="0.023607412" stroke-linecap="round" stroke-linejoin="round"/>
    <path d="M 186.19985961914062 190.06781005859375 C 198.0886688232422 147.08824157714844 138.93185424804688 187.79368591308594 200.33714294433594 181.74864196777344" stroke-width="3.0" fill="none" stroke="rgb(0, 1, -1)" stroke-opacity="0.0096408855" stroke-linecap="round" stroke-linejoin="round"/>
    <path d="M 11.556397438049316 89.49360656738281 C -10.277595520019531 83.53702545166016 7.849778652191162 115.99398040771484 0.9197393655776978 97.44764709472656" stroke-width="3.0" fill="none" stroke="rgb(-2, 1, 2)" stroke-opacity="0.1412761" stroke-linecap="round" stroke-linejoin="round"/>
    <path d="M 161.0667266845703 51.3463020324707 C 170.25747680664062 77.49019622802734 158.55126953125 50.20503234863281 156.24954223632812 51.821533203125" stroke-width="3.0" fill="none" stroke="rgb(0, 0, 0)" stroke-opacity="0.01012101" stroke-linecap="round" stroke-linejoin="round"/>
    <path d="M 117.66921997070312 60.98136520385742 C 118.42354583740234 104.40882873535156 131.2134246826172 90.9375228881836 107.60655212402344 86.51749420166016" stroke-width="3.0" fill="none" stroke="rgb(1, -1, 0)" stroke-opacity="0.056746848" stroke-linecap="round" stroke-linejoin="round"/>
    <path d="M 121.63988494873047 98.94835662841797 C 118.13117980957031 102.49608612060547 116.0854263305664 80.24815368652344 124.16665649414062 101.20842742919922" stroke-width="3.0" fill="none" stroke="rgb(0, -2, 2)" stroke-opacity="0.14881404" stroke-linecap="round" stroke-linejoin="round"/>
    <path d="M 80.76764678955078 123.48878479003906 C 82.31916809082031 138.5957489013672 116.77770233154297 151.71298217773438 51.095829010009766 135.73406982421875" stroke-width="3.0" fill="none" stroke="rgb(-2, 0, 2)" stroke-opacity="0.0933819" stroke-linecap="round" stroke-linejoin="round"/>
    <path d="M 58.09988784790039 233.9757537841797 C 62.7425651550293 227.5416259765625 55.80077362060547 232.14126586914062 44.8781852722168 229.44635009765625" stroke-width="3.0" fill="none" stroke="rgb(0, 0, 0)" stroke-opacity="0.8515447" stroke-linecap="round" stroke-linejoin="round"/>
    <path d="M 163.78562927246094 77.31863403320312 C 176.1212921142578 93.40763092041016 149.8946533203125 84.13175964355469 160.92788696289062 87.62709045410156" stroke-width="3.0" fill="none" stroke="rgb(2, -2, 2)" stroke-opacity="0.25326443" stroke-linecap="round" stroke-linejoin="round"/>
    <path d="M 39.452781677246094 184.80931091308594 C 118.96149444580078 178.3030548095703 36.67938232421875 203.67572021484375 38.27695083618164 166.2646026611328" stroke-width="3.0" fill="none" stroke="rgb(0, 0, 0)" stroke-opacity="0.01922662" stroke-linecap="round" stroke-linejoin="round"/>
    <path d="M 153.5148162841797 29.174734115600586 C 162.3859405517578 25.966691970825195 162.37306213378906 48.19728469848633 155.0625457763672 29.182849884033203" stroke-width="3.0" fill="none" stroke="rgb(0, 0, 0)" stroke-opacity="0.0068787346" stroke-linecap="round" stroke-linejoin="round"/>
    <path d="M 150.00782775878906 8.352822303771973 C 153.1886444091797 0.431220680475235 138.77706909179688 6.389030456542969 149.59942626953125 14.876593589782715" stroke-width="3.0" fill="none" stroke="rgb(0, 0, 0)" stroke-opacity="-0.001443626" stroke-linecap="round" stroke-linejoin="round"/>
    <path d="M 121.17778015136719 68.8438720703125 C 148.0938720703125 79.28864288330078 136.4862518310547 69.76670837402344 163.41189575195312 87.15730285644531" stroke-width="3.0" fill="none" stroke="rgb(2, -1, 0)" stroke-opacity="0.1591824" stroke-linecap="round" stroke-linejoin="round"/>
    <path d="M 152.03656005859375 49.006710052490234 C 160.94546508789062 42.00749969482422 184.88363647460938 45.832420349121094 153.57289123535156 49.80265808105469" stroke-width="3.0" fill="none" stroke="rgb(0, 0, 0)" stroke-opacity="0.007991457" stroke-linecap="round" stroke-linejoin="round"/>
    <path d="M 103.79766082763672 216.76290893554688 C 235.93341064453125 219.15966796875 188.51380920410156 209.57861328125 87.50074005126953 208.7992706298828" stroke-width="3.0" fill="none" stroke="rgb(-1, 2, -3)" stroke-opacity="0.019872945" stroke-linecap="round" stroke-linejoin="round"/>
    <path d="M 48.32888412475586 188.90216064453125 C 58.43986892700195 199.52926635742188 -55.562889099121094 186.71754455566406 40.93327713012695 199.76022338867188" stroke-width="3.0" fill="none" stroke="rgb(0, 1, 0)" stroke-opacity="0.013586215" stroke-linecap="round" stroke-linejoin="round"/>
    <path d="M 91.23174285888672 55.13761901855469 C 101.54230499267578 32.969547271728516 70.5648422241211 66.69518280029297 90.31145477294922 38.72579574584961" stroke-width="3.0" fill="none" stroke="rgb(0, 0, 0)" stroke-opacity="-0.007693595" stroke-linecap="round" stroke-linejoin="round"/>
    <path d="M 139.05984497070312 33.19639205932617 C 119.90117645263672 23.886571884155273 142.54859924316406 33.76345443725586 124.51084899902344 25.341873168945312" stroke-width="3.0" fill="none" stroke="rgb(-1, 0, 1)" stroke-opacity="0.09066226" stroke-linecap="round" stroke-linejoin="round"/>
    <path d="M 97.56964111328125 184.52471923828125 C 147.9249267578125 148.24977111816406 126.33880615234375 156.05368041992188 106.88829040527344 124.82522583007812" stroke-width="3.0" fill="none" stroke="rgb(2, -3, 3)" stroke-opacity="0.34986338" stroke-linecap="round" stroke-linejoin="round"/>
    <path d="M 7.087006568908691 150.64645385742188 C 23.558841705322266 90.91816711425781 -42.544551849365234 77.85704040527344 -1.2252261638641357 156.2698516845703" stroke-width="3.0" fill="none" stroke="rgb(2, -1, -1)" stroke-opacity="0.099904165" stroke-linecap="round" stroke-linejoin="round"/>
    <path d="M 72.40087890625 68.30952453613281 C 94.89933013916016 73.43824768066406 88.16632843017578 62.75346374511719 97.46906280517578 49.998451232910156" stroke-width="3.0" fill="none" stroke="rgb(-2, -3, 3)" stroke-opacity="0.22034913" stroke-linecap="round" stroke-linejoin="round"/>
    <path d="M -16.233842849731445 141.43162536621094 C 5.328605651855469 136.68438720703125 19.741683959960938 132.80691528320312 3.232818841934204 154.1222381591797" stroke-width="3.0" fill="none" stroke="rgb(1, -1, 0)" stroke-opacity="0.09229814" stroke-linecap="round" stroke-linejoin="round"/>
    <path d="M 133.57705688476562 40.52505874633789 C 119.47652435302734 51.91056442260742 124.12060546875 40.90682601928711 144.55059814453125 54.16913986206055" stroke-width="3.0" fill="none" stroke="rgb(0, 0, -1)" stroke-opacity="0.044256132" stroke-linecap="round" stroke-linejoin="round"/>
    <path d="M 143.6721649169922 70.11152648925781 C 128.84486389160156 79.74468994140625 140.6624755859375 76.8509750366211 142.77597045898438 70.03153991699219" stroke-width="3.0" fill="none" stroke="rgb(1, -1, -1)" stroke-opacity="0.10837514" stroke-linecap="round" stroke-linejoin="round"/>
    <path d="M 150.67349243164062 -6.621861934661865 C 150.97457885742188 -6.207155227661133 152.7410125732422 -4.046411514282227 153.6350860595703 -3.3409194946289062" stroke-width="3.0" fill="none" stroke="rgb(0, 0, 0)" stroke-opacity="0.671082" stroke-linecap="round" stroke-linejoin="round"/>
    <path d="M 138.45933532714844 137.39694213867188 C 130.73104858398438 112.45588684082031 125.33456420898438 129.53826904296875 138.0115509033203 138.7555389404297" stroke-width="3.0" fill="none" stroke="rgb(-3, 1, 3)" stroke-opacity="0.0729209" stroke-linecap="round" stroke-linejoin="round"/>
    <path d="M 66.67715454101562 67.69710540771484 C 62.01704025268555 84.47854614257812 98.08583068847656 73.01675415039062 68.70375061035156 79.16873168945312" stroke-width="3.0" fill="none" stroke="rgb(-1, 1, 0)" stroke-opacity="0.079757184" stroke-linecap="round" stroke-linejoin="round"/>
    <path d="M 68.85092163085938 84.12076568603516 C 101.21588897705078 67.3288803100586 77.22985076904297 61.74876403808594 83.5872802734375 67.48448181152344" stroke-width="3.0" fill="none" stroke="rgb(1, -2, 1)" stroke-opacity="0.20261693" stroke-linecap="round" stroke-linejoin="round"/>
    <path d="M 32.457542419433594 169.66305541992188 C 51.72240447998047 185.0760498046875 52.665611267089844 198.71456909179688 32.852500915527344 172.3320770263672" stroke-width="3.0" fill="none" stroke="rgb(-1, -2, 2)" stroke-opacity="0.22893688" stroke-linecap="round" stroke-linejoin="round"/>
    <path d="M 46.280784606933594 166.59567260742188 C 53.66875076293945 168.9724884033203 86.71421813964844 165.63787841796875 78.45939636230469 167.31890869140625" stroke-width="3.0" fill="none" stroke="rgb(0, 0, -1)" stroke-opacity="0.012525072" stroke-linecap="round" stroke-linejoin="round"/>
    <path d="M -5.066269874572754 136.22203063964844 C 74.17652893066406 116.69313049316406 30.77440643310547 144.45220947265625 -2.1500141620635986 131.6641082763672" stroke-width="3.0" fill="none" stroke="rgb(2, -2, 1)" stroke-opacity="0.08816387" stroke-linecap="round" stroke-linejoin="round"/>
    <path d="M 133.482666015625 17.138452529907227 C 132.0728302001953 44.7156982421875 124.26399230957031 3.099647283554077 137.64144897460938 16.997047424316406" stroke-width="3.0" fill="none" stroke="rgb(0, 0, 0)" stroke-opacity="0.0059992634" stroke-linecap="round" stroke-linejoin="round"/>
    <path d="M 94.92024230957031 37.43667221069336 C 98.18572998046875 35.06086349487305 89.58452606201172 39.73323440551758 93.75201416015625 39.65708541870117" stroke-width="3.0" fill="none" stroke="rgb(0, -1, 2)" stroke-opacity="0.123684056" stroke-linecap="round" stroke-linejoin="round"/>
    <path d="M 118.16869354248047 62.74632263183594 C 131.18682861328125 83.7339859008789 108.983642578125 63.24150085449219 138.1527862548828 76.6479263305664" stroke-width="3.0" fill="none" stroke="rgb(4, -4, -4)" stroke-opacity="0.26277596" stroke-linecap="round" stroke-linejoin="round"/>
    <path d="M -6.818551540374756 119.80316162109375 C -8.192434310913086 122.68305206298828 -4.670455455780029 126.44207000732422 -7.267631530761719 138.46212768554688" stroke-width="3.0" fill="none" stroke="rgb(0, 0, 0)" stroke-opacity="0.92413706" stroke-linecap="round" stroke-linejoin="round"/>
    <path d="M 136.6142120361328 38.105751037597656 C 140.77700805664062 38.33144760131836 151.02244567871094 6.550084590911865 145.61534118652344 24.894245147705078" stroke-width="3.0" fill="none" stroke="rgb(-3, 2, 0)" stroke-opacity="0.44415474" stroke-linecap="round" stroke-linejoin="round"/>
    <path d="M 151.59548950195312 52.10624313354492 C 167.45989990234375 85.73561096191406 168.5789794921875 52.474609375 131.6797637939453 42.20083236694336" stroke-width="3.0" fill="none" stroke="rgb(0, 0, 0)" stroke-opacity="0.01626098" stroke-linecap="round" stroke-linejoin="round"/>
    <path d="M 77.9169692993164 57.876182556152344 C 83.69581604003906 53.42930603027344 63.2655029296875 58.84709167480469 77.67395782470703 65.28776550292969" stroke-width="3.0" fill="none" stroke="rgb(-2, -1, 2)" stroke-opacity="0.10948579" stroke-linecap="round" stroke-linejoin="round"/>
    <path d="M 121.67532348632812 139.0967254638672 C 138.22653198242188 160.9864501953125 137.38656616210938 139.5984649658203 116.26490783691406 137.1719970703125" stroke-width="3.0" fill="none" stroke="rgb(0, 1, -1)" stroke-opacity="0.24307953" stroke-linecap="round" stroke-linejoin="round"/>
    <path d="M 189.40708923339844 170.72410583496094 C 255.9584503173828 166.18450927734375 201.1035919189453 180.89122009277344 200.68194580078125 166.98622131347656" stroke-width="3.0" fill="none" stroke="rgb(0, 0, -1)" stroke-opacity="0.012338214" stroke-linecap="round" stroke-linejoin="round"/>
    <path d="M 32.40342712402344 131.4856414794922 C 109.56877136230469 162.57470703125 74.01213073730469 119.126220703125 125.55767822265625 162.32815551757812" stroke-width="3.0" fill="none" stroke="rgb(3, -1, -2)" stroke-opacity="0.20865884" stroke-linecap="round" stroke-linejoin="round"/>
    <path d="M 131.70387268066406 54.66022872924805 C 160.50218200683594 62.491661071777344 120.02825164794922 32.07221221923828 139.48617553710938 49.130287170410156" stroke-width="3.0" fill="none" stroke="rgb(2, -2, -2)" stroke-opacity="0.19536561" stroke-linecap="round" stroke-linejoin="round"/>
    <path d="M 109.04068756103516 115.05262756347656 C 113.32357025146484 135.8656463623047 124.42288970947266 112.96078491210938 105.47689056396484 119.92626190185547" stroke-width="3.0" fill="none" stroke="rgb(0, 1, -1)" stroke-opacity="0.10268529" stroke-linecap="round" stroke-linejoin="round"/>
    <path d="M 123.60270690917969 170.52903747558594 C 155.98655700683594 126.63322448730469 144.02377319335938 158.2509307861328 128.4733428955078 115.75183868408203" stroke-width="3.0" fill="none" stroke="rgb(0, -2, 2)" stroke-opacity="0.11038298" stroke-linecap="round" stroke-linejoin="round"/>
    <path d="M 68.74385070800781 228.76646423339844 C 79.6387939453125 228.3271026611328 62.01732635498047 228.07907104492188 76.66783142089844 231.40419006347656" stroke-width="3.0" fill="none" stroke="rgb(0, 0, 0)" stroke-opacity="0.8438608" stroke-linecap="round" stroke-linejoin="round"/>
    <path d="M 76.0539321899414 74.72364807128906 C 94.20800018310547 77.96475219726562 107.39873504638672 44.75648880004883 89.9644775390625 52.932125091552734" stroke-width="3.0" fill="none" stroke="rgb(0, 0, 0)" stroke-opacity="0.0116352895" stroke-linecap="round" stroke-linejoin="round"/>
    <path d="M 113.00326538085938 39.1409912109375 C 96.29179382324219 47.491424560546875 98.11935424804688 51.53127670288086 95.15299987792969 53.53993606567383" stroke-width="3.0" fill="none" stroke="rgb(-1, 0, 2)" stroke-opacity="0.10983138" stroke-linecap="round" stroke-linejoin="round"/>
    <path d="M 121.07064056396484 110.40122985839844 C 136.56654357910156 124.50550842285156 124.24053192138672 94.61771392822266 116.77265167236328 138.0040740966797" stroke-width="3.0" fill="none" stroke="rgb(-1, 1, -1)" stroke-opacity="0.06776082" stroke-linecap="round" stroke-linejoin="round"/>
    <path d="M 136.20883178710938 77.79752349853516 C 129.86131286621094 99.19442749023438 136.44517517089844 87.51509857177734 131.0880584716797 93.9084243774414" stroke-width="3.0" fill="none" stroke="rgb(0, 0, 0)" stroke-opacity="0.005574277" stroke-linecap="round" stroke-linejoin="round"/>
    <path d="M 84.29864501953125 64.48738861083984 C 69.9639892578125 55.53541564941406 86.41474914550781 57.014892578125 78.92620849609375 37.236419677734375" stroke-width="3.0" fill="none" stroke="rgb(0, 0, 0)" stroke-opacity="0.0050253803" stroke-linecap="round" stroke-linejoin="round"/>
    <path d="M 138.58465576171875 32.68877029418945 C 128.45718383789062 34.6046142578125 151.3852996826172 33.5551643371582 143.53517150878906 37.123931884765625" stroke-width="3.0" fill="none" stroke="rgb(0, 0, 0)" stroke-opacity="-0.0118466765" stroke-linecap="round" stroke-linejoin="round"/>
    <path d="M -8.693470001220703 98.66329193115234 C -3.5812909603118896 98.03443145751953 -12.230450630187988 95.54257202148438 -8.368865013122559 94.03115844726562" stroke-width="3.0" fill="none" stroke="rgb(0, 0, 0)" stroke-opacity="0.72664815" stroke-linecap="round" stroke-linejoin="round"/>
    <path d="M 38.184417724609375 177.44908142089844 C 62.05194091796875 104.98544311523438 58.670257568359375 165.14743041992188 32.28103256225586 167.07815551757812" stroke-width="3.0" fill="none" stroke="rgb(-2, 1, 1)" stroke-opacity="0.20325759" stroke-linecap="round" stroke-linejoin="round"/>
    <path d="M 93.54155731201172 46.755428314208984 C 97.40296173095703 25.332839965820312 93.69346618652344 37.51400375366211 90.54460144042969 59.25831985473633" stroke-width="3.0" fill="none" stroke="rgb(0, 0, 0)" stroke-opacity="-0.0024334025" stroke-linecap="round" stroke-linejoin="round"/>
    <path d="M 137.10311889648438 154.15960693359375 C 135.47998046875 136.2186737060547 145.0039520263672 149.80120849609375 135.5345916748047 158.74061584472656" stroke-width="3.0" fill="none" stroke="rgb(1, -1, 0)" stroke-opacity="0.2284166" stroke-linecap="round" stroke-linejoin="round"/>
    <path d="M 115.20548248291016 154.57150268554688 C 82.45341491699219 85.45057678222656 97.77050018310547 124.3132095336914 88.122802734375 107.21271514892578" stroke-width="3.0" fill="none" stroke="rgb(2, -1, 0)" stroke-opacity="0.029241176" stroke-linecap="round" stroke-linejoin="round"/>
    <path d="M 152.4368133544922 82.10079193115234 C 131.65237426757812 45.7369384765625 104.13961029052734 35.296661376953125 159.38064575195312 81.14886474609375" stroke-width="3.0" fill="none" stroke="rgb(0, 0, 0)" stroke-opacity="0.04111854" stroke-linecap="round" stroke-linejoin="round"/>
    <path d="M 105.3002700805664 126.7767105102539 C 149.8517303466797 122.96868133544922 103.02384948730469 135.83184814453125 108.11254119873047 123.90276336669922" stroke-width="3.0" fill="none" stroke="rgb(1, 1, -3)" stroke-opacity="0.25045943" stroke-linecap="round" stroke-linejoin="round"/>
    <path d="M -11.108668327331543 144.9468994140625 C 20.268049240112305 153.18234252929688 16.990880966186523 151.09471130371094 -3.770127773284912 137.64529418945312" stroke-width="3.0" fill="none" stroke="rgb(0, 0, 0)" stroke-opacity="0.040837873" stroke-linecap="round" stroke-linejoin="round"/>
    <path d="M 160.17832946777344 72.61101531982422 C 139.77700805664062 53.4189453125 151.398681640625 56.22334289550781 151.65576171875 62.792301177978516" stroke-width="3.0" fill="none" stroke="rgb(0, 0, 0)" stroke-opacity="0.14467579" stroke-linecap="round" stroke-linejoin="round"/>
    <path d="M 153.38551330566406 50.77775192260742 C 152.57275390625 34.768253326416016 190.2218017578125 42.1181640625 160.0491485595703 56.146690368652344" stroke-width="3.0" fill="none" stroke="rgb(0, 0, 0)" stroke-opacity="0.003865193" stroke-linecap="round" stroke-linejoin="round"/>
    <path d="M 231.72189331054688 216.01670837402344 C 233.40853881835938 212.98867797851562 236.7659454345703 211.52810668945312 233.7662811279297 208.61062622070312" stroke-width="3.0" fill="none" stroke="rgb(0, 0, 0)" stroke-opacity="0.82231456" stroke-linecap="round" stroke-linejoin="round"/>
    <path d="M 143.8892059326172 71.78789520263672 C 106.4173355102539 67.10517883300781 129.4072265625 57.55256652832031 118.07439422607422 78.45972442626953" stroke-width="3.0" fill="none" stroke="rgb(0, 0, 2)" stroke-opacity="0.09240692" stroke-linecap="round" stroke-linejoin="round"/>
    <path d="M 108.91796112060547 80.14216613769531 C 130.98219299316406 87.60980987548828 112.23985290527344 86.7089614868164 128.68417358398438 106.42117309570312" stroke-width="3.0" fill="none" stroke="rgb(-1, 0, 2)" stroke-opacity="0.06048907" stroke-linecap="round" stroke-linejoin="round"/>
    <path d="M 93.9797592163086 53.38443374633789 C 93.25495910644531 47.5251350402832 80.06166076660156 68.54534149169922 90.63251495361328 45.00129318237305" stroke-width="3.0" fill="none" stroke="rgb(1, -2, 2)" stroke-opacity="0.1892288" stroke-linecap="round" stroke-linejoin="round"/>
    <path d="M -8.32618236541748 130.79327392578125 C 4.561947345733643 153.69007873535156 11.50301456451416 144.72247314453125 -4.501046657562256 166.97409057617188" stroke-width="3.0" fill="none" stroke="rgb(2, 0, -3)" stroke-opacity="0.62575" stroke-linecap="round" stroke-linejoin="round"/>
    <path d="M 11.25837516784668 131.47386169433594 C 12.765357971191406 101.27137756347656 11.281227111816406 177.5103759765625 -0.5823401212692261 103.41413879394531" stroke-width="3.0" fill="none" stroke="rgb(1, -1, 1)" stroke-opacity="0.1313349" stroke-linecap="round" stroke-linejoin="round"/>
    <path d="M 50.53365707397461 83.78681182861328 C 84.81359100341797 82.70941162109375 60.530860900878906 90.30286407470703 54.11374282836914 84.61222076416016" stroke-width="3.0" fill="none" stroke="rgb(1, 0, -1)" stroke-opacity="0.26805133" stroke-linecap="round" stroke-linejoin="round"/>
    <path d="M 30.308725357055664 110.17961120605469 C 45.41779708862305 156.7624053955078 6.009222984313965 146.3216552734375 10.853261947631836 177.6812744140625" stroke-width="3.0" fill="none" stroke="rgb(0, -2, 2)" stroke-opacity="0.21365052" stroke-linecap="round" stroke-linejoin="round"/>
    <path d="M 104.69559478759766 28.72106170654297 C 116.97515106201172 31.57912254333496 103.67512512207031 21.95106315612793 99.97383117675781 32.746002197265625" stroke-width="3.0" fill="none" stroke="rgb(-1, 0, 0)" stroke-opacity="0.09455566" stroke-linecap="round" stroke-linejoin="round"/>
    <path d="M 121.59996795654297 150.44300842285156 C 82.35277557373047 122.78897094726562 60.92927169799805 130.8185272216797 128.23941040039062 155.73548889160156" stroke-width="3.0" fill="none" stroke="rgb(2, -2, -2)" stroke-opacity="0.10105112" stroke-linecap="round" stroke-linejoin="round"/>
    <path d="M 100.42176818847656 91.76042175292969 C 128.42391967773438 85.94646453857422 115.36186218261719 91.93790435791016 129.26100158691406 107.79545593261719" stroke-width="3.0" fill="none" stroke="rgb(0, 0, 0)" stroke-opacity="0.027070595" stroke-linecap="round" stroke-linejoin="round"/>
    <path d="M 52.935997009277344 218.1352081298828 C -39.834320068359375 215.2195587158203 90.05340576171875 204.37741088867188 10.46031379699707 207.4987335205078" stroke-width="3.0" fill="none" stroke="rgb(0, 1, -2)" stroke-opacity="0.019591268" stroke-linecap="round" stroke-linejoin="round"/>
    <path d="M 77.7698745727539 71.18972778320312 C 81.98468780517578 71.6151123046875 104.8080062866211 55.60423278808594 70.68729400634766 69.36127471923828" stroke-width="3.0" fill="none" stroke="rgb(0, -3, 2)" stroke-opacity="0.11870764" stroke-linecap="round" stroke-linejoin="round"/>
    <path d="M 30.636152267456055 229.18052673339844 C 33.62981033325195 231.0621337890625 37.06903839111328 222.64109802246094 35.25937271118164 228.5860137939453" stroke-width="3.0" fill="none" stroke="rgb(0, 0, 0)" stroke-opacity="0.7805864" stroke-linecap="round" stroke-linejoin="round"/>
    <path d="M -24.446569442749023 137.4735870361328 C 0.03297632560133934 148.62416076660156 8.893436431884766 142.87161254882812 -4.321491718292236 162.33450317382812" stroke-width="3.0" fill="none" stroke="rgb(1, 0, -1)" stroke-opacity="0.51931196" stroke-linecap="round" stroke-linejoin="round"/>
    <path d="M 137.6239776611328 150.30557250976562 C 187.7567596435547 145.791015625 172.7373046875 154.914306640625 143.049560546875 151.5607452392578" stroke-width="3.0" fill="none" stroke="rgb(0, 0, 0)" stroke-opacity="0.009481232" stroke-linecap="round" stroke-linejoin="round"/>
    <path d="M 144.13954162597656 27.267505645751953 C 161.0889434814453 33.11199188232422 153.69970703125 45.12236022949219 150.39785766601562 29.551681518554688" stroke-width="3.0" fill="none" stroke="rgb(0, 0, 0)" stroke-opacity="0.01456869" stroke-linecap="round" stroke-linejoin="round"/>
    <path d="M 71.7764663696289 231.97865295410156 C 55.61402893066406 232.49476623535156 72.35121154785156 233.38400268554688 73.05318450927734 228.5205078125" stroke-width="3.0" fill="none" stroke="rgb(0, 0, 0)" stroke-opacity="0.6429106" stroke-linecap="round" stroke-linejoin="round"/>
    <path d="M 126.60580444335938 121.86653137207031 C 115.2220230102539 136.71307373046875 120.12403106689453 136.90187072753906 107.47008514404297 122.35897827148438" stroke-width="3.0" fill="none" stroke="rgb(2, 1, -2)" stroke-opacity="0.19350934" stroke-linecap="round" stroke-linejoin="round"/>
    <path d="M 85.39360046386719 134.1492156982422 C 145.3888702392578 161.25393676757812 82.98622131347656 132.71852111816406 118.94601440429688 152.5103302001953" stroke-width="3.0" fill="none" stroke="rgb(1, 0, 0)" stroke-opacity="0.15015799" stroke-linecap="round" stroke-linejoin="round"/>
    <path d="M 168.63059997558594 231.12356567382812 C 187.07875061035156 228.19833374023438 182.57374572753906 230.82716369628906 177.88807678222656 227.2604217529297" stroke-width="3.0" fill="none" stroke="rgb(0, 0, 0)" stroke-opacity="0.51224834" stroke-linecap="round" stroke-linejoin="round"/>
    <path d="M 129.40194702148438 109.15293884277344 C 135.74208068847656 132.6900177001953 115.9813003540039 104.08554077148438 135.1760711669922 127.8935546875" stroke-width="3.0" fill="none" stroke="rgb(0, 0, 1)" stroke-opacity="0.105683714" stroke-linecap="round" stroke-linejoin="round"/>
  </g>
</svg>
