<?xml version="1.0" ?>
<svg xmlns="http://www.w3.org/2000/svg" version="1.1" width="224" height="224">
  <defs/>
  <g>
    <path d="M 39.7775764465332 204.5374298095703 C 55.8266716003418 188.0072479248047 89.8138656616211 207.0625457763672 -9.674637794494629 184.85256958007812" stroke-width="8.457720756530762" fill="none" stroke="rgb(0, 10, 24)" stroke-opacity="0.19870953" stroke-linecap="round" stroke-linejoin="round"/>
    <path d="M 178.58631896972656 141.0111541748047 C 179.8192138671875 157.28875732421875 180.35769653320312 107.42684173583984 188.099853515625 102.66231536865234" stroke-width="12.409773826599121" fill="none" stroke="rgb(201, 69, 0)" stroke-opacity="1.0052973" stroke-linecap="round" stroke-linejoin="round"/>
    <path d="M 230.60821533203125 88.1092300415039 C 229.6117401123047 86.90177154541016 234.22727966308594 83.7935791015625 235.094482421875 86.7903823852539" stroke-width="2.0" fill="none" stroke="rgb(0, 19, 20)" stroke-opacity="0.9275717" stroke-linecap="round" stroke-linejoin="round"/>
    <path d="M 137.4977264404297 47.796409606933594 C 122.0910415649414 71.28766632080078 109.29044342041016 64.40026092529297 146.48313903808594 44.058773040771484" stroke-width="4.827939987182617" fill="none" stroke="rgb(0, 0, 0)" stroke-opacity="1.0027014" stroke-linecap="round" stroke-linejoin="round"/>
    <path d="M 227.40036010742188 185.7405242919922 C 262.64801025390625 92.45084381103516 151.97647094726562 160.17010498046875 220.26063537597656 150.45260620117188" stroke-width="7.81100606918335" fill="none" stroke="rgb(115, 100, 12)" stroke-opacity="0.4140966" stroke-linecap="round" stroke-linejoin="round"/>
    <path d="M 114.80457305908203 159.07618713378906 C 233.745361328125 163.11952209472656 163.72727966308594 153.20680236816406 114.56318664550781 148.78582763671875" stroke-width="7.698920249938965" fill="none" stroke="rgb(41, 106, 195)" stroke-opacity="0.20389481" stroke-linecap="round" stroke-linejoin="round"/>
    <path d="M 217.6009063720703 163.90939331054688 C 197.61270141601562 143.5689697265625 203.14056396484375 104.98909759521484 222.1287078857422 167.28314208984375" stroke-width="2.8355414867401123" fill="none" stroke="rgb(122, 101, 4)" stroke-opacity="0.36299777" stroke-linecap="round" stroke-linejoin="round"/>
    <path d="M 94.52996826171875 143.93304443359375 C 73.11372375488281 156.95957946777344 85.31025695800781 120.95856475830078 107.65898895263672 154.8240509033203" stroke-width="6.908200740814209" fill="none" stroke="rgb(195, 94, 27)" stroke-opacity="0.7242045" stroke-linecap="round" stroke-linejoin="round"/>
    <path d="M 114.06269836425781 136.2949676513672 C 249.09295654296875 146.2178955078125 213.70948791503906 175.49948120117188 172.64288330078125 148.8352508544922" stroke-width="25.00617790222168" fill="none" stroke="rgb(3, 75, 147)" stroke-opacity="0.16817918" stroke-linecap="round" stroke-linejoin="round"/>
    <path d="M 123.83168029785156 167.22483825683594 C 112.2845230102539 174.8740692138672 163.89462280273438 162.84219360351562 160.1584014892578 176.16542053222656" stroke-width="7.6970696449279785" fill="none" stroke="rgb(209, 106, 0)" stroke-opacity="0.516848" stroke-linecap="round" stroke-linejoin="round"/>
    <path d="M 192.09536743164062 47.74770736694336 C 173.55979919433594 37.64576721191406 188.8829803466797 86.1026611328125 183.06129455566406 52.178627014160156" stroke-width="4.5621747970581055" fill="none" stroke="rgb(191, 65, 15)" stroke-opacity="0.66637635" stroke-linecap="round" stroke-linejoin="round"/>
    <path d="M 95.04428100585938 151.99720764160156 C 81.81297302246094 158.698486328125 76.0226058959961 127.02706909179688 113.85401916503906 143.36595153808594" stroke-width="3.039074182510376" fill="none" stroke="rgb(-1, 0, 21)" stroke-opacity="1.0082818" stroke-linecap="round" stroke-linejoin="round"/>
    <path d="M 53.39786148071289 230.67532348632812 C 58.95552062988281 229.52943420410156 53.50248336791992 233.71766662597656 37.937259674072266 230.5328369140625" stroke-width="2.0" fill="none" stroke="rgb(24, 23, 3)" stroke-opacity="0.90291554" stroke-linecap="round" stroke-linejoin="round"/>
    <path d="M 146.2634735107422 183.0224609375 C 232.26304626464844 218.4505157470703 51.4591064453125 197.75942993164062 228.08485412597656 197.3666534423828" stroke-width="10.231305122375488" fill="none" stroke="rgb(0, 47, 110)" stroke-opacity="0.6887262" stroke-linecap="round" stroke-linejoin="round"/>
    <path d="M 158.6718292236328 101.3470687866211 C 135.48617553710938 77.43761444091797 126.671630859375 110.37150573730469 128.19406127929688 87.62787628173828" stroke-width="8.478636741638184" fill="none" stroke="rgb(39, 7, 4)" stroke-opacity="0.946996" stroke-linecap="round" stroke-linejoin="round"/>
    <path d="M 155.36083984375 87.43499755859375 C 137.76803588867188 62.144554138183594 139.15386962890625 67.7392349243164 127.32442474365234 80.6617660522461" stroke-width="11.98097038269043" fill="none" stroke="rgb(38, 47, 9)" stroke-opacity="0.84371495" stroke-linecap="round" stroke-linejoin="round"/>
    <path d="M 196.77694702148438 5.857952117919922 C -24.74720573425293 9.387069702148438 -66.3932876586914 0.2321224957704544 185.17034912109375 0.34061819314956665" stroke-width="8.525895118713379" fill="none" stroke="rgb(137, 168, 5)" stroke-opacity="0.7940137" stroke-linecap="round" stroke-linejoin="round"/>
    <path d="M 120.0517807006836 85.21154022216797 C 100.31730651855469 113.05037689208984 124.40365600585938 95.68404388427734 104.7909927368164 111.57239532470703" stroke-width="13.03466796875" fill="none" stroke="rgb(236, 82, 0)" stroke-opacity="0.5911956" stroke-linecap="round" stroke-linejoin="round"/>
    <path d="M 80.23888397216797 52.43327713012695 C 65.43246459960938 -1.457446575164795 84.93031311035156 31.750032424926758 13.88318157196045 50.396690368652344" stroke-width="13.693641662597656" fill="none" stroke="rgb(127, 155, 156)" stroke-opacity="0.35067004" stroke-linecap="round" stroke-linejoin="round"/>
    <path d="M 170.63970947265625 110.20781707763672 C 157.3109130859375 81.078369140625 154.56971740722656 70.14427185058594 162.2988739013672 81.4173812866211" stroke-width="9.458226203918457" fill="none" stroke="rgb(50, 55, 0)" stroke-opacity="0.6935231" stroke-linecap="round" stroke-linejoin="round"/>
    <path d="M 124.12174987792969 93.56771850585938 C 106.43751525878906 105.70417785644531 103.37487030029297 96.60393524169922 128.85061645507812 100.17639923095703" stroke-width="3.0535106658935547" fill="none" stroke="rgb(240, 128, 33)" stroke-opacity="0.35471755" stroke-linecap="round" stroke-linejoin="round"/>
    <path d="M 146.8585968017578 53.69497299194336 C 178.12051391601562 31.0601863861084 172.9504852294922 35.43798828125 163.3576202392578 96.69063568115234" stroke-width="7.7229108810424805" fill="none" stroke="rgb(114, 57, 43)" stroke-opacity="0.71900564" stroke-linecap="round" stroke-linejoin="round"/>
    <path d="M 203.6958465576172 75.61825561523438 C 185.2000732421875 96.341064453125 211.2941131591797 55.249725341796875 223.6574249267578 76.80329895019531" stroke-width="12.792372703552246" fill="none" stroke="rgb(40, 93, 34)" stroke-opacity="0.7347688" stroke-linecap="round" stroke-linejoin="round"/>
    <path d="M 25.807607650756836 188.34716796875 C 115.60943603515625 191.5965576171875 89.58222961425781 199.2027130126953 83.86936950683594 136.7569122314453" stroke-width="4.976694107055664" fill="none" stroke="rgb(86, 64, 0)" stroke-opacity="0.6355452" stroke-linecap="round" stroke-linejoin="round"/>
    <path d="M 65.18175506591797 6.334384918212891 C 167.6856689453125 21.84552574157715 138.44558715820312 -4.721524238586426 121.95841979980469 2.3589093685150146" stroke-width="5.982619762420654" fill="none" stroke="rgb(0, 2, 76)" stroke-opacity="0.475681" stroke-linecap="round" stroke-linejoin="round"/>
    <path d="M 215.95562744140625 33.25732421875 C 277.2472839355469 41.50413131713867 216.86273193359375 41.44115447998047 191.0479278564453 38.79646301269531" stroke-width="2.536787509918213" fill="none" stroke="rgb(121, 63, 17)" stroke-opacity="0.25657132" stroke-linecap="round" stroke-linejoin="round"/>
    <path d="M 133.9750213623047 76.0099105834961 C 86.26180267333984 70.69442749023438 127.1783218383789 78.0498275756836 86.16223907470703 80.76464080810547" stroke-width="1.74284827709198" fill="none" stroke="rgb(36, 39, 11)" stroke-opacity="0.9785223" stroke-linecap="round" stroke-linejoin="round"/>
    <path d="M 173.7779541015625 179.79408264160156 C 112.10099029541016 179.31663513183594 258.5026550292969 152.53097534179688 120.6147232055664 158.67276000976562" stroke-width="2.0028975009918213" fill="none" stroke="rgb(119, 140, 145)" stroke-opacity="0.41675928" stroke-linecap="round" stroke-linejoin="round"/>
    <path d="M 118.5836410522461 73.4315185546875 C 95.30120849609375 97.4867935180664 111.17256164550781 92.80908966064453 94.29804992675781 107.14302062988281" stroke-width="3.537424325942993" fill="none" stroke="rgb(0, 0, 18)" stroke-opacity="1.000955" stroke-linecap="round" stroke-linejoin="round"/>
    <path d="M 137.3788299560547 14.281412124633789 C 241.3179168701172 13.85057544708252 176.3201141357422 16.175376892089844 238.50845336914062 12.515202522277832" stroke-width="20.45429039001465" fill="none" stroke="rgb(28, 60, 96)" stroke-opacity="0.5002417" stroke-linecap="round" stroke-linejoin="round"/>
    <path d="M 87.00608825683594 141.44773864746094 C 83.7417221069336 159.67349243164062 81.03863525390625 141.17050170898438 100.50971221923828 112.72241973876953" stroke-width="4.29292631149292" fill="none" stroke="rgb(52, 53, 0)" stroke-opacity="0.929828" stroke-linecap="round" stroke-linejoin="round"/>
    <path d="M 120.8643798828125 181.53860473632812 C 209.04067993164062 199.63430786132812 88.47063446044922 217.9849090576172 109.54652404785156 195.7570037841797" stroke-width="16.479835510253906" fill="none" stroke="rgb(187, 206, 37)" stroke-opacity="0.6836172" stroke-linecap="round" stroke-linejoin="round"/>
    <path d="M -7.856602191925049 28.974660873413086 C -3.6322851181030273 24.2070255279541 -7.697410583496094 20.938121795654297 -7.023194789886475 24.476720809936523" stroke-width="2.0" fill="none" stroke="rgb(15, 16, 0)" stroke-opacity="0.932843" stroke-linecap="round" stroke-linejoin="round"/>
    <path d="M 121.11299896240234 91.60869598388672 C 127.24955749511719 80.3222885131836 133.655517578125 79.97517395019531 132.39833068847656 86.29135131835938" stroke-width="7.012104034423828" fill="none" stroke="rgb(54, 38, 39)" stroke-opacity="0.69048846" stroke-linecap="round" stroke-linejoin="round"/>
    <path d="M 133.0401611328125 85.7225570678711 C 132.55484008789062 44.72578048706055 143.62120056152344 60.549739837646484 120.84003448486328 80.25718688964844" stroke-width="10.275999069213867" fill="none" stroke="rgb(108, 36, 29)" stroke-opacity="0.595252" stroke-linecap="round" stroke-linejoin="round"/>
    <path d="M 32.394840240478516 84.22586059570312 C 56.86469650268555 27.90340232849121 73.70914459228516 116.66146850585938 15.219589233398438 89.57026672363281" stroke-width="9.647025108337402" fill="none" stroke="rgb(110, 139, 165)" stroke-opacity="0.27997595" stroke-linecap="round" stroke-linejoin="round"/>
    <path d="M 193.18663024902344 57.48344421386719 C 212.09051513671875 103.6590347290039 208.13259887695312 69.38497161865234 201.0494842529297 72.31456756591797" stroke-width="9.272661209106445" fill="none" stroke="rgb(147, 37, 8)" stroke-opacity="0.95533496" stroke-linecap="round" stroke-linejoin="round"/>
    <path d="M 78.0220947265625 110.21548461914062 C 92.24739074707031 79.86569213867188 113.52589416503906 115.28800964355469 113.3114242553711 108.15312957763672" stroke-width="3.0827794075012207" fill="none" stroke="rgb(43, 0, -1)" stroke-opacity="1.0049251" stroke-linecap="round" stroke-linejoin="round"/>
    <path d="M 74.69597625732422 88.71524047851562 C 69.1291275024414 97.18750762939453 82.06696319580078 125.87794494628906 1.1813726425170898 114.93716430664062" stroke-width="32.703125" fill="none" stroke="rgb(59, 106, 150)" stroke-opacity="0.2855993" stroke-linecap="round" stroke-linejoin="round"/>
    <path d="M 169.52516174316406 52.669681549072266 C 150.2122344970703 77.66559600830078 144.46340942382812 86.56346893310547 176.92288208007812 60.63532257080078" stroke-width="14.620596885681152" fill="none" stroke="rgb(119, 33, -2)" stroke-opacity="0.7049592" stroke-linecap="round" stroke-linejoin="round"/>
    <path d="M 143.50588989257812 168.57032775878906 C 101.17881774902344 131.46197509765625 116.24638366699219 169.5438690185547 106.10236358642578 145.902587890625" stroke-width="4.091833591461182" fill="none" stroke="rgb(24, 61, 203)" stroke-opacity="0.08946156" stroke-linecap="round" stroke-linejoin="round"/>
    <path d="M 82.15444946289062 89.69062042236328 C 142.56922912597656 71.11974334716797 73.97672271728516 90.6082992553711 75.57296752929688 106.14263153076172" stroke-width="1.9265238046646118" fill="none" stroke="rgb(46, 31, 10)" stroke-opacity="0.96567464" stroke-linecap="round" stroke-linejoin="round"/>
    <path d="M 218.8201141357422 118.56320190429688 C 203.86575317382812 120.93692779541016 256.0485534667969 93.97159576416016 217.22311401367188 98.8140869140625" stroke-width="4.55160665512085" fill="none" stroke="rgb(162, 144, 50)" stroke-opacity="0.29868707" stroke-linecap="round" stroke-linejoin="round"/>
    <path d="M 120.13729095458984 63.99057388305664 C 61.46979904174805 32.052974700927734 43.81440734863281 65.67150115966797 111.18949127197266 69.60668182373047" stroke-width="17.756912231445312" fill="none" stroke="rgb(46, 95, 162)" stroke-opacity="0.43915415" stroke-linecap="round" stroke-linejoin="round"/>
    <path d="M 112.46154022216797 54.33297348022461 C -35.59469223022461 65.69561004638672 -31.90677833557129 48.26359939575195 48.22039794921875 29.662160873413086" stroke-width="13.114165306091309" fill="none" stroke="rgb(122, 151, 181)" stroke-opacity="0.3441343" stroke-linecap="round" stroke-linejoin="round"/>
    <path d="M 7.294882297515869 105.97920989990234 C 93.68498992919922 121.74773406982422 125.8089828491211 97.31340026855469 -8.221526145935059 94.73347473144531" stroke-width="3.5402557849884033" fill="none" stroke="rgb(86, 90, 102)" stroke-opacity="0.26923722" stroke-linecap="round" stroke-linejoin="round"/>
    <path d="M 17.366905212402344 54.49036407470703 C -40.79948043823242 41.01567459106445 -21.814498901367188 17.31644058227539 68.9559555053711 39.098628997802734" stroke-width="12.08698844909668" fill="none" stroke="rgb(130, 153, 178)" stroke-opacity="0.51050574" stroke-linecap="round" stroke-linejoin="round"/>
    <path d="M 221.73397827148438 41.50151062011719 C 100.10960388183594 6.112879753112793 112.03968048095703 44.15719985961914 156.2085723876953 39.210269927978516" stroke-width="23.445545196533203" fill="none" stroke="rgb(69, 105, 147)" stroke-opacity="0.5926198" stroke-linecap="round" stroke-linejoin="round"/>
    <path d="M 18.26606559753418 197.79507446289062 C 40.65862274169922 190.82469177246094 55.005008697509766 183.9717559814453 -6.091394424438477 180.0101318359375" stroke-width="11.642560958862305" fill="none" stroke="rgb(0, 95, 108)" stroke-opacity="0.1951184" stroke-linecap="round" stroke-linejoin="round"/>
    <path d="M 92.68633270263672 46.89303207397461 C 36.65908432006836 25.220844268798828 65.32969665527344 2.7661821842193604 60.49178695678711 34.61091613769531" stroke-width="6.885190010070801" fill="none" stroke="rgb(57, 72, 129)" stroke-opacity="0.31783462" stroke-linecap="round" stroke-linejoin="round"/>
    <path d="M 125.78504180908203 218.41799926757812 C 39.47000503540039 190.07888793945312 115.36750793457031 221.7678680419922 27.7795467376709 207.2554473876953" stroke-width="3.454702615737915" fill="none" stroke="rgb(84, 62, 67)" stroke-opacity="0.44555816" stroke-linecap="round" stroke-linejoin="round"/>
    <path d="M 92.8101577758789 141.7855987548828 C 84.90674591064453 134.00584411621094 96.92535400390625 167.36033630371094 91.8248062133789 183.87794494628906" stroke-width="14.21456527709961" fill="none" stroke="rgb(103, 19, -2)" stroke-opacity="0.73526144" stroke-linecap="round" stroke-linejoin="round"/>
    <path d="M 188.23446655273438 57.70530700683594 C 213.67825317382812 92.09199523925781 186.4596405029297 79.00579071044922 216.5869598388672 60.301883697509766" stroke-width="27.965599060058594" fill="none" stroke="rgb(163, 73, 30)" stroke-opacity="0.77777135" stroke-linecap="round" stroke-linejoin="round"/>
    <path d="M 154.9270782470703 88.06828308105469 C 164.04141235351562 48.29888153076172 141.36773681640625 86.18428802490234 164.0549774169922 96.30500030517578" stroke-width="7.900349140167236" fill="none" stroke="rgb(35, 10, 21)" stroke-opacity="0.76069266" stroke-linecap="round" stroke-linejoin="round"/>
    <path d="M 105.06266784667969 116.59014892578125 C 101.54885864257812 136.44717407226562 105.94454956054688 126.05555725097656 101.26988220214844 124.53727722167969" stroke-width="2.049022674560547" fill="none" stroke="rgb(45, 48, 4)" stroke-opacity="0.8235118" stroke-linecap="round" stroke-linejoin="round"/>
    <path d="M 21.590072631835938 112.03363037109375 C 120.23493194580078 108.75947570800781 94.52505493164062 118.19561767578125 -6.53739595413208 119.39356994628906" stroke-width="14.720656394958496" fill="none" stroke="rgb(118, 151, 173)" stroke-opacity="0.38882542" stroke-linecap="round" stroke-linejoin="round"/>
    <path d="M 81.75257110595703 65.58026123046875 C 0.7310253977775574 51.19142150878906 184.92135620117188 64.4246826171875 41.89739227294922 76.96013641357422" stroke-width="5.680067539215088" fill="none" stroke="rgb(96, 110, 133)" stroke-opacity="0.2895855" stroke-linecap="round" stroke-linejoin="round"/>
    <path d="M 139.31765747070312 36.4951171875 C 83.67777252197266 30.43968963623047 73.0781021118164 31.74683380126953 137.6728973388672 52.54615783691406" stroke-width="23.71552276611328" fill="none" stroke="rgb(146, 167, 193)" stroke-opacity="0.94330776" stroke-linecap="round" stroke-linejoin="round"/>
    <path d="M 80.50453186035156 -0.01067999005317688 C 99.6356430053711 46.26358413696289 88.54214477539062 -58.11669921875 108.00096130371094 5.168025970458984" stroke-width="7.061232089996338" fill="none" stroke="rgb(1, 0, 79)" stroke-opacity="0.57542384" stroke-linecap="round" stroke-linejoin="round"/>
    <path d="M 24.095115661621094 46.857418060302734 C 79.06822967529297 55.93552780151367 83.48704528808594 33.617130279541016 -13.956815719604492 37.18461990356445" stroke-width="21.554637908935547" fill="none" stroke="rgb(142, 165, 188)" stroke-opacity="0.84196717" stroke-linecap="round" stroke-linejoin="round"/>
    <path d="M 132.87953186035156 61.09497833251953 C 139.16534423828125 69.32470703125 117.19271850585938 58.40381622314453 134.4123077392578 64.6870346069336" stroke-width="7.188308238983154" fill="none" stroke="rgb(227, 182, 136)" stroke-opacity="0.5027917" stroke-linecap="round" stroke-linejoin="round"/>
    <path d="M 104.39556884765625 132.85557556152344 C 82.07112121582031 142.4591064453125 83.64000701904297 144.01840209960938 92.412841796875 169.27554321289062" stroke-width="7.565950393676758" fill="none" stroke="rgb(94, 23, -3)" stroke-opacity="0.5483117" stroke-linecap="round" stroke-linejoin="round"/>
    <path d="M 101.90884399414062 83.06285095214844 C 29.81374740600586 59.56614303588867 60.57627487182617 61.03910827636719 48.78074264526367 66.8070068359375" stroke-width="12.563101768493652" fill="none" stroke="rgb(91, 125, 159)" stroke-opacity="0.42546147" stroke-linecap="round" stroke-linejoin="round"/>
    <path d="M 98.3846435546875 179.61529541015625 C 109.7099609375 77.18413543701172 108.99231719970703 140.33489990234375 75.1124038696289 154.9091033935547" stroke-width="3.2380590438842773" fill="none" stroke="rgb(72, 2, 16)" stroke-opacity="0.965963" stroke-linecap="round" stroke-linejoin="round"/>
    <path d="M 111.75667572021484 158.10858154296875 C 98.33296966552734 186.9217071533203 100.27959442138672 206.83668518066406 99.24809265136719 149.0284423828125" stroke-width="3.731125593185425" fill="none" stroke="rgb(-2, 0, 45)" stroke-opacity="0.77458715" stroke-linecap="round" stroke-linejoin="round"/>
    <path d="M 90.4027099609375 130.78216552734375 C 102.85709381103516 126.99398803710938 96.11089324951172 151.6178436279297 94.22341918945312 133.97003173828125" stroke-width="2.919855833053589" fill="none" stroke="rgb(89, 34, 0)" stroke-opacity="0.49102902" stroke-linecap="round" stroke-linejoin="round"/>
    <path d="M 102.34358978271484 110.15713500976562 C 129.5438690185547 91.40746307373047 110.4610824584961 76.552001953125 104.33533477783203 114.01332092285156" stroke-width="4.260762691497803" fill="none" stroke="rgb(129, 137, 126)" stroke-opacity="0.3685287" stroke-linecap="round" stroke-linejoin="round"/>
    <path d="M 99.33694458007812 126.68408203125 C 88.1186752319336 81.5727767944336 103.23917388916016 100.39177703857422 108.3815689086914 115.24332427978516" stroke-width="8.979395866394043" fill="none" stroke="rgb(4, 0, 41)" stroke-opacity="0.500172" stroke-linecap="round" stroke-linejoin="round"/>
    <path d="M 47.65869903564453 98.73069763183594 C 44.42699432373047 110.55648803710938 113.63204956054688 78.71428680419922 -6.741665363311768 71.60923767089844" stroke-width="13.491256713867188" fill="none" stroke="rgb(119, 134, 164)" stroke-opacity="0.2802692" stroke-linecap="round" stroke-linejoin="round"/>
    <path d="M 96.70708465576172 110.6054916381836 C 89.99333953857422 130.43930053710938 77.59468841552734 137.39675903320312 114.24850463867188 93.52037048339844" stroke-width="11.734420776367188" fill="none" stroke="rgb(10, 16, 28)" stroke-opacity="0.92701447" stroke-linecap="round" stroke-linejoin="round"/>
    <path d="M 170.16275024414062 208.86878967285156 C 191.3918914794922 163.7361297607422 172.6982421875 135.5597381591797 182.84213256835938 148.5264129638672" stroke-width="6.1708173751831055" fill="none" stroke="rgb(166, -1, 76)" stroke-opacity="0.7535356" stroke-linecap="round" stroke-linejoin="round"/>
    <path d="M 173.0104522705078 90.78668212890625 C 188.82864379882812 110.18997955322266 199.930908203125 103.78083038330078 222.52159118652344 98.86907196044922" stroke-width="7.536537170410156" fill="none" stroke="rgb(31, 31, 16)" stroke-opacity="0.9382044" stroke-linecap="round" stroke-linejoin="round"/>
    <path d="M 1.3277301788330078 182.26544189453125 C 170.92422485351562 191.2879638671875 181.4918975830078 159.1208038330078 9.055349349975586 167.87933349609375" stroke-width="3.378693103790283" fill="none" stroke="rgb(-1, 68, 129)" stroke-opacity="0.1379927" stroke-linecap="round" stroke-linejoin="round"/>
    <path d="M 177.0961151123047 75.06525421142578 C 146.37794494628906 92.78289794921875 177.83480834960938 87.02576446533203 165.4654998779297 56.317562103271484" stroke-width="4.131712913513184" fill="none" stroke="rgb(50, -1, 0)" stroke-opacity="0.593387" stroke-linecap="round" stroke-linejoin="round"/>
    <path d="M 120.86698150634766 74.42359924316406 C 133.65692138671875 86.36929321289062 117.62874603271484 70.41604614257812 92.84829711914062 106.776123046875" stroke-width="10.568385124206543" fill="none" stroke="rgb(15, 24, 43)" stroke-opacity="0.8730675" stroke-linecap="round" stroke-linejoin="round"/>
    <path d="M 159.0800018310547 65.81249237060547 C 124.55720520019531 94.65866088867188 143.4572296142578 44.710182189941406 144.97914123535156 72.62074279785156" stroke-width="10.975442886352539" fill="none" stroke="rgb(131, 45, 20)" stroke-opacity="0.9275864" stroke-linecap="round" stroke-linejoin="round"/>
    <path d="M 89.8127670288086 112.2405014038086 C 75.8023681640625 121.45091247558594 83.27587890625 86.38453674316406 98.51470184326172 120.15172576904297" stroke-width="4.053005218505859" fill="none" stroke="rgb(51, 107, 214)" stroke-opacity="0.12795243" stroke-linecap="round" stroke-linejoin="round"/>
    <path d="M 48.709415435791016 198.9566650390625 C 118.8314437866211 209.2429656982422 178.83102416992188 194.81906127929688 27.506153106689453 197.26377868652344" stroke-width="2.0459158420562744" fill="none" stroke="rgb(116, 83, 43)" stroke-opacity="0.8697741" stroke-linecap="round" stroke-linejoin="round"/>
    <path d="M -10.589077949523926 151.67567443847656 C 151.8638458251953 153.51943969726562 145.54580688476562 121.14862060546875 -2.902055263519287 136.78480529785156" stroke-width="15.130853652954102" fill="none" stroke="rgb(41, 90, 147)" stroke-opacity="0.27205992" stroke-linecap="round" stroke-linejoin="round"/>
    <path d="M 145.83206176757812 86.1507797241211 C 108.31729888916016 82.53758239746094 123.0091323852539 73.61890411376953 162.0059814453125 52.84885025024414" stroke-width="15.824665069580078" fill="none" stroke="rgb(139, 56, 25)" stroke-opacity="0.94275326" stroke-linecap="round" stroke-linejoin="round"/>
    <path d="M 192.77418518066406 53.154911041259766 C 250.83370971679688 55.923301696777344 221.28955078125 57.10761642456055 214.34437561035156 57.87825393676758" stroke-width="9.587067604064941" fill="none" stroke="rgb(161, 75, 19)" stroke-opacity="0.55715257" stroke-linecap="round" stroke-linejoin="round"/>
    <path d="M 132.38487243652344 222.6067657470703 C 95.94517517089844 217.70628356933594 163.48403930664062 217.55918884277344 166.44772338867188 219.22671508789062" stroke-width="14.497140884399414" fill="none" stroke="rgb(134, 84, 0)" stroke-opacity="0.50105774" stroke-linecap="round" stroke-linejoin="round"/>
    <path d="M -7.751224040985107 31.453855514526367 C 3.6235525608062744 34.587684631347656 -67.34134674072266 -0.8094924688339233 37.39069366455078 6.730849266052246" stroke-width="11.157615661621094" fill="none" stroke="rgb(150, 188, 63)" stroke-opacity="0.9161173" stroke-linecap="round" stroke-linejoin="round"/>
    <path d="M 136.9906463623047 213.34620666503906 C 56.61306381225586 227.3647003173828 145.9016571044922 189.93653869628906 95.76432800292969 214.50953674316406" stroke-width="4.740049839019775" fill="none" stroke="rgb(120, 178, 28)" stroke-opacity="0.47328198" stroke-linecap="round" stroke-linejoin="round"/>
    <path d="M 168.15927124023438 99.78663635253906 C 213.98391723632812 77.39014434814453 172.2187042236328 116.88575744628906 179.81405639648438 90.42546844482422" stroke-width="22.539554595947266" fill="none" stroke="rgb(148, 76, 27)" stroke-opacity="0.8409763" stroke-linecap="round" stroke-linejoin="round"/>
    <path d="M 106.89921569824219 111.5063705444336 C 125.95360565185547 75.63170623779297 115.51766967773438 59.95100021362305 91.59905242919922 100.5593490600586" stroke-width="12.074809074401855" fill="none" stroke="rgb(25, 42, 54)" stroke-opacity="0.40307778" stroke-linecap="round" stroke-linejoin="round"/>
    <path d="M 222.76173400878906 97.736572265625 C 184.2705841064453 81.65587615966797 203.43954467773438 101.9651107788086 192.5984649658203 106.8595199584961" stroke-width="3.7621514797210693" fill="none" stroke="rgb(53, 18, 7)" stroke-opacity="0.9230717" stroke-linecap="round" stroke-linejoin="round"/>
    <path d="M 205.75550842285156 80.03595733642578 C 204.4998321533203 98.04801177978516 209.99642944335938 93.4180679321289 234.57896423339844 74.50148010253906" stroke-width="24.453285217285156" fill="none" stroke="rgb(98, 40, 11)" stroke-opacity="0.92751676" stroke-linecap="round" stroke-linejoin="round"/>
    <path d="M 233.5487518310547 178.7843780517578 C 136.02395629882812 177.1463165283203 193.2971954345703 187.2406463623047 244.51113891601562 196.34739685058594" stroke-width="38.34193801879883" fill="none" stroke="rgb(106, 99, 28)" stroke-opacity="0.6527551" stroke-linecap="round" stroke-linejoin="round"/>
    <path d="M 143.70079040527344 20.292573928833008 C 7.761719703674316 8.105497360229492 66.65779113769531 36.3857307434082 141.13436889648438 33.949527740478516" stroke-width="2.7447755336761475" fill="none" stroke="rgb(138, 161, 184)" stroke-opacity="0.7881513" stroke-linecap="round" stroke-linejoin="round"/>
    <path d="M 73.14118194580078 34.53340530395508 C 64.16264343261719 6.220415115356445 75.04400634765625 32.004756927490234 70.3649673461914 32.849124908447266" stroke-width="2.0013844966888428" fill="none" stroke="rgb(153, 39, 0)" stroke-opacity="0.34998003" stroke-linecap="round" stroke-linejoin="round"/>
    <path d="M 163.1956787109375 36.55324172973633 C 134.10581970214844 63.765045166015625 88.08880615234375 67.87203216552734 123.73473358154297 63.9842643737793" stroke-width="2.230921745300293" fill="none" stroke="rgb(106, 129, 113)" stroke-opacity="0.2197653" stroke-linecap="round" stroke-linejoin="round"/>
    <path d="M 117.6820068359375 82.53685760498047 C 99.59027099609375 93.63028717041016 113.79647827148438 80.4128189086914 112.83570861816406 91.49523162841797" stroke-width="7.9959869384765625" fill="none" stroke="rgb(22, 30, 29)" stroke-opacity="0.40194646" stroke-linecap="round" stroke-linejoin="round"/>
    <path d="M 116.76249694824219 67.78355407714844 C 116.60322570800781 89.82123565673828 101.74129486083984 80.77178192138672 130.1328125 67.99681854248047" stroke-width="7.962235450744629" fill="none" stroke="rgb(55, 29, 14)" stroke-opacity="0.22729228" stroke-linecap="round" stroke-linejoin="round"/>
    <path d="M 232.5087127685547 22.795562744140625 C 150.77197265625 30.79644775390625 169.2119903564453 26.36648178100586 230.07186889648438 27.140480041503906" stroke-width="5.765560150146484" fill="none" stroke="rgb(131, 150, 173)" stroke-opacity="0.8197117" stroke-linecap="round" stroke-linejoin="round"/>
    <path d="M 177.46949768066406 130.1385955810547 C 156.17752075195312 79.78189086914062 138.26573181152344 81.96891021728516 177.86924743652344 112.76988983154297" stroke-width="7.986178874969482" fill="none" stroke="rgb(30, 8, 9)" stroke-opacity="1.0021964" stroke-linecap="round" stroke-linejoin="round"/>
    <path d="M 214.8903045654297 81.1275405883789 C 252.0325927734375 101.96134948730469 204.9530792236328 51.91334915161133 194.97438049316406 75.55220794677734" stroke-width="13.646770477294922" fill="none" stroke="rgb(139, 46, 17)" stroke-opacity="0.5695064" stroke-linecap="round" stroke-linejoin="round"/>
    <path d="M 99.67400360107422 125.29064178466797 C 113.41719055175781 107.70988464355469 85.00668334960938 116.0137710571289 97.8140869140625 127.41922760009766" stroke-width="6.123918056488037" fill="none" stroke="rgb(21, 16, 15)" stroke-opacity="0.49889976" stroke-linecap="round" stroke-linejoin="round"/>
    <path d="M 34.006935119628906 200.9717559814453 C 105.88383483886719 179.58935546875 126.20026397705078 224.31712341308594 24.609786987304688 200.53277587890625" stroke-width="12.659696578979492" fill="none" stroke="rgb(110, 152, 205)" stroke-opacity="0.6535088" stroke-linecap="round" stroke-linejoin="round"/>
    <path d="M 163.43130493164062 43.41150665283203 C 141.2818603515625 64.74390411376953 170.9375 31.030431747436523 124.95384979248047 69.08526611328125" stroke-width="6.707948684692383" fill="none" stroke="rgb(152, 79, 68)" stroke-opacity="0.65733796" stroke-linecap="round" stroke-linejoin="round"/>
    <path d="M 162.66212463378906 95.35391998291016 C 138.7061767578125 72.90261840820312 113.43746948242188 95.1708755493164 122.42008209228516 88.49159240722656" stroke-width="3.621683120727539" fill="none" stroke="rgb(16, 7, 4)" stroke-opacity="0.6984771" stroke-linecap="round" stroke-linejoin="round"/>
    <path d="M 90.23734283447266 204.2281036376953 C 58.86909866333008 184.0247344970703 83.06494140625 222.66334533691406 1.4727733135223389 194.64593505859375" stroke-width="2.9707648754119873" fill="none" stroke="rgb(77, 97, 119)" stroke-opacity="0.42722872" stroke-linecap="round" stroke-linejoin="round"/>
    <path d="M 57.20264434814453 18.459251403808594 C 107.79457092285156 15.501163482666016 77.34536743164062 -2.2488176822662354 80.26731872558594 34.34358215332031" stroke-width="7.634947776794434" fill="none" stroke="rgb(118, 134, 169)" stroke-opacity="0.6311386" stroke-linecap="round" stroke-linejoin="round"/>
    <path d="M 152.23049926757812 81.68394470214844 C 148.7917938232422 82.28558349609375 172.0586395263672 60.500003814697266 146.18739318847656 78.052001953125" stroke-width="8.82313060760498" fill="none" stroke="rgb(80, 22, 15)" stroke-opacity="0.30009338" stroke-linecap="round" stroke-linejoin="round"/>
    <path d="M 112.76419067382812 171.42405700683594 C 191.35366821289062 195.8118438720703 173.51087951660156 161.664306640625 141.97052001953125 176.59072875976562" stroke-width="15.33061408996582" fill="none" stroke="rgb(146, 139, 70)" stroke-opacity="0.7650612" stroke-linecap="round" stroke-linejoin="round"/>
    <path d="M 217.48272705078125 56.36049270629883 C 242.7257080078125 35.343788146972656 215.1789093017578 53.39719772338867 194.3336639404297 51.50834655761719" stroke-width="9.493470191955566" fill="none" stroke="rgb(157, 56, 12)" stroke-opacity="0.8016332" stroke-linecap="round" stroke-linejoin="round"/>
    <path d="M 107.96704864501953 122.5844497680664 C 73.14295959472656 126.137451171875 88.68103790283203 130.86981201171875 96.64105224609375 97.71613311767578" stroke-width="7.496532440185547" fill="none" stroke="rgb(14, 8, 4)" stroke-opacity="0.76465505" stroke-linecap="round" stroke-linejoin="round"/>
    <path d="M 105.22586059570312 167.12550354003906 C 120.05429077148438 120.88846588134766 86.04356384277344 139.53237915039062 123.09517669677734 89.1499252319336" stroke-width="13.355128288269043" fill="none" stroke="rgb(97, 49, 38)" stroke-opacity="1.0050817" stroke-linecap="round" stroke-linejoin="round"/>
    <path d="M 153.0371856689453 41.75917434692383 C 119.84684753417969 56.24347686767578 138.6117401123047 46.064857482910156 176.54495239257812 42.0415153503418" stroke-width="2.6963858604431152" fill="none" stroke="rgb(-1, 4, 27)" stroke-opacity="0.69790167" stroke-linecap="round" stroke-linejoin="round"/>
    <path d="M 129.87692260742188 29.143009185791016 C 59.012290954589844 20.06085777282715 143.33062744140625 90.37489318847656 124.52537536621094 -2.6015095710754395" stroke-width="3.715651035308838" fill="none" stroke="rgb(127, 152, 170)" stroke-opacity="0.32638213" stroke-linecap="round" stroke-linejoin="round"/>
    <path d="M 162.90171813964844 57.305850982666016 C 162.5787811279297 98.78634643554688 156.25230407714844 81.12965393066406 177.42892456054688 87.33773803710938" stroke-width="9.57330322265625" fill="none" stroke="rgb(123, 41, 20)" stroke-opacity="0.68095607" stroke-linecap="round" stroke-linejoin="round"/>
    <path d="M 209.26881408691406 32.30287170410156 C 121.03111267089844 55.720062255859375 132.6865234375 68.63878631591797 165.65159606933594 41.1161994934082" stroke-width="1.963327169418335" fill="none" stroke="rgb(37, 30, 12)" stroke-opacity="0.100433335" stroke-linecap="round" stroke-linejoin="round"/>
    <path d="M -14.509565353393555 72.65739440917969 C 105.32955169677734 60.03825759887695 67.22151184082031 94.3746337890625 9.755330085754395 88.27107238769531" stroke-width="29.729660034179688" fill="none" stroke="rgb(141, 166, 188)" stroke-opacity="0.71632475" stroke-linecap="round" stroke-linejoin="round"/>
    <path d="M 44.98552703857422 7.389105319976807 C 207.3258056640625 7.1949052810668945 191.69439697265625 -15.883370399475098 12.116992950439453 1.6259196996688843" stroke-width="12.501164436340332" fill="none" stroke="rgb(2, 3, 2)" stroke-opacity="0.48452973" stroke-linecap="round" stroke-linejoin="round"/>
    <path d="M 169.61476135253906 222.41929626464844 C 264.1706848144531 194.93917846679688 153.9727020263672 228.9591827392578 222.4899139404297 210.7040557861328" stroke-width="12.135642051696777" fill="none" stroke="rgb(71, 149, -1)" stroke-opacity="0.68471575" stroke-linecap="round" stroke-linejoin="round"/>
    <path d="M 210.97853088378906 226.6435546875 C 116.30229949951172 190.41934204101562 131.52157592773438 196.2086944580078 161.5780487060547 192.05633544921875" stroke-width="25.244508743286133" fill="none" stroke="rgb(251, 171, 147)" stroke-opacity="0.5017378" stroke-linecap="round" stroke-linejoin="round"/>
    <path d="M 38.49897384643555 208.20091247558594 C 158.1171417236328 199.1719512939453 5.657193660736084 215.910400390625 149.89686584472656 223.91493225097656" stroke-width="2.1998345851898193" fill="none" stroke="rgb(76, 86, 109)" stroke-opacity="0.6540656" stroke-linecap="round" stroke-linejoin="round"/>
    <path d="M 106.96702575683594 176.35574340820312 C 71.04999542236328 145.3676300048828 101.15632629394531 131.86830139160156 86.6290283203125 141.03515625" stroke-width="6.966987609863281" fill="none" stroke="rgb(0, -1, -3)" stroke-opacity="0.3783043" stroke-linecap="round" stroke-linejoin="round"/>
    <path d="M 78.83582305908203 151.26406860351562 C 103.04132843017578 118.81779479980469 93.50509643554688 161.8792266845703 89.74274444580078 134.2036895751953" stroke-width="9.273497581481934" fill="none" stroke="rgb(18, 2, -1)" stroke-opacity="0.45344093" stroke-linecap="round" stroke-linejoin="round"/>
    <path d="M 95.86662292480469 131.70591735839844 C 96.21157836914062 101.47286987304688 98.87248992919922 90.6957778930664 91.3333969116211 106.90453338623047" stroke-width="2.3645033836364746" fill="none" stroke="rgb(28, 49, 56)" stroke-opacity="0.39677623" stroke-linecap="round" stroke-linejoin="round"/>
    <path d="M 217.23394775390625 123.77778625488281 C 213.90701293945312 119.25350952148438 203.80392456054688 156.20738220214844 231.1258544921875 125.33821868896484" stroke-width="2.612874746322632" fill="none" stroke="rgb(159, 122, -1)" stroke-opacity="0.8320475" stroke-linecap="round" stroke-linejoin="round"/>
    <path d="M 154.92604064941406 168.78543090820312 C 133.17388916015625 144.8773651123047 47.50836181640625 198.61627197265625 168.20799255371094 168.7948760986328" stroke-width="7.476259231567383" fill="none" stroke="rgb(29, 54, 46)" stroke-opacity="0.13332313" stroke-linecap="round" stroke-linejoin="round"/>
    <path d="M 101.6079330444336 87.12478637695312 C 78.76496887207031 125.1531753540039 90.989990234375 183.37770080566406 79.5437240600586 141.10675048828125" stroke-width="6.556938171386719" fill="none" stroke="rgb(5, -1, -3)" stroke-opacity="0.44753873" stroke-linecap="round" stroke-linejoin="round"/>
    <path d="M 202.0511932373047 127.9403076171875 C 249.23727416992188 132.4747772216797 181.98646545410156 173.11477661132812 204.65638732910156 160.68853759765625" stroke-width="2.0553271770477295" fill="none" stroke="rgb(95, 83, 0)" stroke-opacity="0.3973475" stroke-linecap="round" stroke-linejoin="round"/>
    <path d="M 38.214542388916016 185.0365753173828 C 46.616172790527344 177.6422119140625 63.271522521972656 184.90826416015625 82.901123046875 181.8838348388672" stroke-width="5.564562797546387" fill="none" stroke="rgb(49, 72, 0)" stroke-opacity="0.3483212" stroke-linecap="round" stroke-linejoin="round"/>
    <path d="M 193.462158203125 56.947879791259766 C 220.03550720214844 95.23430633544922 192.19618225097656 49.50926208496094 192.64793395996094 83.13020324707031" stroke-width="5.73063850402832" fill="none" stroke="rgb(132, 46, 1)" stroke-opacity="0.6438684" stroke-linecap="round" stroke-linejoin="round"/>
    <path d="M 142.09288024902344 77.68696594238281 C 164.90187072753906 68.06849670410156 153.53749084472656 100.87681579589844 138.42787170410156 91.87448120117188" stroke-width="5.052201747894287" fill="none" stroke="rgb(57, 23, 13)" stroke-opacity="0.41117278" stroke-linecap="round" stroke-linejoin="round"/>
    <path d="M 72.24571990966797 65.00049591064453 C 6.477440357208252 65.5838623046875 61.602420806884766 61.363380432128906 12.302515983581543 64.30442810058594" stroke-width="2.9877076148986816" fill="none" stroke="rgb(77, 84, 107)" stroke-opacity="0.18644907" stroke-linecap="round" stroke-linejoin="round"/>
    <path d="M 70.69010162353516 120.26243591308594 C -9.722463607788086 153.2022705078125 109.16299438476562 84.04656982421875 80.25885009765625 85.55537414550781" stroke-width="23.77073097229004" fill="none" stroke="rgb(165, 187, 213)" stroke-opacity="0.48906314" stroke-linecap="round" stroke-linejoin="round"/>
    <path d="M 110.0399398803711 93.07914733886719 C 147.40077209472656 75.9764404296875 148.2893829345703 76.0208740234375 149.0895233154297 81.26482391357422" stroke-width="3.0895488262176514" fill="none" stroke="rgb(162, 114, 84)" stroke-opacity="0.18049262" stroke-linecap="round" stroke-linejoin="round"/>
    <path d="M 192.9442138671875 36.42958068847656 C 119.39341735839844 17.345415115356445 107.3203353881836 24.006628036499023 166.59695434570312 34.90544891357422" stroke-width="4.147110939025879" fill="none" stroke="rgb(83, 111, 129)" stroke-opacity="0.104280345" stroke-linecap="round" stroke-linejoin="round"/>
    <path d="M 151.28529357910156 92.24203491210938 C 131.40960693359375 98.39280700683594 126.88184356689453 94.86738586425781 111.95694732666016 130.10092163085938" stroke-width="3.4129998683929443" fill="none" stroke="rgb(73, 32, 23)" stroke-opacity="0.6109596" stroke-linecap="round" stroke-linejoin="round"/>
    <path d="M 119.69007873535156 92.64838409423828 C 135.7838134765625 89.29003143310547 135.90631103515625 83.18418884277344 149.7899932861328 98.25910186767578" stroke-width="5.45219087600708" fill="none" stroke="rgb(160, 71, 15)" stroke-opacity="0.1666381" stroke-linecap="round" stroke-linejoin="round"/>
    <path d="M 160.12493896484375 73.20687866210938 C 154.12200927734375 64.2047348022461 149.0084991455078 88.76216888427734 154.7734832763672 83.99969482421875" stroke-width="5.274046897888184" fill="none" stroke="rgb(56, 10, 16)" stroke-opacity="0.18642679" stroke-linecap="round" stroke-linejoin="round"/>
    <path d="M 122.26158905029297 120.9209213256836 C 235.78009033203125 124.07054901123047 222.63534545898438 145.1140899658203 123.6893539428711 127.78498077392578" stroke-width="22.77457618713379" fill="none" stroke="rgb(58, 102, 147)" stroke-opacity="0.30445996" stroke-linecap="round" stroke-linejoin="round"/>
    <path d="M 230.16409301757812 96.6374282836914 C 183.04551696777344 108.48627471923828 198.4182586669922 99.81610107421875 215.13027954101562 96.94924926757812" stroke-width="4.510876655578613" fill="none" stroke="rgb(64, 30, 20)" stroke-opacity="0.8119329" stroke-linecap="round" stroke-linejoin="round"/>
    <path d="M 235.1565399169922 112.27825164794922 C 187.24073791503906 99.52930450439453 225.8424835205078 106.36856842041016 203.39434814453125 89.68378448486328" stroke-width="9.887262344360352" fill="none" stroke="rgb(0, 0, 14)" stroke-opacity="0.223555" stroke-linecap="round" stroke-linejoin="round"/>
    <path d="M 83.28155517578125 93.06990814208984 C 4.575296878814697 137.5629425048828 -16.221965789794922 108.72854614257812 59.3323860168457 78.17581939697266" stroke-width="13.728110313415527" fill="none" stroke="rgb(91, 128, 165)" stroke-opacity="0.12886304" stroke-linecap="round" stroke-linejoin="round"/>
    <path d="M 187.8101348876953 90.0971908569336 C 163.07493591308594 69.0557632446289 136.10813903808594 84.02770233154297 183.86502075195312 112.69400787353516" stroke-width="5.793850898742676" fill="none" stroke="rgb(115, 40, 21)" stroke-opacity="0.49489596" stroke-linecap="round" stroke-linejoin="round"/>
    <path d="M 42.88416290283203 -5.018524169921875 C -31.570131301879883 -3.080235481262207 -31.194204330444336 -0.0851445198059082 65.84941864013672 4.727189540863037" stroke-width="11.204349517822266" fill="none" stroke="rgb(-1, 14, 59)" stroke-opacity="0.5884231" stroke-linecap="round" stroke-linejoin="round"/>
    <path d="M 109.12886047363281 185.97250366210938 C 147.20814514160156 196.39837646484375 70.2867431640625 203.4026641845703 159.65855407714844 183.6454315185547" stroke-width="18.34661102294922" fill="none" stroke="rgb(114, 134, 55)" stroke-opacity="0.5664352" stroke-linecap="round" stroke-linejoin="round"/>
    <path d="M 106.51049041748047 127.27534484863281 C 124.10790252685547 177.0453338623047 91.40863800048828 128.03890991210938 104.87651824951172 127.99203491210938" stroke-width="9.208120346069336" fill="none" stroke="rgb(154, 57, 14)" stroke-opacity="0.77133787" stroke-linecap="round" stroke-linejoin="round"/>
    <path d="M 161.6208953857422 42.2618408203125 C 117.4571533203125 62.3006706237793 101.7682113647461 85.99665832519531 135.1393585205078 49.76612091064453" stroke-width="7.259613037109375" fill="none" stroke="rgb(62, 0, 0)" stroke-opacity="0.27955166" stroke-linecap="round" stroke-linejoin="round"/>
    <path d="M 117.6128158569336 211.65789794921875 C 98.71440124511719 189.910400390625 74.61298370361328 158.24114990234375 54.87840270996094 208.0629119873047" stroke-width="23.399450302124023" fill="none" stroke="rgb(93, 108, 171)" stroke-opacity="0.14368899" stroke-linecap="round" stroke-linejoin="round"/>
    <path d="M 186.0785675048828 16.24427604675293 C 187.96070861816406 48.47922897338867 189.2327423095703 21.882936477661133 233.2789764404297 27.5477237701416" stroke-width="28.460533142089844" fill="none" stroke="rgb(145, 169, 196)" stroke-opacity="0.48200262" stroke-linecap="round" stroke-linejoin="round"/>
    <path d="M 190.8659210205078 91.50357055664062 C 172.2847137451172 69.20476531982422 211.33351135253906 43.59917449951172 219.60324096679688 68.76962280273438" stroke-width="11.489005088806152" fill="none" stroke="rgb(199, 129, 37)" stroke-opacity="0.19982737" stroke-linecap="round" stroke-linejoin="round"/>
    <path d="M 109.48502349853516 91.59416198730469 C 86.12205505371094 147.7833709716797 112.66251373291016 135.47518920898438 100.77031707763672 123.55186462402344" stroke-width="8.730607986450195" fill="none" stroke="rgb(10, 0, -1)" stroke-opacity="0.5332685" stroke-linecap="round" stroke-linejoin="round"/>
    <path d="M 98.1396255493164 88.67475891113281 C 66.03009033203125 83.72808837890625 109.84239959716797 123.93119049072266 59.87302017211914 115.70086669921875" stroke-width="2.1028478145599365" fill="none" stroke="rgb(41, 75, 86)" stroke-opacity="0.13916461" stroke-linecap="round" stroke-linejoin="round"/>
    <path d="M 238.30224609375 101.65906524658203 C 210.1074981689453 96.46266174316406 215.3583526611328 111.38168334960938 203.7542724609375 90.880126953125" stroke-width="5.379308223724365" fill="none" stroke="rgb(26, 12, 1)" stroke-opacity="0.3636892" stroke-linecap="round" stroke-linejoin="round"/>
    <path d="M 174.10324096679688 120.05751037597656 C 154.33551025390625 93.37330627441406 142.7770233154297 86.53982543945312 177.60772705078125 116.67649841308594" stroke-width="9.555727005004883" fill="none" stroke="rgb(21, 13, 10)" stroke-opacity="0.9157019" stroke-linecap="round" stroke-linejoin="round"/>
    <path d="M 203.8216094970703 58.8908805847168 C 198.3109130859375 65.24324798583984 272.2860107421875 113.13676452636719 222.47767639160156 53.664764404296875" stroke-width="12.974562644958496" fill="none" stroke="rgb(149, 57, 21)" stroke-opacity="0.51581055" stroke-linecap="round" stroke-linejoin="round"/>
    <path d="M 40.38521194458008 18.8663387298584 C 128.61038208007812 92.75594329833984 40.4891471862793 -0.2928910255432129 119.4124755859375 19.236572265625" stroke-width="14.878143310546875" fill="none" stroke="rgb(166, 193, 213)" stroke-opacity="0.35582748" stroke-linecap="round" stroke-linejoin="round"/>
    <path d="M 93.85986328125 115.42833709716797 C 88.99195861816406 85.44598388671875 102.41189575195312 86.10081481933594 121.21133422851562 60.85225296020508" stroke-width="2.2123734951019287" fill="none" stroke="rgb(13, 10, 6)" stroke-opacity="0.9695536" stroke-linecap="round" stroke-linejoin="round"/>
    <path d="M 99.63613891601562 154.8279266357422 C 133.5681915283203 150.4558563232422 85.07706451416016 146.50440979003906 91.33621215820312 210.97816467285156" stroke-width="10.996794700622559" fill="none" stroke="rgb(198, 77, -1)" stroke-opacity="0.34653276" stroke-linecap="round" stroke-linejoin="round"/>
    <path d="M 181.36758422851562 154.8643341064453 C 171.6903839111328 92.34870910644531 183.82498168945312 83.29740142822266 179.57566833496094 122.29660034179688" stroke-width="7.774896144866943" fill="none" stroke="rgb(125, 51, 21)" stroke-opacity="0.77694494" stroke-linecap="round" stroke-linejoin="round"/>
    <path d="M 154.40118408203125 206.03892517089844 C 307.8610534667969 199.73626708984375 298.22625732421875 213.5679931640625 160.57986450195312 230.3462371826172" stroke-width="18.559450149536133" fill="none" stroke="rgb(129, 135, 69)" stroke-opacity="0.6799209" stroke-linecap="round" stroke-linejoin="round"/>
    <path d="M 231.86380004882812 49.17975997924805 C 225.7952880859375 48.99451446533203 222.62823486328125 41.54814910888672 229.73744201660156 54.321189880371094" stroke-width="2.0" fill="none" stroke="rgb(39, 36, 0)" stroke-opacity="0.8523953" stroke-linecap="round" stroke-linejoin="round"/>
    <path d="M 112.43697357177734 213.9808349609375 C 91.89348602294922 245.0248565673828 93.13723754882812 146.96697998046875 109.33798217773438 182.70167541503906" stroke-width="10.896693229675293" fill="none" stroke="rgb(105, 48, -2)" stroke-opacity="0.29085654" stroke-linecap="round" stroke-linejoin="round"/>
    <path d="M 231.5877685546875 94.56261444091797 C 223.3267059326172 84.63127136230469 232.25013732910156 79.01206970214844 228.3674774169922 78.65751647949219" stroke-width="2.0" fill="none" stroke="rgb(0, 31, 32)" stroke-opacity="0.87836283" stroke-linecap="round" stroke-linejoin="round"/>
    <path d="M 79.55469512939453 107.40471649169922 C 19.532445907592773 152.50807189941406 148.2709503173828 112.76841735839844 -1.625490427017212 117.30194854736328" stroke-width="2.986283779144287" fill="none" stroke="rgb(122, 118, 165)" stroke-opacity="0.1514955" stroke-linecap="round" stroke-linejoin="round"/>
    <path d="M 43.501380920410156 3.0396389961242676 C 157.1812286376953 11.708023071289062 99.70375061035156 1.9851539134979248 104.92628479003906 4.158120632171631" stroke-width="5.826985836029053" fill="none" stroke="rgb(-1, 7, 2)" stroke-opacity="0.36160576" stroke-linecap="round" stroke-linejoin="round"/>
    <path d="M 117.25028991699219 116.55299377441406 C 94.14417266845703 154.95465087890625 119.73445129394531 131.90875244140625 98.30975341796875 136.1125946044922" stroke-width="5.998380661010742" fill="none" stroke="rgb(162, 85, 74)" stroke-opacity="1.0048356" stroke-linecap="round" stroke-linejoin="round"/>
    <path d="M 10.723603248596191 213.86016845703125 C 116.6304931640625 251.9665985107422 154.28651428222656 168.61965942382812 2.7898616790771484 187.08746337890625" stroke-width="21.697002410888672" fill="none" stroke="rgb(8, 6, 2)" stroke-opacity="0.13947406" stroke-linecap="round" stroke-linejoin="round"/>
    <path d="M 116.70468139648438 63.01289749145508 C 142.77175903320312 47.56076431274414 149.7446746826172 41.75663375854492 140.4960479736328 50.0162353515625" stroke-width="2.8214223384857178" fill="none" stroke="rgb(3, -1, 1)" stroke-opacity="0.6827185" stroke-linecap="round" stroke-linejoin="round"/>
    <path d="M 25.0561580657959 63.60661697387695 C 128.5138702392578 86.23002624511719 24.18231964111328 62.277523040771484 62.35689926147461 70.1116714477539" stroke-width="17.039714813232422" fill="none" stroke="rgb(106, 126, 149)" stroke-opacity="0.14673841" stroke-linecap="round" stroke-linejoin="round"/>
    <path d="M 183.78175354003906 66.3099365234375 C 162.6594696044922 74.13470458984375 183.8144989013672 111.3458480834961 180.9903106689453 51.332122802734375" stroke-width="5.141454219818115" fill="none" stroke="rgb(98, 30, -2)" stroke-opacity="0.6972148" stroke-linecap="round" stroke-linejoin="round"/>
    <path d="M 175.8318328857422 50.09553146362305 C 187.74488830566406 45.162147521972656 162.78662109375 35.85135269165039 168.43682861328125 50.58542251586914" stroke-width="7.006225109100342" fill="none" stroke="rgb(160, 74, 54)" stroke-opacity="0.8147043" stroke-linecap="round" stroke-linejoin="round"/>
    <path d="M 94.4205322265625 138.88754272460938 C 124.16863250732422 151.615234375 98.19139099121094 124.69235229492188 96.32176971435547 132.10694885253906" stroke-width="5.602122783660889" fill="none" stroke="rgb(169, 79, 55)" stroke-opacity="0.5351178" stroke-linecap="round" stroke-linejoin="round"/>
    <path d="M 111.53483581542969 154.9236297607422 C 84.24082946777344 125.50470733642578 87.23100280761719 128.15194702148438 90.67314147949219 131.41078186035156" stroke-width="5.303756237030029" fill="none" stroke="rgb(108, 24, 1)" stroke-opacity="0.93792486" stroke-linecap="round" stroke-linejoin="round"/>
    <path d="M 111.9497299194336 46.21182632446289 C 94.69046020507812 70.25770568847656 95.15982055664062 46.990867614746094 122.47514343261719 64.20195770263672" stroke-width="6.300210952758789" fill="none" stroke="rgb(97, 106, 104)" stroke-opacity="0.12730663" stroke-linecap="round" stroke-linejoin="round"/>
    <path d="M -13.892501831054688 17.636173248291016 C 85.98497009277344 20.05892562866211 26.197574615478516 15.840799331665039 46.60308837890625 2.983238458633423" stroke-width="17.124561309814453" fill="none" stroke="rgb(95, 118, 137)" stroke-opacity="0.6378829" stroke-linecap="round" stroke-linejoin="round"/>
    <path d="M 106.02742004394531 122.65447998046875 C 110.53691101074219 96.00837707519531 109.78443908691406 104.58434295654297 92.27081298828125 134.6453399658203" stroke-width="5.690919876098633" fill="none" stroke="rgb(70, 18, 8)" stroke-opacity="0.64861107" stroke-linecap="round" stroke-linejoin="round"/>
    <path d="M 162.72059631347656 5.226258277893066 C 172.51025390625 -21.50264549255371 191.91563415527344 15.196765899658203 172.79632568359375 4.016252517700195" stroke-width="4.267475605010986" fill="none" stroke="rgb(0, -2, 77)" stroke-opacity="0.7619874" stroke-linecap="round" stroke-linejoin="round"/>
    <path d="M 224.33201599121094 62.77751159667969 C 192.50430297851562 47.63700485229492 237.72616577148438 76.3293685913086 228.28506469726562 67.49217987060547" stroke-width="9.701061248779297" fill="none" stroke="rgb(166, 70, 27)" stroke-opacity="0.7219654" stroke-linecap="round" stroke-linejoin="round"/>
    <path d="M 119.04877471923828 107.2327651977539 C 105.06485748291016 144.23629760742188 105.50090026855469 136.74676513671875 107.58860778808594 111.78274536132812" stroke-width="9.329153060913086" fill="none" stroke="rgb(125, 29, 0)" stroke-opacity="0.7025607" stroke-linecap="round" stroke-linejoin="round"/>
    <path d="M 162.84262084960938 91.95230865478516 C 184.4427947998047 101.91097259521484 157.1886444091797 102.84017181396484 175.15965270996094 79.24261474609375" stroke-width="13.620219230651855" fill="none" stroke="rgb(89, 33, 9)" stroke-opacity="0.47870043" stroke-linecap="round" stroke-linejoin="round"/>
    <path d="M 47.677825927734375 122.36290740966797 C -3.2293365001678467 105.7818832397461 50.966156005859375 157.81610107421875 10.819731712341309 124.62731170654297" stroke-width="4.280671119689941" fill="none" stroke="rgb(116, 149, 139)" stroke-opacity="0.15901046" stroke-linecap="round" stroke-linejoin="round"/>
    <path d="M -5.555250644683838 135.56723022460938 C 143.9527587890625 134.41368103027344 127.76986694335938 120.25590515136719 -8.095352172851562 126.6955337524414" stroke-width="6.81736421585083" fill="none" stroke="rgb(47, 89, 108)" stroke-opacity="0.15824163" stroke-linecap="round" stroke-linejoin="round"/>
    <path d="M 97.94597625732422 205.0668487548828 C 107.79139709472656 149.0563201904297 126.5536117553711 151.19903564453125 97.05518341064453 145.45614624023438" stroke-width="4.206615447998047" fill="none" stroke="rgb(164, 62, 14)" stroke-opacity="0.5833315" stroke-linecap="round" stroke-linejoin="round"/>
    <path d="M 75.5593490600586 7.647912979125977 C 67.1449203491211 -34.246952056884766 99.2663345336914 4.071230888366699 94.91462707519531 -9.62371826171875" stroke-width="3.705047845840454" fill="none" stroke="rgb(187, 186, 76)" stroke-opacity="0.40246645" stroke-linecap="round" stroke-linejoin="round"/>
    <path d="M 111.13855743408203 142.2216033935547 C 88.68995666503906 103.88066101074219 130.89749145507812 107.58013153076172 102.27365112304688 138.989013671875" stroke-width="2.7166476249694824" fill="none" stroke="rgb(150, 66, 27)" stroke-opacity="0.40467083" stroke-linecap="round" stroke-linejoin="round"/>
    <path d="M 110.60015869140625 19.02879524230957 C 82.6927719116211 56.10905456542969 89.40372467041016 12.277019500732422 71.67668151855469 41.34126663208008" stroke-width="3.3630664348602295" fill="none" stroke="rgb(125, 137, 159)" stroke-opacity="0.34961504" stroke-linecap="round" stroke-linejoin="round"/>
    <path d="M 113.57879638671875 100.0880126953125 C 113.87985229492188 117.91805267333984 110.75202941894531 92.31363677978516 126.13211822509766 78.29573822021484" stroke-width="15.089969635009766" fill="none" stroke="rgb(148, 66, 44)" stroke-opacity="0.6981657" stroke-linecap="round" stroke-linejoin="round"/>
    <path d="M 43.46461868286133 24.882930755615234 C 182.1730194091797 10.266765594482422 129.068359375 21.14652442932129 188.32513427734375 18.948848724365234" stroke-width="14.883546829223633" fill="none" stroke="rgb(142, 164, 188)" stroke-opacity="0.8175297" stroke-linecap="round" stroke-linejoin="round"/>
    <path d="M -8.646340370178223 172.23377990722656 C 119.1147232055664 164.7636260986328 123.60572814941406 163.9418182373047 -0.21470317244529724 165.7781982421875" stroke-width="20.573848724365234" fill="none" stroke="rgb(0, 64, 134)" stroke-opacity="0.23960707" stroke-linecap="round" stroke-linejoin="round"/>
    <path d="M 78.6527328491211 212.1930389404297 C 130.24549865722656 231.0275421142578 98.36663818359375 209.47286987304688 141.32125854492188 207.486083984375" stroke-width="7.684637069702148" fill="none" stroke="rgb(39, 14, 46)" stroke-opacity="0.22033651" stroke-linecap="round" stroke-linejoin="round"/>
    <path d="M 134.9709930419922 87.40473175048828 C 107.72500610351562 109.28081512451172 119.40013122558594 78.47972869873047 122.45057678222656 92.43460845947266" stroke-width="4.315759181976318" fill="none" stroke="rgb(227, 113, 92)" stroke-opacity="0.30008826" stroke-linecap="round" stroke-linejoin="round"/>
    <path d="M 117.42171478271484 77.91162109375 C 99.6129150390625 94.30924987792969 100.85182189941406 128.64120483398438 105.04900360107422 101.8106689453125" stroke-width="5.194531440734863" fill="none" stroke="rgb(42, 8, 13)" stroke-opacity="0.4088545" stroke-linecap="round" stroke-linejoin="round"/>
    <path d="M 88.0726547241211 38.01010513305664 C 99.00836181640625 60.79844284057617 50.51107406616211 25.318389892578125 120.97359466552734 14.010420799255371" stroke-width="13.809168815612793" fill="none" stroke="rgb(133, 154, 177)" stroke-opacity="0.37239593" stroke-linecap="round" stroke-linejoin="round"/>
    <path d="M 83.92561340332031 93.95179748535156 C 30.00874900817871 87.99451446533203 3.5895156860351562 88.07151794433594 85.23808288574219 84.45289611816406" stroke-width="3.2622501850128174" fill="none" stroke="rgb(120, 135, 161)" stroke-opacity="0.24766415" stroke-linecap="round" stroke-linejoin="round"/>
    <path d="M 232.78440856933594 44.48930358886719 C 234.784912109375 50.23014831542969 235.5886993408203 53.21278381347656 228.8617706298828 61.37410354614258" stroke-width="2.0" fill="none" stroke="rgb(0, 20, 21)" stroke-opacity="0.9240908" stroke-linecap="round" stroke-linejoin="round"/>
    <path d="M 127.76351928710938 97.58794403076172 C 90.5259017944336 151.89044189453125 129.7189178466797 143.67713928222656 97.48206329345703 132.64743041992188" stroke-width="4.201313495635986" fill="none" stroke="rgb(230, 150, 109)" stroke-opacity="0.2543322" stroke-linecap="round" stroke-linejoin="round"/>
    <path d="M 183.94482421875 67.8362808227539 C 175.74185180664062 106.79972076416016 168.1533966064453 96.6297836303711 181.8759765625 67.10084533691406" stroke-width="14.011356353759766" fill="none" stroke="rgb(141, 62, 20)" stroke-opacity="0.51564944" stroke-linecap="round" stroke-linejoin="round"/>
    <path d="M 42.82908248901367 130.76759338378906 C 110.39152526855469 45.41501235961914 96.06127166748047 71.45098114013672 77.96331024169922 142.47421264648438" stroke-width="7.0479736328125" fill="none" stroke="rgb(39, 27, 133)" stroke-opacity="0.046650615" stroke-linecap="round" stroke-linejoin="round"/>
    <path d="M 126.3284683227539 155.0375213623047 C 144.73977661132812 151.03152465820312 130.98880004882812 155.1112823486328 178.09701538085938 155.8529815673828" stroke-width="33.56834411621094" fill="none" stroke="rgb(49, 84, 116)" stroke-opacity="0.2573384" stroke-linecap="round" stroke-linejoin="round"/>
    <path d="M -8.649454116821289 -5.1039838790893555 C -5.813103675842285 7.929272651672363 -6.689820289611816 2.197996139526367 -1.8048800230026245 -11.227190017700195" stroke-width="2.0591094493865967" fill="none" stroke="rgb(63, 67, 112)" stroke-opacity="0.6516179" stroke-linecap="round" stroke-linejoin="round"/>
    <path d="M 16.872234344482422 80.97909545898438 C -23.68653678894043 90.66185760498047 -31.773563385009766 69.03585815429688 -4.831117153167725 74.76952362060547" stroke-width="14.11540699005127" fill="none" stroke="rgb(131, 150, 182)" stroke-opacity="0.2341037" stroke-linecap="round" stroke-linejoin="round"/>
    <path d="M 95.07649993896484 132.22079467773438 C 119.8233413696289 182.57058715820312 117.31294250488281 153.19601440429688 110.4827880859375 143.419921875" stroke-width="3.225241184234619" fill="none" stroke="rgb(152, 75, 56)" stroke-opacity="0.87509537" stroke-linecap="round" stroke-linejoin="round"/>
    <path d="M 175.51145935058594 210.95884704589844 C 109.19746398925781 250.77467346191406 169.1437225341797 199.51463317871094 137.40480041503906 214.0718231201172" stroke-width="9.672927856445312" fill="none" stroke="rgb(13, 0, 74)" stroke-opacity="0.12080021" stroke-linecap="round" stroke-linejoin="round"/>
    <path d="M 146.2879638671875 85.00652313232422 C 176.34010314941406 112.06568145751953 145.22181701660156 112.74352264404297 156.69601440429688 76.96520233154297" stroke-width="8.443856239318848" fill="none" stroke="rgb(32, 21, 16)" stroke-opacity="0.3016754" stroke-linecap="round" stroke-linejoin="round"/>
    <path d="M 62.675331115722656 39.609825134277344 C 224.64088439941406 40.33928298950195 168.47589111328125 54.12677001953125 3.0345778465270996 50.16790008544922" stroke-width="3.9005086421966553" fill="none" stroke="rgb(38, 71, 84)" stroke-opacity="0.1040232" stroke-linecap="round" stroke-linejoin="round"/>
    <path d="M 220.04197692871094 -5.573648929595947 C 122.57343292236328 8.529999732971191 143.6682891845703 1.4752596616744995 242.9068603515625 4.848204612731934" stroke-width="11.409189224243164" fill="none" stroke="rgb(26, 51, 15)" stroke-opacity="0.63521045" stroke-linecap="round" stroke-linejoin="round"/>
    <path d="M 102.08214569091797 118.66635131835938 C 106.43109893798828 93.8597412109375 119.14034271240234 110.03234100341797 106.9198226928711 116.75349426269531" stroke-width="9.075127601623535" fill="none" stroke="rgb(67, 14, 0)" stroke-opacity="0.28366658" stroke-linecap="round" stroke-linejoin="round"/>
    <path d="M 195.1571502685547 116.01687622070312 C 260.903564453125 107.91573333740234 207.13101196289062 93.57992553710938 220.71316528320312 142.92039489746094" stroke-width="16.708919525146484" fill="none" stroke="rgb(119, 153, 192)" stroke-opacity="0.4768877" stroke-linecap="round" stroke-linejoin="round"/>
    <path d="M 124.90743255615234 37.76652145385742 C 72.12950897216797 71.58059692382812 141.86856079101562 73.41445922851562 34.77119827270508 64.30030822753906" stroke-width="16.307279586791992" fill="none" stroke="rgb(156, 178, 201)" stroke-opacity="0.43834287" stroke-linecap="round" stroke-linejoin="round"/>
    <path d="M 173.7271270751953 93.81220245361328 C 196.58741760253906 113.2330322265625 213.54428100585938 108.76358032226562 198.21241760253906 84.24409484863281" stroke-width="3.090998888015747" fill="none" stroke="rgb(63, 26, 19)" stroke-opacity="0.53389555" stroke-linecap="round" stroke-linejoin="round"/>
    <path d="M 144.4470672607422 104.03767395019531 C 86.71429443359375 120.78778076171875 131.40521240234375 107.25309753417969 156.24415588378906 112.2205581665039" stroke-width="14.106476783752441" fill="none" stroke="rgb(79, 119, 158)" stroke-opacity="0.30700848" stroke-linecap="round" stroke-linejoin="round"/>
    <path d="M 146.51756286621094 198.0585479736328 C 57.056861877441406 193.41464233398438 113.12397766113281 198.71408081054688 92.2035140991211 207.0505828857422" stroke-width="20.078407287597656" fill="none" stroke="rgb(120, 107, 82)" stroke-opacity="0.42503557" stroke-linecap="round" stroke-linejoin="round"/>
    <path d="M 144.02523803710938 72.27104187011719 C 122.45700073242188 89.14332580566406 138.09201049804688 78.43509674072266 114.9333724975586 97.59431457519531" stroke-width="7.13995885848999" fill="none" stroke="rgb(113, 35, 6)" stroke-opacity="0.34534922" stroke-linecap="round" stroke-linejoin="round"/>
    <path d="M 170.01315307617188 187.99322509765625 C 155.08502197265625 195.16217041015625 187.61805725097656 190.2205047607422 176.17359924316406 136.38571166992188" stroke-width="2.962374448776245" fill="none" stroke="rgb(65, 33, 28)" stroke-opacity="0.9813268" stroke-linecap="round" stroke-linejoin="round"/>
    <path d="M 181.3612060546875 179.05081176757812 C 168.37164306640625 104.8961410522461 176.67433166503906 145.02708435058594 175.90570068359375 103.43428039550781" stroke-width="3.725191593170166" fill="none" stroke="rgb(53, 20, 17)" stroke-opacity="0.481136" stroke-linecap="round" stroke-linejoin="round"/>
    <path d="M 104.4161376953125 114.66963195800781 C 87.29217529296875 118.1238021850586 127.85641479492188 48.26809310913086 90.66860961914062 96.37075805664062" stroke-width="15.38274097442627" fill="none" stroke="rgb(0, 0, 8)" stroke-opacity="0.13696592" stroke-linecap="round" stroke-linejoin="round"/>
    <path d="M 19.38508415222168 46.14530944824219 C -68.55464172363281 76.91160583496094 92.33045959472656 44.55925369262695 -3.6671345233917236 102.45472717285156" stroke-width="14.753177642822266" fill="none" stroke="rgb(146, 166, 190)" stroke-opacity="0.43382022" stroke-linecap="round" stroke-linejoin="round"/>
    <path d="M 177.63931274414062 78.87678527832031 C 210.64581298828125 85.5088119506836 195.9353790283203 79.11165618896484 224.84864807128906 96.87184143066406" stroke-width="8.799431800842285" fill="none" stroke="rgb(99, 40, 15)" stroke-opacity="0.42218652" stroke-linecap="round" stroke-linejoin="round"/>
    <path d="M -6.020246982574463 186.0412139892578 C -6.498976707458496 187.02809143066406 -6.041646480560303 182.90895080566406 -6.606955528259277 186.01585388183594" stroke-width="2.0" fill="none" stroke="rgb(17, 16, 21)" stroke-opacity="0.91816753" stroke-linecap="round" stroke-linejoin="round"/>
    <path d="M -18.994564056396484 221.5007781982422 C 23.45576286315918 222.9458465576172 6.388416290283203 195.25877380371094 27.187253952026367 244.676025390625" stroke-width="7.616374492645264" fill="none" stroke="rgb(227, 224, 217)" stroke-opacity="0.6157991" stroke-linecap="round" stroke-linejoin="round"/>
    <path d="M -5.465648174285889 192.68235778808594 C 45.87281036376953 209.30352783203125 24.525405883789062 173.0474090576172 -7.415431022644043 187.06951904296875" stroke-width="11.118223190307617" fill="none" stroke="rgb(171, 183, 207)" stroke-opacity="0.36276802" stroke-linecap="round" stroke-linejoin="round"/>
    <path d="M 109.77196502685547 109.26628112792969 C 105.40734100341797 188.77581787109375 90.11266326904297 120.02888488769531 116.14558410644531 79.408935546875" stroke-width="14.777876853942871" fill="none" stroke="rgb(175, 109, 90)" stroke-opacity="0.16072586" stroke-linecap="round" stroke-linejoin="round"/>
    <path d="M 179.2191925048828 88.95337677001953 C 201.04698181152344 105.69770812988281 166.132080078125 114.45860290527344 181.0128936767578 63.148155212402344" stroke-width="13.487252235412598" fill="none" stroke="rgb(77, 3, -1)" stroke-opacity="0.24219713" stroke-linecap="round" stroke-linejoin="round"/>
    <path d="M 167.44931030273438 193.40684509277344 C 119.30745697021484 185.7500762939453 242.71058654785156 200.82606506347656 91.23773956298828 189.714599609375" stroke-width="3.1758182048797607" fill="none" stroke="rgb(50, 40, 66)" stroke-opacity="0.5856402" stroke-linecap="round" stroke-linejoin="round"/>
    <path d="M 200.90408325195312 94.88328552246094 C 197.05859375 89.26934051513672 250.591552734375 101.37606811523438 205.37425231933594 78.10543823242188" stroke-width="14.356034278869629" fill="none" stroke="rgb(91, 21, 10)" stroke-opacity="0.25594783" stroke-linecap="round" stroke-linejoin="round"/>
    <path d="M 69.84152221679688 86.0235366821289 C 92.34486389160156 81.50579833984375 84.49105834960938 75.2677230834961 118.51579284667969 74.18424224853516" stroke-width="12.528398513793945" fill="none" stroke="rgb(92, 117, 136)" stroke-opacity="0.13040315" stroke-linecap="round" stroke-linejoin="round"/>
    <path d="M 139.63412475585938 64.63404846191406 C 171.78184509277344 31.781240463256836 156.43247985839844 50.72467803955078 154.94537353515625 46.183650970458984" stroke-width="4.750619888305664" fill="none" stroke="rgb(105, 17, 7)" stroke-opacity="0.21919416" stroke-linecap="round" stroke-linejoin="round"/>
    <path d="M 8.082734107971191 199.9357147216797 C 14.746955871582031 227.5037841796875 69.65013885498047 229.4959716796875 9.432198524475098 203.20579528808594" stroke-width="2.9411847591400146" fill="none" stroke="rgb(115, 52, -1)" stroke-opacity="0.07404169" stroke-linecap="round" stroke-linejoin="round"/>
    <path d="M 92.59749603271484 142.5908660888672 C 78.35877990722656 115.97642517089844 87.99271392822266 135.5985107421875 92.60650634765625 99.72541046142578" stroke-width="6.414447784423828" fill="none" stroke="rgb(12, 13, 17)" stroke-opacity="0.7195109" stroke-linecap="round" stroke-linejoin="round"/>
    <path d="M 155.95742797851562 46.133968353271484 C 180.49058532714844 27.13568115234375 182.81959533691406 52.971588134765625 207.57704162597656 41.19247055053711" stroke-width="3.2761154174804688" fill="none" stroke="rgb(126, 144, 161)" stroke-opacity="0.5930587" stroke-linecap="round" stroke-linejoin="round"/>
    <path d="M 78.88851165771484 186.7147674560547 C 96.96736907958984 190.42398071289062 55.33463668823242 191.5641326904297 118.79914855957031 190.2149200439453" stroke-width="9.302876472473145" fill="none" stroke="rgb(0, 41, 117)" stroke-opacity="0.14625236" stroke-linecap="round" stroke-linejoin="round"/>
    <path d="M -15.06283950805664 8.09185791015625 C 67.74190521240234 3.3193359375 88.11221313476562 13.916590690612793 0.19964468479156494 -8.629385948181152" stroke-width="6.059885501861572" fill="none" stroke="rgb(16, 10, 9)" stroke-opacity="0.54172605" stroke-linecap="round" stroke-linejoin="round"/>
    <path d="M -8.098532676696777 53.457027435302734 C -2.194850444793701 59.22686767578125 -6.67233419418335 62.377296447753906 -10.596455574035645 62.516239166259766" stroke-width="2.0" fill="none" stroke="rgb(28, 28, 17)" stroke-opacity="0.8905339" stroke-linecap="round" stroke-linejoin="round"/>
    <path d="M 112.38867950439453 93.915771484375 C 123.62123107910156 46.9835205078125 146.1046600341797 77.59162139892578 113.74449920654297 66.32109069824219" stroke-width="6.807054042816162" fill="none" stroke="rgb(77, 59, 97)" stroke-opacity="0.10086157" stroke-linecap="round" stroke-linejoin="round"/>
    <path d="M 4.4488067626953125 84.62561798095703 C 120.66641998291016 90.34979248046875 -28.20782470703125 62.978309631347656 44.71935272216797 96.4431381225586" stroke-width="3.1381900310516357" fill="none" stroke="rgb(73, 83, 114)" stroke-opacity="0.08927996" stroke-linecap="round" stroke-linejoin="round"/>
    <path d="M 227.6904754638672 39.93455505371094 C 231.15725708007812 36.070106506347656 236.74391174316406 30.64419174194336 234.18099975585938 33.64707565307617" stroke-width="2.0" fill="none" stroke="rgb(14, 37, 36)" stroke-opacity="0.8704736" stroke-linecap="round" stroke-linejoin="round"/>
    <path d="M 92.6773452758789 124.08869171142578 C 91.9549560546875 108.16168212890625 86.19107055664062 99.52790069580078 96.60546875 95.07337951660156" stroke-width="10.192344665527344" fill="none" stroke="rgb(22, 19, 20)" stroke-opacity="0.2783538" stroke-linecap="round" stroke-linejoin="round"/>
    <path d="M 115.75570678710938 117.0681381225586 C 143.5790252685547 69.5873794555664 113.57666778564453 126.09777069091797 122.4366226196289 84.8927230834961" stroke-width="5.7197184562683105" fill="none" stroke="rgb(166, 69, 31)" stroke-opacity="0.7031924" stroke-linecap="round" stroke-linejoin="round"/>
    <path d="M 124.32794189453125 77.29468536376953 C 95.45845031738281 95.11119842529297 106.32491302490234 92.72431182861328 133.62249755859375 55.7486572265625" stroke-width="5.719484806060791" fill="none" stroke="rgb(56, 3, 14)" stroke-opacity="0.13315865" stroke-linecap="round" stroke-linejoin="round"/>
    <path d="M 156.85531616210938 26.107906341552734 C 132.6658935546875 84.71693420410156 80.55946350097656 53.374534606933594 108.64751434326172 68.93783569335938" stroke-width="11.638872146606445" fill="none" stroke="rgb(63, 82, 71)" stroke-opacity="0.057339344" stroke-linecap="round" stroke-linejoin="round"/>
    <path d="M 230.08367919921875 166.03453063964844 C 182.19766235351562 153.9406280517578 276.5030517578125 156.22512817382812 189.71441650390625 162.53936767578125" stroke-width="13.299980163574219" fill="none" stroke="rgb(88, 110, 128)" stroke-opacity="0.3571979" stroke-linecap="round" stroke-linejoin="round"/>
    <path d="M 183.61581420898438 50.41059875488281 C 182.24879455566406 42.94445037841797 190.1105499267578 43.72800827026367 161.87774658203125 56.383636474609375" stroke-width="12.705451965332031" fill="none" stroke="rgb(120, 52, 27)" stroke-opacity="0.095282905" stroke-linecap="round" stroke-linejoin="round"/>
    <path d="M 155.40199279785156 43.243202209472656 C 129.97947692871094 50.737186431884766 118.40687561035156 70.15290832519531 93.6441650390625 85.78563690185547" stroke-width="6.182345390319824" fill="none" stroke="rgb(18, 0, 1)" stroke-opacity="0.32299545" stroke-linecap="round" stroke-linejoin="round"/>
    <path d="M 29.782983779907227 20.214786529541016 C 114.23509216308594 13.724340438842773 108.29660034179688 11.470011711120605 85.8542709350586 68.56350708007812" stroke-width="12.941457748413086" fill="none" stroke="rgb(148, 170, 191)" stroke-opacity="0.5888081" stroke-linecap="round" stroke-linejoin="round"/>
    <path d="M -6.381265640258789 143.1112060546875 C 112.83403778076172 135.90914916992188 77.7823486328125 145.03623962402344 78.07251739501953 154.3043670654297" stroke-width="13.165077209472656" fill="none" stroke="rgb(0, 49, 87)" stroke-opacity="0.20860621" stroke-linecap="round" stroke-linejoin="round"/>
    <path d="M 110.32947540283203 115.19396209716797 C 132.60726928710938 79.92430114746094 124.88745880126953 100.7005844116211 96.92352294921875 129.18746948242188" stroke-width="6.883502006530762" fill="none" stroke="rgb(111, 29, 8)" stroke-opacity="0.4748567" stroke-linecap="round" stroke-linejoin="round"/>
    <path d="M 189.08021545410156 85.87085723876953 C 177.4152069091797 63.83607482910156 171.10198974609375 66.73746490478516 186.2906494140625 90.25943756103516" stroke-width="14.844529151916504" fill="none" stroke="rgb(144, 62, 19)" stroke-opacity="0.3918562" stroke-linecap="round" stroke-linejoin="round"/>
    <path d="M 115.96056365966797 70.03582000732422 C 105.6552505493164 92.63233947753906 70.34797668457031 104.54582214355469 96.37141418457031 94.44485473632812" stroke-width="3.70196795463562" fill="none" stroke="rgb(14, 14, 12)" stroke-opacity="0.59385335" stroke-linecap="round" stroke-linejoin="round"/>
    <path d="M 119.9766845703125 91.00218200683594 C 158.8135528564453 83.16156005859375 130.71148681640625 39.91606521606445 120.9960708618164 82.43485260009766" stroke-width="2.25394344329834" fill="none" stroke="rgb(157, 85, 81)" stroke-opacity="0.08675592" stroke-linecap="round" stroke-linejoin="round"/>
    <path d="M 127.46424865722656 62.11449432373047 C 69.33855438232422 73.17818450927734 114.82539367675781 57.92326354980469 23.972278594970703 68.03072357177734" stroke-width="2.959991931915283" fill="none" stroke="rgb(61, 101, 100)" stroke-opacity="0.09312899" stroke-linecap="round" stroke-linejoin="round"/>
    <path d="M 179.7609100341797 49.825618743896484 C 181.67564392089844 92.62002563476562 178.56304931640625 42.20939254760742 175.39126586914062 80.8740234375" stroke-width="4.481263160705566" fill="none" stroke="rgb(62, 0, 0)" stroke-opacity="0.20182261" stroke-linecap="round" stroke-linejoin="round"/>
    <path d="M 159.7437286376953 70.4168930053711 C 107.37593078613281 92.3089370727539 147.7321319580078 71.94734191894531 116.23460388183594 106.90132141113281" stroke-width="13.135858535766602" fill="none" stroke="rgb(127, 48, 4)" stroke-opacity="0.3531322" stroke-linecap="round" stroke-linejoin="round"/>
    <path d="M 166.70321655273438 80.78462219238281 C 172.10581970214844 42.97597885131836 164.18325805664062 37.18553161621094 151.93414306640625 87.44261169433594" stroke-width="3.697112798690796" fill="none" stroke="rgb(26, -2, 0)" stroke-opacity="0.2616512" stroke-linecap="round" stroke-linejoin="round"/>
    <path d="M 195.19277954101562 208.95291137695312 C 132.9665985107422 197.77452087402344 49.71244812011719 191.0558624267578 165.19522094726562 217.6134490966797" stroke-width="3.7994344234466553" fill="none" stroke="rgb(38, 113, -2)" stroke-opacity="0.32886526" stroke-linecap="round" stroke-linejoin="round"/>
    <path d="M 78.52627563476562 121.70726013183594 C 91.61381530761719 149.1779327392578 83.85147094726562 125.78396606445312 81.94322204589844 127.5918197631836" stroke-width="2.409142017364502" fill="none" stroke="rgb(80, 41, 36)" stroke-opacity="1.0022895" stroke-linecap="round" stroke-linejoin="round"/>
    <path d="M 196.50721740722656 56.418296813964844 C 211.90577697753906 79.31439971923828 157.5695037841797 83.95254516601562 212.69918823242188 74.62646484375" stroke-width="13.173728942871094" fill="none" stroke="rgb(121, 45, 19)" stroke-opacity="0.303462" stroke-linecap="round" stroke-linejoin="round"/>
    <path d="M 206.18051147460938 140.03518676757812 C 164.175048828125 175.2978057861328 206.56712341308594 139.5207977294922 205.68365478515625 160.16407775878906" stroke-width="6.274674415588379" fill="none" stroke="rgb(75, 59, 67)" stroke-opacity="0.2662403" stroke-linecap="round" stroke-linejoin="round"/>
    <path d="M 118.9452896118164 79.84463500976562 C 107.22050476074219 104.562255859375 97.5965347290039 140.3513641357422 126.59429168701172 80.58324432373047" stroke-width="12.95390510559082" fill="none" stroke="rgb(107, 35, 12)" stroke-opacity="0.3812691" stroke-linecap="round" stroke-linejoin="round"/>
    <path d="M 5.349032402038574 22.811826705932617 C 102.35073852539062 36.336669921875 100.24901580810547 71.7461929321289 42.917198181152344 47.09364318847656" stroke-width="16.198740005493164" fill="none" stroke="rgb(154, 174, 196)" stroke-opacity="0.52625674" stroke-linecap="round" stroke-linejoin="round"/>
    <path d="M -18.469200134277344 110.11602783203125 C -14.7677583694458 79.90303039550781 -40.259029388427734 128.2251739501953 50.51185607910156 96.36213684082031" stroke-width="13.672489166259766" fill="none" stroke="rgb(153, 174, 196)" stroke-opacity="0.74406135" stroke-linecap="round" stroke-linejoin="round"/>
  </g>
</svg>
