<?xml version="1.0" ?>
<svg xmlns="http://www.w3.org/2000/svg" version="1.1" width="600" height="600">
  <defs/>
  <g>
    <path d="M 460.3157653808594 574.0281982421875 C 452.1842346191406 577.5205078125 449.2428283691406 563.557373046875 454.8065490722656 577.6998901367188" stroke-width="7.0" fill="none" stroke="rgb(0, 0, 0)" stroke-opacity="0.4480694" stroke-linecap="round" stroke-linejoin="round"/>
    <path d="M 231.18975830078125 345.4209899902344 C 233.85299682617188 348.80816650390625 244.20498657226562 376.330810546875 236.26332092285156 370.86083984375" stroke-width="7.0" fill="none" stroke="rgb(0, 0, 0)" stroke-opacity="0.49957377" stroke-linecap="round" stroke-linejoin="round"/>
    <path d="M 267.69854736328125 232.05067443847656 C 273.9886474609375 233.625244140625 270.5080261230469 227.64431762695312 274.1199645996094 227.3413543701172" stroke-width="7.0" fill="none" stroke="rgb(0, 1, -1)" stroke-opacity="0.4385889" stroke-linecap="round" stroke-linejoin="round"/>
    <path d="M 556.5231323242188 169.57179260253906 C 556.1040649414062 169.7038116455078 557.4758911132812 169.69158935546875 556.3563232421875 169.60166931152344" stroke-width="7.0" fill="none" stroke="rgb(0, 0, 0)" stroke-opacity="0.3706323" stroke-linecap="round" stroke-linejoin="round"/>
    <path d="M 228.71633911132812 368.9728088378906 C 234.4547882080078 357.20379638671875 234.50889587402344 369.7665100097656 214.65359497070312 384.303955078125" stroke-width="7.0" fill="none" stroke="rgb(0, 0, 1)" stroke-opacity="0.50483847" stroke-linecap="round" stroke-linejoin="round"/>
    <path d="M 232.4121551513672 448.9967956542969 C 231.04808044433594 433.95928955078125 236.578857421875 450.1470642089844 226.25830078125 422.0799560546875" stroke-width="7.0" fill="none" stroke="rgb(-1, 0, 2)" stroke-opacity="0.31215894" stroke-linecap="round" stroke-linejoin="round"/>
    <path d="M 411.71466064453125 425.34393310546875 C 406.273681640625 426.38604736328125 405.7650451660156 425.7621765136719 409.4438781738281 425.636962890625" stroke-width="7.0" fill="none" stroke="rgb(0, 0, 1)" stroke-opacity="0.4876441" stroke-linecap="round" stroke-linejoin="round"/>
    <path d="M 557.6651611328125 389.91265869140625 C 558.2971801757812 390.81732177734375 554.7415771484375 388.8294372558594 557.8467407226562 390.63946533203125" stroke-width="7.0" fill="none" stroke="rgb(0, 1, -1)" stroke-opacity="0.47493464" stroke-linecap="round" stroke-linejoin="round"/>
    <path d="M 241.4119873046875 404.9820861816406 C 215.45570373535156 406.1612854003906 203.27243041992188 400.9200134277344 230.61148071289062 410.1888122558594" stroke-width="7.0" fill="none" stroke="rgb(1, -2, 1)" stroke-opacity="0.5685092" stroke-linecap="round" stroke-linejoin="round"/>
    <path d="M 259.3714904785156 492.67718505859375 C 257.18389892578125 479.1595458984375 259.9840087890625 479.50323486328125 256.80499267578125 481.0332946777344" stroke-width="7.0" fill="none" stroke="rgb(1, -1, 1)" stroke-opacity="0.46646342" stroke-linecap="round" stroke-linejoin="round"/>
    <path d="M 418.85150146484375 181.61473083496094 C 423.46417236328125 181.13865661621094 417.26904296875 184.9988555908203 419.6603698730469 178.92501831054688" stroke-width="7.0" fill="none" stroke="rgb(0, 0, 1)" stroke-opacity="0.32856563" stroke-linecap="round" stroke-linejoin="round"/>
    <path d="M 466.2486877441406 408.03240966796875 C 465.16168212890625 399.7462463378906 450.1088562011719 406.4913635253906 464.5247802734375 402.2752990722656" stroke-width="7.0" fill="none" stroke="rgb(0, 0, 0)" stroke-opacity="0.3799243" stroke-linecap="round" stroke-linejoin="round"/>
    <path d="M 35.61141586303711 611.7085571289062 C 47.11760711669922 607.3228149414062 32.25544738769531 610.9305419921875 23.347028732299805 608.379150390625" stroke-width="7.0" fill="none" stroke="rgb(0, 0, 0)" stroke-opacity="0.8794399" stroke-linecap="round" stroke-linejoin="round"/>
    <path d="M 73.24464416503906 513.5988159179688 C 52.387691497802734 508.1441345214844 64.17864227294922 512.4598999023438 60.01838302612305 511.5215759277344" stroke-width="7.0" fill="none" stroke="rgb(0, 0, 0)" stroke-opacity="0.37626487" stroke-linecap="round" stroke-linejoin="round"/>
    <path d="M 401.3421325683594 259.7999572753906 C 358.9849548339844 246.8444061279297 341.58660888671875 258.1374816894531 345.8676452636719 257.8299255371094" stroke-width="7.0" fill="none" stroke="rgb(0, 0, 1)" stroke-opacity="0.35009566" stroke-linecap="round" stroke-linejoin="round"/>
    <path d="M 365.1629638671875 233.6294708251953 C 365.25262451171875 237.70068359375 368.693603515625 230.92652893066406 362.4441833496094 232.7432098388672" stroke-width="7.0" fill="none" stroke="rgb(0, 1, 0)" stroke-opacity="0.4240223" stroke-linecap="round" stroke-linejoin="round"/>
    <path d="M 374.46209716796875 15.427227020263672 C 380.2873840332031 16.571002960205078 380.7256774902344 17.482507705688477 379.4925842285156 15.469844818115234" stroke-width="7.0" fill="none" stroke="rgb(0, 0, 2)" stroke-opacity="0.38766518" stroke-linecap="round" stroke-linejoin="round"/>
    <path d="M 144.64942932128906 300.461669921875 C 142.16757202148438 301.0235595703125 162.13133239746094 299.13671875 145.04440307617188 300.6552734375" stroke-width="7.0" fill="none" stroke="rgb(1, 0, 0)" stroke-opacity="0.24470566" stroke-linecap="round" stroke-linejoin="round"/>
    <path d="M 327.07830810546875 161.62852478027344 C 341.9236145019531 150.82839965820312 356.4382629394531 146.74087524414062 355.9298095703125 146.27938842773438" stroke-width="7.0" fill="none" stroke="rgb(-1, 0, 2)" stroke-opacity="0.42914617" stroke-linecap="round" stroke-linejoin="round"/>
    <path d="M 520.1857299804688 268.7187194824219 C 525.1796264648438 299.7227478027344 538.801025390625 284.9322814941406 514.1536865234375 291.50030517578125" stroke-width="7.0" fill="none" stroke="rgb(-2, 1, 1)" stroke-opacity="0.3583794" stroke-linecap="round" stroke-linejoin="round"/>
    <path d="M 304.8431701660156 307.00421142578125 C 303.35101318359375 324.66986083984375 296.9255065917969 329.7431640625 290.80462646484375 320.57061767578125" stroke-width="7.0" fill="none" stroke="rgb(1, -3, 0)" stroke-opacity="0.27960572" stroke-linecap="round" stroke-linejoin="round"/>
    <path d="M 530.94384765625 212.01470947265625 C 528.3655395507812 203.27113342285156 531.218505859375 197.0460662841797 530.5800170898438 209.07188415527344" stroke-width="7.0" fill="none" stroke="rgb(0, 0, 0)" stroke-opacity="0.36544552" stroke-linecap="round" stroke-linejoin="round"/>
    <path d="M 554.6343994140625 239.42959594726562 C 555.1521606445312 239.183349609375 556.8108520507812 240.79383850097656 555.9707641601562 240.08729553222656" stroke-width="7.0" fill="none" stroke="rgb(0, 0, 0)" stroke-opacity="0.36748144" stroke-linecap="round" stroke-linejoin="round"/>
    <path d="M 609.2055053710938 507.9118347167969 C 605.50244140625 502.6529235839844 610.2852783203125 492.0645751953125 618.7996215820312 486.7102355957031" stroke-width="7.0" fill="none" stroke="rgb(0, 0, 0)" stroke-opacity="0.72867763" stroke-linecap="round" stroke-linejoin="round"/>
    <path d="M 569.9874267578125 17.254817962646484 C 589.629638671875 18.190261840820312 560.0521850585938 21.783475875854492 544.6083374023438 18.91846466064453" stroke-width="7.0" fill="none" stroke="rgb(-1, 0, 0)" stroke-opacity="0.32772914" stroke-linecap="round" stroke-linejoin="round"/>
    <path d="M 437.4789123535156 142.08529663085938 C 431.4256286621094 147.54566955566406 432.52520751953125 150.7376708984375 430.9658508300781 150.93678283691406" stroke-width="7.0" fill="none" stroke="rgb(0, 0, 2)" stroke-opacity="0.33024704" stroke-linecap="round" stroke-linejoin="round"/>
    <path d="M 277.3297119140625 223.060302734375 C 280.99560546875 217.20164489746094 279.7677917480469 223.5436248779297 273.8145446777344 223.17991638183594" stroke-width="7.0" fill="none" stroke="rgb(0, 0, 0)" stroke-opacity="0.4828555" stroke-linecap="round" stroke-linejoin="round"/>
    <path d="M 475.3160095214844 421.0605163574219 C 476.7002868652344 454.411376953125 474.8090515136719 470.5116882324219 473.34161376953125 479.4563293457031" stroke-width="7.0" fill="none" stroke="rgb(0, -2, 3)" stroke-opacity="0.39407247" stroke-linecap="round" stroke-linejoin="round"/>
    <path d="M 368.2030334472656 256.1453552246094 C 332.48736572265625 268.8497314453125 358.8892822265625 265.71234130859375 350.53375244140625 261.0421142578125" stroke-width="7.0" fill="none" stroke="rgb(0, 0, 0)" stroke-opacity="0.3689072" stroke-linecap="round" stroke-linejoin="round"/>
    <path d="M 379.7704772949219 17.98084831237793 C 374.1015625 18.42342185974121 377.0229187011719 20.744565963745117 387.1447448730469 18.529829025268555" stroke-width="7.0" fill="none" stroke="rgb(0, 0, 1)" stroke-opacity="0.3088171" stroke-linecap="round" stroke-linejoin="round"/>
    <path d="M 236.41598510742188 377.418701171875 C 230.23963928222656 419.32513427734375 220.37405395507812 396.0397644042969 232.56101989746094 376.05517578125" stroke-width="7.0" fill="none" stroke="rgb(-2, 1, 2)" stroke-opacity="0.47319913" stroke-linecap="round" stroke-linejoin="round"/>
    <path d="M 469.6860656738281 523.6942138671875 C 462.77130126953125 499.65020751953125 478.03118896484375 472.2362976074219 468.8757629394531 488.34698486328125" stroke-width="7.0" fill="none" stroke="rgb(0, -1, 2)" stroke-opacity="0.31466493" stroke-linecap="round" stroke-linejoin="round"/>
    <path d="M 438.7233581542969 112.12735748291016 C 420.9365234375 120.69654083251953 433.0492248535156 116.11910247802734 423.4476013183594 114.82955169677734" stroke-width="7.0" fill="none" stroke="rgb(0, 0, 1)" stroke-opacity="0.44933" stroke-linecap="round" stroke-linejoin="round"/>
    <path d="M 377.2457275390625 228.510498046875 C 369.64605712890625 230.13055419921875 362.8209228515625 234.68589782714844 372.9868469238281 230.49887084960938" stroke-width="7.0" fill="none" stroke="rgb(0, 1, 0)" stroke-opacity="0.3190459" stroke-linecap="round" stroke-linejoin="round"/>
    <path d="M 450.6505432128906 235.54144287109375 C 463.4982604980469 235.98770141601562 441.44793701171875 235.62356567382812 452.6551513671875 236.11331176757812" stroke-width="7.0" fill="none" stroke="rgb(0, 0, 1)" stroke-opacity="0.44555086" stroke-linecap="round" stroke-linejoin="round"/>
    <path d="M 372.3814392089844 232.2532196044922 C 370.0166931152344 232.8541259765625 364.9862060546875 235.072998046875 379.29595947265625 233.85794067382812" stroke-width="7.0" fill="none" stroke="rgb(0, 0, 1)" stroke-opacity="0.36867657" stroke-linecap="round" stroke-linejoin="round"/>
    <path d="M 157.1527557373047 238.25611877441406 C 159.03822326660156 238.4136505126953 162.4585723876953 242.3478546142578 160.4756317138672 239.94911193847656" stroke-width="7.0" fill="none" stroke="rgb(0, 0, 0)" stroke-opacity="0.39076898" stroke-linecap="round" stroke-linejoin="round"/>
    <path d="M 288.4484558105469 264.8535461425781 C 295.2452087402344 265.9724426269531 291.4955749511719 264.3095397949219 289.9530029296875 265.1382141113281" stroke-width="7.0" fill="none" stroke="rgb(0, 0, 0)" stroke-opacity="0.39900658" stroke-linecap="round" stroke-linejoin="round"/>
    <path d="M 289.3648681640625 312.63555908203125 C 288.4417419433594 315.61322021484375 294.0235290527344 309.2070617675781 293.88653564453125 311.7134094238281" stroke-width="7.0" fill="none" stroke="rgb(0, 0, 0)" stroke-opacity="0.2366207" stroke-linecap="round" stroke-linejoin="round"/>
    <path d="M 291.4887390136719 207.92132568359375 C 310.0025329589844 237.98570251464844 320.7314147949219 217.4992218017578 309.0958251953125 208.42710876464844" stroke-width="7.0" fill="none" stroke="rgb(0, 0, 1)" stroke-opacity="0.24824588" stroke-linecap="round" stroke-linejoin="round"/>
    <path d="M 248.75088500976562 404.2546081542969 C 237.2598114013672 423.20855712890625 232.3199920654297 407.0519714355469 241.9793243408203 409.2995910644531" stroke-width="7.0" fill="none" stroke="rgb(0, 0, 0)" stroke-opacity="0.41074625" stroke-linecap="round" stroke-linejoin="round"/>
    <path d="M 115.18648529052734 260.0943298339844 C 114.91938781738281 260.4914855957031 114.97265625 260.3779602050781 114.67289733886719 260.40960693359375" stroke-width="7.0" fill="none" stroke="rgb(1, 0, 0)" stroke-opacity="0.3848125" stroke-linecap="round" stroke-linejoin="round"/>
    <path d="M 483.9807434082031 270.16998291015625 C 473.7233581542969 260.29913330078125 461.7545166015625 262.4891357421875 485.3211669921875 265.4383850097656" stroke-width="7.0" fill="none" stroke="rgb(0, 0, 1)" stroke-opacity="0.22318844" stroke-linecap="round" stroke-linejoin="round"/>
    <path d="M 420.77349853515625 187.9345245361328 C 419.3376770019531 190.96511840820312 414.177001953125 185.20315551757812 421.229248046875 189.2134246826172" stroke-width="7.0" fill="none" stroke="rgb(0, 0, 1)" stroke-opacity="0.41896835" stroke-linecap="round" stroke-linejoin="round"/>
    <path d="M 376.1570739746094 139.9735107421875 C 361.46026611328125 146.68829345703125 372.0620422363281 136.4916534423828 356.573974609375 145.1335906982422" stroke-width="7.0" fill="none" stroke="rgb(0, 0, 2)" stroke-opacity="0.49018618" stroke-linecap="round" stroke-linejoin="round"/>
    <path d="M 333.74627685546875 277.4183654785156 C 339.37384033203125 271.70159912109375 337.71636962890625 265.611328125 339.0029602050781 266.57708740234375" stroke-width="7.0" fill="none" stroke="rgb(0, 1, 1)" stroke-opacity="0.41986084" stroke-linecap="round" stroke-linejoin="round"/>
    <path d="M 419.2232971191406 150.527587890625 C 410.4696044921875 149.404052734375 418.98822021484375 149.7360076904297 423.5035705566406 150.1226806640625" stroke-width="7.0" fill="none" stroke="rgb(1, 0, 0)" stroke-opacity="0.35345504" stroke-linecap="round" stroke-linejoin="round"/>
    <path d="M 24.124540328979492 90.6318588256836 C 24.17080307006836 91.17208099365234 23.29360008239746 91.11747741699219 23.535110473632812 90.99507904052734" stroke-width="7.0" fill="none" stroke="rgb(1, 0, 0)" stroke-opacity="0.28089583" stroke-linecap="round" stroke-linejoin="round"/>
    <path d="M 315.00091552734375 442.7602233886719 C 328.95269775390625 431.74835205078125 327.0858154296875 448.60308837890625 344.9302978515625 447.7919921875" stroke-width="7.0" fill="none" stroke="rgb(0, 0, -1)" stroke-opacity="0.35597432" stroke-linecap="round" stroke-linejoin="round"/>
    <path d="M 432.5837707519531 143.04931640625 C 413.68328857421875 146.08193969726562 417.1185302734375 145.31716918945312 421.3200988769531 145.19534301757812" stroke-width="7.0" fill="none" stroke="rgb(0, 0, 0)" stroke-opacity="0.33311343" stroke-linecap="round" stroke-linejoin="round"/>
    <path d="M 426.7715148925781 571.2639770507812 C 436.4167785644531 560.9945678710938 424.36614990234375 566.0872192382812 441.7528381347656 566.724609375" stroke-width="7.0" fill="none" stroke="rgb(0, 0, 0)" stroke-opacity="0.3870787" stroke-linecap="round" stroke-linejoin="round"/>
    <path d="M 489.43218994140625 400.91705322265625 C 486.8017883300781 421.5030822753906 480.06707763671875 429.649169921875 511.15289306640625 423.1486511230469" stroke-width="7.0" fill="none" stroke="rgb(1, 0, 0)" stroke-opacity="0.36148882" stroke-linecap="round" stroke-linejoin="round"/>
    <path d="M 509.45623779296875 181.7040252685547 C 508.86102294921875 181.87228393554688 508.1841125488281 179.85198974609375 508.7427978515625 178.72894287109375" stroke-width="7.0" fill="none" stroke="rgb(0, 0, -2)" stroke-opacity="0.5282854" stroke-linecap="round" stroke-linejoin="round"/>
    <path d="M 429.1392517089844 204.55813598632812 C 429.4931335449219 202.66458129882812 429.5167236328125 209.11216735839844 429.2779541015625 206.11387634277344" stroke-width="7.0" fill="none" stroke="rgb(0, 0, 2)" stroke-opacity="0.44409087" stroke-linecap="round" stroke-linejoin="round"/>
    <path d="M 507.23480224609375 295.01434326171875 C 499.9945068359375 322.322021484375 494.2889404296875 322.5020446777344 499.8628234863281 316.2420959472656" stroke-width="7.0" fill="none" stroke="rgb(1, -1, 0)" stroke-opacity="0.27401835" stroke-linecap="round" stroke-linejoin="round"/>
    <path d="M 499.91864013671875 294.11859130859375 C 498.7343444824219 294.1546325683594 500.7476501464844 294.7319030761719 500.2088317871094 293.91552734375" stroke-width="7.0" fill="none" stroke="rgb(0, 1, 0)" stroke-opacity="0.33671615" stroke-linecap="round" stroke-linejoin="round"/>
    <path d="M 444.2762756347656 235.381103515625 C 445.4491882324219 234.7770233154297 442.0577697753906 233.9780731201172 443.8725280761719 234.80154418945312" stroke-width="7.0" fill="none" stroke="rgb(1, 0, 1)" stroke-opacity="0.34996814" stroke-linecap="round" stroke-linejoin="round"/>
    <path d="M 368.8310546875 136.63661193847656 C 382.26397705078125 127.39637756347656 367.904296875 137.07005310058594 374.1168212890625 134.04112243652344" stroke-width="7.0" fill="none" stroke="rgb(-2, 0, 0)" stroke-opacity="0.5223947" stroke-linecap="round" stroke-linejoin="round"/>
    <path d="M 232.3636016845703 10.236983299255371 C 228.3626251220703 11.101384162902832 227.53265380859375 3.3525888919830322 239.01571655273438 -8.806635856628418" stroke-width="7.0" fill="none" stroke="rgb(-1, 1, 0)" stroke-opacity="0.3502394" stroke-linecap="round" stroke-linejoin="round"/>
    <path d="M 253.75205993652344 113.33870697021484 C 253.6854705810547 111.39268493652344 252.56784057617188 122.82660675048828 251.1470947265625 119.16475677490234" stroke-width="7.0" fill="none" stroke="rgb(0, 0, 1)" stroke-opacity="0.28591594" stroke-linecap="round" stroke-linejoin="round"/>
    <path d="M 322.5969543457031 163.2371063232422 C 330.88250732421875 165.7471466064453 319.7256774902344 163.20474243164062 297.7556457519531 196.20823669433594" stroke-width="7.0" fill="none" stroke="rgb(-2, 1, 2)" stroke-opacity="0.3518162" stroke-linecap="round" stroke-linejoin="round"/>
    <path d="M 266.7603454589844 402.3527526855469 C 259.7702331542969 393.73590087890625 243.41673278808594 402.0281982421875 223.02438354492188 398.47784423828125" stroke-width="7.0" fill="none" stroke="rgb(0, 0, 0)" stroke-opacity="0.44752192" stroke-linecap="round" stroke-linejoin="round"/>
    <path d="M 270.447265625 239.059814453125 C 295.9710388183594 214.88075256347656 279.45623779296875 204.85595703125 291.0789489746094 219.62452697753906" stroke-width="7.0" fill="none" stroke="rgb(0, 0, 0)" stroke-opacity="0.38951635" stroke-linecap="round" stroke-linejoin="round"/>
    <path d="M 222.19552612304688 382.1036071777344 C 215.1909637451172 414.5176696777344 202.63442993164062 410.4745178222656 222.1231689453125 413.7337341308594" stroke-width="7.0" fill="none" stroke="rgb(0, 0, 2)" stroke-opacity="0.5024813" stroke-linecap="round" stroke-linejoin="round"/>
    <path d="M 451.5969543457031 513.4664916992188 C 472.9950866699219 490.1960754394531 469.6684265136719 485.8750915527344 462.3960266113281 499.5321044921875" stroke-width="7.0" fill="none" stroke="rgb(0, -1, 2)" stroke-opacity="0.31811178" stroke-linecap="round" stroke-linejoin="round"/>
    <path d="M 302.7591857910156 402.80120849609375 C 314.84173583984375 412.77691650390625 306.9530334472656 409.459716796875 309.15179443359375 406.9819030761719" stroke-width="7.0" fill="none" stroke="rgb(1, 0, -1)" stroke-opacity="0.4936221" stroke-linecap="round" stroke-linejoin="round"/>
    <path d="M 214.28125 330.64532470703125 C 230.24447631835938 369.9752197265625 240.84739685058594 351.02569580078125 230.22694396972656 358.145751953125" stroke-width="7.0" fill="none" stroke="rgb(1, 0, -2)" stroke-opacity="0.48700866" stroke-linecap="round" stroke-linejoin="round"/>
    <path d="M 298.1110534667969 310.63092041015625 C 293.9143981933594 318.9331970214844 298.5560302734375 321.23345947265625 295.9461364746094 311.51220703125" stroke-width="7.0" fill="none" stroke="rgb(1, 0, 0)" stroke-opacity="0.44141006" stroke-linecap="round" stroke-linejoin="round"/>
    <path d="M 531.2677001953125 217.4025115966797 C 525.451171875 223.76663208007812 538.3323364257812 223.31163024902344 516.3654174804688 221.7598876953125" stroke-width="7.0" fill="none" stroke="rgb(0, 0, 0)" stroke-opacity="0.30401447" stroke-linecap="round" stroke-linejoin="round"/>
    <path d="M 498.04541015625 317.8485107421875 C 499.2669982910156 318.6308898925781 497.3186950683594 321.176025390625 494.67767333984375 311.9380187988281" stroke-width="7.0" fill="none" stroke="rgb(0, 0, 0)" stroke-opacity="0.23113237" stroke-linecap="round" stroke-linejoin="round"/>
    <path d="M 333.9904479980469 424.4894714355469 C 339.7579040527344 428.0672912597656 332.68328857421875 423.373291015625 332.1543273925781 423.7911071777344" stroke-width="7.0" fill="none" stroke="rgb(0, 0, 0)" stroke-opacity="0.33929008" stroke-linecap="round" stroke-linejoin="round"/>
    <path d="M 341.3066101074219 272.4997253417969 C 340.2475280761719 264.3633117675781 350.7763366699219 274.0270080566406 344.7211608886719 262.9927062988281" stroke-width="7.0" fill="none" stroke="rgb(1, 0, 0)" stroke-opacity="0.46578416" stroke-linecap="round" stroke-linejoin="round"/>
    <path d="M 20.22238540649414 516.9342041015625 C 35.017154693603516 522.718505859375 35.78763198852539 522.620849609375 27.805965423583984 519.7189331054688" stroke-width="7.0" fill="none" stroke="rgb(0, 0, 1)" stroke-opacity="0.4208106" stroke-linecap="round" stroke-linejoin="round"/>
    <path d="M 529.1008911132812 240.18365478515625 C 529.8302612304688 231.5808868408203 526.2288208007812 230.20245361328125 527.2492065429688 213.768310546875" stroke-width="7.0" fill="none" stroke="rgb(0, 0, 1)" stroke-opacity="0.37412578" stroke-linecap="round" stroke-linejoin="round"/>
    <path d="M 303.1221008300781 211.19198608398438 C 309.79168701171875 217.899658203125 316.3699951171875 226.51487731933594 312.9748840332031 223.36456298828125" stroke-width="7.0" fill="none" stroke="rgb(0, 0, 0)" stroke-opacity="0.31362236" stroke-linecap="round" stroke-linejoin="round"/>
    <path d="M 405.9620361328125 229.85906982421875 C 408.0257568359375 232.22645568847656 403.345458984375 225.89312744140625 405.2409973144531 224.15675354003906" stroke-width="7.0" fill="none" stroke="rgb(0, 0, 1)" stroke-opacity="0.47064102" stroke-linecap="round" stroke-linejoin="round"/>
    <path d="M 447.23748779296875 298.66510009765625 C 451.6556091308594 331.0801696777344 452.759033203125 307.6768798828125 434.6965637207031 291.11602783203125" stroke-width="7.0" fill="none" stroke="rgb(0, 0, 0)" stroke-opacity="0.43383372" stroke-linecap="round" stroke-linejoin="round"/>
    <path d="M 608.0639038085938 525.4483032226562 C 605.9166259765625 512.3980102539062 605.3377685546875 508.7526550292969 606.3030395507812 510.1199035644531" stroke-width="7.0" fill="none" stroke="rgb(0, 0, 0)" stroke-opacity="0.7957301" stroke-linecap="round" stroke-linejoin="round"/>
    <path d="M 268.41748046875 457.2533264160156 C 280.9869079589844 442.2108459472656 262.2414245605469 441.36395263671875 275.6061706542969 454.8242492675781" stroke-width="7.0" fill="none" stroke="rgb(0, 0, 2)" stroke-opacity="0.37647963" stroke-linecap="round" stroke-linejoin="round"/>
    <path d="M 398.91650390625 226.76913452148438 C 409.15911865234375 230.05154418945312 399.89825439453125 227.38291931152344 402.5908203125 228.58755493164062" stroke-width="7.0" fill="none" stroke="rgb(0, 0, 1)" stroke-opacity="0.43813407" stroke-linecap="round" stroke-linejoin="round"/>
    <path d="M 422.2796936035156 183.81918334960938 C 421.9445495605469 183.43783569335938 420.6071472167969 183.08657836914062 424.2881164550781 182.094970703125" stroke-width="7.0" fill="none" stroke="rgb(0, 0, 1)" stroke-opacity="0.3083243" stroke-linecap="round" stroke-linejoin="round"/>
    <path d="M 381.1578063964844 578.0520629882812 C 378.2479248046875 573.859375 377.6495056152344 574.021728515625 394.1734619140625 577.8638305664062" stroke-width="7.0" fill="none" stroke="rgb(0, 0, 0)" stroke-opacity="0.42502192" stroke-linecap="round" stroke-linejoin="round"/>
    <path d="M 381.0513610839844 135.54978942871094 C 376.2111511230469 133.01756286621094 365.5516662597656 130.62713623046875 401.774658203125 122.16470336914062" stroke-width="7.0" fill="none" stroke="rgb(-2, 0, 2)" stroke-opacity="0.3806375" stroke-linecap="round" stroke-linejoin="round"/>
    <path d="M 279.47247314453125 566.6240844726562 C 280.1991882324219 565.7018432617188 276.7632751464844 567.8042602539062 279.4729919433594 566.3640747070312" stroke-width="7.0" fill="none" stroke="rgb(0, 1, 0)" stroke-opacity="0.54329586" stroke-linecap="round" stroke-linejoin="round"/>
    <path d="M 501.5469055175781 305.050537109375 C 502.2679138183594 302.1002502441406 498.3727111816406 310.063720703125 497.83551025390625 305.3770446777344" stroke-width="7.0" fill="none" stroke="rgb(0, 0, 1)" stroke-opacity="0.23514591" stroke-linecap="round" stroke-linejoin="round"/>
    <path d="M 323.1890563964844 296.4494323730469 C 326.8820495605469 289.16217041015625 324.1247863769531 294.7380676269531 320.416748046875 303.3412170410156" stroke-width="7.0" fill="none" stroke="rgb(-1, 0, 2)" stroke-opacity="0.4695092" stroke-linecap="round" stroke-linejoin="round"/>
    <path d="M 595.5995483398438 269.7767028808594 C 565.8046875 281.0669250488281 561.3677978515625 277.3334655761719 545.3761596679688 280.92633056640625" stroke-width="7.0" fill="none" stroke="rgb(0, 0, 2)" stroke-opacity="0.43210837" stroke-linecap="round" stroke-linejoin="round"/>
    <path d="M 287.5402526855469 271.4716491699219 C 291.06683349609375 271.3369140625 293.1905822753906 272.61334228515625 290.21990966796875 271.8636779785156" stroke-width="7.0" fill="none" stroke="rgb(0, 0, 0)" stroke-opacity="0.48109332" stroke-linecap="round" stroke-linejoin="round"/>
    <path d="M 354.75927734375 561.4358520507812 C 351.2889404296875 559.8823852539062 368.09210205078125 563.5296020507812 368.2919921875 563.3350830078125" stroke-width="7.0" fill="none" stroke="rgb(0, 0, 0)" stroke-opacity="0.32682297" stroke-linecap="round" stroke-linejoin="round"/>
    <path d="M 595.7153930664062 120.6959457397461 C 607.5628662109375 114.4198989868164 603.3471069335938 106.0676040649414 601.8240966796875 124.9813003540039" stroke-width="7.0" fill="none" stroke="rgb(0, 1, 0)" stroke-opacity="0.520339" stroke-linecap="round" stroke-linejoin="round"/>
    <path d="M 413.3340148925781 112.74456787109375 C 410.80035400390625 120.03192901611328 419.68963623046875 109.46587371826172 396.74053955078125 119.98149871826172" stroke-width="7.0" fill="none" stroke="rgb(-3, 0, 2)" stroke-opacity="0.33847624" stroke-linecap="round" stroke-linejoin="round"/>
    <path d="M 509.81927490234375 221.298583984375 C 508.235595703125 220.2120819091797 510.38714599609375 218.87562561035156 509.2565612792969 220.88465881347656" stroke-width="7.0" fill="none" stroke="rgb(0, 0, -1)" stroke-opacity="0.3434944" stroke-linecap="round" stroke-linejoin="round"/>
    <path d="M 244.992919921875 233.77264404296875 C 249.08311462402344 231.8799285888672 237.14743041992188 239.28648376464844 243.5513916015625 234.95716857910156" stroke-width="7.0" fill="none" stroke="rgb(0, 0, -2)" stroke-opacity="0.6318155" stroke-linecap="round" stroke-linejoin="round"/>
    <path d="M 157.02085876464844 235.7992706298828 C 157.4376983642578 237.81809997558594 158.32090759277344 234.58883666992188 158.02894592285156 236.33087158203125" stroke-width="7.0" fill="none" stroke="rgb(0, 0, 0)" stroke-opacity="0.35887593" stroke-linecap="round" stroke-linejoin="round"/>
    <path d="M 600.0941772460938 123.64949798583984 C 595.0205688476562 118.89814758300781 596.6972045898438 136.91647338867188 600.5198364257812 123.6129379272461" stroke-width="7.0" fill="none" stroke="rgb(0, 0, 1)" stroke-opacity="0.38652682" stroke-linecap="round" stroke-linejoin="round"/>
    <path d="M 503.4082336425781 306.0157775878906 C 504.34185791015625 311.01495361328125 498.26123046875 298.8439636230469 501.7215881347656 300.19244384765625" stroke-width="7.0" fill="none" stroke="rgb(0, 0, 0)" stroke-opacity="0.3144723" stroke-linecap="round" stroke-linejoin="round"/>
  </g>
</svg>
