<?xml version="1.0" ?>
<svg xmlns="http://www.w3.org/2000/svg" version="1.1" width="600" height="600">
  <defs/>
  <g>
    <path d="M 451.0011901855469 559.0006713867188 C 442.94403076171875 574.5618896484375 443.9225769042969 573.8799438476562 455.16943359375 564.6392822265625" stroke-width="7.0" fill="none" stroke="rgb(2, 2, -2)" stroke-opacity="0.99" stroke-linecap="round" stroke-linejoin="round"/>
    <path d="M 235.00042724609375 346.99993896484375 C 241.67344665527344 346.032958984375 250.04161071777344 354.3800048828125 256.5907897949219 369.087646484375" stroke-width="7.0" fill="none" stroke="rgb(2, 2, 2)" stroke-opacity="0.99" stroke-linecap="round" stroke-linejoin="round"/>
    <path d="M 266.0001525878906 238.99615478515625 C 261.6546936035156 232.389892578125 275.3071594238281 225.0714874267578 281.28765869140625 231.84063720703125" stroke-width="7.0" fill="none" stroke="rgb(2, 2, 2)" stroke-opacity="0.99000007" stroke-linecap="round" stroke-linejoin="round"/>
    <path d="M 546.9998779296875 176.0030975341797 C 557.8961791992188 174.40684509277344 551.617919921875 181.54197692871094 560.075927734375 169.3321990966797" stroke-width="7.0" fill="none" stroke="rgb(2, 2, 2)" stroke-opacity="0.99" stroke-linecap="round" stroke-linejoin="round"/>
    <path d="M 236.00039672851562 368.0002746582031 C 244.5719757080078 365.5261535644531 235.67494201660156 371.2085876464844 221.16165161132812 376.4099426269531" stroke-width="7.0" fill="none" stroke="rgb(2, 2, 2)" stroke-opacity="0.99" stroke-linecap="round" stroke-linejoin="round"/>
    <path d="M 235.99923706054688 441.00067138671875 C 247.39437866210938 442.2012939453125 233.1626434326172 442.3986511230469 236.59664916992188 435.7127380371094" stroke-width="7.0" fill="none" stroke="rgb(2, 2, 2)" stroke-opacity="0.99000007" stroke-linecap="round" stroke-linejoin="round"/>
    <path d="M 391.99871826171875 411.9997863769531 C 405.6070556640625 416.4027099609375 410.9969787597656 415.6179504394531 421.4732360839844 418.7139892578125" stroke-width="7.0" fill="none" stroke="rgb(2, 2, 2)" stroke-opacity="0.99" stroke-linecap="round" stroke-linejoin="round"/>
    <path d="M 557.9932861328125 378.9997253417969 C 548.00146484375 377.7677307128906 552.1903686523438 378.8271484375 556.4539184570312 378.8832092285156" stroke-width="7.0" fill="none" stroke="rgb(2, 2, 2)" stroke-opacity="0.99000007" stroke-linecap="round" stroke-linejoin="round"/>
    <path d="M 233.9997100830078 403.0000915527344 C 230.06202697753906 402.05841064453125 226.62318420410156 395.9532165527344 225.80636596679688 404.1152038574219" stroke-width="7.0" fill="none" stroke="rgb(2, 2, 2)" stroke-opacity="0.9900001" stroke-linecap="round" stroke-linejoin="round"/>
    <path d="M 267.0002746582031 466.0005798339844 C 256.4765319824219 474.76275634765625 259.0626220703125 479.06085205078125 251.32789611816406 473.0936279296875" stroke-width="7.0" fill="none" stroke="rgb(2, 2, 2)" stroke-opacity="0.99000007" stroke-linecap="round" stroke-linejoin="round"/>
    <path d="M 425.9999084472656 171.9998321533203 C 427.5290832519531 174.7594757080078 414.8944091796875 184.5474395751953 427.996337890625 186.31393432617188" stroke-width="7.0" fill="none" stroke="rgb(2, 2, 2)" stroke-opacity="0.99000007" stroke-linecap="round" stroke-linejoin="round"/>
    <path d="M 452.0005187988281 406.0010681152344 C 464.67242431640625 396.3932800292969 455.268310546875 405.3801574707031 453.5545959472656 414.359375" stroke-width="7.0" fill="none" stroke="rgb(2, 2, 2)" stroke-opacity="0.99000007" stroke-linecap="round" stroke-linejoin="round"/>
    <path d="M 43.00328826904297 598.9993286132812 C 39.669002532958984 599.1769409179688 30.51604461669922 608.7880859375 23.888376235961914 604.248779296875" stroke-width="7.0" fill="none" stroke="rgb(2, 2, 2)" stroke-opacity="0.9900002" stroke-linecap="round" stroke-linejoin="round"/>
    <path d="M 68.00070190429688 516.9996948242188 C 68.60836791992188 522.27880859375 56.096736907958984 523.4714965820312 67.547607421875 512.1865234375" stroke-width="7.0" fill="none" stroke="rgb(2, 2, 2)" stroke-opacity="0.99000007" stroke-linecap="round" stroke-linejoin="round"/>
    <path d="M 372.99969482421875 254.9998321533203 C 367.607666015625 260.7673645019531 353.2572937011719 260.28350830078125 357.19061279296875 253.90298461914062" stroke-width="7.0" fill="none" stroke="rgb(2, 2, 2)" stroke-opacity="0.99000007" stroke-linecap="round" stroke-linejoin="round"/>
    <path d="M 378.0002136230469 225.99977111816406 C 368.326904296875 229.05197143554688 375.55767822265625 242.14361572265625 363.28033447265625 233.47821044921875" stroke-width="7.0" fill="none" stroke="rgb(2, 2, 2)" stroke-opacity="0.99000007" stroke-linecap="round" stroke-linejoin="round"/>
    <path d="M 384.9945373535156 15.999618530273438 C 372.24090576171875 20.257993698120117 368.0652770996094 18.350200653076172 380.71588134765625 13.505110740661621" stroke-width="7.0" fill="none" stroke="rgb(2, 2, 2)" stroke-opacity="0.99000007" stroke-linecap="round" stroke-linejoin="round"/>
    <path d="M 125.005126953125 302.0000915527344 C 134.89222717285156 300.8931884765625 140.56539916992188 297.37286376953125 134.82191467285156 300.64117431640625" stroke-width="7.0" fill="none" stroke="rgb(2, 2, 2)" stroke-opacity="0.99000007" stroke-linecap="round" stroke-linejoin="round"/>
    <path d="M 348.0000915527344 149.00022888183594 C 340.1460876464844 136.98556518554688 341.11407470703125 125.01931762695312 340.1997375488281 125.57817077636719" stroke-width="7.0" fill="none" stroke="rgb(2, 2, 2)" stroke-opacity="0.99" stroke-linecap="round" stroke-linejoin="round"/>
    <path d="M 529.9998779296875 258.99969482421875 C 532.8191528320312 269.1468200683594 534.4169921875 278.6262512207031 531.8076171875 285.5497741699219" stroke-width="7.0" fill="none" stroke="rgb(2, 2, -2)" stroke-opacity="0.99000007" stroke-linecap="round" stroke-linejoin="round"/>
    <path d="M 296.99951171875 306.9982604980469 C 294.66156005859375 310.7326354980469 283.2622985839844 323.03826904296875 290.1778564453125 328.5908203125" stroke-width="7.0" fill="none" stroke="rgb(2, 2, 2)" stroke-opacity="0.99000007" stroke-linecap="round" stroke-linejoin="round"/>
    <path d="M 546.0001220703125 198.00038146972656 C 532.6445922851562 209.50665283203125 522.397216796875 214.3024444580078 532.9225463867188 207.98133850097656" stroke-width="7.0" fill="none" stroke="rgb(2, 2, 2)" stroke-opacity="0.99" stroke-linecap="round" stroke-linejoin="round"/>
    <path d="M 548.0005493164062 239.00164794921875 C 562.3442993164062 242.28883361816406 549.0740356445312 235.5947723388672 545.75146484375 232.21078491210938" stroke-width="7.0" fill="none" stroke="rgb(2, 2, 2)" stroke-opacity="0.99" stroke-linecap="round" stroke-linejoin="round"/>
    <path d="M 588.9998779296875 492.00079345703125 C 588.9442138671875 497.8315124511719 600.407958984375 483.2560729980469 610.8690185546875 478.70367431640625" stroke-width="7.0" fill="none" stroke="rgb(2, 2, -2)" stroke-opacity="0.99000007" stroke-linecap="round" stroke-linejoin="round"/>
    <path d="M 575.002685546875 15.000248908996582 C 577.4066162109375 22.20021629333496 564.058837890625 16.488508224487305 551.97021484375 21.325170516967773" stroke-width="7.0" fill="none" stroke="rgb(2, 2, -2)" stroke-opacity="0.99000007" stroke-linecap="round" stroke-linejoin="round"/>
    <path d="M 437.9999084472656 148.0001678466797 C 441.9570007324219 156.63058471679688 449.94525146484375 151.02903747558594 440.60211181640625 141.05645751953125" stroke-width="7.0" fill="none" stroke="rgb(2, 2, 2)" stroke-opacity="0.99" stroke-linecap="round" stroke-linejoin="round"/>
    <path d="M 283.0003967285156 209.00421142578125 C 278.5451965332031 214.13140869140625 279.4000244140625 222.72267150878906 265.607666015625 232.45106506347656" stroke-width="7.0" fill="none" stroke="rgb(2, 2, 2)" stroke-opacity="0.99" stroke-linecap="round" stroke-linejoin="round"/>
    <path d="M 479.999755859375 458.99871826171875 C 473.66851806640625 463.17010498046875 481.78271484375 465.2666320800781 476.129150390625 468.7640380859375" stroke-width="7.0" fill="none" stroke="rgb(2, 2, 2)" stroke-opacity="0.99000007" stroke-linecap="round" stroke-linejoin="round"/>
    <path d="M 360.99981689453125 251.9998016357422 C 345.5886535644531 261.19439697265625 356.5851135253906 252.6400146484375 342.4821472167969 253.45774841308594" stroke-width="7.0" fill="none" stroke="rgb(2, 2, 2)" stroke-opacity="0.99000007" stroke-linecap="round" stroke-linejoin="round"/>
    <path d="M 392.0002136230469 22.00023651123047 C 383.18487548828125 31.155620574951172 386.714599609375 26.123790740966797 393.07879638671875 20.444944381713867" stroke-width="7.0" fill="none" stroke="rgb(2, 2, -2)" stroke-opacity="0.99000007" stroke-linecap="round" stroke-linejoin="round"/>
    <path d="M 226.99948120117188 389.0004577636719 C 220.03616333007812 395.1905822753906 213.52452087402344 382.65460205078125 225.68331909179688 382.8233642578125" stroke-width="7.0" fill="none" stroke="rgb(2, 2, 2)" stroke-opacity="0.9900001" stroke-linecap="round" stroke-linejoin="round"/>
    <path d="M 466.000244140625 509.0006408691406 C 477.8545837402344 494.8150939941406 473.5129089355469 481.8547668457031 467.92156982421875 489.8924560546875" stroke-width="7.0" fill="none" stroke="rgb(2, 2, 2)" stroke-opacity="0.99000007" stroke-linecap="round" stroke-linejoin="round"/>
    <path d="M 436.0003356933594 108.00076293945312 C 426.2721252441406 110.5542221069336 415.3838195800781 101.79825592041016 419.16314697265625 111.27330017089844" stroke-width="7.0" fill="none" stroke="rgb(2, 2, 2)" stroke-opacity="0.99000007" stroke-linecap="round" stroke-linejoin="round"/>
    <path d="M 369.9975891113281 228.00018310546875 C 365.4546203613281 234.75047302246094 354.6601867675781 226.14663696289062 357.553955078125 224.84288024902344" stroke-width="7.0" fill="none" stroke="rgb(2, 2, 2)" stroke-opacity="0.99000007" stroke-linecap="round" stroke-linejoin="round"/>
    <path d="M 461.99969482421875 244.73255920410156 C 458.7967224121094 249.38467407226562 447.6645812988281 234.94744873046875 446.7841491699219 228.6499786376953" stroke-width="7.0" fill="none" stroke="rgb(2, 2, 2)" stroke-opacity="0.99" stroke-linecap="round" stroke-linejoin="round"/>
    <path d="M 378.00054931640625 231.00051879882812 C 378.99603271484375 235.7792205810547 382.7403564453125 241.86306762695312 376.5585021972656 238.63014221191406" stroke-width="7.0" fill="none" stroke="rgb(2, 2, 2)" stroke-opacity="0.99000007" stroke-linecap="round" stroke-linejoin="round"/>
    <path d="M 160.99920654296875 253.99911499023438 C 152.67555236816406 240.70590209960938 165.3937225341797 227.6298828125 159.23867797851562 218.94009399414062" stroke-width="7.0" fill="none" stroke="rgb(2, 2, 2)" stroke-opacity="0.99" stroke-linecap="round" stroke-linejoin="round"/>
    <path d="M 281.0002746582031 266.9998779296875 C 291.8719177246094 259.90826416015625 294.84149169921875 263.82611083984375 288.986572265625 257.0434875488281" stroke-width="7.0" fill="none" stroke="rgb(2, 2, 2)" stroke-opacity="0.99" stroke-linecap="round" stroke-linejoin="round"/>
    <path d="M 289.00030517578125 311.00079345703125 C 291.881103515625 315.4248962402344 289.80596923828125 326.494140625 289.1830749511719 321.92724609375" stroke-width="7.0" fill="none" stroke="rgb(2, 2, 2)" stroke-opacity="0.9900002" stroke-linecap="round" stroke-linejoin="round"/>
    <path d="M 300.0003356933594 215.00086975097656 C 310.50494384765625 231.58876037597656 321.0599670410156 216.9393768310547 308.21337890625 207.332275390625" stroke-width="7.0" fill="none" stroke="rgb(2, 2, 2)" stroke-opacity="0.99000007" stroke-linecap="round" stroke-linejoin="round"/>
    <path d="M 235.0006561279297 412.00018310546875 C 241.36837768554688 411.881591796875 233.09622192382812 402.3603820800781 247.3072967529297 396.1619873046875" stroke-width="7.0" fill="none" stroke="rgb(2, 2, 2)" stroke-opacity="0.99000007" stroke-linecap="round" stroke-linejoin="round"/>
    <path d="M 112.99977111816406 263.0000915527344 C 100.27467346191406 256.2845153808594 111.21753692626953 255.35049438476562 119.5283203125 257.42877197265625" stroke-width="7.0" fill="none" stroke="rgb(2, 2, 2)" stroke-opacity="0.99" stroke-linecap="round" stroke-linejoin="round"/>
    <path d="M 486.9999084472656 266.0000915527344 C 478.95208740234375 260.98388671875 470.261474609375 257.6930847167969 477.888671875 263.89404296875" stroke-width="7.0" fill="none" stroke="rgb(2, 2, 2)" stroke-opacity="0.99000007" stroke-linecap="round" stroke-linejoin="round"/>
    <path d="M 396.9998779296875 190.99855041503906 C 409.7638854980469 199.80123901367188 415.20928955078125 189.755859375 425.8865661621094 191.56387329101562" stroke-width="7.0" fill="none" stroke="rgb(2, 2, 2)" stroke-opacity="0.99" stroke-linecap="round" stroke-linejoin="round"/>
    <path d="M 376.0006103515625 147.00018310546875 C 382.02630615234375 137.25794982910156 374.61334228515625 146.7598876953125 365.2232971191406 150.7581787109375" stroke-width="7.0" fill="none" stroke="rgb(2, 2, 2)" stroke-opacity="0.99000007" stroke-linecap="round" stroke-linejoin="round"/>
    <path d="M 321.0027770996094 271.00054931640625 C 326.7620544433594 279.3458251953125 327.487060546875 275.4951171875 327.6841735839844 267.8307189941406" stroke-width="7.0" fill="none" stroke="rgb(2, 2, -2)" stroke-opacity="0.99" stroke-linecap="round" stroke-linejoin="round"/>
    <path d="M 429.0000915527344 160.00013732910156 C 423.2870788574219 154.99713134765625 417.2377624511719 161.3677215576172 424.2751159667969 153.64646911621094" stroke-width="7.0" fill="none" stroke="rgb(2, 2, 2)" stroke-opacity="0.99" stroke-linecap="round" stroke-linejoin="round"/>
    <path d="M 23.99983024597168 94.00012969970703 C 18.32124900817871 88.12226867675781 5.848931789398193 90.85853576660156 18.412120819091797 96.07772064208984" stroke-width="7.0" fill="none" stroke="rgb(2, 2, 2)" stroke-opacity="0.99" stroke-linecap="round" stroke-linejoin="round"/>
    <path d="M 315.9997253417969 447.00030517578125 C 330.33843994140625 445.9466552734375 340.91058349609375 453.99346923828125 353.5074768066406 458.1884460449219" stroke-width="7.0" fill="none" stroke="rgb(2, 2, -2)" stroke-opacity="0.99" stroke-linecap="round" stroke-linejoin="round"/>
    <path d="M 431.9990539550781 143.0001220703125 C 416.326416015625 139.060302734375 403.803955078125 144.810546875 404.3378601074219 139.01419067382812" stroke-width="7.0" fill="none" stroke="rgb(2, 2, 2)" stroke-opacity="0.99" stroke-linecap="round" stroke-linejoin="round"/>
    <path d="M 434.0001220703125 565.9995727539062 C 419.4831848144531 576.2863159179688 433.236083984375 578.3612670898438 423.2661437988281 571.0392456054688" stroke-width="7.0" fill="none" stroke="rgb(2, 2, 2)" stroke-opacity="0.99" stroke-linecap="round" stroke-linejoin="round"/>
    <path d="M 482.99945068359375 411.00189208984375 C 485.6094055175781 410.107666015625 497.546630859375 420.5498962402344 511.69482421875 426.53936767578125" stroke-width="7.0" fill="none" stroke="rgb(2, 2, 2)" stroke-opacity="0.99" stroke-linecap="round" stroke-linejoin="round"/>
    <path d="M 527.0003662109375 176.99990844726562 C 516.9169921875 181.6966094970703 502.48089599609375 186.4876251220703 493.7222900390625 173.2148895263672" stroke-width="7.0" fill="none" stroke="rgb(2, 2, 2)" stroke-opacity="0.99" stroke-linecap="round" stroke-linejoin="round"/>
    <path d="M 429.9986877441406 206.9983673095703 C 423.5137634277344 201.5412139892578 436.5368347167969 214.1750946044922 448.87957763671875 205.2996368408203" stroke-width="7.0" fill="none" stroke="rgb(2, 2, 2)" stroke-opacity="0.99" stroke-linecap="round" stroke-linejoin="round"/>
    <path d="M 497.9996643066406 304.0032653808594 C 491.8734130859375 318.7966613769531 504.25347900390625 323.7918395996094 508.83709716796875 318.5625305175781" stroke-width="7.0" fill="none" stroke="rgb(2, 2, 2)" stroke-opacity="0.99000007" stroke-linecap="round" stroke-linejoin="round"/>
    <path d="M 493.99560546875 303.01019287109375 C 486.15191650390625 290.0817565917969 490.63568115234375 293.3051452636719 495.563720703125 304.8082275390625" stroke-width="7.0" fill="none" stroke="rgb(2, 2, -2)" stroke-opacity="0.9900002" stroke-linecap="round" stroke-linejoin="round"/>
    <path d="M 436.99957275390625 231.0004119873047 C 436.8407897949219 232.27105712890625 432.69366455078125 226.4235382080078 438.0866394042969 227.36473083496094" stroke-width="7.0" fill="none" stroke="rgb(2, 2, 2)" stroke-opacity="0.99000007" stroke-linecap="round" stroke-linejoin="round"/>
    <path d="M 381.00079345703125 131.99697875976562 C 374.59539794921875 120.76164245605469 360.1498718261719 134.86866760253906 362.68023681640625 129.68544006347656" stroke-width="7.0" fill="none" stroke="rgb(2, 2, 2)" stroke-opacity="0.99000007" stroke-linecap="round" stroke-linejoin="round"/>
    <path d="M 240.00588989257812 23.000720977783203 C 234.9201202392578 12.55463695526123 227.69654846191406 3.426112174987793 237.8982696533203 -3.1441798210144043" stroke-width="7.0" fill="none" stroke="rgb(2, 2, 2)" stroke-opacity="0.99000007" stroke-linecap="round" stroke-linejoin="round"/>
    <path d="M 238.9990692138672 110.99993896484375 C 244.83233642578125 109.38081359863281 250.2879180908203 124.19458770751953 251.234375 121.15924835205078" stroke-width="7.0" fill="none" stroke="rgb(2, 2, 2)" stroke-opacity="0.99" stroke-linecap="round" stroke-linejoin="round"/>
    <path d="M 329.0003662109375 155.99908447265625 C 319.57550048828125 158.8156280517578 312.1211853027344 154.39010620117188 318.3138427734375 169.28567504882812" stroke-width="7.0" fill="none" stroke="rgb(2, 2, -2)" stroke-opacity="0.99000007" stroke-linecap="round" stroke-linejoin="round"/>
    <path d="M 256.001220703125 378.99810791015625 C 244.51373291015625 388.1516418457031 233.83839416503906 399.1748352050781 220.93263244628906 394.7337341308594" stroke-width="7.0" fill="none" stroke="rgb(2, 2, 2)" stroke-opacity="0.99" stroke-linecap="round" stroke-linejoin="round"/>
    <path d="M 291.0001525878906 241.9962921142578 C 285.27386474609375 230.86476135253906 286.1015319824219 217.00262451171875 298.7373962402344 218.51467895507812" stroke-width="7.0" fill="none" stroke="rgb(2, 2, 2)" stroke-opacity="0.99" stroke-linecap="round" stroke-linejoin="round"/>
    <path d="M 219.03573608398438 387.87518310546875 C 221.4395294189453 390.4220886230469 218.8571319580078 397.29541015625 223.79098510742188 410.9437561035156" stroke-width="7.0" fill="none" stroke="rgb(2, 2, 2)" stroke-opacity="0.9900002" stroke-linecap="round" stroke-linejoin="round"/>
    <path d="M 467.9985656738281 496.0018310546875 C 470.2345886230469 484.95196533203125 470.5780029296875 480.1989440917969 481.7893981933594 484.1999816894531" stroke-width="7.0" fill="none" stroke="rgb(2, 2, 2)" stroke-opacity="0.99000007" stroke-linecap="round" stroke-linejoin="round"/>
    <path d="M 308.9992370605469 394.998291015625 C 301.206787109375 407.8469543457031 312.4211120605469 412.73199462890625 320.5498046875 410.1495666503906" stroke-width="7.0" fill="none" stroke="rgb(2, 2, 2)" stroke-opacity="0.99" stroke-linecap="round" stroke-linejoin="round"/>
    <path d="M 226.9986114501953 350.0002746582031 C 239.43112182617188 362.837890625 233.97264099121094 353.5425109863281 247.12295532226562 347.5103759765625" stroke-width="7.0" fill="none" stroke="rgb(2, 2, 2)" stroke-opacity="0.99000007" stroke-linecap="round" stroke-linejoin="round"/>
    <path d="M 312.0002136230469 314.0001525878906 C 299.83673095703125 309.6852111816406 289.6919860839844 303.0696105957031 294.63232421875 302.05987548828125" stroke-width="7.0" fill="none" stroke="rgb(2, 2, -2)" stroke-opacity="0.99" stroke-linecap="round" stroke-linejoin="round"/>
    <path d="M 531.9998168945312 214.9998321533203 C 534.5791625976562 210.18629455566406 522.1187744140625 220.86492919921875 508.1100158691406 221.38685607910156" stroke-width="7.0" fill="none" stroke="rgb(2, 2, 2)" stroke-opacity="0.99000007" stroke-linecap="round" stroke-linejoin="round"/>
    <path d="M 492.9997863769531 312.9775695800781 C 490.5196533203125 323.34747314453125 502.43310546875 326.2537841796875 498.1561279296875 319.0885009765625" stroke-width="7.0" fill="none" stroke="rgb(2, 2, -2)" stroke-opacity="0.99000007" stroke-linecap="round" stroke-linejoin="round"/>
    <path d="M 335.9991149902344 405.00018310546875 C 336.5760192871094 394.376953125 329.27520751953125 398.2907409667969 340.33856201171875 393.735595703125" stroke-width="7.0" fill="none" stroke="rgb(2, 2, 2)" stroke-opacity="0.99" stroke-linecap="round" stroke-linejoin="round"/>
    <path d="M 338.0004577636719 275.00030517578125 C 332.4189453125 272.4363098144531 347.18359375 269.1651306152344 345.41583251953125 257.3892822265625" stroke-width="7.0" fill="none" stroke="rgb(2, 2, 2)" stroke-opacity="0.99" stroke-linecap="round" stroke-linejoin="round"/>
    <path d="M 14.001016616821289 508.9997253417969 C 25.866817474365234 517.9857177734375 33.60675811767578 508.67218017578125 39.03965759277344 508.1751708984375" stroke-width="7.0" fill="none" stroke="rgb(2, 2, 2)" stroke-opacity="0.99" stroke-linecap="round" stroke-linejoin="round"/>
    <path d="M 539.0000610351562 247.99981689453125 C 528.5613403320312 237.6697998046875 528.6148681640625 225.08969116210938 522.7132568359375 210.32505798339844" stroke-width="7.0" fill="none" stroke="rgb(2, 2, 2)" stroke-opacity="0.99" stroke-linecap="round" stroke-linejoin="round"/>
    <path d="M 299.9999084472656 209.00018310546875 C 312.3020324707031 216.81564331054688 323.3106689453125 228.0797576904297 330.90069580078125 226.74444580078125" stroke-width="7.0" fill="none" stroke="rgb(2, 2, 2)" stroke-opacity="0.99" stroke-linecap="round" stroke-linejoin="round"/>
    <path d="M 411.0006103515625 228.00018310546875 C 412.02667236328125 227.78651428222656 397.7408752441406 219.07203674316406 404.8182373046875 210.59678649902344" stroke-width="7.0" fill="none" stroke="rgb(2, 2, 2)" stroke-opacity="0.99" stroke-linecap="round" stroke-linejoin="round"/>
    <path d="M 458.00238037109375 328.99951171875 C 466.3482360839844 326.9364318847656 452.6774597167969 312.8173828125 443.6963195800781 306.169189453125" stroke-width="7.0" fill="none" stroke="rgb(2, 2, 2)" stroke-opacity="0.99" stroke-linecap="round" stroke-linejoin="round"/>
    <path d="M 594.000244140625 511.9991760253906 C 599.946533203125 520.6280517578125 594.5155029296875 517.6351928710938 595.6741943359375 522.2042236328125" stroke-width="7.0" fill="none" stroke="rgb(2, 2, 2)" stroke-opacity="0.99000007" stroke-linecap="round" stroke-linejoin="round"/>
    <path d="M 284.9951171875 432.9994812011719 C 277.06951904296875 438.72076416015625 264.3629150390625 446.5867004394531 272.57965087890625 446.140380859375" stroke-width="7.0" fill="none" stroke="rgb(2, 2, 2)" stroke-opacity="0.99" stroke-linecap="round" stroke-linejoin="round"/>
    <path d="M 407.9997253417969 233.99978637695312 C 393.5104064941406 248.84449768066406 392.9309997558594 239.45640563964844 398.3970947265625 240.1171875" stroke-width="7.0" fill="none" stroke="rgb(2, 2, 2)" stroke-opacity="0.99000007" stroke-linecap="round" stroke-linejoin="round"/>
    <path d="M 426.99908447265625 179.9996337890625 C 430.4466857910156 175.4720458984375 428.2711486816406 171.9148712158203 433.53314208984375 186.24969482421875" stroke-width="7.0" fill="none" stroke="rgb(2, 2, 2)" stroke-opacity="0.99000007" stroke-linecap="round" stroke-linejoin="round"/>
    <path d="M 372.0025329589844 586.9984741210938 C 368.4441223144531 584.0303344726562 381.2699890136719 578.7863159179688 392.57427978515625 575.5994873046875" stroke-width="7.0" fill="none" stroke="rgb(2, 2, -2)" stroke-opacity="0.99000007" stroke-linecap="round" stroke-linejoin="round"/>
    <path d="M 380.0002136230469 131.0002899169922 C 375.5376281738281 124.07920837402344 370.84619140625 130.29409790039062 375.8714599609375 118.63359832763672" stroke-width="7.0" fill="none" stroke="rgb(2, 2, 2)" stroke-opacity="0.9900001" stroke-linecap="round" stroke-linejoin="round"/>
    <path d="M 269.9997253417969 544.0012817382812 C 272.46563720703125 553.6210327148438 263.04376220703125 557.7263793945312 274.1121826171875 558.5359497070312" stroke-width="7.0" fill="none" stroke="rgb(2, 2, -2)" stroke-opacity="0.99000007" stroke-linecap="round" stroke-linejoin="round"/>
    <path d="M 487.9999084472656 305.0000915527344 C 497.0154724121094 309.5350036621094 488.7446594238281 312.0912780761719 500.3234558105469 313.68707275390625" stroke-width="7.0" fill="none" stroke="rgb(2, 2, -2)" stroke-opacity="0.9900002" stroke-linecap="round" stroke-linejoin="round"/>
    <path d="M 329.9994201660156 286.9994201660156 C 340.68255615234375 290.793701171875 325.97540283203125 299.2351989746094 322.2747802734375 296.4605407714844" stroke-width="7.0" fill="none" stroke="rgb(2, 2, 2)" stroke-opacity="0.99" stroke-linecap="round" stroke-linejoin="round"/>
    <path d="M 559.000244140625 278.99957275390625 C 569.3087768554688 270.84912109375 573.162841796875 285.6975402832031 568.2379760742188 291.8965759277344" stroke-width="7.0" fill="none" stroke="rgb(2, 2, 2)" stroke-opacity="0.99" stroke-linecap="round" stroke-linejoin="round"/>
    <path d="M 273.9998779296875 271.00042724609375 C 282.0234069824219 271.908935546875 292.698486328125 277.73883056640625 299.6976013183594 287.79290771484375" stroke-width="7.0" fill="none" stroke="rgb(2, 2, 2)" stroke-opacity="0.99" stroke-linecap="round" stroke-linejoin="round"/>
    <path d="M 358.0005187988281 554.999755859375 C 357.01129150390625 569.8353881835938 365.76397705078125 557.2904663085938 355.0407409667969 565.3060913085938" stroke-width="7.0" fill="none" stroke="rgb(2, 2, -2)" stroke-opacity="0.99000007" stroke-linecap="round" stroke-linejoin="round"/>
    <path d="M 590.9971313476562 120.99751281738281 C 602.1826782226562 118.14998626708984 601.9303588867188 117.82362365722656 590.0364379882812 115.18864440917969" stroke-width="7.0" fill="none" stroke="rgb(2, 2, 2)" stroke-opacity="0.99000007" stroke-linecap="round" stroke-linejoin="round"/>
    <path d="M 402.7607421875 114.00066375732422 C 410.6953430175781 114.22582244873047 411.7510986328125 111.56507110595703 397.9783935546875 115.00189971923828" stroke-width="7.0" fill="none" stroke="rgb(2, 2, 2)" stroke-opacity="0.99000007" stroke-linecap="round" stroke-linejoin="round"/>
    <path d="M 502.0005798339844 237.0005340576172 C 502.0557861328125 227.4807586669922 500.4250793457031 218.01345825195312 503.71868896484375 227.10638427734375" stroke-width="7.0" fill="none" stroke="rgb(2, 2, 2)" stroke-opacity="0.99000007" stroke-linecap="round" stroke-linejoin="round"/>
    <path d="M 255.00047302246094 219.0004425048828 C 243.53981018066406 219.9027099609375 237.8060760498047 229.2837677001953 242.75698852539062 225.16275024414062" stroke-width="7.0" fill="none" stroke="rgb(2, 2, 2)" stroke-opacity="0.99000007" stroke-linecap="round" stroke-linejoin="round"/>
    <path d="M 144.9996337890625 208.99984741210938 C 152.0599365234375 211.6959228515625 164.93194580078125 212.3445587158203 163.10330200195312 214.3624267578125" stroke-width="7.0" fill="none" stroke="rgb(2, 2, 2)" stroke-opacity="0.99" stroke-linecap="round" stroke-linejoin="round"/>
    <path d="M 588.9998779296875 126.99964904785156 C 596.3355102539062 121.53562927246094 590.3336181640625 135.05914306640625 596.813232421875 122.07154846191406" stroke-width="7.0" fill="none" stroke="rgb(2, 2, 2)" stroke-opacity="0.9900001" stroke-linecap="round" stroke-linejoin="round"/>
    <path d="M 503.9974670410156 315.00213623046875 C 495.10858154296875 311.761474609375 486.5336608886719 300.9888610839844 501.5290832519531 293.04302978515625" stroke-width="7.0" fill="none" stroke="rgb(2, 2, 2)" stroke-opacity="0.99000007" stroke-linecap="round" stroke-linejoin="round"/>
  </g>
</svg>
