<?xml version="1.0" ?>
<svg xmlns="http://www.w3.org/2000/svg" version="1.1" width="224" height="224">
  <defs/>
  <g>
    <path d="M 168.9998016357422 206.99964904785156 C 165.2459259033203 212.0631866455078 165.60777282714844 209.80996704101562 168.55606079101562 208.35858154296875" stroke-width="3.0" fill="none" stroke="rgb(2, 2, 2)" stroke-opacity="0.99000007" stroke-linecap="round" stroke-linejoin="round"/>
    <path d="M 110.99967956542969 122.99989318847656 C 113.4909439086914 120.63935852050781 116.61518096923828 123.75558471679688 117.06055450439453 129.2466583251953" stroke-width="3.0" fill="none" stroke="rgb(2, 2, 2)" stroke-opacity="0.99" stroke-linecap="round" stroke-linejoin="round"/>
    <path d="M 133.99343872070312 86.99982452392578 C 130.3793487548828 84.53685760498047 137.47137451171875 81.80027770996094 136.96124267578125 83.07359313964844" stroke-width="3.0" fill="none" stroke="rgb(2, 2, -2)" stroke-opacity="0.99000037" stroke-linecap="round" stroke-linejoin="round"/>
    <path d="M 196.99990844726562 64.00054931640625 C 201.80975341796875 65.39795684814453 199.4552459716797 66.07099151611328 200.62840270996094 60.80357360839844" stroke-width="3.0" fill="none" stroke="rgb(2, 2, -2)" stroke-opacity="0.99000007" stroke-linecap="round" stroke-linejoin="round"/>
    <path d="M 98.99980163574219 129.9998321533203 C 102.19837951660156 129.07582092285156 98.87763214111328 131.19729614257812 93.46009826660156 130.3931884765625" stroke-width="3.0" fill="none" stroke="rgb(2, 2, 2)" stroke-opacity="0.99000007" stroke-linecap="round" stroke-linejoin="round"/>
    <path d="M 107.99978637695312 157.00025939941406 C 112.25314331054688 157.44874572753906 106.9404067993164 157.522705078125 106.22294616699219 154.27980041503906" stroke-width="3.0" fill="none" stroke="rgb(2, 2, -2)" stroke-opacity="0.99000007" stroke-linecap="round" stroke-linejoin="round"/>
    <path d="M 183.99993896484375 146.99986267089844 C 187.08160400390625 149.3899383544922 189.8392791748047 148.3509063720703 195.74964904785156 148.25303649902344" stroke-width="3.0" fill="none" stroke="rgb(2, 2, 2)" stroke-opacity="0.99000007" stroke-linecap="round" stroke-linejoin="round"/>
    <path d="M 23.000452041625977 133.9999237060547 C 21.268064498901367 133.53956604003906 22.831771850585938 132.67189025878906 23.169553756713867 132.70347595214844" stroke-width="3.0" fill="none" stroke="rgb(2, 2, 2)" stroke-opacity="0.99000007" stroke-linecap="round" stroke-linejoin="round"/>
    <path d="M 18.00025177001953 144.9998779296875 C 18.52903175354004 144.6385955810547 17.246105194091797 142.36236572265625 16.94211769104004 143.4145050048828" stroke-width="3.0" fill="none" stroke="rgb(2, 2, 2)" stroke-opacity="0.99000007" stroke-linecap="round" stroke-linejoin="round"/>
    <path d="M 143.99900817871094 169.9992218017578 C 138.07144165039062 171.2714080810547 141.03587341308594 172.8729705810547 135.40382385253906 171.89756774902344" stroke-width="3.0" fill="none" stroke="rgb(2, 2, 2)" stroke-opacity="0.99" stroke-linecap="round" stroke-linejoin="round"/>
    <path d="M 140.000244140625 63.999916076660156 C 143.31678771972656 65.77548217773438 136.60943603515625 69.42941284179688 140.74574279785156 68.0908203125" stroke-width="3.0" fill="none" stroke="rgb(2, 2, 2)" stroke-opacity="0.9900001" stroke-linecap="round" stroke-linejoin="round"/>
    <path d="M 97.9996109008789 144.00082397460938 C 101.98332977294922 141.6652069091797 96.4754638671875 143.0285186767578 95.83413696289062 147.12095642089844" stroke-width="3.0" fill="none" stroke="rgb(2, 2, 2)" stroke-opacity="0.99000007" stroke-linecap="round" stroke-linejoin="round"/>
    <path d="M 36.000667572021484 223.99964904785156 C 34.011558532714844 222.06671142578125 30.595869064331055 225.65550231933594 30.127527236938477 223.9608612060547" stroke-width="3.0" fill="none" stroke="rgb(2, 2, -2)" stroke-opacity="0.9900002" stroke-linecap="round" stroke-linejoin="round"/>
    <path d="M 30.000795364379883 189.99949645996094 C 31.480300903320312 192.71044921875 26.809438705444336 192.41017150878906 29.8311710357666 186.20529174804688" stroke-width="3.0" fill="none" stroke="rgb(2, 2, -2)" stroke-opacity="0.99000007" stroke-linecap="round" stroke-linejoin="round"/>
    <path d="M 146.00006103515625 90.00007629394531 C 144.73353576660156 92.89993286132812 139.37652587890625 92.72029876708984 140.8445281982422 89.5918197631836" stroke-width="3.0" fill="none" stroke="rgb(2, 2, 2)" stroke-opacity="0.9900001" stroke-linecap="round" stroke-linejoin="round"/>
    <path d="M 113.00133514404297 82.99994659423828 C 108.64688110351562 82.8860855102539 111.34408569335938 89.7713623046875 109.50437927246094 86.53656768798828" stroke-width="3.0" fill="none" stroke="rgb(2, 2, 2)" stroke-opacity="0.9900001" stroke-linecap="round" stroke-linejoin="round"/>
    <path d="M 28.000083923339844 3.0027780532836914 C 23.978900909423828 5.321945667266846 22.421785354614258 3.880455493927002 27.146434783935547 4.0685343742370605" stroke-width="3.0" fill="none" stroke="rgb(2, 2, 2)" stroke-opacity="0.99000007" stroke-linecap="round" stroke-linejoin="round"/>
    <path d="M 111.00009155273438 107.99996948242188 C 116.69142150878906 107.58628845214844 118.0849609375 105.52622985839844 113.93547821044922 106.74809265136719" stroke-width="3.0" fill="none" stroke="rgb(2, 2, -2)" stroke-opacity="0.9900001" stroke-linecap="round" stroke-linejoin="round"/>
    <path d="M 178.0001220703125 55.999881744384766 C 177.0673828125 48.76917266845703 177.4268035888672 44.30216979980469 176.34237670898438 44.51091384887695" stroke-width="3.0" fill="none" stroke="rgb(2, 2, 2)" stroke-opacity="0.99000007" stroke-linecap="round" stroke-linejoin="round"/>
    <path d="M 102.00027465820312 93.99832916259766 C 105.79830169677734 97.78572845458984 106.39507293701172 100.07320404052734 105.42131042480469 102.65872192382812" stroke-width="3.0" fill="none" stroke="rgb(2, 2, 2)" stroke-opacity="0.99000007" stroke-linecap="round" stroke-linejoin="round"/>
    <path d="M 108.00019073486328 107.00012969970703 C 107.87364196777344 109.14057922363281 103.61795806884766 113.73860168457031 108.19932556152344 115.80672454833984" stroke-width="3.0" fill="none" stroke="rgb(2, 2, 2)" stroke-opacity="0.99000007" stroke-linecap="round" stroke-linejoin="round"/>
    <path d="M 197.00021362304688 73.99990844726562 C 192.01626586914062 76.29647064208984 188.18849182128906 78.08633422851562 194.11561584472656 77.72515869140625" stroke-width="3.0" fill="none" stroke="rgb(2, 2, 2)" stroke-opacity="0.99000007" stroke-linecap="round" stroke-linejoin="round"/>
    <path d="M 101.00035095214844 87.9980697631836 C 107.60823822021484 87.22799682617188 102.65377807617188 84.72908782958984 99.41403198242188 84.71871185302734" stroke-width="3.0" fill="none" stroke="rgb(2, 2, -2)" stroke-opacity="0.99000007" stroke-linecap="round" stroke-linejoin="round"/>
    <path d="M 118.99984741210938 180.9996795654297 C 117.7253646850586 181.1771697998047 122.00528717041016 175.7355194091797 125.90929412841797 174.03500366210938" stroke-width="3.0" fill="none" stroke="rgb(2, 2, -2)" stroke-opacity="0.99000007" stroke-linecap="round" stroke-linejoin="round"/>
    <path d="M 128.00189208984375 3.001511335372925 C 128.15798950195312 7.687783718109131 125.16956329345703 5.555216312408447 121.40189361572266 7.360887050628662" stroke-width="3.0" fill="none" stroke="rgb(2, 2, -2)" stroke-opacity="0.99000007" stroke-linecap="round" stroke-linejoin="round"/>
    <path d="M 162.9998016357422 54.000118255615234 C 163.2233123779297 57.2215690612793 166.206298828125 56.38385009765625 164.7157745361328 52.661094665527344" stroke-width="3.0" fill="none" stroke="rgb(2, 2, 2)" stroke-opacity="0.99000007" stroke-linecap="round" stroke-linejoin="round"/>
    <path d="M 126.00060272216797 76.01770782470703 C 125.58660888671875 79.16831970214844 125.90939331054688 82.3766098022461 120.76021575927734 86.75473022460938" stroke-width="3.0" fill="none" stroke="rgb(2, 2, -2)" stroke-opacity="0.9900003" stroke-linecap="round" stroke-linejoin="round"/>
    <path d="M 1.0004520416259766 167.99986267089844 C 1.3815405368804932 169.55352783203125 4.410036563873291 168.3502197265625 -0.4445633888244629 169.64553833007812" stroke-width="3.0" fill="none" stroke="rgb(2, 2, 2)" stroke-opacity="0.99000007" stroke-linecap="round" stroke-linejoin="round"/>
    <path d="M 143.99986267089844 90.999755859375 C 138.80517578125 93.18318939208984 142.3468475341797 91.98454284667969 135.08705139160156 91.54447174072266" stroke-width="3.0" fill="none" stroke="rgb(2, 2, -2)" stroke-opacity="0.9900001" stroke-linecap="round" stroke-linejoin="round"/>
    <path d="M 16.999828338623047 7.999825477600098 C 13.707319259643555 11.415124893188477 15.025574684143066 9.538070678710938 15.402547836303711 7.419191837310791" stroke-width="3.0" fill="none" stroke="rgb(-2, 2, -2)" stroke-opacity="0.99000007" stroke-linecap="round" stroke-linejoin="round"/>
    <path d="M 183.99819946289062 138.99961853027344 C 181.39974975585938 141.26052856445312 178.96884155273438 136.62896728515625 181.5085906982422 136.6939239501953" stroke-width="3.0" fill="none" stroke="rgb(2, 2, -2)" stroke-opacity="0.99000007" stroke-linecap="round" stroke-linejoin="round"/>
    <path d="M 16.999814987182617 186.00013732910156 C 19.425792694091797 180.7047576904297 17.805065155029297 177.86416625976562 16.970678329467773 180.8660888671875" stroke-width="3.0" fill="none" stroke="rgb(2, 2, 2)" stroke-opacity="0.99" stroke-linecap="round" stroke-linejoin="round"/>
    <path d="M 219.00047302246094 41.00018310546875 C 215.36880493164062 43.206787109375 211.31246948242188 39.93790817260742 213.97671508789062 41.477317810058594" stroke-width="3.0" fill="none" stroke="rgb(2, 2, 2)" stroke-opacity="0.99000007" stroke-linecap="round" stroke-linejoin="round"/>
    <path d="M 203.00018310546875 83.99989318847656 C 201.95758056640625 86.51901245117188 198.01979064941406 82.56192016601562 198.4333953857422 82.07466888427734" stroke-width="3.0" fill="none" stroke="rgb(2, 2, 2)" stroke-opacity="0.99000007" stroke-linecap="round" stroke-linejoin="round"/>
    <path d="M 127.99950408935547 87.00010681152344 C 126.80427551269531 89.38374328613281 122.64849090576172 83.99371337890625 120.34545135498047 80.8965835571289" stroke-width="3.0" fill="none" stroke="rgb(2, 2, -2)" stroke-opacity="0.9900001" stroke-linecap="round" stroke-linejoin="round"/>
    <path d="M 16.000091552734375 85.99991607666016 C 16.371990203857422 87.0367202758789 17.77014923095703 88.05565643310547 16.715829849243164 86.8502197265625" stroke-width="3.0" fill="none" stroke="rgb(2, 2, 2)" stroke-opacity="0.99000007" stroke-linecap="round" stroke-linejoin="round"/>
    <path d="M 95.99976348876953 90.00361633300781 C 92.8919448852539 85.78213500976562 97.64331817626953 80.9009017944336 95.34245300292969 79.65750885009766" stroke-width="3.0" fill="none" stroke="rgb(2, 2, 2)" stroke-opacity="0.99000007" stroke-linecap="round" stroke-linejoin="round"/>
    <path d="M 210.9996337890625 95.99984741210938 C 215.0542449951172 94.09819793701172 213.42315673828125 95.56024169921875 211.2352294921875 91.02934265136719" stroke-width="3.0" fill="none" stroke="rgb(2, 2, 2)" stroke-opacity="0.99000007" stroke-linecap="round" stroke-linejoin="round"/>
    <path d="M 110.99827575683594 110.9921646118164 C 111.32890319824219 111.90607452392578 110.554443359375 116.04308319091797 110.3202133178711 114.33106231689453" stroke-width="3.0" fill="none" stroke="rgb(2, 2, 2)" stroke-opacity="0.9900002" stroke-linecap="round" stroke-linejoin="round"/>
    <path d="M 106.99995422363281 78.00008392333984 C 110.92089080810547 83.44876861572266 112.86852264404297 79.97682189941406 110.06346893310547 76.39058685302734" stroke-width="3.0" fill="none" stroke="rgb(2, 2, 2)" stroke-opacity="0.99000007" stroke-linecap="round" stroke-linejoin="round"/>
    <path d="M 93.99888610839844 147.9998321533203 C 94.3775634765625 147.9522247314453 91.28958129882812 142.4071044921875 98.5936508178711 142.08697509765625" stroke-width="3.0" fill="none" stroke="rgb(2, 2, 2)" stroke-opacity="0.99000007" stroke-linecap="round" stroke-linejoin="round"/>
    <path d="M 99.999755859375 95.99967956542969 C 93.25310516357422 90.74710845947266 100.07970428466797 90.3977279663086 103.18330383300781 91.92008209228516" stroke-width="3.0" fill="none" stroke="rgb(2, 2, -2)" stroke-opacity="0.99000007" stroke-linecap="round" stroke-linejoin="round"/>
    <path d="M 119.00009155273438 95.00062561035156 C 118.74050903320312 92.38142395019531 115.49622344970703 91.15304565429688 115.59993743896484 93.46729278564453" stroke-width="3.0" fill="none" stroke="rgb(2, 2, -2)" stroke-opacity="0.99000007" stroke-linecap="round" stroke-linejoin="round"/>
    <path d="M 156.99990844726562 70.99959564208984 C 160.51333618164062 73.03258514404297 162.5431365966797 69.28219604492188 165.7845458984375 69.21067810058594" stroke-width="3.0" fill="none" stroke="rgb(2, 2, 2)" stroke-opacity="0.99" stroke-linecap="round" stroke-linejoin="round"/>
    <path d="M 133.99984741210938 55.99977111816406 C 136.24781799316406 52.36172103881836 133.48104858398438 55.90938186645508 129.22979736328125 56.65631866455078" stroke-width="3.0" fill="none" stroke="rgb(-2, 2, 2)" stroke-opacity="0.9900002" stroke-linecap="round" stroke-linejoin="round"/>
    <path d="M 212.0000457763672 97.9998779296875 C 213.40548706054688 101.1142578125 213.67568969726562 99.66845703125 213.75328063964844 94.0705337524414" stroke-width="3.0" fill="none" stroke="rgb(2, 2, 2)" stroke-opacity="0.99000007" stroke-linecap="round" stroke-linejoin="round"/>
    <path d="M 135.99966430664062 58.00002670288086 C 133.86643981933594 55.38599395751953 130.8619842529297 59.761871337890625 133.4881134033203 57.62525939941406" stroke-width="3.0" fill="none" stroke="rgb(2, 2, 2)" stroke-opacity="0.9900001" stroke-linecap="round" stroke-linejoin="round"/>
    <path d="M 98.00050354003906 39.001312255859375 C 97.87897491455078 36.061363220214844 93.22346496582031 37.084774017333984 98.65880584716797 39.77568817138672" stroke-width="3.0" fill="none" stroke="rgb(2, 2, 2)" stroke-opacity="0.99" stroke-linecap="round" stroke-linejoin="round"/>
    <path d="M 206.99984741210938 160.00013732910156 C 212.35382080078125 159.60670471191406 217.0451202392578 161.86492919921875 219.74960327148438 163.4324493408203" stroke-width="3.0" fill="none" stroke="rgb(2, 2, 2)" stroke-opacity="0.99" stroke-linecap="round" stroke-linejoin="round"/>
    <path d="M 32.9998893737793 53.00008010864258 C 27.89231300354004 51.52913284301758 23.21771240234375 53.67589569091797 22.672863006591797 52.765106201171875" stroke-width="3.0" fill="none" stroke="rgb(2, 2, 2)" stroke-opacity="0.99" stroke-linecap="round" stroke-linejoin="round"/>
    <path d="M 181.0002899169922 209.99232482910156 C 175.58065795898438 212.5873260498047 179.9788360595703 213.36236572265625 178.24595642089844 209.88226318359375" stroke-width="3.0" fill="none" stroke="rgb(2, 2, 2)" stroke-opacity="0.99000007" stroke-linecap="round" stroke-linejoin="round"/>
    <path d="M 85.00276184082031 147.99972534179688 C 88.71929168701172 144.92152404785156 93.17707824707031 148.81883239746094 98.4589614868164 151.8013458251953" stroke-width="3.0" fill="none" stroke="rgb(2, 2, 2)" stroke-opacity="0.99000007" stroke-linecap="round" stroke-linejoin="round"/>
    <path d="M 142.9993896484375 65.99980926513672 C 139.23431396484375 67.75359344482422 133.843994140625 69.54190826416016 130.5758819580078 64.58684539794922" stroke-width="3.0" fill="none" stroke="rgb(2, 2, 2)" stroke-opacity="0.99000007" stroke-linecap="round" stroke-linejoin="round"/>
    <path d="M 117.00045776367188 76.99967193603516 C 115.31807708740234 74.96194458007812 121.4329833984375 79.6785888671875 124.79515838623047 76.36503601074219" stroke-width="3.0" fill="none" stroke="rgb(2, 2, 2)" stroke-opacity="0.99000007" stroke-linecap="round" stroke-linejoin="round"/>
    <path d="M 101.99995422363281 108.9998779296875 C 99.71334075927734 111.77853393554688 105.07877349853516 113.6435546875 104.79255676269531 111.69011688232422" stroke-width="3.0" fill="none" stroke="rgb(2, 2, 2)" stroke-opacity="0.99000007" stroke-linecap="round" stroke-linejoin="round"/>
    <path d="M 33.999916076660156 107.00012969970703 C 31.07012367248535 102.17711639404297 30.744356155395508 105.37994384765625 32.58402633666992 107.6749038696289" stroke-width="3.0" fill="none" stroke="rgb(2, 2, 2)" stroke-opacity="0.99000007" stroke-linecap="round" stroke-linejoin="round"/>
    <path d="M 95.98973846435547 84.00157928466797 C 95.93526458740234 86.37461853027344 94.38894653320312 83.52977752685547 97.15154266357422 83.89595794677734" stroke-width="3.0" fill="none" stroke="rgb(2, 2, 2)" stroke-opacity="0.9900007" stroke-linecap="round" stroke-linejoin="round"/>
    <path d="M 185.00006103515625 49.999778747558594 C 181.86375427246094 43.804744720458984 176.47006225585938 49.071266174316406 178.1606903076172 47.88263702392578" stroke-width="3.0" fill="none" stroke="rgb(2, 2, 2)" stroke-opacity="0.99000007" stroke-linecap="round" stroke-linejoin="round"/>
    <path d="M 73.99894714355469 6.00030517578125 C 71.35775756835938 1.3562272787094116 68.6600341796875 -2.051417112350464 72.46834564208984 -4.5030951499938965" stroke-width="3.0" fill="none" stroke="rgb(2, 2, -2)" stroke-opacity="0.99000007" stroke-linecap="round" stroke-linejoin="round"/>
    <path d="M 146.99977111816406 43.99991989135742 C 149.92373657226562 41.39591598510742 151.9602508544922 46.92655944824219 152.31338500976562 45.79364013671875" stroke-width="3.0" fill="none" stroke="rgb(2, 2, 2)" stroke-opacity="0.99000007" stroke-linecap="round" stroke-linejoin="round"/>
    <path d="M 132.98495483398438 56.00111389160156 C 128.73202514648438 59.01448440551758 125.95149993896484 57.3942756652832 126.2641372680664 60.960304260253906" stroke-width="3.0" fill="none" stroke="rgb(2, 2, 2)" stroke-opacity="0.99000007" stroke-linecap="round" stroke-linejoin="round"/>
    <path d="M 216.9996795654297 132.99989318847656 C 211.96490478515625 136.41644287109375 207.97927856445312 140.53070068359375 201.1619110107422 136.87452697753906" stroke-width="3.0" fill="none" stroke="rgb(2, 2, 2)" stroke-opacity="0.99000007" stroke-linecap="round" stroke-linejoin="round"/>
    <path d="M 112.99954986572266 86.00006866455078 C 108.11613464355469 84.58621215820312 108.4277114868164 79.41294860839844 113.1436538696289 77.98052978515625" stroke-width="3.0" fill="none" stroke="rgb(2, 2, 2)" stroke-opacity="0.9900001" stroke-linecap="round" stroke-linejoin="round"/>
    <path d="M 88.00006866455078 136.0001678466797 C 90.9095230102539 138.8925018310547 89.94633483886719 139.47203063964844 89.78922271728516 146.5648956298828" stroke-width="3.0" fill="none" stroke="rgb(2, 2, 2)" stroke-opacity="0.99000007" stroke-linecap="round" stroke-linejoin="round"/>
    <path d="M 45.99995040893555 182.99978637695312 C 47.578773498535156 176.12960815429688 44.96355438232422 174.35462951660156 49.89472961425781 175.8485565185547" stroke-width="3.0" fill="none" stroke="rgb(2, 2, 2)" stroke-opacity="0.99000007" stroke-linecap="round" stroke-linejoin="round"/>
    <path d="M 205.99990844726562 140.99984741210938 C 201.09295654296875 145.79605102539062 206.0176544189453 147.6199188232422 209.05665588378906 146.65573120117188" stroke-width="3.0" fill="none" stroke="rgb(2, 2, -2)" stroke-opacity="0.99000007" stroke-linecap="round" stroke-linejoin="round"/>
    <path d="M 85.00044250488281 124.99962615966797 C 89.64226531982422 127.79288482666016 88.34819030761719 124.32237243652344 92.51273345947266 122.07054138183594" stroke-width="3.0" fill="none" stroke="rgb(2, 2, -2)" stroke-opacity="0.99000007" stroke-linecap="round" stroke-linejoin="round"/>
    <path d="M 112.99991607666016 110.0000991821289 C 106.4719009399414 107.64738464355469 102.67284393310547 107.17091369628906 106.51441192626953 104.7960205078125" stroke-width="3.0" fill="none" stroke="rgb(2, 2, 2)" stroke-opacity="0.9900001" stroke-linecap="round" stroke-linejoin="round"/>
    <path d="M 166.00352478027344 78.99950408935547 C 168.96278381347656 77.2029037475586 164.31100463867188 81.18958282470703 159.82742309570312 80.09740447998047" stroke-width="3.0" fill="none" stroke="rgb(2, 2, 2)" stroke-opacity="0.99000007" stroke-linecap="round" stroke-linejoin="round"/>
    <path d="M 115.00012969970703 109.00396728515625 C 114.07478332519531 113.6091079711914 118.5255126953125 114.6939697265625 116.93134307861328 112.01860046386719" stroke-width="3.0" fill="none" stroke="rgb(2, 2, -2)" stroke-opacity="0.9900001" stroke-linecap="round" stroke-linejoin="round"/>
    <path d="M 183.9998321533203 144.99928283691406 C 184.21432495117188 138.2908477783203 179.4934844970703 139.74935913085938 184.36630249023438 138.04818725585938" stroke-width="3.0" fill="none" stroke="rgb(2, 2, -2)" stroke-opacity="0.9900001" stroke-linecap="round" stroke-linejoin="round"/>
    <path d="M 102.00105285644531 99.99971008300781 C 99.92015838623047 97.0435791015625 105.43017578125 95.84426879882812 104.76860046386719 93.42334747314453" stroke-width="3.0" fill="none" stroke="rgb(2, 2, -2)" stroke-opacity="0.9900001" stroke-linecap="round" stroke-linejoin="round"/>
    <path d="M 98.9999008178711 185.9998779296875 C 101.41353607177734 188.1014404296875 103.5805892944336 183.90838623046875 106.34420776367188 186.43585205078125" stroke-width="3.0" fill="none" stroke="rgb(2, 2, 2)" stroke-opacity="0.99000007" stroke-linecap="round" stroke-linejoin="round"/>
    <path d="M 131.00009155273438 89.9998550415039 C 126.35821533203125 86.1424789428711 126.3770751953125 82.1900863647461 126.17198181152344 76.68059539794922" stroke-width="3.0" fill="none" stroke="rgb(2, 2, -2)" stroke-opacity="0.99000007" stroke-linecap="round" stroke-linejoin="round"/>
    <path d="M 127.00013732910156 77.99990844726562 C 131.59298706054688 80.91767883300781 135.7034912109375 85.1227035522461 141.28262329101562 84.62421417236328" stroke-width="3.0" fill="none" stroke="rgb(2, 2, 2)" stroke-opacity="0.99000007" stroke-linecap="round" stroke-linejoin="round"/>
    <path d="M 214.00006103515625 82.00012969970703 C 213.6370086669922 83.91996002197266 208.3037109375 80.66577911376953 210.9456329345703 76.75629425048828" stroke-width="3.0" fill="none" stroke="rgb(2, 2, 2)" stroke-opacity="0.99" stroke-linecap="round" stroke-linejoin="round"/>
    <path d="M 173.99978637695312 115.99871063232422 C 177.11477661132812 113.23006439208984 172.01272583007812 107.95867919921875 168.6595916748047 105.47760009765625" stroke-width="3.0" fill="none" stroke="rgb(2, 2, 2)" stroke-opacity="0.99000007" stroke-linecap="round" stroke-linejoin="round"/>
    <path d="M 89.00017547607422 187.9982147216797 C 91.22012329101562 189.2228240966797 88.44639587402344 188.10641479492188 90.87822723388672 190.55630493164062" stroke-width="3.0" fill="none" stroke="rgb(2, 2, 2)" stroke-opacity="0.99000007" stroke-linecap="round" stroke-linejoin="round"/>
    <path d="M 178.9994659423828 153.00120544433594 C 176.0390625 157.13539123535156 171.29556274414062 160.8103790283203 172.3665771484375 159.90907287597656" stroke-width="3.0" fill="none" stroke="rgb(2, 2, 2)" stroke-opacity="0.99000007" stroke-linecap="round" stroke-linejoin="round"/>
    <path d="M 125.99988555908203 84.00005340576172 C 120.58978271484375 89.54788208007812 120.37081909179688 86.78417205810547 122.40531921386719 87.0322036743164" stroke-width="3.0" fill="none" stroke="rgb(2, 2, -2)" stroke-opacity="0.9900001" stroke-linecap="round" stroke-linejoin="round"/>
    <path d="M 140.09254455566406 65.00225067138672 C 143.285888671875 64.05754089355469 142.47434997558594 62.72877502441406 143.1859130859375 70.07965087890625" stroke-width="3.0" fill="none" stroke="rgb(2, 2, 2)" stroke-opacity="0.9900001" stroke-linecap="round" stroke-linejoin="round"/>
    <path d="M 126.0002670288086 217.00018310546875 C 125.9742431640625 218.61306762695312 130.71343994140625 215.9328155517578 135.6802978515625 214.74366760253906" stroke-width="3.0" fill="none" stroke="rgb(2, 2, -2)" stroke-opacity="0.99000007" stroke-linecap="round" stroke-linejoin="round"/>
    <path d="M 222.99905395507812 49.99659729003906 C 221.3313446044922 44.67238998413086 217.58226013183594 49.724124908447266 218.71238708496094 44.633758544921875" stroke-width="3.0" fill="none" stroke="rgb(2, 2, -2)" stroke-opacity="0.9900001" stroke-linecap="round" stroke-linejoin="round"/>
    <path d="M 206.0005340576172 197.99974060058594 C 207.6665802001953 199.59230041503906 203.40756225585938 201.12489318847656 208.28172302246094 201.42507934570312" stroke-width="3.0" fill="none" stroke="rgb(2, 2, -2)" stroke-opacity="0.99000007" stroke-linecap="round" stroke-linejoin="round"/>
    <path d="M 113.00018310546875 108.999755859375 C 116.36769104003906 108.69453430175781 113.2798080444336 111.64450073242188 119.60533905029297 112.23444366455078" stroke-width="3.0" fill="none" stroke="rgb(2, 2, -2)" stroke-opacity="0.99000025" stroke-linecap="round" stroke-linejoin="round"/>
    <path d="M 167.0003662109375 102.99995422363281 C 173.73439025878906 105.16114044189453 168.24342346191406 108.31391906738281 166.11607360839844 104.532470703125" stroke-width="3.0" fill="none" stroke="rgb(2, 2, -2)" stroke-opacity="0.99000007" stroke-linecap="round" stroke-linejoin="round"/>
    <path d="M 76.9999008178711 99.00030517578125 C 80.84785461425781 95.95728302001953 80.2878189086914 101.5009994506836 80.44837951660156 104.56146240234375" stroke-width="3.0" fill="none" stroke="rgb(2, 2, -2)" stroke-opacity="0.99000007" stroke-linecap="round" stroke-linejoin="round"/>
    <path d="M 202.00123596191406 96.0001449584961 C 206.99508666992188 96.33968353271484 210.980712890625 98.5158920288086 214.340087890625 102.26933288574219" stroke-width="3.0" fill="none" stroke="rgb(2, 2, 2)" stroke-opacity="0.99000007" stroke-linecap="round" stroke-linejoin="round"/>
    <path d="M 42.99993133544922 202.000244140625 C 40.634361267089844 207.5435028076172 43.155250549316406 202.85684204101562 41.1489372253418 206.59434509277344" stroke-width="3.0" fill="none" stroke="rgb(2, 2, 2)" stroke-opacity="0.99000007" stroke-linecap="round" stroke-linejoin="round"/>
    <path d="M 165.0004425048828 45.000240325927734 C 171.1742706298828 44.681697845458984 171.0811004638672 44.56028366088867 166.6404571533203 44.830379486083984" stroke-width="3.0" fill="none" stroke="rgb(2, 2, 2)" stroke-opacity="0.99000007" stroke-linecap="round" stroke-linejoin="round"/>
    <path d="M 220.99867248535156 44.99982833862305 C 224.61370849609375 45.083587646484375 225.00778198242188 44.0898551940918 219.87159729003906 45.373809814453125" stroke-width="3.0" fill="none" stroke="rgb(2, 2, -2)" stroke-opacity="0.9900004" stroke-linecap="round" stroke-linejoin="round"/>
    <path d="M 145.9999237060547 85.0000991821289 C 143.27459716796875 83.44135284423828 142.6656951904297 79.90975189208984 145.89495849609375 82.56170654296875" stroke-width="3.0" fill="none" stroke="rgb(2, 2, 2)" stroke-opacity="0.99000007" stroke-linecap="round" stroke-linejoin="round"/>
    <path d="M 126.99356079101562 80.99937438964844 C 120.73725891113281 79.350830078125 120.5771255493164 84.82083129882812 122.42609405517578 83.2953109741211" stroke-width="3.0" fill="none" stroke="rgb(2, 2, -2)" stroke-opacity="0.9900011" stroke-linecap="round" stroke-linejoin="round"/>
    <path d="M 176.9996795654297 76.999755859375 C 180.37966918945312 76.00692749023438 183.1964874267578 76.24942779541016 182.50296020507812 77.00342559814453" stroke-width="3.0" fill="none" stroke="rgb(2, 2, 2)" stroke-opacity="0.99000007" stroke-linecap="round" stroke-linejoin="round"/>
    <path d="M 150.00010681152344 48.99973678588867 C 154.73587036132812 45.030418395996094 152.49639892578125 52.00001907348633 152.9171142578125 47.16012954711914" stroke-width="3.0" fill="none" stroke="rgb(2, 2, -2)" stroke-opacity="0.99000037" stroke-linecap="round" stroke-linejoin="round"/>
    <path d="M 219.00177001953125 111.99948120117188 C 217.68563842773438 110.7883071899414 215.22552490234375 104.76943969726562 220.82398986816406 101.80419921875" stroke-width="3.0" fill="none" stroke="rgb(2, 2, 2)" stroke-opacity="0.99000007" stroke-linecap="round" stroke-linejoin="round"/>
  </g>
</svg>
