<?xml version="1.0" ?>
<svg xmlns="http://www.w3.org/2000/svg" version="1.1" width="224" height="224">
  <defs/>
  <g>
    <path d="M 77.10005187988281 215.07554626464844 C 251.48878479003906 218.2718048095703 169.0342559814453 208.55528259277344 149.0552520751953 213.60418701171875" stroke-width="3.0" fill="none" stroke="rgb(0, 1, -2)" stroke-opacity="0.20540085" stroke-linecap="round" stroke-linejoin="round"/>
    <path d="M 106.11919403076172 176.8591766357422 C 126.68444061279297 142.33969116210938 105.7771224975586 140.40530395507812 116.72026824951172 123.4275894165039" stroke-width="3.0" fill="none" stroke="rgb(3, -4, 1)" stroke-opacity="0.24027489" stroke-linecap="round" stroke-linejoin="round"/>
    <path d="M 133.25958251953125 73.25000762939453 C 109.33592224121094 129.64288330078125 113.93413543701172 83.51837921142578 132.3919677734375 78.87409210205078" stroke-width="3.0" fill="none" stroke="rgb(2, -1, -2)" stroke-opacity="0.037418164" stroke-linecap="round" stroke-linejoin="round"/>
    <path d="M 191.44754028320312 52.24384689331055 C 198.00177001953125 55.24445343017578 178.6953887939453 52.189022064208984 215.6189727783203 97.80532836914062" stroke-width="3.0" fill="none" stroke="rgb(0, -1, 2)" stroke-opacity="0.051552504" stroke-linecap="round" stroke-linejoin="round"/>
    <path d="M 91.05103302001953 144.81321716308594 C 121.65502166748047 84.21615600585938 71.45208740234375 107.48065948486328 111.96208953857422 154.14044189453125" stroke-width="3.0" fill="none" stroke="rgb(2, -2, -1)" stroke-opacity="0.067855716" stroke-linecap="round" stroke-linejoin="round"/>
    <path d="M 86.95027923583984 157.20314025878906 C 120.00614929199219 136.57568359375 106.22872161865234 177.4678192138672 113.56645965576172 141.1530303955078" stroke-width="3.0" fill="none" stroke="rgb(4, -3, 0)" stroke-opacity="0.1936216" stroke-linecap="round" stroke-linejoin="round"/>
    <path d="M 178.8792266845703 191.28187561035156 C 178.90211486816406 113.20897674560547 186.7848663330078 154.83473205566406 186.0148468017578 113.99491882324219" stroke-width="3.0" fill="none" stroke="rgb(2, -2, -2)" stroke-opacity="0.24365507" stroke-linecap="round" stroke-linejoin="round"/>
    <path d="M 4.195752143859863 140.08567810058594 C 202.85794067382812 141.7765350341797 35.43644332885742 129.23240661621094 91.57793426513672 141.3126220703125" stroke-width="3.0" fill="none" stroke="rgb(-4, 0, 4)" stroke-opacity="0.057128556" stroke-linecap="round" stroke-linejoin="round"/>
    <path d="M 75.40580749511719 154.5387420654297 C -80.81494140625 163.46450805664062 49.001102447509766 152.94931030273438 -0.4919288456439972 148.88685607910156" stroke-width="3.0" fill="none" stroke="rgb(-3, 0, 3)" stroke-opacity="0.029449718" stroke-linecap="round" stroke-linejoin="round"/>
    <path d="M 171.8059539794922 168.70199584960938 C -169.9166717529297 158.13552856445312 -138.6192169189453 179.54788208007812 229.13951110839844 185.156005859375" stroke-width="3.0" fill="none" stroke="rgb(-2, 4, -3)" stroke-opacity="0.07659578" stroke-linecap="round" stroke-linejoin="round"/>
    <path d="M 137.41204833984375 93.07195281982422 C 163.48541259765625 51.805908203125 97.09295654296875 93.1624984741211 178.5138702392578 42.60991668701172" stroke-width="3.0" fill="none" stroke="rgb(2, -1, -2)" stroke-opacity="0.030049222" stroke-linecap="round" stroke-linejoin="round"/>
    <path d="M 81.20622253417969 156.66766357421875 C 101.08019256591797 121.3652572631836 89.48171997070312 130.75881958007812 78.28125762939453 158.3398895263672" stroke-width="3.0" fill="none" stroke="rgb(0, -2, 3)" stroke-opacity="0.4289939" stroke-linecap="round" stroke-linejoin="round"/>
    <path d="M 34.49663162231445 233.55787658691406 C 38.51164245605469 230.1786346435547 35.79777908325195 231.06979370117188 28.662723541259766 232.28993225097656" stroke-width="3.0" fill="none" stroke="rgb(0, 0, 0)" stroke-opacity="0.8452074" stroke-linecap="round" stroke-linejoin="round"/>
    <path d="M 30.725509643554688 192.5998077392578 C 21.942853927612305 191.7090606689453 25.14535903930664 174.29331970214844 -12.654413223266602 185.605712890625" stroke-width="3.0" fill="none" stroke="rgb(0, 0, 0)" stroke-opacity="0.07044624" stroke-linecap="round" stroke-linejoin="round"/>
    <path d="M 127.75605010986328 94.85430145263672 C 138.6277313232422 86.00360107421875 167.64967346191406 99.69335174560547 133.4678955078125 92.38641357421875" stroke-width="3.0" fill="none" stroke="rgb(1, -1, -2)" stroke-opacity="0.17024581" stroke-linecap="round" stroke-linejoin="round"/>
    <path d="M 121.47667694091797 63.796058654785156 C 114.91203308105469 78.71507263183594 95.73026275634766 82.72081756591797 122.86561584472656 64.27789306640625" stroke-width="3.0" fill="none" stroke="rgb(-3, 3, 2)" stroke-opacity="0.23657472" stroke-linecap="round" stroke-linejoin="round"/>
    <path d="M 134.19192504882812 5.656443119049072 C -101.18675231933594 12.62592601776123 -67.72309112548828 -4.201742649078369 146.89541625976562 2.6244237422943115" stroke-width="3.0" fill="none" stroke="rgb(-3, 3, -3)" stroke-opacity="0.21923438" stroke-linecap="round" stroke-linejoin="round"/>
    <path d="M 101.35993957519531 104.79129791259766 C 132.5729522705078 121.3884506225586 121.78941345214844 93.5932846069336 109.82679748535156 137.24496459960938" stroke-width="3.0" fill="none" stroke="rgb(2, -1, 0)" stroke-opacity="0.04719869" stroke-linecap="round" stroke-linejoin="round"/>
    <path d="M 190.15501403808594 77.32244873046875 C 178.1584014892578 85.1927719116211 185.31813049316406 5.496742248535156 174.11627197265625 78.67034912109375" stroke-width="3.0" fill="none" stroke="rgb(0, -1, 0)" stroke-opacity="0.07671115" stroke-linecap="round" stroke-linejoin="round"/>
    <path d="M 98.5820083618164 114.43477630615234 C 97.98944091796875 56.66724395751953 67.33541870117188 138.64588928222656 118.13399505615234 75.4152603149414" stroke-width="3.0" fill="none" stroke="rgb(0, -1, 0)" stroke-opacity="0.11227172" stroke-linecap="round" stroke-linejoin="round"/>
    <path d="M 99.51173400878906 85.40409851074219 C 96.5802993774414 179.12733459472656 114.14095306396484 200.30322265625 115.3910903930664 66.03580474853516" stroke-width="3.0" fill="none" stroke="rgb(1, -1, -1)" stroke-opacity="0.047052763" stroke-linecap="round" stroke-linejoin="round"/>
    <path d="M 192.72201538085938 108.62521362304688 C 154.1322479248047 88.95931243896484 187.53958129882812 53.288204193115234 172.50132751464844 86.24873352050781" stroke-width="3.0" fill="none" stroke="rgb(-3, 0, 3)" stroke-opacity="0.07671569" stroke-linecap="round" stroke-linejoin="round"/>
    <path d="M 73.5181884765625 84.31812286376953 C 126.96257019042969 73.95445251464844 101.24832916259766 64.5805892944336 74.43701171875 98.90145111083984" stroke-width="3.0" fill="none" stroke="rgb(0, 0, 0)" stroke-opacity="0.05310059" stroke-linecap="round" stroke-linejoin="round"/>
    <path d="M 98.75729370117188 141.2872314453125 C 125.99981689453125 162.46829223632812 100.65404510498047 158.86373901367188 100.91133117675781 203.60533142089844" stroke-width="3.0" fill="none" stroke="rgb(3, -2, -1)" stroke-opacity="0.17119081" stroke-linecap="round" stroke-linejoin="round"/>
    <path d="M -3.090017557144165 10.828093528747559 C 111.3758316040039 7.671256065368652 43.51072692871094 20.501638412475586 100.4971923828125 2.6140830516815186" stroke-width="3.0" fill="none" stroke="rgb(0, 1, -1)" stroke-opacity="0.06980034" stroke-linecap="round" stroke-linejoin="round"/>
    <path d="M 171.29945373535156 51.60366439819336 C 153.49249267578125 181.81126403808594 142.612548828125 34.56483840942383 176.72337341308594 43.48334503173828" stroke-width="3.0" fill="none" stroke="rgb(-2, -2, 2)" stroke-opacity="0.08427627" stroke-linecap="round" stroke-linejoin="round"/>
    <path d="M 129.8853302001953 83.29338073730469 C 99.70106506347656 89.0738754272461 129.42922973632812 161.2689971923828 118.99398040771484 68.95953369140625" stroke-width="3.0" fill="none" stroke="rgb(2, -2, -2)" stroke-opacity="0.04282249" stroke-linecap="round" stroke-linejoin="round"/>
    <path d="M -7.125722408294678 171.40316772460938 C -6.597794532775879 176.67947387695312 -6.5245537757873535 170.9685516357422 -11.776176452636719 165.05767822265625" stroke-width="3.0" fill="none" stroke="rgb(0, 0, 0)" stroke-opacity="0.7838886" stroke-linecap="round" stroke-linejoin="round"/>
    <path d="M 147.2594451904297 81.9021224975586 C 185.8677520751953 132.53665161132812 152.91610717773438 85.19255065917969 131.6446990966797 94.93119812011719" stroke-width="3.0" fill="none" stroke="rgb(-2, -1, 2)" stroke-opacity="0.17844543" stroke-linecap="round" stroke-linejoin="round"/>
    <path d="M 30.97968101501465 5.202202320098877 C -78.36894989013672 7.112445831298828 -91.15487670898438 8.73230266571045 58.01416015625 3.683558464050293" stroke-width="3.0" fill="none" stroke="rgb(-2, 2, -1)" stroke-opacity="0.24618389" stroke-linecap="round" stroke-linejoin="round"/>
    <path d="M 177.83169555664062 121.08303833007812 C 162.2438201904297 208.62078857421875 201.8198699951172 67.63016510009766 181.91510009765625 118.02714538574219" stroke-width="3.0" fill="none" stroke="rgb(2, 0, -4)" stroke-opacity="0.14506702" stroke-linecap="round" stroke-linejoin="round"/>
    <path d="M 135.84042358398438 214.22946166992188 C -66.96366882324219 207.53726196289062 69.70342254638672 206.21063232421875 -6.315293788909912 209.9401397705078" stroke-width="3.0" fill="none" stroke="rgb(-3, 4, -1)" stroke-opacity="0.16627648" stroke-linecap="round" stroke-linejoin="round"/>
    <path d="M 207.9614715576172 61.399681091308594 C 192.711669921875 58.97736740112305 239.3767852783203 51.167327880859375 234.37107849121094 38.194000244140625" stroke-width="3.0" fill="none" stroke="rgb(1, 0, -1)" stroke-opacity="0.044494823" stroke-linecap="round" stroke-linejoin="round"/>
    <path d="M 193.12445068359375 80.34053039550781 C 245.0486602783203 144.47000122070312 185.3373260498047 51.181915283203125 196.97108459472656 97.00467681884766" stroke-width="3.0" fill="none" stroke="rgb(-4, -1, 3)" stroke-opacity="0.10639844" stroke-linecap="round" stroke-linejoin="round"/>
    <path d="M 120.10773468017578 100.15262603759766 C 113.01991271972656 131.357421875 108.5105209350586 56.426918029785156 179.1808624267578 105.56623840332031" stroke-width="3.0" fill="none" stroke="rgb(1, -1, -1)" stroke-opacity="0.028832015" stroke-linecap="round" stroke-linejoin="round"/>
    <path d="M 47.34029006958008 87.98863983154297 C -63.276649475097656 77.11528778076172 92.89676666259766 71.67721557617188 3.4325811862945557 89.08058166503906" stroke-width="3.0" fill="none" stroke="rgb(0, 0, 0)" stroke-opacity="0.021263797" stroke-linecap="round" stroke-linejoin="round"/>
    <path d="M 82.79153442382812 89.16756439208984 C 128.2252960205078 74.8439712524414 101.74120330810547 60.453704833984375 93.78238677978516 99.140380859375" stroke-width="3.0" fill="none" stroke="rgb(-1, 2, 0)" stroke-opacity="0.25400364" stroke-linecap="round" stroke-linejoin="round"/>
    <path d="M 173.49871826171875 83.32946014404297 C 247.9643096923828 121.21984100341797 216.16893005371094 90.58119201660156 187.12425231933594 72.830810546875" stroke-width="3.0" fill="none" stroke="rgb(2, -1, 0)" stroke-opacity="0.038798936" stroke-linecap="round" stroke-linejoin="round"/>
    <path d="M 137.94973754882812 94.41985321044922 C 120.40300750732422 103.77085876464844 119.99822235107422 118.51274108886719 114.15231323242188 128.715576171875" stroke-width="3.0" fill="none" stroke="rgb(2, -3, 3)" stroke-opacity="0.24707815" stroke-linecap="round" stroke-linejoin="round"/>
    <path d="M 95.77864074707031 91.88253021240234 C 139.0872802734375 37.60150909423828 124.29063415527344 58.21132278442383 104.48787689208984 79.84036254882812" stroke-width="3.0" fill="none" stroke="rgb(-2, 1, 2)" stroke-opacity="0.28035596" stroke-linecap="round" stroke-linejoin="round"/>
    <path d="M 87.7878189086914 173.22433471679688 C 83.46514892578125 173.70570373535156 108.03363800048828 92.58967590332031 86.14192199707031 189.1015625" stroke-width="3.0" fill="none" stroke="rgb(1, 0, 0)" stroke-opacity="0.30589455" stroke-linecap="round" stroke-linejoin="round"/>
    <path d="M 84.24630737304688 158.722900390625 C 98.79598236083984 81.61421203613281 98.29682159423828 97.62615203857422 123.29086303710938 64.82382202148438" stroke-width="3.0" fill="none" stroke="rgb(0, 2, -1)" stroke-opacity="0.36840802" stroke-linecap="round" stroke-linejoin="round"/>
    <path d="M 140.85824584960938 88.62952423095703 C 146.434326171875 91.3309097290039 120.52552795410156 103.60818481445312 132.4701690673828 94.1647720336914" stroke-width="3.0" fill="none" stroke="rgb(1, 0, 0)" stroke-opacity="0.15639672" stroke-linecap="round" stroke-linejoin="round"/>
    <path d="M 164.526611328125 65.77317810058594 C 150.6018524169922 130.4768524169922 148.08216857910156 28.13863754272461 158.22854614257812 98.3450698852539" stroke-width="3.0" fill="none" stroke="rgb(-2, -2, 2)" stroke-opacity="0.08912233" stroke-linecap="round" stroke-linejoin="round"/>
    <path d="M 139.6715087890625 76.74598693847656 C 166.53225708007812 16.240718841552734 95.62293243408203 51.68401336669922 67.15845489501953 41.94765090942383" stroke-width="3.0" fill="none" stroke="rgb(3, -1, 0)" stroke-opacity="0.025225848" stroke-linecap="round" stroke-linejoin="round"/>
    <path d="M 196.42626953125 97.06157684326172 C 180.70101928710938 112.16943359375 242.9722442626953 92.65605163574219 202.74267578125 98.69391632080078" stroke-width="3.0" fill="none" stroke="rgb(0, -1, 1)" stroke-opacity="0.07315993" stroke-linecap="round" stroke-linejoin="round"/>
    <path d="M 142.6206512451172 47.91177749633789 C 125.42567443847656 48.684059143066406 146.27870178222656 48.12660598754883 122.4866714477539 63.5311164855957" stroke-width="3.0" fill="none" stroke="rgb(-2, 0, 2)" stroke-opacity="0.21349949" stroke-linecap="round" stroke-linejoin="round"/>
    <path d="M 69.6473388671875 32.43565368652344 C 125.8929214477539 41.30389404296875 89.23755645751953 19.790281295776367 89.35913848876953 33.1552734375" stroke-width="3.0" fill="none" stroke="rgb(1, 0, 0)" stroke-opacity="0.016938021" stroke-linecap="round" stroke-linejoin="round"/>
    <path d="M 187.1847686767578 154.63787841796875 C 251.95880126953125 182.37063598632812 177.7354736328125 99.88268280029297 219.7783203125 142.18722534179688" stroke-width="3.0" fill="none" stroke="rgb(-3, 1, 2)" stroke-opacity="0.10052188" stroke-linecap="round" stroke-linejoin="round"/>
    <path d="M 103.75320434570312 53.12375259399414 C -98.25005340576172 52.5147705078125 -93.81053161621094 71.91739654541016 73.42015838623047 65.51278686523438" stroke-width="3.0" fill="none" stroke="rgb(1, 0, 2)" stroke-opacity="0.023968315" stroke-linecap="round" stroke-linejoin="round"/>
    <path d="M 144.20944213867188 212.13397216796875 C 245.5735626220703 196.11257934570312 103.5550537109375 210.58395385742188 230.3233184814453 213.65089416503906" stroke-width="3.0" fill="none" stroke="rgb(-2, 1, 0)" stroke-opacity="0.09430096" stroke-linecap="round" stroke-linejoin="round"/>
    <path d="M 76.42461395263672 148.86134338378906 C 86.9813232421875 135.4722900390625 105.1031265258789 125.67414093017578 99.20199584960938 186.91893005371094" stroke-width="3.0" fill="none" stroke="rgb(0, -2, 2)" stroke-opacity="0.25392" stroke-linecap="round" stroke-linejoin="round"/>
    <path d="M 141.4467010498047 62.49278259277344 C 165.14381408691406 75.10093688964844 80.99707794189453 74.84407043457031 164.220947265625 70.86030578613281" stroke-width="3.0" fill="none" stroke="rgb(1, 0, -2)" stroke-opacity="0.030194143" stroke-linecap="round" stroke-linejoin="round"/>
    <path d="M 101.97200775146484 131.63836669921875 C 106.15949249267578 72.67655181884766 133.85137939453125 71.3350830078125 178.61671447753906 81.9416275024414" stroke-width="3.0" fill="none" stroke="rgb(2, -2, 0)" stroke-opacity="0.033725716" stroke-linecap="round" stroke-linejoin="round"/>
    <path d="M 121.42880249023438 93.90145874023438 C 112.83012390136719 139.32411193847656 67.884521484375 132.30784606933594 112.89519500732422 111.51371765136719" stroke-width="3.0" fill="none" stroke="rgb(3, -2, -1)" stroke-opacity="0.055969764" stroke-linecap="round" stroke-linejoin="round"/>
    <path d="M 7.411038398742676 95.69962310791016 C 31.24085235595703 91.48352813720703 13.601875305175781 100.32710266113281 32.405704498291016 95.23607635498047" stroke-width="3.0" fill="none" stroke="rgb(0, -1, -1)" stroke-opacity="0.03275875" stroke-linecap="round" stroke-linejoin="round"/>
    <path d="M 84.18017578125 78.1257095336914 C 116.11654663085938 89.98775482177734 111.04349517822266 65.2893295288086 80.45499420166016 107.52445983886719" stroke-width="3.0" fill="none" stroke="rgb(-2, 1, 0)" stroke-opacity="0.13324657" stroke-linecap="round" stroke-linejoin="round"/>
    <path d="M 184.08433532714844 46.91624450683594 C 140.5191192626953 36.477237701416016 79.08203125 20.72530174255371 222.96031188964844 34.4498176574707" stroke-width="3.0" fill="none" stroke="rgb(0, 0, 0)" stroke-opacity="0.014373355" stroke-linecap="round" stroke-linejoin="round"/>
    <path d="M 71.98322296142578 -10.6055269241333 C 72.80118560791016 -8.338879585266113 72.43123626708984 -7.918331146240234 77.42119598388672 -9.567031860351562" stroke-width="3.0" fill="none" stroke="rgb(0, 0, 0)" stroke-opacity="0.84979373" stroke-linecap="round" stroke-linejoin="round"/>
    <path d="M 164.86083984375 39.658382415771484 C 113.49514770507812 66.5733642578125 120.77440643310547 50.7556037902832 164.467529296875 43.2298583984375" stroke-width="3.0" fill="none" stroke="rgb(-1, -1, 2)" stroke-opacity="0.19709483" stroke-linecap="round" stroke-linejoin="round"/>
    <path d="M 154.8309783935547 41.91908645629883 C 132.6176300048828 45.605690002441406 105.4615478515625 76.78108215332031 116.38729095458984 63.08320999145508" stroke-width="3.0" fill="none" stroke="rgb(-2, 1, 3)" stroke-opacity="0.40420172" stroke-linecap="round" stroke-linejoin="round"/>
    <path d="M 226.6212158203125 133.61228942871094 C 161.96453857421875 161.3365478515625 198.59844970703125 197.9021759033203 215.9592742919922 122.96205139160156" stroke-width="3.0" fill="none" stroke="rgb(-2, 2, -1)" stroke-opacity="0.103260405" stroke-linecap="round" stroke-linejoin="round"/>
    <path d="M 132.9542236328125 71.25331115722656 C 57.30548858642578 63.991310119628906 93.480224609375 65.31946563720703 113.00169372558594 54.48058319091797" stroke-width="3.0" fill="none" stroke="rgb(1, 0, 0)" stroke-opacity="0.017331293" stroke-linecap="round" stroke-linejoin="round"/>
    <path d="M 94.47310638427734 93.91356658935547 C 68.43888854980469 158.10623168945312 105.08331298828125 99.77688598632812 85.48966979980469 163.59368896484375" stroke-width="3.0" fill="none" stroke="rgb(-1, 0, 2)" stroke-opacity="0.3551842" stroke-linecap="round" stroke-linejoin="round"/>
    <path d="M 16.36956787109375 186.23704528808594 C 74.43309020996094 169.15830993652344 -40.023136138916016 185.9318084716797 90.96700286865234 185.63233947753906" stroke-width="3.0" fill="none" stroke="rgb(3, 0, -2)" stroke-opacity="0.15785709" stroke-linecap="round" stroke-linejoin="round"/>
    <path d="M 200.2040252685547 142.9821319580078 C 214.42340087890625 182.06173706054688 214.60421752929688 158.44117736816406 186.5433807373047 165.42352294921875" stroke-width="3.0" fill="none" stroke="rgb(0, 1, -2)" stroke-opacity="0.14619458" stroke-linecap="round" stroke-linejoin="round"/>
    <path d="M 77.01922607421875 121.17582702636719 C 96.49661254882812 152.4016876220703 77.318603515625 123.91780853271484 102.93679809570312 85.25814056396484" stroke-width="3.0" fill="none" stroke="rgb(0, 0, 1)" stroke-opacity="0.3763873" stroke-linecap="round" stroke-linejoin="round"/>
    <path d="M 119.78772735595703 113.29727172851562 C 105.6720962524414 152.2605743408203 86.36800384521484 113.7679443359375 122.19140625 70.5265121459961" stroke-width="3.0" fill="none" stroke="rgb(2, -2, 1)" stroke-opacity="0.07824811" stroke-linecap="round" stroke-linejoin="round"/>
    <path d="M 166.7284393310547 52.373966217041016 C 177.2074737548828 87.39266204833984 151.5981903076172 89.64655303955078 190.3573760986328 100.63504791259766" stroke-width="3.0" fill="none" stroke="rgb(-1, -1, 1)" stroke-opacity="0.06768744" stroke-linecap="round" stroke-linejoin="round"/>
    <path d="M 93.479736328125 125.83096313476562 C 157.83761596679688 92.9930648803711 120.3473129272461 42.0765495300293 103.69324493408203 179.8292236328125" stroke-width="3.0" fill="none" stroke="rgb(4, -3, -4)" stroke-opacity="0.070198104" stroke-linecap="round" stroke-linejoin="round"/>
    <path d="M 174.61277770996094 199.8518829345703 C 199.04049682617188 83.00445556640625 163.65841674804688 150.94151306152344 196.8874053955078 99.03740692138672" stroke-width="3.0" fill="none" stroke="rgb(2, -2, -2)" stroke-opacity="0.16950397" stroke-linecap="round" stroke-linejoin="round"/>
    <path d="M 94.04339599609375 124.78931427001953 C 104.44698333740234 85.77300262451172 100.3201675415039 114.58577728271484 109.1795654296875 78.3182601928711" stroke-width="3.0" fill="none" stroke="rgb(-3, 1, 2)" stroke-opacity="0.15549146" stroke-linecap="round" stroke-linejoin="round"/>
    <path d="M 165.08090209960938 196.3665313720703 C 7.848113536834717 184.00912475585938 136.47122192382812 235.3192138671875 83.24932098388672 203.8159637451172" stroke-width="3.0" fill="none" stroke="rgb(-3, 5, 0)" stroke-opacity="0.15553851" stroke-linecap="round" stroke-linejoin="round"/>
    <path d="M 117.8423843383789 109.12361907958984 C 112.36964416503906 64.72705841064453 207.99317932128906 75.11212158203125 136.84991455078125 75.05437469482422" stroke-width="3.0" fill="none" stroke="rgb(2, -2, -1)" stroke-opacity="0.056250274" stroke-linecap="round" stroke-linejoin="round"/>
    <path d="M 142.50558471679688 92.92115783691406 C 109.49630737304688 100.8783187866211 138.4912872314453 59.200199127197266 173.20269775390625 113.3682861328125" stroke-width="3.0" fill="none" stroke="rgb(1, -2, 2)" stroke-opacity="0.13135569" stroke-linecap="round" stroke-linejoin="round"/>
    <path d="M 231.61268615722656 99.18941497802734 C 200.3021240234375 83.64137268066406 211.10897827148438 78.02748107910156 193.5911865234375 65.65044403076172" stroke-width="3.0" fill="none" stroke="rgb(1, 0, -1)" stroke-opacity="0.024818147" stroke-linecap="round" stroke-linejoin="round"/>
    <path d="M 158.13333129882812 90.41587829589844 C 195.66171264648438 143.33935546875 163.49386596679688 79.17659759521484 175.15670776367188 114.4925308227539" stroke-width="3.0" fill="none" stroke="rgb(2, -2, 0)" stroke-opacity="0.13503225" stroke-linecap="round" stroke-linejoin="round"/>
    <path d="M 79.92891693115234 144.670166015625 C 115.26178741455078 231.19407653808594 18.729307174682617 220.5293731689453 217.46615600585938 222.20639038085938" stroke-width="3.0" fill="none" stroke="rgb(0, 1, 0)" stroke-opacity="0.192325" stroke-linecap="round" stroke-linejoin="round"/>
    <path d="M 168.17344665527344 107.69001770019531 C 195.49993896484375 190.57823181152344 153.8917999267578 196.94126892089844 170.96397399902344 184.07704162597656" stroke-width="3.0" fill="none" stroke="rgb(1, -2, 2)" stroke-opacity="0.35676295" stroke-linecap="round" stroke-linejoin="round"/>
    <path d="M 181.411376953125 119.3200454711914 C 125.27484893798828 42.28893280029297 206.64071655273438 106.97657012939453 129.01385498046875 81.79612731933594" stroke-width="3.0" fill="none" stroke="rgb(2, -2, 0)" stroke-opacity="0.0722204" stroke-linecap="round" stroke-linejoin="round"/>
    <path d="M 139.0989227294922 64.93089294433594 C 182.75439453125 35.749027252197266 115.18769073486328 67.89466094970703 105.22859954833984 102.49118041992188" stroke-width="3.0" fill="none" stroke="rgb(1, -1, 0)" stroke-opacity="0.050342903" stroke-linecap="round" stroke-linejoin="round"/>
    <path d="M 148.66812133789062 218.94271850585938 C 135.81317138671875 229.48806762695312 239.0382080078125 195.13316345214844 80.19127655029297 208.7698516845703" stroke-width="3.0" fill="none" stroke="rgb(-4, 3, -3)" stroke-opacity="0.1309756" stroke-linecap="round" stroke-linejoin="round"/>
    <path d="M 248.43084716796875 48.61709976196289 C 248.86764526367188 32.97943115234375 221.2930145263672 44.00740432739258 200.57638549804688 48.56652069091797" stroke-width="3.0" fill="none" stroke="rgb(0, -2, 2)" stroke-opacity="0.10979725" stroke-linecap="round" stroke-linejoin="round"/>
    <path d="M 144.72744750976562 194.59841918945312 C 247.75148010253906 199.74331665039062 111.30619812011719 193.93653869628906 229.08319091796875 195.78533935546875" stroke-width="3.0" fill="none" stroke="rgb(-5, 0, 4)" stroke-opacity="0.14106348" stroke-linecap="round" stroke-linejoin="round"/>
    <path d="M 81.51392364501953 123.88777923583984 C 121.17847442626953 108.1792221069336 124.82112884521484 94.5578384399414 87.6330795288086 112.95490264892578" stroke-width="3.0" fill="none" stroke="rgb(0, -1, -1)" stroke-opacity="0.023032831" stroke-linecap="round" stroke-linejoin="round"/>
    <path d="M 150.5059051513672 91.63906860351562 C 181.3641357421875 122.58661651611328 186.66368103027344 137.9203643798828 149.39993286132812 93.87774658203125" stroke-width="3.0" fill="none" stroke="rgb(-1, 0, 2)" stroke-opacity="0.2928954" stroke-linecap="round" stroke-linejoin="round"/>
    <path d="M 84.09638977050781 104.25076293945312 C 105.13887023925781 90.4913330078125 80.4013442993164 92.49373626708984 75.58100891113281 105.51715087890625" stroke-width="3.0" fill="none" stroke="rgb(-3, 2, 2)" stroke-opacity="0.27258912" stroke-linecap="round" stroke-linejoin="round"/>
    <path d="M 191.7011260986328 108.4419937133789 C 189.55844116210938 107.87428283691406 215.10653686523438 106.72269439697266 232.02590942382812 94.85260772705078" stroke-width="3.0" fill="none" stroke="rgb(-3, 0, 3)" stroke-opacity="0.37985978" stroke-linecap="round" stroke-linejoin="round"/>
    <path d="M 117.07174682617188 191.39967346191406 C -76.0656509399414 186.2440948486328 -36.793216705322266 195.1236572265625 122.55005645751953 203.72471618652344" stroke-width="3.0" fill="none" stroke="rgb(-2, 2, 1)" stroke-opacity="0.11774675" stroke-linecap="round" stroke-linejoin="round"/>
    <path d="M 179.91708374023438 42.53215026855469 C 161.98948669433594 33.80824661254883 147.12014770507812 51.55073928833008 174.5349884033203 41.28950881958008" stroke-width="3.0" fill="none" stroke="rgb(-2, -1, 2)" stroke-opacity="0.19663921" stroke-linecap="round" stroke-linejoin="round"/>
    <path d="M 182.2946319580078 43.214195251464844 C 213.39236450195312 59.7914924621582 250.72894287109375 33.12375259399414 204.16604614257812 48.248435974121094" stroke-width="3.0" fill="none" stroke="rgb(2, -2, 1)" stroke-opacity="0.13657571" stroke-linecap="round" stroke-linejoin="round"/>
    <path d="M 176.2568817138672 117.98118591308594 C 120.45825958251953 50.96456527709961 160.3652801513672 126.74260711669922 151.52545166015625 79.34510040283203" stroke-width="3.0" fill="none" stroke="rgb(-1, 0, 2)" stroke-opacity="0.15467352" stroke-linecap="round" stroke-linejoin="round"/>
    <path d="M 136.1788787841797 78.8272476196289 C 114.65746307373047 91.23137664794922 143.08261108398438 57.47850799560547 128.97634887695312 69.7108383178711" stroke-width="3.0" fill="none" stroke="rgb(0, -1, 0)" stroke-opacity="0.06757805" stroke-linecap="round" stroke-linejoin="round"/>
    <path d="M 178.57029724121094 52.980777740478516 C 112.43894958496094 88.32491302490234 145.71206665039062 81.37165069580078 194.25442504882812 42.129154205322266" stroke-width="3.0" fill="none" stroke="rgb(4, -1, 0)" stroke-opacity="0.024457509" stroke-linecap="round" stroke-linejoin="round"/>
    <path d="M 137.8191375732422 47.38895797729492 C 164.5797119140625 48.403141021728516 174.63438415527344 35.334327697753906 124.36355590820312 66.58811950683594" stroke-width="3.0" fill="none" stroke="rgb(3, -3, 1)" stroke-opacity="0.1341494" stroke-linecap="round" stroke-linejoin="round"/>
    <path d="M 239.36476135253906 95.5455322265625 C 151.22422790527344 111.13106536865234 147.38388061523438 107.73512268066406 230.1133575439453 109.39619445800781" stroke-width="3.0" fill="none" stroke="rgb(0, 0, 0)" stroke-opacity="0.051499818" stroke-linecap="round" stroke-linejoin="round"/>
  </g>
</svg>
