<?xml version="1.0" ?>
<svg xmlns="http://www.w3.org/2000/svg" version="1.1" width="600" height="600">
  <defs/>
  <g>
    <path d="M 498.3876953125 571.7438354492188 C 326.9184265136719 536.9212646484375 602.865478515625 611.0930786132812 379.9128112792969 594.6690673828125" stroke-width="7.0" fill="none" stroke="rgb(-2, 2, 1)" stroke-opacity="0.20678322" stroke-linecap="round" stroke-linejoin="round"/>
    <path d="M 260.9814147949219 304.9479675292969 C 222.6603240966797 405.7331848144531 267.93280029296875 317.4141845703125 228.35552978515625 375.81585693359375" stroke-width="7.0" fill="none" stroke="rgb(-1, 0, 2)" stroke-opacity="0.048261475" stroke-linecap="round" stroke-linejoin="round"/>
    <path d="M 282.1392517089844 216.51568603515625 C 161.67115783691406 279.8900451660156 199.3051300048828 323.4512023925781 280.9128112792969 210.41558837890625" stroke-width="7.0" fill="none" stroke="rgb(-4, 3, 3)" stroke-opacity="0.2807487" stroke-linecap="round" stroke-linejoin="round"/>
    <path d="M 548.701904296875 168.4197540283203 C 542.9259643554688 153.99000549316406 531.719970703125 171.8774871826172 528.4524536132812 139.1358642578125" stroke-width="7.0" fill="none" stroke="rgb(0, 0, -1)" stroke-opacity="0.032734454" stroke-linecap="round" stroke-linejoin="round"/>
    <path d="M 221.89105224609375 372.5825500488281 C 258.6585693359375 316.3787841796875 207.81126403808594 400.530029296875 203.72828674316406 385.2276306152344" stroke-width="7.0" fill="none" stroke="rgb(-1, -1, 2)" stroke-opacity="0.18060283" stroke-linecap="round" stroke-linejoin="round"/>
    <path d="M 233.509033203125 507.54364013671875 C 235.31602478027344 413.3917236328125 228.40194702148438 412.1294250488281 204.14712524414062 413.1778869628906" stroke-width="7.0" fill="none" stroke="rgb(0, 1, 0)" stroke-opacity="0.27755776" stroke-linecap="round" stroke-linejoin="round"/>
    <path d="M 468.95391845703125 444.67852783203125 C 357.97235107421875 441.92730712890625 426.9786071777344 446.16455078125 327.6876525878906 444.40911865234375" stroke-width="7.0" fill="none" stroke="rgb(-2, 1, 2)" stroke-opacity="0.13680586" stroke-linecap="round" stroke-linejoin="round"/>
    <path d="M 560.1322631835938 342.03607177734375 C 615.1287841796875 384.36474609375 503.3410339355469 360.6156311035156 605.9666748046875 379.92333984375" stroke-width="7.0" fill="none" stroke="rgb(0, 0, -1)" stroke-opacity="0.22786987" stroke-linecap="round" stroke-linejoin="round"/>
    <path d="M 275.8876647949219 398.9867248535156 C 204.72552490234375 423.0328674316406 193.7514190673828 389.0906066894531 250.9271240234375 421.3555908203125" stroke-width="7.0" fill="none" stroke="rgb(-1, 0, 1)" stroke-opacity="0.15826589" stroke-linecap="round" stroke-linejoin="round"/>
    <path d="M 323.3094482421875 527.2736206054688 C 123.08015441894531 535.2539672851562 228.00820922851562 621.8786010742188 243.24151611328125 490.91107177734375" stroke-width="7.0" fill="none" stroke="rgb(0, 0, 0)" stroke-opacity="0.13473904" stroke-linecap="round" stroke-linejoin="round"/>
    <path d="M 419.5262145996094 193.590087890625 C 442.5917053222656 150.7690887451172 414.8582763671875 208.35891723632812 443.71575927734375 134.59716796875" stroke-width="7.0" fill="none" stroke="rgb(-2, 1, 2)" stroke-opacity="0.033203773" stroke-linecap="round" stroke-linejoin="round"/>
    <path d="M 441.3489990234375 294.35455322265625 C 499.0256652832031 384.2503967285156 471.1457214355469 477.38677978515625 466.82666015625 325.73712158203125" stroke-width="7.0" fill="none" stroke="rgb(0, 0, 0)" stroke-opacity="0.35153115" stroke-linecap="round" stroke-linejoin="round"/>
    <path d="M 35.61098861694336 611.7091674804688 C 47.11802673339844 607.3230590820312 32.255550384521484 610.9305419921875 23.34701919555664 608.379150390625" stroke-width="7.0" fill="none" stroke="rgb(0, 0, 0)" stroke-opacity="0.87943375" stroke-linecap="round" stroke-linejoin="round"/>
    <path d="M 228.16390991210938 489.1302795410156 C -65.45808410644531 483.0856018066406 -112.72386932373047 523.6669311523438 265.1885070800781 510.3111877441406" stroke-width="7.0" fill="none" stroke="rgb(-3, 3, 3)" stroke-opacity="0.18519448" stroke-linecap="round" stroke-linejoin="round"/>
    <path d="M 421.1005554199219 283.93096923828125 C 381.6705627441406 230.74783325195312 373.25982666015625 246.89468383789062 349.1647644042969 250.15478515625" stroke-width="7.0" fill="none" stroke="rgb(0, -2, 2)" stroke-opacity="0.16999131" stroke-linecap="round" stroke-linejoin="round"/>
    <path d="M 333.3929138183594 241.7891845703125 C 355.76409912109375 230.86940002441406 362.9806823730469 222.8809356689453 408.9004211425781 232.6821746826172" stroke-width="7.0" fill="none" stroke="rgb(-2, 0, 2)" stroke-opacity="0.053818606" stroke-linecap="round" stroke-linejoin="round"/>
    <path d="M 208.6313934326172 4.522659778594971 C 666.9501953125 1.79115891456604 250.71951293945312 5.213072776794434 377.2521057128906 19.52886199951172" stroke-width="7.0" fill="none" stroke="rgb(-4, 4, -4)" stroke-opacity="0.40245265" stroke-linecap="round" stroke-linejoin="round"/>
    <path d="M 214.2406463623047 303.8714294433594 C 106.27396392822266 295.7973937988281 187.22886657714844 293.2515563964844 135.88343811035156 296.9321594238281" stroke-width="7.0" fill="none" stroke="rgb(0, 0, 0)" stroke-opacity="0.011438811" stroke-linecap="round" stroke-linejoin="round"/>
    <path d="M 315.9838562011719 183.53482055664062 C 345.9132995605469 130.0366668701172 330.8976135253906 172.8197021484375 366.3002014160156 129.2825164794922" stroke-width="7.0" fill="none" stroke="rgb(-2, 2, 1)" stroke-opacity="0.23247072" stroke-linecap="round" stroke-linejoin="round"/>
    <path d="M 536.83154296875 283.3421936035156 C 517.4888916015625 262.3761291503906 539.9752807617188 302.0764465332031 481.9199523925781 264.73529052734375" stroke-width="7.0" fill="none" stroke="rgb(1, -1, 1)" stroke-opacity="0.12420375" stroke-linecap="round" stroke-linejoin="round"/>
    <path d="M 323.990234375 299.1231384277344 C 294.6842346191406 363.8790283203125 309.1080322265625 343.5845642089844 303.6575927734375 353.72113037109375" stroke-width="7.0" fill="none" stroke="rgb(-3, -1, 2)" stroke-opacity="0.2500186" stroke-linecap="round" stroke-linejoin="round"/>
    <path d="M 559.6959838867188 249.8686065673828 C 494.8830261230469 220.23670959472656 541.3470458984375 144.80343627929688 540.5018310546875 235.56588745117188" stroke-width="7.0" fill="none" stroke="rgb(0, 0, 1)" stroke-opacity="0.014333725" stroke-linecap="round" stroke-linejoin="round"/>
    <path d="M 513.067626953125 227.6510009765625 C 547.60205078125 334.86285400390625 542.7283935546875 240.8730010986328 550.4398803710938 274.9765319824219" stroke-width="7.0" fill="none" stroke="rgb(-1, 1, 0)" stroke-opacity="0.045274135" stroke-linecap="round" stroke-linejoin="round"/>
    <path d="M 609.21044921875 507.9150695800781 C 605.5072021484375 502.6532287597656 610.2860717773438 492.0650329589844 618.7999267578125 486.71063232421875" stroke-width="7.0" fill="none" stroke="rgb(0, 0, 0)" stroke-opacity="0.728638" stroke-linecap="round" stroke-linejoin="round"/>
    <path d="M 527.6787109375 -1.7389830350875854 C 592.9309692382812 18.727384567260742 713.948974609375 22.185348510742188 443.4471740722656 20.8939266204834" stroke-width="7.0" fill="none" stroke="rgb(-3, 2, -2)" stroke-opacity="0.21155891" stroke-linecap="round" stroke-linejoin="round"/>
    <path d="M 482.4345703125 108.26592254638672 C 394.2539978027344 137.1956329345703 428.90643310546875 149.7363739013672 401.40386962890625 170.6161346435547" stroke-width="7.0" fill="none" stroke="rgb(3, -1, -2)" stroke-opacity="0.04891236" stroke-linecap="round" stroke-linejoin="round"/>
    <path d="M 256.2113952636719 260.3287658691406 C 255.25445556640625 209.02273559570312 309.682373046875 230.64520263671875 278.8892822265625 201.7312774658203" stroke-width="7.0" fill="none" stroke="rgb(0, 1, -3)" stroke-opacity="0.15505396" stroke-linecap="round" stroke-linejoin="round"/>
    <path d="M 468.3557434082031 385.3271789550781 C 484.49957275390625 408.27880859375 472.1788635253906 487.4690856933594 456.519775390625 512.4537963867188" stroke-width="7.0" fill="none" stroke="rgb(1, -2, 3)" stroke-opacity="0.41908377" stroke-linecap="round" stroke-linejoin="round"/>
    <path d="M 398.6856689453125 259.37762451171875 C 385.61651611328125 245.22799682617188 301.420654296875 267.798828125 378.7542419433594 249.29908752441406" stroke-width="7.0" fill="none" stroke="rgb(2, -2, 2)" stroke-opacity="0.356211" stroke-linecap="round" stroke-linejoin="round"/>
    <path d="M 418.0325012207031 14.748543739318848 C 174.1623077392578 -2.063540458679199 -40.62041091918945 38.74082565307617 468.00311279296875 18.301740646362305" stroke-width="7.0" fill="none" stroke="rgb(-3, 4, -4)" stroke-opacity="0.23594663" stroke-linecap="round" stroke-linejoin="round"/>
    <path d="M 237.4213409423828 362.6312561035156 C 217.0143280029297 424.9653625488281 194.35398864746094 426.7227478027344 236.9726104736328 357.9367980957031" stroke-width="7.0" fill="none" stroke="rgb(4, -2, -2)" stroke-opacity="0.29201144" stroke-linecap="round" stroke-linejoin="round"/>
    <path d="M 519.9695434570312 530.0867919921875 C 414.294677734375 533.0316772460938 507.5855407714844 467.868896484375 429.99566650390625 525.8143920898438" stroke-width="7.0" fill="none" stroke="rgb(0, -1, 1)" stroke-opacity="0.15222232" stroke-linecap="round" stroke-linejoin="round"/>
    <path d="M 489.3727722167969 118.1593246459961 C 446.7695617675781 99.10935974121094 472.4446716308594 121.92008209228516 428.8512268066406 110.18534088134766" stroke-width="7.0" fill="none" stroke="rgb(-1, 0, 1)" stroke-opacity="0.193915" stroke-linecap="round" stroke-linejoin="round"/>
    <path d="M 404.7536315917969 238.8634490966797 C 326.41522216796875 191.55184936523438 286.82110595703125 297.07794189453125 347.91400146484375 210.31655883789062" stroke-width="7.0" fill="none" stroke="rgb(0, 0, 1)" stroke-opacity="0.03593571" stroke-linecap="round" stroke-linejoin="round"/>
    <path d="M 470.4922180175781 199.9862823486328 C 435.92901611328125 250.5511016845703 479.6109313964844 304.4206848144531 464.6708984375 230.36111450195312" stroke-width="7.0" fill="none" stroke="rgb(-2, 0, 3)" stroke-opacity="0.03427654" stroke-linecap="round" stroke-linejoin="round"/>
    <path d="M 381.7488098144531 227.70849609375 C 360.89453125 134.92733764648438 314.2452392578125 181.5008087158203 411.1025390625 227.0491485595703" stroke-width="7.0" fill="none" stroke="rgb(0, 0, 1)" stroke-opacity="0.019989943" stroke-linecap="round" stroke-linejoin="round"/>
    <path d="M 162.53817749023438 238.38531494140625 C 146.1304931640625 236.31027221679688 172.77793884277344 251.61282348632812 224.31307983398438 227.70384216308594" stroke-width="7.0" fill="none" stroke="rgb(0, 0, 0)" stroke-opacity="0.012123153" stroke-linecap="round" stroke-linejoin="round"/>
    <path d="M 283.3502197265625 265.4556579589844 C 274.84332275390625 242.1599884033203 334.18994140625 250.43145751953125 315.0873718261719 276.43072509765625" stroke-width="7.0" fill="none" stroke="rgb(1, -1, 0)" stroke-opacity="0.024245666" stroke-linecap="round" stroke-linejoin="round"/>
    <path d="M 288.5289306640625 309.0851135253906 C 333.0494079589844 399.4915466308594 184.6616668701172 387.2083435058594 316.0400390625 291.4119873046875" stroke-width="7.0" fill="none" stroke="rgb(2, -3, -1)" stroke-opacity="0.02746777" stroke-linecap="round" stroke-linejoin="round"/>
    <path d="M 284.41925048828125 195.20201110839844 C 324.9828796386719 254.41720581054688 336.6861877441406 192.7093048095703 312.0162658691406 201.22409057617188" stroke-width="7.0" fill="none" stroke="rgb(0, -1, 1)" stroke-opacity="0.029672556" stroke-linecap="round" stroke-linejoin="round"/>
    <path d="M 258.14154052734375 379.3108825683594 C 296.8003845214844 455.95751953125 269.8658447265625 577.1810302734375 261.9551696777344 408.21807861328125" stroke-width="7.0" fill="none" stroke="rgb(2, -2, 0)" stroke-opacity="0.14850475" stroke-linecap="round" stroke-linejoin="round"/>
    <path d="M 165.4591827392578 261.1487121582031 C 71.05986022949219 271.9879455566406 21.441112518310547 259.1022033691406 136.38998413085938 255.39614868164062" stroke-width="7.0" fill="none" stroke="rgb(0, 0, 0)" stroke-opacity="0.0105325235" stroke-linecap="round" stroke-linejoin="round"/>
    <path d="M 464.4295959472656 323.6324462890625 C 490.4779052734375 246.76632690429688 411.07574462890625 237.13284301757812 510.0845031738281 268.1009826660156" stroke-width="7.0" fill="none" stroke="rgb(-1, 0, 2)" stroke-opacity="0.06749817" stroke-linecap="round" stroke-linejoin="round"/>
    <path d="M 432.3858642578125 255.27000427246094 C 414.28546142578125 244.0874481201172 422.51971435546875 221.13275146484375 424.12371826171875 192.06658935546875" stroke-width="7.0" fill="none" stroke="rgb(0, -1, 2)" stroke-opacity="0.048508704" stroke-linecap="round" stroke-linejoin="round"/>
    <path d="M 374.2691345214844 143.0631561279297 C 240.11387634277344 237.02084350585938 340.72259521484375 134.8056640625 363.3549499511719 142.0047149658203" stroke-width="7.0" fill="none" stroke="rgb(-3, 2, 3)" stroke-opacity="0.19214901" stroke-linecap="round" stroke-linejoin="round"/>
    <path d="M 325.297607421875 296.1491394042969 C 335.8909912109375 261.24884033203125 388.2998352050781 250.3245391845703 355.5577697753906 254.7204132080078" stroke-width="7.0" fill="none" stroke="rgb(-1, 1, 0)" stroke-opacity="0.25721166" stroke-linecap="round" stroke-linejoin="round"/>
    <path d="M 417.7797546386719 149.8624725341797 C 421.3457946777344 148.58851623535156 403.78350830078125 149.80210876464844 420.0950012207031 152.66761779785156" stroke-width="7.0" fill="none" stroke="rgb(0, 0, 0)" stroke-opacity="-0.00022368401" stroke-linecap="round" stroke-linejoin="round"/>
    <path d="M 23.401330947875977 86.4695053100586 C 7.211074352264404 88.06250762939453 23.421846389770508 84.34757232666016 3.11535906791687 83.4754638671875" stroke-width="7.0" fill="none" stroke="rgb(0, 0, 0)" stroke-opacity="0.012866871" stroke-linecap="round" stroke-linejoin="round"/>
    <path d="M 265.5560607910156 519.9254150390625 C 324.2785949707031 383.36761474609375 285.1482238769531 467.3167419433594 353.2688293457031 456.8245544433594" stroke-width="7.0" fill="none" stroke="rgb(-2, 1, 2)" stroke-opacity="0.15527481" stroke-linecap="round" stroke-linejoin="round"/>
    <path d="M 455.96630859375 121.11702728271484 C 337.81243896484375 150.36036682128906 401.4813537597656 165.94065856933594 424.51605224609375 130.91180419921875" stroke-width="7.0" fill="none" stroke="rgb(1, -1, -2)" stroke-opacity="0.029929465" stroke-linecap="round" stroke-linejoin="round"/>
    <path d="M 354.52191162109375 596.3963623046875 C 592.1277465820312 542.8562622070312 367.2366027832031 534.931884765625 491.5921325683594 536.0086059570312" stroke-width="7.0" fill="none" stroke="rgb(-3, 3, 1)" stroke-opacity="0.18886112" stroke-linecap="round" stroke-linejoin="round"/>
    <path d="M 495.18463134765625 373.5506896972656 C 474.2593078613281 461.9972839355469 447.6942138671875 442.04083251953125 604.5985107421875 395.4435119628906" stroke-width="7.0" fill="none" stroke="rgb(-1, -2, 2)" stroke-opacity="0.16958056" stroke-linecap="round" stroke-linejoin="round"/>
    <path d="M 494.37530517578125 186.07321166992188 C 499.0767822265625 197.41754150390625 517.1433715820312 210.7881317138672 496.9388732910156 139.59547424316406" stroke-width="7.0" fill="none" stroke="rgb(-1, 0, 2)" stroke-opacity="0.05145468" stroke-linecap="round" stroke-linejoin="round"/>
    <path d="M 452.28118896484375 154.36610412597656 C 447.03985595703125 173.1656951904297 453.8537902832031 204.71267700195312 444.7489318847656 216.49484252929688" stroke-width="7.0" fill="none" stroke="rgb(-2, 1, 2)" stroke-opacity="0.09203843" stroke-linecap="round" stroke-linejoin="round"/>
    <path d="M 511.12347412109375 276.03411865234375 C 484.71002197265625 339.06085205078125 504.30682373046875 317.969970703125 492.1037902832031 358.6266174316406" stroke-width="7.0" fill="none" stroke="rgb(-1, -1, 2)" stroke-opacity="0.17259403" stroke-linecap="round" stroke-linejoin="round"/>
    <path d="M 490.80279541015625 296.2683410644531 C 520.83203125 268.29962158203125 493.5606689453125 247.5451202392578 497.7942199707031 307.9539489746094" stroke-width="7.0" fill="none" stroke="rgb(2, -2, -1)" stroke-opacity="0.08086472" stroke-linecap="round" stroke-linejoin="round"/>
    <path d="M 424.0146179199219 223.9513397216797 C 464.5140380859375 275.6142883300781 429.263671875 309.60791015625 439.3792724609375 220.7010498046875" stroke-width="7.0" fill="none" stroke="rgb(1, -1, 0)" stroke-opacity="0.024002269" stroke-linecap="round" stroke-linejoin="round"/>
    <path d="M 355.3912048339844 137.4913787841797 C 389.4165954589844 112.90632629394531 349.7053527832031 148.1959228515625 378.1300354003906 139.9727325439453" stroke-width="7.0" fill="none" stroke="rgb(-1, 1, 1)" stroke-opacity="0.24142551" stroke-linecap="round" stroke-linejoin="round"/>
    <path d="M 142.95321655273438 2.460134983062744 C 243.95716857910156 0.49632206559181213 95.6546401977539 31.06792449951172 316.0312805175781 14.730103492736816" stroke-width="7.0" fill="none" stroke="rgb(-2, 3, -4)" stroke-opacity="0.26368344" stroke-linecap="round" stroke-linejoin="round"/>
    <path d="M 286.4141540527344 110.67474365234375 C 239.86134338378906 98.94416046142578 263.67974853515625 109.75807189941406 236.0112762451172 107.5300521850586" stroke-width="7.0" fill="none" stroke="rgb(0, 0, 0)" stroke-opacity="0.009797339" stroke-linecap="round" stroke-linejoin="round"/>
    <path d="M 287.41339111328125 201.5286102294922 C 319.649169921875 171.5756072998047 331.5188293457031 174.03973388671875 284.8941650390625 205.1161346435547" stroke-width="7.0" fill="none" stroke="rgb(-1, 1, 0)" stroke-opacity="0.30587673" stroke-linecap="round" stroke-linejoin="round"/>
    <path d="M 301.89300537109375 423.4391174316406 C 214.10218811035156 328.2861022949219 264.62054443359375 341.3048095703125 225.28466796875 411.1696472167969" stroke-width="7.0" fill="none" stroke="rgb(-1, 0, 0)" stroke-opacity="0.11429459" stroke-linecap="round" stroke-linejoin="round"/>
    <path d="M 217.40786743164062 342.621826171875 C 248.44650268554688 215.38978576660156 247.49710083007812 283.47686767578125 311.1417236328125 187.6312255859375" stroke-width="7.0" fill="none" stroke="rgb(-3, 2, 2)" stroke-opacity="0.20761833" stroke-linecap="round" stroke-linejoin="round"/>
    <path d="M 220.58963012695312 374.03363037109375 C 197.23126220703125 414.0341796875 180.5073699951172 383.6534423828125 244.95506286621094 427.2826843261719" stroke-width="7.0" fill="none" stroke="rgb(0, 0, 1)" stroke-opacity="0.13597985" stroke-linecap="round" stroke-linejoin="round"/>
    <path d="M 276.8790588378906 510.85015869140625 C 564.001220703125 548.8681640625 465.33746337890625 474.1286315917969 436.09075927734375 509.354248046875" stroke-width="7.0" fill="none" stroke="rgb(-1, -3, 3)" stroke-opacity="0.22479658" stroke-linecap="round" stroke-linejoin="round"/>
    <path d="M 293.70831298828125 363.95465087890625 C 325.5142517089844 413.9596862792969 299.8902893066406 388.0718078613281 301.4010009765625 338.7453308105469" stroke-width="7.0" fill="none" stroke="rgb(2, -3, 0)" stroke-opacity="0.17982641" stroke-linecap="round" stroke-linejoin="round"/>
    <path d="M 211.11734008789062 326.03814697265625 C 233.80709838867188 381.9703063964844 228.57273864746094 332.3059387207031 229.95147705078125 367.3922119140625" stroke-width="7.0" fill="none" stroke="rgb(1, 0, -1)" stroke-opacity="0.39986438" stroke-linecap="round" stroke-linejoin="round"/>
    <path d="M 328.880859375 265.81689453125 C 281.6409912109375 368.2899169921875 239.7976531982422 364.0191650390625 312.3303527832031 298.5522155761719" stroke-width="7.0" fill="none" stroke="rgb(1, -1, 0)" stroke-opacity="0.047801983" stroke-linecap="round" stroke-linejoin="round"/>
    <path d="M 532.4986572265625 206.08474731445312 C 540.011474609375 281.7817077636719 474.3004455566406 197.4010772705078 495.51043701171875 228.19863891601562" stroke-width="7.0" fill="none" stroke="rgb(0, 0, 1)" stroke-opacity="0.025409315" stroke-linecap="round" stroke-linejoin="round"/>
    <path d="M 485.2842712402344 399.3233642578125 C 477.2728576660156 366.0047912597656 502.3472900390625 400.0740051269531 489.23272705078125 339.39044189453125" stroke-width="7.0" fill="none" stroke="rgb(2, -2, 0)" stroke-opacity="0.16063799" stroke-linecap="round" stroke-linejoin="round"/>
    <path d="M 332.6846923828125 440.1439208984375 C 270.2103271484375 476.209228515625 318.87060546875 435.8468017578125 303.85662841796875 385.5392150878906" stroke-width="7.0" fill="none" stroke="rgb(-1, 0, 2)" stroke-opacity="0.17508432" stroke-linecap="round" stroke-linejoin="round"/>
    <path d="M 324.0 275.99603271484375 C 352.40802001953125 247.13429260253906 330.0043640136719 248.49383544921875 347.193115234375 243.46661376953125" stroke-width="7.0" fill="none" stroke="rgb(0, 0, 0)" stroke-opacity="0.050124653" stroke-linecap="round" stroke-linejoin="round"/>
    <path d="M -6.311663627624512 523.5661010742188 C 21.375211715698242 500.78662109375 18.48171615600586 539.7281494140625 73.7192153930664 502.1420593261719" stroke-width="7.0" fill="none" stroke="rgb(0, -1, 1)" stroke-opacity="0.14841485" stroke-linecap="round" stroke-linejoin="round"/>
    <path d="M 518.7702026367188 281.63909912109375 C 531.0588989257812 245.79335021972656 516.1063842773438 266.8457946777344 523.1812744140625 238.87403869628906" stroke-width="7.0" fill="none" stroke="rgb(-2, 1, 0)" stroke-opacity="0.096497074" stroke-linecap="round" stroke-linejoin="round"/>
    <path d="M 243.54983520507812 336.55853271484375 C 312.705322265625 144.23533630371094 326.46978759765625 224.00689697265625 312.2897644042969 213.86749267578125" stroke-width="7.0" fill="none" stroke="rgb(-3, 2, 3)" stroke-opacity="0.0831824" stroke-linecap="round" stroke-linejoin="round"/>
    <path d="M 460.9283447265625 281.3094787597656 C 422.5628356933594 272.86358642578125 402.8767395019531 245.14028930664062 419.3667907714844 197.7492218017578" stroke-width="7.0" fill="none" stroke="rgb(-2, 2, 2)" stroke-opacity="0.083741955" stroke-linecap="round" stroke-linejoin="round"/>
    <path d="M 435.8088073730469 290.3802490234375 C 442.9266662597656 319.12548828125 436.5646667480469 287.27191162109375 426.6918029785156 285.2825927734375" stroke-width="7.0" fill="none" stroke="rgb(0, 0, 0)" stroke-opacity="0.26308018" stroke-linecap="round" stroke-linejoin="round"/>
    <path d="M 608.0650634765625 525.44921875 C 605.9169921875 512.3973999023438 605.3385620117188 508.751220703125 606.3045043945312 510.1189880371094" stroke-width="7.0" fill="none" stroke="rgb(0, 0, 0)" stroke-opacity="0.7957122" stroke-linecap="round" stroke-linejoin="round"/>
    <path d="M 272.7425842285156 543.7825317382812 C 282.8227233886719 448.9981994628906 238.7552032470703 681.2699584960938 272.8330993652344 443.7292785644531" stroke-width="7.0" fill="none" stroke="rgb(4, -2, -1)" stroke-opacity="0.1586222" stroke-linecap="round" stroke-linejoin="round"/>
    <path d="M 395.38726806640625 206.1729736328125 C 411.448974609375 202.05987548828125 427.28399658203125 281.53643798828125 388.8094177246094 213.0314483642578" stroke-width="7.0" fill="none" stroke="rgb(-2, 0, 2)" stroke-opacity="0.03726082" stroke-linecap="round" stroke-linejoin="round"/>
    <path d="M 462.0934143066406 174.41012573242188 C 476.01763916015625 141.91864013671875 456.715576171875 171.57351684570312 470.077880859375 135.00991821289062" stroke-width="7.0" fill="none" stroke="rgb(0, 0, 0)" stroke-opacity="0.07500309" stroke-linecap="round" stroke-linejoin="round"/>
    <path d="M 437.7000732421875 566.95654296875 C 388.4195251464844 586.4466552734375 291.9543151855469 535.5626831054688 446.4308166503906 552.753173828125" stroke-width="7.0" fill="none" stroke="rgb(-3, 2, -1)" stroke-opacity="0.18054096" stroke-linecap="round" stroke-linejoin="round"/>
    <path d="M 380.4952087402344 137.684326171875 C 459.03704833984375 74.80326843261719 297.1008605957031 163.46737670898438 414.281005859375 123.57415771484375" stroke-width="7.0" fill="none" stroke="rgb(-1, -1, 2)" stroke-opacity="0.23150493" stroke-linecap="round" stroke-linejoin="round"/>
    <path d="M 346.1763610839844 595.64501953125 C 165.20272827148438 561.6922607421875 412.07666015625 615.8372192382812 190.76622009277344 574.7659301757812" stroke-width="7.0" fill="none" stroke="rgb(-2, -3, 3)" stroke-opacity="0.26608932" stroke-linecap="round" stroke-linejoin="round"/>
    <path d="M 498.34765625 299.2112731933594 C 488.0737609863281 274.4486999511719 487.0503845214844 434.8575744628906 469.3605651855469 316.85723876953125" stroke-width="7.0" fill="none" stroke="rgb(3, -3, -3)" stroke-opacity="0.06344459" stroke-linecap="round" stroke-linejoin="round"/>
    <path d="M 323.6811218261719 296.6763610839844 C 315.55291748046875 310.2005310058594 310.71807861328125 307.2066650390625 344.27789306640625 305.9848327636719" stroke-width="7.0" fill="none" stroke="rgb(0, 0, 0)" stroke-opacity="0.027466683" stroke-linecap="round" stroke-linejoin="round"/>
    <path d="M 594.7101440429688 262.78350830078125 C 609.7181396484375 276.7654724121094 532.5112915039062 280.80487060546875 515.2978515625 286.5879211425781" stroke-width="7.0" fill="none" stroke="rgb(-2, -1, 2)" stroke-opacity="0.3521919" stroke-linecap="round" stroke-linejoin="round"/>
    <path d="M 290.0571594238281 290.6202392578125 C 288.00128173828125 247.37939453125 257.6768493652344 297.6582336425781 296.2982482910156 277.9176025390625" stroke-width="7.0" fill="none" stroke="rgb(0, 0, 0)" stroke-opacity="0.019076673" stroke-linecap="round" stroke-linejoin="round"/>
    <path d="M 205.33663940429688 574.5565185546875 C 409.75701904296875 506.90093994140625 526.6265258789062 561.133056640625 249.24417114257812 577.5823364257812" stroke-width="7.0" fill="none" stroke="rgb(-2, 2, -2)" stroke-opacity="0.19321981" stroke-linecap="round" stroke-linejoin="round"/>
    <path d="M 497.1954650878906 122.11685943603516 C 561.6599731445312 145.6840362548828 597.4862060546875 80.63394165039062 656.54296875 134.23480224609375" stroke-width="7.0" fill="none" stroke="rgb(-1, 0, 1)" stroke-opacity="0.16230035" stroke-linecap="round" stroke-linejoin="round"/>
    <path d="M 455.6207275390625 106.78604888916016 C 359.32708740234375 153.11619567871094 476.1040344238281 82.9876480102539 371.9673156738281 129.0225067138672" stroke-width="7.0" fill="none" stroke="rgb(-1, 0, 1)" stroke-opacity="0.24056602" stroke-linecap="round" stroke-linejoin="round"/>
    <path d="M 505.0892639160156 251.3088836669922 C 476.8812561035156 223.6507110595703 482.2546081542969 222.474609375 473.6390686035156 178.1044921875" stroke-width="7.0" fill="none" stroke="rgb(0, 0, 1)" stroke-opacity="0.033861298" stroke-linecap="round" stroke-linejoin="round"/>
    <path d="M 282.3717041015625 207.4600830078125 C 224.67477416992188 244.53952026367188 237.50009155273438 197.25804138183594 202.93881225585938 290.0118713378906" stroke-width="7.0" fill="none" stroke="rgb(-2, 2, 2)" stroke-opacity="0.16166215" stroke-linecap="round" stroke-linejoin="round"/>
    <path d="M 143.6321258544922 184.27589416503906 C 174.62306213378906 278.8038330078125 121.67850494384766 200.67361450195312 40.61886215209961 237.41551208496094" stroke-width="7.0" fill="none" stroke="rgb(0, 0, 0)" stroke-opacity="0.008622926" stroke-linecap="round" stroke-linejoin="round"/>
    <path d="M 604.9196166992188 145.11167907714844 C 596.08544921875 98.0877456665039 598.4395751953125 114.32315063476562 606.4915161132812 116.2721176147461" stroke-width="7.0" fill="none" stroke="rgb(1, -1, 0)" stroke-opacity="0.18283015" stroke-linecap="round" stroke-linejoin="round"/>
    <path d="M 504.1834411621094 272.8100891113281 C 481.8471984863281 377.956787109375 479.7470703125 220.40945434570312 491.6978454589844 289.4830017089844" stroke-width="7.0" fill="none" stroke="rgb(2, -2, -1)" stroke-opacity="0.048681185" stroke-linecap="round" stroke-linejoin="round"/>
  </g>
</svg>
