<?xml version="1.0" ?>
<svg xmlns="http://www.w3.org/2000/svg" version="1.1" width="224" height="224">
  <defs/>
  <g>
    <path d="M 69.00012969970703 15.000136375427246 C 66.13763427734375 11.144948959350586 65.69010925292969 14.220855712890625 61.794002532958984 14.839554786682129" stroke-width="3.0" fill="none" stroke="rgb(2, 2, 2)" stroke-opacity="0.99000025" stroke-linecap="round" stroke-linejoin="round"/>
    <path d="M 168.00013732910156 112.00039672851562 C 167.04075622558594 115.3439712524414 168.34063720703125 116.86414337158203 166.80136108398438 114.00253295898438" stroke-width="3.0" fill="none" stroke="rgb(2, 2, -2)" stroke-opacity="0.9900004" stroke-linecap="round" stroke-linejoin="round"/>
    <path d="M 81.99971771240234 9.498000144958496e-05 C 80.37200927734375 -2.3882572650909424 80.55985260009766 -7.824795722961426 84.61846923828125 -12.781183242797852" stroke-width="3.0" fill="none" stroke="rgb(2, 2, 2)" stroke-opacity="0.99000025" stroke-linecap="round" stroke-linejoin="round"/>
    <path d="M 89.00012969970703 14.000357627868652 C 89.3509521484375 11.43846607208252 89.94231414794922 13.466704368591309 87.52500915527344 14.328957557678223" stroke-width="3.0" fill="none" stroke="rgb(2, 2, 2)" stroke-opacity="0.99000007" stroke-linecap="round" stroke-linejoin="round"/>
    <path d="M 71.00011444091797 55.000213623046875 C 70.45294952392578 49.85527801513672 66.39140319824219 46.48292541503906 64.84898376464844 42.054351806640625" stroke-width="3.0" fill="none" stroke="rgb(2, 2, 2)" stroke-opacity="0.99000007" stroke-linecap="round" stroke-linejoin="round"/>
    <path d="M 8.983910083770752e-05 193.9998779296875 C -1.503098726272583 194.570556640625 0.6297602653503418 187.5171661376953 -3.4956204891204834 183.0785675048828" stroke-width="3.0" fill="none" stroke="rgb(2, 2, 2)" stroke-opacity="0.99000025" stroke-linecap="round" stroke-linejoin="round"/>
    <path d="M 221.999755859375 152.9999237060547 C 224.4958038330078 146.4824981689453 219.97442626953125 146.17018127441406 221.84603881835938 148.91915893554688" stroke-width="3.0" fill="none" stroke="rgb(2, 2, -2)" stroke-opacity="0.99000007" stroke-linecap="round" stroke-linejoin="round"/>
    <path d="M 185.99969482421875 111.9998779296875 C 186.80880737304688 110.99571228027344 188.3648223876953 115.83484649658203 186.8452606201172 115.63887786865234" stroke-width="3.0" fill="none" stroke="rgb(2, 2, -2)" stroke-opacity="0.9900001" stroke-linecap="round" stroke-linejoin="round"/>
    <path d="M 172.77818298339844 114.24029541015625 C 178.3712158203125 115.85132598876953 182.04776000976562 117.95475769042969 178.45040893554688 114.70870208740234" stroke-width="3.0" fill="none" stroke="rgb(-2, 2, -2)" stroke-opacity="1.0099958" stroke-linecap="round" stroke-linejoin="round"/>
    <path d="M 1.000108003616333 139.00035095214844 C -2.9343409538269043 138.04339599609375 -7.101447582244873 135.13681030273438 -4.108913421630859 130.55154418945312" stroke-width="3.0" fill="none" stroke="rgb(2, 2, 2)" stroke-opacity="0.9900001" stroke-linecap="round" stroke-linejoin="round"/>
    <path d="M 189.00010681152344 113.0001220703125 C 192.5625 117.60091400146484 197.73484802246094 120.66632843017578 196.43748474121094 116.02275848388672" stroke-width="3.0" fill="none" stroke="rgb(2, 2, -2)" stroke-opacity="0.9900001" stroke-linecap="round" stroke-linejoin="round"/>
    <path d="M 61.00013732910156 19.0003662109375 C 58.707794189453125 22.284025192260742 60.93046569824219 23.90262794494629 62.169315338134766 19.001035690307617" stroke-width="3.0" fill="none" stroke="rgb(2, 2, 2)" stroke-opacity="0.99000007" stroke-linecap="round" stroke-linejoin="round"/>
    <path d="M 99.0001449584961 147.00010681152344 C 100.81421661376953 151.32838439941406 106.07809448242188 151.8843231201172 101.78282165527344 153.52383422851562" stroke-width="3.0" fill="none" stroke="rgb(2, 2, -2)" stroke-opacity="0.9900011" stroke-linecap="round" stroke-linejoin="round"/>
    <path d="M 141.99977111816406 18.99993133544922 C 145.38177490234375 24.001943588256836 147.6507110595703 25.782384872436523 145.4976043701172 21.506690979003906" stroke-width="3.0" fill="none" stroke="rgb(2, 2, 2)" stroke-opacity="0.99000007" stroke-linecap="round" stroke-linejoin="round"/>
    <path d="M 164.0001220703125 116.99844360351562 C 168.5654296875 113.29330444335938 164.1584014892578 116.1993408203125 159.52151489257812 120.15373229980469" stroke-width="3.0" fill="none" stroke="rgb(2, 2, -2)" stroke-opacity="0.9900001" stroke-linecap="round" stroke-linejoin="round"/>
    <path d="M 187.99961853027344 170.00010681152344 C 184.37339782714844 169.51356506347656 179.95199584960938 170.40240478515625 181.7740936279297 173.30502319335938" stroke-width="3.0" fill="none" stroke="rgb(2, 2, 2)" stroke-opacity="0.99000007" stroke-linecap="round" stroke-linejoin="round"/>
    <path d="M 66.00007629394531 43.00012969970703 C 65.8456039428711 49.298988342285156 63.98789978027344 52.419891357421875 61.78664016723633 45.18429183959961" stroke-width="3.0" fill="none" stroke="rgb(2, 2, -2)" stroke-opacity="0.9900001" stroke-linecap="round" stroke-linejoin="round"/>
    <path d="M 103.00048065185547 142.00067138671875 C 106.99710083007812 138.2460174560547 106.54759216308594 139.2796630859375 105.9222412109375 138.84413146972656" stroke-width="3.0" fill="none" stroke="rgb(2, -2, -2)" stroke-opacity="1.0099943" stroke-linecap="round" stroke-linejoin="round"/>
    <path d="M 67.00253295898438 15.997791290283203 C 71.07369232177734 12.967496871948242 73.74747467041016 11.655343055725098 68.40782165527344 14.924765586853027" stroke-width="3.0" fill="none" stroke="rgb(2, 2, 2)" stroke-opacity="0.9900001" stroke-linecap="round" stroke-linejoin="round"/>
    <path d="M 132.99948120117188 222.9999542236328 C 135.22544860839844 221.6823272705078 138.27175903320312 226.69932556152344 142.7510223388672 223.2667999267578" stroke-width="3.0" fill="none" stroke="rgb(2, 2, 2)" stroke-opacity="0.99000007" stroke-linecap="round" stroke-linejoin="round"/>
    <path d="M 124.00021362304688 139.9998016357422 C 124.96227264404297 138.39227294921875 121.20126342773438 142.11659240722656 116.39625549316406 138.25148010253906" stroke-width="3.0" fill="none" stroke="rgb(2, 2, 2)" stroke-opacity="0.99000007" stroke-linecap="round" stroke-linejoin="round"/>
    <path d="M 219.99974060058594 215.0001220703125 C 225.2798614501953 210.12791442871094 222.74696350097656 211.546875 220.25289916992188 206.1495361328125" stroke-width="3.0" fill="none" stroke="rgb(2, 2, 2)" stroke-opacity="0.99000007" stroke-linecap="round" stroke-linejoin="round"/>
    <path d="M 110.00028228759766 136.00021362304688 C 109.64588928222656 136.35018920898438 105.56562805175781 140.3221893310547 102.6353988647461 137.2495880126953" stroke-width="3.0" fill="none" stroke="rgb(2, 2, 2)" stroke-opacity="0.99000007" stroke-linecap="round" stroke-linejoin="round"/>
    <path d="M 5.999941349029541 75.00137329101562 C 4.682919979095459 81.62432098388672 6.75250768661499 83.35009002685547 12.34524917602539 85.31416320800781" stroke-width="3.0" fill="none" stroke="rgb(2, 2, 2)" stroke-opacity="0.99" stroke-linecap="round" stroke-linejoin="round"/>
    <path d="M 28.99985122680664 198.00013732910156 C 30.738384246826172 195.25389099121094 30.106433868408203 200.3037567138672 32.232269287109375 196.24435424804688" stroke-width="3.0" fill="none" stroke="rgb(2, 2, 2)" stroke-opacity="0.99000007" stroke-linecap="round" stroke-linejoin="round"/>
    <path d="M 184.99974060058594 130.00010681152344 C 181.0593719482422 132.61154174804688 175.50289916992188 132.96775817871094 181.7158660888672 128.002685546875" stroke-width="3.0" fill="none" stroke="rgb(2, -2, 2)" stroke-opacity="1.0099896" stroke-linecap="round" stroke-linejoin="round"/>
    <path d="M 138.9995880126953 124.0001449584961 C 135.9077606201172 120.1872787475586 139.77685546875 120.35026550292969 136.48696899414062 120.99895477294922" stroke-width="3.0" fill="none" stroke="rgb(2, 2, -2)" stroke-opacity="0.9900001" stroke-linecap="round" stroke-linejoin="round"/>
    <path d="M 38.99974822998047 108.0452651977539 C 36.42938232421875 110.72154998779297 40.47775650024414 105.87255859375 38.51885223388672 106.4883041381836" stroke-width="3.0" fill="none" stroke="rgb(2, 2, 2)" stroke-opacity="0.99000007" stroke-linecap="round" stroke-linejoin="round"/>
    <path d="M 3.9992516040802 85.00017547607422 C 0.4850573241710663 88.76409149169922 5.523991584777832 92.96378326416016 9.422377586364746 95.98966217041016" stroke-width="3.0" fill="none" stroke="rgb(2, 2, 2)" stroke-opacity="0.99" stroke-linecap="round" stroke-linejoin="round"/>
    <path d="M 198.9999237060547 120.99989318847656 C 204.1388397216797 115.46265411376953 201.716064453125 116.04867553710938 204.33004760742188 112.0079574584961" stroke-width="3.0" fill="none" stroke="rgb(2, 2, 2)" stroke-opacity="0.99" stroke-linecap="round" stroke-linejoin="round"/>
    <path d="M 53.00051498413086 99.00039672851562 C 55.53388595581055 102.09143829345703 52.7292594909668 98.02838897705078 48.96547317504883 96.1336669921875" stroke-width="3.0" fill="none" stroke="rgb(2, 2, 2)" stroke-opacity="0.99" stroke-linecap="round" stroke-linejoin="round"/>
    <path d="M 164.99989318847656 168.0000457763672 C 160.2564697265625 166.90377807617188 159.1656494140625 166.31736755371094 155.5335235595703 169.60821533203125" stroke-width="3.0" fill="none" stroke="rgb(2, 2, 2)" stroke-opacity="0.99" stroke-linecap="round" stroke-linejoin="round"/>
    <path d="M 90.99969482421875 9.00016975402832 C 91.12451171875 7.732761859893799 96.34304809570312 10.18632698059082 97.87078857421875 9.51977825164795" stroke-width="3.0" fill="none" stroke="rgb(2, 2, 2)" stroke-opacity="0.99000007" stroke-linecap="round" stroke-linejoin="round"/>
    <path d="M 80.9999008178711 162.00003051757812 C 74.17072296142578 161.1094512939453 72.68128967285156 157.06715393066406 71.65299224853516 160.38987731933594" stroke-width="3.0" fill="none" stroke="rgb(2, 2, -2)" stroke-opacity="0.99000007" stroke-linecap="round" stroke-linejoin="round"/>
    <path d="M 23.00014877319336 9.000110626220703 C 20.320613861083984 11.017777442932129 23.265348434448242 7.129098892211914 23.534351348876953 0.26393258571624756" stroke-width="3.0" fill="none" stroke="rgb(2, 2, 2)" stroke-opacity="0.99" stroke-linecap="round" stroke-linejoin="round"/>
    <path d="M 124.00009155273438 84.00071716308594 C 122.53304290771484 85.94297790527344 123.93702697753906 90.05428314208984 126.9807357788086 91.50928497314453" stroke-width="3.0" fill="none" stroke="rgb(2, 2, -2)" stroke-opacity="0.99000007" stroke-linecap="round" stroke-linejoin="round"/>
    <path d="M 191.99990844726562 15.000110626220703 C 193.9259490966797 12.643017768859863 194.55238342285156 7.213093280792236 194.66806030273438 6.519898414611816" stroke-width="3.0" fill="none" stroke="rgb(2, 2, 2)" stroke-opacity="0.99" stroke-linecap="round" stroke-linejoin="round"/>
    <path d="M 188.99832153320312 127.9660415649414 C 190.12921142578125 125.49761962890625 189.61109924316406 124.93229675292969 191.91221618652344 127.7288589477539" stroke-width="3.0" fill="none" stroke="rgb(2, 2, 2)" stroke-opacity="0.9900001" stroke-linecap="round" stroke-linejoin="round"/>
    <path d="M 37.00035095214844 91.00004577636719 C 33.55174255371094 89.45575714111328 33.83218002319336 91.20121765136719 37.94223403930664 89.78166198730469" stroke-width="3.0" fill="none" stroke="rgb(2, 2, 2)" stroke-opacity="0.99000007" stroke-linecap="round" stroke-linejoin="round"/>
    <path d="M 149.99972534179688 213.99993896484375 C 154.47412109375 213.42433166503906 157.9889678955078 209.61244201660156 157.74264526367188 209.12872314453125" stroke-width="3.0" fill="none" stroke="rgb(2, 2, 2)" stroke-opacity="0.99" stroke-linecap="round" stroke-linejoin="round"/>
    <path d="M 116.0002670288086 130.99903869628906 C 120.33483123779297 129.8147430419922 120.06913757324219 130.97035217285156 120.7983627319336 127.32347869873047" stroke-width="3.0" fill="none" stroke="rgb(2, 2, 2)" stroke-opacity="0.9900001" stroke-linecap="round" stroke-linejoin="round"/>
    <path d="M 57.99943923950195 123.00076293945312 C 59.23085403442383 121.52101135253906 53.10370635986328 121.55293273925781 52.066802978515625 119.12296295166016" stroke-width="3.0" fill="none" stroke="rgb(2, 2, 2)" stroke-opacity="0.9900001" stroke-linecap="round" stroke-linejoin="round"/>
    <path d="M 164.99957275390625 194.00018310546875 C 162.38853454589844 193.22145080566406 163.66888427734375 193.05105590820312 165.2391357421875 195.96176147460938" stroke-width="3.0" fill="none" stroke="rgb(2, 2, 2)" stroke-opacity="0.99000007" stroke-linecap="round" stroke-linejoin="round"/>
    <path d="M 102.99988555908203 69.00140380859375 C 97.70869445800781 68.18805694580078 101.46963500976562 69.2301254272461 103.22631072998047 63.89165496826172" stroke-width="3.0" fill="none" stroke="rgb(2, 2, 2)" stroke-opacity="0.99000007" stroke-linecap="round" stroke-linejoin="round"/>
    <path d="M 62.99992752075195 123.00006866455078 C 57.10043716430664 126.18916320800781 54.28950119018555 125.81134033203125 57.557373046875 128.82435607910156" stroke-width="3.0" fill="none" stroke="rgb(2, 2, 2)" stroke-opacity="0.99000007" stroke-linecap="round" stroke-linejoin="round"/>
    <path d="M 65.00007629394531 121.00006866455078 C 69.362548828125 117.18586730957031 67.0688705444336 113.39910125732422 73.19197082519531 111.47123718261719" stroke-width="3.0" fill="none" stroke="rgb(2, 2, 2)" stroke-opacity="0.99000007" stroke-linecap="round" stroke-linejoin="round"/>
    <path d="M 135.0002899169922 26.999937057495117 C 137.55831909179688 27.238325119018555 141.3494110107422 32.079593658447266 137.8850860595703 36.51329040527344" stroke-width="3.0" fill="none" stroke="rgb(2, 2, 2)" stroke-opacity="0.99" stroke-linecap="round" stroke-linejoin="round"/>
    <path d="M 55.99950408935547 200.00021362304688 C 55.633392333984375 195.1651153564453 58.474483489990234 199.7607421875 55.60480499267578 195.2696990966797" stroke-width="3.0" fill="none" stroke="rgb(2, 2, 2)" stroke-opacity="0.99000007" stroke-linecap="round" stroke-linejoin="round"/>
    <path d="M 103.00008392333984 141.00006103515625 C 107.95056915283203 147.91937255859375 108.06492614746094 142.78521728515625 102.91011047363281 146.37710571289062" stroke-width="3.0" fill="none" stroke="rgb(2, 2, 2)" stroke-opacity="0.9900008" stroke-linecap="round" stroke-linejoin="round"/>
    <path d="M 13.000652313232422 182.99942016601562 C 16.0772705078125 183.56057739257812 11.177457809448242 186.44424438476562 12.623011589050293 186.17526245117188" stroke-width="3.0" fill="none" stroke="rgb(2, 2, 2)" stroke-opacity="0.99000007" stroke-linecap="round" stroke-linejoin="round"/>
    <path d="M 86.00018310546875 219.00010681152344 C 91.67623901367188 216.92959594726562 91.18321228027344 211.55355834960938 90.89048767089844 213.94720458984375" stroke-width="3.0" fill="none" stroke="rgb(2, 2, 2)" stroke-opacity="0.99" stroke-linecap="round" stroke-linejoin="round"/>
    <path d="M 175.99981689453125 114.0005874633789 C 175.6863250732422 111.25455474853516 172.72042846679688 111.97822570800781 167.8463897705078 109.42413330078125" stroke-width="3.0" fill="none" stroke="rgb(2, 2, -2)" stroke-opacity="0.9900002" stroke-linecap="round" stroke-linejoin="round"/>
    <path d="M 60.999916076660156 158.9998321533203 C 63.69255447387695 162.3697052001953 59.3845100402832 166.2208251953125 60.33915328979492 170.4353485107422" stroke-width="3.0" fill="none" stroke="rgb(2, 2, 2)" stroke-opacity="0.99000007" stroke-linecap="round" stroke-linejoin="round"/>
    <path d="M 179.9990997314453 124.00233459472656 C 177.60562133789062 124.44010162353516 173.5414276123047 118.99433135986328 173.1744384765625 115.8681411743164" stroke-width="3.0" fill="none" stroke="rgb(2, 2, -2)" stroke-opacity="0.99000514" stroke-linecap="round" stroke-linejoin="round"/>
    <path d="M 41.000160217285156 219.99986267089844 C 38.64126968383789 223.41664123535156 46.208473205566406 228.70895385742188 51.458133697509766 232.2250518798828" stroke-width="3.0" fill="none" stroke="rgb(2, 2, 2)" stroke-opacity="0.99000007" stroke-linecap="round" stroke-linejoin="round"/>
    <path d="M 109.99981689453125 77.99986267089844 C 112.38003540039062 78.74857330322266 111.68622589111328 77.9734878540039 109.74470520019531 78.63056182861328" stroke-width="3.0" fill="none" stroke="rgb(2, 2, -2)" stroke-opacity="0.99000007" stroke-linecap="round" stroke-linejoin="round"/>
    <path d="M 69.99989318847656 6.999909400939941 C 72.38269805908203 10.917353630065918 76.10283660888672 13.119872093200684 71.20659637451172 10.562098503112793" stroke-width="3.0" fill="none" stroke="rgb(2, 2, 2)" stroke-opacity="0.99000007" stroke-linecap="round" stroke-linejoin="round"/>
    <path d="M 104.99906158447266 61.99987030029297 C 99.60620880126953 60.57575607299805 103.71625518798828 64.64132690429688 98.4212875366211 59.1378288269043" stroke-width="3.0" fill="none" stroke="rgb(2, 2, 2)" stroke-opacity="0.9900001" stroke-linecap="round" stroke-linejoin="round"/>
    <path d="M 71.00023651123047 46.000343322753906 C 71.50086212158203 50.82964324951172 70.07213592529297 50.21192169189453 71.37561798095703 47.496299743652344" stroke-width="3.0" fill="none" stroke="rgb(2, 2, -2)" stroke-opacity="0.9900001" stroke-linecap="round" stroke-linejoin="round"/>
    <path d="M 193.00010681152344 109.99987030029297 C 191.6585235595703 109.16463470458984 190.5631103515625 111.37561798095703 193.5255584716797 114.2110595703125" stroke-width="3.0" fill="none" stroke="rgb(2, 2, -2)" stroke-opacity="0.99000007" stroke-linecap="round" stroke-linejoin="round"/>
    <path d="M 143.99951171875 23.000076293945312 C 138.43533325195312 23.4789981842041 140.81521606445312 25.123844146728516 146.04269409179688 25.236467361450195" stroke-width="3.0" fill="none" stroke="rgb(2, 2, 2)" stroke-opacity="0.99000007" stroke-linecap="round" stroke-linejoin="round"/>
    <path d="M 105.00008392333984 68.00041198730469 C 110.2568359375 63.319881439208984 110.43002319335938 64.64203643798828 105.81065368652344 61.73516845703125" stroke-width="3.0" fill="none" stroke="rgb(2, 2, 2)" stroke-opacity="0.99000007" stroke-linecap="round" stroke-linejoin="round"/>
    <path d="M 147.00013732910156 33.0001335144043 C 145.32965087890625 33.28235626220703 145.4688262939453 31.31655502319336 143.62496948242188 31.574853897094727" stroke-width="3.0" fill="none" stroke="rgb(2, 2, 2)" stroke-opacity="0.99000007" stroke-linecap="round" stroke-linejoin="round"/>
    <path d="M 168.0020294189453 116.99942016601562 C 172.52145385742188 114.84040069580078 170.61380004882812 116.24890899658203 175.7078857421875 120.28804016113281" stroke-width="3.0" fill="none" stroke="rgb(2, 2, -2)" stroke-opacity="0.9900424" stroke-linecap="round" stroke-linejoin="round"/>
    <path d="M 154.99989318847656 81.00315856933594 C 151.82911682128906 80.54147338867188 149.4525909423828 75.85208129882812 144.3170928955078 75.16822814941406" stroke-width="3.0" fill="none" stroke="rgb(2, 2, 2)" stroke-opacity="0.99" stroke-linecap="round" stroke-linejoin="round"/>
    <path d="M 169.13352966308594 114.99212646484375 C 173.63079833984375 117.65972137451172 171.76730346679688 117.62370300292969 173.0813751220703 112.22740936279297" stroke-width="3.0" fill="none" stroke="rgb(2, 2, 2)" stroke-opacity="0.99000096" stroke-linecap="round" stroke-linejoin="round"/>
    <path d="M 99.99897766113281 30.999757766723633 C 94.39378356933594 32.18439483642578 98.66316223144531 33.79558181762695 95.41577911376953 34.91718673706055" stroke-width="3.0" fill="none" stroke="rgb(2, 2, 2)" stroke-opacity="0.99000007" stroke-linecap="round" stroke-linejoin="round"/>
    <path d="M 182.0009307861328 118.00025177001953 C 178.51219177246094 121.06771850585938 185.47509765625 123.5899658203125 180.1045379638672 128.97840881347656" stroke-width="3.0" fill="none" stroke="rgb(2, 2, 2)" stroke-opacity="0.9900002" stroke-linecap="round" stroke-linejoin="round"/>
    <path d="M 209.99984741210938 46.00129699707031 C 214.44271850585938 46.872432708740234 217.20672607421875 51.69680404663086 215.9347686767578 57.0609245300293" stroke-width="3.0" fill="none" stroke="rgb(2, 2, 2)" stroke-opacity="0.99" stroke-linecap="round" stroke-linejoin="round"/>
    <path d="M 216.0002899169922 35.000125885009766 C 216.47511291503906 31.153850555419922 220.6461639404297 30.578332901000977 226.11692810058594 28.352794647216797" stroke-width="3.0" fill="none" stroke="rgb(2, 2, 2)" stroke-opacity="0.99000007" stroke-linecap="round" stroke-linejoin="round"/>
    <path d="M 176.99989318847656 90.9999008178711 C 173.74371337890625 91.21600341796875 172.8015899658203 94.71764373779297 168.8892364501953 95.39523315429688" stroke-width="3.0" fill="none" stroke="rgb(2, 2, -2)" stroke-opacity="0.99000007" stroke-linecap="round" stroke-linejoin="round"/>
    <path d="M 149.9996795654297 175.99948120117188 C 152.063720703125 179.0372772216797 156.00706481933594 180.29867553710938 155.27430725097656 179.5135040283203" stroke-width="3.0" fill="none" stroke="rgb(2, 2, 2)" stroke-opacity="0.99" stroke-linecap="round" stroke-linejoin="round"/>
    <path d="M 223.99847412109375 154.0000762939453 C 223.4494171142578 157.3813018798828 218.82931518554688 157.58087158203125 217.83624267578125 152.69395446777344" stroke-width="3.0" fill="none" stroke="rgb(2, 2, 2)" stroke-opacity="0.99000007" stroke-linecap="round" stroke-linejoin="round"/>
    <path d="M 71.00016784667969 212.0001983642578 C 72.52103424072266 212.46295166015625 69.10887145996094 210.3793487548828 70.93427276611328 211.25875854492188" stroke-width="3.0" fill="none" stroke="rgb(2, 2, 2)" stroke-opacity="0.99000007" stroke-linecap="round" stroke-linejoin="round"/>
    <path d="M 110.0001449584961 112.00019073486328 C 106.84199523925781 119.59722900390625 107.58942413330078 119.82428741455078 103.06080627441406 115.20311737060547" stroke-width="3.0" fill="none" stroke="rgb(2, 2, -2)" stroke-opacity="0.99000007" stroke-linecap="round" stroke-linejoin="round"/>
    <path d="M 92.00017547607422 90.00071716308594 C 93.31646728515625 84.79130554199219 89.43425750732422 89.80440521240234 87.08894348144531 84.5894546508789" stroke-width="3.0" fill="none" stroke="rgb(2, 2, 2)" stroke-opacity="0.99000007" stroke-linecap="round" stroke-linejoin="round"/>
    <path d="M 119.99977111816406 216.00015258789062 C 120.16604614257812 216.1206512451172 123.23407745361328 221.41415405273438 127.10265350341797 216.68601989746094" stroke-width="3.0" fill="none" stroke="rgb(2, 2, 2)" stroke-opacity="0.99000007" stroke-linecap="round" stroke-linejoin="round"/>
    <path d="M 143.00009155273438 101.00008392333984 C 143.59857177734375 106.23812866210938 147.29930114746094 103.49117279052734 143.1798095703125 104.54448699951172" stroke-width="3.0" fill="none" stroke="rgb(2, 2, -2)" stroke-opacity="0.9900002" stroke-linecap="round" stroke-linejoin="round"/>
    <path d="M 177.99974060058594 4.999884128570557 C 173.770263671875 7.598823070526123 178.46755981445312 11.058806419372559 177.2136688232422 12.656909942626953" stroke-width="3.0" fill="none" stroke="rgb(2, 2, 2)" stroke-opacity="0.99" stroke-linecap="round" stroke-linejoin="round"/>
    <path d="M 81.00005340576172 160.99993896484375 C 87.30438232421875 160.87811279296875 88.01445770263672 162.91098022460938 85.3529052734375 160.65628051757812" stroke-width="3.0" fill="none" stroke="rgb(2, 2, -2)" stroke-opacity="0.99000007" stroke-linecap="round" stroke-linejoin="round"/>
    <path d="M 81.99987030029297 56.00012969970703 C 77.76310729980469 50.87491226196289 78.7709732055664 49.55052947998047 79.65270233154297 53.103614807128906" stroke-width="3.0" fill="none" stroke="rgb(2, 2, -2)" stroke-opacity="0.99000007" stroke-linecap="round" stroke-linejoin="round"/>
    <path d="M 96.99984741210938 145.99984741210938 C 101.28189086914062 142.12167358398438 96.52266693115234 145.75157165527344 92.68798065185547 150.98374938964844" stroke-width="3.0" fill="none" stroke="rgb(2, 2, 2)" stroke-opacity="0.99000007" stroke-linecap="round" stroke-linejoin="round"/>
    <path d="M 165.99984741210938 6.99995231628418 C 160.81118774414062 8.362798690795898 158.71571350097656 13.673684120178223 155.48497009277344 10.358909606933594" stroke-width="3.0" fill="none" stroke="rgb(2, 2, 2)" stroke-opacity="0.99" stroke-linecap="round" stroke-linejoin="round"/>
    <path d="M 64.99993133544922 42.99979782104492 C 59.12590026855469 42.76475143432617 58.17893981933594 47.56214141845703 54.16782760620117 52.13010787963867" stroke-width="3.0" fill="none" stroke="rgb(2, 2, 2)" stroke-opacity="0.99000007" stroke-linecap="round" stroke-linejoin="round"/>
    <path d="M 79.99992370605469 115.00007629394531 C 77.2467041015625 114.81537628173828 75.06695556640625 113.37068939208984 69.89086151123047 116.62820434570312" stroke-width="3.0" fill="none" stroke="rgb(2, 2, 2)" stroke-opacity="0.99000007" stroke-linecap="round" stroke-linejoin="round"/>
    <path d="M 127.99977111816406 20.000198364257812 C 126.64910125732422 18.765642166137695 129.4596710205078 18.553457260131836 126.90597534179688 15.623529434204102" stroke-width="3.0" fill="none" stroke="rgb(2, 2, 2)" stroke-opacity="0.99000007" stroke-linecap="round" stroke-linejoin="round"/>
    <path d="M 127.0000991821289 181.0003204345703 C 124.35055541992188 181.4909210205078 127.68358612060547 180.4721221923828 120.67753601074219 175.7895965576172" stroke-width="3.0" fill="none" stroke="rgb(2, 2, 2)" stroke-opacity="0.99000007" stroke-linecap="round" stroke-linejoin="round"/>
    <path d="M 93.99591064453125 150.9973907470703 C 94.1773910522461 152.1405029296875 95.46095275878906 147.98056030273438 97.81934356689453 150.06350708007812" stroke-width="3.0" fill="none" stroke="rgb(2, -2, 2)" stroke-opacity="0.9900006" stroke-linecap="round" stroke-linejoin="round"/>
    <path d="M 44.999786376953125 94.99981689453125 C 40.602081298828125 91.16162109375 40.06101608276367 86.83390808105469 43.19888687133789 92.60581970214844" stroke-width="3.0" fill="none" stroke="rgb(2, 2, 2)" stroke-opacity="0.99000007" stroke-linecap="round" stroke-linejoin="round"/>
    <path d="M 89.99960327148438 127.00123596191406 C 88.25711059570312 124.34149932861328 85.7289047241211 125.396240234375 89.84864044189453 126.6095199584961" stroke-width="3.0" fill="none" stroke="rgb(2, -2, 2)" stroke-opacity="1.0099939" stroke-linecap="round" stroke-linejoin="round"/>
    <path d="M 172.00015258789062 144.99984741210938 C 175.4726104736328 138.84170532226562 170.1856231689453 134.55335998535156 173.55799865722656 137.92938232421875" stroke-width="3.0" fill="none" stroke="rgb(2, 2, -2)" stroke-opacity="0.9900001" stroke-linecap="round" stroke-linejoin="round"/>
    <path d="M 89.99956512451172 151.99972534179688 C 92.95897674560547 155.47731018066406 100.54781341552734 153.90673828125 103.49948120117188 155.4637451171875" stroke-width="3.0" fill="none" stroke="rgb(2, 2, -2)" stroke-opacity="0.99000007" stroke-linecap="round" stroke-linejoin="round"/>
    <path d="M 129.99986267089844 104.99942016601562 C 133.63104248046875 106.50482177734375 130.89712524414062 110.22663879394531 133.34596252441406 105.3695068359375" stroke-width="3.0" fill="none" stroke="rgb(2, 2, -2)" stroke-opacity="0.99000007" stroke-linecap="round" stroke-linejoin="round"/>
    <path d="M 108.99989318847656 186.00047302246094 C 111.75242614746094 185.65664672851562 109.67273712158203 184.43087768554688 110.04548645019531 183.2590789794922" stroke-width="3.0" fill="none" stroke="rgb(2, 2, 2)" stroke-opacity="0.99000007" stroke-linecap="round" stroke-linejoin="round"/>
    <path d="M 96.99197387695312 203.00027465820312 C 92.3316650390625 209.4936981201172 96.28487396240234 206.8275909423828 95.19407653808594 201.9455108642578" stroke-width="3.0" fill="none" stroke="rgb(2, 2, 2)" stroke-opacity="0.99000007" stroke-linecap="round" stroke-linejoin="round"/>
    <path d="M 175.99977111816406 62.000118255615234 C 173.3815155029297 64.22943878173828 173.41725158691406 65.09952545166016 177.45819091796875 59.96354293823242" stroke-width="3.0" fill="none" stroke="rgb(2, 2, 2)" stroke-opacity="0.99000007" stroke-linecap="round" stroke-linejoin="round"/>
    <path d="M 78.99994659423828 193.9998016357422 C 84.10284423828125 188.52932739257812 82.32097625732422 192.2384033203125 82.57196807861328 195.44482421875" stroke-width="3.0" fill="none" stroke="rgb(2, 2, 2)" stroke-opacity="0.99" stroke-linecap="round" stroke-linejoin="round"/>
    <path d="M 102.99882507324219 144.99400329589844 C 98.03472137451172 145.1243896484375 102.69221496582031 150.42428588867188 105.85795593261719 147.9690399169922" stroke-width="3.0" fill="none" stroke="rgb(2, 2, -2)" stroke-opacity="0.9900001" stroke-linecap="round" stroke-linejoin="round"/>
    <path d="M 14.000166893005371 181.00009155273438 C 19.128332138061523 178.15248107910156 19.116106033325195 177.84442138671875 23.094669342041016 174.448974609375" stroke-width="3.0" fill="none" stroke="rgb(2, 2, 2)" stroke-opacity="0.99" stroke-linecap="round" stroke-linejoin="round"/>
    <path d="M 149.0013427734375 107.00039672851562 C 153.80453491210938 101.66154479980469 158.68882751464844 103.2004623413086 156.528564453125 100.39012145996094" stroke-width="3.0" fill="none" stroke="rgb(2, 2, -2)" stroke-opacity="0.99000007" stroke-linecap="round" stroke-linejoin="round"/>
    <path d="M 122.00029754638672 135.00051879882812 C 122.98481750488281 133.28282165527344 122.98695373535156 132.8477783203125 123.01495361328125 138.7330780029297" stroke-width="3.0" fill="none" stroke="rgb(2, 2, 2)" stroke-opacity="0.9900001" stroke-linecap="round" stroke-linejoin="round"/>
    <path d="M 2.0052309036254883 73.00013732910156 C 5.589605331420898 71.13508605957031 8.698323249816895 73.54361724853516 6.246886730194092 73.08320617675781" stroke-width="3.0" fill="none" stroke="rgb(2, 2, 2)" stroke-opacity="0.99000007" stroke-linecap="round" stroke-linejoin="round"/>
    <path d="M 101.99981689453125 149.00054931640625 C 102.7689437866211 151.88401794433594 98.80203247070312 156.79461669921875 103.20214080810547 160.81634521484375" stroke-width="3.0" fill="none" stroke="rgb(2, 2, 2)" stroke-opacity="0.99000007" stroke-linecap="round" stroke-linejoin="round"/>
    <path d="M 86.00033569335938 126.99983978271484 C 91.60992431640625 130.47671508789062 91.4039535522461 128.9488067626953 95.45535278320312 127.4915542602539" stroke-width="3.0" fill="none" stroke="rgb(2, 2, -1)" stroke-opacity="0.99000007" stroke-linecap="round" stroke-linejoin="round"/>
    <path d="M 183.9987335205078 115.99974822998047 C 176.53256225585938 119.58891296386719 176.5235137939453 123.48479461669922 180.07240295410156 121.833251953125" stroke-width="3.0" fill="none" stroke="rgb(2, 2, -2)" stroke-opacity="0.99000025" stroke-linecap="round" stroke-linejoin="round"/>
    <path d="M 19.000568389892578 141.9991912841797 C 16.783430099487305 144.1260986328125 15.00212287902832 146.3224334716797 16.398740768432617 149.28787231445312" stroke-width="3.0" fill="none" stroke="rgb(2, 2, -2)" stroke-opacity="0.99" stroke-linecap="round" stroke-linejoin="round"/>
    <path d="M 54.00564956665039 123.99918365478516 C 51.01780319213867 118.9671859741211 49.928077697753906 118.11284637451172 48.417659759521484 116.56542205810547" stroke-width="3.0" fill="none" stroke="rgb(2, 2, 2)" stroke-opacity="0.99000007" stroke-linecap="round" stroke-linejoin="round"/>
    <path d="M 121.99988555908203 152.9999237060547 C 123.6664047241211 148.76206970214844 121.03141784667969 156.1851043701172 124.12466430664062 150.8682403564453" stroke-width="3.0" fill="none" stroke="rgb(2, -2, -2)" stroke-opacity="0.9900001" stroke-linecap="round" stroke-linejoin="round"/>
    <path d="M 7.687509059906006e-05 170.00054931640625 C -0.671730637550354 166.89950561523438 0.056706950068473816 167.55105590820312 -1.3929979801177979 166.4644012451172" stroke-width="3.0" fill="none" stroke="rgb(2, 2, 2)" stroke-opacity="0.9900001" stroke-linecap="round" stroke-linejoin="round"/>
    <path d="M 92.99592590332031 157.9976043701172 C 94.39276123046875 156.69845581054688 91.00382995605469 156.6680145263672 91.89247131347656 156.6382293701172" stroke-width="3.0" fill="none" stroke="rgb(2, 2, 2)" stroke-opacity="0.9900001" stroke-linecap="round" stroke-linejoin="round"/>
    <path d="M 101.99996948242188 89.00006103515625 C 100.27994537353516 83.41376495361328 105.23226165771484 77.98381042480469 101.43736267089844 74.5164794921875" stroke-width="3.0" fill="none" stroke="rgb(2, 2, 2)" stroke-opacity="0.99" stroke-linecap="round" stroke-linejoin="round"/>
    <path d="M 197.999267578125 217.00018310546875 C 196.54725646972656 214.9679718017578 198.41094970703125 214.64608764648438 198.46990966796875 215.0060272216797" stroke-width="3.0" fill="none" stroke="rgb(2, 2, 2)" stroke-opacity="0.99000007" stroke-linecap="round" stroke-linejoin="round"/>
    <path d="M 186.00013732910156 134.99993896484375 C 180.7866668701172 131.74378967285156 177.49073791503906 129.25955200195312 176.70008850097656 127.5911636352539" stroke-width="3.0" fill="none" stroke="rgb(2, 2, -2)" stroke-opacity="0.9900002" stroke-linecap="round" stroke-linejoin="round"/>
    <path d="M 92.00022888183594 93.9998550415039 C 88.87178802490234 89.20084381103516 93.49881744384766 84.73580169677734 98.17261505126953 84.44767761230469" stroke-width="3.0" fill="none" stroke="rgb(2, 2, -2)" stroke-opacity="0.99000007" stroke-linecap="round" stroke-linejoin="round"/>
    <path d="M 65.99993896484375 13.000154495239258 C 62.40500259399414 11.623880386352539 67.18266296386719 9.639491081237793 65.74798583984375 7.206320762634277" stroke-width="3.0" fill="none" stroke="rgb(2, 2, 2)" stroke-opacity="0.99000007" stroke-linecap="round" stroke-linejoin="round"/>
    <path d="M 125.99946594238281 221.9986114501953 C 123.35884094238281 216.63116455078125 125.85354614257812 220.58717346191406 127.64042663574219 216.2444610595703" stroke-width="3.0" fill="none" stroke="rgb(2, 2, 2)" stroke-opacity="0.99000007" stroke-linecap="round" stroke-linejoin="round"/>
    <path d="M 102.00028228759766 128.99940490722656 C 104.49331665039062 131.4835968017578 98.51207733154297 136.45896911621094 95.97541809082031 133.7993927001953" stroke-width="3.0" fill="none" stroke="rgb(2, 2, -2)" stroke-opacity="0.99000007" stroke-linecap="round" stroke-linejoin="round"/>
    <path d="M 117.99989318847656 71.99968719482422 C 116.15753173828125 69.61312866210938 115.3384780883789 65.4468765258789 109.83961486816406 68.414794921875" stroke-width="3.0" fill="none" stroke="rgb(2, 2, 2)" stroke-opacity="0.99000007" stroke-linecap="round" stroke-linejoin="round"/>
    <path d="M 57.00047302246094 117.99964141845703 C 58.98474884033203 120.89799499511719 62.89554977416992 118.67234802246094 67.67728424072266 115.07038879394531" stroke-width="3.0" fill="none" stroke="rgb(2, 2, 2)" stroke-opacity="0.99000007" stroke-linecap="round" stroke-linejoin="round"/>
    <path d="M 163.0001220703125 103.00007629394531 C 167.68418884277344 100.42227935791016 167.5752410888672 101.9024658203125 170.5823211669922 99.7329330444336" stroke-width="3.0" fill="none" stroke="rgb(2, 2, -2)" stroke-opacity="0.99000007" stroke-linecap="round" stroke-linejoin="round"/>
    <path d="M 165.9998016357422 207.0001983642578 C 165.40855407714844 207.21722412109375 170.7295379638672 205.75048828125 172.81517028808594 208.0059356689453" stroke-width="3.0" fill="none" stroke="rgb(2, 2, 2)" stroke-opacity="0.99000007" stroke-linecap="round" stroke-linejoin="round"/>
    <path d="M 120.99940490722656 117.99979400634766 C 120.2941665649414 114.28038787841797 120.03568267822266 117.7785415649414 121.73851776123047 119.76512908935547" stroke-width="3.0" fill="none" stroke="rgb(2, 2, -2)" stroke-opacity="0.9900001" stroke-linecap="round" stroke-linejoin="round"/>
    <path d="M 141.99778747558594 116.99987030029297 C 137.36572265625 121.33953094482422 134.93719482421875 119.46647644042969 133.08535766601562 123.8094253540039" stroke-width="3.0" fill="none" stroke="rgb(2, 2, -2)" stroke-opacity="0.99000007" stroke-linecap="round" stroke-linejoin="round"/>
    <path d="M 103.00043487548828 155.00021362304688 C 107.3155517578125 158.45362854003906 102.9844741821289 165.40476989746094 103.05335235595703 166.44708251953125" stroke-width="3.0" fill="none" stroke="rgb(2, 2, 2)" stroke-opacity="0.99000007" stroke-linecap="round" stroke-linejoin="round"/>
    <path d="M 171.00035095214844 102.0004653930664 C 172.12326049804688 105.91838836669922 172.74517822265625 109.6297836303711 174.59487915039062 108.95565795898438" stroke-width="3.0" fill="none" stroke="rgb(2, 2, 2)" stroke-opacity="0.99000007" stroke-linecap="round" stroke-linejoin="round"/>
    <path d="M 30.987781524658203 63.000274658203125 C 30.838125228881836 57.674312591552734 27.873756408691406 61.093563079833984 30.7227725982666 62.169647216796875" stroke-width="3.0" fill="none" stroke="rgb(2, 2, 2)" stroke-opacity="0.99000007" stroke-linecap="round" stroke-linejoin="round"/>
    <path d="M 81.99823760986328 152.00006103515625 C 79.70218658447266 153.0502471923828 74.87814331054688 148.7222137451172 78.36123657226562 148.3428497314453" stroke-width="3.0" fill="none" stroke="rgb(2, 2, 2)" stroke-opacity="0.99000007" stroke-linecap="round" stroke-linejoin="round"/>
    <path d="M 40.000152587890625 192.0025177001953 C 39.66063690185547 192.3426513671875 36.432369232177734 187.4625244140625 32.38655471801758 189.29595947265625" stroke-width="3.0" fill="none" stroke="rgb(2, 2, 2)" stroke-opacity="0.99" stroke-linecap="round" stroke-linejoin="round"/>
  </g>
</svg>
