<?xml version="1.0" ?>
<svg xmlns="http://www.w3.org/2000/svg" version="1.1" width="224" height="224">
  <defs/>
  <g>
    <path d="M 70.71827697753906 13.009767532348633 C 75.56754302978516 7.326566696166992 66.78026580810547 17.922874450683594 70.16929626464844 14.235368728637695" stroke-width="3.0" fill="none" stroke="rgb(0, 0, 1)" stroke-opacity="0.12837002" stroke-linecap="round" stroke-linejoin="round"/>
    <path d="M 157.93475341796875 114.87676239013672 C 167.54563903808594 111.03462219238281 175.1761474609375 112.28722381591797 163.40316772460938 128.2650604248047" stroke-width="3.0" fill="none" stroke="rgb(-1, -3, 3)" stroke-opacity="0.4936998" stroke-linecap="round" stroke-linejoin="round"/>
    <path d="M 90.26542663574219 -8.092424392700195 C 85.94392395019531 -8.142912864685059 85.67528533935547 -12.807979583740234 87.9588394165039 -14.910053253173828" stroke-width="3.0" fill="none" stroke="rgb(0, 0, 0)" stroke-opacity="0.92416656" stroke-linecap="round" stroke-linejoin="round"/>
    <path d="M 83.38665771484375 7.213099479675293 C 87.29145812988281 4.967646598815918 82.88742065429688 6.646163463592529 82.90874481201172 6.434297561645508" stroke-width="3.0" fill="none" stroke="rgb(0, 0, 1)" stroke-opacity="0.19279024" stroke-linecap="round" stroke-linejoin="round"/>
    <path d="M 61.349735260009766 48.00300216674805 C 56.77391815185547 60.18874740600586 63.33224868774414 46.784969329833984 55.12641906738281 40.979366302490234" stroke-width="3.0" fill="none" stroke="rgb(1, 0, -2)" stroke-opacity="0.5024976" stroke-linecap="round" stroke-linejoin="round"/>
    <path d="M -7.672527313232422 201.5884552001953 C -7.868130207061768 202.0370330810547 -4.8650665283203125 187.79425048828125 -6.960212707519531 182.57200622558594" stroke-width="3.0" fill="none" stroke="rgb(0, 0, 0)" stroke-opacity="0.9165772" stroke-linecap="round" stroke-linejoin="round"/>
    <path d="M 230.5352783203125 148.5734405517578 C 235.4566650390625 152.33941650390625 227.2679901123047 142.98965454101562 231.7151336669922 140.29478454589844" stroke-width="3.0" fill="none" stroke="rgb(0, 0, 0)" stroke-opacity="0.646664" stroke-linecap="round" stroke-linejoin="round"/>
    <path d="M 182.00758361816406 115.69123840332031 C 205.50326538085938 127.69265747070312 192.37420654296875 124.2767105102539 182.57733154296875 110.46727752685547" stroke-width="3.0" fill="none" stroke="rgb(3, -2, -2)" stroke-opacity="0.6655202" stroke-linecap="round" stroke-linejoin="round"/>
    <path d="M 164.2196502685547 108.2468490600586 C 184.14979553222656 116.7507553100586 196.8166046142578 117.94371032714844 175.25318908691406 110.23680877685547" stroke-width="3.0" fill="none" stroke="rgb(2, 0, -2)" stroke-opacity="0.645929" stroke-linecap="round" stroke-linejoin="round"/>
    <path d="M -9.733251571655273 145.54685974121094 C -8.712262153625488 144.8429412841797 -12.352463722229004 140.8083953857422 -8.365265846252441 135.16201782226562" stroke-width="3.0" fill="none" stroke="rgb(0, 0, 0)" stroke-opacity="0.9046626" stroke-linecap="round" stroke-linejoin="round"/>
    <path d="M 180.9673309326172 99.85494232177734 C 197.2416229248047 113.67034149169922 194.5474090576172 120.8197021484375 175.93162536621094 100.49490356445312" stroke-width="3.0" fill="none" stroke="rgb(1, -1, -1)" stroke-opacity="0.41305175" stroke-linecap="round" stroke-linejoin="round"/>
    <path d="M 68.29068756103516 9.823888778686523 C 68.37834930419922 12.126209259033203 70.0679931640625 10.911947250366211 69.61571502685547 11.151870727539062" stroke-width="3.0" fill="none" stroke="rgb(0, 0, 0)" stroke-opacity="0.3425003" stroke-linecap="round" stroke-linejoin="round"/>
    <path d="M 96.40077209472656 146.3696746826172 C 95.89385223388672 159.08151245117188 108.4117660522461 158.07522583007812 100.59192657470703 154.5553741455078" stroke-width="3.0" fill="none" stroke="rgb(0, 0, 0)" stroke-opacity="0.3324199" stroke-linecap="round" stroke-linejoin="round"/>
    <path d="M 145.87896728515625 23.35051918029785 C 145.53501892089844 22.552783966064453 144.49595642089844 21.5333194732666 145.29283142089844 23.16858673095703" stroke-width="3.0" fill="none" stroke="rgb(0, 0, 0)" stroke-opacity="0.23797332" stroke-linecap="round" stroke-linejoin="round"/>
    <path d="M 157.7898712158203 142.38365173339844 C 161.15306091308594 107.09455871582031 168.3550262451172 109.67223358154297 155.26512145996094 125.18199157714844" stroke-width="3.0" fill="none" stroke="rgb(1, -2, 1)" stroke-opacity="0.29767254" stroke-linecap="round" stroke-linejoin="round"/>
    <path d="M 187.49359130859375 174.31024169921875 C 172.74560546875 177.8242645263672 188.66200256347656 168.44850158691406 171.22161865234375 179.95223999023438" stroke-width="3.0" fill="none" stroke="rgb(0, 1, 0)" stroke-opacity="0.13597108" stroke-linecap="round" stroke-linejoin="round"/>
    <path d="M 56.90635681152344 49.942386627197266 C 54.10123825073242 76.47876739501953 70.52704620361328 50.63117218017578 39.603431701660156 26.870859146118164" stroke-width="3.0" fill="none" stroke="rgb(2, -1, -2)" stroke-opacity="0.4060507" stroke-linecap="round" stroke-linejoin="round"/>
    <path d="M 100.24650573730469 145.19903564453125 C 106.06478118896484 134.87281799316406 117.61705017089844 129.712646484375 106.46192169189453 144.4611358642578" stroke-width="3.0" fill="none" stroke="rgb(1, -1, 1)" stroke-opacity="0.26715067" stroke-linecap="round" stroke-linejoin="round"/>
    <path d="M 73.87774658203125 15.419227600097656 C 74.0670166015625 16.807287216186523 71.52117156982422 15.555611610412598 73.27783203125 16.2912540435791" stroke-width="3.0" fill="none" stroke="rgb(0, 0, 1)" stroke-opacity="0.2373627" stroke-linecap="round" stroke-linejoin="round"/>
    <path d="M 128.02359008789062 231.5579376220703 C 134.64028930664062 229.45523071289062 135.4467010498047 231.24818420410156 145.4562225341797 231.019287109375" stroke-width="3.0" fill="none" stroke="rgb(0, 0, 0)" stroke-opacity="0.8422452" stroke-linecap="round" stroke-linejoin="round"/>
    <path d="M 142.7052001953125 141.41793823242188 C 111.892578125 135.91262817382812 132.74464416503906 148.89834594726562 129.94448852539062 139.52235412597656" stroke-width="3.0" fill="none" stroke="rgb(2, -2, -2)" stroke-opacity="0.4394403" stroke-linecap="round" stroke-linejoin="round"/>
    <path d="M 231.3002471923828 214.08724975585938 C 229.0751953125 214.44683837890625 229.01153564453125 215.30226135253906 233.95191955566406 213.63082885742188" stroke-width="3.0" fill="none" stroke="rgb(0, 0, 0)" stroke-opacity="0.8448519" stroke-linecap="round" stroke-linejoin="round"/>
    <path d="M 100.0307388305664 143.9360809326172 C 120.62431335449219 130.06741333007812 100.79923248291016 134.4108123779297 103.6526870727539 132.05816650390625" stroke-width="3.0" fill="none" stroke="rgb(0, -1, 1)" stroke-opacity="0.41882014" stroke-linecap="round" stroke-linejoin="round"/>
    <path d="M 6.960860729217529 79.26011657714844 C 8.333370208740234 78.3681640625 3.964419364929199 85.09423065185547 6.232761383056641 82.0330581665039" stroke-width="3.0" fill="none" stroke="rgb(1, 0, 0)" stroke-opacity="0.2993629" stroke-linecap="round" stroke-linejoin="round"/>
    <path d="M 27.127925872802734 198.25704956054688 C 20.73645782470703 196.75479125976562 24.718061447143555 194.15927124023438 25.493234634399414 197.5923614501953" stroke-width="3.0" fill="none" stroke="rgb(0, 0, 0)" stroke-opacity="0.2552008" stroke-linecap="round" stroke-linejoin="round"/>
    <path d="M 188.22122192382812 127.88721466064453 C 195.509765625 138.100830078125 152.29054260253906 124.53052520751953 190.44825744628906 130.49560546875" stroke-width="3.0" fill="none" stroke="rgb(3, -4, 0)" stroke-opacity="0.66953206" stroke-linecap="round" stroke-linejoin="round"/>
    <path d="M 148.3196258544922 124.20599365234375 C 136.5282745361328 116.80550384521484 146.60350036621094 125.73970794677734 138.94297790527344 110.4859390258789" stroke-width="3.0" fill="none" stroke="rgb(-2, 0, 2)" stroke-opacity="0.17360368" stroke-linecap="round" stroke-linejoin="round"/>
    <path d="M 35.20961380004883 106.1952133178711 C 49.93564224243164 117.83026123046875 42.506874084472656 97.80987548828125 40.898223876953125 111.81847381591797" stroke-width="3.0" fill="none" stroke="rgb(0, 0, 1)" stroke-opacity="0.08527256" stroke-linecap="round" stroke-linejoin="round"/>
    <path d="M 7.879105091094971 92.83922576904297 C 7.999155521392822 93.63677978515625 7.448094367980957 92.67024230957031 6.7167067527771 92.06150817871094" stroke-width="3.0" fill="none" stroke="rgb(0, 0, 0)" stroke-opacity="0.36937523" stroke-linecap="round" stroke-linejoin="round"/>
    <path d="M 198.6531219482422 124.06963348388672 C 199.7032012939453 126.97908782958984 197.96697998046875 115.71159362792969 193.0876007080078 120.33374786376953" stroke-width="3.0" fill="none" stroke="rgb(1, 0, 0)" stroke-opacity="0.63259816" stroke-linecap="round" stroke-linejoin="round"/>
    <path d="M 54.98896789550781 98.98609924316406 C 54.667259216308594 99.2762222290039 53.730560302734375 98.08536529541016 54.33634567260742 98.87995147705078" stroke-width="3.0" fill="none" stroke="rgb(0, 1, 0)" stroke-opacity="0.26300603" stroke-linecap="round" stroke-linejoin="round"/>
    <path d="M 163.7811279296875 166.81178283691406 C 162.93040466308594 167.95611572265625 161.16522216796875 170.2608184814453 162.04298400878906 169.61878967285156" stroke-width="3.0" fill="none" stroke="rgb(0, 0, 0)" stroke-opacity="0.2711581" stroke-linecap="round" stroke-linejoin="round"/>
    <path d="M 85.71585845947266 9.675976753234863 C 86.28096008300781 9.179879188537598 85.8766098022461 9.498662948608398 85.95301055908203 9.99714469909668" stroke-width="3.0" fill="none" stroke="rgb(0, 0, 0)" stroke-opacity="0.39920592" stroke-linecap="round" stroke-linejoin="round"/>
    <path d="M 93.24458312988281 159.7919464111328 C 67.8114013671875 165.67942810058594 54.75543212890625 157.75303649902344 62.70840835571289 159.4054412841797" stroke-width="3.0" fill="none" stroke="rgb(1, -1, -1)" stroke-opacity="0.66270125" stroke-linecap="round" stroke-linejoin="round"/>
    <path d="M 27.050724029541016 3.4708261489868164 C 30.395904541015625 3.475048780441284 22.323244094848633 5.460393905639648 17.777082443237305 -10.151026725769043" stroke-width="3.0" fill="none" stroke="rgb(0, 0, 1)" stroke-opacity="0.05469078" stroke-linecap="round" stroke-linejoin="round"/>
    <path d="M 119.88703155517578 75.07786560058594 C 124.90019226074219 79.73788452148438 128.42080688476562 85.97443389892578 136.551025390625 95.37100982666016" stroke-width="3.0" fill="none" stroke="rgb(1, -2, -1)" stroke-opacity="0.37140605" stroke-linecap="round" stroke-linejoin="round"/>
    <path d="M 197.1869354248047 10.079901695251465 C 198.0270233154297 10.013984680175781 197.6123809814453 10.261860847473145 197.3031768798828 10.381750106811523" stroke-width="3.0" fill="none" stroke="rgb(0, 0, -1)" stroke-opacity="0.23917384" stroke-linecap="round" stroke-linejoin="round"/>
    <path d="M 180.71060180664062 118.25310516357422 C 202.94232177734375 124.00565338134766 196.75816345214844 126.84089660644531 191.08224487304688 117.02865600585938" stroke-width="3.0" fill="none" stroke="rgb(3, -3, -1)" stroke-opacity="0.7031549" stroke-linecap="round" stroke-linejoin="round"/>
    <path d="M 42.059173583984375 90.98008728027344 C 41.27982711791992 90.51483154296875 42.95994186401367 91.55351257324219 42.334556579589844 90.9019546508789" stroke-width="3.0" fill="none" stroke="rgb(0, 0, 0)" stroke-opacity="0.28478593" stroke-linecap="round" stroke-linejoin="round"/>
    <path d="M 155.07540893554688 215.65438842773438 C 152.1767578125 215.32284545898438 151.58177185058594 214.0296630859375 156.0250701904297 215.8225860595703" stroke-width="3.0" fill="none" stroke="rgb(0, 0, 1)" stroke-opacity="0.28248256" stroke-linecap="round" stroke-linejoin="round"/>
    <path d="M 112.99735260009766 133.7991485595703 C 130.95217895507812 125.34656524658203 109.50311279296875 132.19186401367188 132.89981079101562 125.32441711425781" stroke-width="3.0" fill="none" stroke="rgb(0, 0, 0)" stroke-opacity="0.39144307" stroke-linecap="round" stroke-linejoin="round"/>
    <path d="M 57.645591735839844 124.81993103027344 C 70.25467681884766 129.5670928955078 54.86945724487305 119.01177215576172 39.568817138671875 135.76287841796875" stroke-width="3.0" fill="none" stroke="rgb(0, 0, 1)" stroke-opacity="0.2699961" stroke-linecap="round" stroke-linejoin="round"/>
    <path d="M 174.11294555664062 196.8271026611328 C 164.5769500732422 192.4724884033203 167.45556640625 197.35401916503906 174.8272247314453 191.61105346679688" stroke-width="3.0" fill="none" stroke="rgb(2, 0, 1)" stroke-opacity="0.10022271" stroke-linecap="round" stroke-linejoin="round"/>
    <path d="M 101.36949157714844 64.7672119140625 C 95.56607055664062 59.09457778930664 97.04670715332031 61.02788162231445 106.08843231201172 69.10336303710938" stroke-width="3.0" fill="none" stroke="rgb(1, -1, 1)" stroke-opacity="0.38255665" stroke-linecap="round" stroke-linejoin="round"/>
    <path d="M 73.1242446899414 114.31491088867188 C 57.8243293762207 132.23403930664062 45.42109680175781 132.73280334472656 54.45037841796875 125.4251480102539" stroke-width="3.0" fill="none" stroke="rgb(0, -1, 1)" stroke-opacity="0.2398727" stroke-linecap="round" stroke-linejoin="round"/>
    <path d="M 68.40160369873047 122.228515625 C 72.98564147949219 122.01082611083984 72.84231567382812 119.2610092163086 85.0819320678711 118.30966186523438" stroke-width="3.0" fill="none" stroke="rgb(1, 0, 0)" stroke-opacity="0.43550065" stroke-linecap="round" stroke-linejoin="round"/>
    <path d="M 136.29669189453125 26.439990997314453 C 136.0017547607422 26.8819580078125 136.1646270751953 26.818599700927734 136.09207153320312 26.70912742614746" stroke-width="3.0" fill="none" stroke="rgb(0, 0, 0)" stroke-opacity="0.36125943" stroke-linecap="round" stroke-linejoin="round"/>
    <path d="M 50.74461364746094 196.1729278564453 C 49.64440155029297 195.88412475585938 52.37713623046875 197.25877380371094 51.174564361572266 196.68551635742188" stroke-width="3.0" fill="none" stroke="rgb(1, 0, -1)" stroke-opacity="0.18529448" stroke-linecap="round" stroke-linejoin="round"/>
    <path d="M 105.42330932617188 141.074462890625 C 105.36028289794922 163.74459838867188 89.2078628540039 147.3268585205078 110.91944122314453 135.3709259033203" stroke-width="3.0" fill="none" stroke="rgb(1, -1, 1)" stroke-opacity="0.2986243" stroke-linecap="round" stroke-linejoin="round"/>
    <path d="M 15.275875091552734 181.01129150390625 C 15.639206886291504 181.03836059570312 16.240808486938477 179.68328857421875 14.61130142211914 180.33152770996094" stroke-width="3.0" fill="none" stroke="rgb(0, 0, 0)" stroke-opacity="0.19238156" stroke-linecap="round" stroke-linejoin="round"/>
    <path d="M 90.0476303100586 204.92715454101562 C 91.40215301513672 206.2777862548828 88.03610229492188 203.2567138671875 89.65618896484375 204.90187072753906" stroke-width="3.0" fill="none" stroke="rgb(0, 0, 0)" stroke-opacity="0.37082648" stroke-linecap="round" stroke-linejoin="round"/>
    <path d="M 194.1897430419922 110.74397277832031 C 175.5310821533203 112.76581573486328 172.31387329101562 98.46089172363281 157.67495727539062 110.93998718261719" stroke-width="3.0" fill="none" stroke="rgb(1, 0, -2)" stroke-opacity="0.43194965" stroke-linecap="round" stroke-linejoin="round"/>
    <path d="M 44.47395706176758 141.30609130859375 C 47.01702117919922 158.1821746826172 65.21047973632812 158.9384307861328 78.51388549804688 157.2377471923828" stroke-width="3.0" fill="none" stroke="rgb(3, -2, -3)" stroke-opacity="0.660748" stroke-linecap="round" stroke-linejoin="round"/>
    <path d="M 186.4485626220703 130.79983520507812 C 183.0122528076172 124.32215118408203 179.11573791503906 110.34394073486328 169.5554962158203 107.37257385253906" stroke-width="3.0" fill="none" stroke="rgb(2, -2, -2)" stroke-opacity="0.61938035" stroke-linecap="round" stroke-linejoin="round"/>
    <path d="M 46.56632614135742 232.77581787109375 C 40.74238967895508 229.1988983154297 49.76469421386719 232.03564453125 56.06843185424805 233.20213317871094" stroke-width="3.0" fill="none" stroke="rgb(0, 0, 0)" stroke-opacity="0.84576994" stroke-linecap="round" stroke-linejoin="round"/>
    <path d="M 117.36396789550781 79.02311706542969 C 122.41966247558594 84.48297882080078 117.09252166748047 75.07520294189453 114.93521881103516 78.40135192871094" stroke-width="3.0" fill="none" stroke="rgb(1, 0, -1)" stroke-opacity="0.25041673" stroke-linecap="round" stroke-linejoin="round"/>
    <path d="M 68.46125030517578 12.497889518737793 C 58.66786575317383 8.616019248962402 70.35319519042969 12.69326114654541 69.61865234375 12.59333324432373" stroke-width="3.0" fill="none" stroke="rgb(1, 0, 1)" stroke-opacity="0.3063965" stroke-linecap="round" stroke-linejoin="round"/>
    <path d="M 100.79129791259766 58.94376754760742 C 101.70341491699219 61.587623596191406 108.23180389404297 64.4944076538086 80.84568786621094 54.180564880371094" stroke-width="3.0" fill="none" stroke="rgb(1, -1, 0)" stroke-opacity="0.33136502" stroke-linecap="round" stroke-linejoin="round"/>
    <path d="M 47.61376190185547 32.585018157958984 C 75.33517456054688 53.115360260009766 55.42713165283203 38.28474426269531 53.245182037353516 59.357425689697266" stroke-width="3.0" fill="none" stroke="rgb(1, 0, -2)" stroke-opacity="0.3710704" stroke-linecap="round" stroke-linejoin="round"/>
    <path d="M 188.83624267578125 114.81169891357422 C 190.7931671142578 116.77434539794922 187.91152954101562 107.19680786132812 195.8684539794922 119.71199035644531" stroke-width="3.0" fill="none" stroke="rgb(1, -3, -1)" stroke-opacity="0.70275044" stroke-linecap="round" stroke-linejoin="round"/>
    <path d="M 146.38523864746094 22.667734146118164 C 146.24380493164062 21.9118595123291 147.1534423828125 24.19154167175293 146.26254272460938 22.424182891845703" stroke-width="3.0" fill="none" stroke="rgb(0, 0, 0)" stroke-opacity="0.27769274" stroke-linecap="round" stroke-linejoin="round"/>
    <path d="M 99.8679428100586 61.55775833129883 C 117.68048858642578 71.25611114501953 110.9750747680664 75.53690338134766 94.52751159667969 65.5001449584961" stroke-width="3.0" fill="none" stroke="rgb(1, 0, 0)" stroke-opacity="0.16618338" stroke-linecap="round" stroke-linejoin="round"/>
    <path d="M 144.80271911621094 37.15776062011719 C 148.9606475830078 37.71529006958008 141.2362823486328 33.66596603393555 146.043212890625 36.46527099609375" stroke-width="3.0" fill="none" stroke="rgb(0, 0, 1)" stroke-opacity="0.14149748" stroke-linecap="round" stroke-linejoin="round"/>
    <path d="M 171.96551513671875 122.33634948730469 C 170.1194610595703 101.66970825195312 173.05828857421875 106.53887939453125 182.19430541992188 129.22711181640625" stroke-width="3.0" fill="none" stroke="rgb(3, -2, -2)" stroke-opacity="0.5382298" stroke-linecap="round" stroke-linejoin="round"/>
    <path d="M 171.15765380859375 84.74122619628906 C 155.68121337890625 82.21513366699219 158.02928161621094 81.76801300048828 158.9595947265625 82.9390640258789" stroke-width="3.0" fill="none" stroke="rgb(1, 0, -1)" stroke-opacity="0.5376662" stroke-linecap="round" stroke-linejoin="round"/>
    <path d="M 166.40013122558594 114.69071960449219 C 165.75897216796875 124.20886993408203 167.9849090576172 125.48095703125 162.24472045898438 109.56853485107422" stroke-width="3.0" fill="none" stroke="rgb(0, -1, 1)" stroke-opacity="0.40446243" stroke-linecap="round" stroke-linejoin="round"/>
    <path d="M 100.88160705566406 28.8140926361084 C 100.743896484375 30.21209144592285 100.06082916259766 29.73308753967285 100.8847427368164 29.089725494384766" stroke-width="3.0" fill="none" stroke="rgb(0, 0, 0)" stroke-opacity="0.21237643" stroke-linecap="round" stroke-linejoin="round"/>
    <path d="M 181.39111328125 116.19544219970703 C 179.2023162841797 115.46778106689453 196.5359649658203 128.51673889160156 181.159423828125 125.68012237548828" stroke-width="3.0" fill="none" stroke="rgb(0, 0, 0)" stroke-opacity="0.46292856" stroke-linecap="round" stroke-linejoin="round"/>
    <path d="M 219.0366973876953 45.81456756591797 C 218.388916015625 45.98240280151367 217.75241088867188 46.171512603759766 218.68991088867188 45.575984954833984" stroke-width="3.0" fill="none" stroke="rgb(0, 0, 0)" stroke-opacity="0.3279509" stroke-linecap="round" stroke-linejoin="round"/>
    <path d="M 230.71600341796875 41.1834831237793 C 231.76162719726562 34.90144729614258 231.70913696289062 37.15540313720703 235.5919952392578 36.08839416503906" stroke-width="3.0" fill="none" stroke="rgb(0, 0, 0)" stroke-opacity="0.74432725" stroke-linecap="round" stroke-linejoin="round"/>
    <path d="M 186.290283203125 101.52273559570312 C 174.39892578125 88.35441589355469 140.55520629882812 95.93761444091797 213.25682067871094 65.89368438720703" stroke-width="3.0" fill="none" stroke="rgb(1, -3, 2)" stroke-opacity="0.38471586" stroke-linecap="round" stroke-linejoin="round"/>
    <path d="M 157.34017944335938 185.46165466308594 C 160.1833953857422 178.49826049804688 156.70091247558594 185.15048217773438 166.78500366210938 185.0894012451172" stroke-width="3.0" fill="none" stroke="rgb(0, 0, 0)" stroke-opacity="0.2963938" stroke-linecap="round" stroke-linejoin="round"/>
    <path d="M 230.98780822753906 145.2696075439453 C 223.15126037597656 152.56048583984375 226.7258758544922 150.237060546875 230.0896759033203 152.1686248779297" stroke-width="3.0" fill="none" stroke="rgb(0, 0, 0)" stroke-opacity="0.60301644" stroke-linecap="round" stroke-linejoin="round"/>
    <path d="M 76.76482391357422 211.25758361816406 C 78.4564208984375 208.96240234375 77.6507568359375 208.27540588378906 79.74756622314453 207.99423217773438" stroke-width="3.0" fill="none" stroke="rgb(0, 0, 0)" stroke-opacity="0.0052670604" stroke-linecap="round" stroke-linejoin="round"/>
    <path d="M 110.12920379638672 113.86334228515625 C 111.78500366210938 128.69015502929688 114.7100830078125 102.02123260498047 75.392578125 105.80472564697266" stroke-width="3.0" fill="none" stroke="rgb(1, -1, -1)" stroke-opacity="0.39418262" stroke-linecap="round" stroke-linejoin="round"/>
    <path d="M 82.65655517578125 104.4607925415039 C 97.96331787109375 86.6285400390625 89.46571350097656 81.2210693359375 83.78144073486328 104.36003875732422" stroke-width="3.0" fill="none" stroke="rgb(2, -1, 0)" stroke-opacity="0.17562218" stroke-linecap="round" stroke-linejoin="round"/>
    <path d="M 124.77410888671875 209.65855407714844 C 135.7504425048828 224.0958251953125 128.80502319335938 205.5929718017578 128.23948669433594 223.45481872558594" stroke-width="3.0" fill="none" stroke="rgb(0, 0, 0)" stroke-opacity="0.05884926" stroke-linecap="round" stroke-linejoin="round"/>
    <path d="M 131.78465270996094 88.30543518066406 C 149.61073303222656 109.97303009033203 148.81044006347656 115.1866683959961 149.30519104003906 101.8560562133789" stroke-width="3.0" fill="none" stroke="rgb(2, -2, -2)" stroke-opacity="0.59868664" stroke-linecap="round" stroke-linejoin="round"/>
    <path d="M 177.3720245361328 8.885286331176758 C 178.4738006591797 9.56497573852539 179.3396453857422 8.163717269897461 178.05540466308594 8.459667205810547" stroke-width="3.0" fill="none" stroke="rgb(1, 0, 0)" stroke-opacity="0.1404779" stroke-linecap="round" stroke-linejoin="round"/>
    <path d="M 66.44788360595703 159.42605590820312 C 97.7592544555664 158.29400634765625 102.33460235595703 157.9591827392578 85.56613159179688 160.37158203125" stroke-width="3.0" fill="none" stroke="rgb(2, 0, -2)" stroke-opacity="0.4960479" stroke-linecap="round" stroke-linejoin="round"/>
    <path d="M 93.05326080322266 53.025264739990234 C 89.06597137451172 51.37175369262695 88.78385925292969 49.34401321411133 96.30712127685547 53.66445541381836" stroke-width="3.0" fill="none" stroke="rgb(0, 0, 1)" stroke-opacity="0.30332312" stroke-linecap="round" stroke-linejoin="round"/>
    <path d="M 102.24884033203125 146.48365783691406 C 103.23543548583984 137.11122131347656 100.61177825927734 147.4038848876953 80.82849884033203 152.80641174316406" stroke-width="3.0" fill="none" stroke="rgb(0, 0, 1)" stroke-opacity="0.32665083" stroke-linecap="round" stroke-linejoin="round"/>
    <path d="M 150.8607940673828 9.419536590576172 C 150.5623321533203 10.127209663391113 152.10595703125 10.393070220947266 150.78184509277344 9.362793922424316" stroke-width="3.0" fill="none" stroke="rgb(0, 1, 0)" stroke-opacity="0.3485062" stroke-linecap="round" stroke-linejoin="round"/>
    <path d="M 55.86069869995117 48.32466506958008 C 49.13707733154297 37.121604919433594 66.76675415039062 61.18482971191406 35.53372573852539 64.41873168945312" stroke-width="3.0" fill="none" stroke="rgb(0, 0, 2)" stroke-opacity="0.3617094" stroke-linecap="round" stroke-linejoin="round"/>
    <path d="M 96.84321594238281 121.3809585571289 C 92.95232391357422 123.4139633178711 91.78475189208984 120.5544204711914 62.856346130371094 122.28305053710938" stroke-width="3.0" fill="none" stroke="rgb(2, -2, 0)" stroke-opacity="0.53791213" stroke-linecap="round" stroke-linejoin="round"/>
    <path d="M 128.91607666015625 17.89599609375 C 134.2489471435547 20.317312240600586 131.96743774414062 15.110763549804688 130.12977600097656 20.450870513916016" stroke-width="3.0" fill="none" stroke="rgb(0, 0, 0)" stroke-opacity="0.14832391" stroke-linecap="round" stroke-linejoin="round"/>
    <path d="M 126.21446228027344 173.4392852783203 C 105.54906463623047 152.00108337402344 136.0897674560547 175.31907653808594 114.00537872314453 168.61317443847656" stroke-width="3.0" fill="none" stroke="rgb(2, -2, -2)" stroke-opacity="0.56228125" stroke-linecap="round" stroke-linejoin="round"/>
    <path d="M 79.0645523071289 157.84471130371094 C 94.33421325683594 150.4517822265625 99.39664459228516 152.44345092773438 97.99463653564453 155.65379333496094" stroke-width="3.0" fill="none" stroke="rgb(1, 1, 0)" stroke-opacity="0.4360141" stroke-linecap="round" stroke-linejoin="round"/>
    <path d="M 42.139530181884766 89.03932189941406 C 42.057498931884766 88.49972534179688 44.2313232421875 91.24365997314453 42.18715286254883 89.09790802001953" stroke-width="3.0" fill="none" stroke="rgb(0, 1, 0)" stroke-opacity="0.34367824" stroke-linecap="round" stroke-linejoin="round"/>
    <path d="M 104.45266723632812 138.1337890625 C 82.31597900390625 121.65261840820312 60.294010162353516 120.79157257080078 108.30573272705078 126.32388305664062" stroke-width="3.0" fill="none" stroke="rgb(1, -2, 1)" stroke-opacity="0.46447802" stroke-linecap="round" stroke-linejoin="round"/>
    <path d="M 173.48089599609375 146.24957275390625 C 184.0550079345703 133.8265838623047 140.5287322998047 139.04803466796875 181.59628295898438 145.45895385742188" stroke-width="3.0" fill="none" stroke="rgb(2, -4, -1)" stroke-opacity="0.5425361" stroke-linecap="round" stroke-linejoin="round"/>
    <path d="M 93.92203521728516 158.8274383544922 C 95.97098541259766 160.52481079101562 105.16358947753906 156.00694274902344 119.18462371826172 145.57473754882812" stroke-width="3.0" fill="none" stroke="rgb(2, 0, 0)" stroke-opacity="0.6590967" stroke-linecap="round" stroke-linejoin="round"/>
    <path d="M 123.96834564208984 98.23188018798828 C 125.8011245727539 109.73737335205078 126.24324798583984 103.80441284179688 128.1014862060547 102.14629364013672" stroke-width="3.0" fill="none" stroke="rgb(0, 1, 0)" stroke-opacity="0.25771216" stroke-linecap="round" stroke-linejoin="round"/>
    <path d="M 108.96180725097656 192.03269958496094 C 109.49568176269531 188.8669891357422 113.5484390258789 187.02516174316406 109.81871795654297 190.18577575683594" stroke-width="3.0" fill="none" stroke="rgb(0, 0, 0)" stroke-opacity="0.21137148" stroke-linecap="round" stroke-linejoin="round"/>
    <path d="M 91.74242401123047 203.6032257080078 C 100.19764709472656 199.97569274902344 94.38053131103516 198.00588989257812 93.3522720336914 205.26934814453125" stroke-width="3.0" fill="none" stroke="rgb(1, 0, 0)" stroke-opacity="0.1760979" stroke-linecap="round" stroke-linejoin="round"/>
    <path d="M 171.8998565673828 56.54792022705078 C 171.08409118652344 58.10702133178711 172.07687377929688 57.03312683105469 171.74234008789062 56.14368438720703" stroke-width="3.0" fill="none" stroke="rgb(0, 1, 0)" stroke-opacity="0.20754223" stroke-linecap="round" stroke-linejoin="round"/>
    <path d="M 84.15788269042969 194.85415649414062 C 83.50178527832031 194.97256469726562 83.8534164428711 194.71926879882812 83.13058471679688 194.6033172607422" stroke-width="3.0" fill="none" stroke="rgb(0, 0, 0)" stroke-opacity="0.2994385" stroke-linecap="round" stroke-linejoin="round"/>
    <path d="M 99.00909423828125 146.6935577392578 C 83.48748016357422 158.88140869140625 68.74271392822266 156.1358184814453 101.85576629638672 155.78904724121094" stroke-width="3.0" fill="none" stroke="rgb(2, -1, -1)" stroke-opacity="0.64450186" stroke-linecap="round" stroke-linejoin="round"/>
    <path d="M 18.168771743774414 180.27369689941406 C 13.869268417358398 179.89501953125 16.335407257080078 181.1100311279297 16.22589874267578 180.5334014892578" stroke-width="3.0" fill="none" stroke="rgb(0, 0, 0)" stroke-opacity="0.37234133" stroke-linecap="round" stroke-linejoin="round"/>
    <path d="M 154.21241760253906 114.9886474609375 C 145.46522521972656 110.74869537353516 150.9223175048828 101.53491973876953 166.89328002929688 86.09613800048828" stroke-width="3.0" fill="none" stroke="rgb(0, 0, 1)" stroke-opacity="0.32632005" stroke-linecap="round" stroke-linejoin="round"/>
    <path d="M 129.50543212890625 136.4908905029297 C 119.74913787841797 136.49143981933594 118.1543960571289 142.8475341796875 136.2470245361328 142.438232421875" stroke-width="3.0" fill="none" stroke="rgb(2, -2, -1)" stroke-opacity="0.34246877" stroke-linecap="round" stroke-linejoin="round"/>
    <path d="M 3.0506093502044678 76.58158874511719 C 8.317968368530273 69.30146789550781 5.080885887145996 72.60211181640625 4.765082359313965 77.71791076660156" stroke-width="3.0" fill="none" stroke="rgb(0, 0, 0)" stroke-opacity="0.13157979" stroke-linecap="round" stroke-linejoin="round"/>
    <path d="M 107.73339080810547 140.99200439453125 C 96.08140563964844 151.56716918945312 98.92729949951172 162.6330108642578 117.84561920166016 142.361328125" stroke-width="3.0" fill="none" stroke="rgb(1, -1, -1)" stroke-opacity="0.27378547" stroke-linecap="round" stroke-linejoin="round"/>
    <path d="M 72.74893188476562 123.55047607421875 C 96.72721099853516 128.02919006347656 91.55779266357422 126.26437377929688 104.35444641113281 134.28750610351562" stroke-width="3.0" fill="none" stroke="rgb(2, -3, -1)" stroke-opacity="0.7434066" stroke-linecap="round" stroke-linejoin="round"/>
    <path d="M 176.508544921875 126.91058349609375 C 171.9150390625 102.74524688720703 176.15830993652344 117.79771423339844 188.10130310058594 122.56639099121094" stroke-width="3.0" fill="none" stroke="rgb(2, 0, -1)" stroke-opacity="0.57175285" stroke-linecap="round" stroke-linejoin="round"/>
    <path d="M 13.882706642150879 151.71206665039062 C 13.309453010559082 150.10382080078125 16.293142318725586 152.33050537109375 13.821314811706543 150.49623107910156" stroke-width="3.0" fill="none" stroke="rgb(0, 0, 0)" stroke-opacity="0.22183956" stroke-linecap="round" stroke-linejoin="round"/>
    <path d="M 57.39008712768555 115.10325622558594 C 70.77995300292969 126.88134002685547 49.4549446105957 118.68760681152344 43.99803924560547 148.51824951171875" stroke-width="3.0" fill="none" stroke="rgb(2, -2, 0)" stroke-opacity="0.3403337" stroke-linecap="round" stroke-linejoin="round"/>
    <path d="M 113.88082885742188 165.65512084960938 C 125.99188232421875 148.52224731445312 125.63570404052734 150.36038208007812 124.50733947753906 137.5600128173828" stroke-width="3.0" fill="none" stroke="rgb(0, -1, 1)" stroke-opacity="0.33700672" stroke-linecap="round" stroke-linejoin="round"/>
    <path d="M -6.397647857666016 161.59486389160156 C -5.479020118713379 168.26132202148438 -9.063949584960938 159.55133056640625 -8.164134979248047 157.83229064941406" stroke-width="3.0" fill="none" stroke="rgb(0, 0, 0)" stroke-opacity="0.91046137" stroke-linecap="round" stroke-linejoin="round"/>
    <path d="M 73.81851959228516 158.09005737304688 C 94.56587982177734 157.40122985839844 96.75394439697266 159.11627197265625 76.2831039428711 162.13356018066406" stroke-width="3.0" fill="none" stroke="rgb(2, 0, 0)" stroke-opacity="0.38490176" stroke-linecap="round" stroke-linejoin="round"/>
    <path d="M 103.94329071044922 79.70062255859375 C 102.57058715820312 85.07820129394531 102.84188079833984 82.57925415039062 103.67657470703125 81.25175476074219" stroke-width="3.0" fill="none" stroke="rgb(0, 0, 2)" stroke-opacity="0.43189448" stroke-linecap="round" stroke-linejoin="round"/>
    <path d="M 201.29026794433594 229.26943969726562 C 193.55039978027344 226.8933563232422 198.53775024414062 232.6670379638672 195.5969696044922 231.62681579589844" stroke-width="3.0" fill="none" stroke="rgb(0, 0, 0)" stroke-opacity="0.39934465" stroke-linecap="round" stroke-linejoin="round"/>
    <path d="M 187.75860595703125 133.84759521484375 C 179.72222900390625 145.0508575439453 183.48741149902344 125.80262756347656 171.53094482421875 115.92293548583984" stroke-width="3.0" fill="none" stroke="rgb(1, -2, 1)" stroke-opacity="0.63207704" stroke-linecap="round" stroke-linejoin="round"/>
    <path d="M 73.14662170410156 106.8331527709961 C 90.69981384277344 101.89739227294922 91.76029968261719 93.45682525634766 100.92789459228516 84.24828338623047" stroke-width="3.0" fill="none" stroke="rgb(0, 0, 1)" stroke-opacity="0.15082389" stroke-linecap="round" stroke-linejoin="round"/>
    <path d="M 70.84088897705078 14.76436710357666 C 72.10662078857422 11.923999786376953 71.3177261352539 14.483826637268066 73.7378921508789 10.268855094909668" stroke-width="3.0" fill="none" stroke="rgb(0, 0, 1)" stroke-opacity="0.24437344" stroke-linecap="round" stroke-linejoin="round"/>
    <path d="M 122.702392578125 229.16616821289062 C 125.68307495117188 216.3241729736328 129.69178771972656 231.16627502441406 123.05938720703125 222.94691467285156" stroke-width="3.0" fill="none" stroke="rgb(0, 0, 0)" stroke-opacity="0.27792394" stroke-linecap="round" stroke-linejoin="round"/>
    <path d="M 98.50587463378906 129.2964324951172 C 122.52645111083984 128.12229919433594 107.59439086914062 140.34365844726562 115.4906005859375 130.89459228515625" stroke-width="3.0" fill="none" stroke="rgb(2, 0, -1)" stroke-opacity="0.4502494" stroke-linecap="round" stroke-linejoin="round"/>
    <path d="M 120.6315689086914 75.8866958618164 C 117.11881256103516 71.55259704589844 112.50725555419922 65.6166763305664 98.84209442138672 60.04060745239258" stroke-width="3.0" fill="none" stroke="rgb(1, -2, 0)" stroke-opacity="0.36389905" stroke-linecap="round" stroke-linejoin="round"/>
    <path d="M 50.72034454345703 121.27792358398438 C 69.61832427978516 126.26890563964844 67.07392120361328 125.52733612060547 78.27011108398438 123.10856628417969" stroke-width="3.0" fill="none" stroke="rgb(1, -1, 0)" stroke-opacity="0.43099943" stroke-linecap="round" stroke-linejoin="round"/>
    <path d="M 158.78515625 107.13546752929688 C 167.70835876464844 94.75515747070312 171.56057739257812 99.7240982055664 163.4845428466797 94.99808502197266" stroke-width="3.0" fill="none" stroke="rgb(0, 1, -1)" stroke-opacity="0.28444663" stroke-linecap="round" stroke-linejoin="round"/>
    <path d="M 158.5889892578125 198.54995727539062 C 175.0247344970703 202.50572204589844 153.30078125 200.18128967285156 167.2106170654297 207.43814086914062" stroke-width="3.0" fill="none" stroke="rgb(1, 0, 1)" stroke-opacity="0.10944073" stroke-linecap="round" stroke-linejoin="round"/>
    <path d="M 120.22245025634766 125.49283599853516 C 108.8647232055664 125.01322174072266 113.6211929321289 115.50447845458984 131.59205627441406 118.58243560791016" stroke-width="3.0" fill="none" stroke="rgb(-1, 1, 0)" stroke-opacity="0.4631102" stroke-linecap="round" stroke-linejoin="round"/>
    <path d="M 138.21188354492188 122.43624114990234 C 152.5203399658203 127.90062713623047 150.2967071533203 129.19210815429688 125.24419403076172 122.62926483154297" stroke-width="3.0" fill="none" stroke="rgb(0, 0, 0)" stroke-opacity="0.20452015" stroke-linecap="round" stroke-linejoin="round"/>
    <path d="M 106.53186798095703 154.34783935546875 C 104.46952056884766 151.323486328125 101.38519287109375 159.86476135253906 96.44619750976562 157.99310302734375" stroke-width="3.0" fill="none" stroke="rgb(1, 0, 0)" stroke-opacity="0.6331738" stroke-linecap="round" stroke-linejoin="round"/>
    <path d="M 169.7874298095703 98.67595672607422 C 176.49249267578125 105.65724182128906 181.9023895263672 102.02922058105469 167.24801635742188 95.07967376708984" stroke-width="3.0" fill="none" stroke="rgb(0, 0, 1)" stroke-opacity="0.32562816" stroke-linecap="round" stroke-linejoin="round"/>
    <path d="M 28.907878875732422 62.47767639160156 C 28.245121002197266 63.054256439208984 25.99378776550293 60.92582321166992 25.734798431396484 63.60525894165039" stroke-width="3.0" fill="none" stroke="rgb(1, 0, 0)" stroke-opacity="0.24900992" stroke-linecap="round" stroke-linejoin="round"/>
    <path d="M 78.11669921875 155.7502899169922 C 81.97103118896484 157.53155517578125 85.72504425048828 153.9931640625 71.06262969970703 154.483642578125" stroke-width="3.0" fill="none" stroke="rgb(1, 0, 1)" stroke-opacity="0.36889324" stroke-linecap="round" stroke-linejoin="round"/>
    <path d="M 41.85878372192383 196.87892150878906 C 43.84445571899414 197.177978515625 37.785736083984375 195.2696533203125 39.59765625 194.82240295410156" stroke-width="3.0" fill="none" stroke="rgb(0, 1, 0)" stroke-opacity="0.22602808" stroke-linecap="round" stroke-linejoin="round"/>
  </g>
</svg>
