<?xml version="1.0" ?>
<svg xmlns="http://www.w3.org/2000/svg" version="1.1" width="224" height="224">
  <defs/>
  <g>
    <path d="M 67.9693603515625 18.70863914489746 C 94.12728118896484 -14.561178207397461 -18.004602432250977 21.666362762451172 71.5976333618164 4.0362420082092285" stroke-width="3.0" fill="none" stroke="rgb(-2, 0, 2)" stroke-opacity="0.022944098" stroke-linecap="round" stroke-linejoin="round"/>
    <path d="M 161.93319702148438 112.31559753417969 C 188.02157592773438 108.52152252197266 163.06971740722656 112.92646789550781 161.98373413085938 128.1023712158203" stroke-width="3.0" fill="none" stroke="rgb(1, -1, 0)" stroke-opacity="0.46908045" stroke-linecap="round" stroke-linejoin="round"/>
    <path d="M 90.26583862304688 -8.092842102050781 C 85.94418334960938 -8.143200874328613 85.6755142211914 -12.808195114135742 87.95890045166016 -14.910089492797852" stroke-width="3.0" fill="none" stroke="rgb(0, 0, 0)" stroke-opacity="0.92416346" stroke-linecap="round" stroke-linejoin="round"/>
    <path d="M 84.90538787841797 19.362651824951172 C 146.6486358642578 -2.1884047985076904 103.4931411743164 38.621131896972656 106.1055908203125 -3.454282283782959" stroke-width="3.0" fill="none" stroke="rgb(-2, 0, 1)" stroke-opacity="0.015989427" stroke-linecap="round" stroke-linejoin="round"/>
    <path d="M 61.334285736083984 46.720550537109375 C 71.87068939208984 39.24631118774414 63.27268600463867 82.2385025024414 50.00469970703125 37.36670684814453" stroke-width="3.0" fill="none" stroke="rgb(0, 0, 1)" stroke-opacity="0.11900561" stroke-linecap="round" stroke-linejoin="round"/>
    <path d="M -7.672928810119629 201.5888214111328 C -7.868480682373047 202.037353515625 -4.86538553237915 187.79425048828125 -6.960475921630859 182.57200622558594" stroke-width="3.0" fill="none" stroke="rgb(0, 0, 0)" stroke-opacity="0.9165735" stroke-linecap="round" stroke-linejoin="round"/>
    <path d="M 230.55270385742188 148.566650390625 C 235.45892333984375 152.3431396484375 227.2686309814453 142.9906768798828 231.7156524658203 140.29437255859375" stroke-width="3.0" fill="none" stroke="rgb(0, 0, 0)" stroke-opacity="0.64656174" stroke-linecap="round" stroke-linejoin="round"/>
    <path d="M 191.36651611328125 115.31442260742188 C 222.38490295410156 122.525146484375 221.61984252929688 113.26864624023438 179.96420288085938 111.83162689208984" stroke-width="3.0" fill="none" stroke="rgb(0, 0, 0)" stroke-opacity="-0.044296086" stroke-linecap="round" stroke-linejoin="round"/>
    <path d="M 160.47996520996094 108.04998779296875 C 206.2960205078125 119.17662048339844 202.9590301513672 115.09453582763672 162.92300415039062 103.5821762084961" stroke-width="3.0" fill="none" stroke="rgb(1, -1, -1)" stroke-opacity="0.49460992" stroke-linecap="round" stroke-linejoin="round"/>
    <path d="M -9.733843803405762 145.54718017578125 C -8.712554931640625 144.84323120117188 -12.3527250289917 140.80862426757812 -8.365409851074219 135.16213989257812" stroke-width="3.0" fill="none" stroke="rgb(0, 0, 0)" stroke-opacity="0.9046583" stroke-linecap="round" stroke-linejoin="round"/>
    <path d="M 191.84158325195312 118.59033966064453 C 179.8216552734375 114.75099182128906 194.5416259765625 110.55354309082031 171.95079040527344 91.0914535522461" stroke-width="3.0" fill="none" stroke="rgb(1, -1, -1)" stroke-opacity="0.37018445" stroke-linecap="round" stroke-linejoin="round"/>
    <path d="M 89.27518463134766 6.7343268394470215 C 43.98021697998047 25.707714080810547 45.15004348754883 -30.551292419433594 94.96695709228516 11.556180000305176" stroke-width="3.0" fill="none" stroke="rgb(0, 0, 1)" stroke-opacity="0.021084458" stroke-linecap="round" stroke-linejoin="round"/>
    <path d="M 113.04161071777344 131.41647338867188 C 90.97965240478516 174.57986450195312 142.93939208984375 127.46724700927734 88.0440673828125 155.28057861328125" stroke-width="3.0" fill="none" stroke="rgb(2, -2, -1)" stroke-opacity="0.2997927" stroke-linecap="round" stroke-linejoin="round"/>
    <path d="M 150.43304443359375 -4.295821189880371 C 164.0587615966797 38.28350830078125 88.19983673095703 -7.560370922088623 160.19967651367188 37.918609619140625" stroke-width="3.0" fill="none" stroke="rgb(1, 0, 0)" stroke-opacity="0.027537664" stroke-linecap="round" stroke-linejoin="round"/>
    <path d="M 151.36703491210938 145.05841064453125 C 171.7620391845703 98.8552017211914 129.19712829589844 128.48468017578125 169.29013061523438 102.63599395751953" stroke-width="3.0" fill="none" stroke="rgb(0, 3, 0)" stroke-opacity="0.31260252" stroke-linecap="round" stroke-linejoin="round"/>
    <path d="M 221.3345947265625 152.06101989746094 C 208.64341735839844 166.72035217285156 205.29705810546875 136.5460968017578 183.4381561279297 176.7457275390625" stroke-width="3.0" fill="none" stroke="rgb(-2, 1, 1)" stroke-opacity="0.0507529" stroke-linecap="round" stroke-linejoin="round"/>
    <path d="M 71.06954193115234 66.57223510742188 C 2.499511241912842 55.49590301513672 99.92339324951172 67.15131378173828 38.683223724365234 28.67575454711914" stroke-width="3.0" fill="none" stroke="rgb(3, -1, -3)" stroke-opacity="0.265398" stroke-linecap="round" stroke-linejoin="round"/>
    <path d="M 90.98016357421875 154.5609893798828 C 118.10945129394531 133.83139038085938 111.59484100341797 105.20365905761719 122.0466079711914 166.81715393066406" stroke-width="3.0" fill="none" stroke="rgb(1, 0, -1)" stroke-opacity="0.069612585" stroke-linecap="round" stroke-linejoin="round"/>
    <path d="M 69.8248519897461 9.20504093170166 C -12.36694622039795 16.827377319335938 152.21470642089844 17.00765037536621 40.70076370239258 10.808019638061523" stroke-width="3.0" fill="none" stroke="rgb(0, 0, 3)" stroke-opacity="0.029013874" stroke-linecap="round" stroke-linejoin="round"/>
    <path d="M 128.02333068847656 231.558349609375 C 134.64028930664062 229.4556884765625 135.4465789794922 231.24859619140625 145.4563751220703 231.02011108398438" stroke-width="3.0" fill="none" stroke="rgb(0, 0, 0)" stroke-opacity="0.8422353" stroke-linecap="round" stroke-linejoin="round"/>
    <path d="M 161.82806396484375 145.6093292236328 C 134.32574462890625 123.46270751953125 108.91759490966797 158.2993927001953 153.674072265625 132.78021240234375" stroke-width="3.0" fill="none" stroke="rgb(2, -1, -2)" stroke-opacity="0.52143365" stroke-linecap="round" stroke-linejoin="round"/>
    <path d="M 231.30087280273438 214.08724975585938 C 229.07565307617188 214.44700622558594 229.01223754882812 215.30255126953125 233.952880859375 213.63134765625" stroke-width="3.0" fill="none" stroke="rgb(0, 0, 0)" stroke-opacity="0.8448428" stroke-linecap="round" stroke-linejoin="round"/>
    <path d="M 91.34603881835938 151.03973388671875 C 122.5042495727539 120.35980987548828 108.951416015625 139.27366638183594 85.3075942993164 122.50630187988281" stroke-width="3.0" fill="none" stroke="rgb(4, -4, 1)" stroke-opacity="0.5052577" stroke-linecap="round" stroke-linejoin="round"/>
    <path d="M 3.326263189315796 89.2812728881836 C 32.3038444519043 89.56867218017578 1.774938941001892 170.65267944335938 16.751296997070312 95.43037414550781" stroke-width="3.0" fill="none" stroke="rgb(-1, 0, 1)" stroke-opacity="0.033939667" stroke-linecap="round" stroke-linejoin="round"/>
    <path d="M -5.416049003601074 189.05853271484375 C 49.450138092041016 200.59495544433594 4.588580131530762 202.2651824951172 31.939634323120117 217.55027770996094" stroke-width="3.0" fill="none" stroke="rgb(-2, 1, 2)" stroke-opacity="0.03412548" stroke-linecap="round" stroke-linejoin="round"/>
    <path d="M 182.74960327148438 132.91375732421875 C 181.93275451660156 143.30966186523438 160.2149200439453 86.80924987792969 184.2774200439453 129.9446258544922" stroke-width="3.0" fill="none" stroke="rgb(2, -2, 0)" stroke-opacity="0.48643073" stroke-linecap="round" stroke-linejoin="round"/>
    <path d="M 162.2748260498047 126.36426544189453 C 128.4195556640625 106.49068450927734 167.51156616210938 158.2152099609375 116.96438598632812 73.34170532226562" stroke-width="3.0" fill="none" stroke="rgb(1, -3, 1)" stroke-opacity="0.224644" stroke-linecap="round" stroke-linejoin="round"/>
    <path d="M 31.871009826660156 112.13164520263672 C 69.47972106933594 132.86129760742188 18.02982521057129 86.58969116210938 43.58199691772461 130.75439453125" stroke-width="3.0" fill="none" stroke="rgb(0, 0, 1)" stroke-opacity="0.052803632" stroke-linecap="round" stroke-linejoin="round"/>
    <path d="M 4.919254302978516 102.40383911132812 C 0.20576873421669006 82.28095245361328 57.82524490356445 176.63819885253906 4.26036262512207 101.04793548583984" stroke-width="3.0" fill="none" stroke="rgb(0, 1, 0)" stroke-opacity="0.02627013" stroke-linecap="round" stroke-linejoin="round"/>
    <path d="M 169.8874053955078 93.92353057861328 C 205.55841064453125 132.65496826171875 197.9786376953125 125.39253997802734 195.9740753173828 108.18318176269531" stroke-width="3.0" fill="none" stroke="rgb(4, -3, -2)" stroke-opacity="0.5602438" stroke-linecap="round" stroke-linejoin="round"/>
    <path d="M 62.40171432495117 104.01652526855469 C -8.466439247131348 89.32394409179688 148.7333221435547 100.02587890625 38.260032653808594 98.7249526977539" stroke-width="3.0" fill="none" stroke="rgb(0, 1, 2)" stroke-opacity="0.02899212" stroke-linecap="round" stroke-linejoin="round"/>
    <path d="M 175.73521423339844 189.20172119140625 C 199.12240600585938 207.12533569335938 158.84320068359375 156.58177185058594 149.7527313232422 191.0062713623047" stroke-width="3.0" fill="none" stroke="rgb(-1, 1, 1)" stroke-opacity="0.04363705" stroke-linecap="round" stroke-linejoin="round"/>
    <path d="M 104.76094055175781 6.142440319061279 C 28.733673095703125 25.120223999023438 172.12738037109375 -4.3226470947265625 81.77476501464844 16.463239669799805" stroke-width="3.0" fill="none" stroke="rgb(-3, 0, 5)" stroke-opacity="0.01970866" stroke-linecap="round" stroke-linejoin="round"/>
    <path d="M 103.16031646728516 156.87200927734375 C 54.23533248901367 172.72161865234375 52.655086517333984 151.2930908203125 41.34623718261719 149.0995635986328" stroke-width="3.0" fill="none" stroke="rgb(1, -2, 0)" stroke-opacity="0.51292276" stroke-linecap="round" stroke-linejoin="round"/>
    <path d="M 28.67392921447754 -4.0905303955078125 C 32.0791015625 -7.977910995483398 21.827571868896484 2.944164752960205 16.06456756591797 -5.371989727020264" stroke-width="3.0" fill="none" stroke="rgb(0, 0, 0)" stroke-opacity="0.0" stroke-linecap="round" stroke-linejoin="round"/>
    <path d="M 103.30864715576172 64.03616333007812 C 129.6590118408203 75.3943099975586 120.03922271728516 84.25212860107422 150.55020141601562 124.0700912475586" stroke-width="3.0" fill="none" stroke="rgb(3, -3, 0)" stroke-opacity="0.20024149" stroke-linecap="round" stroke-linejoin="round"/>
    <path d="M 211.81637573242188 10.882301330566406 C 156.81849670410156 44.81623840332031 225.83062744140625 8.112556457519531 182.2455596923828 3.743990898132324" stroke-width="3.0" fill="none" stroke="rgb(0, 0, -1)" stroke-opacity="0.019159636" stroke-linecap="round" stroke-linejoin="round"/>
    <path d="M 201.19284057617188 107.71658325195312 C 229.88644409179688 125.01781463623047 227.83177185058594 191.68817138671875 203.9364776611328 82.7339096069336" stroke-width="3.0" fill="none" stroke="rgb(0, 0, 0)" stroke-opacity="0.009502256" stroke-linecap="round" stroke-linejoin="round"/>
    <path d="M 23.599105834960938 118.01445770263672 C 16.047550201416016 91.35489654541016 -68.73735809326172 131.99978637695312 47.40669250488281 93.03479766845703" stroke-width="3.0" fill="none" stroke="rgb(-1, 1, 0)" stroke-opacity="0.027261242" stroke-linecap="round" stroke-linejoin="round"/>
    <path d="M 195.89759826660156 221.54330444335938 C 118.9742431640625 235.66275024414062 150.80731201171875 186.36517333984375 161.16336059570312 210.3745574951172" stroke-width="3.0" fill="none" stroke="rgb(0, 0, 0)" stroke-opacity="0.035988815" stroke-linecap="round" stroke-linejoin="round"/>
    <path d="M 97.63524627685547 142.94778442382812 C 146.4443359375 107.29679107666016 136.60369873046875 134.0425262451172 140.2901611328125 120.1226577758789" stroke-width="3.0" fill="none" stroke="rgb(0, -2, 3)" stroke-opacity="0.4948063" stroke-linecap="round" stroke-linejoin="round"/>
    <path d="M 43.16021728515625 144.5222930908203 C 73.9259033203125 103.5638427734375 49.54128646850586 144.78439331054688 37.10770034790039 138.4457550048828" stroke-width="3.0" fill="none" stroke="rgb(1, -1, -1)" stroke-opacity="0.25860357" stroke-linecap="round" stroke-linejoin="round"/>
    <path d="M 167.57962036132812 195.77552795410156 C 193.9481658935547 212.28448486328125 139.0045928955078 183.33029174804688 163.56350708007812 208.71920776367188" stroke-width="3.0" fill="none" stroke="rgb(0, 0, 1)" stroke-opacity="0.044939358" stroke-linecap="round" stroke-linejoin="round"/>
    <path d="M 120.77100372314453 85.45321655273438 C -3.373544454574585 4.690581321716309 116.11061096191406 75.16034698486328 85.15853881835938 102.48726654052734" stroke-width="3.0" fill="none" stroke="rgb(-2, 2, 3)" stroke-opacity="0.065914854" stroke-linecap="round" stroke-linejoin="round"/>
    <path d="M 65.99154663085938 115.02059173583984 C 57.332435607910156 126.04916381835938 20.89944076538086 143.234619140625 42.98688888549805 119.7485122680664" stroke-width="3.0" fill="none" stroke="rgb(0, 0, 0)" stroke-opacity="0.045721717" stroke-linecap="round" stroke-linejoin="round"/>
    <path d="M 42.60847854614258 122.13027954101562 C 114.2607650756836 119.3121566772461 40.67375564575195 130.52871704101562 79.07361602783203 116.96076202392578" stroke-width="3.0" fill="none" stroke="rgb(0, -1, 4)" stroke-opacity="0.37462974" stroke-linecap="round" stroke-linejoin="round"/>
    <path d="M 154.04730224609375 37.41982650756836 C 76.51396942138672 -10.911252975463867 157.05731201171875 20.730690002441406 111.80081939697266 28.6790714263916" stroke-width="3.0" fill="none" stroke="rgb(0, 0, 1)" stroke-opacity="0.018821131" stroke-linecap="round" stroke-linejoin="round"/>
    <path d="M 24.461475372314453 190.164306640625 C 121.91007995605469 235.08985900878906 -35.1761474609375 162.8259735107422 32.567115783691406 166.90379333496094" stroke-width="3.0" fill="none" stroke="rgb(-1, 1, 2)" stroke-opacity="0.023675049" stroke-linecap="round" stroke-linejoin="round"/>
    <path d="M 114.30499267578125 138.06698608398438 C 125.22147369384766 154.99366760253906 73.97857666015625 145.53982543945312 126.65229034423828 129.7606964111328" stroke-width="3.0" fill="none" stroke="rgb(2, -2, 1)" stroke-opacity="0.2309641" stroke-linecap="round" stroke-linejoin="round"/>
    <path d="M 32.2310676574707 200.03990173339844 C 14.252155303955078 155.07623291015625 51.657920837402344 193.87269592285156 3.93330454826355 149.52896118164062" stroke-width="3.0" fill="none" stroke="rgb(-3, 0, 2)" stroke-opacity="0.058757253" stroke-linecap="round" stroke-linejoin="round"/>
    <path d="M 101.0867919921875 212.3591766357422 C 90.11489868164062 188.22354125976562 79.30658721923828 217.98924255371094 67.09529876708984 197.31216430664062" stroke-width="3.0" fill="none" stroke="rgb(0, 0, 0)" stroke-opacity="0.01591866" stroke-linecap="round" stroke-linejoin="round"/>
    <path d="M 193.5946807861328 106.25228118896484 C 193.38136291503906 129.24276733398438 170.76292419433594 78.57825469970703 153.3450927734375 106.63652038574219" stroke-width="3.0" fill="none" stroke="rgb(2, -2, 1)" stroke-opacity="0.25890845" stroke-linecap="round" stroke-linejoin="round"/>
    <path d="M 52.30223083496094 128.55770874023438 C 30.949243545532227 147.60552978515625 56.05837631225586 161.3041534423828 74.72001647949219 158.0167999267578" stroke-width="3.0" fill="none" stroke="rgb(2, -2, 0)" stroke-opacity="0.6049662" stroke-linecap="round" stroke-linejoin="round"/>
    <path d="M 177.05117797851562 127.57696533203125 C 195.2901153564453 150.0303955078125 181.879638671875 73.93151092529297 150.24533081054688 112.93258666992188" stroke-width="3.0" fill="none" stroke="rgb(1, 0, -1)" stroke-opacity="0.32415122" stroke-linecap="round" stroke-linejoin="round"/>
    <path d="M 46.566619873046875 232.77659606933594 C 40.74245071411133 229.1997833251953 49.764808654785156 232.03628540039062 56.06864929199219 233.20245361328125" stroke-width="3.0" fill="none" stroke="rgb(0, 0, 0)" stroke-opacity="0.8457608" stroke-linecap="round" stroke-linejoin="round"/>
    <path d="M 110.07111358642578 67.6335220336914 C 111.18741607666016 137.1231231689453 138.630615234375 59.69253158569336 68.82540130615234 58.52607345581055" stroke-width="3.0" fill="none" stroke="rgb(0, 0, 0)" stroke-opacity="0.045126937" stroke-linecap="round" stroke-linejoin="round"/>
    <path d="M 73.2208023071289 28.40475082397461 C -55.43563461303711 -35.38344192504883 56.672489166259766 31.1981258392334 75.18296813964844 -1.209462285041809" stroke-width="3.0" fill="none" stroke="rgb(-1, 0, 1)" stroke-opacity="0.015688077" stroke-linecap="round" stroke-linejoin="round"/>
    <path d="M 48.41229248046875 35.81432342529297 C 129.1301727294922 84.5596694946289 108.12447357177734 59.884578704833984 43.55012512207031 31.586416244506836" stroke-width="3.0" fill="none" stroke="rgb(1, -1, -2)" stroke-opacity="0.29227564" stroke-linecap="round" stroke-linejoin="round"/>
    <path d="M 50.27897262573242 37.84174346923828 C 67.00084686279297 43.96336364746094 72.36740112304688 61.608978271484375 35.100154876708984 64.43611907958984" stroke-width="3.0" fill="none" stroke="rgb(2, 0, -2)" stroke-opacity="0.2871813" stroke-linecap="round" stroke-linejoin="round"/>
    <path d="M 192.0022735595703 112.1653823852539 C 201.81475830078125 124.94220733642578 173.4540557861328 103.46208190917969 197.03782653808594 121.87661743164062" stroke-width="3.0" fill="none" stroke="rgb(2, -3, -1)" stroke-opacity="0.76374084" stroke-linecap="round" stroke-linejoin="round"/>
    <path d="M 135.2972869873047 8.084698677062988 C 166.45562744140625 58.97595977783203 199.55511474609375 27.353925704956055 124.38880157470703 27.115190505981445" stroke-width="3.0" fill="none" stroke="rgb(0, 0, 0)" stroke-opacity="0.017432272" stroke-linecap="round" stroke-linejoin="round"/>
    <path d="M 70.08775329589844 44.65745162963867 C 141.4664306640625 106.538330078125 130.20228576660156 72.48787689208984 53.111717224121094 44.17991256713867" stroke-width="3.0" fill="none" stroke="rgb(1, -1, -1)" stroke-opacity="0.16170755" stroke-linecap="round" stroke-linejoin="round"/>
    <path d="M 121.4765853881836 40.43552017211914 C 210.50344848632812 45.25090026855469 40.487064361572266 86.78292083740234 220.77154541015625 32.97455978393555" stroke-width="3.0" fill="none" stroke="rgb(-1, 0, 1)" stroke-opacity="0.0108982" stroke-linecap="round" stroke-linejoin="round"/>
    <path d="M 186.9796905517578 138.21836853027344 C 191.2899169921875 101.91088104248047 179.17901611328125 107.12918090820312 179.81455993652344 131.35435485839844" stroke-width="3.0" fill="none" stroke="rgb(1, 1, -2)" stroke-opacity="0.42916137" stroke-linecap="round" stroke-linejoin="round"/>
    <path d="M 174.14451599121094 88.82530212402344 C 234.38819885253906 46.840518951416016 183.0929718017578 76.54885864257812 186.74598693847656 101.29673767089844" stroke-width="3.0" fill="none" stroke="rgb(0, 0, 0)" stroke-opacity="0.31884125" stroke-linecap="round" stroke-linejoin="round"/>
    <path d="M 171.56370544433594 116.68986511230469 C 113.70755004882812 148.78842163085938 201.44406127929688 97.77693176269531 158.61582946777344 109.82530212402344" stroke-width="3.0" fill="none" stroke="rgb(0, 0, 0)" stroke-opacity="0.29350218" stroke-linecap="round" stroke-linejoin="round"/>
    <path d="M 112.1783447265625 38.38886642456055 C 107.21041870117188 12.587076187133789 60.68204879760742 38.51142501831055 93.01971435546875 41.42452621459961" stroke-width="3.0" fill="none" stroke="rgb(0, 0, 1)" stroke-opacity="0.010904499" stroke-linecap="round" stroke-linejoin="round"/>
    <path d="M 176.8684844970703 130.88002014160156 C 197.4379425048828 119.6639175415039 193.72747802734375 145.57080078125 177.0867919921875 113.42949676513672" stroke-width="3.0" fill="none" stroke="rgb(1, -1, -2)" stroke-opacity="0.630343" stroke-linecap="round" stroke-linejoin="round"/>
    <path d="M 216.20758056640625 56.447265625 C 268.7810974121094 -46.51891326904297 223.246826171875 67.08396911621094 209.27610778808594 46.285011291503906" stroke-width="3.0" fill="none" stroke="rgb(0, 0, 0)" stroke-opacity="0.015429784" stroke-linecap="round" stroke-linejoin="round"/>
    <path d="M 230.71853637695312 41.18488311767578 C 231.76339721679688 34.900875091552734 231.71011352539062 37.15535354614258 235.59251403808594 36.08866500854492" stroke-width="3.0" fill="none" stroke="rgb(0, 0, 0)" stroke-opacity="0.7443005" stroke-linecap="round" stroke-linejoin="round"/>
    <path d="M 189.7267303466797 113.1466064453125 C 190.29513549804688 72.76443481445312 123.62495422363281 106.15193176269531 212.08843994140625 63.82657241821289" stroke-width="3.0" fill="none" stroke="rgb(2, -2, 0)" stroke-opacity="0.31677547" stroke-linecap="round" stroke-linejoin="round"/>
    <path d="M 137.6815643310547 205.6368408203125 C 94.86914825439453 200.37261962890625 274.3034973144531 137.39724731445312 179.46788024902344 169.3282928466797" stroke-width="3.0" fill="none" stroke="rgb(-3, 1, 3)" stroke-opacity="0.052172173" stroke-linecap="round" stroke-linejoin="round"/>
    <path d="M 231.00497436523438 145.26455688476562 C 223.1431884765625 152.5623779296875 226.72828674316406 150.23716735839844 230.1002197265625 152.16392517089844" stroke-width="3.0" fill="none" stroke="rgb(0, 0, 0)" stroke-opacity="0.602791" stroke-linecap="round" stroke-linejoin="round"/>
    <path d="M 58.71821212768555 221.15728759765625 C 98.96382904052734 228.97140502929688 36.563331604003906 171.83297729492188 79.53888702392578 213.60577392578125" stroke-width="3.0" fill="none" stroke="rgb(1, 0, -1)" stroke-opacity="0.016917937" stroke-linecap="round" stroke-linejoin="round"/>
    <path d="M 109.23053741455078 115.09552764892578 C 123.07928466796875 139.54490661621094 117.13075256347656 101.61224365234375 75.04299926757812 104.84847259521484" stroke-width="3.0" fill="none" stroke="rgb(2, -2, -1)" stroke-opacity="0.44882324" stroke-linecap="round" stroke-linejoin="round"/>
    <path d="M 81.65509033203125 103.04407501220703 C 103.868896484375 79.16753387451172 55.19417190551758 57.54533386230469 80.95496368408203 73.1621322631836" stroke-width="3.0" fill="none" stroke="rgb(1, -2, 3)" stroke-opacity="0.2690942" stroke-linecap="round" stroke-linejoin="round"/>
    <path d="M 137.63748168945312 216.81942749023438 C 177.942138671875 198.98696899414062 133.7503204345703 184.6894073486328 139.58694458007812 238.6509246826172" stroke-width="3.0" fill="none" stroke="rgb(0, 0, 1)" stroke-opacity="0.030753668" stroke-linecap="round" stroke-linejoin="round"/>
    <path d="M 114.27107238769531 72.9261474609375 C 159.1716766357422 127.88336944580078 169.89627075195312 121.15608215332031 116.08382415771484 71.39176177978516" stroke-width="3.0" fill="none" stroke="rgb(2, -2, -2)" stroke-opacity="0.37168792" stroke-linecap="round" stroke-linejoin="round"/>
    <path d="M 154.25965881347656 9.798993110656738 C 228.63755798339844 -1.243180751800537 140.08062744140625 21.249839782714844 168.2005615234375 4.402798652648926" stroke-width="3.0" fill="none" stroke="rgb(0, 0, -1)" stroke-opacity="0.029857691" stroke-linecap="round" stroke-linejoin="round"/>
    <path d="M 49.025699615478516 158.5559844970703 C 113.2472152709961 166.1665496826172 92.07056427001953 141.36184692382812 44.818111419677734 166.46200561523438" stroke-width="3.0" fill="none" stroke="rgb(0, 0, 0)" stroke-opacity="0.04624784" stroke-linecap="round" stroke-linejoin="round"/>
    <path d="M 95.65800476074219 37.47522735595703 C 161.66163635253906 122.24311828613281 96.91683197021484 17.194677352905273 97.64382934570312 53.647926330566406" stroke-width="3.0" fill="none" stroke="rgb(-1, 1, 1)" stroke-opacity="0.01155314" stroke-linecap="round" stroke-linejoin="round"/>
    <path d="M 120.692138671875 151.06834411621094 C 96.47017669677734 127.0777359008789 101.7270736694336 160.93658447265625 54.01156997680664 153.00511169433594" stroke-width="3.0" fill="none" stroke="rgb(0, -3, 2)" stroke-opacity="0.20770985" stroke-linecap="round" stroke-linejoin="round"/>
    <path d="M 155.28372192382812 0.12459319829940796 C 106.36257934570312 4.1292924880981445 141.8546600341797 -6.035628318786621 154.9773712158203 7.28642463684082" stroke-width="3.0" fill="none" stroke="rgb(-1, 0, 0)" stroke-opacity="0.035658702" stroke-linecap="round" stroke-linejoin="round"/>
    <path d="M 57.6877555847168 50.47932815551758 C 30.510162353515625 11.688688278198242 77.49696350097656 53.90480422973633 36.58082580566406 63.89570236206055" stroke-width="3.0" fill="none" stroke="rgb(1, -2, 2)" stroke-opacity="0.3013711" stroke-linecap="round" stroke-linejoin="round"/>
    <path d="M 87.69255828857422 117.74322509765625 C 82.31555938720703 117.0461654663086 80.6241455078125 124.01433563232422 52.239158630371094 127.21247863769531" stroke-width="3.0" fill="none" stroke="rgb(1, -1, 0)" stroke-opacity="0.2943244" stroke-linecap="round" stroke-linejoin="round"/>
    <path d="M 118.39152526855469 7.697212219238281 C 209.31175231933594 67.61180877685547 85.47193145751953 -16.319293975830078 124.29680633544922 3.538363218307495" stroke-width="3.0" fill="none" stroke="rgb(0, 0, 2)" stroke-opacity="0.020942975" stroke-linecap="round" stroke-linejoin="round"/>
    <path d="M 122.1906967163086 174.40634155273438 C 94.1468734741211 150.319091796875 152.0156707763672 178.90966796875 112.75462341308594 168.24758911132812" stroke-width="3.0" fill="none" stroke="rgb(2, 1, -3)" stroke-opacity="0.50980294" stroke-linecap="round" stroke-linejoin="round"/>
    <path d="M 61.7669792175293 162.51626586914062 C 144.35244750976562 148.35227966308594 145.9488525390625 135.95086669921875 79.67855072021484 157.98745727539062" stroke-width="3.0" fill="none" stroke="rgb(2, -3, -2)" stroke-opacity="0.20067531" stroke-linecap="round" stroke-linejoin="round"/>
    <path d="M 41.1046257019043 89.90575408935547 C 18.100406646728516 96.74337768554688 -40.83484649658203 120.84783935546875 45.16499710083008 90.99962615966797" stroke-width="3.0" fill="none" stroke="rgb(0, 0, 2)" stroke-opacity="0.021948721" stroke-linecap="round" stroke-linejoin="round"/>
    <path d="M 103.88534545898438 128.39683532714844 C 103.36028289794922 131.9178924560547 19.01176643371582 112.3490219116211 109.18634033203125 126.17371368408203" stroke-width="3.0" fill="none" stroke="rgb(2, -2, -1)" stroke-opacity="0.48088735" stroke-linecap="round" stroke-linejoin="round"/>
    <path d="M 163.95213317871094 146.29537963867188 C 210.83290100097656 141.87686157226562 92.11155700683594 129.11935424804688 180.52224731445312 145.990478515625" stroke-width="3.0" fill="none" stroke="rgb(2, -1, -2)" stroke-opacity="0.5564127" stroke-linecap="round" stroke-linejoin="round"/>
    <path d="M 76.33524322509766 161.15606689453125 C 120.27428436279297 154.06524658203125 56.240631103515625 169.608154296875 118.18640899658203 147.05210876464844" stroke-width="3.0" fill="none" stroke="rgb(3, -1, -3)" stroke-opacity="0.31550407" stroke-linecap="round" stroke-linejoin="round"/>
    <path d="M 102.77628326416016 98.07952117919922 C 117.09703826904297 114.98944091796875 113.6443862915039 140.25253295898438 126.62692260742188 83.31436157226562" stroke-width="3.0" fill="none" stroke="rgb(-2, 2, 2)" stroke-opacity="0.06757276" stroke-linecap="round" stroke-linejoin="round"/>
    <path d="M 108.62784576416016 207.78616333007812 C 120.95235443115234 198.0798797607422 163.03021240234375 171.51849365234375 93.02932739257812 185.7432861328125" stroke-width="3.0" fill="none" stroke="rgb(-2, 1, 2)" stroke-opacity="0.023168167" stroke-linecap="round" stroke-linejoin="round"/>
    <path d="M 86.09701538085938 200.3059844970703 C 259.3237609863281 236.11709594726562 -2.5679948329925537 173.4588623046875 103.6922607421875 207.53887939453125" stroke-width="3.0" fill="none" stroke="rgb(-1, 0, 2)" stroke-opacity="0.02753159" stroke-linecap="round" stroke-linejoin="round"/>
    <path d="M 193.66351318359375 62.92918395996094 C 148.2843017578125 52.057491302490234 183.47183227539062 74.16588592529297 138.1750030517578 57.495452880859375" stroke-width="3.0" fill="none" stroke="rgb(0, 0, 0)" stroke-opacity="0.01429864" stroke-linecap="round" stroke-linejoin="round"/>
    <path d="M 60.46900177001953 173.40798950195312 C 84.1584701538086 200.45382690429688 63.79701232910156 157.43557739257812 107.54879760742188 188.61920166015625" stroke-width="3.0" fill="none" stroke="rgb(-2, 0, 3)" stroke-opacity="0.024045646" stroke-linecap="round" stroke-linejoin="round"/>
    <path d="M 105.9655990600586 140.61529541015625 C 101.478515625 152.84095764160156 58.21904373168945 160.93972778320312 85.00212860107422 155.78378295898438" stroke-width="3.0" fill="none" stroke="rgb(2, -2, 0)" stroke-opacity="0.48059648" stroke-linecap="round" stroke-linejoin="round"/>
    <path d="M 13.255768775939941 148.9197235107422 C 18.30284309387207 171.46275329589844 70.9135971069336 189.8135528564453 28.955448150634766 158.5996856689453" stroke-width="3.0" fill="none" stroke="rgb(-1, 1, 2)" stroke-opacity="0.035957307" stroke-linecap="round" stroke-linejoin="round"/>
    <path d="M 178.91107177734375 123.0437240600586 C 141.91839599609375 109.70386505126953 132.16734313964844 112.2214584350586 173.8038787841797 81.86913299560547" stroke-width="3.0" fill="none" stroke="rgb(0, -2, 3)" stroke-opacity="0.41320354" stroke-linecap="round" stroke-linejoin="round"/>
    <path d="M 177.4979705810547 139.82618713378906 C 111.56097412109375 120.37140655517578 118.88623809814453 162.6242218017578 153.78506469726562 128.96084594726562" stroke-width="3.0" fill="none" stroke="rgb(2, -1, -2)" stroke-opacity="0.33387637" stroke-linecap="round" stroke-linejoin="round"/>
    <path d="M 7.697076797485352 60.62663650512695 C 18.981874465942383 105.38822174072266 19.17441177368164 37.870487213134766 6.036661624908447 90.71231842041016" stroke-width="3.0" fill="none" stroke="rgb(0, 0, 1)" stroke-opacity="0.028389486" stroke-linecap="round" stroke-linejoin="round"/>
    <path d="M 127.5206069946289 141.14447021484375 C 110.63351440429688 123.76051330566406 106.04314422607422 148.78585815429688 119.26205444335938 141.07354736328125" stroke-width="3.0" fill="none" stroke="rgb(1, 0, 0)" stroke-opacity="0.26864564" stroke-linecap="round" stroke-linejoin="round"/>
    <path d="M 52.62096405029297 127.78913116455078 C 88.18160247802734 107.43272399902344 129.05612182617188 166.67628479003906 93.34587860107422 122.2775650024414" stroke-width="3.0" fill="none" stroke="rgb(3, -4, 0)" stroke-opacity="0.47708195" stroke-linecap="round" stroke-linejoin="round"/>
    <path d="M 166.33108520507812 138.01022338867188 C 199.684326171875 130.410888671875 152.00469970703125 95.1256332397461 190.11654663085938 119.79327392578125" stroke-width="3.0" fill="none" stroke="rgb(2, 0, -3)" stroke-opacity="0.5741037" stroke-linecap="round" stroke-linejoin="round"/>
    <path d="M 27.56450653076172 147.69723510742188 C 13.44096565246582 128.14505004882812 16.297182083129883 160.8486785888672 -4.037901401519775 130.3562774658203" stroke-width="3.0" fill="none" stroke="rgb(0, 1, -1)" stroke-opacity="0.030875387" stroke-linecap="round" stroke-linejoin="round"/>
    <path d="M 57.07672882080078 117.86253356933594 C 67.72860717773438 127.50367736816406 41.428932189941406 111.49683380126953 49.162452697753906 154.39756774902344" stroke-width="3.0" fill="none" stroke="rgb(2, -2, -2)" stroke-opacity="0.44090143" stroke-linecap="round" stroke-linejoin="round"/>
    <path d="M 121.33051300048828 168.436767578125 C 95.88275146484375 163.4885711669922 141.70297241210938 161.4739990234375 122.35745239257812 127.1882553100586" stroke-width="3.0" fill="none" stroke="rgb(2, -2, -1)" stroke-opacity="0.24931462" stroke-linecap="round" stroke-linejoin="round"/>
    <path d="M -6.397969722747803 161.59445190429688 C -5.479248523712158 168.26132202148438 -9.064459800720215 159.55091857910156 -8.164596557617188 157.83187866210938" stroke-width="3.0" fill="none" stroke="rgb(0, 0, 0)" stroke-opacity="0.9104573" stroke-linecap="round" stroke-linejoin="round"/>
    <path d="M 74.71125030517578 170.6765899658203 C 65.97125244140625 126.06793975830078 83.81166076660156 121.43669891357422 70.82144927978516 171.83245849609375" stroke-width="3.0" fill="none" stroke="rgb(0, 0, 1)" stroke-opacity="0.028864106" stroke-linecap="round" stroke-linejoin="round"/>
    <path d="M 52.923641204833984 48.527099609375 C 129.25360107421875 55.4764518737793 98.90985870361328 106.73342895507812 113.80023193359375 69.03282165527344" stroke-width="3.0" fill="none" stroke="rgb(3, -1, -1)" stroke-opacity="0.08475291" stroke-linecap="round" stroke-linejoin="round"/>
    <path d="M 201.29026794433594 229.34466552734375 C 193.52981567382812 226.88272094726562 198.524658203125 232.792236328125 195.5841064453125 231.73095703125" stroke-width="3.0" fill="none" stroke="rgb(0, 0, 0)" stroke-opacity="0.3983821" stroke-linecap="round" stroke-linejoin="round"/>
    <path d="M 189.16851806640625 132.3409423828125 C 159.05592346191406 130.07699584960938 189.1573486328125 116.82684326171875 157.0338134765625 112.29228973388672" stroke-width="3.0" fill="none" stroke="rgb(0, -2, 3)" stroke-opacity="0.56031275" stroke-linecap="round" stroke-linejoin="round"/>
    <path d="M 96.8629379272461 115.15572357177734 C 20.71092987060547 107.33021545410156 106.53791809082031 119.6952896118164 104.80178833007812 64.44722747802734" stroke-width="3.0" fill="none" stroke="rgb(-3, 2, 3)" stroke-opacity="0.069585875" stroke-linecap="round" stroke-linejoin="round"/>
    <path d="M 80.05025482177734 27.9146728515625 C 41.09538650512695 48.68064880371094 93.00923919677734 -28.615867614746094 41.458736419677734 24.624858856201172" stroke-width="3.0" fill="none" stroke="rgb(0, 0, 1)" stroke-opacity="0.012667353" stroke-linecap="round" stroke-linejoin="round"/>
    <path d="M 107.03089904785156 223.53140258789062 C 228.83216857910156 214.30963134765625 126.55829620361328 232.73509216308594 119.91238403320312 215.1120147705078" stroke-width="3.0" fill="none" stroke="rgb(-1, 1, 0)" stroke-opacity="0.037144773" stroke-linecap="round" stroke-linejoin="round"/>
    <path d="M 103.49457550048828 133.53875732421875 C 127.48027801513672 109.26849365234375 130.3807830810547 176.6670684814453 128.5194549560547 118.3807144165039" stroke-width="3.0" fill="none" stroke="rgb(0, 0, -2)" stroke-opacity="0.21268667" stroke-linecap="round" stroke-linejoin="round"/>
    <path d="M 89.75395202636719 56.781776428222656 C 125.80716705322266 73.8884506225586 118.65342712402344 77.29125213623047 95.88530731201172 63.4181022644043" stroke-width="3.0" fill="none" stroke="rgb(2, -1, 0)" stroke-opacity="0.20877552" stroke-linecap="round" stroke-linejoin="round"/>
    <path d="M 40.988067626953125 135.2427520751953 C 49.15425491333008 134.5751495361328 67.39385223388672 122.54901123046875 69.05445861816406 116.08015441894531" stroke-width="3.0" fill="none" stroke="rgb(2, -3, 3)" stroke-opacity="0.38555726" stroke-linecap="round" stroke-linejoin="round"/>
    <path d="M 149.68544006347656 105.86994934082031 C 184.94680786132812 74.69577026367188 171.130615234375 88.88972473144531 153.8069305419922 82.03257751464844" stroke-width="3.0" fill="none" stroke="rgb(2, -1, -2)" stroke-opacity="0.40730247" stroke-linecap="round" stroke-linejoin="round"/>
    <path d="M 146.47584533691406 198.91554260253906 C 261.2223815917969 216.70849609375 -29.492841720581055 181.1052703857422 172.3589630126953 207.2019805908203" stroke-width="3.0" fill="none" stroke="rgb(1, -1, 1)" stroke-opacity="0.038263828" stroke-linecap="round" stroke-linejoin="round"/>
    <path d="M 139.73118591308594 128.04733276367188 C 55.792320251464844 108.85183715820312 189.31272888183594 123.13435363769531 126.61149597167969 131.25299072265625" stroke-width="3.0" fill="none" stroke="rgb(0, -1, 1)" stroke-opacity="0.20016347" stroke-linecap="round" stroke-linejoin="round"/>
    <path d="M 134.6234130859375 102.24638366699219 C 168.75685119628906 156.0680389404297 150.38796997070312 147.6651153564453 122.83808135986328 82.83395385742188" stroke-width="3.0" fill="none" stroke="rgb(2, -2, 1)" stroke-opacity="0.11426625" stroke-linecap="round" stroke-linejoin="round"/>
    <path d="M 114.54058837890625 164.93807983398438 C 123.98204040527344 137.28746032714844 105.5939712524414 155.63980102539062 96.64276123046875 159.09982299804688" stroke-width="3.0" fill="none" stroke="rgb(2, -3, 3)" stroke-opacity="0.578969" stroke-linecap="round" stroke-linejoin="round"/>
    <path d="M 160.50253295898438 106.43856048583984 C 169.58856201171875 88.89088439941406 181.18841552734375 115.90067291259766 162.4376983642578 89.3218994140625" stroke-width="3.0" fill="none" stroke="rgb(-1, 2, 0)" stroke-opacity="0.37964562" stroke-linecap="round" stroke-linejoin="round"/>
    <path d="M 45.93315505981445 49.50083923339844 C -11.625632286071777 109.58683776855469 61.33470153808594 29.215723037719727 23.696577072143555 64.31717681884766" stroke-width="3.0" fill="none" stroke="rgb(-1, 1, 3)" stroke-opacity="0.026676202" stroke-linecap="round" stroke-linejoin="round"/>
    <path d="M 48.92340087890625 161.74386596679688 C 135.50814819335938 146.12420654296875 55.895591735839844 171.23501586914062 45.335811614990234 141.4028778076172" stroke-width="3.0" fill="none" stroke="rgb(4, -3, 0)" stroke-opacity="0.18649629" stroke-linecap="round" stroke-linejoin="round"/>
    <path d="M 36.06796646118164 155.3914031982422 C 58.0047721862793 246.49349975585938 10.121179580688477 127.46306610107422 39.11198806762695 213.62303161621094" stroke-width="3.0" fill="none" stroke="rgb(0, 1, 2)" stroke-opacity="0.0218438" stroke-linecap="round" stroke-linejoin="round"/>
  </g>
</svg>
