<?xml version="1.0" ?>
<svg xmlns="http://www.w3.org/2000/svg" version="1.1" width="224" height="224">
  <defs/>
  <g>
    <path d="M 98.2446517944336 99.5022964477539 C 106.05072784423828 109.79743957519531 102.52462768554688 101.56681060791016 82.86143493652344 89.38565826416016" stroke-width="3.0" fill="none" stroke="rgb(-2, 0, 2)" stroke-opacity="0.2817468" stroke-linecap="round" stroke-linejoin="round"/>
    <path d="M 188.96090698242188 122.71842956542969 C 190.4136962890625 130.3009033203125 190.7610626220703 118.42081451416016 187.12161254882812 126.89491271972656" stroke-width="3.0" fill="none" stroke="rgb(0, 0, 1)" stroke-opacity="0.2698091" stroke-linecap="round" stroke-linejoin="round"/>
    <path d="M 28.710325241088867 179.88238525390625 C 35.33600616455078 180.02301025390625 33.14811706542969 176.79229736328125 37.10803985595703 178.77783203125" stroke-width="3.0" fill="none" stroke="rgb(0, 0, 1)" stroke-opacity="0.038156655" stroke-linecap="round" stroke-linejoin="round"/>
    <path d="M 92.41471862792969 97.89167785644531 C 113.65984344482422 99.80012512207031 115.11933898925781 93.8541488647461 114.13809204101562 107.08922576904297" stroke-width="3.0" fill="none" stroke="rgb(1, -1, 1)" stroke-opacity="0.41616526" stroke-linecap="round" stroke-linejoin="round"/>
    <path d="M 104.24696350097656 139.75889587402344 C 113.87358856201172 109.00917053222656 100.11865234375 117.39215087890625 102.76966094970703 138.15817260742188" stroke-width="3.0" fill="none" stroke="rgb(-3, 1, 2)" stroke-opacity="0.1651556" stroke-linecap="round" stroke-linejoin="round"/>
    <path d="M 165.02780151367188 75.1059341430664 C 150.21630859375 57.08363723754883 155.3591766357422 74.49115753173828 157.7946319580078 71.32077026367188" stroke-width="3.0" fill="none" stroke="rgb(0, 0, 0)" stroke-opacity="0.13264002" stroke-linecap="round" stroke-linejoin="round"/>
    <path d="M 176.3726043701172 136.72349548339844 C 150.499267578125 154.43511962890625 162.4481658935547 150.9265594482422 149.13046264648438 149.22509765625" stroke-width="3.0" fill="none" stroke="rgb(-2, 1, 1)" stroke-opacity="0.39123803" stroke-linecap="round" stroke-linejoin="round"/>
    <path d="M 57.86610412597656 146.357421875 C 24.42115592956543 145.4383544921875 31.192081451416016 149.2857666015625 55.861228942871094 143.66574096679688" stroke-width="3.0" fill="none" stroke="rgb(1, 0, 0)" stroke-opacity="0.40383574" stroke-linecap="round" stroke-linejoin="round"/>
    <path d="M 111.83273315429688 138.7772216796875 C 129.40704345703125 144.4229278564453 130.54502868652344 152.1661376953125 109.93463134765625 140.60511779785156" stroke-width="3.0" fill="none" stroke="rgb(-2, -2, 3)" stroke-opacity="0.6592205" stroke-linecap="round" stroke-linejoin="round"/>
    <path d="M 54.93397521972656 168.8525848388672 C 81.4884262084961 173.4095916748047 72.33039093017578 166.31602478027344 40.32687759399414 168.84390258789062" stroke-width="3.0" fill="none" stroke="rgb(-3, 0, 1)" stroke-opacity="0.3800054" stroke-linecap="round" stroke-linejoin="round"/>
    <path d="M 9.679115295410156 175.54469299316406 C 45.49851608276367 178.4174041748047 3.066899061203003 178.7458038330078 -8.056326866149902 177.27401733398438" stroke-width="3.0" fill="none" stroke="rgb(2, 0, -2)" stroke-opacity="0.3033396" stroke-linecap="round" stroke-linejoin="round"/>
    <path d="M 139.10643005371094 155.77786254882812 C 146.00868225097656 163.1982879638672 162.86968994140625 155.79576110839844 131.01736450195312 161.0764923095703" stroke-width="3.0" fill="none" stroke="rgb(2, 1, 0)" stroke-opacity="0.30152234" stroke-linecap="round" stroke-linejoin="round"/>
    <path d="M 120.42269134521484 168.80250549316406 C 121.51534271240234 183.97877502441406 123.56391143798828 156.0478973388672 118.09803771972656 163.1531219482422" stroke-width="3.0" fill="none" stroke="rgb(-1, 0, 2)" stroke-opacity="0.06020101" stroke-linecap="round" stroke-linejoin="round"/>
    <path d="M 130.26141357421875 179.81576538085938 C 85.72626495361328 178.6285400390625 126.3303451538086 179.3197021484375 76.18913269042969 179.1054229736328" stroke-width="3.0" fill="none" stroke="rgb(0, -1, 2)" stroke-opacity="0.2722887" stroke-linecap="round" stroke-linejoin="round"/>
    <path d="M 197.16053771972656 116.09500885009766 C 196.5005645751953 120.75704956054688 199.20590209960938 112.80155181884766 192.12045288085938 119.0764389038086" stroke-width="3.0" fill="none" stroke="rgb(0, 0, 0)" stroke-opacity="0.103857934" stroke-linecap="round" stroke-linejoin="round"/>
    <path d="M 85.52234649658203 116.27376556396484 C 86.92261505126953 122.41661834716797 90.44379425048828 124.67767333984375 83.1791763305664 111.77406311035156" stroke-width="3.0" fill="none" stroke="rgb(0, -1, 1)" stroke-opacity="0.09219766" stroke-linecap="round" stroke-linejoin="round"/>
    <path d="M 103.0986557006836 143.60121154785156 C 101.9126968383789 133.70269775390625 100.882568359375 145.7888641357422 105.04534912109375 139.8607635498047" stroke-width="3.0" fill="none" stroke="rgb(0, 0, 0)" stroke-opacity="0.15285704" stroke-linecap="round" stroke-linejoin="round"/>
    <path d="M 102.34698486328125 99.93836212158203 C 127.59294128417969 101.76901245117188 123.78791046142578 110.1454849243164 103.78422546386719 101.23377227783203" stroke-width="3.0" fill="none" stroke="rgb(0, 0, 2)" stroke-opacity="0.42467612" stroke-linecap="round" stroke-linejoin="round"/>
    <path d="M 230.37252807617188 100.86470031738281 C 223.2158966064453 100.01669311523438 222.51708984375 100.91557312011719 208.82130432128906 106.29779815673828" stroke-width="3.0" fill="none" stroke="rgb(0, 0, 1)" stroke-opacity="0.17970768" stroke-linecap="round" stroke-linejoin="round"/>
    <path d="M 156.95970153808594 207.7483673095703 C 153.9496612548828 206.21817016601562 158.48561096191406 204.3929901123047 149.91552734375 205.86097717285156" stroke-width="3.0" fill="none" stroke="rgb(0, 0, -1)" stroke-opacity="0.048156135" stroke-linecap="round" stroke-linejoin="round"/>
    <path d="M 116.27230072021484 107.20661163330078 C 125.78541564941406 126.9499740600586 132.75860595703125 147.097412109375 129.8354034423828 133.18801879882812" stroke-width="3.0" fill="none" stroke="rgb(0, -3, 1)" stroke-opacity="0.40191096" stroke-linecap="round" stroke-linejoin="round"/>
    <path d="M 93.00072479248047 96.98707580566406 C 109.64159393310547 100.12411499023438 94.03301239013672 93.5738754272461 101.45980072021484 100.5247802734375" stroke-width="3.0" fill="none" stroke="rgb(0, 0, 1)" stroke-opacity="0.26447976" stroke-linecap="round" stroke-linejoin="round"/>
    <path d="M 135.0834197998047 178.66896057128906 C 133.4716033935547 178.1575164794922 137.7542266845703 179.05360412597656 131.8973388671875 178.39747619628906" stroke-width="3.0" fill="none" stroke="rgb(0, 0, 0)" stroke-opacity="0.12562348" stroke-linecap="round" stroke-linejoin="round"/>
    <path d="M 106.9312744140625 96.4021987915039 C 103.34671020507812 90.89968872070312 113.70233917236328 110.67718505859375 107.06620025634766 76.61538696289062" stroke-width="3.0" fill="none" stroke="rgb(0, 1, -1)" stroke-opacity="0.43359026" stroke-linecap="round" stroke-linejoin="round"/>
    <path d="M 191.38108825683594 150.1700439453125 C 250.02886962890625 153.00344848632812 247.24293518066406 157.9640350341797 150.75494384765625 156.89173889160156" stroke-width="3.0" fill="none" stroke="rgb(-2, -1, 3)" stroke-opacity="0.45312768" stroke-linecap="round" stroke-linejoin="round"/>
    <path d="M 79.18402862548828 173.0623321533203 C 62.72010803222656 170.60450744628906 53.108421325683594 169.08897399902344 23.82672882080078 165.97178649902344" stroke-width="3.0" fill="none" stroke="rgb(-1, 1, 1)" stroke-opacity="0.25461787" stroke-linecap="round" stroke-linejoin="round"/>
    <path d="M 137.4342498779297 151.81759643554688 C 131.90377807617188 128.22776794433594 132.75413513183594 136.48611450195312 130.439453125 129.5606231689453" stroke-width="3.0" fill="none" stroke="rgb(0, -2, 2)" stroke-opacity="0.77804494" stroke-linecap="round" stroke-linejoin="round"/>
    <path d="M 69.12028503417969 96.70391082763672 C 71.71224975585938 106.28111267089844 75.80931091308594 102.25428009033203 78.57825469970703 107.08108520507812" stroke-width="3.0" fill="none" stroke="rgb(1, 0, -1)" stroke-opacity="0.46639237" stroke-linecap="round" stroke-linejoin="round"/>
    <path d="M 131.51416015625 135.22340393066406 C 126.79498291015625 121.26567840576172 130.87901306152344 128.02981567382812 131.97747802734375 133.7859649658203" stroke-width="3.0" fill="none" stroke="rgb(0, 0, 1)" stroke-opacity="0.575217" stroke-linecap="round" stroke-linejoin="round"/>
    <path d="M 73.6295166015625 133.48455810546875 C 63.437679290771484 149.33287048339844 73.42591094970703 142.5070343017578 36.660621643066406 143.27378845214844" stroke-width="3.0" fill="none" stroke="rgb(-2, -1, 2)" stroke-opacity="0.31748557" stroke-linecap="round" stroke-linejoin="round"/>
    <path d="M 118.76838684082031 144.08511352539062 C 147.62313842773438 159.77232360839844 129.5515899658203 153.23028564453125 135.77809143066406 152.02676391601562" stroke-width="3.0" fill="none" stroke="rgb(-2, 1, 3)" stroke-opacity="0.48352122" stroke-linecap="round" stroke-linejoin="round"/>
    <path d="M 76.41715240478516 147.32383728027344 C 58.272621154785156 147.88616943359375 50.929439544677734 143.6040496826172 66.36978912353516 152.68048095703125" stroke-width="3.0" fill="none" stroke="rgb(-1, 1, 0)" stroke-opacity="0.16837323" stroke-linecap="round" stroke-linejoin="round"/>
    <path d="M 134.9425506591797 80.27429962158203 C 126.16561889648438 71.1518325805664 131.1982421875 80.20598602294922 119.19046020507812 52.00293731689453" stroke-width="3.0" fill="none" stroke="rgb(0, 1, -2)" stroke-opacity="0.4943335" stroke-linecap="round" stroke-linejoin="round"/>
    <path d="M 140.86724853515625 188.32374572753906 C 139.589111328125 183.1569366455078 145.9420623779297 186.9853973388672 143.25311279296875 187.37156677246094" stroke-width="3.0" fill="none" stroke="rgb(0, 0, 0)" stroke-opacity="0.041321784" stroke-linecap="round" stroke-linejoin="round"/>
    <path d="M 18.135677337646484 169.14744567871094 C 61.974918365478516 168.49732971191406 61.49555969238281 166.3061981201172 22.98557472229004 163.4462432861328" stroke-width="3.0" fill="none" stroke="rgb(-2, -2, 3)" stroke-opacity="0.32738954" stroke-linecap="round" stroke-linejoin="round"/>
    <path d="M 147.91891479492188 152.07693481445312 C 172.25474548339844 156.88604736328125 194.70852661132812 158.09982299804688 140.5205841064453 155.37791442871094" stroke-width="3.0" fill="none" stroke="rgb(1, -3, 2)" stroke-opacity="0.28550103" stroke-linecap="round" stroke-linejoin="round"/>
    <path d="M 34.86388397216797 163.53785705566406 C 53.864715576171875 165.21884155273438 54.27446365356445 167.18910217285156 46.05625534057617 162.41827392578125" stroke-width="3.0" fill="none" stroke="rgb(0, -2, 3)" stroke-opacity="0.37024066" stroke-linecap="round" stroke-linejoin="round"/>
    <path d="M 134.26571655273438 129.90504455566406 C 140.8081817626953 159.11984252929688 136.20654296875 171.6150360107422 138.85794067382812 153.95602416992188" stroke-width="3.0" fill="none" stroke="rgb(0, 0, 0)" stroke-opacity="0.1381649" stroke-linecap="round" stroke-linejoin="round"/>
    <path d="M 76.2215805053711 102.8038101196289 C 67.8209228515625 98.52250671386719 64.9455795288086 87.66415405273438 69.33048248291016 103.89104461669922" stroke-width="3.0" fill="none" stroke="rgb(1, 0, 0)" stroke-opacity="0.4415018" stroke-linecap="round" stroke-linejoin="round"/>
    <path d="M 176.0797882080078 233.34463500976562 C 179.7461700439453 229.65191650390625 180.78355407714844 234.90530395507812 184.03778076171875 235.67660522460938" stroke-width="3.0" fill="none" stroke="rgb(0, 0, 0)" stroke-opacity="0.8933173" stroke-linecap="round" stroke-linejoin="round"/>
    <path d="M 154.852294921875 66.02497100830078 C 132.1136016845703 53.45392990112305 142.28260803222656 59.891883850097656 119.77948760986328 50.517276763916016" stroke-width="3.0" fill="none" stroke="rgb(0, 0, 0)" stroke-opacity="0.18508984" stroke-linecap="round" stroke-linejoin="round"/>
    <path d="M 121.81340789794922 103.58551025390625 C 135.49169921875 130.382080078125 133.48483276367188 144.32444763183594 132.81832885742188 137.4017333984375" stroke-width="3.0" fill="none" stroke="rgb(1, 0, 1)" stroke-opacity="0.42753872" stroke-linecap="round" stroke-linejoin="round"/>
    <path d="M 165.72012329101562 191.33779907226562 C 164.3784637451172 204.24383544921875 163.1419219970703 208.0093231201172 161.1535186767578 205.0076141357422" stroke-width="3.0" fill="none" stroke="rgb(0, 0, 0)" stroke-opacity="0.027277114" stroke-linecap="round" stroke-linejoin="round"/>
    <path d="M 157.3299560546875 196.08062744140625 C 167.66259765625 203.13584899902344 159.0694122314453 196.8589630126953 168.82034301757812 199.85462951660156" stroke-width="3.0" fill="none" stroke="rgb(3, 1, -2)" stroke-opacity="0.15598977" stroke-linecap="round" stroke-linejoin="round"/>
    <path d="M 95.6327133178711 139.7484130859375 C 88.85506439208984 136.87869262695312 98.53392028808594 137.98329162597656 72.88777160644531 131.39422607421875" stroke-width="3.0" fill="none" stroke="rgb(-3, 0, 3)" stroke-opacity="0.35940593" stroke-linecap="round" stroke-linejoin="round"/>
    <path d="M 195.28781127929688 121.3736343383789 C 193.10922241210938 115.29248809814453 198.1415557861328 114.68465423583984 206.4090576171875 107.48358154296875" stroke-width="3.0" fill="none" stroke="rgb(1, 0, 0)" stroke-opacity="0.12509474" stroke-linecap="round" stroke-linejoin="round"/>
    <path d="M 115.55453491210938 111.0635757446289 C 113.47754669189453 107.61187744140625 123.42867279052734 116.5829849243164 128.8966827392578 126.95303344726562" stroke-width="3.0" fill="none" stroke="rgb(1, -2, 0)" stroke-opacity="0.24263774" stroke-linecap="round" stroke-linejoin="round"/>
    <path d="M 56.378318786621094 131.63868713378906 C 53.988441467285156 110.07676696777344 42.27779769897461 90.62319946289062 65.6823501586914 126.08833312988281" stroke-width="3.0" fill="none" stroke="rgb(1, 0, -1)" stroke-opacity="0.42546865" stroke-linecap="round" stroke-linejoin="round"/>
    <path d="M 68.59904479980469 153.0841522216797 C 106.4720687866211 175.2512664794922 94.41249084472656 170.43194580078125 96.20442199707031 168.47901916503906" stroke-width="3.0" fill="none" stroke="rgb(-2, 0, 2)" stroke-opacity="0.25547725" stroke-linecap="round" stroke-linejoin="round"/>
    <path d="M 105.97236633300781 137.10926818847656 C 96.76298522949219 151.50888061523438 102.09849548339844 145.08546447753906 91.04016876220703 131.98765563964844" stroke-width="3.0" fill="none" stroke="rgb(-1, 0, 1)" stroke-opacity="0.26398018" stroke-linecap="round" stroke-linejoin="round"/>
    <path d="M 76.04083251953125 146.18670654296875 C 61.81279373168945 152.63108825683594 72.85240173339844 132.8799285888672 91.61174011230469 138.45538330078125" stroke-width="3.0" fill="none" stroke="rgb(0, 0, -1)" stroke-opacity="0.24243703" stroke-linecap="round" stroke-linejoin="round"/>
    <path d="M 72.84878540039062 225.07058715820312 C 71.75807189941406 218.68014526367188 41.21671676635742 227.6368865966797 57.030250549316406 224.79495239257812" stroke-width="3.0" fill="none" stroke="rgb(0, 0, 0)" stroke-opacity="0.2745654" stroke-linecap="round" stroke-linejoin="round"/>
    <path d="M 127.80929565429688 183.99676513671875 C 131.45449829101562 174.9376983642578 130.89402770996094 182.86773681640625 131.29898071289062 181.82925415039062" stroke-width="3.0" fill="none" stroke="rgb(0, 0, 0)" stroke-opacity="0.06271644" stroke-linecap="round" stroke-linejoin="round"/>
    <path d="M 73.55952453613281 228.33401489257812 C 72.7082748413086 221.2506866455078 71.3034896850586 219.31463623046875 102.62535858154297 226.3577423095703" stroke-width="3.0" fill="none" stroke="rgb(0, 0, -2)" stroke-opacity="0.26700202" stroke-linecap="round" stroke-linejoin="round"/>
    <path d="M 202.77261352539062 180.3861083984375 C 191.51519775390625 181.12184143066406 196.69140625 183.5291290283203 201.48240661621094 182.1221466064453" stroke-width="3.0" fill="none" stroke="rgb(0, 0, 0)" stroke-opacity="0.017724566" stroke-linecap="round" stroke-linejoin="round"/>
    <path d="M 167.5655517578125 179.9598846435547 C 159.62474060058594 177.30096435546875 158.5652313232422 180.74143981933594 162.70407104492188 180.86404418945312" stroke-width="3.0" fill="none" stroke="rgb(1, 0, -1)" stroke-opacity="0.036029413" stroke-linecap="round" stroke-linejoin="round"/>
    <path d="M 180.16880798339844 143.673583984375 C 169.81149291992188 139.1529083251953 173.27227783203125 131.27769470214844 185.70001220703125 148.71728515625" stroke-width="3.0" fill="none" stroke="rgb(0, -1, 1)" stroke-opacity="0.2738076" stroke-linecap="round" stroke-linejoin="round"/>
    <path d="M 105.80923461914062 135.56585693359375 C 103.00210571289062 142.4277801513672 105.91558074951172 132.66983032226562 105.56420135498047 135.022705078125" stroke-width="3.0" fill="none" stroke="rgb(0, 0, 0)" stroke-opacity="0.2011307" stroke-linecap="round" stroke-linejoin="round"/>
    <path d="M 122.76091766357422 112.12831115722656 C 109.69922637939453 90.35650634765625 100.82665252685547 67.13508605957031 119.33129119873047 99.73818969726562" stroke-width="3.0" fill="none" stroke="rgb(2, -2, 3)" stroke-opacity="0.38828164" stroke-linecap="round" stroke-linejoin="round"/>
    <path d="M 80.85865783691406 193.0611114501953 C 79.29027557373047 193.25144958496094 81.73313903808594 193.16897583007812 80.30985260009766 193.14865112304688" stroke-width="3.0" fill="none" stroke="rgb(0, 0, 0)" stroke-opacity="0.15280762" stroke-linecap="round" stroke-linejoin="round"/>
    <path d="M 33.19765853881836 153.96588134765625 C 59.84881591796875 163.49574279785156 56.225162506103516 166.34378051757812 59.97801208496094 165.07427978515625" stroke-width="3.0" fill="none" stroke="rgb(-1, 1, 1)" stroke-opacity="0.27020952" stroke-linecap="round" stroke-linejoin="round"/>
    <path d="M 152.665771484375 71.04570770263672 C 123.47920227050781 63.739341735839844 124.65031433105469 70.5782699584961 161.93057250976562 75.11785125732422" stroke-width="3.0" fill="none" stroke="rgb(0, 1, -1)" stroke-opacity="0.060478155" stroke-linecap="round" stroke-linejoin="round"/>
    <path d="M 105.01545715332031 96.30538940429688 C 101.94825744628906 99.86053466796875 96.03233337402344 93.8215103149414 87.96649169921875 92.74937438964844" stroke-width="3.0" fill="none" stroke="rgb(1, -2, 2)" stroke-opacity="0.6032727" stroke-linecap="round" stroke-linejoin="round"/>
    <path d="M 151.78945922851562 151.72891235351562 C 144.85250854492188 140.61378479003906 159.1761016845703 145.89280700683594 148.01251220703125 150.86668395996094" stroke-width="3.0" fill="none" stroke="rgb(-3, 0, 3)" stroke-opacity="0.7520496" stroke-linecap="round" stroke-linejoin="round"/>
    <path d="M 36.55564880371094 149.6784210205078 C 86.57202911376953 146.04747009277344 87.55364990234375 137.35400390625 71.70250701904297 134.59841918945312" stroke-width="3.0" fill="none" stroke="rgb(0, 0, -1)" stroke-opacity="0.27111715" stroke-linecap="round" stroke-linejoin="round"/>
    <path d="M 149.76968383789062 175.6769256591797 C 132.05642700195312 177.66845703125 129.26695251464844 179.97634887695312 134.5548858642578 180.04757690429688" stroke-width="3.0" fill="none" stroke="rgb(0, 0, 0)" stroke-opacity="0.14597835" stroke-linecap="round" stroke-linejoin="round"/>
    <path d="M 119.35527038574219 101.90866088867188 C 105.45037078857422 89.54364776611328 112.27204132080078 92.94512176513672 105.2921371459961 94.5220947265625" stroke-width="3.0" fill="none" stroke="rgb(0, 0, 0)" stroke-opacity="0.46546164" stroke-linecap="round" stroke-linejoin="round"/>
    <path d="M 102.32218170166016 69.83309173583984 C 103.57402038574219 86.58476257324219 112.5126953125 133.6533660888672 104.77900695800781 71.79750061035156" stroke-width="3.0" fill="none" stroke="rgb(1, 1, -2)" stroke-opacity="0.33937326" stroke-linecap="round" stroke-linejoin="round"/>
    <path d="M 68.92794799804688 99.09355926513672 C 65.45416259765625 117.34197998046875 91.4791488647461 101.92512512207031 58.629337310791016 105.8554916381836" stroke-width="3.0" fill="none" stroke="rgb(-1, 0, 2)" stroke-opacity="0.23649794" stroke-linecap="round" stroke-linejoin="round"/>
    <path d="M 91.20899200439453 130.78260803222656 C 72.42937469482422 107.06200408935547 70.97711181640625 90.97743225097656 85.54619598388672 117.5692367553711" stroke-width="3.0" fill="none" stroke="rgb(0, -1, 1)" stroke-opacity="0.2174008" stroke-linecap="round" stroke-linejoin="round"/>
    <path d="M 171.82968139648438 85.22137451171875 C 169.8905487060547 88.30580139160156 171.5458526611328 77.22158813476562 176.3265838623047 91.2502212524414" stroke-width="3.0" fill="none" stroke="rgb(0, 0, 0)" stroke-opacity="0.09973226" stroke-linecap="round" stroke-linejoin="round"/>
    <path d="M 108.07539367675781 80.89922332763672 C 102.91858673095703 111.08522033691406 99.79024505615234 101.81082153320312 117.28345489501953 109.19452667236328" stroke-width="3.0" fill="none" stroke="rgb(-1, 0, 0)" stroke-opacity="0.28480148" stroke-linecap="round" stroke-linejoin="round"/>
    <path d="M 90.48368835449219 95.18865966796875 C 107.31657409667969 114.98639678955078 101.7197494506836 119.16939544677734 102.43058776855469 117.72499084472656" stroke-width="3.0" fill="none" stroke="rgb(-1, 0, 1)" stroke-opacity="0.41013646" stroke-linecap="round" stroke-linejoin="round"/>
    <path d="M 51.990413665771484 136.87440490722656 C 71.54823303222656 150.55519104003906 102.10044860839844 130.52389526367188 42.11778259277344 140.93997192382812" stroke-width="3.0" fill="none" stroke="rgb(0, -2, 3)" stroke-opacity="0.23691605" stroke-linecap="round" stroke-linejoin="round"/>
    <path d="M 121.28504180908203 75.32884216308594 C 139.93362426757812 81.06034851074219 136.32470703125 86.06468963623047 137.4818572998047 83.5496597290039" stroke-width="3.0" fill="none" stroke="rgb(-2, 0, 2)" stroke-opacity="0.3347491" stroke-linecap="round" stroke-linejoin="round"/>
    <path d="M 202.24095153808594 112.8855209350586 C 194.4127197265625 120.68402862548828 202.3685760498047 110.90542602539062 220.12002563476562 104.98135375976562" stroke-width="3.0" fill="none" stroke="rgb(0, 0, 0)" stroke-opacity="0.054295585" stroke-linecap="round" stroke-linejoin="round"/>
    <path d="M 54.42025375366211 136.36854553222656 C 61.492027282714844 130.82470703125 60.173004150390625 129.3798065185547 55.639198303222656 114.26932525634766" stroke-width="3.0" fill="none" stroke="rgb(-2, 2, 1)" stroke-opacity="0.4010736" stroke-linecap="round" stroke-linejoin="round"/>
    <path d="M 135.69667053222656 177.0650634765625 C 136.14784240722656 177.48593139648438 133.15943908691406 177.3795928955078 134.38381958007812 177.20350646972656" stroke-width="3.0" fill="none" stroke="rgb(0, 0, 0)" stroke-opacity="0.22101521" stroke-linecap="round" stroke-linejoin="round"/>
    <path d="M 106.7874984741211 142.47335815429688 C 96.3386001586914 143.027587890625 111.69015502929688 142.09603881835938 110.32847595214844 141.02517700195312" stroke-width="3.0" fill="none" stroke="rgb(1, 0, 0)" stroke-opacity="0.31851926" stroke-linecap="round" stroke-linejoin="round"/>
    <path d="M 39.442806243896484 149.09872436523438 C 31.173173904418945 160.3673095703125 42.20127487182617 192.32669067382812 38.905765533447266 146.89288330078125" stroke-width="3.0" fill="none" stroke="rgb(1, -1, 0)" stroke-opacity="0.15462941" stroke-linecap="round" stroke-linejoin="round"/>
    <path d="M 40.25112533569336 171.19180297851562 C 71.163818359375 171.1219482421875 59.893157958984375 164.42588806152344 54.62486267089844 163.15232849121094" stroke-width="3.0" fill="none" stroke="rgb(-2, 0, 0)" stroke-opacity="0.19518268" stroke-linecap="round" stroke-linejoin="round"/>
    <path d="M 77.41525268554688 192.81024169921875 C 77.33308410644531 192.52711486816406 77.2750244140625 193.19834899902344 77.0296630859375 192.75558471679688" stroke-width="3.0" fill="none" stroke="rgb(0, 0, 0)" stroke-opacity="0.2672698" stroke-linecap="round" stroke-linejoin="round"/>
    <path d="M 210.27459716796875 179.2548065185547 C 202.06765747070312 183.32867431640625 201.1722412109375 180.04405212402344 222.4989776611328 181.57357788085938" stroke-width="3.0" fill="none" stroke="rgb(0, 0, 0)" stroke-opacity="0.030424673" stroke-linecap="round" stroke-linejoin="round"/>
    <path d="M 60.96229934692383 179.80642700195312 C 48.23820495605469 181.40655517578125 63.261749267578125 178.657958984375 34.868255615234375 179.9124298095703" stroke-width="3.0" fill="none" stroke="rgb(0, 0, 0)" stroke-opacity="0.0937789" stroke-linecap="round" stroke-linejoin="round"/>
    <path d="M 149.3172149658203 66.62972259521484 C 120.26055145263672 49.07466125488281 123.12909698486328 63.587364196777344 154.93150329589844 68.35301971435547" stroke-width="3.0" fill="none" stroke="rgb(0, 0, -1)" stroke-opacity="0.12206508" stroke-linecap="round" stroke-linejoin="round"/>
    <path d="M 227.02420043945312 158.14852905273438 C 145.67520141601562 153.4306182861328 159.36224365234375 160.04078674316406 211.6327362060547 143.0327911376953" stroke-width="3.0" fill="none" stroke="rgb(0, 0, 0)" stroke-opacity="0.20917204" stroke-linecap="round" stroke-linejoin="round"/>
    <path d="M 74.4566879272461 169.71218872070312 C 61.465877532958984 168.7908477783203 56.147918701171875 155.79241943359375 30.909259796142578 150.7808837890625" stroke-width="3.0" fill="none" stroke="rgb(-1, -1, 2)" stroke-opacity="0.32467178" stroke-linecap="round" stroke-linejoin="round"/>
    <path d="M 148.939453125 76.71434020996094 C 165.3369598388672 75.76619720458984 157.70237731933594 64.79369354248047 171.78509521484375 80.27252197265625" stroke-width="3.0" fill="none" stroke="rgb(0, 0, 0)" stroke-opacity="0.031695604" stroke-linecap="round" stroke-linejoin="round"/>
    <path d="M 181.87953186035156 147.09678649902344 C 155.52096557617188 147.146728515625 143.15997314453125 154.1765899658203 186.44784545898438 148.6594696044922" stroke-width="3.0" fill="none" stroke="rgb(-1, 0, 3)" stroke-opacity="0.47969764" stroke-linecap="round" stroke-linejoin="round"/>
    <path d="M 93.0745620727539 134.14425659179688 C 88.90812683105469 119.66373443603516 83.97370910644531 116.4515609741211 79.52487182617188 109.13302612304688" stroke-width="3.0" fill="none" stroke="rgb(0, -1, 1)" stroke-opacity="0.3244897" stroke-linecap="round" stroke-linejoin="round"/>
    <path d="M 112.30025482177734 112.02487182617188 C 130.0709228515625 127.8644027709961 123.57943725585938 129.26194763183594 137.28590393066406 149.21141052246094" stroke-width="3.0" fill="none" stroke="rgb(-2, -1, 2)" stroke-opacity="0.40329787" stroke-linecap="round" stroke-linejoin="round"/>
    <path d="M 55.399837493896484 188.72874450683594 C 55.039764404296875 188.1139373779297 52.384803771972656 188.52468872070312 57.92339324951172 188.63108825683594" stroke-width="3.0" fill="none" stroke="rgb(0, 0, 0)" stroke-opacity="0.047091454" stroke-linecap="round" stroke-linejoin="round"/>
    <path d="M 187.48008728027344 125.33016204833984 C 186.4793243408203 129.7079315185547 182.13319396972656 132.46388244628906 189.1353302001953 124.99188232421875" stroke-width="3.0" fill="none" stroke="rgb(-1, 0, 1)" stroke-opacity="0.24159832" stroke-linecap="round" stroke-linejoin="round"/>
    <path d="M 160.64695739746094 205.41799926757812 C 172.17214965820312 205.41552734375 160.05909729003906 204.6127166748047 174.2515411376953 207.44342041015625" stroke-width="3.0" fill="none" stroke="rgb(0, 0, 0)" stroke-opacity="0.042796865" stroke-linecap="round" stroke-linejoin="round"/>
    <path d="M 63.926666259765625 86.13713073730469 C 68.4696044921875 94.37443542480469 64.56718444824219 87.66620635986328 74.63200378417969 100.74439239501953" stroke-width="3.0" fill="none" stroke="rgb(1, 0, -1)" stroke-opacity="0.41301978" stroke-linecap="round" stroke-linejoin="round"/>
    <path d="M 109.04383850097656 112.44144439697266 C 133.846435546875 140.35275268554688 134.233154296875 143.6365966796875 120.2966537475586 102.26754760742188" stroke-width="3.0" fill="none" stroke="rgb(-2, -1, 3)" stroke-opacity="0.42862177" stroke-linecap="round" stroke-linejoin="round"/>
  </g>
</svg>
