<?xml version="1.0" ?>
<svg xmlns="http://www.w3.org/2000/svg" version="1.1" width="224" height="224">
  <defs/>
  <g>
    <path d="M 87.22575378417969 93.06707000732422 C 112.33589935302734 121.16307830810547 112.58296966552734 95.4727783203125 66.70084381103516 85.99584197998047" stroke-width="3.0" fill="none" stroke="rgb(0, 0, 0)" stroke-opacity="0.14151374" stroke-linecap="round" stroke-linejoin="round"/>
    <path d="M 189.59408569335938 122.13497161865234 C 176.82827758789062 182.1941375732422 183.02066040039062 105.06659698486328 184.47276306152344 146.87045288085938" stroke-width="3.0" fill="none" stroke="rgb(-2, -3, 4)" stroke-opacity="0.17696472" stroke-linecap="round" stroke-linejoin="round"/>
    <path d="M 6.214705467224121 201.75418090820312 C 113.78472900390625 171.1367645263672 23.460737228393555 199.12631225585938 55.93325424194336 178.4405975341797" stroke-width="3.0" fill="none" stroke="rgb(0, 0, 1)" stroke-opacity="0.05497304" stroke-linecap="round" stroke-linejoin="round"/>
    <path d="M 93.79234313964844 95.44659423828125 C 109.80298614501953 106.0872802734375 118.9404296875 69.66925048828125 135.72560119628906 144.07919311523438" stroke-width="3.0" fill="none" stroke="rgb(0, -1, 1)" stroke-opacity="0.56481445" stroke-linecap="round" stroke-linejoin="round"/>
    <path d="M 93.38316345214844 159.88726806640625 C 131.76100158691406 82.05255889892578 92.78875732421875 119.54108428955078 101.8031997680664 177.63848876953125" stroke-width="3.0" fill="none" stroke="rgb(-1, -2, 3)" stroke-opacity="0.12647754" stroke-linecap="round" stroke-linejoin="round"/>
    <path d="M 173.2295379638672 83.4994888305664 C 158.64532470703125 64.61691284179688 164.833984375 81.88212585449219 169.8800506591797 96.88671112060547" stroke-width="3.0" fill="none" stroke="rgb(0, 0, -1)" stroke-opacity="0.034042273" stroke-linecap="round" stroke-linejoin="round"/>
    <path d="M 182.7067413330078 131.2068328857422 C 143.61187744140625 155.14236450195312 165.55154418945312 147.25222778320312 144.3712615966797 142.2971954345703" stroke-width="3.0" fill="none" stroke="rgb(-2, 0, 2)" stroke-opacity="0.25079095" stroke-linecap="round" stroke-linejoin="round"/>
    <path d="M 67.18997192382812 138.23123168945312 C 29.393959045410156 143.26234436035156 24.486679077148438 153.84814453125 74.56828308105469 144.3041534423828" stroke-width="3.0" fill="none" stroke="rgb(1, -3, 3)" stroke-opacity="0.2826526" stroke-linecap="round" stroke-linejoin="round"/>
    <path d="M 110.48844909667969 136.80067443847656 C 123.31511688232422 139.59312438964844 131.62600708007812 145.08270263671875 109.7991943359375 139.45326232910156" stroke-width="3.0" fill="none" stroke="rgb(-2, 0, 2)" stroke-opacity="0.62994254" stroke-linecap="round" stroke-linejoin="round"/>
    <path d="M 39.53370666503906 161.33169555664062 C 93.3677978515625 147.0105743408203 96.23991394042969 185.1721954345703 55.601226806640625 189.8343048095703" stroke-width="3.0" fill="none" stroke="rgb(0, 0, 0)" stroke-opacity="0.0720113" stroke-linecap="round" stroke-linejoin="round"/>
    <path d="M 36.47122573852539 186.236328125 C 98.6080093383789 187.41094970703125 64.82705688476562 181.87928771972656 -24.947378158569336 181.4188995361328" stroke-width="3.0" fill="none" stroke="rgb(-3, 0, 3)" stroke-opacity="0.12133917" stroke-linecap="round" stroke-linejoin="round"/>
    <path d="M 121.46273803710938 146.7403106689453 C 158.57015991210938 176.41612243652344 205.6107635498047 115.30416107177734 155.56805419921875 154.75677490234375" stroke-width="3.0" fill="none" stroke="rgb(-1, -3, 5)" stroke-opacity="0.5014562" stroke-linecap="round" stroke-linejoin="round"/>
    <path d="M 107.52201080322266 174.66294860839844 C 85.14379119873047 182.9760284423828 147.56585693359375 167.9893798828125 95.78421783447266 159.3943328857422" stroke-width="3.0" fill="none" stroke="rgb(0, 0, 0)" stroke-opacity="0.079414435" stroke-linecap="round" stroke-linejoin="round"/>
    <path d="M 143.23184204101562 182.68994140625 C 30.912158966064453 181.5995330810547 159.50123596191406 183.89552307128906 45.723018646240234 176.98001098632812" stroke-width="3.0" fill="none" stroke="rgb(-1, 0, 0)" stroke-opacity="0.17412844" stroke-linecap="round" stroke-linejoin="round"/>
    <path d="M 211.19674682617188 105.20674133300781 C 179.00685119628906 121.09254455566406 190.71131896972656 124.06835174560547 213.55593872070312 104.20122528076172" stroke-width="3.0" fill="none" stroke="rgb(1, -1, 0)" stroke-opacity="0.098726235" stroke-linecap="round" stroke-linejoin="round"/>
    <path d="M 69.40896606445312 88.28887939453125 C 114.26947784423828 139.2125701904297 92.3161849975586 155.7189178466797 65.10034942626953 89.1565170288086" stroke-width="3.0" fill="none" stroke="rgb(-2, 0, 1)" stroke-opacity="0.04874944" stroke-linecap="round" stroke-linejoin="round"/>
    <path d="M 126.12186431884766 144.25955200195312 C 90.19880676269531 139.93716430664062 104.54739379882812 155.48703002929688 103.42635345458984 127.48712921142578" stroke-width="3.0" fill="none" stroke="rgb(-1, -1, 2)" stroke-opacity="0.34444594" stroke-linecap="round" stroke-linejoin="round"/>
    <path d="M 93.6138687133789 95.32960510253906 C 128.19430541992188 120.1941909790039 126.39997100830078 110.55928039550781 95.46943664550781 96.2568359375" stroke-width="3.0" fill="none" stroke="rgb(0, 0, 1)" stroke-opacity="0.9276577" stroke-linecap="round" stroke-linejoin="round"/>
    <path d="M 240.1213836669922 102.99828338623047 C 216.64259338378906 101.00535583496094 223.79794311523438 99.19123840332031 198.95126342773438 112.12715911865234" stroke-width="3.0" fill="none" stroke="rgb(-1, 0, 1)" stroke-opacity="0.114585005" stroke-linecap="round" stroke-linejoin="round"/>
    <path d="M 219.47666931152344 212.9657440185547 C 102.79854583740234 213.02476501464844 156.59420776367188 214.5245361328125 155.4625244140625 223.09542846679688" stroke-width="3.0" fill="none" stroke="rgb(0, 1, 0)" stroke-opacity="0.0697667" stroke-linecap="round" stroke-linejoin="round"/>
    <path d="M 106.35062408447266 105.731689453125 C 129.22357177734375 135.28366088867188 136.88345336914062 145.79869079589844 108.04883575439453 100.43803405761719" stroke-width="3.0" fill="none" stroke="rgb(-4, 0, 4)" stroke-opacity="0.84906775" stroke-linecap="round" stroke-linejoin="round"/>
    <path d="M 92.34070587158203 96.54930114746094 C 113.29759979248047 113.71424102783203 101.12376403808594 96.45134735107422 112.24607849121094 105.31932067871094" stroke-width="3.0" fill="none" stroke="rgb(-6, -1, 4)" stroke-opacity="0.81326354" stroke-linecap="round" stroke-linejoin="round"/>
    <path d="M 140.21151733398438 179.5352325439453 C 96.14067077636719 183.3419647216797 97.26471710205078 174.03240966796875 123.78653717041016 177.94956970214844" stroke-width="3.0" fill="none" stroke="rgb(3, -1, -2)" stroke-opacity="0.36019477" stroke-linecap="round" stroke-linejoin="round"/>
    <path d="M 102.86172485351562 72.85022735595703 C 114.94111633300781 114.43695831298828 133.05841064453125 116.89717864990234 103.88992309570312 74.40264892578125" stroke-width="3.0" fill="none" stroke="rgb(2, -1, -1)" stroke-opacity="0.46883142" stroke-linecap="round" stroke-linejoin="round"/>
    <path d="M 192.87364196777344 151.58438110351562 C 214.94740295410156 146.26087951660156 244.98683166503906 162.01710510253906 149.41151428222656 155.6611785888672" stroke-width="3.0" fill="none" stroke="rgb(-1, 1, 1)" stroke-opacity="0.31339037" stroke-linecap="round" stroke-linejoin="round"/>
    <path d="M 77.12430572509766 175.56304931640625 C 72.77558135986328 158.9531707763672 97.63067626953125 171.2510528564453 19.294124603271484 164.6357879638672" stroke-width="3.0" fill="none" stroke="rgb(0, -4, 3)" stroke-opacity="0.2743125" stroke-linecap="round" stroke-linejoin="round"/>
    <path d="M 136.09320068359375 151.12477111816406 C 139.1790008544922 141.12217712402344 130.8449249267578 111.7419662475586 103.7166519165039 94.72675323486328" stroke-width="3.0" fill="none" stroke="rgb(-1, 0, 0)" stroke-opacity="0.41168782" stroke-linecap="round" stroke-linejoin="round"/>
    <path d="M 64.1089859008789 86.11334228515625 C 76.13533782958984 123.94889831542969 82.81576538085938 114.4894790649414 65.35274505615234 87.93114471435547" stroke-width="3.0" fill="none" stroke="rgb(5, -4, -4)" stroke-opacity="0.43710616" stroke-linecap="round" stroke-linejoin="round"/>
    <path d="M 127.50445556640625 181.9465789794922 C 123.45016479492188 102.4594955444336 129.93478393554688 119.05200958251953 133.9176483154297 163.3188934326172" stroke-width="3.0" fill="none" stroke="rgb(1, 0, -1)" stroke-opacity="0.1076802" stroke-linecap="round" stroke-linejoin="round"/>
    <path d="M 74.02127075195312 131.51490783691406 C 64.5768814086914 155.0494384765625 90.5645523071289 132.55899047851562 38.34062957763672 148.45458984375" stroke-width="3.0" fill="none" stroke="rgb(0, -1, 1)" stroke-opacity="0.37968" stroke-linecap="round" stroke-linejoin="round"/>
    <path d="M 108.37586975097656 141.97023010253906 C 136.130859375 153.67340087890625 133.77493286132812 146.2743377685547 109.66568756103516 140.0233917236328" stroke-width="3.0" fill="none" stroke="rgb(-2, 2, 0)" stroke-opacity="0.7900514" stroke-linecap="round" stroke-linejoin="round"/>
    <path d="M 90.23695373535156 159.5601348876953 C 114.2112808227539 123.16691589355469 53.831119537353516 142.2083282470703 68.86713409423828 147.55218505859375" stroke-width="3.0" fill="none" stroke="rgb(2, 0, -1)" stroke-opacity="0.05112524" stroke-linecap="round" stroke-linejoin="round"/>
    <path d="M 134.21441650390625 82.221435546875 C 123.70492553710938 62.39374542236328 131.96548461914062 72.28825378417969 118.39472198486328 51.92118453979492" stroke-width="3.0" fill="none" stroke="rgb(2, 1, -2)" stroke-opacity="0.5472813" stroke-linecap="round" stroke-linejoin="round"/>
    <path d="M 103.89373779296875 189.0094451904297 C 284.0240173339844 189.28855895996094 241.48561096191406 198.18832397460938 116.88458251953125 207.20591735839844" stroke-width="3.0" fill="none" stroke="rgb(-1, 0, 0)" stroke-opacity="0.09962517" stroke-linecap="round" stroke-linejoin="round"/>
    <path d="M 21.77639389038086 165.87213134765625 C 160.70921325683594 175.6898193359375 141.47950744628906 176.1349639892578 19.37592887878418 167.08566284179688" stroke-width="3.0" fill="none" stroke="rgb(0, -3, 2)" stroke-opacity="0.25545484" stroke-linecap="round" stroke-linejoin="round"/>
    <path d="M 148.32972717285156 158.17776489257812 C 289.8820495605469 158.03338623046875 329.2342224121094 153.34725952148438 149.66673278808594 156.38002014160156" stroke-width="3.0" fill="none" stroke="rgb(2, -2, 2)" stroke-opacity="0.64489424" stroke-linecap="round" stroke-linejoin="round"/>
    <path d="M -5.868002414703369 157.2778778076172 C 92.47370147705078 170.88800048828125 94.27889251708984 168.7375946044922 -7.533931732177734 170.71961975097656" stroke-width="3.0" fill="none" stroke="rgb(-2, -1, 2)" stroke-opacity="0.1851761" stroke-linecap="round" stroke-linejoin="round"/>
    <path d="M 146.37403869628906 128.1707000732422 C 145.93539428710938 157.57315063476562 119.05357360839844 210.7173614501953 139.23768615722656 154.75511169433594" stroke-width="3.0" fill="none" stroke="rgb(0, 0, 1)" stroke-opacity="0.18001483" stroke-linecap="round" stroke-linejoin="round"/>
    <path d="M 72.21086883544922 111.15789031982422 C 80.86819458007812 94.5703353881836 73.40646362304688 72.54026794433594 68.47760009765625 137.20616149902344" stroke-width="3.0" fill="none" stroke="rgb(-1, 0, 1)" stroke-opacity="0.08952575" stroke-linecap="round" stroke-linejoin="round"/>
    <path d="M 176.0797882080078 233.34463500976562 C 179.7461700439453 229.65191650390625 180.78355407714844 234.90530395507812 184.03778076171875 235.67660522460938" stroke-width="3.0" fill="none" stroke="rgb(0, 0, 0)" stroke-opacity="0.8933173" stroke-linecap="round" stroke-linejoin="round"/>
    <path d="M 163.88430786132812 74.47057342529297 C 143.80027770996094 58.26146697998047 128.20150756835938 51.97517013549805 119.93058013916016 49.70177459716797" stroke-width="3.0" fill="none" stroke="rgb(0, -3, 1)" stroke-opacity="0.1380032" stroke-linecap="round" stroke-linejoin="round"/>
    <path d="M 110.76062774658203 92.7145767211914 C 129.65585327148438 131.47364807128906 141.42221069335938 161.59588623046875 121.25015258789062 116.75814819335938" stroke-width="3.0" fill="none" stroke="rgb(-1, -4, 8)" stroke-opacity="0.8819978" stroke-linecap="round" stroke-linejoin="round"/>
    <path d="M 223.62490844726562 189.1447296142578 C 77.82566833496094 178.8734588623047 126.31266784667969 189.57733154296875 210.84852600097656 203.4462432861328" stroke-width="3.0" fill="none" stroke="rgb(-1, 0, 3)" stroke-opacity="0.056278735" stroke-linecap="round" stroke-linejoin="round"/>
    <path d="M 124.7948989868164 198.968017578125 C 277.67059326171875 192.8151092529297 169.2410125732422 200.94949340820312 227.3846435546875 202.89199829101562" stroke-width="3.0" fill="none" stroke="rgb(2, 0, -3)" stroke-opacity="0.106771246" stroke-linecap="round" stroke-linejoin="round"/>
    <path d="M 99.6229019165039 143.3893585205078 C 84.5579605102539 133.16128540039062 98.6718521118164 136.15065002441406 75.69279479980469 132.48806762695312" stroke-width="3.0" fill="none" stroke="rgb(0, -2, 1)" stroke-opacity="0.36662197" stroke-linecap="round" stroke-linejoin="round"/>
    <path d="M 216.6623077392578 150.0654754638672 C 183.6090850830078 103.33861541748047 190.36880493164062 120.54743957519531 196.52102661132812 113.5487060546875" stroke-width="3.0" fill="none" stroke="rgb(-2, 0, 2)" stroke-opacity="0.15274775" stroke-linecap="round" stroke-linejoin="round"/>
    <path d="M 120.24374389648438 123.68053436279297 C 95.94217681884766 67.215576171875 120.55250549316406 91.18819427490234 137.86065673828125 151.17372131347656" stroke-width="3.0" fill="none" stroke="rgb(4, 1, -2)" stroke-opacity="0.98172593" stroke-linecap="round" stroke-linejoin="round"/>
    <path d="M 56.38589859008789 132.27989196777344 C 54.97853469848633 111.48948669433594 43.988582611083984 88.3731689453125 64.32559204101562 127.41331481933594" stroke-width="3.0" fill="none" stroke="rgb(0, 1, 0)" stroke-opacity="0.46191725" stroke-linecap="round" stroke-linejoin="round"/>
    <path d="M 69.98929595947266 154.25633239746094 C 128.20819091796875 187.46408081054688 65.79785919189453 153.828857421875 90.41017150878906 172.33924865722656" stroke-width="3.0" fill="none" stroke="rgb(-1, -1, 1)" stroke-opacity="0.26471764" stroke-linecap="round" stroke-linejoin="round"/>
    <path d="M 115.86632537841797 120.3177261352539 C 87.5718765258789 166.38661193847656 104.61174774169922 144.71124267578125 69.61137390136719 108.91016387939453" stroke-width="3.0" fill="none" stroke="rgb(-1, 0, 1)" stroke-opacity="0.039384697" stroke-linecap="round" stroke-linejoin="round"/>
    <path d="M 69.62814331054688 154.06886291503906 C 42.99479675292969 146.73887634277344 84.64907836914062 137.52395629882812 92.59297180175781 135.99526977539062" stroke-width="3.0" fill="none" stroke="rgb(0, 0, 0)" stroke-opacity="0.14042528" stroke-linecap="round" stroke-linejoin="round"/>
    <path d="M 71.91251373291016 217.82818603515625 C 29.585142135620117 219.8202362060547 -91.156005859375 208.85174560546875 53.8870735168457 208.62985229492188" stroke-width="3.0" fill="none" stroke="rgb(2, -2, 1)" stroke-opacity="0.043874856" stroke-linecap="round" stroke-linejoin="round"/>
    <path d="M 109.03662109375 194.09130859375 C 193.80250549316406 225.67959594726562 125.74337768554688 204.97120666503906 121.11554718017578 171.70108032226562" stroke-width="3.0" fill="none" stroke="rgb(-1, 0, 2)" stroke-opacity="0.042517573" stroke-linecap="round" stroke-linejoin="round"/>
    <path d="M 36.98333740234375 222.59536743164062 C 73.98082733154297 215.3555908203125 6.456245422363281 230.3767547607422 164.21646118164062 220.0492401123047" stroke-width="3.0" fill="none" stroke="rgb(-2, 1, 0)" stroke-opacity="0.08657283" stroke-linecap="round" stroke-linejoin="round"/>
    <path d="M 232.61270141601562 179.5477752685547 C 169.05020141601562 176.48004150390625 233.09140014648438 188.447998046875 153.8329620361328 181.8968963623047" stroke-width="3.0" fill="none" stroke="rgb(-2, 3, 3)" stroke-opacity="0.17347392" stroke-linecap="round" stroke-linejoin="round"/>
    <path d="M 225.67709350585938 181.90798950195312 C 32.76252746582031 175.50341796875 6.797613143920898 185.30569458007812 168.4496307373047 169.0690460205078" stroke-width="3.0" fill="none" stroke="rgb(-2, 2, -1)" stroke-opacity="0.24015002" stroke-linecap="round" stroke-linejoin="round"/>
    <path d="M 187.98838806152344 150.93222045898438 C 166.65487670898438 142.11216735839844 168.11953735351562 134.8284149169922 187.83514404296875 148.05044555664062" stroke-width="3.0" fill="none" stroke="rgb(-2, 1, 0)" stroke-opacity="0.50478363" stroke-linecap="round" stroke-linejoin="round"/>
    <path d="M 110.71612548828125 136.96051025390625 C 102.0072021484375 107.29150390625 161.1586456298828 184.234130859375 95.19625091552734 99.76199340820312" stroke-width="3.0" fill="none" stroke="rgb(-1, -1, 1)" stroke-opacity="0.086085595" stroke-linecap="round" stroke-linejoin="round"/>
    <path d="M 136.07656860351562 131.66123962402344 C 118.1095962524414 76.52954864501953 94.12926483154297 59.805110931396484 119.2842025756836 99.27135467529297" stroke-width="3.0" fill="none" stroke="rgb(0, 0, 0)" stroke-opacity="0.17733938" stroke-linecap="round" stroke-linejoin="round"/>
    <path d="M 113.31461334228516 199.55621337890625 C -33.585330963134766 188.51451110839844 -44.27934265136719 190.88194274902344 93.8833999633789 185.6294403076172" stroke-width="3.0" fill="none" stroke="rgb(-3, 2, 4)" stroke-opacity="0.06353738" stroke-linecap="round" stroke-linejoin="round"/>
    <path d="M 20.334827423095703 167.1138458251953 C 79.27587890625 163.00344848632812 45.70888900756836 202.79971313476562 51.41762161254883 161.26239013671875" stroke-width="3.0" fill="none" stroke="rgb(-1, -1, 2)" stroke-opacity="0.105069965" stroke-linecap="round" stroke-linejoin="round"/>
    <path d="M 160.4492645263672 75.1198501586914 C 89.93936157226562 44.449127197265625 122.298583984375 47.034122467041016 160.1426544189453 74.7611312866211" stroke-width="3.0" fill="none" stroke="rgb(0, 2, -2)" stroke-opacity="0.07237001" stroke-linecap="round" stroke-linejoin="round"/>
    <path d="M 108.68414306640625 91.07401275634766 C 107.52536010742188 116.6092758178711 123.0761947631836 102.98259735107422 88.72125244140625 93.69464111328125" stroke-width="3.0" fill="none" stroke="rgb(1, 1, 2)" stroke-opacity="0.8900639" stroke-linecap="round" stroke-linejoin="round"/>
    <path d="M 152.4612274169922 151.75692749023438 C 153.35633850097656 116.58726501464844 138.20193481445312 206.1752166748047 145.34396362304688 139.1415252685547" stroke-width="3.0" fill="none" stroke="rgb(-1, 1, 0)" stroke-opacity="0.3574364" stroke-linecap="round" stroke-linejoin="round"/>
    <path d="M 15.657346725463867 153.0216827392578 C 63.3856201171875 158.279052734375 109.29377746582031 122.64883422851562 65.01758575439453 140.47840881347656" stroke-width="3.0" fill="none" stroke="rgb(0, 0, 0)" stroke-opacity="0.168583" stroke-linecap="round" stroke-linejoin="round"/>
    <path d="M 172.5352020263672 178.49403381347656 C 97.52791595458984 195.1187286376953 113.66402435302734 195.80279541015625 119.21070098876953 145.518798828125" stroke-width="3.0" fill="none" stroke="rgb(0, 1, 1)" stroke-opacity="0.061756626" stroke-linecap="round" stroke-linejoin="round"/>
    <path d="M 121.06678009033203 122.10547637939453 C 104.20121765136719 64.94245147705078 100.68971252441406 84.07838439941406 122.14543151855469 115.61251831054688" stroke-width="3.0" fill="none" stroke="rgb(2, -2, -1)" stroke-opacity="0.998496" stroke-linecap="round" stroke-linejoin="round"/>
    <path d="M 102.95088958740234 74.00829315185547 C 103.2832260131836 125.96918487548828 119.65289306640625 131.6673126220703 101.0174331665039 70.89390563964844" stroke-width="3.0" fill="none" stroke="rgb(0, 1, 2)" stroke-opacity="0.62553656" stroke-linecap="round" stroke-linejoin="round"/>
    <path d="M 72.28453826904297 91.69133758544922 C 79.37488555908203 143.30787658691406 109.70674133300781 112.27942657470703 54.44782638549805 102.44591522216797" stroke-width="3.0" fill="none" stroke="rgb(0, -1, 1)" stroke-opacity="0.10845064" stroke-linecap="round" stroke-linejoin="round"/>
    <path d="M 90.48413848876953 131.28817749023438 C 61.450157165527344 85.45177459716797 60.96140670776367 80.6934585571289 94.0787124633789 132.00942993164062" stroke-width="3.0" fill="none" stroke="rgb(1, -1, 0)" stroke-opacity="0.18504217" stroke-linecap="round" stroke-linejoin="round"/>
    <path d="M 172.0455780029297 87.13906860351562 C 159.0556640625 66.430908203125 186.30999755859375 92.56730651855469 190.93946838378906 117.29269409179688" stroke-width="3.0" fill="none" stroke="rgb(-2, 1, 4)" stroke-opacity="0.07542245" stroke-linecap="round" stroke-linejoin="round"/>
    <path d="M 107.82763671875 87.17771911621094 C 102.24396514892578 113.52613067626953 104.06767272949219 106.97595977783203 118.29405212402344 124.08222961425781" stroke-width="3.0" fill="none" stroke="rgb(-2, 1, 2)" stroke-opacity="0.70962346" stroke-linecap="round" stroke-linejoin="round"/>
    <path d="M 86.73664093017578 92.4161376953125 C 94.60089874267578 97.13080596923828 103.82991027832031 123.35630798339844 100.5773696899414 112.41299438476562" stroke-width="3.0" fill="none" stroke="rgb(2, -2, 1)" stroke-opacity="0.50576824" stroke-linecap="round" stroke-linejoin="round"/>
    <path d="M 58.740299224853516 120.14306640625 C 52.78748321533203 171.951171875 112.03759765625 130.71385192871094 39.94355773925781 150.89175415039062" stroke-width="3.0" fill="none" stroke="rgb(-1, 0, 3)" stroke-opacity="0.2618839" stroke-linecap="round" stroke-linejoin="round"/>
    <path d="M 118.46585845947266 74.62476348876953 C 131.95550537109375 82.03691864013672 135.39981079101562 70.57776641845703 147.43309020996094 118.31594848632812" stroke-width="3.0" fill="none" stroke="rgb(-2, -2, 2)" stroke-opacity="0.30957714" stroke-linecap="round" stroke-linejoin="round"/>
    <path d="M 210.31024169921875 112.86100769042969 C 183.10902404785156 116.56226348876953 200.58163452148438 118.99950408935547 226.36251831054688 99.69934844970703" stroke-width="3.0" fill="none" stroke="rgb(1, 0, -1)" stroke-opacity="0.056512848" stroke-linecap="round" stroke-linejoin="round"/>
    <path d="M 36.18711853027344 143.8932342529297 C 67.61923217773438 133.25534057617188 62.75922393798828 133.98191833496094 51.22753143310547 104.35238647460938" stroke-width="3.0" fill="none" stroke="rgb(-2, 1, 2)" stroke-opacity="0.35569158" stroke-linecap="round" stroke-linejoin="round"/>
    <path d="M 159.9872589111328 169.9234161376953 C 102.0475082397461 157.91908264160156 130.8182830810547 214.71630859375 121.93893432617188 149.46969604492188" stroke-width="3.0" fill="none" stroke="rgb(-1, 1, 1)" stroke-opacity="0.12071552" stroke-linecap="round" stroke-linejoin="round"/>
    <path d="M 128.4331817626953 145.00006103515625 C 116.8665542602539 131.06578063964844 101.62635803222656 144.6261444091797 111.15272521972656 142.747314453125" stroke-width="3.0" fill="none" stroke="rgb(-1, 0, 1)" stroke-opacity="0.42293757" stroke-linecap="round" stroke-linejoin="round"/>
    <path d="M 57.46979904174805 165.9499969482422 C 10.087050437927246 109.79145812988281 32.50926971435547 228.80645751953125 28.276260375976562 157.13645935058594" stroke-width="3.0" fill="none" stroke="rgb(0, 1, 1)" stroke-opacity="0.17247483" stroke-linecap="round" stroke-linejoin="round"/>
    <path d="M 19.64244270324707 158.7063446044922 C 98.58042907714844 179.56884765625 58.85878372192383 168.4636688232422 63.83320617675781 184.7886505126953" stroke-width="3.0" fill="none" stroke="rgb(0, 0, 0)" stroke-opacity="0.08807663" stroke-linecap="round" stroke-linejoin="round"/>
    <path d="M 72.76942443847656 206.45298767089844 C 102.26583862304688 204.69349670410156 65.1347885131836 209.422607421875 106.13432312011719 206.9986114501953" stroke-width="3.0" fill="none" stroke="rgb(1, 0, 0)" stroke-opacity="0.04969226" stroke-linecap="round" stroke-linejoin="round"/>
    <path d="M 237.18521118164062 184.20263671875 C 250.18511962890625 178.46263122558594 196.17007446289062 178.88134765625 247.07261657714844 181.87673950195312" stroke-width="3.0" fill="none" stroke="rgb(0, 0, 0)" stroke-opacity="0.1635961" stroke-linecap="round" stroke-linejoin="round"/>
    <path d="M 115.00357818603516 178.75062561035156 C 73.24549102783203 184.7979278564453 68.29412841796875 177.90145874023438 -14.363834381103516 178.2352752685547" stroke-width="3.0" fill="none" stroke="rgb(-2, 0, 2)" stroke-opacity="0.38423273" stroke-linecap="round" stroke-linejoin="round"/>
    <path d="M 159.49563598632812 73.0745849609375 C 89.42804718017578 39.08983612060547 123.80830383300781 49.85176467895508 156.46957397460938 70.26702880859375" stroke-width="3.0" fill="none" stroke="rgb(0, 1, -1)" stroke-opacity="0.070362784" stroke-linecap="round" stroke-linejoin="round"/>
    <path d="M 230.079833984375 170.77877807617188 C 24.41255760192871 166.3046417236328 90.33311462402344 170.04190063476562 208.75167846679688 144.54640197753906" stroke-width="3.0" fill="none" stroke="rgb(-2, 1, 2)" stroke-opacity="0.25610372" stroke-linecap="round" stroke-linejoin="round"/>
    <path d="M 72.8236312866211 161.7861328125 C 78.41429138183594 182.84324645996094 62.99909973144531 147.2958221435547 11.164697647094727 158.30303955078125" stroke-width="3.0" fill="none" stroke="rgb(0, 0, 1)" stroke-opacity="0.21366173" stroke-linecap="round" stroke-linejoin="round"/>
    <path d="M 127.64322662353516 61.99001693725586 C 172.91371154785156 87.69042205810547 156.47970581054688 66.33263397216797 175.25296020507812 85.09712982177734" stroke-width="3.0" fill="none" stroke="rgb(0, 0, -1)" stroke-opacity="0.035640612" stroke-linecap="round" stroke-linejoin="round"/>
    <path d="M 187.5441131591797 147.55841064453125 C 154.27989196777344 150.6609344482422 116.45201873779297 150.78323364257812 187.9130096435547 152.33856201171875" stroke-width="3.0" fill="none" stroke="rgb(-1, 2, 2)" stroke-opacity="0.6553814" stroke-linecap="round" stroke-linejoin="round"/>
    <path d="M 100.14025115966797 143.6493377685547 C 84.9722671508789 122.77416229248047 89.64842987060547 120.87069702148438 72.2527084350586 98.40340423583984" stroke-width="3.0" fill="none" stroke="rgb(0, -2, 3)" stroke-opacity="0.41390184" stroke-linecap="round" stroke-linejoin="round"/>
    <path d="M 111.00177764892578 106.49849700927734 C 133.53225708007812 146.19635009765625 122.99514770507812 122.49877166748047 135.9810791015625 149.55633544921875" stroke-width="3.0" fill="none" stroke="rgb(2, 0, 3)" stroke-opacity="0.7783086" stroke-linecap="round" stroke-linejoin="round"/>
    <path d="M 64.18083190917969 195.78858947753906 C -6.2489914894104 218.0128936767578 -45.70992660522461 182.68820190429688 63.35991668701172 203.12368774414062" stroke-width="3.0" fill="none" stroke="rgb(2, -2, -1)" stroke-opacity="0.062722415" stroke-linecap="round" stroke-linejoin="round"/>
    <path d="M 189.85763549804688 130.55528259277344 C 189.8475341796875 171.6246337890625 166.68112182617188 137.70986938476562 187.39181518554688 125.59893035888672" stroke-width="3.0" fill="none" stroke="rgb(-3, 0, 3)" stroke-opacity="0.1485026" stroke-linecap="round" stroke-linejoin="round"/>
    <path d="M 131.29537963867188 202.23085021972656 C 224.59471130371094 215.3707275390625 144.62521362304688 205.1038360595703 222.72879028320312 209.45187377929688" stroke-width="3.0" fill="none" stroke="rgb(2, -1, 0)" stroke-opacity="0.063729055" stroke-linecap="round" stroke-linejoin="round"/>
    <path d="M 63.90285873413086 85.20228576660156 C 66.655517578125 93.5215072631836 66.052490234375 94.65914916992188 69.18670654296875 115.27839660644531" stroke-width="3.0" fill="none" stroke="rgb(0, -1, 1)" stroke-opacity="0.31871143" stroke-linecap="round" stroke-linejoin="round"/>
    <path d="M 88.88761901855469 93.11111450195312 C 146.86495971679688 149.03125 141.7042236328125 176.61532592773438 103.96471405029297 75.00718688964844" stroke-width="3.0" fill="none" stroke="rgb(2, -2, 1)" stroke-opacity="0.6050728" stroke-linecap="round" stroke-linejoin="round"/>
  </g>
</svg>
