<?xml version="1.0" ?>
<svg xmlns="http://www.w3.org/2000/svg" version="1.1" width="224" height="224">
  <defs/>
  <g>
    <path d="M 100.99591827392578 102.00008392333984 C 99.7206802368164 109.22734069824219 99.6349105834961 105.37751770019531 96.77765655517578 105.79508209228516" stroke-width="3.0" fill="none" stroke="rgb(-2, 2, 2)" stroke-opacity="0.9900001" stroke-linecap="round" stroke-linejoin="round"/>
    <path d="M 190.00009155273438 127.00003051757812 C 186.84844970703125 127.65452575683594 182.43478393554688 130.0023651123047 180.41563415527344 125.10953521728516" stroke-width="3.0" fill="none" stroke="rgb(2, 2, 2)" stroke-opacity="0.99" stroke-linecap="round" stroke-linejoin="round"/>
    <path d="M 22.000268936157227 203.00018310546875 C 19.373483657836914 199.8638153076172 20.395721435546875 196.88587951660156 22.380651473999023 191.41795349121094" stroke-width="3.0" fill="none" stroke="rgb(2, 2, 2)" stroke-opacity="0.99" stroke-linecap="round" stroke-linejoin="round"/>
    <path d="M 106.00011444091797 100.98939514160156 C 111.3638916015625 98.7237548828125 113.65293884277344 101.5062255859375 111.60601806640625 104.11873626708984" stroke-width="3.0" fill="none" stroke="rgb(2, 2, -2)" stroke-opacity="1.0099977" stroke-linecap="round" stroke-linejoin="round"/>
    <path d="M 103.99911499023438 135.00111389160156 C 102.52345275878906 132.0339813232422 100.20287322998047 135.5800018310547 99.7127914428711 133.20138549804688" stroke-width="3.0" fill="none" stroke="rgb(2, 2, 2)" stroke-opacity="0.9900004" stroke-linecap="round" stroke-linejoin="round"/>
    <path d="M 156.99990844726562 72.99867248535156 C 160.0652618408203 70.4817123413086 165.11611938476562 68.05500030517578 170.16842651367188 65.85455322265625" stroke-width="3.0" fill="none" stroke="rgb(2, 2, 2)" stroke-opacity="0.99" stroke-linecap="round" stroke-linejoin="round"/>
    <path d="M 168.99952697753906 148.0001220703125 C 161.5631866455078 151.151123046875 159.8994140625 150.13858032226562 165.304931640625 151.7206268310547" stroke-width="3.0" fill="none" stroke="rgb(-2, 2, 2)" stroke-opacity="0.99000007" stroke-linecap="round" stroke-linejoin="round"/>
    <path d="M 36.99993133544922 143.00013732910156 C 32.36729431152344 140.28927612304688 33.42928695678711 138.84710693359375 36.34719467163086 141.67034912109375" stroke-width="3.0" fill="none" stroke="rgb(2, 2, 2)" stroke-opacity="0.99000007" stroke-linecap="round" stroke-linejoin="round"/>
    <path d="M 122.00004577636719 144.9998016357422 C 123.00468444824219 148.34146118164062 125.61628723144531 149.5183868408203 124.57723999023438 148.1404266357422" stroke-width="3.0" fill="none" stroke="rgb(2, 2, -2)" stroke-opacity="0.9900001" stroke-linecap="round" stroke-linejoin="round"/>
    <path d="M 61.00004959106445 162.99949645996094 C 57.66177749633789 165.44287109375 55.53418731689453 167.6447296142578 54.50661087036133 171.37213134765625" stroke-width="3.0" fill="none" stroke="rgb(2, 2, 2)" stroke-opacity="0.99" stroke-linecap="round" stroke-linejoin="round"/>
    <path d="M 12.000210762023926 172.9998779296875 C 10.356825828552246 175.08287048339844 7.084792613983154 176.1551971435547 4.667598247528076 173.96817016601562" stroke-width="3.0" fill="none" stroke="rgb(2, 2, -2)" stroke-opacity="0.99000007" stroke-linecap="round" stroke-linejoin="round"/>
    <path d="M 146.0001983642578 167.99984741210938 C 146.7471923828125 170.47608947753906 150.83575439453125 168.04281616210938 149.08348083496094 171.07830810546875" stroke-width="3.0" fill="none" stroke="rgb(2, 2, 2)" stroke-opacity="0.99000007" stroke-linecap="round" stroke-linejoin="round"/>
    <path d="M 118.00017547607422 162.99993896484375 C 115.09950256347656 167.06488037109375 120.07955932617188 166.2158203125 122.91118621826172 165.45855712890625" stroke-width="3.0" fill="none" stroke="rgb(2, 2, 2)" stroke-opacity="0.99000007" stroke-linecap="round" stroke-linejoin="round"/>
    <path d="M 115.00004577636719 187.0000457763672 C 117.05380249023438 185.78338623046875 116.08863830566406 182.8323211669922 112.74911499023438 185.130859375" stroke-width="3.0" fill="none" stroke="rgb(2, 2, 2)" stroke-opacity="0.99000007" stroke-linecap="round" stroke-linejoin="round"/>
    <path d="M 199.00018310546875 114.99983978271484 C 200.09788513183594 114.84300231933594 201.32455444335938 118.49064636230469 201.0809326171875 117.25041198730469" stroke-width="3.0" fill="none" stroke="rgb(2, 2, 2)" stroke-opacity="0.99000007" stroke-linecap="round" stroke-linejoin="round"/>
    <path d="M 82.00092315673828 117.00279235839844 C 81.90878295898438 113.83248901367188 87.7165756225586 114.50447845458984 86.97512817382812 112.27940368652344" stroke-width="3.0" fill="none" stroke="rgb(2, 2, 2)" stroke-opacity="0.99000007" stroke-linecap="round" stroke-linejoin="round"/>
    <path d="M 103.00016021728516 136.9998779296875 C 104.07807159423828 130.05384826660156 99.15599822998047 134.2352752685547 98.88493347167969 134.7923583984375" stroke-width="3.0" fill="none" stroke="rgb(2, 2, 2)" stroke-opacity="0.9900008" stroke-linecap="round" stroke-linejoin="round"/>
    <path d="M 118.00016021728516 95.99992370605469 C 116.8426742553711 100.6596908569336 116.37995147705078 104.16858673095703 110.7630386352539 101.3897933959961" stroke-width="3.0" fill="none" stroke="rgb(2, 2, 2)" stroke-opacity="0.99000007" stroke-linecap="round" stroke-linejoin="round"/>
    <path d="M 220.00006103515625 108.00007629394531 C 216.93136596679688 104.94889831542969 217.38748168945312 100.26670837402344 218.5438232421875 100.04444885253906" stroke-width="3.0" fill="none" stroke="rgb(2, 2, 2)" stroke-opacity="0.99" stroke-linecap="round" stroke-linejoin="round"/>
    <path d="M 150.99993896484375 220.00010681152344 C 152.83094787597656 217.55860900878906 152.9081268310547 212.32281494140625 155.59619140625 215.5419921875" stroke-width="3.0" fill="none" stroke="rgb(2, 2, 2)" stroke-opacity="0.99" stroke-linecap="round" stroke-linejoin="round"/>
    <path d="M 129.00030517578125 124.00035095214844 C 128.8875732421875 128.0693359375 123.32884216308594 132.39918518066406 127.315185546875 132.47113037109375" stroke-width="3.0" fill="none" stroke="rgb(2, 2, 2)" stroke-opacity="0.99000025" stroke-linecap="round" stroke-linejoin="round"/>
    <path d="M 82.99988555908203 89.00015258789062 C 85.63945007324219 94.0764389038086 86.50151824951172 89.01483154296875 89.3832778930664 92.08736419677734" stroke-width="3.0" fill="none" stroke="rgb(2, 2, 2)" stroke-opacity="0.99000007" stroke-linecap="round" stroke-linejoin="round"/>
    <path d="M 123.9998550415039 181.9998016357422 C 124.40355682373047 178.69589233398438 127.44830322265625 183.45132446289062 130.19879150390625 181.6322479248047" stroke-width="3.0" fill="none" stroke="rgb(2, 2, 2)" stroke-opacity="0.99000007" stroke-linecap="round" stroke-linejoin="round"/>
    <path d="M 109.99937438964844 103.84632110595703 C 110.24234008789062 98.27649688720703 107.66607666015625 99.98664855957031 109.3577651977539 94.8621826171875" stroke-width="3.0" fill="none" stroke="rgb(-2, 2, 2)" stroke-opacity="1.0099978" stroke-linecap="round" stroke-linejoin="round"/>
    <path d="M 194.99981689453125 155.00010681152344 C 197.8724365234375 157.01953125 196.3604736328125 152.3525390625 194.90362548828125 154.4564666748047" stroke-width="3.0" fill="none" stroke="rgb(2, 2, 2)" stroke-opacity="0.99000007" stroke-linecap="round" stroke-linejoin="round"/>
    <path d="M 49.99825668334961 168.99774169921875 C 44.5003547668457 171.66648864746094 42.23280715942383 175.4259796142578 35.107215881347656 176.23785400390625" stroke-width="3.0" fill="none" stroke="rgb(2, 2, 2)" stroke-opacity="0.99000007" stroke-linecap="round" stroke-linejoin="round"/>
    <path d="M 130.0000762939453 137.9966278076172 C 130.4460906982422 132.8400115966797 130.6194305419922 133.97776794433594 130.5282440185547 128.56524658203125" stroke-width="3.0" fill="none" stroke="rgb(2, 2, 2)" stroke-opacity="0.9900002" stroke-linecap="round" stroke-linejoin="round"/>
    <path d="M 68.99987030029297 103.999755859375 C 68.95331573486328 102.07520294189453 74.31165313720703 101.07528686523438 77.10291290283203 104.9853286743164" stroke-width="3.0" fill="none" stroke="rgb(2, 2, -2)" stroke-opacity="0.9900001" stroke-linecap="round" stroke-linejoin="round"/>
    <path d="M 131.9999237060547 128.00390625 C 125.06019592285156 129.409912109375 130.11019897460938 126.30072784423828 133.10585021972656 125.50347137451172" stroke-width="3.0" fill="none" stroke="rgb(2, 2, 2)" stroke-opacity="0.99000025" stroke-linecap="round" stroke-linejoin="round"/>
    <path d="M 57.0975341796875 133.99986267089844 C 59.54883575439453 133.43312072753906 62.70218276977539 134.921142578125 55.88837432861328 134.56187438964844" stroke-width="3.0" fill="none" stroke="rgb(2, 2, 2)" stroke-opacity="0.9900001" stroke-linecap="round" stroke-linejoin="round"/>
    <path d="M 142.99948120117188 152.00025939941406 C 139.5771026611328 152.05055236816406 134.45980834960938 152.29222106933594 141.32789611816406 153.7852325439453" stroke-width="3.0" fill="none" stroke="rgb(2, 2, 2)" stroke-opacity="0.9900002" stroke-linecap="round" stroke-linejoin="round"/>
    <path d="M 66.99967956542969 142.0009765625 C 66.66155242919922 139.52963256835938 67.66083526611328 144.21731567382812 71.20342254638672 140.66307067871094" stroke-width="3.0" fill="none" stroke="rgb(2, 2, 2)" stroke-opacity="0.99000007" stroke-linecap="round" stroke-linejoin="round"/>
    <path d="M 131.00035095214844 80.00020599365234 C 131.5881805419922 78.57927703857422 128.5117645263672 81.8040771484375 125.7376708984375 78.07308197021484" stroke-width="3.0" fill="none" stroke="rgb(2, 2, 2)" stroke-opacity="0.99000007" stroke-linecap="round" stroke-linejoin="round"/>
    <path d="M 140.99966430664062 186.9999542236328 C 133.98675537109375 188.7851104736328 138.05197143554688 188.4757843017578 137.70623779296875 192.25047302246094" stroke-width="3.0" fill="none" stroke="rgb(2, 2, 2)" stroke-opacity="0.99000007" stroke-linecap="round" stroke-linejoin="round"/>
    <path d="M 35.00012969970703 168.9998016357422 C 35.733272552490234 167.77191162109375 32.48432159423828 169.8543243408203 27.824846267700195 168.33436584472656" stroke-width="3.0" fill="none" stroke="rgb(2, 2, 2)" stroke-opacity="0.99000007" stroke-linecap="round" stroke-linejoin="round"/>
    <path d="M 159.0001220703125 157.0003204345703 C 161.82159423828125 157.5646209716797 158.764404296875 156.41067504882812 153.90203857421875 156.2982635498047" stroke-width="3.0" fill="none" stroke="rgb(2, 2, 2)" stroke-opacity="0.99000007" stroke-linecap="round" stroke-linejoin="round"/>
    <path d="M 48.99982833862305 169.999267578125 C 47.17991638183594 172.8759002685547 47.30878448486328 178.18495178222656 49.7894172668457 183.593994140625" stroke-width="3.0" fill="none" stroke="rgb(2, 2, 2)" stroke-opacity="0.99000007" stroke-linecap="round" stroke-linejoin="round"/>
    <path d="M 136.0001983642578 142.00680541992188 C 133.2834930419922 146.91273498535156 131.46730041503906 139.76612854003906 134.8787841796875 146.38592529296875" stroke-width="3.0" fill="none" stroke="rgb(2, 2, 2)" stroke-opacity="0.9900001" stroke-linecap="round" stroke-linejoin="round"/>
    <path d="M 74.99916076660156 101.001220703125 C 70.52951049804688 100.7770004272461 74.99870300292969 96.5227279663086 79.2160415649414 93.75692749023438" stroke-width="3.0" fill="none" stroke="rgb(2, 2, -2)" stroke-opacity="0.99" stroke-linecap="round" stroke-linejoin="round"/>
    <path d="M 180.99960327148438 221.9999542236328 C 182.0270538330078 226.06735229492188 185.07867431640625 229.63778686523438 187.98294067382812 231.76133728027344" stroke-width="3.0" fill="none" stroke="rgb(2, 2, 2)" stroke-opacity="0.99000007" stroke-linecap="round" stroke-linejoin="round"/>
    <path d="M 139.99986267089844 64.0005874633789 C 137.52822875976562 60.27759552001953 138.21578979492188 61.1027717590332 138.883056640625 63.37500762939453" stroke-width="3.0" fill="none" stroke="rgb(2, 2, 2)" stroke-opacity="0.9900001" stroke-linecap="round" stroke-linejoin="round"/>
    <path d="M 131.0003204345703 123.00055694580078 C 133.4647979736328 127.65934753417969 136.88551330566406 132.52955627441406 139.1392364501953 131.3651123046875" stroke-width="3.0" fill="none" stroke="rgb(2, 2, 2)" stroke-opacity="0.99000007" stroke-linecap="round" stroke-linejoin="round"/>
    <path d="M 168.00009155273438 184.0000457763672 C 175.5096435546875 182.8356475830078 174.22779846191406 185.41319274902344 174.35765075683594 182.2025146484375" stroke-width="3.0" fill="none" stroke="rgb(2, 2, 2)" stroke-opacity="0.99" stroke-linecap="round" stroke-linejoin="round"/>
    <path d="M 166.00009155273438 195.0001678466797 C 167.69187927246094 193.9993438720703 171.21014404296875 189.64952087402344 175.5110626220703 187.65528869628906" stroke-width="3.0" fill="none" stroke="rgb(2, 2, 2)" stroke-opacity="0.99" stroke-linecap="round" stroke-linejoin="round"/>
    <path d="M 86.99988555908203 137.00018310546875 C 86.18021392822266 133.5068817138672 82.0527114868164 133.9352264404297 75.9998779296875 136.16937255859375" stroke-width="3.0" fill="none" stroke="rgb(2, 2, 2)" stroke-opacity="0.99000007" stroke-linecap="round" stroke-linejoin="round"/>
    <path d="M 216.00015258789062 116.00006103515625 C 211.40670776367188 114.77094268798828 207.19883728027344 110.27915954589844 209.11526489257812 113.84871673583984" stroke-width="3.0" fill="none" stroke="rgb(2, 2, 2)" stroke-opacity="0.99" stroke-linecap="round" stroke-linejoin="round"/>
    <path d="M 118.00028228759766 121.00066375732422 C 122.79083251953125 117.8205795288086 125.29383850097656 115.74317169189453 128.77719116210938 115.74771118164062" stroke-width="3.0" fill="none" stroke="rgb(2, 2, 2)" stroke-opacity="0.99000007" stroke-linecap="round" stroke-linejoin="round"/>
    <path d="M 56.9998664855957 114.99966430664062 C 54.839603424072266 111.97088623046875 49.621891021728516 109.67037200927734 51.64118576049805 108.54428100585938" stroke-width="3.0" fill="none" stroke="rgb(2, 2, -2)" stroke-opacity="0.99000007" stroke-linecap="round" stroke-linejoin="round"/>
    <path d="M 97.99984741210938 165.00009155273438 C 96.46853637695312 163.32012939453125 96.85956573486328 163.04026794433594 100.16876983642578 167.7743377685547" stroke-width="3.0" fill="none" stroke="rgb(2, 2, -2)" stroke-opacity="0.99000007" stroke-linecap="round" stroke-linejoin="round"/>
    <path d="M 102.9994125366211 133.9996795654297 C 98.351318359375 138.96194458007812 96.05767059326172 139.1394500732422 88.9691390991211 138.3072967529297" stroke-width="3.0" fill="none" stroke="rgb(2, 2, 2)" stroke-opacity="0.99000007" stroke-linecap="round" stroke-linejoin="round"/>
    <path d="M 75.002197265625 147.00006103515625 C 73.61339569091797 146.71084594726562 73.53578186035156 139.7120361328125 74.38019561767578 140.44113159179688" stroke-width="3.0" fill="none" stroke="rgb(2, 2, 2)" stroke-opacity="0.99000007" stroke-linecap="round" stroke-linejoin="round"/>
    <path d="M 68.99950408935547 220.9999237060547 C 63.92638397216797 222.6551055908203 63.19821548461914 224.95887756347656 62.370330810546875 224.02078247070312" stroke-width="3.0" fill="none" stroke="rgb(2, 2, 2)" stroke-opacity="0.99000007" stroke-linecap="round" stroke-linejoin="round"/>
    <path d="M 130.00050354003906 182.99720764160156 C 134.09320068359375 179.07415771484375 134.66116333007812 182.081298828125 134.08465576171875 184.98529052734375" stroke-width="3.0" fill="none" stroke="rgb(2, 2, 2)" stroke-opacity="0.99000007" stroke-linecap="round" stroke-linejoin="round"/>
    <path d="M 81.00004577636719 217.00140380859375 C 77.78616333007812 213.91390991210938 79.67825317382812 218.56271362304688 82.39273834228516 223.40611267089844" stroke-width="3.0" fill="none" stroke="rgb(2, 2, 2)" stroke-opacity="0.99000007" stroke-linecap="round" stroke-linejoin="round"/>
    <path d="M 205.99986267089844 182.0000762939453 C 201.20944213867188 180.7110595703125 206.5416717529297 184.2313232421875 202.8934783935547 183.453369140625" stroke-width="3.0" fill="none" stroke="rgb(2, 2, 2)" stroke-opacity="0.99000007" stroke-linecap="round" stroke-linejoin="round"/>
    <path d="M 157.98272705078125 182.99990844726562 C 155.41470336914062 186.3932342529297 154.4818115234375 184.18048095703125 157.27488708496094 184.70884704589844" stroke-width="3.0" fill="none" stroke="rgb(2, 2, 2)" stroke-opacity="0.99000007" stroke-linecap="round" stroke-linejoin="round"/>
    <path d="M 177.0001983642578 141.00515747070312 C 177.09738159179688 138.81088256835938 176.71791076660156 138.01535034179688 172.78565979003906 136.0553741455078" stroke-width="3.0" fill="none" stroke="rgb(2, 2, 2)" stroke-opacity="0.99000007" stroke-linecap="round" stroke-linejoin="round"/>
    <path d="M 103.00008392333984 133.99981689453125 C 99.78336334228516 131.8274688720703 104.55682373046875 125.61798095703125 104.72856903076172 129.75592041015625" stroke-width="3.0" fill="none" stroke="rgb(2, 2, 2)" stroke-opacity="0.9900001" stroke-linecap="round" stroke-linejoin="round"/>
    <path d="M 120.00008392333984 99.00052642822266 C 115.94757080078125 101.20391845703125 114.98262023925781 98.53356170654297 119.84834289550781 97.83653259277344" stroke-width="3.0" fill="none" stroke="rgb(2, 2, -2)" stroke-opacity="0.9900001" stroke-linecap="round" stroke-linejoin="round"/>
    <path d="M 78.00048828125 197.9998321533203 C 84.60344696044922 194.66134643554688 89.71792602539062 195.56979370117188 90.77909851074219 194.91180419921875" stroke-width="3.0" fill="none" stroke="rgb(2, 2, 2)" stroke-opacity="0.99" stroke-linecap="round" stroke-linejoin="round"/>
    <path d="M 49.00007629394531 163.00006103515625 C 54.2060546875 158.56768798828125 57.920616149902344 155.46910095214844 54.624412536621094 151.98638916015625" stroke-width="3.0" fill="none" stroke="rgb(2, 2, 2)" stroke-opacity="0.99000007" stroke-linecap="round" stroke-linejoin="round"/>
    <path d="M 149.00009155273438 72.9996109008789 C 146.48435974121094 74.48217010498047 144.15814208984375 71.48150634765625 141.3836212158203 73.49932861328125" stroke-width="3.0" fill="none" stroke="rgb(2, 2, 2)" stroke-opacity="0.99" stroke-linecap="round" stroke-linejoin="round"/>
    <path d="M 97.99993133544922 101.99987030029297 C 95.94068145751953 103.21306610107422 90.67721557617188 100.49382019042969 86.45491790771484 101.48404693603516" stroke-width="3.0" fill="none" stroke="rgb(2, 2, 2)" stroke-opacity="0.99000007" stroke-linecap="round" stroke-linejoin="round"/>
    <path d="M 153.00010681152344 152.0001220703125 C 154.04942321777344 148.36085510253906 153.38107299804688 146.58665466308594 151.31687927246094 149.9690399169922" stroke-width="3.0" fill="none" stroke="rgb(-2, 2, 2)" stroke-opacity="0.9900002" stroke-linecap="round" stroke-linejoin="round"/>
    <path d="M 64.99977111816406 142.99990844726562 C 69.01204681396484 138.20225524902344 68.04493713378906 138.4145050048828 66.42923736572266 133.35523986816406" stroke-width="3.0" fill="none" stroke="rgb(2, 2, 2)" stroke-opacity="0.99000007" stroke-linecap="round" stroke-linejoin="round"/>
    <path d="M 144.0000762939453 177.00010681152344 C 143.68081665039062 177.6839599609375 142.94361877441406 177.3848419189453 143.20399475097656 171.8541717529297" stroke-width="3.0" fill="none" stroke="rgb(2, 2, -2)" stroke-opacity="0.99000007" stroke-linecap="round" stroke-linejoin="round"/>
    <path d="M 113.99984741210938 98.00019073486328 C 111.7523193359375 95.7008056640625 104.5143814086914 92.9112548828125 105.22704315185547 94.04706573486328" stroke-width="3.0" fill="none" stroke="rgb(2, 2, -2)" stroke-opacity="0.9900001" stroke-linecap="round" stroke-linejoin="round"/>
    <path d="M 105.00006866455078 76.00006103515625 C 105.1331558227539 82.42807006835938 106.0462646484375 84.20235443115234 107.37954711914062 82.3724136352539" stroke-width="3.0" fill="none" stroke="rgb(2, 2, -2)" stroke-opacity="0.9900002" stroke-linecap="round" stroke-linejoin="round"/>
    <path d="M 75.00038146972656 115.0000991821289 C 71.52133178710938 109.84854888916016 73.93546295166016 113.70372009277344 72.54741668701172 114.00971221923828" stroke-width="3.0" fill="none" stroke="rgb(2, 2, 2)" stroke-opacity="0.99000007" stroke-linecap="round" stroke-linejoin="round"/>
    <path d="M 84.99983978271484 119.99972534179688 C 77.8797836303711 118.29585266113281 81.90787506103516 113.55448150634766 83.25563049316406 114.90998840332031" stroke-width="3.0" fill="none" stroke="rgb(2, 2, 2)" stroke-opacity="0.9900005" stroke-linecap="round" stroke-linejoin="round"/>
    <path d="M 168.99990844726562 84.99943542480469 C 172.95956420898438 82.91735076904297 175.01780700683594 79.67379760742188 173.0774688720703 80.47117614746094" stroke-width="3.0" fill="none" stroke="rgb(2, 2, 2)" stroke-opacity="0.99" stroke-linecap="round" stroke-linejoin="round"/>
    <path d="M 104.9999008178711 99.99990844726562 C 99.9141616821289 99.34379577636719 107.34384155273438 102.8602294921875 110.47127532958984 104.7206802368164" stroke-width="3.0" fill="none" stroke="rgb(2, 2, 2)" stroke-opacity="0.99000007" stroke-linecap="round" stroke-linejoin="round"/>
    <path d="M 107.0003433227539 113.99974822998047 C 109.3546142578125 115.68042755126953 114.57351684570312 113.677490234375 115.36881256103516 110.96798706054688" stroke-width="3.0" fill="none" stroke="rgb(2, 2, 2)" stroke-opacity="0.99000007" stroke-linecap="round" stroke-linejoin="round"/>
    <path d="M 63.0191650390625 132.99879455566406 C 69.1656494140625 131.72288513183594 65.16094970703125 132.80296325683594 60.958805084228516 133.1923828125" stroke-width="3.0" fill="none" stroke="rgb(2, 2, -2)" stroke-opacity="0.9900001" stroke-linecap="round" stroke-linejoin="round"/>
    <path d="M 135.00009155273438 83.00016784667969 C 139.41696166992188 88.7095718383789 137.6758575439453 90.069580078125 136.1148223876953 85.2637710571289" stroke-width="3.0" fill="none" stroke="rgb(2, -2, 2)" stroke-opacity="0.9900001" stroke-linecap="round" stroke-linejoin="round"/>
    <path d="M 212.00003051757812 115.99993133544922 C 211.24668884277344 113.46244812011719 210.88763427734375 109.99168395996094 207.97409057617188 105.70735168457031" stroke-width="3.0" fill="none" stroke="rgb(2, 2, 2)" stroke-opacity="0.99000007" stroke-linecap="round" stroke-linejoin="round"/>
    <path d="M 59.00150680541992 118.99945831298828 C 55.651493072509766 118.16168975830078 60.912864685058594 118.77996063232422 63.59770584106445 122.92703247070312" stroke-width="3.0" fill="none" stroke="rgb(2, -2, 2)" stroke-opacity="0.9900001" stroke-linecap="round" stroke-linejoin="round"/>
    <path d="M 133.00015258789062 178.00015258789062 C 136.3516387939453 180.77130126953125 137.00477600097656 175.9610137939453 140.2109375 176.81231689453125" stroke-width="3.0" fill="none" stroke="rgb(2, 2, 2)" stroke-opacity="0.99000007" stroke-linecap="round" stroke-linejoin="round"/>
    <path d="M 110.00010681152344 140.99989318847656 C 113.20466613769531 142.72744750976562 109.20845794677734 146.4994659423828 112.28736114501953 139.6981658935547" stroke-width="3.0" fill="none" stroke="rgb(-2, 2, -2)" stroke-opacity="0.99000055" stroke-linecap="round" stroke-linejoin="round"/>
    <path d="M 36.00008773803711 141.9998779296875 C 41.043418884277344 146.2041778564453 39.480125427246094 148.54754638671875 38.473026275634766 148.0383758544922" stroke-width="3.0" fill="none" stroke="rgb(2, 2, 2)" stroke-opacity="0.99000007" stroke-linecap="round" stroke-linejoin="round"/>
    <path d="M 53.99985122680664 164.9999237060547 C 56.72843933105469 164.35049438476562 55.684234619140625 164.04400634765625 51.81999588012695 161.90542602539062" stroke-width="3.0" fill="none" stroke="rgb(2, 2, 2)" stroke-opacity="0.99000025" stroke-linecap="round" stroke-linejoin="round"/>
    <path d="M 89.0000991821289 195.0000457763672 C 92.17459869384766 192.57577514648438 95.94414520263672 189.2996368408203 100.02246856689453 185.2636260986328" stroke-width="3.0" fill="none" stroke="rgb(2, 2, 2)" stroke-opacity="0.99" stroke-linecap="round" stroke-linejoin="round"/>
    <path d="M 203.00006103515625 180.99952697753906 C 201.99298095703125 182.92202758789062 204.5167694091797 178.7478790283203 201.25746154785156 181.1521453857422" stroke-width="3.0" fill="none" stroke="rgb(2, 2, 2)" stroke-opacity="0.99000007" stroke-linecap="round" stroke-linejoin="round"/>
    <path d="M 53.00016403198242 178.00027465820312 C 48.648983001708984 178.44496154785156 46.188819885253906 183.51353454589844 40.046878814697266 183.30264282226562" stroke-width="3.0" fill="none" stroke="rgb(2, 2, 2)" stroke-opacity="0.99000007" stroke-linecap="round" stroke-linejoin="round"/>
    <path d="M 147.00047302246094 64.99846649169922 C 142.03077697753906 69.13755798339844 139.97561645507812 67.24131774902344 142.8499755859375 67.44904327392578" stroke-width="3.0" fill="none" stroke="rgb(2, 2, 2)" stroke-opacity="0.99" stroke-linecap="round" stroke-linejoin="round"/>
    <path d="M 207.99966430664062 151.00009155273438 C 204.20651245117188 149.07687377929688 201.3798828125 148.3135986328125 200.99819946289062 146.69393920898438" stroke-width="3.0" fill="none" stroke="rgb(2, 2, 2)" stroke-opacity="0.99000007" stroke-linecap="round" stroke-linejoin="round"/>
    <path d="M 51.99994659423828 168.0003662109375 C 50.623390197753906 166.47271728515625 48.655670166015625 163.17071533203125 48.76057052612305 163.5789337158203" stroke-width="3.0" fill="none" stroke="rgb(-2, 2, 2)" stroke-opacity="0.99000025" stroke-linecap="round" stroke-linejoin="round"/>
    <path d="M 152.00010681152344 78.00022888183594 C 155.08187866210938 74.6724624633789 161.10211181640625 79.24182891845703 155.6783447265625 82.37345123291016" stroke-width="3.0" fill="none" stroke="rgb(2, 2, 2)" stroke-opacity="0.99" stroke-linecap="round" stroke-linejoin="round"/>
    <path d="M 176.0001220703125 143.00015258789062 C 178.17213439941406 142.77711486816406 175.3418731689453 139.29335021972656 174.1917266845703 136.31753540039062" stroke-width="3.0" fill="none" stroke="rgb(2, 2, 2)" stroke-opacity="0.99000007" stroke-linecap="round" stroke-linejoin="round"/>
    <path d="M 91.00007629394531 128.99993896484375 C 89.17860412597656 123.3217544555664 84.92604064941406 119.54661560058594 80.00167846679688 116.11914825439453" stroke-width="3.0" fill="none" stroke="rgb(2, 2, 2)" stroke-opacity="0.99000007" stroke-linecap="round" stroke-linejoin="round"/>
    <path d="M 116.00094604492188 118.00074768066406 C 122.25948333740234 123.56916809082031 126.86992645263672 127.90412902832031 126.79645538330078 133.8729248046875" stroke-width="3.0" fill="none" stroke="rgb(2, 2, 2)" stroke-opacity="0.99000007" stroke-linecap="round" stroke-linejoin="round"/>
    <path d="M 51.000118255615234 196.99993896484375 C 48.99162673950195 199.27882385253906 47.1787223815918 201.3657684326172 51.81684875488281 200.2091522216797" stroke-width="3.0" fill="none" stroke="rgb(2, 2, 2)" stroke-opacity="0.99" stroke-linecap="round" stroke-linejoin="round"/>
    <path d="M 188.99928283691406 127.99983215332031 C 190.2667999267578 123.03369140625 195.815185546875 125.38964080810547 195.53759765625 125.2159423828125" stroke-width="3.0" fill="none" stroke="rgb(2, 2, 2)" stroke-opacity="0.99000007" stroke-linecap="round" stroke-linejoin="round"/>
    <path d="M 176.00013732910156 216.9998016357422 C 176.15792846679688 215.0788116455078 172.188720703125 216.72384643554688 172.46673583984375 216.94866943359375" stroke-width="3.0" fill="none" stroke="rgb(2, 2, 2)" stroke-opacity="0.99000007" stroke-linecap="round" stroke-linejoin="round"/>
    <path d="M 67.00007629394531 89.00030517578125 C 62.88667678833008 94.34709167480469 68.20535278320312 89.13103485107422 70.6853256225586 88.47620391845703" stroke-width="3.0" fill="none" stroke="rgb(2, 2, -2)" stroke-opacity="0.9900001" stroke-linecap="round" stroke-linejoin="round"/>
    <path d="M 126.0002670288086 116.99986267089844 C 131.86302185058594 114.79146575927734 131.19815063476562 113.90887451171875 132.6580352783203 114.2820816040039" stroke-width="3.0" fill="none" stroke="rgb(2, 2, 2)" stroke-opacity="0.99000007" stroke-linecap="round" stroke-linejoin="round"/>
  </g>
</svg>
