<?xml version="1.0" ?>
<svg xmlns="http://www.w3.org/2000/svg" version="1.1" width="224" height="224">
  <defs/>
  <g>
    <path d="M 88.95281219482422 92.96495819091797 C 111.93414306640625 119.19727325439453 112.38440704345703 92.82528686523438 65.93370819091797 86.33606719970703" stroke-width="3.0" fill="none" stroke="rgb(0, 0, 0)" stroke-opacity="0.1421032" stroke-linecap="round" stroke-linejoin="round"/>
    <path d="M 189.86265563964844 122.74687957763672 C 182.80690002441406 164.8159942626953 182.99557495117188 127.6478042602539 186.5044403076172 134.86270141601562" stroke-width="3.0" fill="none" stroke="rgb(0, -3, 2)" stroke-opacity="0.17941618" stroke-linecap="round" stroke-linejoin="round"/>
    <path d="M 3.064802646636963 203.26011657714844 C 97.7449722290039 182.247802734375 15.95041275024414 197.7468719482422 53.74578094482422 183.98251342773438" stroke-width="3.0" fill="none" stroke="rgb(0, 0, 0)" stroke-opacity="0.055707604" stroke-linecap="round" stroke-linejoin="round"/>
    <path d="M 88.72260284423828 92.78556060791016 C 119.72813415527344 105.20469665527344 116.86497497558594 77.46820068359375 133.40829467773438 133.46270751953125" stroke-width="3.0" fill="none" stroke="rgb(-1, -2, 3)" stroke-opacity="0.5212795" stroke-linecap="round" stroke-linejoin="round"/>
    <path d="M 94.82563018798828 159.30841064453125 C 126.77631378173828 88.74501037597656 90.95684051513672 121.79057312011719 101.8949966430664 176.6458740234375" stroke-width="3.0" fill="none" stroke="rgb(0, -3, 2)" stroke-opacity="0.13352044" stroke-linecap="round" stroke-linejoin="round"/>
    <path d="M 172.26966857910156 82.41581726074219 C 159.76026916503906 67.62843322753906 169.05072021484375 82.78413391113281 170.4425048828125 94.13851165771484" stroke-width="3.0" fill="none" stroke="rgb(0, 1, -1)" stroke-opacity="0.06245559" stroke-linecap="round" stroke-linejoin="round"/>
    <path d="M 185.73204040527344 129.07827758789062 C 149.49281311035156 154.926025390625 166.23590087890625 145.08583068847656 144.59814453125 143.3930206298828" stroke-width="3.0" fill="none" stroke="rgb(-2, 0, 2)" stroke-opacity="0.33548495" stroke-linecap="round" stroke-linejoin="round"/>
    <path d="M 70.34443664550781 138.76040649414062 C 25.155155181884766 146.54251098632812 30.849205017089844 155.1540069580078 63.72123718261719 146.43931579589844" stroke-width="3.0" fill="none" stroke="rgb(0, -2, 1)" stroke-opacity="0.29238486" stroke-linecap="round" stroke-linejoin="round"/>
    <path d="M 109.39197540283203 138.5574951171875 C 126.57051849365234 139.9516143798828 137.9806671142578 147.03955078125 107.44969940185547 140.62294006347656" stroke-width="3.0" fill="none" stroke="rgb(-3, 2, 2)" stroke-opacity="0.5681317" stroke-linecap="round" stroke-linejoin="round"/>
    <path d="M 39.288326263427734 159.8546600341797 C 100.72730255126953 158.37908935546875 94.35713958740234 174.5309600830078 47.86989212036133 191.79615783691406" stroke-width="3.0" fill="none" stroke="rgb(0, 0, 0)" stroke-opacity="0.010921607" stroke-linecap="round" stroke-linejoin="round"/>
    <path d="M 32.88998031616211 180.42327880859375 C 104.33292388916016 186.87530517578125 65.53662109375 183.4205322265625 -22.7404727935791 180.34588623046875" stroke-width="3.0" fill="none" stroke="rgb(-2, 0, 2)" stroke-opacity="0.12955378" stroke-linecap="round" stroke-linejoin="round"/>
    <path d="M 127.05695343017578 150.05355834960938 C 146.6640167236328 164.82406616210938 223.6997833251953 131.93544006347656 140.69639587402344 153.95469665527344" stroke-width="3.0" fill="none" stroke="rgb(1, -2, 2)" stroke-opacity="0.44679537" stroke-linecap="round" stroke-linejoin="round"/>
    <path d="M 108.36714935302734 173.3732147216797 C 90.71440887451172 185.43370056152344 157.39154052734375 166.54763793945312 92.25702667236328 160.63621520996094" stroke-width="3.0" fill="none" stroke="rgb(0, 0, 1)" stroke-opacity="0.16580115" stroke-linecap="round" stroke-linejoin="round"/>
    <path d="M 130.2415771484375 182.0827178955078 C 33.19076919555664 182.3546142578125 153.93365478515625 181.9481964111328 45.760929107666016 178.6735382080078" stroke-width="3.0" fill="none" stroke="rgb(0, -1, 2)" stroke-opacity="0.3640383" stroke-linecap="round" stroke-linejoin="round"/>
    <path d="M 208.07144165039062 106.6153335571289 C 179.50279235839844 123.54033660888672 191.25128173828125 122.15328979492188 212.9619140625 107.53302764892578" stroke-width="3.0" fill="none" stroke="rgb(0, 0, 0)" stroke-opacity="0.03600447" stroke-linecap="round" stroke-linejoin="round"/>
    <path d="M 67.90985107421875 91.15055847167969 C 106.43914031982422 135.4469451904297 92.55097961425781 148.2479705810547 65.05850219726562 89.62947082519531" stroke-width="3.0" fill="none" stroke="rgb(0, -1, 3)" stroke-opacity="0.09141133" stroke-linecap="round" stroke-linejoin="round"/>
    <path d="M 123.41119384765625 139.75588989257812 C 95.42156219482422 140.98529052734375 103.7685546875 154.97171020507812 103.5988998413086 127.06498718261719" stroke-width="3.0" fill="none" stroke="rgb(-2, 0, 2)" stroke-opacity="0.43970218" stroke-linecap="round" stroke-linejoin="round"/>
    <path d="M 94.578125 98.11061096191406 C 126.36868286132812 122.54509735107422 124.19820404052734 113.65337371826172 100.5408935546875 100.42117309570312" stroke-width="3.0" fill="none" stroke="rgb(-3, -2, 2)" stroke-opacity="0.921431" stroke-linecap="round" stroke-linejoin="round"/>
    <path d="M 240.56845092773438 100.69699096679688 C 218.73324584960938 100.17890930175781 222.9665069580078 99.44571685791016 200.7216796875 111.02442169189453" stroke-width="3.0" fill="none" stroke="rgb(-1, 0, 1)" stroke-opacity="0.15247568" stroke-linecap="round" stroke-linejoin="round"/>
    <path d="M 183.7838592529297 216.87120056152344 C 56.215476989746094 208.47996520996094 107.04307556152344 210.33389282226562 137.226318359375 224.1128692626953" stroke-width="3.0" fill="none" stroke="rgb(1, -2, 0)" stroke-opacity="0.044654347" stroke-linecap="round" stroke-linejoin="round"/>
    <path d="M 112.33523559570312 108.53516387939453 C 124.50662231445312 138.30682373046875 141.2972412109375 135.7957305908203 110.27494049072266 86.62190246582031" stroke-width="3.0" fill="none" stroke="rgb(0, 0, 2)" stroke-opacity="0.83941734" stroke-linecap="round" stroke-linejoin="round"/>
    <path d="M 89.6150131225586 93.14653778076172 C 110.76995086669922 105.56521606445312 96.01624298095703 99.50494384765625 115.74797821044922 104.75241088867188" stroke-width="3.0" fill="none" stroke="rgb(-5, -1, 4)" stroke-opacity="0.710313" stroke-linecap="round" stroke-linejoin="round"/>
    <path d="M 129.11532592773438 180.0174560546875 C 97.09907531738281 180.65704345703125 105.50534057617188 178.9523468017578 112.95977020263672 172.87547302246094" stroke-width="3.0" fill="none" stroke="rgb(0, 0, 0)" stroke-opacity="0.07806461" stroke-linecap="round" stroke-linejoin="round"/>
    <path d="M 103.49463653564453 74.5260238647461 C 114.98512268066406 102.3010025024414 134.29141235351562 110.0761947631836 103.03804016113281 72.81521606445312" stroke-width="3.0" fill="none" stroke="rgb(2, -1, -2)" stroke-opacity="0.46263972" stroke-linecap="round" stroke-linejoin="round"/>
    <path d="M 193.275634765625 151.3896026611328 C 216.23489379882812 146.14437866210938 237.482421875 159.67825317382812 150.18600463867188 155.5765838623047" stroke-width="3.0" fill="none" stroke="rgb(-1, 0, 1)" stroke-opacity="0.38668823" stroke-linecap="round" stroke-linejoin="round"/>
    <path d="M 76.0499038696289 176.346435546875 C 71.8271484375 164.93270874023438 91.62012481689453 173.61207580566406 17.750165939331055 165.68760681152344" stroke-width="3.0" fill="none" stroke="rgb(-2, -2, 3)" stroke-opacity="0.19392166" stroke-linecap="round" stroke-linejoin="round"/>
    <path d="M 138.07980346679688 152.0093994140625 C 136.9594268798828 134.4134063720703 135.0823974609375 115.65667724609375 103.0235366821289 96.03116607666016" stroke-width="3.0" fill="none" stroke="rgb(0, 1, 0)" stroke-opacity="0.44707686" stroke-linecap="round" stroke-linejoin="round"/>
    <path d="M 63.86958694458008 85.25205993652344 C 72.14431762695312 119.17877960205078 78.9493179321289 111.3120346069336 66.48573303222656 89.00205993652344" stroke-width="3.0" fill="none" stroke="rgb(5, -3, -4)" stroke-opacity="0.5044666" stroke-linecap="round" stroke-linejoin="round"/>
    <path d="M 132.55099487304688 178.37876892089844 C 121.47277069091797 107.0770034790039 136.735595703125 117.31536102294922 131.44161987304688 151.54598999023438" stroke-width="3.0" fill="none" stroke="rgb(0, 0, 0)" stroke-opacity="0.15013474" stroke-linecap="round" stroke-linejoin="round"/>
    <path d="M 72.7288589477539 133.98944091796875 C 60.7236213684082 158.83665466308594 88.42362976074219 135.9104461669922 37.905853271484375 149.3731689453125" stroke-width="3.0" fill="none" stroke="rgb(0, -1, 1)" stroke-opacity="0.37090126" stroke-linecap="round" stroke-linejoin="round"/>
    <path d="M 109.77925109863281 142.71810913085938 C 134.75608825683594 152.031005859375 136.65501403808594 151.1206817626953 110.38339233398438 140.8133544921875" stroke-width="3.0" fill="none" stroke="rgb(-2, 1, 1)" stroke-opacity="0.84745103" stroke-linecap="round" stroke-linejoin="round"/>
    <path d="M 88.8448486328125 158.58392333984375 C 89.02713775634766 123.60930633544922 51.465721130371094 140.59254455566406 64.71952819824219 150.89398193359375" stroke-width="3.0" fill="none" stroke="rgb(0, 0, -2)" stroke-opacity="0.03413293" stroke-linecap="round" stroke-linejoin="round"/>
    <path d="M 133.48135375976562 80.01717376708984 C 124.1900405883789 66.2235107421875 130.90396118164062 71.9395523071289 119.69158935546875 51.34302520751953" stroke-width="3.0" fill="none" stroke="rgb(2, 1, -2)" stroke-opacity="0.5726698" stroke-linecap="round" stroke-linejoin="round"/>
    <path d="M 108.12001037597656 192.305908203125 C 264.47802734375 185.79026794433594 225.95335388183594 199.6254119873047 117.53653717041016 206.41905212402344" stroke-width="3.0" fill="none" stroke="rgb(-2, 0, 0)" stroke-opacity="0.06679868" stroke-linecap="round" stroke-linejoin="round"/>
    <path d="M 22.85207176208496 170.28125 C 157.17066955566406 163.44921875 129.7297821044922 171.92906188964844 13.640116691589355 169.10098266601562" stroke-width="3.0" fill="none" stroke="rgb(0, -2, 1)" stroke-opacity="0.12814867" stroke-linecap="round" stroke-linejoin="round"/>
    <path d="M 149.72096252441406 158.7248992919922 C 276.98211669921875 158.63406372070312 319.5518493652344 151.453369140625 150.69346618652344 157.09317016601562" stroke-width="3.0" fill="none" stroke="rgb(1, -1, 1)" stroke-opacity="0.61502796" stroke-linecap="round" stroke-linejoin="round"/>
    <path d="M -4.993163108825684 160.1997833251953 C 99.1531982421875 170.96983337402344 102.54686737060547 168.6346893310547 -5.6912970542907715 173.00013732910156" stroke-width="3.0" fill="none" stroke="rgb(0, -1, 2)" stroke-opacity="0.2181064" stroke-linecap="round" stroke-linejoin="round"/>
    <path d="M 146.7909393310547 128.04763793945312 C 143.61260986328125 158.27587890625 128.356689453125 210.2626495361328 138.43246459960938 154.94760131835938" stroke-width="3.0" fill="none" stroke="rgb(-1, 1, 0)" stroke-opacity="0.22049849" stroke-linecap="round" stroke-linejoin="round"/>
    <path d="M 69.12297821044922 108.84883880615234 C 79.0160140991211 95.56879425048828 65.3923568725586 70.25566101074219 67.60541534423828 125.81629943847656" stroke-width="3.0" fill="none" stroke="rgb(-1, 0, 2)" stroke-opacity="0.14180586" stroke-linecap="round" stroke-linejoin="round"/>
    <path d="M 176.0797882080078 233.34463500976562 C 179.7461700439453 229.65191650390625 180.78355407714844 234.90530395507812 184.03778076171875 235.67660522460938" stroke-width="3.0" fill="none" stroke="rgb(0, 0, 0)" stroke-opacity="0.8933173" stroke-linecap="round" stroke-linejoin="round"/>
    <path d="M 163.83786010742188 73.00579833984375 C 144.43704223632812 57.55786895751953 127.37384033203125 54.29507064819336 121.26895904541016 50.638309478759766" stroke-width="3.0" fill="none" stroke="rgb(0, -1, 0)" stroke-opacity="0.14669232" stroke-linecap="round" stroke-linejoin="round"/>
    <path d="M 115.64347839355469 98.97018432617188 C 133.99864196777344 129.49986267089844 142.68190002441406 166.9166259765625 134.2640838623047 141.7183837890625" stroke-width="3.0" fill="none" stroke="rgb(0, 0, 2)" stroke-opacity="0.79763705" stroke-linecap="round" stroke-linejoin="round"/>
    <path d="M 207.9803466796875 187.45489501953125 C 90.10072326660156 185.66043090820312 137.90530395507812 190.63658142089844 197.31597900390625 204.59425354003906" stroke-width="3.0" fill="none" stroke="rgb(2, 0, 0)" stroke-opacity="0.061179966" stroke-linecap="round" stroke-linejoin="round"/>
    <path d="M 122.9267349243164 196.95558166503906 C 274.73504638671875 196.27069091796875 168.65406799316406 193.3095245361328 221.4990234375 196.959228515625" stroke-width="3.0" fill="none" stroke="rgb(3, 2, -5)" stroke-opacity="0.0904332" stroke-linecap="round" stroke-linejoin="round"/>
    <path d="M 101.20763397216797 144.3834228515625 C 85.06697082519531 132.7297821044922 97.6374740600586 136.31658935546875 72.736083984375 131.77154541015625" stroke-width="3.0" fill="none" stroke="rgb(-1, -1, 1)" stroke-opacity="0.35367838" stroke-linecap="round" stroke-linejoin="round"/>
    <path d="M 218.17857360839844 150.585205078125 C 182.73020935058594 105.15642547607422 190.78680419921875 121.04782104492188 197.6646728515625 112.7462158203125" stroke-width="3.0" fill="none" stroke="rgb(-2, 1, 2)" stroke-opacity="0.13359715" stroke-linecap="round" stroke-linejoin="round"/>
    <path d="M 121.32752990722656 125.48504638671875 C 101.27654266357422 78.73812866210938 122.47218322753906 95.81043243408203 137.23875427246094 149.66091918945312" stroke-width="3.0" fill="none" stroke="rgb(0, -2, 2)" stroke-opacity="0.96162045" stroke-linecap="round" stroke-linejoin="round"/>
    <path d="M 55.74913024902344 131.74974060058594 C 55.62969207763672 108.51275634765625 42.81707000732422 86.9534912109375 66.06078338623047 127.4865951538086" stroke-width="3.0" fill="none" stroke="rgb(1, 0, 0)" stroke-opacity="0.3971919" stroke-linecap="round" stroke-linejoin="round"/>
    <path d="M 69.52459716796875 154.07098388671875 C 131.16127014160156 187.21075439453125 72.9918212890625 150.9160614013672 95.01759338378906 172.2540283203125" stroke-width="3.0" fill="none" stroke="rgb(-2, 0, 2)" stroke-opacity="0.25288975" stroke-linecap="round" stroke-linejoin="round"/>
    <path d="M 112.05709075927734 118.23591613769531 C 93.48015594482422 170.83677673339844 108.23855590820312 146.36842346191406 71.58934783935547 114.03689575195312" stroke-width="3.0" fill="none" stroke="rgb(0, 0, 1)" stroke-opacity="0.05018098" stroke-linecap="round" stroke-linejoin="round"/>
    <path d="M 70.68346405029297 152.8391571044922 C 41.774269104003906 147.27618408203125 79.41062927246094 134.3379364013672 93.00099182128906 139.17271423339844" stroke-width="3.0" fill="none" stroke="rgb(0, 1, -2)" stroke-opacity="0.18646787" stroke-linecap="round" stroke-linejoin="round"/>
    <path d="M 71.94019317626953 215.9716796875 C 28.395902633666992 221.4044189453125 -90.56310272216797 213.8979034423828 54.97134017944336 208.93881225585938" stroke-width="3.0" fill="none" stroke="rgb(1, -2, 2)" stroke-opacity="0.0467418" stroke-linecap="round" stroke-linejoin="round"/>
    <path d="M 109.85246276855469 195.2891387939453 C 166.91339111328125 221.3231964111328 119.5358657836914 205.66220092773438 123.05311584472656 170.29782104492188" stroke-width="3.0" fill="none" stroke="rgb(0, 0, 1)" stroke-opacity="0.026757743" stroke-linecap="round" stroke-linejoin="round"/>
    <path d="M 42.7157096862793 222.0032196044922 C 67.0137939453125 215.93467712402344 26.97245216369629 230.03231811523438 150.19677734375 219.68531799316406" stroke-width="3.0" fill="none" stroke="rgb(0, 1, -3)" stroke-opacity="0.092395574" stroke-linecap="round" stroke-linejoin="round"/>
    <path d="M 226.1949462890625 180.20130920410156 C 128.13601684570312 178.8505401611328 207.72793579101562 185.1772918701172 140.5957794189453 183.08328247070312" stroke-width="3.0" fill="none" stroke="rgb(-3, 3, -1)" stroke-opacity="0.16778317" stroke-linecap="round" stroke-linejoin="round"/>
    <path d="M 220.89312744140625 183.13465881347656 C 47.981689453125 173.64749145507812 23.284252166748047 180.92185974121094 172.77310180664062 168.7893829345703" stroke-width="3.0" fill="none" stroke="rgb(0, 2, -1)" stroke-opacity="0.21426548" stroke-linecap="round" stroke-linejoin="round"/>
    <path d="M 182.41734313964844 145.49119567871094 C 158.37667846679688 143.1974334716797 170.0572052001953 136.7472686767578 185.56700134277344 145.8573760986328" stroke-width="3.0" fill="none" stroke="rgb(-1, 2, 0)" stroke-opacity="0.5361345" stroke-linecap="round" stroke-linejoin="round"/>
    <path d="M 109.9185562133789 139.48257446289062 C 113.64619445800781 82.46516418457031 158.4898223876953 187.48341369628906 97.76923370361328 101.8739013671875" stroke-width="3.0" fill="none" stroke="rgb(-3, -2, 3)" stroke-opacity="0.15574196" stroke-linecap="round" stroke-linejoin="round"/>
    <path d="M 135.483154296875 126.9390869140625 C 120.36906433105469 73.91131591796875 95.93658447265625 52.90085983276367 119.3500747680664 91.36690521240234" stroke-width="3.0" fill="none" stroke="rgb(0, 1, 0)" stroke-opacity="0.04960632" stroke-linecap="round" stroke-linejoin="round"/>
    <path d="M 114.78622436523438 200.04891967773438 C -24.570972442626953 194.88426208496094 -41.99690628051758 189.69573974609375 94.73011779785156 189.24537658691406" stroke-width="3.0" fill="none" stroke="rgb(-2, 1, 3)" stroke-opacity="0.060064822" stroke-linecap="round" stroke-linejoin="round"/>
    <path d="M 13.941244125366211 168.46844482421875 C 63.20085144042969 160.8802032470703 53.368675231933594 211.3795166015625 57.88865280151367 173.55801391601562" stroke-width="3.0" fill="none" stroke="rgb(0, 0, 0)" stroke-opacity="0.04338077" stroke-linecap="round" stroke-linejoin="round"/>
    <path d="M 159.01406860351562 75.24909210205078 C 90.2607650756836 43.889034271240234 120.76248931884766 49.602413177490234 159.52658081054688 72.34781646728516" stroke-width="3.0" fill="none" stroke="rgb(0, 2, -2)" stroke-opacity="0.046094038" stroke-linecap="round" stroke-linejoin="round"/>
    <path d="M 107.7417221069336 91.50428771972656 C 113.3881607055664 117.00106048583984 119.36091613769531 99.2239990234375 93.21997833251953 97.20246124267578" stroke-width="3.0" fill="none" stroke="rgb(3, 0, 1)" stroke-opacity="0.979343" stroke-linecap="round" stroke-linejoin="round"/>
    <path d="M 152.63064575195312 155.5471954345703 C 155.71812438964844 115.08114624023438 137.27706909179688 192.2652587890625 150.4619903564453 147.7046661376953" stroke-width="3.0" fill="none" stroke="rgb(-2, 0, 1)" stroke-opacity="0.4988693" stroke-linecap="round" stroke-linejoin="round"/>
    <path d="M 15.29092788696289 154.24476623535156 C 70.71470642089844 153.49342346191406 100.3380126953125 132.785400390625 71.8277359008789 136.25735473632812" stroke-width="3.0" fill="none" stroke="rgb(0, 0, 1)" stroke-opacity="0.22248496" stroke-linecap="round" stroke-linejoin="round"/>
    <path d="M 160.10256958007812 183.5635528564453 C 98.8754653930664 187.32078552246094 118.54212951660156 196.2769317626953 117.6947021484375 148.2255096435547" stroke-width="3.0" fill="none" stroke="rgb(0, 0, 0)" stroke-opacity="0.06868913" stroke-linecap="round" stroke-linejoin="round"/>
    <path d="M 123.71687316894531 112.97887420654297 C 105.75485229492188 68.40512084960938 103.71981811523438 86.4377670288086 117.348388671875 111.15393829345703" stroke-width="3.0" fill="none" stroke="rgb(3, -3, -2)" stroke-opacity="0.9914658" stroke-linecap="round" stroke-linejoin="round"/>
    <path d="M 101.70848846435547 70.1693344116211 C 107.05934143066406 123.84651184082031 120.06053161621094 134.07736206054688 101.90219116210938 73.87216186523438" stroke-width="3.0" fill="none" stroke="rgb(2, 0, -2)" stroke-opacity="0.64282054" stroke-linecap="round" stroke-linejoin="round"/>
    <path d="M 68.94733428955078 88.58146667480469 C 76.79386138916016 146.45431518554688 108.07981872558594 114.22005462646484 54.06951904296875 101.39891052246094" stroke-width="3.0" fill="none" stroke="rgb(0, 0, 1)" stroke-opacity="0.09280613" stroke-linecap="round" stroke-linejoin="round"/>
    <path d="M 94.0008773803711 130.80923461914062 C 59.67768859863281 87.75873565673828 62.690216064453125 82.44990539550781 94.72103881835938 134.51425170898438" stroke-width="3.0" fill="none" stroke="rgb(0, -1, 1)" stroke-opacity="0.18150164" stroke-linecap="round" stroke-linejoin="round"/>
    <path d="M 173.72955322265625 89.12889099121094 C 161.51449584960938 67.56302642822266 188.42091369628906 98.73526763916016 190.59915161132812 118.64112091064453" stroke-width="3.0" fill="none" stroke="rgb(-2, 2, 2)" stroke-opacity="0.07749735" stroke-linecap="round" stroke-linejoin="round"/>
    <path d="M 108.9039306640625 84.66043853759766 C 102.74970245361328 108.86557006835938 106.28642272949219 106.5067138671875 117.13847351074219 117.06442260742188" stroke-width="3.0" fill="none" stroke="rgb(1, 3, 2)" stroke-opacity="0.82795334" stroke-linecap="round" stroke-linejoin="round"/>
    <path d="M 85.30065155029297 90.95789337158203 C 95.34247589111328 98.58401489257812 108.08544921875 123.36949157714844 104.11815643310547 126.97265625" stroke-width="3.0" fill="none" stroke="rgb(0, -1, 2)" stroke-opacity="0.31455967" stroke-linecap="round" stroke-linejoin="round"/>
    <path d="M 60.00246810913086 131.61610412597656 C 48.98777389526367 161.46371459960938 117.63182067871094 139.43885803222656 35.839786529541016 144.18545532226562" stroke-width="3.0" fill="none" stroke="rgb(0, -1, 2)" stroke-opacity="0.25839487" stroke-linecap="round" stroke-linejoin="round"/>
    <path d="M 120.14806365966797 75.44761657714844 C 131.68478393554688 81.09549713134766 135.88491821289062 69.61997985839844 146.72640991210938 118.35372161865234" stroke-width="3.0" fill="none" stroke="rgb(-2, -1, 2)" stroke-opacity="0.34089914" stroke-linecap="round" stroke-linejoin="round"/>
    <path d="M 213.80349731445312 109.99150085449219 C 186.48329162597656 111.14612579345703 202.87928771972656 117.9488754272461 225.8273162841797 99.73008728027344" stroke-width="3.0" fill="none" stroke="rgb(1, 0, -1)" stroke-opacity="0.07323453" stroke-linecap="round" stroke-linejoin="round"/>
    <path d="M 35.61017608642578 142.9906463623047 C 59.71570587158203 137.48831176757812 64.43540954589844 133.78126525878906 51.544315338134766 104.28385162353516" stroke-width="3.0" fill="none" stroke="rgb(-2, 1, 2)" stroke-opacity="0.3146252" stroke-linecap="round" stroke-linejoin="round"/>
    <path d="M 157.80828857421875 168.93115234375 C 101.1906509399414 161.56314086914062 135.38027954101562 204.46922302246094 126.16788482666016 155.2328643798828" stroke-width="3.0" fill="none" stroke="rgb(0, -1, 0)" stroke-opacity="0.11460217" stroke-linecap="round" stroke-linejoin="round"/>
    <path d="M 128.21221923828125 146.30845642089844 C 107.05065155029297 133.59889221191406 109.00824737548828 149.6887969970703 112.08700561523438 141.27169799804688" stroke-width="3.0" fill="none" stroke="rgb(-1, 2, 1)" stroke-opacity="0.5077059" stroke-linecap="round" stroke-linejoin="round"/>
    <path d="M 59.27373123168945 166.51222229003906 C 13.953983306884766 120.72064208984375 36.66506576538086 208.42161560058594 31.77098846435547 155.8828125" stroke-width="3.0" fill="none" stroke="rgb(-1, -1, 2)" stroke-opacity="0.19815205" stroke-linecap="round" stroke-linejoin="round"/>
    <path d="M 22.6162166595459 159.11273193359375 C 88.64320373535156 173.3825225830078 53.702880859375 169.47125244140625 66.82450103759766 183.20973205566406" stroke-width="3.0" fill="none" stroke="rgb(0, 0, 0)" stroke-opacity="0.044959646" stroke-linecap="round" stroke-linejoin="round"/>
    <path d="M 69.50837707519531 206.57183837890625 C 96.75236511230469 203.6342010498047 56.99275207519531 210.44151306152344 108.3770523071289 206.52203369140625" stroke-width="3.0" fill="none" stroke="rgb(1, 0, -1)" stroke-opacity="0.0519349" stroke-linecap="round" stroke-linejoin="round"/>
    <path d="M 236.65419006347656 184.83779907226562 C 242.98731994628906 179.84176635742188 185.93682861328125 178.62576293945312 244.48228454589844 180.565673828125" stroke-width="3.0" fill="none" stroke="rgb(-1, 3, -3)" stroke-opacity="0.21350695" stroke-linecap="round" stroke-linejoin="round"/>
    <path d="M 114.79716491699219 179.8749542236328 C 72.80758666992188 186.3275146484375 65.3361587524414 176.7960968017578 -12.737130165100098 178.22137451171875" stroke-width="3.0" fill="none" stroke="rgb(-3, -1, 3)" stroke-opacity="0.25911674" stroke-linecap="round" stroke-linejoin="round"/>
    <path d="M 161.46546936035156 74.34941864013672 C 88.35469818115234 38.51682662963867 123.34404754638672 48.9223518371582 155.81678771972656 70.2934341430664" stroke-width="3.0" fill="none" stroke="rgb(0, 1, -2)" stroke-opacity="0.05232416" stroke-linecap="round" stroke-linejoin="round"/>
    <path d="M 228.1942901611328 169.36402893066406 C 45.262996673583984 170.1594696044922 101.4335708618164 169.2454376220703 208.83863830566406 144.81735229492188" stroke-width="3.0" fill="none" stroke="rgb(-2, 3, 1)" stroke-opacity="0.3808993" stroke-linecap="round" stroke-linejoin="round"/>
    <path d="M 78.43350219726562 167.29054260253906 C 86.63555145263672 186.0095672607422 60.00130844116211 145.435546875 9.302336692810059 158.99989318847656" stroke-width="3.0" fill="none" stroke="rgb(0, 0, 1)" stroke-opacity="0.18994741" stroke-linecap="round" stroke-linejoin="round"/>
    <path d="M 126.4608383178711 62.89884948730469 C 173.132080078125 88.2208480834961 169.47727966308594 74.0376205444336 174.016845703125 85.22860717773438" stroke-width="3.0" fill="none" stroke="rgb(0, 0, -1)" stroke-opacity="0.02499992" stroke-linecap="round" stroke-linejoin="round"/>
    <path d="M 186.82424926757812 148.4475860595703 C 165.43447875976562 148.9830322265625 136.84378051757812 151.65492248535156 187.5 151.37388610839844" stroke-width="3.0" fill="none" stroke="rgb(0, -1, 2)" stroke-opacity="0.6412081" stroke-linecap="round" stroke-linejoin="round"/>
    <path d="M 95.63636016845703 138.31077575683594 C 84.9648208618164 120.3141098022461 88.7842788696289 121.6013412475586 72.96703338623047 100.5858154296875" stroke-width="3.0" fill="none" stroke="rgb(0, -1, 3)" stroke-opacity="0.45793182" stroke-linecap="round" stroke-linejoin="round"/>
    <path d="M 113.2964096069336 108.09884643554688 C 138.45838928222656 143.96766662597656 121.63350677490234 130.20068359375 136.4033966064453 151.1868133544922" stroke-width="3.0" fill="none" stroke="rgb(0, 0, 2)" stroke-opacity="0.8250844" stroke-linecap="round" stroke-linejoin="round"/>
    <path d="M 65.343994140625 199.66612243652344 C -3.6724960803985596 218.281982421875 -49.226802825927734 185.84886169433594 62.7947998046875 206.51815795898438" stroke-width="3.0" fill="none" stroke="rgb(1, -1, -3)" stroke-opacity="0.060462974" stroke-linecap="round" stroke-linejoin="round"/>
    <path d="M 190.03602600097656 125.51453399658203 C 188.92550659179688 166.8648681640625 173.75863647460938 135.04014587402344 185.56463623046875 126.582275390625" stroke-width="3.0" fill="none" stroke="rgb(-4, 0, 3)" stroke-opacity="0.14657365" stroke-linecap="round" stroke-linejoin="round"/>
    <path d="M 128.62928771972656 202.29994201660156 C 213.62521362304688 216.3914337158203 149.22006225585938 203.99786376953125 202.66941833496094 208.34715270996094" stroke-width="3.0" fill="none" stroke="rgb(3, -2, -4)" stroke-opacity="0.06644551" stroke-linecap="round" stroke-linejoin="round"/>
    <path d="M 64.0564193725586 85.2528305053711 C 67.954345703125 94.12297821044922 71.3313980102539 95.38570404052734 67.1373291015625 107.7528305053711" stroke-width="3.0" fill="none" stroke="rgb(1, -1, -1)" stroke-opacity="0.30384207" stroke-linecap="round" stroke-linejoin="round"/>
    <path d="M 93.98552703857422 98.94092559814453 C 145.65573120117188 147.8819122314453 143.63519287109375 171.20533752441406 106.46514129638672 80.7384033203125" stroke-width="3.0" fill="none" stroke="rgb(2, -1, 3)" stroke-opacity="0.886431" stroke-linecap="round" stroke-linejoin="round"/>
  </g>
</svg>
