<?xml version="1.0" ?>
<svg xmlns="http://www.w3.org/2000/svg" version="1.1" width="224" height="224">
  <defs/>
  <g>
    <path d="M 111.4953842163086 103.93240356445312 C 87.02301025390625 99.73589324951172 107.6841812133789 112.32146453857422 84.57597351074219 90.7325439453125" stroke-width="3.0" fill="none" stroke="rgb(0, -2, 2)" stroke-opacity="0.41572678" stroke-linecap="round" stroke-linejoin="round"/>
    <path d="M 185.66419982910156 144.48703002929688 C 194.29734802246094 117.02525329589844 191.55084228515625 138.25079345703125 181.23426818847656 133.01568603515625" stroke-width="3.0" fill="none" stroke="rgb(-3, 1, 2)" stroke-opacity="0.10442079" stroke-linecap="round" stroke-linejoin="round"/>
    <path d="M 24.033496856689453 199.9808807373047 C 0.6157722473144531 202.43853759765625 28.7874755859375 192.56747436523438 6.905045509338379 198.7521514892578" stroke-width="3.0" fill="none" stroke="rgb(1, 0, -2)" stroke-opacity="0.034859084" stroke-linecap="round" stroke-linejoin="round"/>
    <path d="M 104.87635803222656 103.04834747314453 C 123.15853118896484 126.24420928955078 95.7955093383789 81.57381439208984 118.82914733886719 108.15983581542969" stroke-width="3.0" fill="none" stroke="rgb(0, 0, 1)" stroke-opacity="0.92797726" stroke-linecap="round" stroke-linejoin="round"/>
    <path d="M 102.94216918945312 141.2772216796875 C 101.14483642578125 108.65156555175781 112.13713073730469 136.6589813232422 100.33360290527344 143.9984588623047" stroke-width="3.0" fill="none" stroke="rgb(-2, -3, 4)" stroke-opacity="0.28557193" stroke-linecap="round" stroke-linejoin="round"/>
    <path d="M 172.4299774169922 82.39281463623047 C 145.55694580078125 60.082000732421875 169.0983123779297 83.676513671875 154.27078247070312 67.63761901855469" stroke-width="3.0" fill="none" stroke="rgb(0, 0, 0)" stroke-opacity="0.121051505" stroke-linecap="round" stroke-linejoin="round"/>
    <path d="M 185.42230224609375 128.81687927246094 C 138.05670166015625 168.00074768066406 133.8256378173828 139.49588012695312 184.33901977539062 145.98541259765625" stroke-width="3.0" fill="none" stroke="rgb(-4, 0, 3)" stroke-opacity="0.23412481" stroke-linecap="round" stroke-linejoin="round"/>
    <path d="M 57.856998443603516 134.3607940673828 C 28.690662384033203 144.5118865966797 34.0132942199707 147.6785888671875 57.42392349243164 144.25469970703125" stroke-width="3.0" fill="none" stroke="rgb(-2, -2, 2)" stroke-opacity="0.23029248" stroke-linecap="round" stroke-linejoin="round"/>
    <path d="M 109.00274658203125 140.46408081054688 C 127.3895263671875 143.005859375 145.46377563476562 171.5337371826172 128.47561645507812 133.62252807617188" stroke-width="3.0" fill="none" stroke="rgb(-1, 0, 1)" stroke-opacity="0.7768531" stroke-linecap="round" stroke-linejoin="round"/>
    <path d="M 62.42900085449219 170.67056274414062 C 106.48115539550781 176.2293701171875 65.9817886352539 162.4646759033203 45.87886428833008 172.86741638183594" stroke-width="3.0" fill="none" stroke="rgb(0, 0, 0)" stroke-opacity="0.0015596438" stroke-linecap="round" stroke-linejoin="round"/>
    <path d="M 52.216453552246094 182.9298553466797 C -103.41513061523438 189.20420837402344 -86.89535522460938 167.8530731201172 37.05498504638672 177.3283233642578" stroke-width="3.0" fill="none" stroke="rgb(0, 0, 0)" stroke-opacity="0.23320131" stroke-linecap="round" stroke-linejoin="round"/>
    <path d="M 132.34291076660156 167.78488159179688 C 213.87258911132812 170.28887939453125 244.7797393798828 173.35206604003906 145.92433166503906 170.58447265625" stroke-width="3.0" fill="none" stroke="rgb(-1, 0, 2)" stroke-opacity="0.42184174" stroke-linecap="round" stroke-linejoin="round"/>
    <path d="M 121.46525573730469 177.33900451660156 C 116.93571472167969 156.36134338378906 136.718505859375 165.95310974121094 91.77806854248047 161.1313934326172" stroke-width="3.0" fill="none" stroke="rgb(-2, 0, 1)" stroke-opacity="0.16181013" stroke-linecap="round" stroke-linejoin="round"/>
    <path d="M 119.64720916748047 182.7826385498047 C 2.5043258666992188 192.2278289794922 56.253665924072266 179.25169372558594 134.54051208496094 183.24752807617188" stroke-width="3.0" fill="none" stroke="rgb(-3, 1, 1)" stroke-opacity="0.15794158" stroke-linecap="round" stroke-linejoin="round"/>
    <path d="M 191.23524475097656 116.6253662109375 C 210.2649688720703 103.02906799316406 203.48666381835938 113.16671752929688 193.8740997314453 118.0595932006836" stroke-width="3.0" fill="none" stroke="rgb(-1, 0, 2)" stroke-opacity="0.11901127" stroke-linecap="round" stroke-linejoin="round"/>
    <path d="M 83.34870147705078 112.64900970458984 C 57.774654388427734 88.99089813232422 69.36810302734375 109.5865249633789 91.70140838623047 128.8117218017578" stroke-width="3.0" fill="none" stroke="rgb(-2, -4, 6)" stroke-opacity="0.14945406" stroke-linecap="round" stroke-linejoin="round"/>
    <path d="M 99.0693588256836 144.30990600585938 C 119.16520690917969 147.5495147705078 96.47228240966797 150.36602783203125 104.37373352050781 125.63653564453125" stroke-width="3.0" fill="none" stroke="rgb(0, 0, 0)" stroke-opacity="0.01575818" stroke-linecap="round" stroke-linejoin="round"/>
    <path d="M 101.94844055175781 69.1622085571289 C 108.55882263183594 102.50189208984375 97.76866912841797 121.13627624511719 111.42527770996094 89.85948181152344" stroke-width="3.0" fill="none" stroke="rgb(0, 0, 1)" stroke-opacity="0.6265523" stroke-linecap="round" stroke-linejoin="round"/>
    <path d="M 231.8475341796875 103.46745300292969 C 208.0136260986328 103.5167465209961 216.2101287841797 99.695068359375 233.09292602539062 96.52702331542969" stroke-width="3.0" fill="none" stroke="rgb(0, 0, 2)" stroke-opacity="0.103784434" stroke-linecap="round" stroke-linejoin="round"/>
    <path d="M 139.78924560546875 196.98489379882812 C 117.09354400634766 228.6630096435547 190.78475952148438 228.89407348632812 124.5387191772461 201.35276794433594" stroke-width="3.0" fill="none" stroke="rgb(0, 0, 0)" stroke-opacity="0.033947725" stroke-linecap="round" stroke-linejoin="round"/>
    <path d="M 113.36035919189453 97.7817153930664 C 130.81968688964844 130.92681884765625 133.4517059326172 125.580322265625 139.3823699951172 152.25892639160156" stroke-width="3.0" fill="none" stroke="rgb(-2, 0, 2)" stroke-opacity="0.585683" stroke-linecap="round" stroke-linejoin="round"/>
    <path d="M 103.63140869140625 105.91525268554688 C 92.4246826171875 93.43270111083984 89.17434692382812 87.7952880859375 118.41614532470703 110.78878784179688" stroke-width="3.0" fill="none" stroke="rgb(-4, -2, 3)" stroke-opacity="0.9475777" stroke-linecap="round" stroke-linejoin="round"/>
    <path d="M 124.1387710571289 173.42709350585938 C 186.99169921875 174.87623596191406 182.68006896972656 156.5417022705078 118.32208251953125 161.8939666748047" stroke-width="3.0" fill="none" stroke="rgb(1, 0, 0)" stroke-opacity="0.07431115" stroke-linecap="round" stroke-linejoin="round"/>
    <path d="M 109.53233337402344 113.77044677734375 C 94.78330993652344 95.54653930664062 108.72042083740234 105.83010864257812 105.69723510742188 83.80912780761719" stroke-width="3.0" fill="none" stroke="rgb(1, 2, 1)" stroke-opacity="0.9788662" stroke-linecap="round" stroke-linejoin="round"/>
    <path d="M 226.30767822265625 142.70787048339844 C 211.26123046875 175.37501525878906 234.35879516601562 138.74887084960938 194.1758270263672 146.8239288330078" stroke-width="3.0" fill="none" stroke="rgb(-3, 1, 2)" stroke-opacity="0.43662423" stroke-linecap="round" stroke-linejoin="round"/>
    <path d="M 64.87968444824219 170.5192413330078 C 60.300167083740234 143.64300537109375 60.972618103027344 183.6970672607422 12.255424499511719 172.3520965576172" stroke-width="3.0" fill="none" stroke="rgb(1, -1, 0)" stroke-opacity="0.21491273" stroke-linecap="round" stroke-linejoin="round"/>
    <path d="M 137.97885131835938 153.00669860839844 C 133.32232666015625 131.2311248779297 133.37393188476562 127.19149017333984 124.10623168945312 110.53093719482422" stroke-width="3.0" fill="none" stroke="rgb(-1, 0, 0)" stroke-opacity="0.6163192" stroke-linecap="round" stroke-linejoin="round"/>
    <path d="M 64.15357971191406 86.20610046386719 C 72.38619995117188 119.2605209350586 76.33365631103516 103.53754425048828 66.10095977783203 91.5073471069336" stroke-width="3.0" fill="none" stroke="rgb(2, -1, 0)" stroke-opacity="0.44998825" stroke-linecap="round" stroke-linejoin="round"/>
    <path d="M 122.82746124267578 115.4238510131836 C 120.4120864868164 128.57244873046875 132.7238006591797 129.24334716796875 134.31484985351562 142.10618591308594" stroke-width="3.0" fill="none" stroke="rgb(-1, -1, 0)" stroke-opacity="0.47115356" stroke-linecap="round" stroke-linejoin="round"/>
    <path d="M 53.12852096557617 135.2686309814453 C 89.97066497802734 135.80850219726562 93.07794189453125 143.83534240722656 51.98792266845703 142.08169555664062" stroke-width="3.0" fill="none" stroke="rgb(1, -1, 0)" stroke-opacity="0.114085965" stroke-linecap="round" stroke-linejoin="round"/>
    <path d="M 149.98915100097656 154.64413452148438 C 122.29418182373047 156.19244384765625 120.86882781982422 124.22949981689453 124.25593566894531 119.2154312133789" stroke-width="3.0" fill="none" stroke="rgb(-3, -1, 4)" stroke-opacity="0.29214782" stroke-linecap="round" stroke-linejoin="round"/>
    <path d="M 96.83616638183594 138.6800994873047 C 32.757347106933594 138.37974548339844 23.058862686157227 143.26718139648438 78.94176483154297 140.56712341308594" stroke-width="3.0" fill="none" stroke="rgb(1, -1, 1)" stroke-opacity="0.22764426" stroke-linecap="round" stroke-linejoin="round"/>
    <path d="M 145.93875122070312 118.23986053466797 C 139.64288330078125 85.21234130859375 136.30392456054688 85.79280090332031 122.76911163330078 55.41163635253906" stroke-width="3.0" fill="none" stroke="rgb(1, -2, 1)" stroke-opacity="0.41030696" stroke-linecap="round" stroke-linejoin="round"/>
    <path d="M 144.13282775878906 191.83187866210938 C 105.22273254394531 186.39735412597656 151.53721618652344 206.22561645507812 121.24547576904297 191.24134826660156" stroke-width="3.0" fill="none" stroke="rgb(1, 0, -2)" stroke-opacity="0.05108297" stroke-linecap="round" stroke-linejoin="round"/>
    <path d="M 21.880922317504883 172.1909637451172 C 79.8282699584961 172.0894012451172 96.00581359863281 175.5178985595703 24.651901245117188 168.18699645996094" stroke-width="3.0" fill="none" stroke="rgb(-1, 0, 1)" stroke-opacity="0.4808379" stroke-linecap="round" stroke-linejoin="round"/>
    <path d="M 150.4793243408203 155.44937133789062 C 277.07562255859375 156.010009765625 277.9971923828125 158.54034423828125 149.9769744873047 158.81857299804688" stroke-width="3.0" fill="none" stroke="rgb(3, -3, 2)" stroke-opacity="0.66526496" stroke-linecap="round" stroke-linejoin="round"/>
    <path d="M 50.45916748046875 153.331298828125 C 83.69384002685547 204.8224639892578 40.67180252075195 197.74343872070312 75.55307006835938 195.78135681152344" stroke-width="3.0" fill="none" stroke="rgb(0, 0, 0)" stroke-opacity="0.019430447" stroke-linecap="round" stroke-linejoin="round"/>
    <path d="M 125.20320892333984 119.59911346435547 C 129.07720947265625 134.08192443847656 128.24801635742188 132.37379455566406 136.877685546875 149.53793334960938" stroke-width="3.0" fill="none" stroke="rgb(-3, 0, 1)" stroke-opacity="0.7003723" stroke-linecap="round" stroke-linejoin="round"/>
    <path d="M 66.38182830810547 84.9969711303711 C 94.41966247558594 95.18022155761719 47.79713821411133 74.6550064086914 75.38043975830078 94.81407928466797" stroke-width="3.0" fill="none" stroke="rgb(0, 1, 0)" stroke-opacity="0.114361174" stroke-linecap="round" stroke-linejoin="round"/>
    <path d="M 182.4445343017578 231.8545684814453 C 177.356201171875 232.032958984375 180.14886474609375 234.17799377441406 200.06741333007812 230.7948455810547" stroke-width="3.0" fill="none" stroke="rgb(0, 0, 0)" stroke-opacity="0.90402293" stroke-linecap="round" stroke-linejoin="round"/>
    <path d="M 142.2696533203125 62.52216339111328 C 166.4470672607422 80.05911254882812 143.26124572753906 73.07437896728516 145.00144958496094 64.97486114501953" stroke-width="3.0" fill="none" stroke="rgb(0, 2, -3)" stroke-opacity="0.06847546" stroke-linecap="round" stroke-linejoin="round"/>
    <path d="M 123.29483032226562 103.51844024658203 C 138.37716674804688 128.73464965820312 135.75340270996094 141.17416381835938 130.1194610595703 128.59280395507812" stroke-width="3.0" fill="none" stroke="rgb(0, 1, -1)" stroke-opacity="0.18945944" stroke-linecap="round" stroke-linejoin="round"/>
    <path d="M 104.96590423583984 206.79112243652344 C 177.76443481445312 198.0138397216797 147.82237243652344 203.66859436035156 141.8849639892578 198.50205993652344" stroke-width="3.0" fill="none" stroke="rgb(0, -1, 0)" stroke-opacity="0.051088337" stroke-linecap="round" stroke-linejoin="round"/>
    <path d="M 150.31936645507812 193.55062866210938 C 151.21981811523438 192.56234741210938 151.3560333251953 194.2242431640625 114.6126480102539 198.59373474121094" stroke-width="3.0" fill="none" stroke="rgb(0, 0, -1)" stroke-opacity="0.056494668" stroke-linecap="round" stroke-linejoin="round"/>
    <path d="M 76.46910858154297 133.58409118652344 C 97.46178436279297 132.2978973388672 77.96227264404297 130.68612670898438 74.51394653320312 142.83750915527344" stroke-width="3.0" fill="none" stroke="rgb(0, 0, 0)" stroke-opacity="0.44684806" stroke-linecap="round" stroke-linejoin="round"/>
    <path d="M 228.7646942138672 106.17013549804688 C 214.8046112060547 102.57967376708984 207.15296936035156 108.57923889160156 216.34625244140625 101.6155776977539" stroke-width="3.0" fill="none" stroke="rgb(1, 1, 1)" stroke-opacity="0.10064438" stroke-linecap="round" stroke-linejoin="round"/>
    <path d="M 131.42120361328125 137.8018341064453 C 113.60894775390625 115.29459381103516 99.92867279052734 93.5678939819336 117.22863006591797 117.91899871826172" stroke-width="3.0" fill="none" stroke="rgb(1, 0, 2)" stroke-opacity="0.9241635" stroke-linecap="round" stroke-linejoin="round"/>
    <path d="M 66.31979370117188 131.0983428955078 C 47.70741271972656 105.04324340820312 45.84000015258789 90.05386352539062 67.81169891357422 128.80999755859375" stroke-width="3.0" fill="none" stroke="rgb(2, 1, -3)" stroke-opacity="0.53789556" stroke-linecap="round" stroke-linejoin="round"/>
    <path d="M 89.6950454711914 164.3305206298828 C 120.33753204345703 192.57337951660156 151.23060607910156 164.26170349121094 101.55123901367188 175.1453399658203" stroke-width="3.0" fill="none" stroke="rgb(2, -1, 0)" stroke-opacity="0.17897141" stroke-linecap="round" stroke-linejoin="round"/>
    <path d="M 93.43212127685547 129.5432891845703 C 96.4706039428711 152.3956756591797 112.0381088256836 151.4069061279297 90.8487777709961 143.24472045898438" stroke-width="3.0" fill="none" stroke="rgb(0, 0, 0)" stroke-opacity="0.0071527814" stroke-linecap="round" stroke-linejoin="round"/>
    <path d="M 82.55357360839844 141.1599884033203 C 85.47393035888672 212.5880126953125 104.99801635742188 126.18960571289062 73.38056945800781 131.68670654296875" stroke-width="3.0" fill="none" stroke="rgb(1, 0, 0)" stroke-opacity="0.04493061" stroke-linecap="round" stroke-linejoin="round"/>
    <path d="M 66.01057434082031 232.74366760253906 C 61.00249481201172 230.02752685546875 59.07427978515625 231.6742401123047 64.25970458984375 230.3418731689453" stroke-width="3.0" fill="none" stroke="rgb(0, 0, 0)" stroke-opacity="0.85073215" stroke-linecap="round" stroke-linejoin="round"/>
    <path d="M 86.00113677978516 190.40090942382812 C 143.9636993408203 186.3351287841797 160.51779174804688 193.63079833984375 66.57533264160156 197.72084045410156" stroke-width="3.0" fill="none" stroke="rgb(0, 0, 0)" stroke-opacity="0.04368656" stroke-linecap="round" stroke-linejoin="round"/>
    <path d="M 71.19324493408203 230.97216796875 C 70.23753356933594 226.21165466308594 72.55423736572266 230.86099243164062 70.11471557617188 234.16184997558594" stroke-width="3.0" fill="none" stroke="rgb(0, 0, 0)" stroke-opacity="0.80866224" stroke-linecap="round" stroke-linejoin="round"/>
    <path d="M 209.4473114013672 181.0414276123047 C 268.665283203125 179.9171905517578 242.71136474609375 179.50929260253906 157.7013702392578 181.19862365722656" stroke-width="3.0" fill="none" stroke="rgb(-1, -1, 3)" stroke-opacity="0.16800955" stroke-linecap="round" stroke-linejoin="round"/>
    <path d="M 215.08087158203125 168.19677734375 C 113.9159164428711 168.9356231689453 160.98452758789062 165.26353454589844 145.32240295410156 169.79345703125" stroke-width="3.0" fill="none" stroke="rgb(-2, 1, 1)" stroke-opacity="0.331789" stroke-linecap="round" stroke-linejoin="round"/>
    <path d="M 184.24459838867188 145.80189514160156 C 161.47705078125 140.34739685058594 192.8997344970703 132.91261291503906 160.22970581054688 151.32968139648438" stroke-width="3.0" fill="none" stroke="rgb(-2, 3, 0)" stroke-opacity="0.5547818" stroke-linecap="round" stroke-linejoin="round"/>
    <path d="M 91.9948959350586 137.17279052734375 C 109.231201171875 156.05630493164062 104.32830810546875 140.41964721679688 104.98814392089844 144.68431091308594" stroke-width="3.0" fill="none" stroke="rgb(0, -1, 0)" stroke-opacity="0.35876128" stroke-linecap="round" stroke-linejoin="round"/>
    <path d="M 118.13839721679688 120.64630889892578 C 92.10494232177734 90.5980453491211 123.77654266357422 79.8299789428711 109.8646469116211 108.9031753540039" stroke-width="3.0" fill="none" stroke="rgb(0, 2, 2)" stroke-opacity="0.90972614" stroke-linecap="round" stroke-linejoin="round"/>
    <path d="M 41.205360412597656 192.13726806640625 C 104.17814636230469 192.7684326171875 106.65650939941406 179.46774291992188 75.94691467285156 184.2676239013672" stroke-width="3.0" fill="none" stroke="rgb(0, 0, 1)" stroke-opacity="0.054637354" stroke-linecap="round" stroke-linejoin="round"/>
    <path d="M 12.393393516540527 155.8796844482422 C 65.90766906738281 141.98744201660156 56.48094177246094 157.57058715820312 57.69021224975586 138.98426818847656" stroke-width="3.0" fill="none" stroke="rgb(0, 0, 0)" stroke-opacity="0.19024803" stroke-linecap="round" stroke-linejoin="round"/>
    <path d="M 149.4547882080078 64.308837890625 C 161.9571990966797 73.76152038574219 149.95529174804688 70.11970520019531 128.65110778808594 54.62874221801758" stroke-width="3.0" fill="none" stroke="rgb(0, 1, -1)" stroke-opacity="0.044408955" stroke-linecap="round" stroke-linejoin="round"/>
    <path d="M 107.06819152832031 87.4532241821289 C 108.41766357421875 114.96137237548828 109.40381622314453 104.26683044433594 105.90852355957031 105.63516998291016" stroke-width="3.0" fill="none" stroke="rgb(1, 3, 2)" stroke-opacity="0.97507197" stroke-linecap="round" stroke-linejoin="round"/>
    <path d="M 149.0702362060547 154.8984832763672 C 157.33856201171875 105.50340270996094 136.94009399414062 209.19085693359375 146.29896545410156 129.2027587890625" stroke-width="3.0" fill="none" stroke="rgb(-1, 0, 1)" stroke-opacity="0.30256155" stroke-linecap="round" stroke-linejoin="round"/>
    <path d="M 38.30918884277344 147.64833068847656 C 108.14891815185547 140.2322235107422 56.31259536743164 150.11000061035156 74.72167205810547 134.12362670898438" stroke-width="3.0" fill="none" stroke="rgb(0, 0, 0)" stroke-opacity="0.34735268" stroke-linecap="round" stroke-linejoin="round"/>
    <path d="M 128.70718383789062 182.75625610351562 C 69.7584228515625 178.00509643554688 86.1360855102539 179.19686889648438 154.55799865722656 180.0770721435547" stroke-width="3.0" fill="none" stroke="rgb(0, 0, 0)" stroke-opacity="0.26290563" stroke-linecap="round" stroke-linejoin="round"/>
    <path d="M 134.61480712890625 112.52857971191406 C 117.50640106201172 62.77131652832031 116.52955627441406 66.5141372680664 92.56341552734375 106.05755615234375" stroke-width="3.0" fill="none" stroke="rgb(-1, 1, -1)" stroke-opacity="0.04717658" stroke-linecap="round" stroke-linejoin="round"/>
    <path d="M 102.7236557006836 73.73758697509766 C 98.75657653808594 75.2919921875 105.18355560302734 56.52576446533203 122.7347640991211 97.28231811523438" stroke-width="3.0" fill="none" stroke="rgb(0, 0, 0)" stroke-opacity="0.13638428" stroke-linecap="round" stroke-linejoin="round"/>
    <path d="M 88.48229217529297 123.24323272705078 C 72.28946685791016 103.17433166503906 72.59697723388672 108.29019927978516 64.96765899658203 88.57088470458984" stroke-width="3.0" fill="none" stroke="rgb(3, -2, 0)" stroke-opacity="0.35654116" stroke-linecap="round" stroke-linejoin="round"/>
    <path d="M 90.42285919189453 131.30154418945312 C 27.931610107421875 95.24971771240234 58.163822174072266 96.09992218017578 87.556640625 119.65861511230469" stroke-width="3.0" fill="none" stroke="rgb(-1, 0, 1)" stroke-opacity="0.09357824" stroke-linecap="round" stroke-linejoin="round"/>
    <path d="M 190.2023162841797 118.00061798095703 C 173.52281188964844 56.57575607299805 154.29202270507812 97.4109115600586 170.56578063964844 84.98633575439453" stroke-width="3.0" fill="none" stroke="rgb(-3, 2, 2)" stroke-opacity="0.048597686" stroke-linecap="round" stroke-linejoin="round"/>
    <path d="M 130.5000457763672 110.32412719726562 C 111.08340454101562 52.71754837036133 103.32909393310547 72.25283813476562 100.30573272705078 114.48629760742188" stroke-width="3.0" fill="none" stroke="rgb(-1, 1, 0)" stroke-opacity="0.09491726" stroke-linecap="round" stroke-linejoin="round"/>
    <path d="M 103.28705596923828 118.94806671142578 C 98.4255142211914 111.7142105102539 105.46705627441406 123.5984878540039 103.89900970458984 121.42420959472656" stroke-width="3.0" fill="none" stroke="rgb(-1, 0, 0)" stroke-opacity="0.18989249" stroke-linecap="round" stroke-linejoin="round"/>
    <path d="M 60.10601043701172 131.16094970703125 C 103.136962890625 143.49951171875 97.85896301269531 131.08607482910156 54.826744079589844 129.87554931640625" stroke-width="3.0" fill="none" stroke="rgb(-1, 0, 1)" stroke-opacity="0.2371011" stroke-linecap="round" stroke-linejoin="round"/>
    <path d="M 126.76847076416016 71.70513153076172 C 132.14663696289062 76.86270904541016 133.33978271484375 69.51029205322266 125.18258666992188 69.35591888427734" stroke-width="3.0" fill="none" stroke="rgb(0, 0, 0)" stroke-opacity="0.15840651" stroke-linecap="round" stroke-linejoin="round"/>
    <path d="M 233.4801788330078 98.29781341552734 C 203.8170623779297 99.12911224365234 227.28485107421875 104.03829193115234 233.3829803466797 99.88262176513672" stroke-width="3.0" fill="none" stroke="rgb(0, 0, 2)" stroke-opacity="0.09098286" stroke-linecap="round" stroke-linejoin="round"/>
    <path d="M 62.38417053222656 133.625732421875 C 53.61272430419922 85.6007308959961 56.94255447387695 148.01524353027344 64.29241943359375 132.76341247558594" stroke-width="3.0" fill="none" stroke="rgb(0, 2, -1)" stroke-opacity="0.57394093" stroke-linecap="round" stroke-linejoin="round"/>
    <path d="M 136.0996551513672 156.31297302246094 C 144.7740478515625 175.0482940673828 133.07643127441406 184.07791137695312 171.95852661132812 178.73060607910156" stroke-width="3.0" fill="none" stroke="rgb(0, 0, 0)" stroke-opacity="0.09072464" stroke-linecap="round" stroke-linejoin="round"/>
    <path d="M 109.27146911621094 138.22569274902344 C 122.43669891357422 139.104248046875 145.08682250976562 157.9460906982422 107.94230651855469 142.117431640625" stroke-width="3.0" fill="none" stroke="rgb(-2, 4, 2)" stroke-opacity="0.7262249" stroke-linecap="round" stroke-linejoin="round"/>
    <path d="M 38.015357971191406 146.4788055419922 C 104.05162811279297 148.7279510498047 73.7732925415039 141.13754272460938 33.87617874145508 144.15138244628906" stroke-width="3.0" fill="none" stroke="rgb(1, 0, 1)" stroke-opacity="0.45599207" stroke-linecap="round" stroke-linejoin="round"/>
    <path d="M 35.403541564941406 144.19052124023438 C 72.91179656982422 188.29051208496094 63.72959899902344 157.99118041992188 31.414175033569336 153.4072265625" stroke-width="3.0" fill="none" stroke="rgb(-3, -3, 5)" stroke-opacity="0.22343725" stroke-linecap="round" stroke-linejoin="round"/>
    <path d="M 29.949270248413086 178.93701171875 C 91.9604263305664 200.0624542236328 134.93826293945312 195.8978729248047 85.49232482910156 182.65325927734375" stroke-width="3.0" fill="none" stroke="rgb(-1, 0, 0)" stroke-opacity="0.054871462" stroke-linecap="round" stroke-linejoin="round"/>
    <path d="M 234.80288696289062 171.29318237304688 C 139.2252960205078 168.6424560546875 139.71424865722656 166.6370849609375 237.37673950195312 168.17140197753906" stroke-width="3.0" fill="none" stroke="rgb(-4, 3, 4)" stroke-opacity="0.54161066" stroke-linecap="round" stroke-linejoin="round"/>
    <path d="M 37.56361389160156 184.5586700439453 C 62.73387145996094 184.78065490722656 17.106578826904297 177.10305786132812 -7.388221263885498 177.97576904296875" stroke-width="3.0" fill="none" stroke="rgb(-3, 2, 0)" stroke-opacity="0.16160941" stroke-linecap="round" stroke-linejoin="round"/>
    <path d="M 169.41790771484375 80.68647766113281 C 126.35771942138672 78.4937973022461 144.44935607910156 41.58543014526367 154.50506591796875 80.9520034790039" stroke-width="3.0" fill="none" stroke="rgb(0, 2, -3)" stroke-opacity="0.036689162" stroke-linecap="round" stroke-linejoin="round"/>
    <path d="M 229.64175415039062 153.6885528564453 C 181.8254852294922 163.22943115234375 199.5002899169922 142.25296020507812 194.64865112304688 174.7633514404297" stroke-width="3.0" fill="none" stroke="rgb(-1, -2, 1)" stroke-opacity="0.27919406" stroke-linecap="round" stroke-linejoin="round"/>
    <path d="M 69.71919250488281 182.62075805664062 C 74.63056945800781 164.57937622070312 69.48545837402344 168.3868865966797 33.49582290649414 157.82028198242188" stroke-width="3.0" fill="none" stroke="rgb(0, 0, 0)" stroke-opacity="0.11595539" stroke-linecap="round" stroke-linejoin="round"/>
    <path d="M 158.6875 75.4693374633789 C 122.40179443359375 81.07698059082031 174.66354370117188 81.19813537597656 162.9119415283203 83.38898468017578" stroke-width="3.0" fill="none" stroke="rgb(0, 0, -2)" stroke-opacity="0.026772838" stroke-linecap="round" stroke-linejoin="round"/>
    <path d="M 160.53651428222656 152.44338989257812 C 185.7118682861328 161.8496856689453 200.3580780029297 149.93028259277344 176.35394287109375 141.13726806640625" stroke-width="3.0" fill="none" stroke="rgb(-2, 0, 1)" stroke-opacity="0.33077928" stroke-linecap="round" stroke-linejoin="round"/>
    <path d="M 96.78803253173828 140.89105224609375 C 87.65795135498047 120.79081726074219 80.9365234375 110.54104614257812 63.6647834777832 86.43296813964844" stroke-width="3.0" fill="none" stroke="rgb(2, -2, 2)" stroke-opacity="0.45808664" stroke-linecap="round" stroke-linejoin="round"/>
    <path d="M 93.33248901367188 98.05288696289062 C 114.80844116210938 125.06543731689453 121.88713073730469 121.38218688964844 135.9938507080078 148.3876953125" stroke-width="3.0" fill="none" stroke="rgb(-1, -2, 1)" stroke-opacity="0.6117656" stroke-linecap="round" stroke-linejoin="round"/>
    <path d="M 0.49959897994995117 212.22007751464844 C 52.59336853027344 213.91246032714844 48.8764762878418 195.7411651611328 31.17589569091797 195.57217407226562" stroke-width="3.0" fill="none" stroke="rgb(1, 0, 1)" stroke-opacity="0.018434664" stroke-linecap="round" stroke-linejoin="round"/>
    <path d="M 194.92437744140625 128.9146270751953 C 206.4183807373047 142.6513671875 199.49757385253906 128.59481811523438 197.88037109375 133.99365234375" stroke-width="3.0" fill="none" stroke="rgb(0, 1, 0)" stroke-opacity="0.08059034" stroke-linecap="round" stroke-linejoin="round"/>
    <path d="M 139.15057373046875 211.9209747314453 C 299.1199951171875 213.32638549804688 206.21022033691406 222.47964477539062 231.4816436767578 215.75050354003906" stroke-width="3.0" fill="none" stroke="rgb(-1, 1, 1)" stroke-opacity="0.060844187" stroke-linecap="round" stroke-linejoin="round"/>
    <path d="M 63.04631042480469 86.04493713378906 C 72.82766723632812 104.55069732666016 65.41950988769531 97.45906066894531 69.6800308227539 125.88367462158203" stroke-width="3.0" fill="none" stroke="rgb(0, 0, 0)" stroke-opacity="0.26187068" stroke-linecap="round" stroke-linejoin="round"/>
    <path d="M 125.72010803222656 131.1328887939453 C 127.1960220336914 109.67355346679688 112.53352355957031 89.7463607788086 123.76657104492188 109.49871063232422" stroke-width="3.0" fill="none" stroke="rgb(-1, -2, 3)" stroke-opacity="0.4320524" stroke-linecap="round" stroke-linejoin="round"/>
    <path d="M 76.13304138183594 169.4346923828125 C 89.94017028808594 154.30667114257812 25.838335037231445 138.3025665283203 35.695762634277344 166.84539794921875" stroke-width="3.0" fill="none" stroke="rgb(0, 0, -1)" stroke-opacity="0.10961556" stroke-linecap="round" stroke-linejoin="round"/>
    <path d="M 190.35519409179688 122.20975494384766 C 217.63345336914062 139.88014221191406 224.24266052246094 167.36439514160156 210.3218536376953 144.35543823242188" stroke-width="3.0" fill="none" stroke="rgb(-2, 0, 2)" stroke-opacity="0.20506516" stroke-linecap="round" stroke-linejoin="round"/>
    <path d="M 87.99991607666016 127.75663757324219 C 101.03180694580078 146.038818359375 93.68912506103516 181.69314575195312 93.07946014404297 139.38735961914062" stroke-width="3.0" fill="none" stroke="rgb(3, -4, 2)" stroke-opacity="0.107896" stroke-linecap="round" stroke-linejoin="round"/>
    <path d="M 71.25460815429688 116.65340423583984 C 54.48731994628906 152.53851318359375 105.29168701171875 144.1881103515625 59.800838470458984 129.3063507080078" stroke-width="3.0" fill="none" stroke="rgb(0, 0, 0)" stroke-opacity="0.038873896" stroke-linecap="round" stroke-linejoin="round"/>
    <path d="M 153.2238006591797 67.29354858398438 C 163.11477661132812 89.69004821777344 177.7109832763672 72.04630279541016 119.71662902832031 50.17719268798828" stroke-width="3.0" fill="none" stroke="rgb(0, 0, -1)" stroke-opacity="0.14353423" stroke-linecap="round" stroke-linejoin="round"/>
    <path d="M 149.90806579589844 149.69044494628906 C 219.06105041503906 153.070556640625 260.15423583984375 150.85400390625 149.63211059570312 146.52603149414062" stroke-width="3.0" fill="none" stroke="rgb(0, 0, 1)" stroke-opacity="0.44009095" stroke-linecap="round" stroke-linejoin="round"/>
    <path d="M 91.32140350341797 95.76313781738281 C 106.7925033569336 117.12190246582031 89.4822769165039 92.13375854492188 94.93346405029297 98.08354949951172" stroke-width="3.0" fill="none" stroke="rgb(0, 0, 2)" stroke-opacity="0.55553055" stroke-linecap="round" stroke-linejoin="round"/>
    <path d="M 121.87322998046875 125.55057525634766 C 111.00444030761719 98.69186401367188 105.76143646240234 71.20388793945312 115.81937408447266 117.98206329345703" stroke-width="3.0" fill="none" stroke="rgb(1, -1, 0)" stroke-opacity="1.0037314" stroke-linecap="round" stroke-linejoin="round"/>
    <path d="M 209.28663635253906 106.78556060791016 C 216.21383666992188 100.27164459228516 194.2666015625 114.47509765625 211.2130126953125 108.1688003540039" stroke-width="3.0" fill="none" stroke="rgb(0, 0, 1)" stroke-opacity="0.06782957" stroke-linecap="round" stroke-linejoin="round"/>
    <path d="M 119.08908081054688 50.865074157714844 C 125.27181243896484 80.30326843261719 145.6452178955078 85.47093200683594 123.83792114257812 75.90648651123047" stroke-width="3.0" fill="none" stroke="rgb(0, 1, 0)" stroke-opacity="0.48302573" stroke-linecap="round" stroke-linejoin="round"/>
    <path d="M 108.89160919189453 84.45449829101562 C 118.9232406616211 100.87583923339844 122.37674713134766 108.38703918457031 133.96295166015625 140.0076141357422" stroke-width="3.0" fill="none" stroke="rgb(4, 0, 0)" stroke-opacity="0.99065244" stroke-linecap="round" stroke-linejoin="round"/>
    <path d="M 220.88169860839844 196.2964630126953 C 181.16249084472656 196.12777709960938 123.203125 198.36009216308594 231.7001495361328 206.138916015625" stroke-width="3.0" fill="none" stroke="rgb(0, 0, 1)" stroke-opacity="0.029009452" stroke-linecap="round" stroke-linejoin="round"/>
    <path d="M 196.06655883789062 221.658935546875 C -70.33146667480469 226.0443878173828 17.959671020507812 218.4713134765625 -1.832152009010315 229.55592346191406" stroke-width="3.0" fill="none" stroke="rgb(-1, 1, 0)" stroke-opacity="0.10920433" stroke-linecap="round" stroke-linejoin="round"/>
    <path d="M 105.0621109008789 76.32525634765625 C 105.64258575439453 110.9265365600586 101.2517318725586 97.36048126220703 78.62911987304688 88.2289047241211" stroke-width="3.0" fill="none" stroke="rgb(0, 0, 0)" stroke-opacity="0.18117915" stroke-linecap="round" stroke-linejoin="round"/>
    <path d="M 115.95740509033203 104.45601654052734 C 106.34162902832031 82.45006561279297 121.36610412597656 110.22138977050781 87.18695068359375 93.55345153808594" stroke-width="3.0" fill="none" stroke="rgb(1, -1, 2)" stroke-opacity="0.8420014" stroke-linecap="round" stroke-linejoin="round"/>
    <path d="M 81.9539566040039 204.57752990722656 C 12.509613990783691 191.5066375732422 16.57337760925293 216.8592529296875 94.08631896972656 205.1925048828125" stroke-width="3.0" fill="none" stroke="rgb(0, -1, 0)" stroke-opacity="0.040765718" stroke-linecap="round" stroke-linejoin="round"/>
    <path d="M 122.7718505859375 124.1473159790039 C 120.29862976074219 92.91249084472656 86.9735336303711 99.74610137939453 120.85894012451172 122.39910125732422" stroke-width="3.0" fill="none" stroke="rgb(-3, 0, 2)" stroke-opacity="0.7420707" stroke-linecap="round" stroke-linejoin="round"/>
    <path d="M 87.5198745727539 176.55262756347656 C 84.44564056396484 185.43731689453125 84.70262908935547 193.58486938476562 82.42528533935547 172.40505981445312" stroke-width="3.0" fill="none" stroke="rgb(0, 1, 0)" stroke-opacity="0.037522804" stroke-linecap="round" stroke-linejoin="round"/>
    <path d="M 162.12271118164062 226.9272003173828 C 153.86013793945312 230.7097625732422 148.59503173828125 228.73558044433594 149.49818420410156 227.53189086914062" stroke-width="3.0" fill="none" stroke="rgb(0, 0, 0)" stroke-opacity="0.45771426" stroke-linecap="round" stroke-linejoin="round"/>
    <path d="M 88.25787353515625 134.7708282470703 C 93.67193603515625 143.189697265625 92.83023071289062 141.0001220703125 89.09407043457031 138.2574462890625" stroke-width="3.0" fill="none" stroke="rgb(0, 0, 0)" stroke-opacity="0.2764261" stroke-linecap="round" stroke-linejoin="round"/>
    <path d="M 107.36632537841797 97.65503692626953 C 129.013916015625 142.70199584960938 131.0032501220703 141.56739807128906 103.35794067382812 74.66606140136719" stroke-width="3.0" fill="none" stroke="rgb(3, -3, 2)" stroke-opacity="0.89212525" stroke-linecap="round" stroke-linejoin="round"/>
    <path d="M 112.99659729003906 215.6648406982422 C 203.25360107421875 223.2079315185547 137.22914123535156 204.8269500732422 188.5200653076172 219.2852020263672" stroke-width="3.0" fill="none" stroke="rgb(2, -1, 0)" stroke-opacity="0.055817023" stroke-linecap="round" stroke-linejoin="round"/>
    <path d="M 121.53018188476562 212.65679931640625 C 171.84396362304688 205.90875244140625 129.66485595703125 198.81309509277344 154.0615692138672 208.00778198242188" stroke-width="3.0" fill="none" stroke="rgb(1, -1, 0)" stroke-opacity="0.041515436" stroke-linecap="round" stroke-linejoin="round"/>
    <path d="M 26.588708877563477 154.1099395751953 C -24.652729034423828 148.0780792236328 -22.31453514099121 165.58242797851562 -8.317865371704102 153.49842834472656" stroke-width="3.0" fill="none" stroke="rgb(-2, 1, 2)" stroke-opacity="0.28452817" stroke-linecap="round" stroke-linejoin="round"/>
    <path d="M 92.09734344482422 136.02032470703125 C 63.57093048095703 123.04456329345703 50.819976806640625 95.4721450805664 81.38288879394531 124.10077667236328" stroke-width="3.0" fill="none" stroke="rgb(-3, 0, 2)" stroke-opacity="0.049771443" stroke-linecap="round" stroke-linejoin="round"/>
    <path d="M 89.19244384765625 130.28465270996094 C 73.72042083740234 113.40565490722656 89.68248748779297 102.35694885253906 97.52574920654297 141.7829132080078" stroke-width="3.0" fill="none" stroke="rgb(-2, 0, 2)" stroke-opacity="0.07821316" stroke-linecap="round" stroke-linejoin="round"/>
    <path d="M 52.9765739440918 104.54618835449219 C 54.31577682495117 115.15580749511719 54.206748962402344 118.3021240234375 56.12598419189453 134.95947265625" stroke-width="3.0" fill="none" stroke="rgb(-1, -1, 3)" stroke-opacity="0.5740795" stroke-linecap="round" stroke-linejoin="round"/>
    <path d="M 100.17598724365234 168.00601196289062 C 47.60128402709961 143.8390655517578 57.76774597167969 149.21902465820312 62.52512741088867 138.93951416015625" stroke-width="3.0" fill="none" stroke="rgb(-2, -1, 4)" stroke-opacity="0.25203177" stroke-linecap="round" stroke-linejoin="round"/>
    <path d="M 108.67391204833984 199.44602966308594 C 112.21797943115234 199.1790771484375 95.33811950683594 198.9800567626953 120.99913024902344 201.12644958496094" stroke-width="3.0" fill="none" stroke="rgb(1, 0, -2)" stroke-opacity="0.0676309" stroke-linecap="round" stroke-linejoin="round"/>
    <path d="M 103.81034851074219 74.33973693847656 C 133.83705139160156 113.64630126953125 127.77706909179688 124.29122924804688 134.22958374023438 143.43104553222656" stroke-width="3.0" fill="none" stroke="rgb(2, 0, 0)" stroke-opacity="0.5888189" stroke-linecap="round" stroke-linejoin="round"/>
    <path d="M 97.72491455078125 144.52227783203125 C 102.28207397460938 185.11106872558594 98.88182067871094 143.40184020996094 98.59427642822266 166.83006286621094" stroke-width="3.0" fill="none" stroke="rgb(1, -1, 0)" stroke-opacity="0.17082696" stroke-linecap="round" stroke-linejoin="round"/>
    <path d="M 151.6205596923828 158.5370635986328 C 137.678466796875 219.24899291992188 128.71575927734375 157.107421875 128.04403686523438 130.8464813232422" stroke-width="3.0" fill="none" stroke="rgb(0, 0, 1)" stroke-opacity="0.07140535" stroke-linecap="round" stroke-linejoin="round"/>
  </g>
</svg>
