<?xml version="1.0" ?>
<svg xmlns="http://www.w3.org/2000/svg" version="1.1" width="224" height="224">
  <defs/>
  <g>
    <path d="M 87.60724639892578 93.39777374267578 C 100.13642883300781 105.29728698730469 98.52616882324219 108.61331939697266 104.16082763671875 118.68275451660156" stroke-width="3.0" fill="none" stroke="rgb(-1, -1, 1)" stroke-opacity="0.36492395" stroke-linecap="round" stroke-linejoin="round"/>
    <path d="M 174.24395751953125 137.0387725830078 C 195.0320587158203 108.46297454833984 188.2526397705078 134.72451782226562 189.90451049804688 120.01629638671875" stroke-width="3.0" fill="none" stroke="rgb(0, 0, 0)" stroke-opacity="0.13326946" stroke-linecap="round" stroke-linejoin="round"/>
    <path d="M 7.469098091125488 191.9897918701172 C 35.918434143066406 186.85055541992188 2.3985037803649902 193.01446533203125 39.31303787231445 191.27935791015625" stroke-width="3.0" fill="none" stroke="rgb(0, 0, -1)" stroke-opacity="0.046315152" stroke-linecap="round" stroke-linejoin="round"/>
    <path d="M 101.5511245727539 70.8418197631836 C 128.11607360839844 99.12657928466797 107.26119232177734 111.6100082397461 106.79423522949219 78.86697387695312" stroke-width="3.0" fill="none" stroke="rgb(1, 1, -2)" stroke-opacity="0.2916896" stroke-linecap="round" stroke-linejoin="round"/>
    <path d="M 104.17508697509766 119.28910827636719 C 94.1791000366211 143.48146057128906 111.29528045654297 156.24932861328125 105.52584838867188 123.4135971069336" stroke-width="3.0" fill="none" stroke="rgb(-1, 2, 1)" stroke-opacity="0.12022371" stroke-linecap="round" stroke-linejoin="round"/>
    <path d="M 140.71298217773438 57.908203125 C 150.04351806640625 59.81702423095703 168.35362243652344 78.44377899169922 166.12930297851562 76.73237609863281" stroke-width="3.0" fill="none" stroke="rgb(-1, 0, 1)" stroke-opacity="0.10339078" stroke-linecap="round" stroke-linejoin="round"/>
    <path d="M 172.5943145751953 141.43994140625 C 150.79978942871094 160.98651123046875 158.46209716796875 151.24169921875 151.2060089111328 146.21859741210938" stroke-width="3.0" fill="none" stroke="rgb(-2, 0, 2)" stroke-opacity="0.40650204" stroke-linecap="round" stroke-linejoin="round"/>
    <path d="M 50.245941162109375 136.1037139892578 C 23.404327392578125 160.04306030273438 26.78521156311035 143.15435791015625 59.91914367675781 146.1201171875" stroke-width="3.0" fill="none" stroke="rgb(0, -1, 1)" stroke-opacity="0.31326452" stroke-linecap="round" stroke-linejoin="round"/>
    <path d="M 110.5428466796875 139.6205596923828 C 124.76624298095703 141.8087158203125 126.8786392211914 146.45095825195312 132.33399963378906 152.38636779785156" stroke-width="3.0" fill="none" stroke="rgb(-2, -1, 2)" stroke-opacity="0.6425597" stroke-linecap="round" stroke-linejoin="round"/>
    <path d="M 30.59764289855957 169.15408325195312 C 83.4728012084961 157.745361328125 78.3354721069336 137.8545684814453 79.76469421386719 179.08055114746094" stroke-width="3.0" fill="none" stroke="rgb(-1, 0, 2)" stroke-opacity="0.07385615" stroke-linecap="round" stroke-linejoin="round"/>
    <path d="M 122.18224334716797 178.31619262695312 C 15.41220760345459 181.4274444580078 -15.853713035583496 173.0223846435547 -14.199695587158203 179.0186309814453" stroke-width="3.0" fill="none" stroke="rgb(-2, 1, 1)" stroke-opacity="0.21108507" stroke-linecap="round" stroke-linejoin="round"/>
    <path d="M 136.56504821777344 165.40408325195312 C 101.89096069335938 167.4525146484375 180.90994262695312 168.24888610839844 127.72518920898438 167.98294067382812" stroke-width="3.0" fill="none" stroke="rgb(-1, 0, 0)" stroke-opacity="0.38302475" stroke-linecap="round" stroke-linejoin="round"/>
    <path d="M 66.18783569335938 151.25222778320312 C 108.88410949707031 183.4917449951172 186.40145874023438 157.7233428955078 120.97361755371094 173.1658477783203" stroke-width="3.0" fill="none" stroke="rgb(-4, 3, 4)" stroke-opacity="0.20662516" stroke-linecap="round" stroke-linejoin="round"/>
    <path d="M 108.46570587158203 181.87261962890625 C 96.17739868164062 183.9842071533203 116.22480773925781 188.7904052734375 138.42251586914062 175.44415283203125" stroke-width="3.0" fill="none" stroke="rgb(0, 0, 1)" stroke-opacity="0.10498183" stroke-linecap="round" stroke-linejoin="round"/>
    <path d="M 177.5016632080078 136.7781219482422 C 191.7145233154297 128.19703674316406 190.74256896972656 101.57227325439453 188.07577514648438 154.32737731933594" stroke-width="3.0" fill="none" stroke="rgb(-2, 0, 3)" stroke-opacity="0.22620419" stroke-linecap="round" stroke-linejoin="round"/>
    <path d="M 96.95459747314453 139.39418029785156 C 90.1298599243164 129.21929931640625 85.3332748413086 108.49571228027344 66.13306427001953 102.61390686035156" stroke-width="3.0" fill="none" stroke="rgb(-1, 0, 1)" stroke-opacity="0.32663932" stroke-linecap="round" stroke-linejoin="round"/>
    <path d="M 130.03521728515625 151.79457092285156 C 97.60774230957031 129.28622436523438 104.53955078125 157.2928924560547 105.0003890991211 132.81802368164062" stroke-width="3.0" fill="none" stroke="rgb(0, 0, 0)" stroke-opacity="0.594862" stroke-linecap="round" stroke-linejoin="round"/>
    <path d="M 103.098876953125 73.3031997680664 C 120.886474609375 110.87261962890625 123.07209777832031 108.46419525146484 104.03551483154297 95.3008041381836" stroke-width="3.0" fill="none" stroke="rgb(3, 0, -3)" stroke-opacity="0.31513795" stroke-linecap="round" stroke-linejoin="round"/>
    <path d="M 218.96841430664062 102.7400894165039 C 225.7395477294922 99.23797607421875 235.41954040527344 102.24662017822266 231.6641845703125 104.23072052001953" stroke-width="3.0" fill="none" stroke="rgb(-1, 0, 1)" stroke-opacity="0.1822364" stroke-linecap="round" stroke-linejoin="round"/>
    <path d="M 140.11441040039062 207.606689453125 C 177.2777099609375 209.1605224609375 139.41619873046875 204.15582275390625 170.78970336914062 207.8179931640625" stroke-width="3.0" fill="none" stroke="rgb(1, 0, 0)" stroke-opacity="0.06083815" stroke-linecap="round" stroke-linejoin="round"/>
    <path d="M 115.63214111328125 92.77297973632812 C 130.4081268310547 123.29263305664062 128.50482177734375 129.03622436523438 137.48675537109375 150.47647094726562" stroke-width="3.0" fill="none" stroke="rgb(4, -4, 1)" stroke-opacity="0.49906525" stroke-linecap="round" stroke-linejoin="round"/>
    <path d="M 85.8719482421875 91.46227264404297 C 88.95103454589844 93.77873229980469 82.65771484375 90.03974914550781 102.21430206298828 97.40303802490234" stroke-width="3.0" fill="none" stroke="rgb(1, -2, 1)" stroke-opacity="0.3902612" stroke-linecap="round" stroke-linejoin="round"/>
    <path d="M 237.9571533203125 179.82980346679688 C 79.5799789428711 181.60885620117188 69.8304672241211 175.02630615234375 115.37881469726562 180.25291442871094" stroke-width="3.0" fill="none" stroke="rgb(-3, 2, 3)" stroke-opacity="0.23229459" stroke-linecap="round" stroke-linejoin="round"/>
    <path d="M 104.02934265136719 96.73707580566406 C 106.5453109741211 51.580963134765625 109.44657897949219 129.88148498535156 101.3291015625 69.94307708740234" stroke-width="3.0" fill="none" stroke="rgb(1, 0, -1)" stroke-opacity="0.4304824" stroke-linecap="round" stroke-linejoin="round"/>
    <path d="M 194.93821716308594 161.4678192138672 C 198.8745574951172 149.78639221191406 135.87832641601562 159.34642028808594 233.6686553955078 157.78199768066406" stroke-width="3.0" fill="none" stroke="rgb(0, 0, 0)" stroke-opacity="0.23583919" stroke-linecap="round" stroke-linejoin="round"/>
    <path d="M 55.6339111328125 168.88009643554688 C 84.7645263671875 168.429443359375 86.75809478759766 169.92579650878906 29.521636962890625 163.6083221435547" stroke-width="3.0" fill="none" stroke="rgb(1, -4, 3)" stroke-opacity="0.32980806" stroke-linecap="round" stroke-linejoin="round"/>
    <path d="M 137.80099487304688 152.39903259277344 C 129.0082550048828 121.99130249023438 130.38211059570312 127.34410858154297 136.3349151611328 149.39242553710938" stroke-width="3.0" fill="none" stroke="rgb(0, 0, 0)" stroke-opacity="0.29887128" stroke-linecap="round" stroke-linejoin="round"/>
    <path d="M 89.13766479492188 94.00518035888672 C 45.87373733520508 71.96316528320312 68.83113098144531 100.16519927978516 81.5713119506836 116.1456069946289" stroke-width="3.0" fill="none" stroke="rgb(0, 0, 0)" stroke-opacity="0.15768373" stroke-linecap="round" stroke-linejoin="round"/>
    <path d="M 137.47723388671875 149.03477478027344 C 130.34019470214844 114.50157928466797 127.41398620605469 124.45556640625 135.69932556152344 141.5818634033203" stroke-width="3.0" fill="none" stroke="rgb(0, -1, 1)" stroke-opacity="0.35763845" stroke-linecap="round" stroke-linejoin="round"/>
    <path d="M 53.30256271362305 104.13567352294922 C 54.8574333190918 146.63372802734375 69.87723541259766 128.64500427246094 56.41151809692383 132.61483764648438" stroke-width="3.0" fill="none" stroke="rgb(0, 1, 0)" stroke-opacity="0.2984108" stroke-linecap="round" stroke-linejoin="round"/>
    <path d="M 144.3154296875 127.93866729736328 C 148.1199188232422 141.046142578125 136.4522247314453 169.6713409423828 151.94886779785156 145.8160858154297" stroke-width="3.0" fill="none" stroke="rgb(-2, 3, 0)" stroke-opacity="0.42489713" stroke-linecap="round" stroke-linejoin="round"/>
    <path d="M 33.30229568481445 150.5242156982422 C 65.61441802978516 145.3706512451172 114.1081314086914 147.645751953125 37.696895599365234 141.1944580078125" stroke-width="3.0" fill="none" stroke="rgb(-1, 0, 2)" stroke-opacity="0.30782807" stroke-linecap="round" stroke-linejoin="round"/>
    <path d="M 119.52315521240234 51.73509979248047 C 129.6217041015625 81.97747039794922 141.4860382080078 83.58038330078125 123.07319641113281 75.3773422241211" stroke-width="3.0" fill="none" stroke="rgb(1, 2, -2)" stroke-opacity="0.5177399" stroke-linecap="round" stroke-linejoin="round"/>
    <path d="M 122.69476318359375 198.5033721923828 C 145.27688598632812 194.8378143310547 121.69664764404297 205.94725036621094 161.9277801513672 193.4454345703125" stroke-width="3.0" fill="none" stroke="rgb(0, 0, 0)" stroke-opacity="0.05597069" stroke-linecap="round" stroke-linejoin="round"/>
    <path d="M 21.44919776916504 165.66644287109375 C 110.1810073852539 173.64266967773438 72.98308563232422 163.8178253173828 14.7483491897583 169.43728637695312" stroke-width="3.0" fill="none" stroke="rgb(-2, 0, 1)" stroke-opacity="0.23967455" stroke-linecap="round" stroke-linejoin="round"/>
    <path d="M 148.65940856933594 151.69570922851562 C 262.5016174316406 145.79733276367188 258.82623291015625 159.9241943359375 145.79847717285156 158.01516723632812" stroke-width="3.0" fill="none" stroke="rgb(-4, 0, 5)" stroke-opacity="0.38130614" stroke-linecap="round" stroke-linejoin="round"/>
    <path d="M 30.3038330078125 168.98809814453125 C 93.82657623291016 172.8162078857422 57.6989860534668 161.5526885986328 33.45164108276367 155.5518035888672" stroke-width="3.0" fill="none" stroke="rgb(-2, 0, 1)" stroke-opacity="0.295615" stroke-linecap="round" stroke-linejoin="round"/>
    <path d="M 125.4848861694336 107.69347381591797 C 150.63653564453125 160.267822265625 124.90929412841797 155.7392578125 141.2503662109375 154.31887817382812" stroke-width="3.0" fill="none" stroke="rgb(1, 1, -2)" stroke-opacity="0.16937391" stroke-linecap="round" stroke-linejoin="round"/>
    <path d="M 82.60735321044922 113.22591400146484 C 63.611961364746094 88.62442016601562 75.23074340820312 98.71971893310547 62.05608367919922 85.70950317382812" stroke-width="3.0" fill="none" stroke="rgb(2, 0, -2)" stroke-opacity="0.36709443" stroke-linecap="round" stroke-linejoin="round"/>
    <path d="M 184.98667907714844 234.22048950195312 C 178.19302368164062 230.52224731445312 178.95010375976562 235.59933471679688 184.01834106445312 235.61900329589844" stroke-width="3.0" fill="none" stroke="rgb(0, 0, 0)" stroke-opacity="0.8909408" stroke-linecap="round" stroke-linejoin="round"/>
    <path d="M 147.27845764160156 63.4423828125 C 139.88507080078125 56.078346252441406 105.16065216064453 43.83012008666992 133.2073516845703 58.59724807739258" stroke-width="3.0" fill="none" stroke="rgb(0, 0, 0)" stroke-opacity="0.16713579" stroke-linecap="round" stroke-linejoin="round"/>
    <path d="M 119.49568939208984 105.69041442871094 C 132.80528259277344 136.80130004882812 129.61033630371094 144.3690185546875 138.2881317138672 152.63034057617188" stroke-width="3.0" fill="none" stroke="rgb(-1, -3, 3)" stroke-opacity="0.42638874" stroke-linecap="round" stroke-linejoin="round"/>
    <path d="M 224.08181762695312 194.1138458251953 C 144.9138946533203 193.63980102539062 223.09976196289062 198.85491943359375 138.96127319335938 194.66302490234375" stroke-width="3.0" fill="none" stroke="rgb(0, 3, -3)" stroke-opacity="0.12757976" stroke-linecap="round" stroke-linejoin="round"/>
    <path d="M 211.89431762695312 190.05844116210938 C 160.12867736816406 176.406982421875 168.73587036132812 186.79324340820312 180.67515563964844 183.4654998779297" stroke-width="3.0" fill="none" stroke="rgb(-1, 0, 1)" stroke-opacity="0.04943828" stroke-linecap="round" stroke-linejoin="round"/>
    <path d="M 99.7022705078125 145.21958923339844 C 99.58346557617188 139.6453399658203 71.00421142578125 125.4512939453125 72.76983642578125 141.65330505371094" stroke-width="3.0" fill="none" stroke="rgb(-2, 1, 1)" stroke-opacity="0.22947556" stroke-linecap="round" stroke-linejoin="round"/>
    <path d="M 194.31689453125 115.32286071777344 C 234.4989013671875 99.94280242919922 216.99205017089844 96.6170883178711 192.7951202392578 115.35335540771484" stroke-width="3.0" fill="none" stroke="rgb(1, -1, 2)" stroke-opacity="0.15308273" stroke-linecap="round" stroke-linejoin="round"/>
    <path d="M 88.03572082519531 91.67353820800781 C 133.78355407714844 128.8843994140625 161.70018005371094 178.072998046875 97.5052719116211 100.10930633544922" stroke-width="3.0" fill="none" stroke="rgb(-3, -3, 3)" stroke-opacity="0.22942233" stroke-linecap="round" stroke-linejoin="round"/>
    <path d="M 64.99160766601562 132.8363494873047 C 49.68320846557617 108.91706848144531 46.7998161315918 83.24143981933594 67.74917602539062 133.6233367919922" stroke-width="3.0" fill="none" stroke="rgb(0, 2, -2)" stroke-opacity="0.38344508" stroke-linecap="round" stroke-linejoin="round"/>
  </g>
</svg>
