<?xml version="1.0" ?>
<svg xmlns="http://www.w3.org/2000/svg" version="1.1" width="224" height="224">
  <defs/>
  <g>
    <path d="M 85.60993957519531 91.50167846679688 C 97.33891296386719 101.7899169921875 101.9910888671875 114.0057144165039 104.94145965576172 125.15444946289062" stroke-width="3.0" fill="none" stroke="rgb(0, 0, 0)" stroke-opacity="0.2992723" stroke-linecap="round" stroke-linejoin="round"/>
    <path d="M 148.7592010498047 151.22145080566406 C 213.63621520996094 124.52403259277344 178.54644775390625 98.5982666015625 192.8187713623047 171.42926025390625" stroke-width="3.0" fill="none" stroke="rgb(-3, -1, 3)" stroke-opacity="0.18567471" stroke-linecap="round" stroke-linejoin="round"/>
    <path d="M 14.312807083129883 188.6717987060547 C 33.437530517578125 194.97625732421875 45.793060302734375 186.1704864501953 7.378093242645264 191.7473907470703" stroke-width="3.0" fill="none" stroke="rgb(0, 0, 0)" stroke-opacity="0.059684552" stroke-linecap="round" stroke-linejoin="round"/>
    <path d="M 101.9678955078125 73.47107696533203 C 139.25747680664062 130.56459045410156 133.65980529785156 139.62245178222656 100.56977844238281 70.6014175415039" stroke-width="3.0" fill="none" stroke="rgb(2, -2, 0)" stroke-opacity="0.34439188" stroke-linecap="round" stroke-linejoin="round"/>
    <path d="M 103.18438720703125 128.53085327148438 C 106.3100814819336 164.69720458984375 92.690185546875 120.86774444580078 70.08058166503906 136.8201141357422" stroke-width="3.0" fill="none" stroke="rgb(-2, -1, 3)" stroke-opacity="0.32946834" stroke-linecap="round" stroke-linejoin="round"/>
    <path d="M 158.57440185546875 94.8590316772461 C 158.72767639160156 59.92876052856445 152.04421997070312 52.27633285522461 219.27590942382812 157.4349822998047" stroke-width="3.0" fill="none" stroke="rgb(-3, 3, 3)" stroke-opacity="0.07245736" stroke-linecap="round" stroke-linejoin="round"/>
    <path d="M 174.19515991210938 142.1707763671875 C 160.3657684326172 161.78562927246094 77.0452651977539 156.0181121826172 236.1216278076172 157.85580444335938" stroke-width="3.0" fill="none" stroke="rgb(0, 0, 0)" stroke-opacity="0.47991094" stroke-linecap="round" stroke-linejoin="round"/>
    <path d="M 60.95179748535156 147.69053649902344 C 10.18985652923584 142.91024780273438 -8.331316947937012 183.86734008789062 47.16587448120117 139.7277069091797" stroke-width="3.0" fill="none" stroke="rgb(-3, 1, 2)" stroke-opacity="0.18111236" stroke-linecap="round" stroke-linejoin="round"/>
    <path d="M 108.09143829345703 141.69081115722656 C 104.70024871826172 128.6920166015625 159.13375854492188 168.04380798339844 110.492919921875 140.85250854492188" stroke-width="3.0" fill="none" stroke="rgb(-1, -2, 2)" stroke-opacity="0.6693172" stroke-linecap="round" stroke-linejoin="round"/>
    <path d="M 13.126885414123535 164.1958770751953 C 115.33072662353516 162.9599151611328 67.67211151123047 144.76751708984375 76.0046615600586 180.26104736328125" stroke-width="3.0" fill="none" stroke="rgb(0, 0, 0)" stroke-opacity="0.103222266" stroke-linecap="round" stroke-linejoin="round"/>
    <path d="M -21.68608283996582 179.87908935546875 C 1.7811501026153564 176.10096740722656 3.9854071140289307 178.41168212890625 50.89313888549805 184.49803161621094" stroke-width="3.0" fill="none" stroke="rgb(0, 0, 0)" stroke-opacity="0.04366538" stroke-linecap="round" stroke-linejoin="round"/>
    <path d="M 142.86756896972656 169.22683715820312 C 100.67711639404297 169.46194458007812 176.47364807128906 162.47315979003906 128.10427856445312 165.84579467773438" stroke-width="3.0" fill="none" stroke="rgb(0, 0, 0)" stroke-opacity="0.42162362" stroke-linecap="round" stroke-linejoin="round"/>
    <path d="M 128.09095764160156 178.1646270751953 C 149.3425750732422 162.75924682617188 131.14639282226562 198.0740203857422 137.9781951904297 157.5477752685547" stroke-width="3.0" fill="none" stroke="rgb(1, -1, 0)" stroke-opacity="0.1190871" stroke-linecap="round" stroke-linejoin="round"/>
    <path d="M 120.39108276367188 151.53665161132812 C 113.62033081054688 184.77853393554688 205.0342254638672 184.62033081054688 27.015140533447266 190.890869140625" stroke-width="3.0" fill="none" stroke="rgb(-1, 0, 1)" stroke-opacity="0.06532275" stroke-linecap="round" stroke-linejoin="round"/>
    <path d="M 232.62571716308594 95.08041381835938 C 163.8726348876953 117.78453826904297 199.77870178222656 140.0266876220703 175.70252990722656 136.46922302246094" stroke-width="3.0" fill="none" stroke="rgb(-3, 0, 3)" stroke-opacity="0.123981915" stroke-linecap="round" stroke-linejoin="round"/>
    <path d="M 98.13280487060547 142.1126251220703 C 75.63390350341797 93.65782165527344 40.39896011352539 55.71961212158203 88.76331329345703 127.53775787353516" stroke-width="3.0" fill="none" stroke="rgb(2, -2, 1)" stroke-opacity="0.37516022" stroke-linecap="round" stroke-linejoin="round"/>
    <path d="M 124.59526824951172 140.10545349121094 C 88.56137084960938 150.45352172851562 96.07302856445312 128.9488983154297 101.30590057373047 177.77578735351562" stroke-width="3.0" fill="none" stroke="rgb(-2, 0, 2)" stroke-opacity="0.10654495" stroke-linecap="round" stroke-linejoin="round"/>
    <path d="M 100.63002014160156 72.73861694335938 C 136.4440460205078 176.33419799804688 136.2838897705078 101.92491912841797 87.37423706054688 92.90287780761719" stroke-width="3.0" fill="none" stroke="rgb(0, -3, 4)" stroke-opacity="0.16996406" stroke-linecap="round" stroke-linejoin="round"/>
    <path d="M 227.35397338867188 96.81002807617188 C 226.3246307373047 93.65278625488281 228.1420135498047 121.0091781616211 226.4237823486328 112.0887222290039" stroke-width="3.0" fill="none" stroke="rgb(0, 0, 0)" stroke-opacity="0.51952034" stroke-linecap="round" stroke-linejoin="round"/>
    <path d="M 104.39396667480469 209.40957641601562 C 161.44320678710938 198.4170379638672 167.66615295410156 201.2734375 52.93210983276367 203.65452575683594" stroke-width="3.0" fill="none" stroke="rgb(0, 1, -1)" stroke-opacity="0.055016056" stroke-linecap="round" stroke-linejoin="round"/>
    <path d="M 89.12081909179688 93.0362777709961 C 132.6942901611328 140.08937072753906 129.51632690429688 134.81295776367188 137.40037536621094 152.17115783691406" stroke-width="3.0" fill="none" stroke="rgb(-2, -3, 3)" stroke-opacity="0.22863048" stroke-linecap="round" stroke-linejoin="round"/>
    <path d="M 66.58003997802734 85.1358642578125 C 82.19305419921875 88.42720031738281 84.54857635498047 92.33971405029297 109.52037811279297 99.62743377685547" stroke-width="3.0" fill="none" stroke="rgb(-1, 0, 1)" stroke-opacity="0.10966231" stroke-linecap="round" stroke-linejoin="round"/>
    <path d="M 151.38973999023438 170.0816192626953 C -64.45635223388672 169.2314910888672 -66.87903594970703 181.97471618652344 174.87405395507812 178.71908569335938" stroke-width="3.0" fill="none" stroke="rgb(-1, 0, 0)" stroke-opacity="0.24641117" stroke-linecap="round" stroke-linejoin="round"/>
    <path d="M 107.46905517578125 95.72605895996094 C 106.95337677001953 57.91021728515625 100.2488021850586 103.3741683959961 107.88878631591797 97.53665161132812" stroke-width="3.0" fill="none" stroke="rgb(1, -1, 0)" stroke-opacity="0.37957826" stroke-linecap="round" stroke-linejoin="round"/>
    <path d="M 165.81910705566406 147.5505828857422 C 253.08766174316406 158.87701416015625 101.16499328613281 134.365234375 210.38525390625 149.4639892578125" stroke-width="3.0" fill="none" stroke="rgb(-1, 0, 2)" stroke-opacity="0.44703123" stroke-linecap="round" stroke-linejoin="round"/>
    <path d="M 10.554983139038086 154.5785675048828 C 96.36886596679688 159.60250854492188 -28.54343605041504 134.84397888183594 78.37079620361328 167.12588500976562" stroke-width="3.0" fill="none" stroke="rgb(-1, -1, 2)" stroke-opacity="0.26651132" stroke-linecap="round" stroke-linejoin="round"/>
    <path d="M 146.35987854003906 128.94419860839844 C 140.4774169921875 182.27615356445312 137.59083557128906 143.07138061523438 122.2271499633789 107.61609649658203" stroke-width="3.0" fill="none" stroke="rgb(-1, 0, 2)" stroke-opacity="0.53408444" stroke-linecap="round" stroke-linejoin="round"/>
    <path d="M 63.28483581542969 85.29607391357422 C 73.68803405761719 113.19168090820312 57.70200729370117 90.65478515625 73.11434173583984 112.52448272705078" stroke-width="3.0" fill="none" stroke="rgb(0, 1, 0)" stroke-opacity="0.42050883" stroke-linecap="round" stroke-linejoin="round"/>
    <path d="M 120.74532318115234 102.89591217041016 C 127.45343780517578 138.13575744628906 142.9495391845703 158.1804962158203 129.0519256591797 120.85316467285156" stroke-width="3.0" fill="none" stroke="rgb(0, -2, 3)" stroke-opacity="0.30195758" stroke-linecap="round" stroke-linejoin="round"/>
    <path d="M 70.05152893066406 131.12249755859375 C 0.01973503828048706 146.23155212402344 127.44364166259766 148.0270233154297 56.898460388183594 131.34632873535156" stroke-width="3.0" fill="none" stroke="rgb(-1, 0, 2)" stroke-opacity="0.14864066" stroke-linecap="round" stroke-linejoin="round"/>
    <path d="M 127.57904815673828 159.2086944580078 C 143.0615692138672 147.50204467773438 56.2474365234375 152.6940460205078 137.73675537109375 156.51014709472656" stroke-width="3.0" fill="none" stroke="rgb(0, 0, 0)" stroke-opacity="0.02537982" stroke-linecap="round" stroke-linejoin="round"/>
    <path d="M 38.15739059448242 142.38946533203125 C 122.616943359375 155.25650024414062 37.048492431640625 143.886962890625 85.50431823730469 136.48019409179688" stroke-width="3.0" fill="none" stroke="rgb(0, 0, 1)" stroke-opacity="0.3643129" stroke-linecap="round" stroke-linejoin="round"/>
    <path d="M 147.03158569335938 116.9616470336914 C 143.6077880859375 94.28104400634766 125.16625213623047 60.70845031738281 118.53055572509766 52.850677490234375" stroke-width="3.0" fill="none" stroke="rgb(-2, 1, 1)" stroke-opacity="0.39520997" stroke-linecap="round" stroke-linejoin="round"/>
    <path d="M 186.9703369140625 177.70359802246094 C 151.9991455078125 187.2115478515625 146.0049285888672 177.7044219970703 232.6645965576172 179.06214904785156" stroke-width="3.0" fill="none" stroke="rgb(-1, 0, 1)" stroke-opacity="0.17414181" stroke-linecap="round" stroke-linejoin="round"/>
    <path d="M 12.3502779006958 168.99966430664062 C 90.80448913574219 168.20628356933594 129.94041442871094 165.22752380371094 18.585681915283203 166.7395477294922" stroke-width="3.0" fill="none" stroke="rgb(0, -2, 2)" stroke-opacity="0.27178478" stroke-linecap="round" stroke-linejoin="round"/>
    <path d="M 152.28964233398438 145.92259216308594 C 121.93452453613281 151.70130920410156 442.9561767578125 171.08656311035156 150.8311309814453 168.89089965820312" stroke-width="3.0" fill="none" stroke="rgb(-7, 6, 4)" stroke-opacity="0.5806648" stroke-linecap="round" stroke-linejoin="round"/>
  </g>
</svg>
