<?xml version="1.0" ?>
<svg xmlns="http://www.w3.org/2000/svg" version="1.1" width="224" height="224">
  <defs/>
  <g>
    <path d="M 65.47926330566406 84.035400390625 C 94.58596801757812 92.52731323242188 107.65959930419922 116.67617797851562 102.41986083984375 141.15487670898438" stroke-width="3.0" fill="none" stroke="rgb(-3, 1, 1)" stroke-opacity="0.19323465" stroke-linecap="round" stroke-linejoin="round"/>
    <path d="M 188.592041015625 154.86219787597656 C 191.6783905029297 108.23413848876953 188.3497772216797 118.56072235107422 212.2625732421875 104.1949234008789" stroke-width="3.0" fill="none" stroke="rgb(-2, 2, 2)" stroke-opacity="0.12295963" stroke-linecap="round" stroke-linejoin="round"/>
    <path d="M 38.38805389404297 191.34458923339844 C 12.487441062927246 194.68898010253906 32.79024124145508 188.93362426757812 8.028401374816895 191.40548706054688" stroke-width="3.0" fill="none" stroke="rgb(1, 0, -2)" stroke-opacity="0.09910532" stroke-linecap="round" stroke-linejoin="round"/>
    <path d="M 101.15593719482422 69.185302734375 C 109.11701202392578 111.04881286621094 108.5879898071289 93.33229064941406 79.28500366210938 88.07569885253906" stroke-width="3.0" fill="none" stroke="rgb(-1, 1, 1)" stroke-opacity="0.23978864" stroke-linecap="round" stroke-linejoin="round"/>
    <path d="M 67.93357849121094 141.2173614501953 C 101.70518493652344 122.36934661865234 112.91221618652344 166.51708984375 61.64716339111328 84.75579833984375" stroke-width="3.0" fill="none" stroke="rgb(0, 1, -1)" stroke-opacity="0.3589362" stroke-linecap="round" stroke-linejoin="round"/>
    <path d="M 191.56765747070312 119.71724700927734 C 182.981689453125 92.77468872070312 164.66075134277344 61.48659896850586 118.43799591064453 49.47512435913086" stroke-width="3.0" fill="none" stroke="rgb(-3, 3, 2)" stroke-opacity="0.12682255" stroke-linecap="round" stroke-linejoin="round"/>
    <path d="M 187.3285675048828 124.1063232421875 C 142.64112854003906 178.7550048828125 74.19437408447266 150.92849731445312 196.66160583496094 158.53424072265625" stroke-width="3.0" fill="none" stroke="rgb(-2, 0, 1)" stroke-opacity="0.3468652" stroke-linecap="round" stroke-linejoin="round"/>
    <path d="M 77.58287811279297 147.52842712402344 C -40.361324310302734 147.63429260253906 154.880126953125 129.33523559570312 32.820194244384766 152.14537048339844" stroke-width="3.0" fill="none" stroke="rgb(-3, 1, 3)" stroke-opacity="0.2764244" stroke-linecap="round" stroke-linejoin="round"/>
    <path d="M 109.7554931640625 140.4818115234375 C 130.72610473632812 142.27261352539062 166.8460235595703 198.33135986328125 109.82705688476562 80.80699920654297" stroke-width="3.0" fill="none" stroke="rgb(-1, -1, 2)" stroke-opacity="0.3499061" stroke-linecap="round" stroke-linejoin="round"/>
    <path d="M 17.95747184753418 168.74917602539062 C 108.6521224975586 168.83230590820312 9.94804573059082 168.27679443359375 36.675872802734375 163.8615264892578" stroke-width="3.0" fill="none" stroke="rgb(-1, -2, 2)" stroke-opacity="0.3264239" stroke-linecap="round" stroke-linejoin="round"/>
    <path d="M 16.67751693725586 173.6966094970703 C -32.17409133911133 177.62405395507812 -46.199790954589844 176.8340301513672 79.44113159179688 178.8076629638672" stroke-width="3.0" fill="none" stroke="rgb(0, 0, -2)" stroke-opacity="0.32551402" stroke-linecap="round" stroke-linejoin="round"/>
    <path d="M 233.4125518798828 168.59393310546875 C 53.502803802490234 172.7184600830078 201.3058624267578 165.8484344482422 126.1930160522461 165.67593383789062" stroke-width="3.0" fill="none" stroke="rgb(-1, -4, 3)" stroke-opacity="0.56758875" stroke-linecap="round" stroke-linejoin="round"/>
    <path d="M 87.65403747558594 94.28028106689453 C 146.4844207763672 149.12921142578125 151.2770538330078 172.32705688476562 120.70979309082031 167.54611206054688" stroke-width="3.0" fill="none" stroke="rgb(-2, -3, 3)" stroke-opacity="0.22425249" stroke-linecap="round" stroke-linejoin="round"/>
    <path d="M 75.33597564697266 168.2021484375 C 76.30357360839844 183.67138671875 59.29820251464844 177.06468200683594 164.56988525390625 179.57687377929688" stroke-width="3.0" fill="none" stroke="rgb(-3, 1, 0)" stroke-opacity="0.15340102" stroke-linecap="round" stroke-linejoin="round"/>
    <path d="M 234.55111694335938 99.68228912353516 C 210.63230895996094 103.40044403076172 201.25347900390625 107.13716125488281 238.97488403320312 103.876953125" stroke-width="3.0" fill="none" stroke="rgb(0, 0, 0)" stroke-opacity="0.30471545" stroke-linecap="round" stroke-linejoin="round"/>
    <path d="M 97.38664245605469 138.9463348388672 C 86.63986206054688 118.93647003173828 86.20162200927734 128.54153442382812 100.53416442871094 142.09617614746094" stroke-width="3.0" fill="none" stroke="rgb(-1, 0, 1)" stroke-opacity="0.18519235" stroke-linecap="round" stroke-linejoin="round"/>
  </g>
</svg>
