<?xml version="1.0" ?>
<svg xmlns="http://www.w3.org/2000/svg" version="1.1" width="224" height="224">
  <defs/>
  <g>
    <path d="M 99.00041961669922 103.99993896484375 C 99.7229232788086 109.22486114501953 101.62062072753906 105.36104583740234 98.77715301513672 103.7954330444336" stroke-width="5.80000638961792" fill="none" stroke="rgb(2, 2, 2)" stroke-opacity="0.99000007" stroke-linecap="round" stroke-linejoin="round"/>
    <path d="M 190.00009155273438 128.99986267089844 C 188.845947265625 129.65386962890625 182.44007873535156 129.9999542236328 180.41567993164062 125.10958099365234" stroke-width="5.800002574920654" fill="none" stroke="rgb(2, 2, 2)" stroke-opacity="0.99" stroke-linecap="round" stroke-linejoin="round"/>
    <path d="M 22.00002670288086 203.00006103515625 C 19.37335777282715 199.87303161621094 20.39495849609375 194.89328002929688 22.380477905273438 191.418212890625" stroke-width="5.8000030517578125" fill="none" stroke="rgb(2, 2, 2)" stroke-opacity="0.99" stroke-linecap="round" stroke-linejoin="round"/>
    <path d="M 107.99990844726562 100.99990844726562 C 113.35831451416016 96.72537994384766 115.64513397216797 99.5087890625 113.60527801513672 104.11985778808594" stroke-width="5.8000335693359375" fill="none" stroke="rgb(2, 2, 2)" stroke-opacity="0.9900001" stroke-linecap="round" stroke-linejoin="round"/>
    <path d="M 102.00123596191406 135.00013732910156 C 102.29763793945312 132.24659729003906 102.11915588378906 135.5653076171875 99.71449279785156 133.20217895507812" stroke-width="5.800009250640869" fill="none" stroke="rgb(-2, 2, 2)" stroke-opacity="0.9900002" stroke-linecap="round" stroke-linejoin="round"/>
    <path d="M 156.9998779296875 71.00006866455078 C 160.06614685058594 72.47746276855469 163.1167755126953 66.0555648803711 168.16928100585938 65.85462188720703" stroke-width="5.800002574920654" fill="none" stroke="rgb(2, 2, 2)" stroke-opacity="0.99" stroke-linecap="round" stroke-linejoin="round"/>
    <path d="M 167.0001678466797 149.99993896484375 C 163.54994201660156 153.1486053466797 159.89169311523438 152.1318359375 165.3054962158203 151.72061157226562" stroke-width="5.800008296966553" fill="none" stroke="rgb(2, 2, 2)" stroke-opacity="0.99000007" stroke-linecap="round" stroke-linejoin="round"/>
    <path d="M 35.00028991699219 144.99984741210938 C 32.36736297607422 142.27134704589844 33.42963409423828 138.84715270996094 38.34675216674805 141.6703643798828" stroke-width="5.800005912780762" fill="none" stroke="rgb(2, 2, 2)" stroke-opacity="0.99" stroke-linecap="round" stroke-linejoin="round"/>
    <path d="M 123.99995422363281 143.0001220703125 C 125.00213623046875 146.34713745117188 125.61482238769531 151.33470153808594 124.5759048461914 148.1404571533203" stroke-width="5.80003023147583" fill="none" stroke="rgb(2, 2, 2)" stroke-opacity="0.99000007" stroke-linecap="round" stroke-linejoin="round"/>
    <path d="M 61.00006866455078 162.9999542236328 C 59.661155700683594 167.4420928955078 55.53348159790039 167.6438751220703 52.50687026977539 171.3721160888672" stroke-width="6.199990749359131" fill="none" stroke="rgb(2, 2, 2)" stroke-opacity="0.99" stroke-linecap="round" stroke-linejoin="round"/>
    <path d="M 12.000195503234863 172.9999237060547 C 10.35789680480957 175.08261108398438 9.066817283630371 176.15496826171875 4.667377948760986 171.96864318847656" stroke-width="6.199984550476074" fill="none" stroke="rgb(2, 2, 2)" stroke-opacity="0.99" stroke-linecap="round" stroke-linejoin="round"/>
    <path d="M 146.0001983642578 167.99986267089844 C 144.75115966796875 168.47940063476562 150.83538818359375 168.04249572753906 151.08323669433594 171.0784454345703" stroke-width="5.800011157989502" fill="none" stroke="rgb(2, 2, 2)" stroke-opacity="0.99" stroke-linecap="round" stroke-linejoin="round"/>
    <path d="M 118.0002670288086 162.99981689453125 C 117.09765625 165.06594848632812 122.0722427368164 164.2169189453125 122.91121673583984 165.45852661132812" stroke-width="5.8000030517578125" fill="none" stroke="rgb(2, 2, 2)" stroke-opacity="0.99" stroke-linecap="round" stroke-linejoin="round"/>
    <path d="M 115.00006866455078 187.00003051757812 C 115.05547332763672 187.7805633544922 116.08789825439453 184.83135986328125 112.74967956542969 185.13101196289062" stroke-width="5.8000030517578125" fill="none" stroke="rgb(2, 2, 2)" stroke-opacity="0.99" stroke-linecap="round" stroke-linejoin="round"/>
    <path d="M 200.9999542236328 114.99979400634766 C 202.0974578857422 114.8407974243164 203.32412719726562 118.49130249023438 201.08114624023438 117.26016998291016" stroke-width="5.800009250640869" fill="none" stroke="rgb(2, 2, 2)" stroke-opacity="0.99" stroke-linecap="round" stroke-linejoin="round"/>
    <path d="M 83.99993133544922 117.00016784667969 C 81.90667724609375 113.82148742675781 85.71763610839844 112.50540161132812 86.97501373291016 112.2793960571289" stroke-width="5.800004005432129" fill="none" stroke="rgb(2, 2, 2)" stroke-opacity="0.99" stroke-linecap="round" stroke-linejoin="round"/>
    <path d="M 103.00013732910156 136.9995574951172 C 104.07805633544922 130.04486083984375 101.14715576171875 136.21949768066406 98.8846664428711 134.7931365966797" stroke-width="5.800027847290039" fill="none" stroke="rgb(2, 2, 2)" stroke-opacity="0.9900001" stroke-linecap="round" stroke-linejoin="round"/>
    <path d="M 118.00003051757812 95.99992370605469 C 114.8434829711914 98.66072082519531 114.38092803955078 102.16954803466797 110.7634506225586 101.38995361328125" stroke-width="5.800009250640869" fill="none" stroke="rgb(2, 2, 2)" stroke-opacity="0.99000007" stroke-linecap="round" stroke-linejoin="round"/>
    <path d="M 220.00009155273438 108.00008392333984 C 218.93089294433594 102.94976806640625 217.38755798339844 100.2662124633789 220.5409393310547 102.04350280761719" stroke-width="6.199929237365723" fill="none" stroke="rgb(2, 2, 2)" stroke-opacity="0.99" stroke-linecap="round" stroke-linejoin="round"/>
    <path d="M 150.9999542236328 220.00010681152344 C 152.8309783935547 217.55862426757812 152.90798950195312 212.32293701171875 155.59632873535156 215.5419158935547" stroke-width="5.800004482269287" fill="none" stroke="rgb(2, 2, 2)" stroke-opacity="0.99" stroke-linecap="round" stroke-linejoin="round"/>
    <path d="M 130.99969482421875 125.99984741210938 C 130.88612365722656 130.06703186035156 125.32398986816406 134.37782287597656 127.3772201538086 132.49468994140625" stroke-width="5.800010681152344" fill="none" stroke="rgb(-2, 2, 2)" stroke-opacity="0.99000007" stroke-linecap="round" stroke-linejoin="round"/>
    <path d="M 81.0002212524414 89.00019836425781 C 85.63880920410156 94.07688903808594 84.50537109375 89.01510620117188 91.3811264038086 92.0876235961914" stroke-width="6.199947357177734" fill="none" stroke="rgb(2, 2, 2)" stroke-opacity="0.99000007" stroke-linecap="round" stroke-linejoin="round"/>
    <path d="M 123.99996185302734 180.00009155273438 C 124.40369415283203 178.69595336914062 127.44807434082031 183.4518585205078 130.19882202148438 179.63272094726562" stroke-width="6.199957370758057" fill="none" stroke="rgb(2, 2, 2)" stroke-opacity="0.99" stroke-linecap="round" stroke-linejoin="round"/>
    <path d="M 108.0017318725586 102.00009155273438 C 108.2853775024414 98.37857818603516 109.65911102294922 101.97539520263672 111.35746002197266 94.86186218261719" stroke-width="6.199956893920898" fill="none" stroke="rgb(2, 2, 2)" stroke-opacity="0.99000007" stroke-linecap="round" stroke-linejoin="round"/>
    <path d="M 194.9999237060547 155.0000762939453 C 195.87351989746094 155.0221710205078 194.36534118652344 152.30020141601562 194.90367126464844 152.45870971679688" stroke-width="5.800003528594971" fill="none" stroke="rgb(2, 2, 2)" stroke-opacity="0.99" stroke-linecap="round" stroke-linejoin="round"/>
    <path d="M 49.99987030029297 168.99996948242188 C 42.50129318237305 169.66722106933594 42.216739654541016 175.42462158203125 37.10614776611328 176.2378692626953" stroke-width="5.8000054359436035" fill="none" stroke="rgb(2, 2, 2)" stroke-opacity="0.99" stroke-linecap="round" stroke-linejoin="round"/>
    <path d="M 131.99990844726562 137.9999237060547 C 128.44793701171875 132.83953857421875 130.6192169189453 133.98121643066406 130.5280303955078 128.56861877441406" stroke-width="6.199984550476074" fill="none" stroke="rgb(-2, 2, 2)" stroke-opacity="0.9900001" stroke-linecap="round" stroke-linejoin="round"/>
    <path d="M 67.0001220703125 103.99993133544922 C 66.95665740966797 102.0704116821289 72.31486511230469 103.07489776611328 77.10286712646484 104.98373413085938" stroke-width="5.800029277801514" fill="none" stroke="rgb(2, -2, 2)" stroke-opacity="0.99000007" stroke-linecap="round" stroke-linejoin="round"/>
    <path d="M 131.9993133544922 129.99964904785156 C 126.0575180053711 130.4076690673828 131.10939025878906 127.3000717163086 135.1056671142578 125.50270080566406" stroke-width="6.199982643127441" fill="none" stroke="rgb(2, -2, 2)" stroke-opacity="0.9900003" stroke-linecap="round" stroke-linejoin="round"/>
    <path d="M 57.013450622558594 133.9999237060547 C 57.569725036621094 133.4342041015625 62.70225143432617 134.9210968017578 55.886329650878906 132.5621795654297" stroke-width="5.800013065338135" fill="none" stroke="rgb(2, 2, 2)" stroke-opacity="0.99000007" stroke-linecap="round" stroke-linejoin="round"/>
    <path d="M 141.0001220703125 152.00015258789062 C 139.57656860351562 150.0531768798828 136.4304962158203 150.2947540283203 141.32772827148438 151.7855682373047" stroke-width="5.800008296966553" fill="none" stroke="rgb(2, 2, 2)" stroke-opacity="0.99000007" stroke-linecap="round" stroke-linejoin="round"/>
    <path d="M 66.99972534179688 142.0003662109375 C 68.65547943115234 141.52877807617188 69.65946960449219 146.21673583984375 73.20269012451172 138.66329956054688" stroke-width="5.80022668838501" fill="none" stroke="rgb(2, 2, 2)" stroke-opacity="0.99000007" stroke-linecap="round" stroke-linejoin="round"/>
    <path d="M 131.02174377441406 80.0001449584961 C 131.58827209472656 78.57789611816406 128.51187133789062 81.80404663085938 125.74256896972656 78.07308959960938" stroke-width="5.800004959106445" fill="none" stroke="rgb(2, 2, 2)" stroke-opacity="0.99" stroke-linecap="round" stroke-linejoin="round"/>
    <path d="M 139.00006103515625 186.9999542236328 C 135.98562622070312 190.78390502929688 140.0513153076172 190.4736785888672 137.706298828125 192.25067138671875" stroke-width="5.800001621246338" fill="none" stroke="rgb(-2, 2, 2)" stroke-opacity="0.99" stroke-linecap="round" stroke-linejoin="round"/>
    <path d="M 35.00026321411133 168.99806213378906 C 35.73145294189453 167.77163696289062 32.48269271850586 169.85406494140625 25.826025009155273 170.33404541015625" stroke-width="5.800006866455078" fill="none" stroke="rgb(2, 2, 2)" stroke-opacity="0.99" stroke-linecap="round" stroke-linejoin="round"/>
    <path d="M 159.00051879882812 157.00010681152344 C 161.82229614257812 157.56454467773438 158.7635040283203 156.41061401367188 153.90188598632812 156.297607421875" stroke-width="6.199971675872803" fill="none" stroke="rgb(2, 2, 2)" stroke-opacity="0.99000007" stroke-linecap="round" stroke-linejoin="round"/>
    <path d="M 48.99994659423828 169.9998016357422 C 47.179893493652344 174.87423706054688 47.30448532104492 180.17730712890625 47.78960418701172 183.5941162109375" stroke-width="6.199991703033447" fill="none" stroke="rgb(2, 2, 2)" stroke-opacity="0.99" stroke-linecap="round" stroke-linejoin="round"/>
    <path d="M 136.00010681152344 143.99969482421875 C 133.28359985351562 144.91363525390625 131.4669189453125 139.7654266357422 134.87892150878906 146.3860321044922" stroke-width="6.199980735778809" fill="none" stroke="rgb(2, 2, 2)" stroke-opacity="0.99000007" stroke-linecap="round" stroke-linejoin="round"/>
    <path d="M 73.00068664550781 101.00115966796875 C 70.52887725830078 100.7751235961914 74.9989013671875 96.52315521240234 81.21585845947266 93.75704193115234" stroke-width="5.800005912780762" fill="none" stroke="rgb(2, 2, 2)" stroke-opacity="0.99" stroke-linecap="round" stroke-linejoin="round"/>
    <path d="M 180.99993896484375 221.99996948242188 C 184.02145385742188 224.0738983154297 187.0698699951172 227.648681640625 189.9100341796875 229.85169982910156" stroke-width="5.800003528594971" fill="none" stroke="rgb(2, 2, 2)" stroke-opacity="0.99000007" stroke-linecap="round" stroke-linejoin="round"/>
    <path d="M 138.0000762939453 64.00004577636719 C 135.5464630126953 62.23206329345703 138.21470642089844 61.10554885864258 138.88291931152344 65.37432098388672" stroke-width="5.800004482269287" fill="none" stroke="rgb(2, 2, 2)" stroke-opacity="0.99000007" stroke-linecap="round" stroke-linejoin="round"/>
    <path d="M 132.99905395507812 124.99992370605469 C 135.4641876220703 125.6600570678711 138.88479614257812 130.5302734375 141.1382598876953 131.36546325683594" stroke-width="5.800018310546875" fill="none" stroke="rgb(2, 2, -2)" stroke-opacity="0.99" stroke-linecap="round" stroke-linejoin="round"/>
    <path d="M 169.9999237060547 184.0000762939453 C 175.5089569091797 182.8359832763672 172.2290496826172 183.41708374023438 176.35739135742188 180.2029266357422" stroke-width="5.800006866455078" fill="none" stroke="rgb(2, 2, 2)" stroke-opacity="0.99" stroke-linecap="round" stroke-linejoin="round"/>
    <path d="M 167.99993896484375 196.999755859375 C 169.69003295898438 195.99798583984375 171.20999145507812 189.64939880371094 175.51112365722656 187.65603637695312" stroke-width="5.800011157989502" fill="none" stroke="rgb(2, 2, 2)" stroke-opacity="0.99" stroke-linecap="round" stroke-linejoin="round"/>
    <path d="M 85.0002670288086 137.00006103515625 C 84.18119049072266 133.50680541992188 82.05262756347656 133.93516540527344 75.99983978271484 138.1690673828125" stroke-width="6.199919700622559" fill="none" stroke="rgb(2, 2, 2)" stroke-opacity="0.99" stroke-linecap="round" stroke-linejoin="round"/>
    <path d="M 216.00003051757812 116.00001525878906 C 213.4055938720703 112.77182006835938 209.19699096679688 110.27694702148438 209.11524963378906 115.84822845458984" stroke-width="5.8000030517578125" fill="none" stroke="rgb(2, 2, 2)" stroke-opacity="0.99" stroke-linecap="round" stroke-linejoin="round"/>
    <path d="M 119.99991607666016 121.00013732910156 C 124.7897720336914 119.81929779052734 125.28913879394531 113.7440185546875 128.77395629882812 115.74369049072266" stroke-width="5.800007343292236" fill="none" stroke="rgb(2, 2, 2)" stroke-opacity="0.99" stroke-linecap="round" stroke-linejoin="round"/>
    <path d="M 55.000328063964844 113.00011444091797 C 54.840110778808594 111.96920776367188 49.62204360961914 109.67009735107422 51.641136169433594 108.54389953613281" stroke-width="5.8000078201293945" fill="none" stroke="rgb(2, 2, 2)" stroke-opacity="0.99" stroke-linecap="round" stroke-linejoin="round"/>
  </g>
</svg>
