<?xml version="1.0" ?>
<svg xmlns="http://www.w3.org/2000/svg" version="1.1" width="224" height="224">
  <defs/>
  <g>
    <path d="M 91.8261489868164 96.1004638671875 C 127.2959976196289 136.8159637451172 129.56410217285156 113.19534301757812 89.57725524902344 94.2970962524414" stroke-width="5.808834075927734" fill="none" stroke="rgb(-1, -2, 2)" stroke-opacity="0.5155306" stroke-linecap="round" stroke-linejoin="round"/>
    <path d="M 192.4114990234375 132.07546997070312 C 189.95492553710938 131.40750122070312 185.0503692626953 105.5835189819336 192.15185546875 141.8634490966797" stroke-width="1.8836899995803833" fill="none" stroke="rgb(-1, 0, 1)" stroke-opacity="0.13036035" stroke-linecap="round" stroke-linejoin="round"/>
    <path d="M 43.23457336425781 178.23773193359375 C 19.90884017944336 179.13482666015625 11.755773544311523 177.45472717285156 34.209815979003906 178.0966796875" stroke-width="2.461184024810791" fill="none" stroke="rgb(0, 0, 0)" stroke-opacity="0.1472666" stroke-linecap="round" stroke-linejoin="round"/>
    <path d="M 121.99786376953125 121.11201477050781 C 102.75578308105469 97.38052368164062 109.01041412353516 89.627197265625 125.60169219970703 125.51651763916016" stroke-width="14.00991439819336" fill="none" stroke="rgb(0, -2, 2)" stroke-opacity="0.5535191" stroke-linecap="round" stroke-linejoin="round"/>
    <path d="M 110.52154541015625 143.1551971435547 C 87.89453125 145.70362854003906 104.46527862548828 159.8496856689453 103.96700286865234 123.5848388671875" stroke-width="2.658165454864502" fill="none" stroke="rgb(-1, 0, 1)" stroke-opacity="0.31781384" stroke-linecap="round" stroke-linejoin="round"/>
    <path d="M 164.29855346679688 73.69844055175781 C 153.16526794433594 62.00728988647461 161.07887268066406 71.59672546386719 155.73629760742188 66.8043212890625" stroke-width="1.7945352792739868" fill="none" stroke="rgb(0, 0, 1)" stroke-opacity="0.19158776" stroke-linecap="round" stroke-linejoin="round"/>
    <path d="M 198.004150390625 155.83349609375 C 123.7906494140625 157.75819396972656 151.7321014404297 162.28939819335938 188.40933227539062 125.97875213623047" stroke-width="4.660963535308838" fill="none" stroke="rgb(-2, -2, 2)" stroke-opacity="0.35580227" stroke-linecap="round" stroke-linejoin="round"/>
    <path d="M 33.7429084777832 143.0722198486328 C 47.53053665161133 155.29083251953125 45.462581634521484 145.563232421875 27.620588302612305 157.97303771972656" stroke-width="1.8670648336410522" fill="none" stroke="rgb(-1, 0, 1)" stroke-opacity="0.24954727" stroke-linecap="round" stroke-linejoin="round"/>
    <path d="M 122.93728637695312 143.6942596435547 C 126.78096008300781 146.8380584716797 126.1059799194336 143.8463592529297 112.40240478515625 140.8131561279297" stroke-width="8.052529335021973" fill="none" stroke="rgb(-2, 0, 2)" stroke-opacity="0.64243644" stroke-linecap="round" stroke-linejoin="round"/>
    <path d="M 49.3215446472168 163.44801330566406 C 57.105003356933594 166.66831970214844 29.705251693725586 166.03448486328125 35.988136291503906 167.0749053955078" stroke-width="3.8941054344177246" fill="none" stroke="rgb(-2, -2, 2)" stroke-opacity="0.38313487" stroke-linecap="round" stroke-linejoin="round"/>
    <path d="M 19.348737716674805 175.72293090820312 C 42.89826965332031 175.01919555664062 19.34189796447754 178.34034729003906 -10.244848251342773 176.30714416503906" stroke-width="4.944979190826416" fill="none" stroke="rgb(1, 0, -2)" stroke-opacity="0.2658431" stroke-linecap="round" stroke-linejoin="round"/>
    <path d="M 138.67153930664062 165.35926818847656 C 111.19024658203125 172.54904174804688 169.9307861328125 165.98069763183594 141.72837829589844 168.1063690185547" stroke-width="2.756927251815796" fill="none" stroke="rgb(-2, 2, 0)" stroke-opacity="0.3370759" stroke-linecap="round" stroke-linejoin="round"/>
    <path d="M 117.4974136352539 169.62025451660156 C 97.41519165039062 165.34202575683594 158.74122619628906 171.4939422607422 130.7733612060547 164.62899780273438" stroke-width="1.9743698835372925" fill="none" stroke="rgb(0, 1, -1)" stroke-opacity="0.20571591" stroke-linecap="round" stroke-linejoin="round"/>
    <path d="M 49.05387496948242 179.24343872070312 C 113.09163665771484 179.6083526611328 127.0971450805664 179.24269104003906 121.72537994384766 180.0775909423828" stroke-width="4.4648003578186035" fill="none" stroke="rgb(-2, 0, 3)" stroke-opacity="0.16818084" stroke-linecap="round" stroke-linejoin="round"/>
    <path d="M 195.75267028808594 119.92594909667969 C 209.50808715820312 106.38878631591797 219.291259765625 106.70801544189453 207.39991760253906 111.26643371582031" stroke-width="9.569812774658203" fill="none" stroke="rgb(1, 0, 0)" stroke-opacity="0.11336393" stroke-linecap="round" stroke-linejoin="round"/>
    <path d="M 97.40723419189453 139.5955352783203 C 79.93040466308594 105.91188049316406 76.71379089355469 108.23908996582031 80.83594512939453 114.41523742675781" stroke-width="3.790370464324951" fill="none" stroke="rgb(0, -1, 1)" stroke-opacity="0.34253067" stroke-linecap="round" stroke-linejoin="round"/>
    <path d="M 98.75993347167969 142.82386779785156 C 104.03388214111328 141.62811279296875 101.3552017211914 150.366943359375 107.3608169555664 132.71347045898438" stroke-width="1.9525187015533447" fill="none" stroke="rgb(0, 0, 0)" stroke-opacity="0.2909618" stroke-linecap="round" stroke-linejoin="round"/>
    <path d="M 121.62895202636719 117.3349609375 C 108.16171264648438 87.09961700439453 102.10455322265625 89.4960708618164 107.27173614501953 96.17264556884766" stroke-width="12.67739486694336" fill="none" stroke="rgb(2, -3, 2)" stroke-opacity="0.3530598" stroke-linecap="round" stroke-linejoin="round"/>
    <path d="M 218.2349090576172 109.79939270019531 C 238.42575073242188 102.46257019042969 213.3031768798828 122.7491226196289 230.25428771972656 109.00524139404297" stroke-width="17.09250831604004" fill="none" stroke="rgb(1, -2, 1)" stroke-opacity="0.21463113" stroke-linecap="round" stroke-linejoin="round"/>
    <path d="M 166.8690643310547 189.3262481689453 C 158.44786071777344 193.8885040283203 160.28823852539062 185.29685974121094 170.18275451660156 189.40870666503906" stroke-width="2.376260757446289" fill="none" stroke="rgb(0, 0, 0)" stroke-opacity="0.037497643" stroke-linecap="round" stroke-linejoin="round"/>
    <path d="M 130.55352783203125 131.05812072753906 C 125.0480728149414 127.9868392944336 127.34673309326172 127.23372650146484 133.1564178466797 143.03305053710938" stroke-width="3.9370858669281006" fill="none" stroke="rgb(1, -1, 2)" stroke-opacity="0.5416214" stroke-linecap="round" stroke-linejoin="round"/>
    <path d="M 74.49615478515625 89.73177337646484 C 87.09131622314453 90.98497772216797 86.49038696289062 91.84719848632812 114.7740478515625 105.51327514648438" stroke-width="3.5550904273986816" fill="none" stroke="rgb(1, -1, 0)" stroke-opacity="0.20620658" stroke-linecap="round" stroke-linejoin="round"/>
    <path d="M 137.86036682128906 177.805908203125 C 127.12621307373047 179.6585693359375 146.9956817626953 180.4619598388672 127.18244934082031 178.356689453125" stroke-width="1.8006815910339355" fill="none" stroke="rgb(0, 0, 1)" stroke-opacity="0.26459005" stroke-linecap="round" stroke-linejoin="round"/>
    <path d="M 104.31996154785156 116.30760192871094 C 91.15742492675781 87.74066925048828 118.59394073486328 103.14759063720703 101.89566802978516 73.19935607910156" stroke-width="4.088067054748535" fill="none" stroke="rgb(1, 0, 0)" stroke-opacity="0.43790844" stroke-linecap="round" stroke-linejoin="round"/>
    <path d="M 198.60841369628906 151.71026611328125 C 212.71441650390625 157.8046112060547 181.8396453857422 154.69309997558594 228.68475341796875 155.0835723876953" stroke-width="2.617337226867676" fill="none" stroke="rgb(-1, 0, 1)" stroke-opacity="0.53361696" stroke-linecap="round" stroke-linejoin="round"/>
    <path d="M 75.85433959960938 168.8713836669922 C 32.09273910522461 170.5941162109375 66.97087097167969 169.87677001953125 46.098228454589844 168.31591796875" stroke-width="2.3647091388702393" fill="none" stroke="rgb(-2, 0, 1)" stroke-opacity="0.3298732" stroke-linecap="round" stroke-linejoin="round"/>
    <path d="M 137.88314819335938 147.83224487304688 C 130.6251983642578 128.2187957763672 135.70565795898438 143.50534057617188 133.98052978515625 138.77191162109375" stroke-width="2.818556308746338" fill="none" stroke="rgb(0, 0, 0)" stroke-opacity="0.52920616" stroke-linecap="round" stroke-linejoin="round"/>
    <path d="M 71.91975402832031 117.28057098388672 C 69.63783264160156 98.82357788085938 64.97172546386719 92.74867248535156 78.67081451416016 110.29499816894531" stroke-width="6.0270161628723145" fill="none" stroke="rgb(-1, 0, 1)" stroke-opacity="0.23378453" stroke-linecap="round" stroke-linejoin="round"/>
    <path d="M 130.005615234375 134.17974853515625 C 115.56417083740234 120.58908081054688 122.4849624633789 133.12356567382812 127.16508483886719 140.0948028564453" stroke-width="1.9112025499343872" fill="none" stroke="rgb(-2, 0, 1)" stroke-opacity="0.26428068" stroke-linecap="round" stroke-linejoin="round"/>
    <path d="M 60.29609680175781 139.89337158203125 C 60.75163269042969 136.00738525390625 72.63653564453125 129.27520751953125 38.35044860839844 144.85342407226562" stroke-width="8.429652214050293" fill="none" stroke="rgb(-2, -2, 2)" stroke-opacity="0.21771394" stroke-linecap="round" stroke-linejoin="round"/>
    <path d="M 146.1930389404297 128.8351593017578 C 140.86614990234375 162.421630859375 147.97706604003906 158.51547241210938 121.89752197265625 145.47096252441406" stroke-width="2.267069101333618" fill="none" stroke="rgb(-2, 1, 0)" stroke-opacity="0.48583138" stroke-linecap="round" stroke-linejoin="round"/>
    <path d="M 36.172515869140625 152.86708068847656 C 83.4969482421875 132.65635681152344 52.424644470214844 157.9342498779297 76.09554290771484 135.0066375732422" stroke-width="8.874831199645996" fill="none" stroke="rgb(-2, 0, 2)" stroke-opacity="0.36794645" stroke-linecap="round" stroke-linejoin="round"/>
    <path d="M 147.36073303222656 119.29994201660156 C 137.846923828125 73.58338165283203 131.98558044433594 80.74657440185547 118.80680847167969 51.63746643066406" stroke-width="3.040499210357666" fill="none" stroke="rgb(-2, 0, 1)" stroke-opacity="0.3948701" stroke-linecap="round" stroke-linejoin="round"/>
    <path d="M 155.6295166015625 178.0613250732422 C 128.8838653564453 180.4929962158203 128.9530792236328 175.29876708984375 142.409423828125 178.7177276611328" stroke-width="2.619877338409424" fill="none" stroke="rgb(0, 0, 0)" stroke-opacity="0.09346643" stroke-linecap="round" stroke-linejoin="round"/>
    <path d="M 19.309030532836914 168.9510498046875 C 60.13551712036133 170.77500915527344 75.16212463378906 163.0342559814453 23.748153686523438 170.8289337158203" stroke-width="3.982452869415283" fill="none" stroke="rgb(-1, -2, 2)" stroke-opacity="0.3124384" stroke-linecap="round" stroke-linejoin="round"/>
    <path d="M 148.1869659423828 151.514892578125 C 163.0409393310547 133.20059204101562 147.5260772705078 161.56918334960938 150.66018676757812 143.98423767089844" stroke-width="4.135144233703613" fill="none" stroke="rgb(-2, 1, 0)" stroke-opacity="0.7168131" stroke-linecap="round" stroke-linejoin="round"/>
    <path d="M 43.87395095825195 169.03041076660156 C 23.400110244750977 159.21115112304688 19.7230224609375 170.5525665283203 39.622650146484375 167.08071899414062" stroke-width="2.2997679710388184" fill="none" stroke="rgb(0, 0, 1)" stroke-opacity="0.279714" stroke-linecap="round" stroke-linejoin="round"/>
    <path d="M 136.97933959960938 150.99559020996094 C 124.75353240966797 131.4031219482422 130.04591369628906 124.0446548461914 138.7859649658203 153.3995819091797" stroke-width="3.5330967903137207" fill="none" stroke="rgb(-1, 0, 1)" stroke-opacity="0.6977465" stroke-linecap="round" stroke-linejoin="round"/>
    <path d="M 70.27735137939453 103.76587677001953 C 66.36341094970703 81.70404815673828 61.203758239746094 87.48402404785156 78.51115417480469 91.74237060546875" stroke-width="4.539802074432373" fill="none" stroke="rgb(1, 0, -2)" stroke-opacity="0.287457" stroke-linecap="round" stroke-linejoin="round"/>
    <path d="M 190.7432861328125 233.43443298339844 C 183.79869079589844 233.08604431152344 188.9215087890625 232.02120971679688 190.89236450195312 232.3748321533203" stroke-width="3.3795113563537598" fill="none" stroke="rgb(0, 0, 0)" stroke-opacity="0.87271047" stroke-linecap="round" stroke-linejoin="round"/>
    <path d="M 153.2839813232422 69.67521667480469 C 115.38163757324219 42.18913269042969 106.52130126953125 63.38951873779297 144.60789489746094 69.07645416259766" stroke-width="9.679817199707031" fill="none" stroke="rgb(3, 0, -5)" stroke-opacity="0.14240642" stroke-linecap="round" stroke-linejoin="round"/>
    <path d="M 121.3686294555664 105.59095764160156 C 135.03622436523438 126.0289306640625 133.68621826171875 141.91864013671875 135.75009155273438 145.83883666992188" stroke-width="6.779787540435791" fill="none" stroke="rgb(0, -1, 0)" stroke-opacity="0.2838452" stroke-linecap="round" stroke-linejoin="round"/>
    <path d="M 178.51712036132812 189.8843536376953 C 170.3505401611328 193.24798583984375 171.41310119628906 185.79962158203125 174.9190673828125 188.40655517578125" stroke-width="2.129349946975708" fill="none" stroke="rgb(0, 0, 0)" stroke-opacity="0.05819566" stroke-linecap="round" stroke-linejoin="round"/>
    <path d="M 170.44894409179688 178.95565795898438 C 176.59962463378906 180.3338623046875 169.2018280029297 179.080810546875 171.74867248535156 178.43760681152344" stroke-width="1.8942326307296753" fill="none" stroke="rgb(0, 0, 0)" stroke-opacity="0.18617374" stroke-linecap="round" stroke-linejoin="round"/>
    <path d="M 97.67011260986328 143.2303009033203 C 90.37403869628906 131.97610473632812 79.85572814941406 134.1867218017578 72.90251922607422 149.05934143066406" stroke-width="5.528637886047363" fill="none" stroke="rgb(1, -1, 0)" stroke-opacity="0.32360798" stroke-linecap="round" stroke-linejoin="round"/>
    <path d="M 207.58184814453125 108.45880889892578 C 210.66246032714844 119.23615264892578 204.84051513671875 106.78561401367188 211.28103637695312 104.18830871582031" stroke-width="2.3695545196533203" fill="none" stroke="rgb(0, 0, 0)" stroke-opacity="0.09587379" stroke-linecap="round" stroke-linejoin="round"/>
    <path d="M 120.83995056152344 123.71562194824219 C 120.21040344238281 125.89373016357422 118.64972686767578 110.33641052246094 132.63023376464844 138.72488403320312" stroke-width="7.5475945472717285" fill="none" stroke="rgb(3, -3, 3)" stroke-opacity="0.7723186" stroke-linecap="round" stroke-linejoin="round"/>
    <path d="M 63.15994644165039 129.21881103515625 C 58.141929626464844 115.53681182861328 56.471900939941406 99.58780670166016 57.96857452392578 107.81873321533203" stroke-width="12.366978645324707" fill="none" stroke="rgb(0, 1, -2)" stroke-opacity="0.39168218" stroke-linecap="round" stroke-linejoin="round"/>
  </g>
</svg>
