<?xml version="1.0" ?>
<svg xmlns="http://www.w3.org/2000/svg" version="1.1" width="224" height="224">
  <defs/>
  <g>
    <path d="M 96.43582916259766 99.54472351074219 C 117.74168395996094 127.73333740234375 129.68211364746094 111.09278869628906 95.32856750488281 97.73787689208984" stroke-width="7.682908058166504" fill="none" stroke="rgb(-3, -2, 3)" stroke-opacity="0.6353617" stroke-linecap="round" stroke-linejoin="round"/>
    <path d="M 188.15444946289062 122.13240051269531 C 186.92861938476562 127.00524139404297 192.66217041015625 115.69486236572266 180.04888916015625 132.6925811767578" stroke-width="1.8382823467254639" fill="none" stroke="rgb(-1, 1, 1)" stroke-opacity="0.493733" stroke-linecap="round" stroke-linejoin="round"/>
    <path d="M 28.238466262817383 178.703125 C 23.650222778320312 177.85313415527344 17.804677963256836 178.5443878173828 23.556697845458984 177.28126525878906" stroke-width="1.8622655868530273" fill="none" stroke="rgb(0, 0, 1)" stroke-opacity="0.4579336" stroke-linecap="round" stroke-linejoin="round"/>
    <path d="M 117.11019897460938 118.42481231689453 C 114.16656494140625 91.3046646118164 113.06761169433594 94.0706787109375 123.3697280883789 124.67861938476562" stroke-width="14.43449592590332" fill="none" stroke="rgb(-2, -2, 2)" stroke-opacity="0.4803143" stroke-linecap="round" stroke-linejoin="round"/>
    <path d="M 111.67191314697266 143.06863403320312 C 91.72366333007812 139.30543518066406 100.791259765625 152.9957733154297 103.49713134765625 124.12096405029297" stroke-width="1.8885270357131958" fill="none" stroke="rgb(-3, 1, 2)" stroke-opacity="0.38700628" stroke-linecap="round" stroke-linejoin="round"/>
    <path d="M 156.77792358398438 67.6033935546875 C 151.66012573242188 71.34939575195312 158.6652069091797 68.60077667236328 158.96090698242188 68.25077819824219" stroke-width="1.9572725296020508" fill="none" stroke="rgb(1, 0, 0)" stroke-opacity="0.6490734" stroke-linecap="round" stroke-linejoin="round"/>
    <path d="M 192.5413055419922 157.0604705810547 C 120.56554412841797 157.86758422851562 149.0876007080078 162.92617797851562 182.21868896484375 131.8566436767578" stroke-width="4.756783962249756" fill="none" stroke="rgb(-2, -1, 2)" stroke-opacity="0.34333134" stroke-linecap="round" stroke-linejoin="round"/>
    <path d="M 37.280277252197266 144.062744140625 C 44.042850494384766 147.32264709472656 37.923526763916016 142.71810913085938 33.66493606567383 146.5148162841797" stroke-width="1.901727318763733" fill="none" stroke="rgb(0, 0, 1)" stroke-opacity="0.5227566" stroke-linecap="round" stroke-linejoin="round"/>
    <path d="M 124.27911376953125 143.7928009033203 C 129.1024932861328 149.9795684814453 131.28543090820312 144.62020874023438 112.43344116210938 140.9355010986328" stroke-width="7.956786155700684" fill="none" stroke="rgb(-2, 0, 2)" stroke-opacity="0.6658872" stroke-linecap="round" stroke-linejoin="round"/>
    <path d="M 55.3825798034668 168.2771453857422 C 63.653099060058594 168.23333740234375 40.172462463378906 167.29478454589844 45.94538116455078 168.10931396484375" stroke-width="1.8795682191848755" fill="none" stroke="rgb(-1, 0, 0)" stroke-opacity="0.6015425" stroke-linecap="round" stroke-linejoin="round"/>
    <path d="M 21.36021614074707 176.1151123046875 C 31.18111228942871 176.7315216064453 15.677762031555176 175.2383575439453 -7.713572978973389 175.82272338867188" stroke-width="5.928887367248535" fill="none" stroke="rgb(0, 0, -1)" stroke-opacity="0.3916023" stroke-linecap="round" stroke-linejoin="round"/>
    <path d="M 133.6879119873047 162.458740234375 C 123.6556167602539 168.65884399414062 155.7621307373047 167.71298217773438 141.18502807617188 167.78518676757812" stroke-width="1.9845654964447021" fill="none" stroke="rgb(-1, 2, 0)" stroke-opacity="0.49392614" stroke-linecap="round" stroke-linejoin="round"/>
    <path d="M 118.13687133789062 167.60281372070312 C 115.19581604003906 167.9196014404297 144.54393005371094 171.43368530273438 132.02565002441406 166.92823791503906" stroke-width="1.880570650100708" fill="none" stroke="rgb(0, 0, 1)" stroke-opacity="0.47888574" stroke-linecap="round" stroke-linejoin="round"/>
    <path d="M 95.4549560546875 178.15257263183594 C 117.16706848144531 178.8264923095703 130.0070343017578 178.5280303955078 127.01893615722656 178.7960205078125" stroke-width="2.1232504844665527" fill="none" stroke="rgb(0, 1, 1)" stroke-opacity="0.29320627" stroke-linecap="round" stroke-linejoin="round"/>
    <path d="M 194.6804962158203 117.24664306640625 C 208.4110565185547 106.78858184814453 210.71910095214844 104.97501373291016 208.09951782226562 112.11104583740234" stroke-width="5.467472076416016" fill="none" stroke="rgb(0, 0, 0)" stroke-opacity="0.23758708" stroke-linecap="round" stroke-linejoin="round"/>
    <path d="M 93.66474151611328 136.57672119140625 C 83.53801727294922 107.37590789794922 72.86536407470703 115.3797378540039 80.27505493164062 113.63522338867188" stroke-width="5.175917148590088" fill="none" stroke="rgb(0, -3, 3)" stroke-opacity="0.33280677" stroke-linecap="round" stroke-linejoin="round"/>
    <path d="M 104.90705871582031 139.84666442871094 C 104.94862365722656 130.34603881835938 101.89350891113281 139.80711364746094 104.10047912597656 137.3049774169922" stroke-width="1.9614295959472656" fill="none" stroke="rgb(-1, 0, 0)" stroke-opacity="0.40155482" stroke-linecap="round" stroke-linejoin="round"/>
    <path d="M 121.73700714111328 116.7035903930664 C 108.26069641113281 84.02076721191406 104.88060760498047 89.5313949584961 110.41661071777344 94.2484359741211" stroke-width="10.906916618347168" fill="none" stroke="rgb(2, 0, -1)" stroke-opacity="0.58476925" stroke-linecap="round" stroke-linejoin="round"/>
    <path d="M 216.0214080810547 109.13284301757812 C 230.58384704589844 106.27696228027344 232.63575744628906 117.2951889038086 231.6182861328125 105.34197998046875" stroke-width="14.059850692749023" fill="none" stroke="rgb(2, -2, 0)" stroke-opacity="0.33060724" stroke-linecap="round" stroke-linejoin="round"/>
    <path d="M 158.6688995361328 208.24635314941406 C 158.2592010498047 208.10357666015625 157.48178100585938 206.5435333251953 159.70419311523438 207.98468017578125" stroke-width="1.8446992635726929" fill="none" stroke="rgb(0, 0, -1)" stroke-opacity="0.45277187" stroke-linecap="round" stroke-linejoin="round"/>
    <path d="M 132.0921173095703 137.0290069580078 C 128.2193603515625 131.6725311279297 129.46517944335938 132.07557678222656 132.8306427001953 142.83441162109375" stroke-width="1.9821770191192627" fill="none" stroke="rgb(0, 0, 0)" stroke-opacity="0.6758022" stroke-linecap="round" stroke-linejoin="round"/>
    <path d="M 75.95352935791016 87.34125518798828 C 88.61466979980469 90.06721496582031 86.29427337646484 94.1616439819336 110.57401275634766 101.95407104492188" stroke-width="2.9844515323638916" fill="none" stroke="rgb(0, 0, 0)" stroke-opacity="0.33040488" stroke-linecap="round" stroke-linejoin="round"/>
    <path d="M 134.3739776611328 177.22682189941406 C 132.6009521484375 176.9228057861328 142.6338348388672 177.33969116210938 136.07772827148438 177.03164672851562" stroke-width="1.8370105028152466" fill="none" stroke="rgb(0, 0, 0)" stroke-opacity="0.5183957" stroke-linecap="round" stroke-linejoin="round"/>
    <path d="M 106.9480972290039 112.830322265625 C 99.07280731201172 84.2791976928711 117.0718002319336 105.51847839355469 102.57276153564453 74.67227935791016" stroke-width="6.255743980407715" fill="none" stroke="rgb(2, 0, 0)" stroke-opacity="0.46521345" stroke-linecap="round" stroke-linejoin="round"/>
    <path d="M 188.1976776123047 143.63494873046875 C 192.61514282226562 155.44570922851562 167.86758422851562 147.55618286132812 227.71383666992188 152.27403259277344" stroke-width="4.517571449279785" fill="none" stroke="rgb(0, -4, 3)" stroke-opacity="0.5090116" stroke-linecap="round" stroke-linejoin="round"/>
    <path d="M 49.19251251220703 165.47882080078125 C 40.659523010253906 165.1448211669922 56.0029182434082 170.79225158691406 48.14795684814453 168.5875244140625" stroke-width="2.315643072128296" fill="none" stroke="rgb(0, 0, 0)" stroke-opacity="0.4051106" stroke-linecap="round" stroke-linejoin="round"/>
    <path d="M 136.59915161132812 150.53872680664062 C 131.59458923339844 126.40589904785156 131.87197875976562 139.06484985351562 132.970458984375 139.1326446533203" stroke-width="4.446450233459473" fill="none" stroke="rgb(0, 0, 0)" stroke-opacity="0.58104706" stroke-linecap="round" stroke-linejoin="round"/>
    <path d="M 70.67044830322266 112.85617065429688 C 73.85565185546875 97.85830688476562 68.44820404052734 96.31810760498047 77.6516342163086 110.30162048339844" stroke-width="8.204681396484375" fill="none" stroke="rgb(1, -3, 2)" stroke-opacity="0.35296902" stroke-linecap="round" stroke-linejoin="round"/>
    <path d="M 133.05023193359375 140.80691528320312 C 124.36458587646484 122.63114929199219 130.13546752929688 127.966796875 131.8663787841797 138.0989990234375" stroke-width="5.194573879241943" fill="none" stroke="rgb(1, 0, 2)" stroke-opacity="0.682217" stroke-linecap="round" stroke-linejoin="round"/>
    <path d="M 60.882999420166016 134.7371368408203 C 70.84164428710938 125.80367279052734 79.97471618652344 129.53445434570312 40.6677131652832 143.2882843017578" stroke-width="5.446389198303223" fill="none" stroke="rgb(-3, -1, 4)" stroke-opacity="0.26810622" stroke-linecap="round" stroke-linejoin="round"/>
    <path d="M 140.77330017089844 134.9459686279297 C 138.05734252929688 154.10513305664062 146.91981506347656 159.67137145996094 122.30661010742188 145.8118133544922" stroke-width="2.9549050331115723" fill="none" stroke="rgb(1, 0, 0)" stroke-opacity="0.45282066" stroke-linecap="round" stroke-linejoin="round"/>
    <path d="M 54.62055587768555 145.3771514892578 C 73.23722076416016 142.62176513671875 57.3190803527832 158.63185119628906 77.31031036376953 134.347900390625" stroke-width="6.223663330078125" fill="none" stroke="rgb(-1, 0, 0)" stroke-opacity="0.29069585" stroke-linecap="round" stroke-linejoin="round"/>
    <path d="M 146.35755920410156 120.29720306396484 C 136.43136596679688 72.1749267578125 129.05056762695312 79.63186645507812 120.55026245117188 51.691532135009766" stroke-width="3.1129088401794434" fill="none" stroke="rgb(0, 0, 0)" stroke-opacity="0.38652226" stroke-linecap="round" stroke-linejoin="round"/>
    <path d="M 144.01866149902344 185.6576385498047 C 140.32774353027344 185.15127563476562 139.19073486328125 185.65170288085938 141.33786010742188 185.4909210205078" stroke-width="1.863876223564148" fill="none" stroke="rgb(1, 0, 0)" stroke-opacity="0.41761056" stroke-linecap="round" stroke-linejoin="round"/>
    <path d="M 32.45122528076172 162.81906127929688 C 55.66660690307617 169.22874450683594 60.209312438964844 166.3634796142578 18.037588119506836 170.62574768066406" stroke-width="6.482053756713867" fill="none" stroke="rgb(-1, 0, 2)" stroke-opacity="0.2506581" stroke-linecap="round" stroke-linejoin="round"/>
    <path d="M 147.1529998779297 151.23138427734375 C 152.37362670898438 140.40921020507812 153.22348022460938 154.56430053710938 149.49978637695312 144.14578247070312" stroke-width="6.655888080596924" fill="none" stroke="rgb(-2, 1, 0)" stroke-opacity="0.6196737" stroke-linecap="round" stroke-linejoin="round"/>
    <path d="M 48.77809143066406 167.91162109375 C 38.38858413696289 168.22625732421875 32.744544982910156 168.31605529785156 45.69501495361328 167.92799377441406" stroke-width="1.8248424530029297" fill="none" stroke="rgb(0, 0, 2)" stroke-opacity="0.6548891" stroke-linecap="round" stroke-linejoin="round"/>
    <path d="M 135.7123565673828 148.17442321777344 C 128.96002197265625 136.819580078125 132.8393096923828 128.0963897705078 138.7266082763672 151.9575958251953" stroke-width="3.1153573989868164" fill="none" stroke="rgb(-1, 0, 0)" stroke-opacity="0.84525996" stroke-linecap="round" stroke-linejoin="round"/>
    <path d="M 74.50536346435547 105.5422134399414 C 72.24225616455078 78.05021667480469 69.7403335571289 84.0966567993164 84.07584381103516 94.4293212890625" stroke-width="1.9533047676086426" fill="none" stroke="rgb(0, 0, 0)" stroke-opacity="0.17512685" stroke-linecap="round" stroke-linejoin="round"/>
    <path d="M 190.74278259277344 233.4337921142578 C 183.79879760742188 233.0853271484375 188.9215087890625 232.0207061767578 190.89236450195312 232.37451171875" stroke-width="3.37965989112854" fill="none" stroke="rgb(0, 0, 0)" stroke-opacity="0.87271726" stroke-linecap="round" stroke-linejoin="round"/>
    <path d="M 153.41888427734375 65.4327392578125 C 136.9653778076172 52.39512252807617 132.45111083984375 59.225318908691406 146.41786193847656 62.823917388916016" stroke-width="2.7477641105651855" fill="none" stroke="rgb(0, 0, 1)" stroke-opacity="0.17537586" stroke-linecap="round" stroke-linejoin="round"/>
    <path d="M 121.03221893310547 105.24586486816406 C 134.0517120361328 126.99878692626953 133.4478302001953 140.9282989501953 134.17361450195312 141.0618133544922" stroke-width="7.98032283782959" fill="none" stroke="rgb(1, -1, 1)" stroke-opacity="0.54560226" stroke-linecap="round" stroke-linejoin="round"/>
    <path d="M 171.66526794433594 186.35865783691406 C 171.11395263671875 187.21791076660156 171.2275848388672 185.43824768066406 172.39266967773438 186.53390502929688" stroke-width="1.8564499616622925" fill="none" stroke="rgb(1, 1, -1)" stroke-opacity="0.35668314" stroke-linecap="round" stroke-linejoin="round"/>
    <path d="M 171.3687744140625 186.17352294921875 C 170.9968719482422 186.17852783203125 172.0920867919922 188.52552795410156 171.74476623535156 186.90887451171875" stroke-width="1.80197274684906" fill="none" stroke="rgb(0, 0, 0)" stroke-opacity="0.4801973" stroke-linecap="round" stroke-linejoin="round"/>
    <path d="M 93.42948150634766 139.19650268554688 C 79.07582092285156 137.7918701171875 85.01908874511719 137.05247497558594 71.97343444824219 143.6433563232422" stroke-width="8.444575309753418" fill="none" stroke="rgb(0, 0, 0)" stroke-opacity="0.39549348" stroke-linecap="round" stroke-linejoin="round"/>
    <path d="M 209.94076538085938 107.44145202636719 C 211.84678649902344 115.2637710571289 208.6257781982422 106.76134490966797 210.90200805664062 112.10968017578125" stroke-width="3.1807684898376465" fill="none" stroke="rgb(1, 0, 0)" stroke-opacity="0.41418198" stroke-linecap="round" stroke-linejoin="round"/>
    <path d="M 125.8707046508789 124.62415313720703 C 123.3171157836914 118.24012756347656 115.83739471435547 111.09504699707031 130.92898559570312 138.0269317626953" stroke-width="7.955628395080566" fill="none" stroke="rgb(3, -3, 3)" stroke-opacity="0.7008405" stroke-linecap="round" stroke-linejoin="round"/>
    <path d="M 63.1009635925293 135.1996307373047 C 57.319339752197266 108.89765167236328 52.139225006103516 104.93692779541016 53.53804397583008 105.99585723876953" stroke-width="11.739368438720703" fill="none" stroke="rgb(1, 0, -1)" stroke-opacity="0.34603652" stroke-linecap="round" stroke-linejoin="round"/>
  </g>
</svg>
