<?xml version="1.0" ?>
<svg xmlns="http://www.w3.org/2000/svg" version="1.1" width="224" height="224">
  <defs/>
  <g>
    <path d="M 88.3681869506836 94.27017974853516 C 123.15221405029297 127.58301544189453 113.85860443115234 102.47724151611328 86.34616088867188 92.11895751953125" stroke-width="4.126041412353516" fill="none" stroke="rgb(-1, -2, 1)" stroke-opacity="0.52375513" stroke-linecap="round" stroke-linejoin="round"/>
    <path d="M 184.41802978515625 154.04934692382812 C 193.17327880859375 114.86612701416016 187.632568359375 100.5390853881836 194.54368591308594 174.70164489746094" stroke-width="1.7552597522735596" fill="none" stroke="rgb(-3, 0, 3)" stroke-opacity="0.16291022" stroke-linecap="round" stroke-linejoin="round"/>
    <path d="M 62.793128967285156 180.26092529296875 C -20.312837600708008 193.25729370117188 -40.633094787597656 178.81268310546875 36.11028289794922 177.2890625" stroke-width="4.650966167449951" fill="none" stroke="rgb(-4, -1, 6)" stroke-opacity="0.12815157" stroke-linecap="round" stroke-linejoin="round"/>
    <path d="M 120.19841003417969 122.20244598388672 C 100.9666748046875 106.45144653320312 104.3282470703125 64.92390441894531 129.85157775878906 130.43679809570312" stroke-width="8.550368309020996" fill="none" stroke="rgb(-3, -1, 2)" stroke-opacity="0.6992083" stroke-linecap="round" stroke-linejoin="round"/>
    <path d="M 126.7612533569336 146.56298828125 C 92.39234924316406 133.7854461669922 103.36405944824219 161.1505584716797 103.15923309326172 127.46221923828125" stroke-width="1.9751532077789307" fill="none" stroke="rgb(-2, -1, 3)" stroke-opacity="0.57303256" stroke-linecap="round" stroke-linejoin="round"/>
    <path d="M 191.2973175048828 128.22137451171875 C 189.3033905029297 92.02445983886719 167.38931274414062 82.80802917480469 159.96920776367188 70.66252136230469" stroke-width="3.2206645011901855" fill="none" stroke="rgb(-2, 2, 1)" stroke-opacity="0.08136245" stroke-linecap="round" stroke-linejoin="round"/>
    <path d="M 229.92156982421875 156.11917114257812 C 115.00381469726562 155.80686950683594 149.84262084960938 165.19967651367188 188.50296020507812 126.06822967529297" stroke-width="5.292277812957764" fill="none" stroke="rgb(0, -3, 3)" stroke-opacity="0.5039585" stroke-linecap="round" stroke-linejoin="round"/>
    <path d="M 36.365135192871094 143.70216369628906 C 44.61899185180664 149.2747802734375 39.5654296875 155.5552978515625 13.888927459716797 155.09075927734375" stroke-width="4.1858601570129395" fill="none" stroke="rgb(-3, 0, 3)" stroke-opacity="0.38351244" stroke-linecap="round" stroke-linejoin="round"/>
    <path d="M 111.85026550292969 140.43479919433594 C 134.9650421142578 149.7425079345703 125.46221160888672 145.25033569335938 112.72491455078125 140.65296936035156" stroke-width="8.070469856262207" fill="none" stroke="rgb(-3, 2, 2)" stroke-opacity="0.77107" stroke-linecap="round" stroke-linejoin="round"/>
    <path d="M 36.68858337402344 156.24871826171875 C 68.1787109375 172.2509307861328 38.0648193359375 158.75221252441406 36.95656204223633 164.2032928466797" stroke-width="10.065645217895508" fill="none" stroke="rgb(3, -1, -1)" stroke-opacity="0.39832884" stroke-linecap="round" stroke-linejoin="round"/>
    <path d="M 1.194169044494629 162.0349578857422 C 112.09809875488281 164.45663452148438 66.824462890625 174.20819091796875 -17.9678955078125 174.76116943359375" stroke-width="10.915666580200195" fill="none" stroke="rgb(5, 0, -6)" stroke-opacity="0.37609032" stroke-linecap="round" stroke-linejoin="round"/>
    <path d="M 140.8765106201172 172.15914916992188 C -23.928468704223633 170.73922729492188 70.33547973632812 168.8729705810547 237.92242431640625 169.0488739013672" stroke-width="4.6917219161987305" fill="none" stroke="rgb(-2, -2, 2)" stroke-opacity="0.46520516" stroke-linecap="round" stroke-linejoin="round"/>
    <path d="M 108.44890594482422 147.3952178955078 C 79.10424041748047 161.6631317138672 151.75076293945312 139.9940948486328 132.35255432128906 164.001953125" stroke-width="12.622220993041992" fill="none" stroke="rgb(4, -1, -4)" stroke-opacity="0.20253518" stroke-linecap="round" stroke-linejoin="round"/>
    <path d="M 52.03759765625 191.4441375732422 C 184.15988159179688 192.76683044433594 164.579833984375 174.06793212890625 89.00791931152344 154.40249633789062" stroke-width="7.234859466552734" fill="none" stroke="rgb(-1, 1, 1)" stroke-opacity="0.078761384" stroke-linecap="round" stroke-linejoin="round"/>
    <path d="M 187.44573974609375 123.90373992919922 C 204.6075897216797 109.20925903320312 199.27748107910156 114.07830047607422 193.00485229492188 115.78580474853516" stroke-width="2.246436834335327" fill="none" stroke="rgb(0, 0, 0)" stroke-opacity="0.21020831" stroke-linecap="round" stroke-linejoin="round"/>
    <path d="M 100.53443908691406 145.0162353515625 C 72.22350311279297 105.74754333496094 83.31079864501953 104.72630310058594 94.62269592285156 136.4939727783203" stroke-width="1.8680223226547241" fill="none" stroke="rgb(-2, -1, 1)" stroke-opacity="0.43083233" stroke-linecap="round" stroke-linejoin="round"/>
    <path d="M 92.33199310302734 143.2633819580078 C 85.3929443359375 152.7467041015625 111.8979263305664 153.99490356445312 104.94331359863281 99.95015716552734" stroke-width="7.505850791931152" fill="none" stroke="rgb(3, -3, 2)" stroke-opacity="0.11935828" stroke-linecap="round" stroke-linejoin="round"/>
    <path d="M 128.5925750732422 128.22267150878906 C 110.12496185302734 83.1286849975586 110.40223693847656 91.31280517578125 102.88532257080078 73.2287368774414" stroke-width="6.102835178375244" fill="none" stroke="rgb(3, -1, -4)" stroke-opacity="0.4885865" stroke-linecap="round" stroke-linejoin="round"/>
    <path d="M 213.64601135253906 122.11302947998047 C 255.51319885253906 101.21306610107422 226.69647216796875 137.28317260742188 230.34584045410156 118.45160675048828" stroke-width="34.16572952270508" fill="none" stroke="rgb(3, -1, -3)" stroke-opacity="0.27616143" stroke-linecap="round" stroke-linejoin="round"/>
    <path d="M 214.20555114746094 196.1772918701172 C 191.10992431640625 205.50393676757812 180.7108154296875 192.94027709960938 220.17124938964844 200.3058624267578" stroke-width="2.885591506958008" fill="none" stroke="rgb(0, 0, 0)" stroke-opacity="0.046675522" stroke-linecap="round" stroke-linejoin="round"/>
    <path d="M 129.05381774902344 135.8540802001953 C 134.2840576171875 132.07252502441406 127.16399383544922 132.8746795654297 132.646240234375 135.37823486328125" stroke-width="2.2167487144470215" fill="none" stroke="rgb(0, 0, 0)" stroke-opacity="0.36476606" stroke-linecap="round" stroke-linejoin="round"/>
    <path d="M 68.92599487304688 89.93616485595703 C 112.42211151123047 99.83211517333984 99.75634765625 117.78881072998047 113.58601379394531 96.29573059082031" stroke-width="10.261805534362793" fill="none" stroke="rgb(3, 0, -1)" stroke-opacity="0.17721625" stroke-linecap="round" stroke-linejoin="round"/>
    <path d="M 161.5041046142578 194.85214233398438 C 39.75239562988281 197.7308349609375 166.00819396972656 174.9677276611328 106.31459045410156 175.93894958496094" stroke-width="8.697965621948242" fill="none" stroke="rgb(0, 1, 0)" stroke-opacity="0.06882821" stroke-linecap="round" stroke-linejoin="round"/>
    <path d="M 102.65963745117188 118.2660140991211 C 75.9001693725586 62.325958251953125 117.66201782226562 132.9088592529297 100.8779067993164 69.6187515258789" stroke-width="1.9914333820343018" fill="none" stroke="rgb(0, 0, 0)" stroke-opacity="0.5839401" stroke-linecap="round" stroke-linejoin="round"/>
    <path d="M 192.18504333496094 149.76834106445312 C 250.02761840820312 139.51116943359375 153.20504760742188 155.4381866455078 230.25929260253906 151.55921936035156" stroke-width="7.657093524932861" fill="none" stroke="rgb(-3, -1, 2)" stroke-opacity="0.5211773" stroke-linecap="round" stroke-linejoin="round"/>
    <path d="M 83.62100982666016 167.1802978515625 C 33.32975387573242 133.9385223388672 37.689640045166016 152.46617126464844 62.40979766845703 157.14561462402344" stroke-width="12.383105278015137" fill="none" stroke="rgb(4, -3, 0)" stroke-opacity="0.39277154" stroke-linecap="round" stroke-linejoin="round"/>
    <path d="M 137.54299926757812 152.3368682861328 C 117.44998931884766 113.5386734008789 137.6246337890625 152.32684326171875 131.65403747558594 132.8158721923828" stroke-width="2.6792290210723877" fill="none" stroke="rgb(-1, 0, 3)" stroke-opacity="0.64214605" stroke-linecap="round" stroke-linejoin="round"/>
    <path d="M 89.84468078613281 128.00852966308594 C 53.651329040527344 84.84557342529297 66.61481475830078 85.96891021728516 88.76835632324219 125.24282836914062" stroke-width="4.855317115783691" fill="none" stroke="rgb(1, -3, 3)" stroke-opacity="0.3423798" stroke-linecap="round" stroke-linejoin="round"/>
    <path d="M 130.22845458984375 133.29580688476562 C 97.32594299316406 110.30504608154297 102.70186614990234 133.5731658935547 122.11768341064453 141.86900329589844" stroke-width="9.684337615966797" fill="none" stroke="rgb(-4, 1, 2)" stroke-opacity="0.11707462" stroke-linecap="round" stroke-linejoin="round"/>
    <path d="M 72.90149688720703 143.87025451660156 C 33.72269821166992 142.53207397460938 80.21468353271484 129.87625122070312 41.98158264160156 145.83944702148438" stroke-width="9.397414207458496" fill="none" stroke="rgb(-1, -3, 3)" stroke-opacity="0.42852503" stroke-linecap="round" stroke-linejoin="round"/>
    <path d="M 146.39096069335938 128.59397888183594 C 140.30531311035156 163.67343139648438 148.86367797851562 153.37246704101562 126.5190200805664 149.7396697998047" stroke-width="2.270127058029175" fill="none" stroke="rgb(-2, 1, 2)" stroke-opacity="0.52441114" stroke-linecap="round" stroke-linejoin="round"/>
    <path d="M 36.702842712402344 152.67144775390625 C 97.31627655029297 124.32467651367188 53.36548614501953 160.23944091796875 76.48880767822266 134.0051727294922" stroke-width="7.713901996612549" fill="none" stroke="rgb(1, 0, 0)" stroke-opacity="0.40499604" stroke-linecap="round" stroke-linejoin="round"/>
    <path d="M 146.78826904296875 118.091064453125 C 137.33575439453125 75.84245300292969 134.756103515625 85.94703674316406 118.24937438964844 50.07485580444336" stroke-width="2.684755802154541" fill="none" stroke="rgb(-2, 3, 0)" stroke-opacity="0.49575898" stroke-linecap="round" stroke-linejoin="round"/>
    <path d="M 150.94888305664062 180.99339294433594 C -37.58985137939453 186.2088165283203 -27.612197875976562 168.99826049804688 148.65280151367188 160.18865966796875" stroke-width="7.131862163543701" fill="none" stroke="rgb(-1, 0, 3)" stroke-opacity="0.22542828" stroke-linecap="round" stroke-linejoin="round"/>
    <path d="M 12.974836349487305 168.15248107910156 C 112.03511047363281 165.98081970214844 136.1903533935547 167.0906219482422 25.190874099731445 165.07525634765625" stroke-width="3.3588430881500244" fill="none" stroke="rgb(-4, -3, 4)" stroke-opacity="0.6191572" stroke-linecap="round" stroke-linejoin="round"/>
    <path d="M 148.65380859375 153.5821990966797 C 160.73121643066406 132.5396270751953 152.16012573242188 163.86183166503906 150.55079650878906 145.304931640625" stroke-width="5.520947456359863" fill="none" stroke="rgb(-3, 1, 1)" stroke-opacity="0.6482623" stroke-linecap="round" stroke-linejoin="round"/>
    <path d="M 34.020240783691406 182.5885467529297 C 36.75133514404297 156.86195373535156 29.188392639160156 188.87078857421875 23.591001510620117 152.48207092285156" stroke-width="10.551539421081543" fill="none" stroke="rgb(-1, 0, 1)" stroke-opacity="0.089329384" stroke-linecap="round" stroke-linejoin="round"/>
    <path d="M 136.91200256347656 149.824951171875 C 125.62579345703125 133.18394470214844 128.81105041503906 114.69586944580078 138.08148193359375 151.85415649414062" stroke-width="3.8858530521392822" fill="none" stroke="rgb(-2, 0, 2)" stroke-opacity="0.82726103" stroke-linecap="round" stroke-linejoin="round"/>
    <path d="M 72.82971954345703 103.46444702148438 C 61.63649368286133 83.67347717285156 64.7749252319336 87.7088851928711 63.213253021240234 85.5928726196289" stroke-width="3.8064093589782715" fill="none" stroke="rgb(2, 0, -3)" stroke-opacity="0.47842675" stroke-linecap="round" stroke-linejoin="round"/>
    <path d="M 190.7432861328125 233.43443298339844 C 183.79869079589844 233.08604431152344 188.9215087890625 232.02120971679688 190.89236450195312 232.3748321533203" stroke-width="3.3795113563537598" fill="none" stroke="rgb(0, 0, 0)" stroke-opacity="0.87271047" stroke-linecap="round" stroke-linejoin="round"/>
    <path d="M 164.24256896972656 85.49600219726562 C 139.68418884277344 55.06755828857422 83.32569122314453 45.42524719238281 149.35276794433594 84.23162841796875" stroke-width="16.993032455444336" fill="none" stroke="rgb(2, 3, -3)" stroke-opacity="0.1275618" stroke-linecap="round" stroke-linejoin="round"/>
    <path d="M 118.33413696289062 98.16673278808594 C 135.42642211914062 121.6718978881836 144.27191162109375 166.69541931152344 129.07281494140625 148.32998657226562" stroke-width="5.792731761932373" fill="none" stroke="rgb(0, -1, 1)" stroke-opacity="0.26221627" stroke-linecap="round" stroke-linejoin="round"/>
    <path d="M 239.51687622070312 181.25711059570312 C 177.41766357421875 179.90496826171875 235.797119140625 186.23341369628906 221.9971923828125 180.13729858398438" stroke-width="3.4364163875579834" fill="none" stroke="rgb(-2, 0, 2)" stroke-opacity="0.26424417" stroke-linecap="round" stroke-linejoin="round"/>
    <path d="M 166.19192504882812 182.6503143310547 C 183.9191436767578 185.5330810546875 107.91471862792969 181.93405151367188 208.78759765625 181.36520385742188" stroke-width="5.922654151916504" fill="none" stroke="rgb(-3, 0, 3)" stroke-opacity="0.23876594" stroke-linecap="round" stroke-linejoin="round"/>
    <path d="M 94.16149139404297 139.1152801513672 C 73.74476623535156 131.97994995117188 85.19103240966797 136.61697387695312 75.64856719970703 142.3786163330078" stroke-width="6.2927422523498535" fill="none" stroke="rgb(0, -1, 1)" stroke-opacity="0.42632946" stroke-linecap="round" stroke-linejoin="round"/>
    <path d="M 194.56227111816406 115.7146987915039 C 215.92970275878906 106.11251068115234 200.6368408203125 111.11607360839844 219.9304656982422 102.16057586669922" stroke-width="3.6990764141082764" fill="none" stroke="rgb(0, 0, 0)" stroke-opacity="0.029841768" stroke-linecap="round" stroke-linejoin="round"/>
    <path d="M 129.8446044921875 134.4268341064453 C 117.04796600341797 96.93226623535156 110.60330200195312 99.88095092773438 131.99075317382812 137.95704650878906" stroke-width="10.188517570495605" fill="none" stroke="rgb(0, -3, 2)" stroke-opacity="0.37391475" stroke-linecap="round" stroke-linejoin="round"/>
    <path d="M 62.02473068237305 130.44776916503906 C 59.17017364501953 108.0135269165039 57.91511154174805 99.52287292480469 56.74888229370117 102.30999755859375" stroke-width="15.180713653564453" fill="none" stroke="rgb(0, 0, 0)" stroke-opacity="0.2874014" stroke-linecap="round" stroke-linejoin="round"/>
  </g>
</svg>
