<?xml version="1.0" ?>
<svg xmlns="http://www.w3.org/2000/svg" version="1.1" width="224" height="224">
  <defs/>
  <g>
    <path d="M 55.00069808959961 102.99980163574219 C 55.14432144165039 107.06639862060547 51.8075065612793 109.77079772949219 51.46969985961914 102.30670166015625" stroke-width="3.0" fill="none" stroke="rgb(2, 2, -2)" stroke-opacity="0.99000025" stroke-linecap="round" stroke-linejoin="round"/>
    <path d="M 46.00014877319336 157.99937438964844 C 46.42747497558594 151.85084533691406 43.16693878173828 158.45657348632812 44.53337097167969 159.60763549804688" stroke-width="3.0" fill="none" stroke="rgb(2, 2, 2)" stroke-opacity="0.99000007" stroke-linecap="round" stroke-linejoin="round"/>
    <path d="M 1.000045657157898 108.00086975097656 C 1.0597481727600098 105.90950012207031 -2.1524698734283447 108.1706771850586 -4.780608654022217 109.32134246826172" stroke-width="3.0" fill="none" stroke="rgb(2, 2, 2)" stroke-opacity="0.9900001" stroke-linecap="round" stroke-linejoin="round"/>
    <path d="M 48.999794006347656 69.99991607666016 C 48.40082931518555 64.40303039550781 53.93251037597656 65.88163757324219 58.268428802490234 64.37194061279297" stroke-width="3.0" fill="none" stroke="rgb(2, 2, 2)" stroke-opacity="0.99000007" stroke-linecap="round" stroke-linejoin="round"/>
    <path d="M 74.0001220703125 91.07074737548828 C 75.26713562011719 86.26250457763672 71.42147827148438 89.73885345458984 77.00985717773438 85.57330322265625" stroke-width="3.0" fill="none" stroke="rgb(2, 2, 2)" stroke-opacity="0.9900002" stroke-linecap="round" stroke-linejoin="round"/>
    <path d="M 67.00008392333984 13.000365257263184 C 63.87599563598633 13.229924201965332 65.88978576660156 17.520828247070312 65.46764373779297 14.922143936157227" stroke-width="3.0" fill="none" stroke="rgb(2, 2, 2)" stroke-opacity="0.99000007" stroke-linecap="round" stroke-linejoin="round"/>
    <path d="M 156.000732421875 23.001449584960938 C 157.69956970214844 22.704662322998047 159.92977905273438 26.470874786376953 156.71517944335938 21.74597930908203" stroke-width="3.0" fill="none" stroke="rgb(2, 2, 2)" stroke-opacity="0.99000007" stroke-linecap="round" stroke-linejoin="round"/>
    <path d="M 34.00022506713867 215.9998016357422 C 31.987890243530273 220.5865478515625 27.917943954467773 224.8363037109375 30.751758575439453 226.44078063964844" stroke-width="3.0" fill="none" stroke="rgb(2, 2, 2)" stroke-opacity="0.99000007" stroke-linecap="round" stroke-linejoin="round"/>
    <path d="M 73.99909973144531 88.99968719482422 C 72.36357116699219 89.32404327392578 77.8213119506836 86.69374084472656 83.1246109008789 86.7994613647461" stroke-width="3.0" fill="none" stroke="rgb(2, 2, -2)" stroke-opacity="0.9900001" stroke-linecap="round" stroke-linejoin="round"/>
    <path d="M 89.99983978271484 62.000648498535156 C 88.69052124023438 56.498565673828125 84.19861602783203 52.25339889526367 82.4097671508789 50.766502380371094" stroke-width="3.0" fill="none" stroke="rgb(2, 2, 2)" stroke-opacity="0.99" stroke-linecap="round" stroke-linejoin="round"/>
    <path d="M 166.00042724609375 74.99982452392578 C 164.4307098388672 75.45911407470703 166.2459259033203 72.94308471679688 165.43807983398438 75.41482543945312" stroke-width="3.0" fill="none" stroke="rgb(2, 2, 2)" stroke-opacity="0.99000007" stroke-linecap="round" stroke-linejoin="round"/>
    <path d="M 5.000135898590088 160.0008087158203 C 0.7530792355537415 159.83944702148438 2.70039701461792 160.6488494873047 4.850019931793213 160.2681121826172" stroke-width="3.0" fill="none" stroke="rgb(2, 2, 2)" stroke-opacity="0.99000007" stroke-linecap="round" stroke-linejoin="round"/>
    <path d="M 86.9998779296875 68.00131225585938 C 83.96263885498047 74.23914337158203 83.53250122070312 71.02537536621094 84.63785552978516 69.4869384765625" stroke-width="3.0" fill="none" stroke="rgb(2, 2, 2)" stroke-opacity="0.9900003" stroke-linecap="round" stroke-linejoin="round"/>
    <path d="M 84.99967956542969 78.00055694580078 C 82.93450927734375 78.43885040283203 86.20183563232422 73.63988494873047 82.34555053710938 73.14252471923828" stroke-width="3.0" fill="none" stroke="rgb(2, 2, 2)" stroke-opacity="0.99000007" stroke-linecap="round" stroke-linejoin="round"/>
    <path d="M 188.0000762939453 165.00009155273438 C 192.72438049316406 165.18441772460938 190.34176635742188 170.2650604248047 185.33738708496094 169.70697021484375" stroke-width="3.0" fill="none" stroke="rgb(2, 2, 2)" stroke-opacity="0.99000007" stroke-linecap="round" stroke-linejoin="round"/>
    <path d="M 6.999855041503906 205.99989318847656 C 6.672847270965576 203.98220825195312 8.775821685791016 208.35931396484375 12.295172691345215 207.4146270751953" stroke-width="3.0" fill="none" stroke="rgb(2, 2, 2)" stroke-opacity="0.99000007" stroke-linecap="round" stroke-linejoin="round"/>
    <path d="M 193.9997100830078 164.99981689453125 C 190.6234588623047 167.45285034179688 194.2688446044922 165.69146728515625 191.4681854248047 161.89276123046875" stroke-width="3.0" fill="none" stroke="rgb(2, 2, 2)" stroke-opacity="0.99000007" stroke-linecap="round" stroke-linejoin="round"/>
    <path d="M 53.99846649169922 130.00006103515625 C 49.69817352294922 126.94721984863281 48.76087188720703 126.26007843017578 51.429500579833984 120.8436508178711" stroke-width="3.0" fill="none" stroke="rgb(2, 2, 2)" stroke-opacity="0.99000007" stroke-linecap="round" stroke-linejoin="round"/>
    <path d="M 61.99977493286133 125.99977111816406 C 61.474334716796875 126.84504699707031 64.70069122314453 124.49175262451172 65.03218841552734 118.5329360961914" stroke-width="3.0" fill="none" stroke="rgb(2, 2, 2)" stroke-opacity="0.99000007" stroke-linecap="round" stroke-linejoin="round"/>
    <path d="M 46.00019836425781 22.001110076904297 C 42.019161224365234 22.785364151000977 40.746856689453125 21.35279655456543 40.03571319580078 18.841339111328125" stroke-width="3.0" fill="none" stroke="rgb(2, 2, 2)" stroke-opacity="0.99" stroke-linecap="round" stroke-linejoin="round"/>
    <path d="M 49.99992752075195 72.00408172607422 C 48.06816101074219 75.7337646484375 48.85544967651367 79.94026184082031 45.25773239135742 73.46308135986328" stroke-width="3.0" fill="none" stroke="rgb(-2, 2, 2)" stroke-opacity="0.99000037" stroke-linecap="round" stroke-linejoin="round"/>
    <path d="M 61.998374938964844 177.0001220703125 C 55.88727569580078 178.81698608398438 55.54568862915039 174.86875915527344 54.85556411743164 172.18765258789062" stroke-width="3.0" fill="none" stroke="rgb(2, 2, 2)" stroke-opacity="0.9900001" stroke-linecap="round" stroke-linejoin="round"/>
    <path d="M 70.00159454345703 94.9996566772461 C 74.16229248046875 93.02606201171875 79.64772033691406 94.83145141601562 83.87102508544922 92.21465301513672" stroke-width="3.0" fill="none" stroke="rgb(2, 2, 2)" stroke-opacity="0.99000007" stroke-linecap="round" stroke-linejoin="round"/>
    <path d="M 200.0000762939453 23.99989128112793 C 197.98399353027344 26.624513626098633 194.29290771484375 25.545761108398438 192.4857940673828 27.67084312438965" stroke-width="3.0" fill="none" stroke="rgb(2, 2, 2)" stroke-opacity="0.99" stroke-linecap="round" stroke-linejoin="round"/>
    <path d="M 138.00013732910156 203.00021362304688 C 138.7064666748047 202.05751037597656 136.07106018066406 197.53839111328125 135.97975158691406 197.83641052246094" stroke-width="3.0" fill="none" stroke="rgb(2, 2, 2)" stroke-opacity="0.99000007" stroke-linecap="round" stroke-linejoin="round"/>
    <path d="M 37.000064849853516 31.999881744384766 C 39.711463928222656 25.378503799438477 34.926631927490234 23.72076416015625 37.86811828613281 24.507970809936523" stroke-width="3.0" fill="none" stroke="rgb(2, 2, 2)" stroke-opacity="0.99000007" stroke-linecap="round" stroke-linejoin="round"/>
    <path d="M 107.9998779296875 156.00021362304688 C 113.52769470214844 153.84939575195312 112.56798553466797 151.81576538085938 112.8963623046875 154.27401733398438" stroke-width="3.0" fill="none" stroke="rgb(2, -2, 2)" stroke-opacity="0.99" stroke-linecap="round" stroke-linejoin="round"/>
    <path d="M 74.99991607666016 96.000244140625 C 71.1916275024414 94.2695083618164 70.31256866455078 95.02922821044922 72.65840911865234 99.12730407714844" stroke-width="3.0" fill="none" stroke="rgb(2, 2, -2)" stroke-opacity="0.9900002" stroke-linecap="round" stroke-linejoin="round"/>
    <path d="M 100.00008392333984 89.99993896484375 C 99.68718719482422 89.20597076416016 96.9887466430664 88.230224609375 95.77298736572266 85.41194152832031" stroke-width="3.0" fill="none" stroke="rgb(2, 2, -2)" stroke-opacity="0.99000007" stroke-linecap="round" stroke-linejoin="round"/>
    <path d="M 52.99473571777344 106.99747467041016 C 55.23723220825195 102.03983306884766 59.74111557006836 103.26268768310547 59.67898178100586 106.317626953125" stroke-width="3.0" fill="none" stroke="rgb(2, 2, -2)" stroke-opacity="0.9900001" stroke-linecap="round" stroke-linejoin="round"/>
    <path d="M 118.00009155273438 161.0109405517578 C 113.87845611572266 161.95065307617188 115.53800964355469 160.99046325683594 113.13835906982422 160.2278594970703" stroke-width="3.0" fill="none" stroke="rgb(2, 2, -2)" stroke-opacity="0.99000007" stroke-linecap="round" stroke-linejoin="round"/>
    <path d="M 177.99539184570312 158.99978637695312 C 180.78590393066406 162.17457580566406 182.99440002441406 159.5170135498047 178.86610412597656 159.23220825195312" stroke-width="3.0" fill="none" stroke="rgb(2, 2, 2)" stroke-opacity="0.99000007" stroke-linecap="round" stroke-linejoin="round"/>
    <path d="M 32.99989318847656 77.00035858154297 C 36.1290397644043 77.38939666748047 32.34434509277344 82.75018310546875 34.55635070800781 81.48104095458984" stroke-width="3.0" fill="none" stroke="rgb(2, 2, 2)" stroke-opacity="0.99000007" stroke-linecap="round" stroke-linejoin="round"/>
    <path d="M 61.00012969970703 153.00039672851562 C 64.65886688232422 154.84129333496094 68.79689025878906 159.06324768066406 66.41831970214844 151.7692413330078" stroke-width="3.0" fill="none" stroke="rgb(2, 2, -2)" stroke-opacity="0.9900001" stroke-linecap="round" stroke-linejoin="round"/>
    <path d="M 180.99984741210938 24.0010986328125 C 183.76077270507812 27.155685424804688 179.13864135742188 24.38042640686035 180.7922821044922 26.030338287353516" stroke-width="3.0" fill="none" stroke="rgb(2, 2, 2)" stroke-opacity="0.99000007" stroke-linecap="round" stroke-linejoin="round"/>
    <path d="M 66.9998779296875 35.9996337890625 C 69.67555236816406 39.19929885864258 65.49080657958984 38.50450897216797 63.79703140258789 38.36656951904297" stroke-width="3.0" fill="none" stroke="rgb(2, 2, 2)" stroke-opacity="0.9900001" stroke-linecap="round" stroke-linejoin="round"/>
    <path d="M 147.99990844726562 8.00007152557373 C 143.87396240234375 8.798859596252441 143.11070251464844 5.477241039276123 141.1710205078125 5.781984806060791" stroke-width="3.0" fill="none" stroke="rgb(2, 2, 2)" stroke-opacity="0.99000007" stroke-linecap="round" stroke-linejoin="round"/>
    <path d="M 219.0001220703125 200.00071716308594 C 215.94598388671875 197.0543975830078 220.93643188476562 195.56809997558594 218.97354125976562 198.22567749023438" stroke-width="3.0" fill="none" stroke="rgb(2, 2, -2)" stroke-opacity="0.99000007" stroke-linecap="round" stroke-linejoin="round"/>
    <path d="M 83.00006866455078 89.99987030029297 C 82.70963287353516 83.22975158691406 85.1240234375 79.7442398071289 84.09392547607422 85.28425598144531" stroke-width="3.0" fill="none" stroke="rgb(2, 2, -2)" stroke-opacity="0.99000007" stroke-linecap="round" stroke-linejoin="round"/>
    <path d="M 217.99993896484375 222.99984741210938 C 215.53231811523438 215.5674285888672 214.45437622070312 214.14012145996094 213.61204528808594 214.53482055664062" stroke-width="3.0" fill="none" stroke="rgb(2, 2, 2)" stroke-opacity="0.99000007" stroke-linecap="round" stroke-linejoin="round"/>
    <path d="M 30.999919891357422 206.9572296142578 C 29.4261531829834 201.5972900390625 35.35424041748047 201.63926696777344 34.564544677734375 204.16622924804688" stroke-width="3.0" fill="none" stroke="rgb(2, 2, 2)" stroke-opacity="0.99000007" stroke-linecap="round" stroke-linejoin="round"/>
    <path d="M 203.99993896484375 164.00047302246094 C 204.9267578125 166.07769775390625 203.89715576171875 168.7667236328125 204.9678192138672 165.84628295898438" stroke-width="3.0" fill="none" stroke="rgb(2, 2, 2)" stroke-opacity="0.99000007" stroke-linecap="round" stroke-linejoin="round"/>
    <path d="M 76.00007629394531 114.99994659423828 C 76.68647003173828 115.74390411376953 75.66209411621094 115.99422454833984 82.26333618164062 118.86087799072266" stroke-width="3.0" fill="none" stroke="rgb(2, 2, 2)" stroke-opacity="0.99000007" stroke-linecap="round" stroke-linejoin="round"/>
    <path d="M 109.99983978271484 216.001220703125 C 105.92059326171875 220.99765014648438 110.78187561035156 218.70346069335938 110.58479309082031 213.74705505371094" stroke-width="3.0" fill="none" stroke="rgb(2, 2, -2)" stroke-opacity="0.99000007" stroke-linecap="round" stroke-linejoin="round"/>
    <path d="M 90.99990844726562 29.00004005432129 C 91.08777618408203 26.073436737060547 92.43695068359375 26.208118438720703 94.3940200805664 25.37022590637207" stroke-width="3.0" fill="none" stroke="rgb(2, 2, 2)" stroke-opacity="0.99" stroke-linecap="round" stroke-linejoin="round"/>
    <path d="M 39.00244140625 116.99976348876953 C 38.337974548339844 116.9461898803711 42.51986312866211 116.8843002319336 45.652671813964844 113.2201919555664" stroke-width="3.0" fill="none" stroke="rgb(2, 2, 2)" stroke-opacity="0.9900002" stroke-linecap="round" stroke-linejoin="round"/>
    <path d="M 113.00008392333984 37.00008773803711 C 111.96340942382812 35.622467041015625 109.48757934570312 34.2595100402832 109.74273681640625 36.66633605957031" stroke-width="3.0" fill="none" stroke="rgb(2, 2, 2)" stroke-opacity="0.99" stroke-linecap="round" stroke-linejoin="round"/>
    <path d="M 54.00009536743164 160.00030517578125 C 58.21626281738281 155.00146484375 62.756134033203125 155.56259155273438 59.40351867675781 155.59478759765625" stroke-width="3.0" fill="none" stroke="rgb(2, 2, 2)" stroke-opacity="0.99000007" stroke-linecap="round" stroke-linejoin="round"/>
    <path d="M 211.00006103515625 103.99987030029297 C 208.6038360595703 107.25715637207031 210.83262634277344 108.35867309570312 209.1990509033203 113.13603973388672" stroke-width="3.0" fill="none" stroke="rgb(2, 2, 2)" stroke-opacity="0.99" stroke-linecap="round" stroke-linejoin="round"/>
    <path d="M 91.99687194824219 63.000301361083984 C 94.50963592529297 63.525482177734375 92.86248779296875 63.32918167114258 94.4341049194336 63.300140380859375" stroke-width="3.0" fill="none" stroke="rgb(2, 2, -2)" stroke-opacity="0.9900002" stroke-linecap="round" stroke-linejoin="round"/>
    <path d="M 145.00051879882812 129.9996795654297 C 145.4451141357422 133.7782440185547 142.04331970214844 134.5592498779297 140.23533630371094 134.84805297851562" stroke-width="3.0" fill="none" stroke="rgb(2, 2, 2)" stroke-opacity="0.99000007" stroke-linecap="round" stroke-linejoin="round"/>
    <path d="M 49.999908447265625 29.00002670288086 C 52.600833892822266 30.577943801879883 54.85237503051758 26.256858825683594 49.30144500732422 27.871585845947266" stroke-width="3.0" fill="none" stroke="rgb(2, 2, 2)" stroke-opacity="0.99" stroke-linecap="round" stroke-linejoin="round"/>
    <path d="M 219.99937438964844 153.9993438720703 C 212.7850799560547 153.43853759765625 216.46902465820312 149.00840759277344 216.07838439941406 150.53765869140625" stroke-width="3.0" fill="none" stroke="rgb(2, 2, 2)" stroke-opacity="0.99000007" stroke-linecap="round" stroke-linejoin="round"/>
    <path d="M 66.99943542480469 180.00042724609375 C 70.68848419189453 180.1558380126953 66.49392700195312 179.12220764160156 61.182979583740234 177.18511962890625" stroke-width="3.0" fill="none" stroke="rgb(2, 2, 2)" stroke-opacity="0.99000007" stroke-linecap="round" stroke-linejoin="round"/>
    <path d="M 141.9999237060547 137.00010681152344 C 136.8712615966797 139.33241271972656 133.02841186523438 141.5353546142578 134.5725860595703 146.9749298095703" stroke-width="3.0" fill="none" stroke="rgb(2, 2, 2)" stroke-opacity="0.99000007" stroke-linecap="round" stroke-linejoin="round"/>
    <path d="M 50.00223922729492 109.00126647949219 C 46.63336944580078 107.54997253417969 49.177974700927734 103.44209289550781 48.89282989501953 107.62440490722656" stroke-width="3.0" fill="none" stroke="rgb(2, 2, -2)" stroke-opacity="0.9900001" stroke-linecap="round" stroke-linejoin="round"/>
    <path d="M 159.00111389160156 175.0000762939453 C 156.0632781982422 172.20240783691406 150.50912475585938 177.37782287597656 145.42335510253906 170.43630981445312" stroke-width="3.0" fill="none" stroke="rgb(2, 2, 2)" stroke-opacity="0.99000007" stroke-linecap="round" stroke-linejoin="round"/>
    <path d="M 63.998329162597656 68.00074768066406 C 56.72403335571289 65.27595520019531 60.299434661865234 67.62687683105469 62.32438278198242 70.86166381835938" stroke-width="3.0" fill="none" stroke="rgb(2, 2, -2)" stroke-opacity="0.99000025" stroke-linecap="round" stroke-linejoin="round"/>
    <path d="M 50.000240325927734 51.0001220703125 C 48.17768859863281 49.407413482666016 49.83955383300781 51.72578048706055 51.264705657958984 49.72272872924805" stroke-width="3.0" fill="none" stroke="rgb(2, 2, 2)" stroke-opacity="0.99000007" stroke-linecap="round" stroke-linejoin="round"/>
    <path d="M 2.000868082046509 3.9996538162231445 C 1.3761875629425049 2.8392727375030518 3.5021321773529053 0.3844717741012573 6.622528076171875 4.6726179122924805" stroke-width="3.0" fill="none" stroke="rgb(2, 2, 2)" stroke-opacity="0.99000007" stroke-linecap="round" stroke-linejoin="round"/>
    <path d="M 55.00020217895508 122.00119018554688 C 49.490333557128906 125.96368408203125 49.94615936279297 125.3346939086914 50.15599822998047 120.00169372558594" stroke-width="3.0" fill="none" stroke="rgb(-2, 2, 2)" stroke-opacity="0.9900001" stroke-linecap="round" stroke-linejoin="round"/>
    <path d="M 34.00014877319336 161.00015258789062 C 34.58457946777344 162.1486053466797 39.05065155029297 163.6041717529297 40.74407196044922 161.41802978515625" stroke-width="3.0" fill="none" stroke="rgb(2, 2, 2)" stroke-opacity="0.99000007" stroke-linecap="round" stroke-linejoin="round"/>
    <path d="M 0.9991985559463501 55.000308990478516 C 2.5422604084014893 52.59705352783203 6.471712112426758 52.33835220336914 6.570395469665527 56.304866790771484" stroke-width="3.0" fill="none" stroke="rgb(2, 2, 2)" stroke-opacity="0.99000007" stroke-linecap="round" stroke-linejoin="round"/>
    <path d="M 60.0001220703125 105.000244140625 C 66.92121124267578 103.09361267089844 71.0757827758789 100.22364044189453 67.0831069946289 95.93616485595703" stroke-width="3.0" fill="none" stroke="rgb(2, 2, -2)" stroke-opacity="0.9900002" stroke-linecap="round" stroke-linejoin="round"/>
    <path d="M 174.00045776367188 30.00298500061035 C 176.00486755371094 30.480012893676758 173.7843475341797 29.306785583496094 170.9407958984375 31.80520248413086" stroke-width="3.0" fill="none" stroke="rgb(2, 2, 2)" stroke-opacity="0.99000007" stroke-linecap="round" stroke-linejoin="round"/>
    <path d="M 109.0000991821289 116.99830627441406 C 105.20056915283203 117.59123992919922 104.01351165771484 115.58069610595703 102.93730926513672 118.41963958740234" stroke-width="3.0" fill="none" stroke="rgb(2, 2, 2)" stroke-opacity="0.99000007" stroke-linecap="round" stroke-linejoin="round"/>
    <path d="M 40.99994659423828 126.0001220703125 C 38.44272232055664 121.3645248413086 41.37591552734375 117.20344543457031 40.3551025390625 112.06148529052734" stroke-width="3.0" fill="none" stroke="rgb(2, 2, 2)" stroke-opacity="0.99000007" stroke-linecap="round" stroke-linejoin="round"/>
    <path d="M 151.00009155273438 165.0001983642578 C 149.28897094726562 168.20347595214844 147.99330139160156 171.36598205566406 142.5546875 170.08444213867188" stroke-width="3.0" fill="none" stroke="rgb(2, 2, 2)" stroke-opacity="0.99000007" stroke-linecap="round" stroke-linejoin="round"/>
    <path d="M 64.0000991821289 91.9998779296875 C 66.15184783935547 93.22071838378906 63.04339599609375 90.6590576171875 66.52651977539062 89.72370147705078" stroke-width="3.0" fill="none" stroke="rgb(2, 2, 2)" stroke-opacity="0.9900003" stroke-linecap="round" stroke-linejoin="round"/>
    <path d="M 76.00008392333984 145.00048828125 C 77.48136901855469 149.7686767578125 73.67838287353516 147.12884521484375 77.91442108154297 150.47940063476562" stroke-width="3.0" fill="none" stroke="rgb(2, 2, -2)" stroke-opacity="0.99000007" stroke-linecap="round" stroke-linejoin="round"/>
    <path d="M 74.9999008178711 83.00267028808594 C 74.33390808105469 84.93981170654297 75.5855712890625 80.71106719970703 72.10440826416016 80.06269836425781" stroke-width="3.0" fill="none" stroke="rgb(2, 2, -2)" stroke-opacity="0.99000007" stroke-linecap="round" stroke-linejoin="round"/>
    <path d="M 219.00051879882812 220.99940490722656 C 220.82791137695312 223.3812713623047 217.82952880859375 226.72300720214844 221.9738311767578 222.97740173339844" stroke-width="3.0" fill="none" stroke="rgb(2, 2, 2)" stroke-opacity="0.9900001" stroke-linecap="round" stroke-linejoin="round"/>
    <path d="M 115.99994659423828 117.00006103515625 C 112.48880767822266 114.43545532226562 114.91011047363281 116.9223403930664 113.41087341308594 114.20433044433594" stroke-width="3.0" fill="none" stroke="rgb(2, 2, 2)" stroke-opacity="0.99000007" stroke-linecap="round" stroke-linejoin="round"/>
    <path d="M 187.99993896484375 213.9999542236328 C 186.510498046875 215.7831268310547 185.78636169433594 217.50852966308594 187.83737182617188 217.75186157226562" stroke-width="3.0" fill="none" stroke="rgb(2, 2, 2)" stroke-opacity="0.99000007" stroke-linecap="round" stroke-linejoin="round"/>
    <path d="M 52.999053955078125 108.9989013671875 C 48.93063735961914 112.55726623535156 49.458683013916016 113.6337890625 46.586875915527344 111.35873413085938" stroke-width="3.0" fill="none" stroke="rgb(2, 2, -2)" stroke-opacity="0.9900002" stroke-linecap="round" stroke-linejoin="round"/>
    <path d="M 104.00010681152344 221.00033569335938 C 101.57977294921875 225.0251922607422 102.44850158691406 223.05963134765625 101.2643051147461 223.535400390625" stroke-width="3.0" fill="none" stroke="rgb(2, 2, 2)" stroke-opacity="0.9900001" stroke-linecap="round" stroke-linejoin="round"/>
    <path d="M 114.00011444091797 121.0007553100586 C 112.35047912597656 122.34934997558594 115.71971893310547 122.3173599243164 111.99089050292969 125.84249877929688" stroke-width="3.0" fill="none" stroke="rgb(2, 2, 2)" stroke-opacity="0.99000007" stroke-linecap="round" stroke-linejoin="round"/>
    <path d="M 68.99967956542969 93.99966430664062 C 63.66664123535156 88.87857818603516 67.39697265625 85.67892456054688 63.79733657836914 80.45274353027344" stroke-width="3.0" fill="none" stroke="rgb(2, 2, 2)" stroke-opacity="0.99" stroke-linecap="round" stroke-linejoin="round"/>
    <path d="M 41.99903869628906 63.99917221069336 C 43.228065490722656 65.39190673828125 40.76504135131836 58.855960845947266 41.4463005065918 61.87421417236328" stroke-width="3.0" fill="none" stroke="rgb(-2, 2, -2)" stroke-opacity="1.0099977" stroke-linecap="round" stroke-linejoin="round"/>
    <path d="M 54.000144958496094 45.0001106262207 C 58.69538116455078 42.151588439941406 64.59960174560547 40.26688766479492 67.89727783203125 39.439002990722656" stroke-width="3.0" fill="none" stroke="rgb(2, 2, 2)" stroke-opacity="0.99" stroke-linecap="round" stroke-linejoin="round"/>
    <path d="M 88.0003662109375 33.999942779541016 C 85.59343719482422 38.05549240112305 88.67840576171875 42.50092697143555 90.71749114990234 45.19102478027344" stroke-width="3.0" fill="none" stroke="rgb(2, 2, 2)" stroke-opacity="0.99" stroke-linecap="round" stroke-linejoin="round"/>
    <path d="M 162.0000762939453 170.9993438720703 C 158.11776733398438 169.8845672607422 158.9764404296875 173.28671264648438 160.40219116210938 176.27560424804688" stroke-width="3.0" fill="none" stroke="rgb(2, 2, 2)" stroke-opacity="0.99000007" stroke-linecap="round" stroke-linejoin="round"/>
    <path d="M 82.00067138671875 54.999755859375 C 77.07012939453125 52.83362579345703 74.70623779296875 58.4754638671875 75.94273376464844 53.48214340209961" stroke-width="3.0" fill="none" stroke="rgb(2, 2, 2)" stroke-opacity="0.99000007" stroke-linecap="round" stroke-linejoin="round"/>
    <path d="M 132.0003662109375 136.99993896484375 C 131.07949829101562 140.30873107910156 134.97381591796875 140.63916015625 142.1971435546875 137.03993225097656" stroke-width="3.0" fill="none" stroke="rgb(2, 2, 2)" stroke-opacity="0.99000007" stroke-linecap="round" stroke-linejoin="round"/>
    <path d="M 100.0001220703125 133.99935913085938 C 96.5711669921875 132.49606323242188 99.38187408447266 136.37318420410156 99.23043060302734 137.1525115966797" stroke-width="3.0" fill="none" stroke="rgb(2, 2, 2)" stroke-opacity="0.99000007" stroke-linecap="round" stroke-linejoin="round"/>
    <path d="M 100.00007629394531 153.99954223632812 C 100.1766586303711 152.7416534423828 95.44770812988281 156.51742553710938 96.17352294921875 160.7511444091797" stroke-width="3.0" fill="none" stroke="rgb(2, -2, 2)" stroke-opacity="0.99000007" stroke-linecap="round" stroke-linejoin="round"/>
    <path d="M 171.99984741210938 171.00035095214844 C 175.61123657226562 169.32257080078125 171.65304565429688 170.83837890625 170.6064453125 170.6389617919922" stroke-width="3.0" fill="none" stroke="rgb(2, 2, -2)" stroke-opacity="0.99000007" stroke-linecap="round" stroke-linejoin="round"/>
    <path d="M 65.00452423095703 189.00047302246094 C 61.203678131103516 189.36181640625 63.17292022705078 190.03086853027344 67.68412780761719 188.88096618652344" stroke-width="3.0" fill="none" stroke="rgb(2, 2, -2)" stroke-opacity="0.9900002" stroke-linecap="round" stroke-linejoin="round"/>
    <path d="M 147.00009155273438 177.999755859375 C 149.33697509765625 172.7642059326172 143.8453369140625 177.88800048828125 143.10499572753906 172.48892211914062" stroke-width="3.0" fill="none" stroke="rgb(2, 2, -2)" stroke-opacity="0.9900002" stroke-linecap="round" stroke-linejoin="round"/>
    <path d="M 76.00045776367188 75.99893951416016 C 75.36793518066406 71.70001220703125 79.24945068359375 73.34983825683594 73.78195190429688 77.63011932373047" stroke-width="3.0" fill="none" stroke="rgb(2, 2, -2)" stroke-opacity="0.99000007" stroke-linecap="round" stroke-linejoin="round"/>
    <path d="M 37.0002555847168 40.99858856201172 C 36.14207077026367 42.28986358642578 39.650943756103516 46.99428939819336 38.248863220214844 45.98509979248047" stroke-width="3.0" fill="none" stroke="rgb(2, 2, 2)" stroke-opacity="0.99000007" stroke-linecap="round" stroke-linejoin="round"/>
    <path d="M 62.0001335144043 101.00021362304688 C 66.95650482177734 97.73318481445312 66.96137237548828 97.70503234863281 68.80767059326172 93.82856750488281" stroke-width="3.0" fill="none" stroke="rgb(2, 2, 2)" stroke-opacity="0.9900004" stroke-linecap="round" stroke-linejoin="round"/>
    <path d="M 81.00005340576172 169.00242614746094 C 82.39017486572266 167.11778259277344 78.03849792480469 164.97015380859375 74.96831512451172 167.0939483642578" stroke-width="3.0" fill="none" stroke="rgb(2, -2, -2)" stroke-opacity="0.9900001" stroke-linecap="round" stroke-linejoin="round"/>
    <path d="M 68.99928283691406 35.99968719482422 C 65.86436462402344 35.953826904296875 69.01472473144531 33.30763626098633 74.43490600585938 29.826744079589844" stroke-width="3.0" fill="none" stroke="rgb(2, 2, 2)" stroke-opacity="0.99000007" stroke-linecap="round" stroke-linejoin="round"/>
    <path d="M 64.99986267089844 96.00059509277344 C 68.49781036376953 97.06417083740234 69.15531158447266 100.25357055664062 75.18708038330078 102.11042022705078" stroke-width="3.0" fill="none" stroke="rgb(2, 2, -2)" stroke-opacity="0.9900001" stroke-linecap="round" stroke-linejoin="round"/>
    <path d="M 145.00018310546875 139.99989318847656 C 146.8508758544922 144.22023010253906 144.75608825683594 141.02223205566406 148.66860961914062 140.7220916748047" stroke-width="3.0" fill="none" stroke="rgb(2, 2, 2)" stroke-opacity="0.99000007" stroke-linecap="round" stroke-linejoin="round"/>
  </g>
</svg>
