<?xml version="1.0" ?>
<svg xmlns="http://www.w3.org/2000/svg" version="1.1" width="224" height="224">
  <defs/>
  <g>
    <path d="M 54.5395393371582 104.81858825683594 C 67.11292266845703 97.8405532836914 44.58951950073242 108.2290267944336 48.317745208740234 93.1361083984375" stroke-width="3.0" fill="none" stroke="rgb(0, 0, -1)" stroke-opacity="0.45710626" stroke-linecap="round" stroke-linejoin="round"/>
    <path d="M 44.923423767089844 163.0393524169922 C 57.733245849609375 157.7978973388672 42.0336799621582 166.92311096191406 59.95484924316406 150.85690307617188" stroke-width="3.0" fill="none" stroke="rgb(-2, 2, 0)" stroke-opacity="0.23800755" stroke-linecap="round" stroke-linejoin="round"/>
    <path d="M -9.572718620300293 103.66779327392578 C -3.1992783546447754 101.22853088378906 -3.6357295513153076 103.46484375 -7.829183578491211 104.71922302246094" stroke-width="3.0" fill="none" stroke="rgb(0, 0, 0)" stroke-opacity="0.8972018" stroke-linecap="round" stroke-linejoin="round"/>
    <path d="M 53.112247467041016 73.54536437988281 C 19.467256546020508 48.384769439697266 39.78840637207031 47.48035430908203 62.98688888549805 68.35740661621094" stroke-width="3.0" fill="none" stroke="rgb(1, 0, 0)" stroke-opacity="0.5148274" stroke-linecap="round" stroke-linejoin="round"/>
    <path d="M 75.651611328125 97.04065704345703 C 76.2892837524414 95.15172576904297 63.03373718261719 89.85804748535156 62.55442810058594 94.44742584228516" stroke-width="3.0" fill="none" stroke="rgb(0, -1, 1)" stroke-opacity="0.3750168" stroke-linecap="round" stroke-linejoin="round"/>
    <path d="M 69.8555679321289 21.488388061523438 C 67.53665924072266 17.9288330078125 79.0379867553711 16.929750442504883 73.27547454833984 17.45790672302246" stroke-width="3.0" fill="none" stroke="rgb(0, 0, 2)" stroke-opacity="0.3553702" stroke-linecap="round" stroke-linejoin="round"/>
    <path d="M 154.30734252929688 24.326549530029297 C 152.9257049560547 24.121685028076172 147.27781677246094 21.396154403686523 155.55557250976562 24.65619468688965" stroke-width="3.0" fill="none" stroke="rgb(0, 0, 1)" stroke-opacity="0.19487281" stroke-linecap="round" stroke-linejoin="round"/>
    <path d="M 29.075586318969727 233.6457061767578 C 34.14336395263672 230.72886657714844 32.83548355102539 232.83966064453125 25.946392059326172 231.18411254882812" stroke-width="3.0" fill="none" stroke="rgb(0, 0, 0)" stroke-opacity="0.8227593" stroke-linecap="round" stroke-linejoin="round"/>
    <path d="M 62.966453552246094 95.99796295166016 C 77.34559631347656 93.5618896484375 89.90847778320312 95.9483642578125 82.74235534667969 96.92391967773438" stroke-width="3.0" fill="none" stroke="rgb(2, -3, 3)" stroke-opacity="0.56691265" stroke-linecap="round" stroke-linejoin="round"/>
    <path d="M 87.3561782836914 62.306148529052734 C 91.89445495605469 61.108070373535156 89.78909301757812 60.0306510925293 88.67577362060547 62.675235748291016" stroke-width="3.0" fill="none" stroke="rgb(0, 0, 0)" stroke-opacity="0.6645524" stroke-linecap="round" stroke-linejoin="round"/>
    <path d="M 173.73391723632812 65.91964721679688 C 173.90322875976562 68.01856994628906 174.17971801757812 67.34064483642578 173.74256896972656 66.18293762207031" stroke-width="3.0" fill="none" stroke="rgb(0, 1, 0)" stroke-opacity="0.18083689" stroke-linecap="round" stroke-linejoin="round"/>
    <path d="M -8.569113731384277 151.96083068847656 C -13.057177543640137 150.61117553710938 -7.669641494750977 150.6738739013672 -7.320740222930908 157.25250244140625" stroke-width="3.0" fill="none" stroke="rgb(0, 0, 0)" stroke-opacity="0.7120011" stroke-linecap="round" stroke-linejoin="round"/>
    <path d="M 92.35401916503906 60.13379669189453 C 96.02019500732422 87.46247863769531 80.65513610839844 79.28335571289062 90.71218872070312 60.45560073852539" stroke-width="3.0" fill="none" stroke="rgb(0, -2, 2)" stroke-opacity="0.7121487" stroke-linecap="round" stroke-linejoin="round"/>
    <path d="M 85.34880065917969 79.34263610839844 C 79.02791595458984 77.64508819580078 94.9175033569336 48.44102096557617 88.6308822631836 74.73390197753906" stroke-width="3.0" fill="none" stroke="rgb(0, -3, 3)" stroke-opacity="0.6410284" stroke-linecap="round" stroke-linejoin="round"/>
    <path d="M 196.94203186035156 176.30809020996094 C 188.2942657470703 172.719970703125 190.9023895263672 172.61886596679688 192.21498107910156 171.45338439941406" stroke-width="3.0" fill="none" stroke="rgb(0, 0, 1)" stroke-opacity="0.35266763" stroke-linecap="round" stroke-linejoin="round"/>
    <path d="M -7.364192962646484 211.77996826171875 C -8.52559757232666 213.6248779296875 -8.686071395874023 207.76124572753906 -7.272796630859375 208.56378173828125" stroke-width="3.0" fill="none" stroke="rgb(0, 0, 0)" stroke-opacity="0.53613925" stroke-linecap="round" stroke-linejoin="round"/>
    <path d="M 182.83595275878906 173.93148803710938 C 202.98916625976562 174.18772888183594 192.76661682128906 178.7407989501953 185.87246704101562 175.70079040527344" stroke-width="3.0" fill="none" stroke="rgb(0, 0, 1)" stroke-opacity="0.28106198" stroke-linecap="round" stroke-linejoin="round"/>
    <path d="M 60.68143081665039 120.2784423828125 C 46.38225555419922 130.208251953125 42.47150421142578 126.38929748535156 43.55499267578125 123.66596984863281" stroke-width="3.0" fill="none" stroke="rgb(-2, 0, 1)" stroke-opacity="0.32202777" stroke-linecap="round" stroke-linejoin="round"/>
    <path d="M 68.08040618896484 138.481201171875 C 69.60653686523438 130.8956756591797 64.99178314208984 127.26337432861328 63.68711853027344 119.88900756835938" stroke-width="3.0" fill="none" stroke="rgb(-2, 0, 2)" stroke-opacity="0.25377128" stroke-linecap="round" stroke-linejoin="round"/>
    <path d="M 35.11353302001953 19.428316116333008 C 34.94498825073242 17.62796974182129 35.048824310302734 25.363183975219727 33.53583526611328 17.96875" stroke-width="3.0" fill="none" stroke="rgb(0, 1, 1)" stroke-opacity="0.33631542" stroke-linecap="round" stroke-linejoin="round"/>
    <path d="M 45.896053314208984 74.06050872802734 C 53.38926315307617 77.55239868164062 51.1107292175293 86.5942153930664 37.511024475097656 60.836265563964844" stroke-width="3.0" fill="none" stroke="rgb(0, 0, 1)" stroke-opacity="0.57394075" stroke-linecap="round" stroke-linejoin="round"/>
    <path d="M 66.22429656982422 165.50863647460938 C 40.92048263549805 168.007568359375 34.7052001953125 186.50985717773438 43.81720733642578 173.1381378173828" stroke-width="3.0" fill="none" stroke="rgb(0, -2, 3)" stroke-opacity="0.6764918" stroke-linecap="round" stroke-linejoin="round"/>
    <path d="M 58.41299057006836 100.39825439453125 C 68.57234954833984 97.29322052001953 78.98070526123047 93.4693832397461 104.46977233886719 100.39368438720703" stroke-width="3.0" fill="none" stroke="rgb(0, 0, 0)" stroke-opacity="0.1608182" stroke-linecap="round" stroke-linejoin="round"/>
    <path d="M 192.05007934570312 26.127216339111328 C 191.43228149414062 25.193464279174805 191.9716033935547 26.02824592590332 191.94708251953125 25.938182830810547" stroke-width="3.0" fill="none" stroke="rgb(0, 1, 0)" stroke-opacity="0.29968345" stroke-linecap="round" stroke-linejoin="round"/>
    <path d="M 144.90957641601562 198.5244140625 C 146.4319305419922 197.5845489501953 149.3672637939453 196.3852996826172 144.68409729003906 198.7240753173828" stroke-width="3.0" fill="none" stroke="rgb(0, 0, 0)" stroke-opacity="0.12013563" stroke-linecap="round" stroke-linejoin="round"/>
    <path d="M 34.67534255981445 23.547216415405273 C 34.916072845458984 29.446727752685547 33.32097625732422 20.058835983276367 35.2564811706543 24.03802490234375" stroke-width="3.0" fill="none" stroke="rgb(-1, 0, 1)" stroke-opacity="0.3202057" stroke-linecap="round" stroke-linejoin="round"/>
    <path d="M 120.78536224365234 164.92112731933594 C 128.53627014160156 173.7867431640625 118.54228210449219 147.47671508789062 119.20528411865234 172.05075073242188" stroke-width="3.0" fill="none" stroke="rgb(0, 0, 2)" stroke-opacity="0.4687832" stroke-linecap="round" stroke-linejoin="round"/>
    <path d="M 81.16236114501953 95.9261474609375 C 60.75957489013672 100.85668182373047 61.48765563964844 105.16243743896484 75.82359313964844 98.85543823242188" stroke-width="3.0" fill="none" stroke="rgb(-1, 0, 1)" stroke-opacity="0.7992581" stroke-linecap="round" stroke-linejoin="round"/>
    <path d="M 86.6933822631836 83.65165710449219 C 112.39909362792969 99.09123229980469 97.06470489501953 105.33723449707031 98.31239318847656 85.19041442871094" stroke-width="3.0" fill="none" stroke="rgb(2, 1, -3)" stroke-opacity="0.26190066" stroke-linecap="round" stroke-linejoin="round"/>
    <path d="M 51.087135314941406 116.29682922363281 C 55.23970413208008 104.7636947631836 62.03190994262695 99.30408477783203 74.00090026855469 97.80462646484375" stroke-width="3.0" fill="none" stroke="rgb(2, -2, 0)" stroke-opacity="0.6070825" stroke-linecap="round" stroke-linejoin="round"/>
    <path d="M 121.198486328125 172.9550018310547 C 120.6117935180664 161.20213317871094 123.10569763183594 171.8144989013672 120.85999298095703 160.59719848632812" stroke-width="3.0" fill="none" stroke="rgb(0, 0, 3)" stroke-opacity="0.47067273" stroke-linecap="round" stroke-linejoin="round"/>
    <path d="M 181.88308715820312 166.03240966796875 C 175.5657958984375 160.5404815673828 178.67886352539062 158.93814086914062 154.087890625 139.32225036621094" stroke-width="3.0" fill="none" stroke="rgb(0, 2, -2)" stroke-opacity="0.15732189" stroke-linecap="round" stroke-linejoin="round"/>
    <path d="M 33.8994026184082 64.05401611328125 C 35.2152214050293 74.95808410644531 41.13092803955078 82.54564666748047 38.44718933105469 99.56520080566406" stroke-width="3.0" fill="none" stroke="rgb(-2, 0, 2)" stroke-opacity="0.24011593" stroke-linecap="round" stroke-linejoin="round"/>
    <path d="M 70.05670166015625 144.70315551757812 C 67.69452667236328 164.14271545410156 54.927391052246094 167.8504638671875 69.28250885009766 143.21640014648438" stroke-width="3.0" fill="none" stroke="rgb(3, -3, 2)" stroke-opacity="0.45872372" stroke-linecap="round" stroke-linejoin="round"/>
    <path d="M 182.93734741210938 28.97118377685547 C 182.8026580810547 28.664459228515625 182.7579803466797 29.367401123046875 182.9685516357422 28.454490661621094" stroke-width="3.0" fill="none" stroke="rgb(0, 0, 0)" stroke-opacity="0.3320178" stroke-linecap="round" stroke-linejoin="round"/>
    <path d="M 64.75819396972656 42.75731658935547 C 67.41096496582031 29.31279945373535 70.99405670166016 29.470685958862305 64.93408966064453 37.4522590637207" stroke-width="3.0" fill="none" stroke="rgb(0, 0, 0)" stroke-opacity="0.19585848" stroke-linecap="round" stroke-linejoin="round"/>
    <path d="M 148.86280822753906 9.814363479614258 C 137.29173278808594 3.5192532539367676 131.09332275390625 10.702743530273438 144.2823028564453 10.185892105102539" stroke-width="3.0" fill="none" stroke="rgb(2, 0, 0)" stroke-opacity="0.2737031" stroke-linecap="round" stroke-linejoin="round"/>
    <path d="M 209.31556701660156 197.51673889160156 C 220.40016174316406 201.7731170654297 233.23959350585938 198.13270568847656 216.95391845703125 197.70433044433594" stroke-width="3.0" fill="none" stroke="rgb(1, 0, -2)" stroke-opacity="0.15278068" stroke-linecap="round" stroke-linejoin="round"/>
    <path d="M 83.63482666015625 92.88525390625 C 72.11790466308594 90.24939727783203 69.03453826904297 85.72015380859375 86.49760437011719 93.82135009765625" stroke-width="3.0" fill="none" stroke="rgb(1, -1, 1)" stroke-opacity="0.1417228" stroke-linecap="round" stroke-linejoin="round"/>
    <path d="M 225.52993774414062 234.89398193359375 C 229.53358459472656 212.5121307373047 231.20941162109375 204.38018798828125 231.09500122070312 231.66281127929688" stroke-width="3.0" fill="none" stroke="rgb(0, 0, 0)" stroke-opacity="0.5299802" stroke-linecap="round" stroke-linejoin="round"/>
    <path d="M 32.758827209472656 211.6280517578125 C 30.924392700195312 209.78125 31.926652908325195 208.618896484375 31.200475692749023 210.3297576904297" stroke-width="3.0" fill="none" stroke="rgb(0, 1, 0)" stroke-opacity="0.17140716" stroke-linecap="round" stroke-linejoin="round"/>
    <path d="M 203.48947143554688 198.45643615722656 C 204.9692840576172 199.35177612304688 203.64157104492188 199.021728515625 204.0701141357422 198.5933380126953" stroke-width="3.0" fill="none" stroke="rgb(0, 1, 0)" stroke-opacity="0.27102974" stroke-linecap="round" stroke-linejoin="round"/>
    <path d="M 83.19149017333984 115.7917709350586 C 76.35797119140625 112.00958251953125 70.13871765136719 116.65465545654297 79.06307220458984 114.9557113647461" stroke-width="3.0" fill="none" stroke="rgb(0, 0, 2)" stroke-opacity="0.18474412" stroke-linecap="round" stroke-linejoin="round"/>
    <path d="M 108.13484191894531 204.392333984375 C 107.90513610839844 229.97438049316406 108.09429931640625 219.40931701660156 110.2062759399414 216.83810424804688" stroke-width="3.0" fill="none" stroke="rgb(0, 1, 0)" stroke-opacity="0.23678663" stroke-linecap="round" stroke-linejoin="round"/>
    <path d="M 88.972412109375 25.546131134033203 C 89.42959594726562 26.38916015625 88.83702087402344 25.915090560913086 88.83820343017578 25.1293888092041" stroke-width="3.0" fill="none" stroke="rgb(0, 0, 0)" stroke-opacity="0.32108808" stroke-linecap="round" stroke-linejoin="round"/>
    <path d="M 41.61370849609375 108.38816833496094 C 46.3959846496582 122.76665496826172 33.39103698730469 122.06379699707031 44.86800765991211 122.5899658203125" stroke-width="3.0" fill="none" stroke="rgb(0, 1, -1)" stroke-opacity="0.55402225" stroke-linecap="round" stroke-linejoin="round"/>
    <path d="M 110.32637023925781 39.89023971557617 C 110.15036010742188 39.82301712036133 109.30470275878906 39.435218811035156 111.6702651977539 40.399715423583984" stroke-width="3.0" fill="none" stroke="rgb(0, 0, 0)" stroke-opacity="0.1902008" stroke-linecap="round" stroke-linejoin="round"/>
    <path d="M 54.219215393066406 166.8094940185547 C 70.09868621826172 153.29782104492188 70.5482177734375 142.5128631591797 68.77964782714844 163.66696166992188" stroke-width="3.0" fill="none" stroke="rgb(1, -2, 1)" stroke-opacity="0.32356253" stroke-linecap="round" stroke-linejoin="round"/>
    <path d="M 208.10720825195312 103.48604583740234 C 207.7820281982422 101.96452331542969 210.7984619140625 103.53385925292969 210.77967834472656 104.17904663085938" stroke-width="3.0" fill="none" stroke="rgb(0, 0, 0)" stroke-opacity="0.19448967" stroke-linecap="round" stroke-linejoin="round"/>
    <path d="M 87.44193267822266 58.045867919921875 C 93.67607116699219 43.71922302246094 105.3258056640625 58.516544342041016 96.7072525024414 86.31495666503906" stroke-width="3.0" fill="none" stroke="rgb(-3, 2, 0)" stroke-opacity="0.21368165" stroke-linecap="round" stroke-linejoin="round"/>
    <path d="M 147.2973175048828 138.94564819335938 C 154.88153076171875 124.28922271728516 149.79808044433594 129.25653076171875 144.104248046875 139.35694885253906" stroke-width="3.0" fill="none" stroke="rgb(-1, 0, 3)" stroke-opacity="0.21108057" stroke-linecap="round" stroke-linejoin="round"/>
    <path d="M 54.9326171875 34.01039123535156 C 54.690887451171875 33.51659393310547 53.5703125 33.5925407409668 54.658782958984375 34.32305908203125" stroke-width="3.0" fill="none" stroke="rgb(0, 1, 0)" stroke-opacity="0.16790932" stroke-linecap="round" stroke-linejoin="round"/>
    <path d="M 226.91822814941406 155.6435546875 C 188.53311157226562 159.5193634033203 193.41152954101562 149.3746337890625 212.2933807373047 157.0317840576172" stroke-width="3.0" fill="none" stroke="rgb(0, 0, 0)" stroke-opacity="0.20584214" stroke-linecap="round" stroke-linejoin="round"/>
    <path d="M 42.31143569946289 184.1586456298828 C 109.3626480102539 155.7393798828125 95.33477020263672 167.2314453125 43.66533279418945 185.65167236328125" stroke-width="3.0" fill="none" stroke="rgb(-2, 2, -2)" stroke-opacity="0.46688712" stroke-linecap="round" stroke-linejoin="round"/>
    <path d="M 146.23919677734375 144.53482055664062 C 142.63099670410156 154.20094299316406 148.845703125 153.5178680419922 145.47373962402344 143.53610229492188" stroke-width="3.0" fill="none" stroke="rgb(1, -1, 0)" stroke-opacity="0.4787605" stroke-linecap="round" stroke-linejoin="round"/>
    <path d="M 61.85795211791992 102.5160903930664 C 50.662532806396484 118.5609359741211 58.34333038330078 108.32636260986328 58.36271667480469 107.52997589111328" stroke-width="3.0" fill="none" stroke="rgb(2, -3, -2)" stroke-opacity="0.43453732" stroke-linecap="round" stroke-linejoin="round"/>
    <path d="M 174.590576171875 177.94052124023438 C 147.6425323486328 177.38079833984375 148.7754364013672 179.02883911132812 148.60638427734375 172.2778778076172" stroke-width="3.0" fill="none" stroke="rgb(0, -2, 2)" stroke-opacity="0.60327834" stroke-linecap="round" stroke-linejoin="round"/>
    <path d="M 74.98448181152344 67.43096923828125 C 47.267555236816406 74.86141967773438 70.90425109863281 64.88973236083984 57.69388198852539 74.02888488769531" stroke-width="3.0" fill="none" stroke="rgb(0, -1, 1)" stroke-opacity="0.19555596" stroke-linecap="round" stroke-linejoin="round"/>
    <path d="M 45.83852005004883 57.06985092163086 C 42.93585205078125 56.77561569213867 48.87234115600586 56.737728118896484 46.13584899902344 58.07040786743164" stroke-width="3.0" fill="none" stroke="rgb(0, 0, 0)" stroke-opacity="0.22759765" stroke-linecap="round" stroke-linejoin="round"/>
    <path d="M -6.434877395629883 3.9688892364501953 C 2.513495445251465 -15.316307067871094 1.261231541633606 -17.237712860107422 1.5672539472579956 32.91481018066406" stroke-width="3.0" fill="none" stroke="rgb(-2, 1, 3)" stroke-opacity="0.3160754" stroke-linecap="round" stroke-linejoin="round"/>
    <path d="M 41.99586486816406 120.41912078857422 C 52.0589599609375 112.27045440673828 44.75661087036133 123.81633758544922 41.477561950683594 121.77303314208984" stroke-width="3.0" fill="none" stroke="rgb(0, 2, -3)" stroke-opacity="0.6187656" stroke-linecap="round" stroke-linejoin="round"/>
    <path d="M 42.99940490722656 165.10679626464844 C 32.83634567260742 171.1632843017578 40.157318115234375 168.4084930419922 49.181983947753906 164.1268768310547" stroke-width="3.0" fill="none" stroke="rgb(0, 1, 1)" stroke-opacity="0.2574958" stroke-linecap="round" stroke-linejoin="round"/>
    <path d="M 4.072666168212891 60.522254943847656 C 3.7256369590759277 53.82465744018555 3.5290870666503906 46.92048263549805 0.725053608417511 25.26102066040039" stroke-width="3.0" fill="none" stroke="rgb(-1, 2, 3)" stroke-opacity="0.19965659" stroke-linecap="round" stroke-linejoin="round"/>
    <path d="M 57.93533706665039 108.91728973388672 C 66.82681274414062 102.34752655029297 73.58963775634766 90.5683364868164 70.4597396850586 95.99860382080078" stroke-width="3.0" fill="none" stroke="rgb(2, -1, 1)" stroke-opacity="0.604979" stroke-linecap="round" stroke-linejoin="round"/>
    <path d="M 170.4373779296875 24.008024215698242 C 169.38461303710938 23.934646606445312 172.60336303710938 23.79535675048828 170.9191436767578 23.79961585998535" stroke-width="3.0" fill="none" stroke="rgb(0, 0, 0)" stroke-opacity="0.2701398" stroke-linecap="round" stroke-linejoin="round"/>
    <path d="M 99.27176666259766 114.0909423828125 C 80.20648193359375 114.3350601196289 98.42428588867188 129.5490264892578 99.90424346923828 109.40349578857422" stroke-width="3.0" fill="none" stroke="rgb(-1, 0, 2)" stroke-opacity="0.25588006" stroke-linecap="round" stroke-linejoin="round"/>
    <path d="M 43.80258560180664 122.4453353881836 C 34.93925094604492 120.90377807617188 41.04997253417969 121.59147644042969 39.045536041259766 102.65731048583984" stroke-width="3.0" fill="none" stroke="rgb(-1, 0, 2)" stroke-opacity="0.4458884" stroke-linecap="round" stroke-linejoin="round"/>
    <path d="M 151.5122833251953 167.8568878173828 C 146.03839111328125 172.32017517089844 156.62803649902344 178.00404357910156 156.3109588623047 173.8840789794922" stroke-width="3.0" fill="none" stroke="rgb(0, -2, 1)" stroke-opacity="0.30008182" stroke-linecap="round" stroke-linejoin="round"/>
    <path d="M 55.8629264831543 98.31591796875 C 68.00457000732422 79.10400390625 83.47860717773438 80.17069244384766 58.36762619018555 94.28340148925781" stroke-width="3.0" fill="none" stroke="rgb(1, -1, 0)" stroke-opacity="0.08239415" stroke-linecap="round" stroke-linejoin="round"/>
    <path d="M 72.35279846191406 140.76675415039062 C 77.93085479736328 145.35418701171875 74.48047637939453 145.7425994873047 90.77809143066406 156.04200744628906" stroke-width="3.0" fill="none" stroke="rgb(0, 0, -1)" stroke-opacity="0.37507713" stroke-linecap="round" stroke-linejoin="round"/>
    <path d="M 85.15605163574219 77.28422546386719 C 82.44084930419922 77.13909149169922 84.72016906738281 77.95665740966797 82.21577453613281 76.74488830566406" stroke-width="3.0" fill="none" stroke="rgb(0, 0, 0)" stroke-opacity="0.46516618" stroke-linecap="round" stroke-linejoin="round"/>
    <path d="M 217.7273406982422 231.20498657226562 C 221.08041381835938 231.81182861328125 219.50616455078125 222.78067016601562 231.55636596679688 228.16192626953125" stroke-width="3.0" fill="none" stroke="rgb(0, 0, 0)" stroke-opacity="0.7038738" stroke-linecap="round" stroke-linejoin="round"/>
    <path d="M 112.70459747314453 113.32359313964844 C 116.69884490966797 114.21698760986328 114.61871337890625 113.36492156982422 107.99042510986328 107.91864776611328" stroke-width="3.0" fill="none" stroke="rgb(0, 0, 0)" stroke-opacity="0.19768088" stroke-linecap="round" stroke-linejoin="round"/>
    <path d="M 195.0970916748047 212.51280212402344 C 194.7902374267578 213.31837463378906 194.91433715820312 210.76222229003906 194.96255493164062 211.91488647460938" stroke-width="3.0" fill="none" stroke="rgb(1, 0, -1)" stroke-opacity="0.12582561" stroke-linecap="round" stroke-linejoin="round"/>
    <path d="M 56.172996520996094 110.9656982421875 C 47.32206344604492 120.38912963867188 47.52701950073242 117.24076843261719 53.85765075683594 99.09064483642578" stroke-width="3.0" fill="none" stroke="rgb(1, -1, -1)" stroke-opacity="0.2796969" stroke-linecap="round" stroke-linejoin="round"/>
    <path d="M 103.08646392822266 232.1576385498047 C 106.63855743408203 226.13720703125 114.64680480957031 218.9839324951172 105.03301239013672 230.87307739257812" stroke-width="3.0" fill="none" stroke="rgb(1, 1, 0)" stroke-opacity="0.678951" stroke-linecap="round" stroke-linejoin="round"/>
    <path d="M 114.82469177246094 123.06768035888672 C 114.31175231933594 136.232177734375 112.58952331542969 142.0227508544922 116.14832305908203 128.64559936523438" stroke-width="3.0" fill="none" stroke="rgb(-1, 0, 2)" stroke-opacity="0.09658429" stroke-linecap="round" stroke-linejoin="round"/>
    <path d="M 57.76789855957031 100.7215347290039 C 73.47266387939453 92.87110900878906 75.63612365722656 90.8858871459961 77.76101684570312 96.53923797607422" stroke-width="3.0" fill="none" stroke="rgb(1, -2, 1)" stroke-opacity="0.56654376" stroke-linecap="round" stroke-linejoin="round"/>
    <path d="M 51.79356002807617 75.65925598144531 C 48.67739486694336 70.98109436035156 40.814056396484375 59.619049072265625 47.63247299194336 71.74893188476562" stroke-width="3.0" fill="none" stroke="rgb(-2, -1, 3)" stroke-opacity="0.9431824" stroke-linecap="round" stroke-linejoin="round"/>
    <path d="M 66.15414428710938 45.478126525878906 C 62.14767074584961 46.16926956176758 64.96810913085938 48.662105560302734 68.20805358886719 34.75436782836914" stroke-width="3.0" fill="none" stroke="rgb(1, 0, 0)" stroke-opacity="0.41693762" stroke-linecap="round" stroke-linejoin="round"/>
    <path d="M 86.76535034179688 42.165557861328125 C 87.1850357055664 41.8546028137207 86.6060791015625 42.43206024169922 87.65248107910156 42.166378021240234" stroke-width="3.0" fill="none" stroke="rgb(0, 0, 0)" stroke-opacity="0.2794628" stroke-linecap="round" stroke-linejoin="round"/>
    <path d="M 148.55567932128906 172.05494689941406 C 182.62384033203125 171.05059814453125 195.2465362548828 174.8393096923828 150.96888732910156 175.3899383544922" stroke-width="3.0" fill="none" stroke="rgb(1, -1, -2)" stroke-opacity="0.30169693" stroke-linecap="round" stroke-linejoin="round"/>
    <path d="M 90.84056091308594 61.13606643676758 C 90.96272277832031 59.23738479614258 84.02405548095703 69.22151947021484 87.9192123413086 61.953914642333984" stroke-width="3.0" fill="none" stroke="rgb(0, 0, 0)" stroke-opacity="0.5307154" stroke-linecap="round" stroke-linejoin="round"/>
    <path d="M 146.2564697265625 144.93795776367188 C 145.0534210205078 148.13034057617188 141.7211151123047 147.86013793945312 144.2695770263672 142.84954833984375" stroke-width="3.0" fill="none" stroke="rgb(0, 0, 0)" stroke-opacity="0.18061039" stroke-linecap="round" stroke-linejoin="round"/>
    <path d="M 97.59453582763672 152.79261779785156 C 94.79190826416016 136.79251098632812 86.94522094726562 134.6723175048828 93.64396667480469 118.9616928100586" stroke-width="3.0" fill="none" stroke="rgb(1, -3, 4)" stroke-opacity="0.34307766" stroke-linecap="round" stroke-linejoin="round"/>
    <path d="M 97.7019271850586 148.8006134033203 C 105.69017028808594 168.932373046875 103.21817779541016 157.8544158935547 83.01207733154297 164.31178283691406" stroke-width="3.0" fill="none" stroke="rgb(1, -1, 0)" stroke-opacity="0.20016548" stroke-linecap="round" stroke-linejoin="round"/>
    <path d="M 176.92977905273438 176.19793701171875 C 174.65577697753906 175.43264770507812 135.92149353027344 180.3042449951172 195.54884338378906 177.2180633544922" stroke-width="3.0" fill="none" stroke="rgb(1, -1, -2)" stroke-opacity="0.37411308" stroke-linecap="round" stroke-linejoin="round"/>
    <path d="M 62.88270568847656 192.59213256835938 C 47.71561813354492 189.84722900390625 43.43488311767578 190.9456024169922 72.97867584228516 191.18698120117188" stroke-width="3.0" fill="none" stroke="rgb(0, -1, 2)" stroke-opacity="0.17839041" stroke-linecap="round" stroke-linejoin="round"/>
    <path d="M 147.9087677001953 176.95822143554688 C 170.49488830566406 165.8692169189453 150.93655395507812 164.04672241210938 153.09619140625 175.12664794921875" stroke-width="3.0" fill="none" stroke="rgb(2, -3, 2)" stroke-opacity="0.4427317" stroke-linecap="round" stroke-linejoin="round"/>
    <path d="M 76.4879150390625 74.2844467163086 C 65.55470275878906 76.79450988769531 75.26058197021484 73.94682312011719 77.20266723632812 74.4656753540039" stroke-width="3.0" fill="none" stroke="rgb(3, 0, -1)" stroke-opacity="0.38896346" stroke-linecap="round" stroke-linejoin="round"/>
    <path d="M 36.39860153198242 43.7996940612793 C 36.175228118896484 30.676816940307617 38.08210372924805 55.0158576965332 33.504703521728516 29.99508285522461" stroke-width="3.0" fill="none" stroke="rgb(-1, 0, 1)" stroke-opacity="0.04411802" stroke-linecap="round" stroke-linejoin="round"/>
    <path d="M 56.30367660522461 102.91364288330078 C 68.51266479492188 96.65345001220703 64.07081604003906 90.66886138916016 72.84835815429688 91.113525390625" stroke-width="3.0" fill="none" stroke="rgb(1, -2, 1)" stroke-opacity="0.38900757" stroke-linecap="round" stroke-linejoin="round"/>
    <path d="M 64.64810180664062 173.7103729248047 C 84.8032455444336 164.50302124023438 75.63796997070312 155.08506774902344 81.01980590820312 166.4519500732422" stroke-width="3.0" fill="none" stroke="rgb(0, -2, 3)" stroke-opacity="0.46785873" stroke-linecap="round" stroke-linejoin="round"/>
    <path d="M 68.3851318359375 21.492061614990234 C 72.36119842529297 45.76652145385742 64.44811248779297 35.35680389404297 67.86561584472656 33.08268356323242" stroke-width="3.0" fill="none" stroke="rgb(0, 0, 1)" stroke-opacity="0.18721803" stroke-linecap="round" stroke-linejoin="round"/>
    <path d="M 56.88361358642578 101.08155822753906 C 67.33592987060547 90.79119873046875 57.26478958129883 96.73677062988281 74.79474639892578 95.28690338134766" stroke-width="3.0" fill="none" stroke="rgb(2, -2, 2)" stroke-opacity="0.65041417" stroke-linecap="round" stroke-linejoin="round"/>
    <path d="M 130.46917724609375 160.92820739746094 C 161.720703125 151.20773315429688 151.0746612548828 167.8495635986328 145.12930297851562 149.0255584716797" stroke-width="3.0" fill="none" stroke="rgb(2, -2, 0)" stroke-opacity="0.39047116" stroke-linecap="round" stroke-linejoin="round"/>
  </g>
</svg>
