<?xml version="1.0" ?>
<svg xmlns="http://www.w3.org/2000/svg" version="1.1" width="224" height="224">
  <defs/>
  <g>
    <path d="M 44.60911178588867 120.07344818115234 C 81.65827178955078 75.29434204101562 48.368038177490234 116.1697006225586 45.75320053100586 89.88493347167969" stroke-width="3.0" fill="none" stroke="rgb(2, -1, -1)" stroke-opacity="0.19645134" stroke-linecap="round" stroke-linejoin="round"/>
    <path d="M 39.00598907470703 184.25640869140625 C 39.59699249267578 164.56857299804688 31.807186126708984 186.3626708984375 68.02259826660156 136.1446990966797" stroke-width="3.0" fill="none" stroke="rgb(-2, 3, 2)" stroke-opacity="0.3146354" stroke-linecap="round" stroke-linejoin="round"/>
    <path d="M -9.573305130004883 103.6675033569336 C -3.1994426250457764 101.22827911376953 -3.6357359886169434 103.46461486816406 -7.829300403594971 104.7190170288086" stroke-width="3.0" fill="none" stroke="rgb(0, 0, 0)" stroke-opacity="0.897197" stroke-linecap="round" stroke-linejoin="round"/>
    <path d="M 49.24809646606445 77.7685317993164 C 29.063961029052734 44.55573272705078 35.482086181640625 49.95703125 66.02562713623047 69.25121307373047" stroke-width="3.0" fill="none" stroke="rgb(0, 0, 0)" stroke-opacity="0.44706455" stroke-linecap="round" stroke-linejoin="round"/>
    <path d="M 61.90764617919922 98.19664001464844 C 108.67300415039062 89.63790893554688 54.87135696411133 79.66618347167969 54.040706634521484 106.86087036132812" stroke-width="3.0" fill="none" stroke="rgb(2, -2, 1)" stroke-opacity="0.16068955" stroke-linecap="round" stroke-linejoin="round"/>
    <path d="M 68.79718017578125 40.736270904541016 C 67.48432922363281 6.79481315612793 83.04553985595703 18.588390350341797 70.61921691894531 21.863981246948242" stroke-width="3.0" fill="none" stroke="rgb(-1, -2, 3)" stroke-opacity="0.16038443" stroke-linecap="round" stroke-linejoin="round"/>
    <path d="M 157.09237670898438 23.30877113342285 C 72.4520034790039 27.17562484741211 -12.295682907104492 31.271732330322266 197.1048583984375 27.91710090637207" stroke-width="3.0" fill="none" stroke="rgb(3, -3, 1)" stroke-opacity="0.04142617" stroke-linecap="round" stroke-linejoin="round"/>
    <path d="M 29.07520294189453 233.64706420898438 C 34.143218994140625 230.7293243408203 32.835567474365234 232.84002685546875 25.94610023498535 231.1842803955078" stroke-width="3.0" fill="none" stroke="rgb(0, 0, 0)" stroke-opacity="0.8227475" stroke-linecap="round" stroke-linejoin="round"/>
    <path d="M 61.76553726196289 90.99796295166016 C 59.30094909667969 84.58211517333984 112.95359802246094 86.00050354003906 59.59785079956055 97.39369201660156" stroke-width="3.0" fill="none" stroke="rgb(1, -1, 1)" stroke-opacity="0.1096936" stroke-linecap="round" stroke-linejoin="round"/>
    <path d="M 91.98587036132812 62.218963623046875 C 87.86591339111328 78.68462371826172 64.01924896240234 90.1103744506836 84.49964904785156 98.01985168457031" stroke-width="3.0" fill="none" stroke="rgb(0, -1, 0)" stroke-opacity="0.033774007" stroke-linecap="round" stroke-linejoin="round"/>
    <path d="M 170.02964782714844 53.40473937988281 C 158.1094512939453 72.02898406982422 204.26133728027344 60.84133529663086 178.47824096679688 59.43647766113281" stroke-width="3.0" fill="none" stroke="rgb(0, 0, 0)" stroke-opacity="0.012896325" stroke-linecap="round" stroke-linejoin="round"/>
    <path d="M -8.57203197479248 151.95947265625 C -13.060994148254395 150.61029052734375 -7.673266887664795 150.6728515625 -7.322506904602051 157.25180053710938" stroke-width="3.0" fill="none" stroke="rgb(0, 0, 0)" stroke-opacity="0.71196675" stroke-linecap="round" stroke-linejoin="round"/>
    <path d="M 88.22176361083984 63.92635726928711 C 93.40190124511719 69.12014770507812 64.1745376586914 93.2280044555664 90.0329360961914 61.1502799987793" stroke-width="3.0" fill="none" stroke="rgb(-1, 0, 1)" stroke-opacity="0.37848336" stroke-linecap="round" stroke-linejoin="round"/>
    <path d="M 89.96276092529297 77.85013580322266 C 70.97136688232422 77.88362884521484 109.9288101196289 43.639957427978516 80.64224243164062 64.54289245605469" stroke-width="3.0" fill="none" stroke="rgb(0, 0, 0)" stroke-opacity="-0.0020704616" stroke-linecap="round" stroke-linejoin="round"/>
    <path d="M 251.5507354736328 174.231689453125 C 155.36900329589844 181.5846405029297 190.25213623046875 183.31983947753906 197.50103759765625 165.3007049560547" stroke-width="3.0" fill="none" stroke="rgb(-2, 2, 3)" stroke-opacity="0.09930983" stroke-linecap="round" stroke-linejoin="round"/>
    <path d="M -7.400793075561523 211.78622436523438 C -8.56799602508545 213.63275146484375 -8.727250099182129 207.76901245117188 -7.299576759338379 208.569580078125" stroke-width="3.0" fill="none" stroke="rgb(0, 0, 0)" stroke-opacity="0.5357882" stroke-linecap="round" stroke-linejoin="round"/>
    <path d="M 186.5645751953125 180.5004425048828 C 219.12973022460938 157.29962158203125 202.5941162109375 192.82879638671875 148.33692932128906 175.94430541992188" stroke-width="3.0" fill="none" stroke="rgb(0, 0, -1)" stroke-opacity="0.13889672" stroke-linecap="round" stroke-linejoin="round"/>
    <path d="M 59.918373107910156 120.13599395751953 C 45.09218215942383 131.8741912841797 39.59595489501953 128.13931274414062 39.796321868896484 103.97897338867188" stroke-width="3.0" fill="none" stroke="rgb(0, 0, 2)" stroke-opacity="0.43624613" stroke-linecap="round" stroke-linejoin="round"/>
    <path d="M 87.00382995605469 174.30538940429688 C 64.7730712890625 117.0955581665039 49.583740234375 118.59134674072266 76.3165283203125 113.86543273925781" stroke-width="3.0" fill="none" stroke="rgb(2, -3, 1)" stroke-opacity="0.21106409" stroke-linecap="round" stroke-linejoin="round"/>
    <path d="M 35.173439025878906 -20.327848434448242 C 37.732486724853516 71.08683776855469 33.033531188964844 101.95045471191406 34.97814178466797 -11.179113388061523" stroke-width="3.0" fill="none" stroke="rgb(0, -3, 2)" stroke-opacity="0.10123096" stroke-linecap="round" stroke-linejoin="round"/>
    <path d="M 38.85810470581055 61.625511169433594 C 53.74858474731445 72.09098815917969 53.47967529296875 84.7434310913086 43.33807373046875 66.45318603515625" stroke-width="3.0" fill="none" stroke="rgb(-1, -1, 2)" stroke-opacity="0.94834083" stroke-linecap="round" stroke-linejoin="round"/>
    <path d="M 67.34197235107422 162.94093322753906 C 22.399511337280273 178.82937622070312 51.74197769165039 198.02731323242188 43.52818298339844 176.5758514404297" stroke-width="3.0" fill="none" stroke="rgb(0, 0, 0)" stroke-opacity="0.8511063" stroke-linecap="round" stroke-linejoin="round"/>
    <path d="M 85.70519256591797 85.1258544921875 C 38.68183135986328 97.14400482177734 -7.094910621643066 92.7947998046875 98.679931640625 97.2732162475586" stroke-width="3.0" fill="none" stroke="rgb(0, 0, 0)" stroke-opacity="0.040061593" stroke-linecap="round" stroke-linejoin="round"/>
    <path d="M 209.1472625732422 26.872817993164062 C 116.06132507324219 28.816221237182617 266.84332275390625 22.04564094543457 211.27764892578125 14.204977989196777" stroke-width="3.0" fill="none" stroke="rgb(2, -2, 1)" stroke-opacity="0.048496235" stroke-linecap="round" stroke-linejoin="round"/>
    <path d="M 78.81964874267578 181.07522583007812 C 165.8786163330078 210.78964233398438 111.78219604492188 219.60452270507812 71.92039489746094 204.9839324951172" stroke-width="3.0" fill="none" stroke="rgb(0, -1, 1)" stroke-opacity="0.035797615" stroke-linecap="round" stroke-linejoin="round"/>
    <path d="M 29.10546875 36.35190963745117 C 30.656471252441406 135.05511474609375 26.893404006958008 41.47303009033203 29.813390731811523 -17.048675537109375" stroke-width="3.0" fill="none" stroke="rgb(1, 0, 0)" stroke-opacity="0.028684594" stroke-linecap="round" stroke-linejoin="round"/>
    <path d="M 54.37974166870117 178.29647827148438 C 150.8486785888672 162.1961669921875 127.0782699584961 186.8643341064453 67.55811309814453 169.6409149169922" stroke-width="3.0" fill="none" stroke="rgb(0, -1, 2)" stroke-opacity="0.33326313" stroke-linecap="round" stroke-linejoin="round"/>
    <path d="M 74.22209930419922 96.82881164550781 C 64.23108673095703 105.07003021240234 61.127197265625 93.93536376953125 77.6729507446289 95.45367431640625" stroke-width="3.0" fill="none" stroke="rgb(1, -2, 1)" stroke-opacity="0.7835704" stroke-linecap="round" stroke-linejoin="round"/>
    <path d="M 100.53106689453125 92.4979019165039 C 143.3523712158203 114.75223541259766 89.19511413574219 99.5871810913086 82.03948974609375 74.14775848388672" stroke-width="3.0" fill="none" stroke="rgb(2, 2, -3)" stroke-opacity="0.24596411" stroke-linecap="round" stroke-linejoin="round"/>
    <path d="M 52.57717514038086 119.77690124511719 C 67.1301498413086 95.47161102294922 55.67641067504883 88.10413360595703 93.69586181640625 94.89777374267578" stroke-width="3.0" fill="none" stroke="rgb(2, -3, 2)" stroke-opacity="0.19963834" stroke-linecap="round" stroke-linejoin="round"/>
    <path d="M 191.8323211669922 179.8118133544922 C 91.9478988647461 175.50982666015625 127.41864776611328 187.57273864746094 113.2852554321289 119.00064849853516" stroke-width="3.0" fill="none" stroke="rgb(-2, 2, 2)" stroke-opacity="0.09748819" stroke-linecap="round" stroke-linejoin="round"/>
    <path d="M 180.0722198486328 165.5559539794922 C 162.9619598388672 128.33718872070312 173.92579650878906 163.2768096923828 147.856201171875 137.92149353027344" stroke-width="3.0" fill="none" stroke="rgb(0, 1, -1)" stroke-opacity="0.13432051" stroke-linecap="round" stroke-linejoin="round"/>
    <path d="M 36.766510009765625 54.64682388305664 C 31.7747802734375 73.466796875 45.184715270996094 70.17488098144531 37.13349533081055 118.18164825439453" stroke-width="3.0" fill="none" stroke="rgb(0, -1, 2)" stroke-opacity="0.39781773" stroke-linecap="round" stroke-linejoin="round"/>
    <path d="M 77.97535705566406 146.28665161132812 C 90.818603515625 164.20733642578125 46.87322998046875 194.18873596191406 72.39495849609375 146.24078369140625" stroke-width="3.0" fill="none" stroke="rgb(4, -3, 1)" stroke-opacity="0.3150449" stroke-linecap="round" stroke-linejoin="round"/>
    <path d="M 217.73321533203125 17.490556716918945 C 221.39715576171875 96.71996307373047 186.99636840820312 -49.996429443359375 189.03358459472656 51.01719284057617" stroke-width="3.0" fill="none" stroke="rgb(1, 0, 2)" stroke-opacity="0.014949854" stroke-linecap="round" stroke-linejoin="round"/>
    <path d="M 60.85539627075195 76.02296447753906 C 94.25232696533203 -16.6367244720459 44.74470138549805 71.18340301513672 90.8447494506836 39.03989028930664" stroke-width="3.0" fill="none" stroke="rgb(0, -1, 2)" stroke-opacity="0.028815664" stroke-linecap="round" stroke-linejoin="round"/>
    <path d="M 76.31123352050781 15.94709587097168 C 99.27867126464844 3.853454351425171 239.30140686035156 17.286495208740234 226.63815307617188 2.7667768001556396" stroke-width="3.0" fill="none" stroke="rgb(-4, 2, 4)" stroke-opacity="0.17406793" stroke-linecap="round" stroke-linejoin="round"/>
    <path d="M 114.14185333251953 201.99818420410156 C 337.150146484375 201.66421508789062 373.48681640625 207.9793243408203 90.82555389404297 204.0347137451172" stroke-width="3.0" fill="none" stroke="rgb(3, -2, 3)" stroke-opacity="0.2256864" stroke-linecap="round" stroke-linejoin="round"/>
    <path d="M 96.44940185546875 101.41178131103516 C 49.06623458862305 86.95140838623047 36.35075378417969 97.75923156738281 99.53763580322266 96.6023941040039" stroke-width="3.0" fill="none" stroke="rgb(2, -3, 3)" stroke-opacity="0.15373723" stroke-linecap="round" stroke-linejoin="round"/>
    <path d="M 225.5393524169922 234.89935302734375 C 229.54876708984375 212.5198974609375 231.2344207763672 204.38577270507812 231.13075256347656 231.6864776611328" stroke-width="3.0" fill="none" stroke="rgb(0, 0, 0)" stroke-opacity="0.5297106" stroke-linecap="round" stroke-linejoin="round"/>
    <path d="M 15.895928382873535 180.52293395996094 C -14.4371337890625 217.63748168945312 34.928794860839844 283.2183837890625 19.008676528930664 199.2129669189453" stroke-width="3.0" fill="none" stroke="rgb(-2, 0, 2)" stroke-opacity="0.045019917" stroke-linecap="round" stroke-linejoin="round"/>
    <path d="M 136.11444091796875 200.09019470214844 C 272.76129150390625 192.6492156982422 229.06332397460938 200.21482849121094 236.09107971191406 193.23912048339844" stroke-width="3.0" fill="none" stroke="rgb(2, -3, 2)" stroke-opacity="0.1865635" stroke-linecap="round" stroke-linejoin="round"/>
    <path d="M 91.14961242675781 144.66595458984375 C 96.306640625 132.3633575439453 56.61872863769531 79.3469467163086 91.61294555664062 142.94175720214844" stroke-width="3.0" fill="none" stroke="rgb(-1, 1, 1)" stroke-opacity="0.049047664" stroke-linecap="round" stroke-linejoin="round"/>
    <path d="M 47.77299880981445 191.61898803710938 C 174.02182006835938 221.6413116455078 40.163848876953125 172.8405303955078 89.47738647460938 209.0492706298828" stroke-width="3.0" fill="none" stroke="rgb(0, -1, 3)" stroke-opacity="0.09169208" stroke-linecap="round" stroke-linejoin="round"/>
    <path d="M 77.79772186279297 60.1440544128418 C 60.039276123046875 -39.08905029296875 78.79061126708984 16.076385498046875 63.628414154052734 7.292511940002441" stroke-width="3.0" fill="none" stroke="rgb(0, 0, 0)" stroke-opacity="0.0051642098" stroke-linecap="round" stroke-linejoin="round"/>
    <path d="M 34.86416244506836 64.5046157836914 C 38.46401596069336 128.86073303222656 27.980937957763672 136.6243438720703 68.42283630371094 104.2366714477539" stroke-width="3.0" fill="none" stroke="rgb(0, 0, 1)" stroke-opacity="0.19337542" stroke-linecap="round" stroke-linejoin="round"/>
    <path d="M 98.88292694091797 42.24746322631836 C 147.125732421875 63.15044403076172 93.4081802368164 -43.73947525024414 106.43241882324219 67.9986801147461" stroke-width="3.0" fill="none" stroke="rgb(1, 0, 2)" stroke-opacity="0.018881721" stroke-linecap="round" stroke-linejoin="round"/>
    <path d="M 39.85256576538086 177.66270446777344 C 78.55846405029297 154.22695922851562 74.68594360351562 142.31475830078125 66.70576477050781 164.835205078125" stroke-width="3.0" fill="none" stroke="rgb(2, 0, 0)" stroke-opacity="0.42258906" stroke-linecap="round" stroke-linejoin="round"/>
    <path d="M 204.21932983398438 102.53042602539062 C 249.2802734375 112.99559783935547 208.94256591796875 58.05495834350586 218.02496337890625 113.64551544189453" stroke-width="3.0" fill="none" stroke="rgb(1, 0, -1)" stroke-opacity="0.022738606" stroke-linecap="round" stroke-linejoin="round"/>
    <path d="M 75.54347229003906 69.832275390625 C 97.72357177734375 37.173282623291016 100.60602569580078 58.26993942260742 99.06134033203125 90.56737518310547" stroke-width="3.0" fill="none" stroke="rgb(-2, 2, 2)" stroke-opacity="0.24268447" stroke-linecap="round" stroke-linejoin="round"/>
    <path d="M 157.69686889648438 162.2598114013672 C 136.07447814941406 141.2928009033203 158.00657653808594 155.76116943359375 139.06869506835938 154.51983642578125" stroke-width="3.0" fill="none" stroke="rgb(1, -1, 0)" stroke-opacity="0.06392371" stroke-linecap="round" stroke-linejoin="round"/>
    <path d="M 50.21135711669922 54.666202545166016 C 52.49376678466797 6.3316802978515625 46.584083557128906 45.191925048828125 44.969547271728516 13.063863754272461" stroke-width="3.0" fill="none" stroke="rgb(0, 0, 0)" stroke-opacity="0.0061136214" stroke-linecap="round" stroke-linejoin="round"/>
    <path d="M 253.53671264648438 152.02268981933594 C 168.44049072265625 161.2703094482422 220.9236297607422 161.72499084472656 196.9685821533203 130.99757385253906" stroke-width="3.0" fill="none" stroke="rgb(-2, 2, 2)" stroke-opacity="0.24644266" stroke-linecap="round" stroke-linejoin="round"/>
    <path d="M 44.718624114990234 185.9612274169922 C 192.43069458007812 174.99658203125 123.90226745605469 158.01100158691406 55.56374740600586 200.5206298828125" stroke-width="3.0" fill="none" stroke="rgb(0, 0, 1)" stroke-opacity="0.074225634" stroke-linecap="round" stroke-linejoin="round"/>
    <path d="M 131.71726989746094 159.51622009277344 C 162.81369018554688 161.72134399414062 135.80897521972656 157.32952880859375 149.01495361328125 137.48873901367188" stroke-width="3.0" fill="none" stroke="rgb(-2, 0, 3)" stroke-opacity="0.25950563" stroke-linecap="round" stroke-linejoin="round"/>
    <path d="M 61.97841262817383 94.35723114013672 C 28.395790100097656 167.8331756591797 65.54959106445312 91.3743896484375 91.2975845336914 114.9039077758789" stroke-width="3.0" fill="none" stroke="rgb(-2, 0, 2)" stroke-opacity="0.06974123" stroke-linecap="round" stroke-linejoin="round"/>
    <path d="M 184.43060302734375 179.6533203125 C 117.23123168945312 178.69021606445312 162.73277282714844 173.72227478027344 178.9168243408203 179.55418395996094" stroke-width="3.0" fill="none" stroke="rgb(2, -2, 0)" stroke-opacity="0.49395546" stroke-linecap="round" stroke-linejoin="round"/>
    <path d="M 72.59749603271484 66.56452941894531 C 39.02802658081055 86.14713287353516 66.58221435546875 71.5980224609375 45.419830322265625 73.99922943115234" stroke-width="3.0" fill="none" stroke="rgb(0, -1, 3)" stroke-opacity="0.18318316" stroke-linecap="round" stroke-linejoin="round"/>
    <path d="M 49.51528549194336 59.00933837890625 C 43.40826416015625 55.67577362060547 49.547096252441406 61.73545837402344 45.5600700378418 29.40727424621582" stroke-width="3.0" fill="none" stroke="rgb(0, 0, 0)" stroke-opacity="0.0043881754" stroke-linecap="round" stroke-linejoin="round"/>
    <path d="M -8.18026065826416 1.0144180059432983 C 14.640070915222168 -52.35896682739258 6.398406028747559 -69.31317138671875 5.316652297973633 35.142486572265625" stroke-width="3.0" fill="none" stroke="rgb(-1, 0, 2)" stroke-opacity="0.0840006" stroke-linecap="round" stroke-linejoin="round"/>
    <path d="M 42.941131591796875 123.44624328613281 C 35.36782455444336 124.11014556884766 50.18788146972656 108.11109924316406 47.247169494628906 117.65995025634766" stroke-width="3.0" fill="none" stroke="rgb(0, 0, 0)" stroke-opacity="0.9212947" stroke-linecap="round" stroke-linejoin="round"/>
    <path d="M 29.508012771606445 144.32672119140625 C 68.27640533447266 171.90611267089844 37.66623306274414 174.04283142089844 32.31713104248047 127.64680480957031" stroke-width="3.0" fill="none" stroke="rgb(-3, 0, 4)" stroke-opacity="0.05296743" stroke-linecap="round" stroke-linejoin="round"/>
    <path d="M 5.726736068725586 144.00389099121094 C 5.549689292907715 69.03360748291016 6.630518913269043 25.485668182373047 5.8951921463012695 7.6736674308776855" stroke-width="3.0" fill="none" stroke="rgb(-3, -1, 2)" stroke-opacity="0.12287523" stroke-linecap="round" stroke-linejoin="round"/>
    <path d="M 44.503963470458984 115.46882629394531 C 86.37932586669922 90.41698455810547 79.14816284179688 77.63878631591797 50.51274871826172 114.12153625488281" stroke-width="3.0" fill="none" stroke="rgb(2, -2, 0)" stroke-opacity="0.15378675" stroke-linecap="round" stroke-linejoin="round"/>
    <path d="M 170.5444793701172 21.280275344848633 C 338.4178771972656 11.892870903015137 36.2612190246582 32.7708854675293 167.3980255126953 30.791748046875" stroke-width="3.0" fill="none" stroke="rgb(3, -3, 2)" stroke-opacity="0.03843786" stroke-linecap="round" stroke-linejoin="round"/>
    <path d="M 103.53997802734375 111.52098083496094 C 73.41583251953125 142.21417236328125 107.00037384033203 120.66841888427734 96.61581420898438 109.52589416503906" stroke-width="3.0" fill="none" stroke="rgb(1, -3, 3)" stroke-opacity="0.22298387" stroke-linecap="round" stroke-linejoin="round"/>
    <path d="M 30.539705276489258 81.42760467529297 C 35.38351058959961 239.0589141845703 28.497589111328125 337.6377258300781 28.78561782836914 68.08686828613281" stroke-width="3.0" fill="none" stroke="rgb(0, -1, 1)" stroke-opacity="0.0193568" stroke-linecap="round" stroke-linejoin="round"/>
    <path d="M 151.81121826171875 165.5947265625 C 133.62030029296875 185.28697204589844 173.80715942382812 166.3136444091797 183.589111328125 180.01422119140625" stroke-width="3.0" fill="none" stroke="rgb(2, -3, -1)" stroke-opacity="0.28681815" stroke-linecap="round" stroke-linejoin="round"/>
    <path d="M 52.1450080871582 94.34846496582031 C 72.21416473388672 71.4550552368164 106.60514831542969 86.85063171386719 66.52043151855469 84.72723388671875" stroke-width="3.0" fill="none" stroke="rgb(1, 0, -3)" stroke-opacity="0.054728143" stroke-linecap="round" stroke-linejoin="round"/>
    <path d="M 53.84886932373047 164.76502990722656 C 92.75467681884766 137.03367614746094 49.95247268676758 129.29550170898438 92.20082092285156 156.43089294433594" stroke-width="3.0" fill="none" stroke="rgb(1, -3, 3)" stroke-opacity="0.24533372" stroke-linecap="round" stroke-linejoin="round"/>
    <path d="M 91.58006286621094 90.7958755493164 C 64.4800033569336 85.15132904052734 87.21815490722656 89.9247055053711 71.50727081298828 74.78607177734375" stroke-width="3.0" fill="none" stroke="rgb(1, 0, -1)" stroke-opacity="0.020554388" stroke-linecap="round" stroke-linejoin="round"/>
    <path d="M 217.72750854492188 231.2069549560547 C 221.08151245117188 231.81703186035156 219.51039123535156 222.7853546142578 231.5574951171875 228.165283203125" stroke-width="3.0" fill="none" stroke="rgb(0, 0, 0)" stroke-opacity="0.70380086" stroke-linecap="round" stroke-linejoin="round"/>
    <path d="M 105.30138397216797 106.62118530273438 C 101.8814697265625 81.03853607177734 115.48645782470703 119.45061492919922 98.1013412475586 83.47181701660156" stroke-width="3.0" fill="none" stroke="rgb(0, 0, -1)" stroke-opacity="0.1483338" stroke-linecap="round" stroke-linejoin="round"/>
    <path d="M 219.39938354492188 218.4180450439453 C 135.57144165039062 195.5819854736328 326.2745056152344 214.86062622070312 110.3609848022461 215.25271606445312" stroke-width="3.0" fill="none" stroke="rgb(1, -2, 0)" stroke-opacity="0.05332048" stroke-linecap="round" stroke-linejoin="round"/>
    <path d="M 58.06634521484375 102.65731048583984 C 31.523347854614258 131.94488525390625 60.17341613769531 106.48178100585938 46.54102325439453 95.38740539550781" stroke-width="3.0" fill="none" stroke="rgb(1, 2, -3)" stroke-opacity="0.27942142" stroke-linecap="round" stroke-linejoin="round"/>
    <path d="M 103.28336334228516 232.41485595703125 C 106.87754821777344 228.39474487304688 114.64295959472656 221.36839294433594 105.51432037353516 231.69610595703125" stroke-width="3.0" fill="none" stroke="rgb(0, 0, 0)" stroke-opacity="0.52063245" stroke-linecap="round" stroke-linejoin="round"/>
    <path d="M 194.4236297607422 128.14639282226562 C 104.35762023925781 87.34871673583984 122.06889343261719 105.82361602783203 105.47423553466797 106.79684448242188" stroke-width="3.0" fill="none" stroke="rgb(-2, 1, 2)" stroke-opacity="0.12230868" stroke-linecap="round" stroke-linejoin="round"/>
    <path d="M 90.55719757080078 90.19698333740234 C 34.825653076171875 105.89453125 89.31858825683594 76.33489990234375 99.43362426757812 98.43016815185547" stroke-width="3.0" fill="none" stroke="rgb(3, -3, 2)" stroke-opacity="0.15080786" stroke-linecap="round" stroke-linejoin="round"/>
    <path d="M 42.80347442626953 94.34950256347656 C 48.405975341796875 66.19998931884766 67.04944610595703 78.81800842285156 52.283939361572266 75.91868591308594" stroke-width="3.0" fill="none" stroke="rgb(-1, 1, 0)" stroke-opacity="0.16829473" stroke-linecap="round" stroke-linejoin="round"/>
    <path d="M 63.48442077636719 61.86247634887695 C 65.69556427001953 33.82741165161133 62.640525817871094 76.61776733398438 70.12635803222656 20.172861099243164" stroke-width="3.0" fill="none" stroke="rgb(0, -2, 1)" stroke-opacity="0.14980844" stroke-linecap="round" stroke-linejoin="round"/>
    <path d="M 95.3917236328125 18.304018020629883 C 51.8695068359375 69.12186431884766 106.48875427246094 -25.21184539794922 76.28730773925781 60.77748489379883" stroke-width="3.0" fill="none" stroke="rgb(1, -1, 2)" stroke-opacity="0.040762894" stroke-linecap="round" stroke-linejoin="round"/>
    <path d="M 149.68307495117188 167.14547729492188 C 170.64683532714844 160.89825439453125 198.6111297607422 172.02467346191406 151.00318908691406 174.210693359375" stroke-width="3.0" fill="none" stroke="rgb(1, 0, -2)" stroke-opacity="0.14993487" stroke-linecap="round" stroke-linejoin="round"/>
    <path d="M 87.27035522460938 76.48818969726562 C 96.88275909423828 39.91585922241211 91.82952880859375 80.71984100341797 86.31713104248047 76.70281982421875" stroke-width="3.0" fill="none" stroke="rgb(-4, -3, 3)" stroke-opacity="0.9605975" stroke-linecap="round" stroke-linejoin="round"/>
    <path d="M 194.03884887695312 128.80979919433594 C 145.6171112060547 111.6939926147461 132.22503662109375 165.25477600097656 185.04379272460938 136.8500518798828" stroke-width="3.0" fill="none" stroke="rgb(0, 0, 0)" stroke-opacity="0.047942005" stroke-linecap="round" stroke-linejoin="round"/>
    <path d="M 98.92076873779297 151.72227478027344 C 78.66677856445312 99.587646484375 105.55599975585938 142.04013061523438 90.23694610595703 115.67214965820312" stroke-width="3.0" fill="none" stroke="rgb(3, -2, 2)" stroke-opacity="0.2381341" stroke-linecap="round" stroke-linejoin="round"/>
    <path d="M 92.19664001464844 137.7988739013672 C 112.93690490722656 187.9183349609375 100.50132751464844 132.81414794921875 50.96382522583008 186.91204833984375" stroke-width="3.0" fill="none" stroke="rgb(1, -5, 3)" stroke-opacity="0.29099438" stroke-linecap="round" stroke-linejoin="round"/>
    <path d="M 169.95248413085938 179.46713256835938 C 221.24508666992188 169.28921508789062 66.50017547607422 170.7039031982422 212.5029296875 177.9061737060547" stroke-width="3.0" fill="none" stroke="rgb(1, 0, -1)" stroke-opacity="0.057368472" stroke-linecap="round" stroke-linejoin="round"/>
    <path d="M 107.27114868164062 207.57504272460938 C -71.5321044921875 170.3251495361328 35.71236801147461 190.3463592529297 71.68131256103516 186.0050506591797" stroke-width="3.0" fill="none" stroke="rgb(3, -4, 4)" stroke-opacity="0.2081143" stroke-linecap="round" stroke-linejoin="round"/>
    <path d="M 225.72987365722656 194.18714904785156 C 115.32345581054688 199.6734161376953 214.7372283935547 173.6344757080078 139.2979736328125 212.78709411621094" stroke-width="3.0" fill="none" stroke="rgb(0, -1, 2)" stroke-opacity="0.06523488" stroke-linecap="round" stroke-linejoin="round"/>
    <path d="M 81.9190673828125 87.1848373413086 C 64.56975555419922 80.0503158569336 83.6268310546875 66.53802490234375 52.76791763305664 89.82096099853516" stroke-width="3.0" fill="none" stroke="rgb(1, 2, -3)" stroke-opacity="0.038111795" stroke-linecap="round" stroke-linejoin="round"/>
    <path d="M 34.97028732299805 150.41525268554688 C 24.577138900756836 -104.54113006591797 44.138893127441406 -34.52708435058594 32.7605094909668 61.5518798828125" stroke-width="3.0" fill="none" stroke="rgb(2, -2, 3)" stroke-opacity="0.09724185" stroke-linecap="round" stroke-linejoin="round"/>
    <path d="M 55.55651092529297 113.89572143554688 C 84.29080200195312 101.41747283935547 45.67063903808594 83.03370666503906 81.11498260498047 83.68767547607422" stroke-width="3.0" fill="none" stroke="rgb(0, 0, 0)" stroke-opacity="0.0465877" stroke-linecap="round" stroke-linejoin="round"/>
    <path d="M 60.599647521972656 185.95706176757812 C 136.25552368164062 139.59811401367188 27.69669532775879 186.33523559570312 86.83654022216797 170.87496948242188" stroke-width="3.0" fill="none" stroke="rgb(0, 1, 0)" stroke-opacity="0.29930404" stroke-linecap="round" stroke-linejoin="round"/>
    <path d="M 74.17459106445312 17.67111587524414 C 42.99393844604492 139.8477325439453 59.74016571044922 130.7986297607422 68.83592224121094 31.323862075805664" stroke-width="3.0" fill="none" stroke="rgb(3, -2, 0)" stroke-opacity="0.07737423" stroke-linecap="round" stroke-linejoin="round"/>
    <path d="M 96.35649871826172 96.24857330322266 C 68.67086029052734 90.47805786132812 23.63198471069336 117.46701049804688 96.27580261230469 95.93008422851562" stroke-width="3.0" fill="none" stroke="rgb(3, -1, 0)" stroke-opacity="0.22506802" stroke-linecap="round" stroke-linejoin="round"/>
    <path d="M 125.20408630371094 173.37973022460938 C 121.87991333007812 144.7863311767578 161.0154571533203 169.03912353515625 146.56411743164062 154.12811279296875" stroke-width="3.0" fill="none" stroke="rgb(1, -1, 0)" stroke-opacity="0.31675303" stroke-linecap="round" stroke-linejoin="round"/>
  </g>
</svg>
