<?xml version="1.0" ?>
<svg xmlns="http://www.w3.org/2000/svg" version="1.1" width="224" height="224">
  <defs/>
  <g>
    <path d="M 79.43425750732422 175.95179748535156 C 72.07283020019531 144.41531372070312 71.79446411132812 164.70114135742188 78.26678466796875 177.86361694335938" stroke-width="3.0" fill="none" stroke="rgb(0, 0, 0)" stroke-opacity="1.0022862" stroke-linecap="round" stroke-linejoin="round"/>
    <path d="M 96.208251953125 165.96075439453125 C 120.18850708007812 147.61094665527344 103.66682434082031 107.31230926513672 104.74899291992188 119.95689392089844" stroke-width="3.0" fill="none" stroke="rgb(0, -2, 2)" stroke-opacity="1.0051738" stroke-linecap="round" stroke-linejoin="round"/>
    <path d="M 53.106685638427734 180.10299682617188 C 62.321102142333984 187.7366943359375 103.64920806884766 174.37266540527344 107.22301483154297 138.314697265625" stroke-width="3.0" fill="none" stroke="rgb(0, -1, 1)" stroke-opacity="1.0035285" stroke-linecap="round" stroke-linejoin="round"/>
    <path d="M 109.7330551147461 100.34503173828125 C 74.12003326416016 134.1990966796875 52.55178451538086 145.53602600097656 89.94242095947266 73.82311248779297" stroke-width="3.0" fill="none" stroke="rgb(0, 0, 0)" stroke-opacity="-0.0047540176" stroke-linecap="round" stroke-linejoin="round"/>
    <path d="M 73.4322509765625 119.72349548339844 C 48.832801818847656 113.8390121459961 49.32892608642578 93.04914093017578 71.88909149169922 114.42659759521484" stroke-width="3.0" fill="none" stroke="rgb(0, -1, 1)" stroke-opacity="1.0009228" stroke-linecap="round" stroke-linejoin="round"/>
    <path d="M 180.33314514160156 69.64705657958984 C 181.28517150878906 77.97571563720703 194.17474365234375 85.41325378417969 188.01296997070312 89.2459716796875" stroke-width="3.0" fill="none" stroke="rgb(0, 0, 0)" stroke-opacity="0.1625393" stroke-linecap="round" stroke-linejoin="round"/>
    <path d="M 121.58944702148438 212.84176635742188 C 172.04644775390625 197.4932861328125 116.77096557617188 214.28622436523438 111.48416900634766 235.5446319580078" stroke-width="3.0" fill="none" stroke="rgb(0, 0, 0)" stroke-opacity="0.90777963" stroke-linecap="round" stroke-linejoin="round"/>
    <path d="M 90.17842102050781 77.62257385253906 C 74.13888549804688 13.957174301147461 49.135555267333984 12.144121170043945 102.81954193115234 19.430110931396484" stroke-width="3.0" fill="none" stroke="rgb(0, 0, 0)" stroke-opacity="1.0009133" stroke-linecap="round" stroke-linejoin="round"/>
    <path d="M 95.6108169555664 93.36271667480469 C 76.87108612060547 128.67750549316406 58.98304748535156 130.69332885742188 107.30964660644531 107.53807067871094" stroke-width="3.0" fill="none" stroke="rgb(0, 0, 0)" stroke-opacity="0.0002845606" stroke-linecap="round" stroke-linejoin="round"/>
    <path d="M 165.02818298339844 53.828330993652344 C 141.12196350097656 88.02909851074219 157.75369262695312 109.70563507080078 165.2509765625 29.52056121826172" stroke-width="3.0" fill="none" stroke="rgb(0, 0, 1)" stroke-opacity="1.0019659" stroke-linecap="round" stroke-linejoin="round"/>
    <path d="M 103.81827545166016 14.166255950927734 C 117.64364624023438 8.264496803283691 144.8413848876953 5.390420913696289 158.66908264160156 39.91204833984375" stroke-width="3.0" fill="none" stroke="rgb(0, 0, 0)" stroke-opacity="0.9988503" stroke-linecap="round" stroke-linejoin="round"/>
    <path d="M 22.747785568237305 -1.9409301280975342 C 32.024757385253906 -13.161507606506348 44.687164306640625 -4.746660232543945 57.591007232666016 36.022743225097656" stroke-width="3.0" fill="none" stroke="rgb(0, 0, 0)" stroke-opacity="-0.001052144" stroke-linecap="round" stroke-linejoin="round"/>
    <path d="M 96.77782440185547 175.7982635498047 C 92.70816040039062 175.69837951660156 115.932861328125 155.37330627441406 125.1234359741211 185.19613647460938" stroke-width="3.0" fill="none" stroke="rgb(0, 0, 0)" stroke-opacity="-0.0076303645" stroke-linecap="round" stroke-linejoin="round"/>
    <path d="M 90.20362854003906 44.374080657958984 C 73.56195831298828 113.35475158691406 77.12308502197266 104.29052734375 88.1817398071289 49.848209381103516" stroke-width="3.0" fill="none" stroke="rgb(0, 0, 0)" stroke-opacity="-0.0015969371" stroke-linecap="round" stroke-linejoin="round"/>
    <path d="M 100.3840103149414 128.7342071533203 C 131.44618225097656 49.7744140625 137.79258728027344 40.55939865112305 106.19316101074219 100.58484649658203" stroke-width="3.0" fill="none" stroke="rgb(0, 0, 0)" stroke-opacity="-0.0071650483" stroke-linecap="round" stroke-linejoin="round"/>
    <path d="M 142.89317321777344 227.39376831054688 C 159.88255310058594 102.20206451416016 148.27114868164062 126.29383087158203 152.75701904296875 178.27169799804688" stroke-width="3.0" fill="none" stroke="rgb(0, 0, 0)" stroke-opacity="-0.005329927" stroke-linecap="round" stroke-linejoin="round"/>
    <path d="M 154.9088592529297 67.869140625 C 159.43690490722656 170.29177856445312 149.36573791503906 202.65676879882812 166.476806640625 237.19395446777344" stroke-width="3.0" fill="none" stroke="rgb(0, 0, 0)" stroke-opacity="1.0015411" stroke-linecap="round" stroke-linejoin="round"/>
    <path d="M 163.7177276611328 50.31987380981445 C 152.19212341308594 30.629615783691406 148.06495666503906 18.014211654663086 156.56610107421875 40.17033386230469" stroke-width="3.0" fill="none" stroke="rgb(0, 0, 1)" stroke-opacity="0.5215539" stroke-linecap="round" stroke-linejoin="round"/>
    <path d="M 143.26104736328125 64.17002868652344 C 119.53321838378906 43.46304702758789 111.75664520263672 40.70867919921875 149.90933227539062 43.76385498046875" stroke-width="3.0" fill="none" stroke="rgb(0, 0, 0)" stroke-opacity="-0.0038069247" stroke-linecap="round" stroke-linejoin="round"/>
    <path d="M 6.689877986907959 66.88450622558594 C 51.12013244628906 116.9885482788086 93.5182113647461 119.77629852294922 92.98123168945312 127.97529602050781" stroke-width="3.0" fill="none" stroke="rgb(-1, -1, 1)" stroke-opacity="1.0046793" stroke-linecap="round" stroke-linejoin="round"/>
    <path d="M 97.08042907714844 67.93746185302734 C 118.7152099609375 80.64005279541016 100.99569702148438 122.66079711914062 94.21049499511719 70.65794372558594" stroke-width="3.0" fill="none" stroke="rgb(0, 0, 0)" stroke-opacity="-0.010708334" stroke-linecap="round" stroke-linejoin="round"/>
    <path d="M 91.57182312011719 22.413572311401367 C 128.62432861328125 2.2401034832000732 146.64186096191406 25.533855438232422 165.78823852539062 13.598475456237793" stroke-width="3.0" fill="none" stroke="rgb(0, 0, 1)" stroke-opacity="1.0017308" stroke-linecap="round" stroke-linejoin="round"/>
    <path d="M 54.42079162597656 189.17213439941406 C 108.97352600097656 191.91746520996094 85.42800903320312 186.46397399902344 105.94490814208984 125.64598083496094" stroke-width="3.0" fill="none" stroke="rgb(0, 0, 0)" stroke-opacity="-0.0034355882" stroke-linecap="round" stroke-linejoin="round"/>
    <path d="M 161.8966522216797 44.745361328125 C 189.34771728515625 38.35807418823242 205.94921875 49.893863677978516 190.9881591796875 15.572402954101562" stroke-width="3.0" fill="none" stroke="rgb(0, 0, 0)" stroke-opacity="0.00074994797" stroke-linecap="round" stroke-linejoin="round"/>
    <path d="M 159.0045623779297 32.512603759765625 C 164.82015991210938 58.16434097290039 161.3171844482422 92.70148468017578 156.1884307861328 29.546165466308594" stroke-width="3.0" fill="none" stroke="rgb(0, -2, 2)" stroke-opacity="1.0028715" stroke-linecap="round" stroke-linejoin="round"/>
    <path d="M 228.96522521972656 31.626882553100586 C 234.05726623535156 32.42469787597656 223.36846923828125 48.510520935058594 228.3717498779297 84.43766021728516" stroke-width="3.0" fill="none" stroke="rgb(0, 0, 0)" stroke-opacity="0.7218974" stroke-linecap="round" stroke-linejoin="round"/>
    <path d="M 124.92816925048828 216.51112365722656 C 125.51660919189453 153.30128479003906 134.61639404296875 131.86241149902344 130.75485229492188 225.6473388671875" stroke-width="3.0" fill="none" stroke="rgb(0, 0, 0)" stroke-opacity="1.0029964" stroke-linecap="round" stroke-linejoin="round"/>
    <path d="M 124.079833984375 236.0147705078125 C 122.44725036621094 176.7911834716797 113.6395034790039 152.6400909423828 128.88107299804688 213.97549438476562" stroke-width="3.0" fill="none" stroke="rgb(0, 0, 0)" stroke-opacity="1.0022517" stroke-linecap="round" stroke-linejoin="round"/>
    <path d="M 36.00300216674805 34.051780700683594 C 72.48016357421875 4.809482097625732 107.56536102294922 6.151498317718506 78.90988159179688 47.2574348449707" stroke-width="3.0" fill="none" stroke="rgb(0, 0, 1)" stroke-opacity="0.9985094" stroke-linecap="round" stroke-linejoin="round"/>
    <path d="M 178.47808837890625 39.46271514892578 C 154.33432006835938 56.23136520385742 147.6345977783203 34.285011291503906 172.23501586914062 39.000736236572266" stroke-width="3.0" fill="none" stroke="rgb(0, 0, 0)" stroke-opacity="0.008286941" stroke-linecap="round" stroke-linejoin="round"/>
    <path d="M 157.5825958251953 72.78630828857422 C 127.37798309326172 35.77020263671875 121.79047393798828 20.16575050354004 164.57485961914062 34.45979309082031" stroke-width="3.0" fill="none" stroke="rgb(0, 0, 0)" stroke-opacity="-0.00694601" stroke-linecap="round" stroke-linejoin="round"/>
    <path d="M 172.2517547607422 134.20974731445312 C 144.42343139648438 136.50254821777344 161.5622100830078 196.60841369628906 166.86859130859375 111.76564025878906" stroke-width="3.0" fill="none" stroke="rgb(0, 0, 0)" stroke-opacity="0.998553" stroke-linecap="round" stroke-linejoin="round"/>
    <path d="M 72.25208282470703 177.6859588623047 C 71.0720443725586 134.49891662597656 55.121917724609375 135.87997436523438 76.52750396728516 179.57919311523438" stroke-width="3.0" fill="none" stroke="rgb(0, 0, 0)" stroke-opacity="1.00276" stroke-linecap="round" stroke-linejoin="round"/>
    <path d="M 10.292487144470215 58.962318420410156 C 50.841583251953125 -2.56949520111084 78.83272552490234 16.315275192260742 107.13969421386719 16.705322265625" stroke-width="3.0" fill="none" stroke="rgb(-1, 0, 1)" stroke-opacity="1.0018094" stroke-linecap="round" stroke-linejoin="round"/>
    <path d="M 161.31399536132812 150.27407836914062 C 168.63787841796875 102.5364990234375 123.42544555664062 57.7122917175293 161.10882568359375 53.02539825439453" stroke-width="3.0" fill="none" stroke="rgb(0, -1, 0)" stroke-opacity="1.0061772" stroke-linecap="round" stroke-linejoin="round"/>
    <path d="M 97.12333679199219 155.2116241455078 C 127.01087951660156 134.24281311035156 98.08245086669922 100.08690643310547 93.26773834228516 54.389373779296875" stroke-width="3.0" fill="none" stroke="rgb(0, 0, 0)" stroke-opacity="0.9914423" stroke-linecap="round" stroke-linejoin="round"/>
    <path d="M 38.4069938659668 121.78487396240234 C 41.96399688720703 110.35717010498047 44.143287658691406 88.8189926147461 40.523033142089844 78.88297271728516" stroke-width="3.0" fill="none" stroke="rgb(0, 0, 0)" stroke-opacity="0.08017002" stroke-linecap="round" stroke-linejoin="round"/>
    <path d="M 88.20111083984375 117.3180160522461 C 97.2703857421875 47.591365814208984 101.01866912841797 68.48075103759766 89.07412719726562 122.75570678710938" stroke-width="3.0" fill="none" stroke="rgb(0, 0, 0)" stroke-opacity="1.0016578" stroke-linecap="round" stroke-linejoin="round"/>
    <path d="M 79.5886459350586 48.8110466003418 C 46.33384323120117 39.41032791137695 37.21546936035156 71.19926452636719 21.943683624267578 79.9544906616211" stroke-width="3.0" fill="none" stroke="rgb(0, 0, 0)" stroke-opacity="0.001109719" stroke-linecap="round" stroke-linejoin="round"/>
    <path d="M 140.41552734375 19.41066551208496 C 192.30987548828125 -2.1686787605285645 207.23577880859375 41.20254898071289 226.0801239013672 74.7366714477539" stroke-width="3.0" fill="none" stroke="rgb(0, 0, 0)" stroke-opacity="0.99966854" stroke-linecap="round" stroke-linejoin="round"/>
    <path d="M 144.55218505859375 93.58485412597656 C 136.9940185546875 176.97576904296875 105.44233703613281 151.2806854248047 134.62088012695312 210.64683532714844" stroke-width="3.0" fill="none" stroke="rgb(0, -1, 1)" stroke-opacity="1.0040303" stroke-linecap="round" stroke-linejoin="round"/>
    <path d="M 150.110595703125 87.96328735351562 C 188.5369110107422 122.2073974609375 182.32164001464844 101.74673461914062 160.34605407714844 53.46475601196289" stroke-width="3.0" fill="none" stroke="rgb(0, 0, 0)" stroke-opacity="0.029519869" stroke-linecap="round" stroke-linejoin="round"/>
    <path d="M 75.28829956054688 158.87899780273438 C 49.10936737060547 113.45088195800781 60.7237434387207 94.91040802001953 85.09681701660156 124.90074157714844" stroke-width="3.0" fill="none" stroke="rgb(-1, -1, 1)" stroke-opacity="1.0039866" stroke-linecap="round" stroke-linejoin="round"/>
    <path d="M 31.211580276489258 91.84848022460938 C 57.860897064208984 59.64816665649414 60.88453674316406 61.02509307861328 0.8104305863380432 64.1335678100586" stroke-width="3.0" fill="none" stroke="rgb(0, -1, 1)" stroke-opacity="0.30103624" stroke-linecap="round" stroke-linejoin="round"/>
    <path d="M 61.481170654296875 19.768556594848633 C 78.6441650390625 11.62434196472168 92.65214538574219 7.842069149017334 68.98330688476562 20.51707649230957" stroke-width="3.0" fill="none" stroke="rgb(0, 0, 0)" stroke-opacity="0.053303774" stroke-linecap="round" stroke-linejoin="round"/>
    <path d="M 105.80540466308594 110.13471984863281 C 99.85375213623047 125.88887786865234 113.9325180053711 128.97767639160156 101.71491241455078 147.7943878173828" stroke-width="3.0" fill="none" stroke="rgb(-1, -2, 0)" stroke-opacity="1.0048733" stroke-linecap="round" stroke-linejoin="round"/>
    <path d="M -4.61793327331543 1.5235213041305542 C -23.503881454467773 30.2042293548584 -24.561052322387695 41.0688591003418 32.4254264831543 84.24950408935547" stroke-width="3.0" fill="none" stroke="rgb(0, 0, 0)" stroke-opacity="0.7915345" stroke-linecap="round" stroke-linejoin="round"/>
    <path d="M 161.65676879882812 118.6404037475586 C 243.15281677246094 81.76956939697266 242.06629943847656 49.034454345703125 228.22396850585938 31.155025482177734" stroke-width="3.0" fill="none" stroke="rgb(0, 0, 0)" stroke-opacity="1.0010762" stroke-linecap="round" stroke-linejoin="round"/>
    <path d="M 81.0042724609375 119.63092041015625 C 106.39449310302734 81.33010864257812 85.25609588623047 75.59683990478516 87.5206298828125 71.10224151611328" stroke-width="3.0" fill="none" stroke="rgb(-1, -1, 1)" stroke-opacity="1.0031381" stroke-linecap="round" stroke-linejoin="round"/>
    <path d="M 85.5877456665039 245.5459442138672 C 104.0915756225586 218.64820861816406 120.43526458740234 235.10789489746094 139.14300537109375 207.61593627929688" stroke-width="3.0" fill="none" stroke="rgb(0, 0, 0)" stroke-opacity="0.9134772" stroke-linecap="round" stroke-linejoin="round"/>
    <path d="M 73.81505584716797 124.43316650390625 C 123.2471923828125 102.69957733154297 120.78780364990234 93.80201721191406 126.92162322998047 82.12448120117188" stroke-width="3.0" fill="none" stroke="rgb(0, 0, 0)" stroke-opacity="0.001131554" stroke-linecap="round" stroke-linejoin="round"/>
    <path d="M 109.76197052001953 91.17825317382812 C 102.62092590332031 152.31710815429688 97.4740219116211 173.05885314941406 95.47277069091797 129.59043884277344" stroke-width="3.0" fill="none" stroke="rgb(0, 0, 0)" stroke-opacity="0.37082553" stroke-linecap="round" stroke-linejoin="round"/>
    <path d="M 99.4722900390625 229.61395263671875 C 95.19792175292969 189.83209228515625 91.65729522705078 189.07125854492188 125.42671203613281 170.79136657714844" stroke-width="3.0" fill="none" stroke="rgb(-1, 0, 1)" stroke-opacity="1.0031184" stroke-linecap="round" stroke-linejoin="round"/>
    <path d="M 92.15743255615234 75.13761901855469 C 93.06230926513672 116.46331787109375 89.11878967285156 154.87303161621094 108.41410064697266 122.9673843383789" stroke-width="3.0" fill="none" stroke="rgb(-1, 0, 0)" stroke-opacity="0.7530003" stroke-linecap="round" stroke-linejoin="round"/>
    <path d="M 101.72603607177734 156.28988647460938 C 89.7010269165039 83.71968078613281 59.75209045410156 102.96257019042969 126.94343566894531 97.27774810791016" stroke-width="3.0" fill="none" stroke="rgb(0, 0, 0)" stroke-opacity="-0.0022499727" stroke-linecap="round" stroke-linejoin="round"/>
    <path d="M 207.86436462402344 35.34531021118164 C 171.4857635498047 -3.561142683029175 159.43511962890625 12.575112342834473 189.09217834472656 27.258695602416992" stroke-width="3.0" fill="none" stroke="rgb(0, 0, 0)" stroke-opacity="0.2094838" stroke-linecap="round" stroke-linejoin="round"/>
    <path d="M 79.74378967285156 220.86387634277344 C 87.79156494140625 167.14764404296875 44.06831741333008 206.50238037109375 101.2299575805664 184.41783142089844" stroke-width="3.0" fill="none" stroke="rgb(-1, -2, 1)" stroke-opacity="1.0077107" stroke-linecap="round" stroke-linejoin="round"/>
    <path d="M 236.4939727783203 64.27162170410156 C 208.34292602539062 87.51596069335938 193.63917541503906 115.58136749267578 186.4357147216797 78.32374572753906" stroke-width="3.0" fill="none" stroke="rgb(0, 0, 0)" stroke-opacity="0.9940862" stroke-linecap="round" stroke-linejoin="round"/>
    <path d="M 61.24003601074219 88.23480224609375 C 75.42079162597656 69.4111328125 102.27760314941406 98.4729232788086 74.19879913330078 110.03431701660156" stroke-width="3.0" fill="none" stroke="rgb(0, 0, 0)" stroke-opacity="-0.0010500455" stroke-linecap="round" stroke-linejoin="round"/>
    <path d="M 147.29989624023438 30.295679092407227 C 153.7298583984375 43.218353271484375 165.8987274169922 61.42703628540039 158.14891052246094 38.21775436401367" stroke-width="3.0" fill="none" stroke="rgb(0, -1, 0)" stroke-opacity="0.98213434" stroke-linecap="round" stroke-linejoin="round"/>
    <path d="M 152.2427215576172 70.50609588623047 C 149.478759765625 101.28572082519531 146.5819091796875 62.21274185180664 109.06181335449219 76.84184265136719" stroke-width="3.0" fill="none" stroke="rgb(0, -1, 2)" stroke-opacity="0.9873773" stroke-linecap="round" stroke-linejoin="round"/>
    <path d="M 144.8805694580078 88.50743865966797 C 134.97642517089844 171.9061279296875 153.63229370117188 148.81961059570312 122.19830322265625 100.32273864746094" stroke-width="3.0" fill="none" stroke="rgb(0, 0, 0)" stroke-opacity="-0.0018898137" stroke-linecap="round" stroke-linejoin="round"/>
    <path d="M 144.2822723388672 78.42235565185547 C 184.597900390625 42.41519546508789 193.0220489501953 89.85281372070312 185.36715698242188 103.01651000976562" stroke-width="3.0" fill="none" stroke="rgb(0, 0, 0)" stroke-opacity="0.07679769" stroke-linecap="round" stroke-linejoin="round"/>
    <path d="M 53.00484848022461 101.37809753417969 C 90.54529571533203 141.79019165039062 99.63148498535156 118.14500427246094 97.1589126586914 54.99264144897461" stroke-width="3.0" fill="none" stroke="rgb(-1, -1, 1)" stroke-opacity="1.0032731" stroke-linecap="round" stroke-linejoin="round"/>
    <path d="M 47.33076858520508 188.80325317382812 C 32.576751708984375 185.0276641845703 101.1332015991211 205.73272705078125 138.0143280029297 149.72178649902344" stroke-width="3.0" fill="none" stroke="rgb(-1, -1, 1)" stroke-opacity="1.0056665" stroke-linecap="round" stroke-linejoin="round"/>
    <path d="M 33.18583297729492 93.76217651367188 C 60.72464370727539 49.83158874511719 29.029706954956055 93.31670379638672 46.117130279541016 96.30958557128906" stroke-width="3.0" fill="none" stroke="rgb(0, -1, 0)" stroke-opacity="1.0049461" stroke-linecap="round" stroke-linejoin="round"/>
    <path d="M 107.90714263916016 107.50041961669922 C 117.22016143798828 146.9645233154297 103.38446807861328 163.9276580810547 87.77631378173828 108.02008819580078" stroke-width="3.0" fill="none" stroke="rgb(0, -1, 1)" stroke-opacity="0.9988305" stroke-linecap="round" stroke-linejoin="round"/>
    <path d="M 74.20159149169922 179.48941040039062 C 89.49274444580078 195.03341674804688 128.35923767089844 215.75274658203125 122.13853454589844 184.82522583007812" stroke-width="3.0" fill="none" stroke="rgb(0, 0, 0)" stroke-opacity="0.16996682" stroke-linecap="round" stroke-linejoin="round"/>
    <path d="M 193.86520385742188 68.43928527832031 C 209.4030303955078 95.45490264892578 200.02601623535156 109.72200012207031 174.5055694580078 90.71708679199219" stroke-width="3.0" fill="none" stroke="rgb(-1, 0, 0)" stroke-opacity="1.003116" stroke-linecap="round" stroke-linejoin="round"/>
    <path d="M 99.26004028320312 60.5275764465332 C 140.13731384277344 28.968721389770508 199.1351776123047 91.11492919921875 111.48640441894531 89.5426025390625" stroke-width="3.0" fill="none" stroke="rgb(0, 0, 0)" stroke-opacity="0.11958943" stroke-linecap="round" stroke-linejoin="round"/>
    <path d="M 102.34967041015625 153.21823120117188 C 109.00151062011719 125.76514434814453 95.59569549560547 128.48106384277344 102.46534729003906 154.63136291503906" stroke-width="3.0" fill="none" stroke="rgb(0, -1, 1)" stroke-opacity="1.0025016" stroke-linecap="round" stroke-linejoin="round"/>
    <path d="M 133.8917236328125 156.5415496826172 C 140.19442749023438 132.17108154296875 152.83456420898438 115.96662902832031 140.9037322998047 105.77513122558594" stroke-width="3.0" fill="none" stroke="rgb(0, -1, 1)" stroke-opacity="1.0050061" stroke-linecap="round" stroke-linejoin="round"/>
    <path d="M 83.46888732910156 50.44844436645508 C 52.744266510009766 11.734228134155273 72.2814712524414 -16.809070587158203 134.93553161621094 -10.091012954711914" stroke-width="3.0" fill="none" stroke="rgb(0, 0, 0)" stroke-opacity="0.004975167" stroke-linecap="round" stroke-linejoin="round"/>
    <path d="M 142.79176330566406 117.04342651367188 C 56.12065505981445 115.74468994140625 80.94087219238281 145.10244750976562 97.47512817382812 75.23712158203125" stroke-width="3.0" fill="none" stroke="rgb(-1, -1, 1)" stroke-opacity="0.6058236" stroke-linecap="round" stroke-linejoin="round"/>
    <path d="M 166.84555053710938 50.469932556152344 C 150.1147918701172 63.894309997558594 129.15899658203125 90.6604995727539 131.0433349609375 91.1882095336914" stroke-width="3.0" fill="none" stroke="rgb(0, 0, 0)" stroke-opacity="-0.0010784996" stroke-linecap="round" stroke-linejoin="round"/>
    <path d="M 102.4446029663086 93.25728607177734 C 98.76652526855469 92.46563720703125 87.2498550415039 98.43833923339844 91.32588195800781 86.018798828125" stroke-width="3.0" fill="none" stroke="rgb(0, 0, 0)" stroke-opacity="0.036828212" stroke-linecap="round" stroke-linejoin="round"/>
    <path d="M 96.76166534423828 96.72543334960938 C 68.76191711425781 50.95933151245117 88.15095520019531 38.98601150512695 101.3221206665039 62.16987609863281" stroke-width="3.0" fill="none" stroke="rgb(0, 0, 1)" stroke-opacity="0.9082448" stroke-linecap="round" stroke-linejoin="round"/>
    <path d="M 89.03169250488281 176.88275146484375 C 78.01132202148438 195.27801513671875 113.46135711669922 192.8781280517578 85.80596160888672 196.78195190429688" stroke-width="3.0" fill="none" stroke="rgb(0, 0, 0)" stroke-opacity="-0.004317785" stroke-linecap="round" stroke-linejoin="round"/>
    <path d="M 174.50747680664062 104.2614974975586 C 182.3446044921875 108.19026947021484 153.89907836914062 135.02664184570312 144.90707397460938 70.62547302246094" stroke-width="3.0" fill="none" stroke="rgb(0, -1, 0)" stroke-opacity="1.003273" stroke-linecap="round" stroke-linejoin="round"/>
    <path d="M 180.91554260253906 105.06690216064453 C 149.28109741210938 45.69114685058594 155.5480499267578 36.152381896972656 185.51583862304688 79.54408264160156" stroke-width="3.0" fill="none" stroke="rgb(0, 0, 0)" stroke-opacity="0.03293495" stroke-linecap="round" stroke-linejoin="round"/>
    <path d="M 7.316988468170166 72.93482971191406 C 60.84982681274414 119.45368194580078 49.43122100830078 109.56175994873047 63.9073486328125 84.28177642822266" stroke-width="3.0" fill="none" stroke="rgb(0, 0, 0)" stroke-opacity="1.0022436" stroke-linecap="round" stroke-linejoin="round"/>
    <path d="M 159.76573181152344 97.1170654296875 C 145.454345703125 96.50629425048828 131.58114624023438 82.63848876953125 127.63398742675781 87.51058959960938" stroke-width="3.0" fill="none" stroke="rgb(0, -2, 1)" stroke-opacity="0.14925985" stroke-linecap="round" stroke-linejoin="round"/>
    <path d="M 102.76885986328125 142.61566162109375 C 100.73018646240234 146.29208374023438 106.87952423095703 79.38973236083984 97.43927001953125 74.11687469482422" stroke-width="3.0" fill="none" stroke="rgb(0, 0, 0)" stroke-opacity="0.99527746" stroke-linecap="round" stroke-linejoin="round"/>
    <path d="M 161.58953857421875 109.544189453125 C 166.62823486328125 153.0347900390625 152.4071044921875 151.15640258789062 147.2682647705078 114.74514770507812" stroke-width="3.0" fill="none" stroke="rgb(0, 0, 0)" stroke-opacity="1.0020336" stroke-linecap="round" stroke-linejoin="round"/>
    <path d="M 162.54640197753906 45.15660858154297 C 189.17459106445312 135.21322631835938 181.0336151123047 104.17510223388672 126.52082061767578 87.5818862915039" stroke-width="3.0" fill="none" stroke="rgb(0, 0, 0)" stroke-opacity="0.0022602873" stroke-linecap="round" stroke-linejoin="round"/>
    <path d="M 83.9360122680664 120.20085144042969 C 105.04438018798828 81.0003433227539 94.21326446533203 95.22664642333984 98.79076385498047 82.13482666015625" stroke-width="3.0" fill="none" stroke="rgb(-2, -1, 1)" stroke-opacity="1.0030528" stroke-linecap="round" stroke-linejoin="round"/>
    <path d="M 61.044593811035156 122.57620239257812 C 63.69060134887695 153.37123107910156 71.6095962524414 162.69752502441406 75.6549072265625 159.24925231933594" stroke-width="3.0" fill="none" stroke="rgb(-2, -1, 2)" stroke-opacity="0.98506176" stroke-linecap="round" stroke-linejoin="round"/>
    <path d="M 156.86231994628906 217.14710998535156 C 76.72837829589844 214.3453369140625 88.19910430908203 217.80592346191406 112.29483795166016 228.55860900878906" stroke-width="3.0" fill="none" stroke="rgb(0, -1, 0)" stroke-opacity="1.0040575" stroke-linecap="round" stroke-linejoin="round"/>
    <path d="M 42.260128021240234 133.17279052734375 C 45.546791076660156 126.64173126220703 67.33174133300781 130.68275451660156 86.14995574951172 160.55630493164062" stroke-width="3.0" fill="none" stroke="rgb(0, 0, 0)" stroke-opacity="0.015397423" stroke-linecap="round" stroke-linejoin="round"/>
    <path d="M 167.39712524414062 179.57327270507812 C 167.34153747558594 180.86965942382812 167.07937622070312 179.55006408691406 165.9680633544922 174.9615020751953" stroke-width="3.0" fill="none" stroke="rgb(0, 0, 0)" stroke-opacity="-0.0028506194" stroke-linecap="round" stroke-linejoin="round"/>
    <path d="M 124.48120880126953 176.17691040039062 C 141.70907592773438 124.72152709960938 154.90225219726562 108.7775650024414 120.9659423828125 199.8627166748047" stroke-width="3.0" fill="none" stroke="rgb(-1, -1, 1)" stroke-opacity="0.97169966" stroke-linecap="round" stroke-linejoin="round"/>
    <path d="M 43.170204162597656 170.24948120117188 C 35.53632736206055 116.84288024902344 64.73262023925781 144.69003295898438 77.88871765136719 124.6606674194336" stroke-width="3.0" fill="none" stroke="rgb(0, 0, 0)" stroke-opacity="-0.0029205345" stroke-linecap="round" stroke-linejoin="round"/>
    <path d="M 112.5028076171875 15.498284339904785 C 111.11280822753906 26.68912696838379 100.47956848144531 67.3144760131836 98.00056457519531 68.2173843383789" stroke-width="3.0" fill="none" stroke="rgb(0, 0, 0)" stroke-opacity="-0.008212753" stroke-linecap="round" stroke-linejoin="round"/>
    <path d="M 142.5855255126953 206.80126953125 C 170.9911651611328 214.49349975585938 157.85743713378906 231.31814575195312 128.0499267578125 234.21217346191406" stroke-width="3.0" fill="none" stroke="rgb(0, 0, 0)" stroke-opacity="0.99938476" stroke-linecap="round" stroke-linejoin="round"/>
    <path d="M 6.537703037261963 68.66900634765625 C 60.44915771484375 -12.569830894470215 81.2561264038086 14.83123779296875 86.00408172607422 74.15174865722656" stroke-width="3.0" fill="none" stroke="rgb(-1, -1, 1)" stroke-opacity="1.0033925" stroke-linecap="round" stroke-linejoin="round"/>
    <path d="M 129.26133728027344 62.40818786621094 C 160.27195739746094 2.043137550354004 145.47433471679688 24.48651123046875 153.42942810058594 27.548744201660156" stroke-width="3.0" fill="none" stroke="rgb(0, 0, 0)" stroke-opacity="-0.002140744" stroke-linecap="round" stroke-linejoin="round"/>
    <path d="M 162.19773864746094 36.66960906982422 C 136.0614471435547 -4.326018810272217 150.44752502441406 33.11827850341797 152.46893310546875 18.4023494720459" stroke-width="3.0" fill="none" stroke="rgb(0, 0, 1)" stroke-opacity="0.99427164" stroke-linecap="round" stroke-linejoin="round"/>
    <path d="M 122.91374206542969 86.94904327392578 C 124.01546478271484 84.90380096435547 97.99513244628906 141.33865356445312 114.56358337402344 183.3872528076172" stroke-width="3.0" fill="none" stroke="rgb(0, 0, 0)" stroke-opacity="-0.004220135" stroke-linecap="round" stroke-linejoin="round"/>
    <path d="M 101.24110412597656 200.13616943359375 C 96.76134490966797 193.6270751953125 97.54796600341797 232.91209411621094 134.62979125976562 191.44781494140625" stroke-width="3.0" fill="none" stroke="rgb(0, 0, 0)" stroke-opacity="0.98684967" stroke-linecap="round" stroke-linejoin="round"/>
    <path d="M 157.72616577148438 142.980224609375 C 157.949951171875 239.102294921875 161.24459838867188 189.13766479492188 153.7198944091797 75.88847351074219" stroke-width="3.0" fill="none" stroke="rgb(0, 0, 0)" stroke-opacity="0.994839" stroke-linecap="round" stroke-linejoin="round"/>
    <path d="M 79.57563018798828 32.997562408447266 C 92.14562225341797 57.71573257446289 78.37000274658203 86.51554107666016 98.03217315673828 85.4512939453125" stroke-width="3.0" fill="none" stroke="rgb(-1, 0, 1)" stroke-opacity="0.9988072" stroke-linecap="round" stroke-linejoin="round"/>
    <path d="M 89.92404174804688 76.47399139404297 C 87.50694274902344 60.47024154663086 84.4561996459961 44.69953536987305 53.12373352050781 93.1595230102539" stroke-width="3.0" fill="none" stroke="rgb(0, 0, 0)" stroke-opacity="-0.00021897348" stroke-linecap="round" stroke-linejoin="round"/>
    <path d="M 75.3257827758789 33.36592102050781 C 91.90128326416016 88.45013427734375 86.01152801513672 56.095741271972656 94.14134216308594 80.08492279052734" stroke-width="3.0" fill="none" stroke="rgb(0, 0, 0)" stroke-opacity="0.86430633" stroke-linecap="round" stroke-linejoin="round"/>
    <path d="M 80.80636596679688 -4.898723125457764 C 89.44933319091797 15.335561752319336 115.15763854980469 21.64112091064453 104.60441589355469 39.37350082397461" stroke-width="3.0" fill="none" stroke="rgb(0, 0, 0)" stroke-opacity="-0.0055523342" stroke-linecap="round" stroke-linejoin="round"/>
    <path d="M 111.17063903808594 107.20794677734375 C 167.88063049316406 90.82986450195312 233.7137908935547 105.84454345703125 198.1532745361328 59.781166076660156" stroke-width="3.0" fill="none" stroke="rgb(0, 0, 0)" stroke-opacity="0.39003098" stroke-linecap="round" stroke-linejoin="round"/>
    <path d="M 91.81544494628906 109.22306060791016 C 102.62098693847656 171.51498413085938 102.4929428100586 174.64022827148438 105.93140411376953 127.65534210205078" stroke-width="3.0" fill="none" stroke="rgb(-1, -1, 1)" stroke-opacity="1.0027428" stroke-linecap="round" stroke-linejoin="round"/>
    <path d="M 183.69833374023438 64.5923843383789 C 176.25975036621094 62.392818450927734 175.8162841796875 66.59522247314453 167.1613311767578 55.15842819213867" stroke-width="3.0" fill="none" stroke="rgb(0, 0, 0)" stroke-opacity="-4.3869568e-05" stroke-linecap="round" stroke-linejoin="round"/>
    <path d="M 65.58399963378906 188.70579528808594 C 65.28496551513672 192.92684936523438 63.494415283203125 186.73072814941406 100.20648193359375 212.0601806640625" stroke-width="3.0" fill="none" stroke="rgb(-2, -1, 2)" stroke-opacity="0.3941149" stroke-linecap="round" stroke-linejoin="round"/>
    <path d="M 80.61880493164062 34.11369323730469 C 97.77783966064453 21.685579299926758 92.12236022949219 7.310588836669922 66.54676055908203 21.068981170654297" stroke-width="3.0" fill="none" stroke="rgb(0, 0, 0)" stroke-opacity="0.03778567" stroke-linecap="round" stroke-linejoin="round"/>
    <path d="M 167.39007568359375 27.279117584228516 C 210.16876220703125 21.18476676940918 169.38035583496094 9.569296836853027 169.65135192871094 46.419395446777344" stroke-width="3.0" fill="none" stroke="rgb(0, 0, 0)" stroke-opacity="0.007751228" stroke-linecap="round" stroke-linejoin="round"/>
    <path d="M 222.5544891357422 67.81676483154297 C 202.53030395507812 4.590540409088135 165.85069274902344 17.130958557128906 161.02984619140625 44.52933883666992" stroke-width="3.0" fill="none" stroke="rgb(-1, -1, 1)" stroke-opacity="0.9991566" stroke-linecap="round" stroke-linejoin="round"/>
    <path d="M 90.83236694335938 137.744140625 C 111.45686340332031 89.37752532958984 129.5052490234375 52.05781936645508 115.14517211914062 147.78134155273438" stroke-width="3.0" fill="none" stroke="rgb(0, 0, 0)" stroke-opacity="0.038382795" stroke-linecap="round" stroke-linejoin="round"/>
    <path d="M 91.73721313476562 25.267364501953125 C 90.76939392089844 51.68519592285156 75.88093566894531 56.562129974365234 84.09272766113281 59.099151611328125" stroke-width="3.0" fill="none" stroke="rgb(0, 0, 1)" stroke-opacity="0.98593014" stroke-linecap="round" stroke-linejoin="round"/>
    <path d="M 73.3235092163086 68.10145568847656 C 51.91386032104492 73.75565338134766 77.04751586914062 63.915897369384766 89.94734954833984 69.76067352294922" stroke-width="3.0" fill="none" stroke="rgb(0, 0, 0)" stroke-opacity="-1.2261136e-06" stroke-linecap="round" stroke-linejoin="round"/>
    <path d="M 218.28688049316406 77.00200653076172 C 218.36940002441406 34.58804702758789 193.08204650878906 39.62889862060547 161.14895629882812 41.115962982177734" stroke-width="3.0" fill="none" stroke="rgb(0, 0, 0)" stroke-opacity="0.033481933" stroke-linecap="round" stroke-linejoin="round"/>
    <path d="M 111.24530029296875 138.64166259765625 C 80.75592041015625 186.360595703125 46.40920639038086 207.22988891601562 118.99752044677734 208.34693908691406" stroke-width="3.0" fill="none" stroke="rgb(0, -1, 1)" stroke-opacity="0.21826686" stroke-linecap="round" stroke-linejoin="round"/>
    <path d="M 88.20416259765625 69.25897979736328 C 90.9300308227539 95.20747375488281 91.70899963378906 97.0880355834961 100.04298400878906 63.38835906982422" stroke-width="3.0" fill="none" stroke="rgb(-1, 0, 1)" stroke-opacity="0.99651605" stroke-linecap="round" stroke-linejoin="round"/>
    <path d="M -0.07837184518575668 130.9736328125 C 49.34049987792969 150.11282348632812 89.2882308959961 157.4818878173828 91.5799331665039 185.85617065429688" stroke-width="3.0" fill="none" stroke="rgb(0, 0, 0)" stroke-opacity="0.0011245871" stroke-linecap="round" stroke-linejoin="round"/>
    <path d="M 92.56448364257812 117.07386779785156 C 106.23062896728516 94.13946533203125 131.2466278076172 108.50727844238281 132.98391723632812 105.85142517089844" stroke-width="3.0" fill="none" stroke="rgb(0, 0, 0)" stroke-opacity="0.010182669" stroke-linecap="round" stroke-linejoin="round"/>
    <path d="M 121.87554168701172 60.43241882324219 C 140.76211547851562 61.58557891845703 151.43817138671875 63.79607391357422 153.59478759765625 95.39065551757812" stroke-width="3.0" fill="none" stroke="rgb(-3, -3, 2)" stroke-opacity="1.0062809" stroke-linecap="round" stroke-linejoin="round"/>
    <path d="M 86.59971618652344 39.72306442260742 C 95.61857604980469 27.158958435058594 68.82736206054688 40.111717224121094 101.98186492919922 17.668907165527344" stroke-width="3.0" fill="none" stroke="rgb(0, 0, 0)" stroke-opacity="0.9895078" stroke-linecap="round" stroke-linejoin="round"/>
    <path d="M 89.87126922607422 40.20655059814453 C 58.364471435546875 47.611045837402344 106.65504455566406 60.35891342163086 110.19960021972656 140.48341369628906" stroke-width="3.0" fill="none" stroke="rgb(0, 0, 1)" stroke-opacity="0.9860676" stroke-linecap="round" stroke-linejoin="round"/>
    <path d="M 100.10523223876953 66.75920867919922 C 111.89676666259766 115.38350677490234 128.8922576904297 106.71347045898438 100.9275894165039 114.5423812866211" stroke-width="3.0" fill="none" stroke="rgb(0, 0, 0)" stroke-opacity="-0.0042130016" stroke-linecap="round" stroke-linejoin="round"/>
    <path d="M 104.123779296875 137.96432495117188 C 67.82074737548828 95.8357162475586 51.54680633544922 102.32181549072266 73.5160140991211 154.1813201904297" stroke-width="3.0" fill="none" stroke="rgb(-1, -1, 2)" stroke-opacity="1.0015819" stroke-linecap="round" stroke-linejoin="round"/>
    <path d="M 81.6462173461914 58.74884796142578 C 92.27002716064453 104.07328796386719 96.64279174804688 45.06911849975586 144.6400909423828 66.24420928955078" stroke-width="3.0" fill="none" stroke="rgb(0, -1, 1)" stroke-opacity="0.60866606" stroke-linecap="round" stroke-linejoin="round"/>
    <path d="M 159.10572814941406 56.55733108520508 C 132.18338012695312 84.6438980102539 156.3970184326172 50.90418243408203 164.21475219726562 45.34586715698242" stroke-width="3.0" fill="none" stroke="rgb(0, -1, 1)" stroke-opacity="1.0031147" stroke-linecap="round" stroke-linejoin="round"/>
    <path d="M 155.39480590820312 204.81288146972656 C 151.06521606445312 213.27316284179688 156.24374389648438 198.6754150390625 160.36209106445312 153.68661499023438" stroke-width="3.0" fill="none" stroke="rgb(-1, -1, 0)" stroke-opacity="0.5816546" stroke-linecap="round" stroke-linejoin="round"/>
    <path d="M 163.82052612304688 -3.3619987964630127 C 153.8516082763672 -0.0022996433544903994 162.36619567871094 -4.606964588165283 157.40292358398438 -2.3174824714660645" stroke-width="3.0" fill="none" stroke="rgb(0, 0, 0)" stroke-opacity="0.72395027" stroke-linecap="round" stroke-linejoin="round"/>
  </g>
</svg>
