<?xml version="1.0" ?>
<svg xmlns="http://www.w3.org/2000/svg" version="1.1" width="224" height="224">
  <defs/>
  <g>
    <path d="M 71.0 137.0 C 72.19596099853516 137.7522430419922 68.19985961914062 135.08010864257812 72.42896270751953 129.712158203125" stroke-width="3.0" fill="none" stroke="rgb(0, 0, 0)" stroke-opacity="1.0" stroke-linecap="round" stroke-linejoin="round"/>
    <path d="M 98.0 103.0 C 99.27473449707031 99.71267700195312 100.87480926513672 100.12171936035156 105.5733871459961 99.6109848022461" stroke-width="3.0" fill="none" stroke="rgb(0, 0, 0)" stroke-opacity="1.0" stroke-linecap="round" stroke-linejoin="round"/>
    <path d="M 73.0 196.0 C 73.63182067871094 195.3934326171875 70.82462310791016 190.12832641601562 68.15674591064453 193.55938720703125" stroke-width="3.0" fill="none" stroke="rgb(0, 0, 0)" stroke-opacity="1.0" stroke-linecap="round" stroke-linejoin="round"/>
    <path d="M 83.0 134.0 C 88.29827880859375 131.761474609375 89.4632797241211 134.33145141601562 93.7491226196289 129.47975158691406" stroke-width="3.0" fill="none" stroke="rgb(0, 0, 0)" stroke-opacity="1.0" stroke-linecap="round" stroke-linejoin="round"/>
    <path d="M 93.0 88.0 C 95.92816925048828 84.8473892211914 95.14091491699219 90.1075439453125 96.97596740722656 92.6680679321289" stroke-width="3.0" fill="none" stroke="rgb(0, 0, 0)" stroke-opacity="1.0" stroke-linecap="round" stroke-linejoin="round"/>
    <path d="M 180.0 76.0 C 182.3205108642578 78.33849334716797 187.71725463867188 81.65361022949219 190.7880859375 81.75914764404297" stroke-width="3.0" fill="none" stroke="rgb(0, 0, 0)" stroke-opacity="1.0" stroke-linecap="round" stroke-linejoin="round"/>
    <path d="M 129.0 202.0 C 130.23220825195312 203.3512725830078 129.3863067626953 201.59373474121094 126.80936431884766 197.9801788330078" stroke-width="3.0" fill="none" stroke="rgb(0, 0, 0)" stroke-opacity="1.0" stroke-linecap="round" stroke-linejoin="round"/>
    <path d="M 82.0 36.0 C 85.63129425048828 31.82466697692871 84.92154693603516 31.631057739257812 88.58612823486328 35.60276412963867" stroke-width="3.0" fill="none" stroke="rgb(0, 0, 0)" stroke-opacity="1.0" stroke-linecap="round" stroke-linejoin="round"/>
    <path d="M 91.0 143.0 C 90.29838562011719 137.8104705810547 88.55602264404297 139.8297119140625 86.95993041992188 136.04769897460938" stroke-width="3.0" fill="none" stroke="rgb(0, 0, 0)" stroke-opacity="1.0" stroke-linecap="round" stroke-linejoin="round"/>
    <path d="M 140.0 85.0 C 141.5067596435547 82.39789581298828 146.73025512695312 86.3270263671875 148.295166015625 81.04502868652344" stroke-width="3.0" fill="none" stroke="rgb(0, 0, 0)" stroke-opacity="1.0" stroke-linecap="round" stroke-linejoin="round"/>
    <path d="M 142.0 26.0 C 143.48831176757812 28.82857322692871 137.96107482910156 23.846776962280273 138.83782958984375 23.288827896118164" stroke-width="3.0" fill="none" stroke="rgb(0, 0, 0)" stroke-opacity="1.0" stroke-linecap="round" stroke-linejoin="round"/>
    <path d="M 66.0 23.0 C 66.47393035888672 22.18281364440918 62.36237335205078 22.819074630737305 62.06438446044922 20.11911392211914" stroke-width="3.0" fill="none" stroke="rgb(0, 0, 0)" stroke-opacity="1.0" stroke-linecap="round" stroke-linejoin="round"/>
    <path d="M 104.0 157.0 C 99.62137603759766 154.34872436523438 103.3906021118164 155.12074279785156 104.93106079101562 160.60238647460938" stroke-width="3.0" fill="none" stroke="rgb(0, 0, 0)" stroke-opacity="1.0" stroke-linecap="round" stroke-linejoin="round"/>
    <path d="M 77.0 63.0 C 77.99829864501953 60.54412841796875 78.37812042236328 62.01816940307617 79.1594467163086 58.83085250854492" stroke-width="3.0" fill="none" stroke="rgb(0, 0, 0)" stroke-opacity="1.0" stroke-linecap="round" stroke-linejoin="round"/>
    <path d="M 80.0 105.0 C 77.73140716552734 99.99726104736328 81.26287841796875 95.4457015991211 86.09355163574219 100.04859924316406" stroke-width="3.0" fill="none" stroke="rgb(0, 0, 0)" stroke-opacity="1.0" stroke-linecap="round" stroke-linejoin="round"/>
    <path d="M 144.0 159.0 C 139.7044219970703 154.71685791015625 141.3514862060547 158.25547790527344 140.89401245117188 162.62127685546875" stroke-width="3.0" fill="none" stroke="rgb(0, 0, 0)" stroke-opacity="1.0" stroke-linecap="round" stroke-linejoin="round"/>
    <path d="M 141.0 186.0 C 137.58013916015625 183.8880157470703 140.04653930664062 188.5669708251953 140.49105834960938 188.2194061279297" stroke-width="3.0" fill="none" stroke="rgb(0, 0, 0)" stroke-opacity="1.0" stroke-linecap="round" stroke-linejoin="round"/>
    <path d="M 158.0 53.0 C 152.8265380859375 48.818241119384766 154.61256408691406 44.566802978515625 155.52359008789062 41.444610595703125" stroke-width="3.0" fill="none" stroke="rgb(0, 0, 0)" stroke-opacity="1.0" stroke-linecap="round" stroke-linejoin="round"/>
    <path d="M 143.0 36.0 C 147.7256622314453 37.99580001831055 144.96812438964844 37.12644958496094 144.3745574951172 40.5449333190918" stroke-width="3.0" fill="none" stroke="rgb(0, 0, 0)" stroke-opacity="1.0" stroke-linecap="round" stroke-linejoin="round"/>
    <path d="M 70.0 96.0 C 73.323974609375 91.17174530029297 67.80984497070312 92.22972869873047 64.52059936523438 89.98985290527344" stroke-width="3.0" fill="none" stroke="rgb(0, 0, 0)" stroke-opacity="1.0" stroke-linecap="round" stroke-linejoin="round"/>
    <path d="M 76.0 139.0 C 73.69583892822266 137.01980590820312 72.39704132080078 136.6919403076172 70.492431640625 135.20321655273438" stroke-width="3.0" fill="none" stroke="rgb(0, 0, 0)" stroke-opacity="1.0" stroke-linecap="round" stroke-linejoin="round"/>
    <path d="M 132.0 22.0 C 133.40748596191406 20.135217666625977 133.89364624023438 22.186105728149414 138.4577178955078 25.783710479736328" stroke-width="3.0" fill="none" stroke="rgb(0, 0, 0)" stroke-opacity="1.0" stroke-linecap="round" stroke-linejoin="round"/>
    <path d="M 79.0 173.0 C 82.61421966552734 174.20565795898438 79.07334899902344 169.9034423828125 80.71573638916016 167.13482666015625" stroke-width="3.0" fill="none" stroke="rgb(0, 0, 0)" stroke-opacity="1.0" stroke-linecap="round" stroke-linejoin="round"/>
    <path d="M 181.0 35.0 C 180.46609497070312 34.1225471496582 178.9853973388672 33.21555709838867 182.62582397460938 38.23280715942383" stroke-width="3.0" fill="none" stroke="rgb(0, 0, 0)" stroke-opacity="1.0" stroke-linecap="round" stroke-linejoin="round"/>
    <path d="M 152.0 57.000003814697266 C 155.80374145507812 56.21772766113281 157.38726806640625 60.74709701538086 156.57994079589844 55.53111267089844" stroke-width="3.0" fill="none" stroke="rgb(0, 0, 0)" stroke-opacity="1.0" stroke-linecap="round" stroke-linejoin="round"/>
    <path d="M 185.0 44.0 C 189.91064453125 39.70998764038086 190.0060272216797 38.078739166259766 190.7620086669922 38.152042388916016" stroke-width="3.0" fill="none" stroke="rgb(0, 0, 0)" stroke-opacity="1.0" stroke-linecap="round" stroke-linejoin="round"/>
    <path d="M 113.0 176.0 C 110.72692108154297 174.68365478515625 105.9718246459961 171.48365783691406 100.47923278808594 170.5464324951172" stroke-width="3.0" fill="none" stroke="rgb(0, 0, 0)" stroke-opacity="1.0" stroke-linecap="round" stroke-linejoin="round"/>
    <path d="M 122.0 189.0 C 119.19163513183594 184.97518920898438 122.06385803222656 179.72122192382812 126.03742218017578 175.29736328125" stroke-width="3.0" fill="none" stroke="rgb(0, 0, 0)" stroke-opacity="1.0" stroke-linecap="round" stroke-linejoin="round"/>
    <path d="M 76.0 35.0 C 76.12960815429688 35.25321578979492 78.91377258300781 38.95066452026367 74.39254760742188 34.98075866699219" stroke-width="3.0" fill="none" stroke="rgb(0, 0, 0)" stroke-opacity="1.0" stroke-linecap="round" stroke-linejoin="round"/>
    <path d="M 150.0 36.0 C 151.64170837402344 36.10713195800781 149.11256408691406 41.44902801513672 148.91700744628906 38.1015739440918" stroke-width="3.0" fill="none" stroke="rgb(0, 0, 0)" stroke-opacity="1.0" stroke-linecap="round" stroke-linejoin="round"/>
    <path d="M 171.0 54.0 C 167.7120819091797 53.417850494384766 171.00247192382812 50.23345947265625 176.55010986328125 55.37846374511719" stroke-width="3.0" fill="none" stroke="rgb(0, 0, 0)" stroke-opacity="1.0" stroke-linecap="round" stroke-linejoin="round"/>
    <path d="M 150.0 129.0 C 152.2428741455078 131.93865966796875 150.58323669433594 133.52024841308594 150.99917602539062 128.0520782470703" stroke-width="3.0" fill="none" stroke="rgb(0, 0, 0)" stroke-opacity="1.0" stroke-linecap="round" stroke-linejoin="round"/>
    <path d="M 81.0 164.0 C 77.59620666503906 159.6312713623047 72.695556640625 164.85899353027344 76.46790313720703 169.9548797607422" stroke-width="3.0" fill="none" stroke="rgb(0, 0, 0)" stroke-opacity="1.0" stroke-linecap="round" stroke-linejoin="round"/>
    <path d="M 77.0 36.0 C 82.21253967285156 37.58995056152344 81.18412017822266 42.33912658691406 80.57820129394531 37.7135009765625" stroke-width="3.0" fill="none" stroke="rgb(0, 0, 0)" stroke-opacity="1.0" stroke-linecap="round" stroke-linejoin="round"/>
    <path d="M 129.0 100.0 C 134.24658203125 104.2616958618164 138.83517456054688 99.07616424560547 143.38226318359375 94.62181854248047" stroke-width="3.0" fill="none" stroke="rgb(0, 0, 0)" stroke-opacity="1.0" stroke-linecap="round" stroke-linejoin="round"/>
    <path d="M 78.0 85.0 C 82.45600891113281 87.38322448730469 77.98246002197266 82.39302062988281 73.41378784179688 81.72373962402344" stroke-width="3.0" fill="none" stroke="rgb(0, 0, 0)" stroke-opacity="1.0" stroke-linecap="round" stroke-linejoin="round"/>
    <path d="M 60.0 89.0 C 59.59733200073242 91.01171875 57.80424118041992 87.19544982910156 53.327938079833984 86.42994689941406" stroke-width="3.0" fill="none" stroke="rgb(0, 0, 0)" stroke-opacity="1.0" stroke-linecap="round" stroke-linejoin="round"/>
    <path d="M 69.0 114.00000762939453 C 69.7057113647461 113.53190612792969 69.12731170654297 110.909912109375 65.8206787109375 112.10623931884766" stroke-width="3.0" fill="none" stroke="rgb(0, 0, 0)" stroke-opacity="1.0" stroke-linecap="round" stroke-linejoin="round"/>
    <path d="M 61.999996185302734 51.0 C 57.35943603515625 56.03107452392578 57.344791412353516 51.489871978759766 55.224830627441406 54.544612884521484" stroke-width="3.0" fill="none" stroke="rgb(0, 0, 0)" stroke-opacity="1.0" stroke-linecap="round" stroke-linejoin="round"/>
    <path d="M 181.0 29.0 C 184.57757568359375 31.607765197753906 181.70106506347656 34.701725006103516 185.596923828125 36.549598693847656" stroke-width="3.0" fill="none" stroke="rgb(0, 0, 0)" stroke-opacity="1.0" stroke-linecap="round" stroke-linejoin="round"/>
    <path d="M 121.00000762939453 142.0 C 125.10625457763672 145.75502014160156 127.22024536132812 149.214111328125 121.83728790283203 153.5773468017578" stroke-width="3.0" fill="none" stroke="rgb(0, 0, 0)" stroke-opacity="1.0" stroke-linecap="round" stroke-linejoin="round"/>
    <path d="M 143.0 78.0 C 148.4263153076172 73.66722869873047 144.45440673828125 77.40852355957031 145.56716918945312 75.2376937866211" stroke-width="3.0" fill="none" stroke="rgb(0, 0, 0)" stroke-opacity="1.0" stroke-linecap="round" stroke-linejoin="round"/>
    <path d="M 76.0 118.0 C 79.09597778320312 115.24058532714844 76.39067077636719 110.06988525390625 79.50698852539062 110.85023498535156" stroke-width="3.0" fill="none" stroke="rgb(0, 0, 0)" stroke-opacity="1.0" stroke-linecap="round" stroke-linejoin="round"/>
    <path d="M 57.000003814697266 59.0 C 52.40624237060547 53.700653076171875 57.91063690185547 51.708187103271484 54.770023345947266 54.71461868286133" stroke-width="3.0" fill="none" stroke="rgb(0, 0, 0)" stroke-opacity="1.0" stroke-linecap="round" stroke-linejoin="round"/>
    <path d="M 81.0 41.0 C 84.18958282470703 37.77751159667969 89.07584381103516 42.85688018798828 88.43604278564453 48.20156478881836" stroke-width="3.0" fill="none" stroke="rgb(0, 0, 0)" stroke-opacity="1.0" stroke-linecap="round" stroke-linejoin="round"/>
    <path d="M 97.0 104.0 C 96.53083801269531 109.55310821533203 100.68045043945312 113.76361846923828 99.3355712890625 114.51911926269531" stroke-width="3.0" fill="none" stroke="rgb(0, 0, 0)" stroke-opacity="1.0" stroke-linecap="round" stroke-linejoin="round"/>
    <path d="M 38.0 55.0 C 37.76496505737305 58.42723846435547 32.36052703857422 59.82981491088867 30.462722778320312 59.036109924316406" stroke-width="3.0" fill="none" stroke="rgb(0, 0, 0)" stroke-opacity="1.0" stroke-linecap="round" stroke-linejoin="round"/>
    <path d="M 200.0 61.999996185302734 C 197.652099609375 58.4881477355957 192.3345489501953 56.577789306640625 190.13821411132812 51.30655288696289" stroke-width="3.0" fill="none" stroke="rgb(0, 0, 0)" stroke-opacity="1.0" stroke-linecap="round" stroke-linejoin="round"/>
    <path d="M 98.0 88.0 C 94.59608459472656 85.40144348144531 90.00483703613281 86.5201187133789 91.71756744384766 88.33676147460938" stroke-width="3.0" fill="none" stroke="rgb(0, 0, 0)" stroke-opacity="1.0" stroke-linecap="round" stroke-linejoin="round"/>
    <path d="M 126.0 202.0 C 124.24576568603516 199.83096313476562 119.73799896240234 194.24075317382812 124.09210205078125 195.88851928710938" stroke-width="3.0" fill="none" stroke="rgb(0, 0, 0)" stroke-opacity="1.0" stroke-linecap="round" stroke-linejoin="round"/>
    <path d="M 101.0 104.0 C 104.83428955078125 98.43597412109375 104.60613250732422 96.75830841064453 99.29684448242188 101.03093719482422" stroke-width="3.0" fill="none" stroke="rgb(0, 0, 0)" stroke-opacity="1.0" stroke-linecap="round" stroke-linejoin="round"/>
    <path d="M 96.0 156.0 C 96.87947082519531 154.6326904296875 100.28231048583984 157.3834228515625 96.48683166503906 159.09107971191406" stroke-width="3.0" fill="none" stroke="rgb(0, 0, 0)" stroke-opacity="1.0" stroke-linecap="round" stroke-linejoin="round"/>
    <path d="M 126.0 178.0 C 129.9213409423828 182.89547729492188 130.14280700683594 185.58511352539062 133.56529235839844 188.2630157470703" stroke-width="3.0" fill="none" stroke="rgb(0, 0, 0)" stroke-opacity="1.0" stroke-linecap="round" stroke-linejoin="round"/>
    <path d="M 92.0 81.0 C 86.79582977294922 86.30021667480469 91.5477066040039 90.15087127685547 93.3250732421875 90.3697509765625" stroke-width="3.0" fill="none" stroke="rgb(0, 0, 0)" stroke-opacity="1.0" stroke-linecap="round" stroke-linejoin="round"/>
    <path d="M 82.0 137.0 C 82.78178405761719 139.20352172851562 88.30461883544922 138.0011444091797 93.80265808105469 143.28341674804688" stroke-width="3.0" fill="none" stroke="rgb(0, 0, 0)" stroke-opacity="1.0" stroke-linecap="round" stroke-linejoin="round"/>
    <path d="M 182.0 54.0 C 177.22503662109375 54.54597854614258 181.31646728515625 54.258934020996094 183.75677490234375 53.53758239746094" stroke-width="3.0" fill="none" stroke="rgb(0, 0, 0)" stroke-opacity="1.0" stroke-linecap="round" stroke-linejoin="round"/>
    <path d="M 76.0 160.0 C 77.55797576904297 165.46568298339844 74.54097747802734 165.5350799560547 72.63687133789062 160.28131103515625" stroke-width="3.0" fill="none" stroke="rgb(0, 0, 0)" stroke-opacity="1.0" stroke-linecap="round" stroke-linejoin="round"/>
    <path d="M 183.0 61.0 C 182.4442901611328 60.72509002685547 181.71853637695312 57.08652114868164 177.45108032226562 52.15419006347656" stroke-width="3.0" fill="none" stroke="rgb(0, 0, 0)" stroke-opacity="1.0" stroke-linecap="round" stroke-linejoin="round"/>
    <path d="M 71.0 115.0 C 70.119873046875 115.92799377441406 73.05086517333984 112.80570983886719 71.52284240722656 110.32757568359375" stroke-width="3.0" fill="none" stroke="rgb(0, 0, 0)" stroke-opacity="1.0" stroke-linecap="round" stroke-linejoin="round"/>
    <path d="M 148.0 63.0 C 151.2825927734375 68.45988464355469 149.2017059326172 70.99879455566406 150.44281005859375 67.26716613769531" stroke-width="3.0" fill="none" stroke="rgb(0, 0, 0)" stroke-opacity="1.0" stroke-linecap="round" stroke-linejoin="round"/>
    <path d="M 123.99999237060547 87.0 C 122.18605041503906 86.15941619873047 123.61172485351562 85.4758529663086 128.21084594726562 86.99864196777344" stroke-width="3.0" fill="none" stroke="rgb(0, 0, 0)" stroke-opacity="1.0" stroke-linecap="round" stroke-linejoin="round"/>
    <path d="M 150.0 135.0 C 154.4903564453125 134.09571838378906 152.43557739257812 136.65150451660156 150.77090454101562 138.5890350341797" stroke-width="3.0" fill="none" stroke="rgb(0, 0, 0)" stroke-opacity="1.0" stroke-linecap="round" stroke-linejoin="round"/>
    <path d="M 127.0 63.0 C 128.57264709472656 67.73310089111328 127.25582122802734 70.30530548095703 131.2857208251953 67.08943176269531" stroke-width="3.0" fill="none" stroke="rgb(0, 0, 0)" stroke-opacity="1.0" stroke-linecap="round" stroke-linejoin="round"/>
    <path d="M 91.0 98.0 C 90.59737396240234 99.84970092773438 88.58824157714844 98.95706176757812 91.37374114990234 104.41593170166016" stroke-width="3.0" fill="none" stroke="rgb(0, 0, 0)" stroke-opacity="1.0" stroke-linecap="round" stroke-linejoin="round"/>
    <path d="M 90.0 200.0 C 87.57260131835938 198.9288787841797 85.29170989990234 199.2132110595703 88.68692016601562 204.00140380859375" stroke-width="3.0" fill="none" stroke="rgb(0, 0, 0)" stroke-opacity="1.0" stroke-linecap="round" stroke-linejoin="round"/>
    <path d="M 38.0 61.999996185302734 C 37.71527099609375 61.51708221435547 43.247222900390625 60.96813201904297 41.782936096191406 64.88898468017578" stroke-width="3.0" fill="none" stroke="rgb(0, 0, 0)" stroke-opacity="1.0" stroke-linecap="round" stroke-linejoin="round"/>
    <path d="M 96.0 88.0 C 95.6451644897461 91.97139739990234 98.29521179199219 90.8561019897461 102.60102081298828 87.50069427490234" stroke-width="3.0" fill="none" stroke="rgb(0, 0, 0)" stroke-opacity="1.0" stroke-linecap="round" stroke-linejoin="round"/>
    <path d="M 83.0 175.0 C 85.09205627441406 177.04148864746094 81.18067169189453 179.47348022460938 80.8706283569336 175.83746337890625" stroke-width="3.0" fill="none" stroke="rgb(0, 0, 0)" stroke-opacity="1.0" stroke-linecap="round" stroke-linejoin="round"/>
    <path d="M 180.0 50.0 C 176.49534606933594 54.46598815917969 181.56443786621094 55.05350875854492 177.0135498046875 52.15145492553711" stroke-width="3.0" fill="none" stroke="rgb(0, 0, 0)" stroke-opacity="1.0" stroke-linecap="round" stroke-linejoin="round"/>
    <path d="M 108.0 77.0 C 106.85177612304688 74.47109985351562 103.79710388183594 78.15769958496094 101.29035186767578 83.18019104003906" stroke-width="3.0" fill="none" stroke="rgb(0, 0, 0)" stroke-opacity="1.0" stroke-linecap="round" stroke-linejoin="round"/>
    <path d="M 92.0 146.0 C 88.74861907958984 143.17874145507812 84.40398406982422 147.4304656982422 87.44141387939453 150.03555297851562" stroke-width="3.0" fill="none" stroke="rgb(0, 0, 0)" stroke-opacity="1.0" stroke-linecap="round" stroke-linejoin="round"/>
    <path d="M 139.0 113.0 C 143.5064239501953 114.59553527832031 146.0627899169922 117.7724838256836 146.66925048828125 113.16566467285156" stroke-width="3.0" fill="none" stroke="rgb(0, 0, 0)" stroke-opacity="1.0" stroke-linecap="round" stroke-linejoin="round"/>
    <path d="M 98.0 22.0 C 93.64525604248047 19.173439025878906 91.72179412841797 17.845775604248047 96.52196502685547 19.72456169128418" stroke-width="3.0" fill="none" stroke="rgb(0, 0, 0)" stroke-opacity="1.0" stroke-linecap="round" stroke-linejoin="round"/>
    <path d="M 94.0 119.0 C 89.69438934326172 120.99251556396484 92.55551147460938 118.57278442382812 90.14945220947266 115.70274353027344" stroke-width="3.0" fill="none" stroke="rgb(0, 0, 0)" stroke-opacity="1.0" stroke-linecap="round" stroke-linejoin="round"/>
    <path d="M 140.0 49.0 C 135.44992065429688 51.607582092285156 130.966796875 52.03939437866211 130.586181640625 53.68233871459961" stroke-width="3.0" fill="none" stroke="rgb(0, 0, 0)" stroke-opacity="1.0" stroke-linecap="round" stroke-linejoin="round"/>
    <path d="M 92.0 79.0 C 88.77105712890625 73.4052963256836 88.32015228271484 78.21788024902344 90.67182922363281 81.74005126953125" stroke-width="3.0" fill="none" stroke="rgb(0, 0, 0)" stroke-opacity="1.0" stroke-linecap="round" stroke-linejoin="round"/>
    <path d="M 89.0 55.0 C 88.05773162841797 57.35064697265625 83.99213409423828 55.241363525390625 83.15550231933594 55.331085205078125" stroke-width="3.0" fill="none" stroke="rgb(0, 0, 0)" stroke-opacity="1.0" stroke-linecap="round" stroke-linejoin="round"/>
    <path d="M 128.0 177.0 C 123.57772827148438 181.23928833007812 122.30481719970703 183.4093475341797 123.42576599121094 187.99879455566406" stroke-width="3.0" fill="none" stroke="rgb(0, 0, 0)" stroke-opacity="1.0" stroke-linecap="round" stroke-linejoin="round"/>
    <path d="M 166.0 91.0 C 169.9110565185547 87.8288345336914 173.25857543945312 91.64927673339844 168.4144744873047 94.80418395996094" stroke-width="3.0" fill="none" stroke="rgb(0, 0, 0)" stroke-opacity="1.0" stroke-linecap="round" stroke-linejoin="round"/>
    <path d="M 139.0 88.0 C 137.244873046875 88.6202163696289 136.53431701660156 87.89095306396484 130.9691619873047 84.86908721923828" stroke-width="3.0" fill="none" stroke="rgb(0, 0, 0)" stroke-opacity="1.0" stroke-linecap="round" stroke-linejoin="round"/>
    <path d="M 45.0 77.0 C 43.89002227783203 73.24966430664062 47.785194396972656 69.59330749511719 51.562522888183594 65.50729370117188" stroke-width="3.0" fill="none" stroke="rgb(0, 0, 0)" stroke-opacity="1.0" stroke-linecap="round" stroke-linejoin="round"/>
    <path d="M 125.0 102.0 C 119.49794006347656 102.63230895996094 124.44171142578125 98.36129760742188 125.85712432861328 95.21524047851562" stroke-width="3.0" fill="none" stroke="rgb(0, 0, 0)" stroke-opacity="1.0" stroke-linecap="round" stroke-linejoin="round"/>
    <path d="M 100.0 140.0 C 94.5677490234375 137.69325256347656 92.3915023803711 133.70440673828125 95.87714385986328 138.24887084960938" stroke-width="3.0" fill="none" stroke="rgb(0, 0, 0)" stroke-opacity="1.0" stroke-linecap="round" stroke-linejoin="round"/>
    <path d="M 129.0 142.0 C 132.79393005371094 141.72305297851562 138.31752014160156 142.5551300048828 135.8253173828125 146.5036163330078" stroke-width="3.0" fill="none" stroke="rgb(0, 0, 0)" stroke-opacity="1.0" stroke-linecap="round" stroke-linejoin="round"/>
    <path d="M 138.0 95.0 C 137.81214904785156 94.58124542236328 134.89927673339844 92.71414947509766 138.6818389892578 96.82965850830078" stroke-width="3.0" fill="none" stroke="rgb(0, 0, 0)" stroke-opacity="1.0" stroke-linecap="round" stroke-linejoin="round"/>
    <path d="M 89.0 74.0 C 85.11935424804688 72.29688262939453 90.07821655273438 70.22148895263672 94.95153045654297 74.3514633178711" stroke-width="3.0" fill="none" stroke="rgb(0, 0, 0)" stroke-opacity="1.0" stroke-linecap="round" stroke-linejoin="round"/>
    <path d="M 84.0 137.0 C 79.3912124633789 140.25436401367188 82.88154602050781 143.3868865966797 87.43791198730469 139.15582275390625" stroke-width="3.0" fill="none" stroke="rgb(0, 0, 0)" stroke-opacity="1.0" stroke-linecap="round" stroke-linejoin="round"/>
    <path d="M 114.00000762939453 199.0 C 109.90536499023438 199.65438842773438 105.54448699951172 202.46429443359375 101.52094268798828 202.710693359375" stroke-width="3.0" fill="none" stroke="rgb(0, 0, 0)" stroke-opacity="1.0" stroke-linecap="round" stroke-linejoin="round"/>
    <path d="M 78.0 132.0 C 76.05381774902344 128.09506225585938 81.480224609375 132.38406372070312 78.28787231445312 134.61349487304688" stroke-width="3.0" fill="none" stroke="rgb(0, 0, 0)" stroke-opacity="1.0" stroke-linecap="round" stroke-linejoin="round"/>
    <path d="M 146.0 173.0 C 149.98916625976562 168.84115600585938 154.71615600585938 169.5602264404297 157.2078857421875 166.4900665283203" stroke-width="3.0" fill="none" stroke="rgb(0, 0, 0)" stroke-opacity="1.0" stroke-linecap="round" stroke-linejoin="round"/>
    <path d="M 115.0 151.0 C 116.3901138305664 150.8221893310547 116.7357406616211 153.62960815429688 115.18155670166016 156.03541564941406" stroke-width="3.0" fill="none" stroke="rgb(0, 0, 0)" stroke-opacity="1.0" stroke-linecap="round" stroke-linejoin="round"/>
    <path d="M 75.0 127.0 C 73.92284393310547 129.5392303466797 78.55125427246094 133.9620819091797 74.57647705078125 128.80435180664062" stroke-width="3.0" fill="none" stroke="rgb(0, 0, 0)" stroke-opacity="1.0" stroke-linecap="round" stroke-linejoin="round"/>
    <path d="M 75.0 74.0 C 75.3273696899414 69.21005249023438 80.71752166748047 65.22347259521484 85.35963439941406 68.93733215332031" stroke-width="3.0" fill="none" stroke="rgb(0, 0, 0)" stroke-opacity="1.0" stroke-linecap="round" stroke-linejoin="round"/>
    <path d="M 135.0 201.0 C 136.8465576171875 197.05728149414062 140.45669555664062 196.4080047607422 143.20559692382812 194.1510772705078" stroke-width="3.0" fill="none" stroke="rgb(0, 0, 0)" stroke-opacity="1.0" stroke-linecap="round" stroke-linejoin="round"/>
    <path d="M 80.0 41.0 C 85.44185638427734 44.322853088378906 88.50314331054688 49.864322662353516 84.98578643798828 54.859031677246094" stroke-width="3.0" fill="none" stroke="rgb(0, 0, 0)" stroke-opacity="1.0" stroke-linecap="round" stroke-linejoin="round"/>
    <path d="M 151.0 70.0 C 153.38575744628906 67.01725769042969 150.8861541748047 70.64163970947266 152.98155212402344 75.42478942871094" stroke-width="3.0" fill="none" stroke="rgb(0, 0, 0)" stroke-opacity="1.0" stroke-linecap="round" stroke-linejoin="round"/>
    <path d="M 147.0 52.0 C 143.13201904296875 53.30574035644531 144.94432067871094 54.00142288208008 142.17816162109375 50.553855895996094" stroke-width="3.0" fill="none" stroke="rgb(0, 0, 0)" stroke-opacity="1.0" stroke-linecap="round" stroke-linejoin="round"/>
    <path d="M 123.99999237060547 125.0 C 126.54931640625 126.09630584716797 126.56538391113281 130.0767059326172 127.85639953613281 128.14479064941406" stroke-width="3.0" fill="none" stroke="rgb(0, 0, 0)" stroke-opacity="1.0" stroke-linecap="round" stroke-linejoin="round"/>
    <path d="M 73.0 146.0 C 68.42901611328125 142.8863067626953 72.08660125732422 143.78799438476562 75.90391540527344 141.0198974609375" stroke-width="3.0" fill="none" stroke="rgb(0, 0, 0)" stroke-opacity="1.0" stroke-linecap="round" stroke-linejoin="round"/>
    <path d="M 122.0 131.0 C 124.02935791015625 132.2821502685547 129.35556030273438 135.0117645263672 124.56429290771484 130.60231018066406" stroke-width="3.0" fill="none" stroke="rgb(0, 0, 0)" stroke-opacity="1.0" stroke-linecap="round" stroke-linejoin="round"/>
    <path d="M 88.0 23.0 C 84.63539123535156 20.159748077392578 81.99642181396484 17.11016273498535 80.634521484375 22.020870208740234" stroke-width="3.0" fill="none" stroke="rgb(0, 0, 0)" stroke-opacity="1.0" stroke-linecap="round" stroke-linejoin="round"/>
    <path d="M 81.0 59.0 C 84.52925109863281 56.31393814086914 88.51907348632812 60.68617630004883 91.22459411621094 61.074310302734375" stroke-width="3.0" fill="none" stroke="rgb(0, 0, 0)" stroke-opacity="1.0" stroke-linecap="round" stroke-linejoin="round"/>
    <path d="M 87.0 98.0 C 85.54612731933594 101.6715316772461 90.05192565917969 103.07395935058594 89.05461120605469 99.83494567871094" stroke-width="3.0" fill="none" stroke="rgb(0, 0, 0)" stroke-opacity="1.0" stroke-linecap="round" stroke-linejoin="round"/>
    <path d="M 90.0 24.0 C 86.50372314453125 28.237245559692383 83.20262908935547 27.22964859008789 80.63096618652344 22.484601974487305" stroke-width="3.0" fill="none" stroke="rgb(0, 0, 0)" stroke-opacity="1.0" stroke-linecap="round" stroke-linejoin="round"/>
    <path d="M 169.0 90.0 C 172.10910034179688 87.30133056640625 177.0281982421875 81.87519836425781 177.9220733642578 84.45050811767578" stroke-width="3.0" fill="none" stroke="rgb(0, 0, 0)" stroke-opacity="1.0" stroke-linecap="round" stroke-linejoin="round"/>
    <path d="M 99.0 121.00000762939453 C 99.71101379394531 126.34281158447266 94.61575317382812 125.9493179321289 90.20753479003906 128.68475341796875" stroke-width="3.0" fill="none" stroke="rgb(0, 0, 0)" stroke-opacity="1.0" stroke-linecap="round" stroke-linejoin="round"/>
    <path d="M 162.0 50.0 C 165.13002014160156 54.31199645996094 165.63475036621094 51.54452133178711 162.9001922607422 55.15134048461914" stroke-width="3.0" fill="none" stroke="rgb(0, 0, 0)" stroke-opacity="1.0" stroke-linecap="round" stroke-linejoin="round"/>
    <path d="M 77.0 200.0 C 77.51468658447266 197.8075714111328 75.72598266601562 199.93748474121094 78.5180435180664 197.2106170654297" stroke-width="3.0" fill="none" stroke="rgb(0, 0, 0)" stroke-opacity="1.0" stroke-linecap="round" stroke-linejoin="round"/>
    <path d="M 84.0 28.0 C 79.70645904541016 25.064085006713867 75.57667541503906 21.302743911743164 71.68365478515625 18.902917861938477" stroke-width="3.0" fill="none" stroke="rgb(0, 0, 0)" stroke-opacity="1.0" stroke-linecap="round" stroke-linejoin="round"/>
    <path d="M 138.0 35.0 C 135.27206420898438 34.37279510498047 133.97219848632812 33.011802673339844 139.42608642578125 36.230796813964844" stroke-width="3.0" fill="none" stroke="rgb(0, 0, 0)" stroke-opacity="1.0" stroke-linecap="round" stroke-linejoin="round"/>
    <path d="M 171.0 36.0 C 168.02012634277344 40.91917419433594 167.25909423828125 37.51307678222656 163.10726928710938 35.48426818847656" stroke-width="3.0" fill="none" stroke="rgb(0, 0, 0)" stroke-opacity="1.0" stroke-linecap="round" stroke-linejoin="round"/>
    <path d="M 96.0 110.0 C 91.62904357910156 105.96280670166016 89.71863555908203 110.41435241699219 93.72881317138672 115.08390045166016" stroke-width="3.0" fill="none" stroke="rgb(0, 0, 0)" stroke-opacity="1.0" stroke-linecap="round" stroke-linejoin="round"/>
    <path d="M 86.0 59.0 C 80.48294067382812 63.727317810058594 80.34161376953125 68.04291534423828 83.77738952636719 64.58233642578125" stroke-width="3.0" fill="none" stroke="rgb(0, 0, 0)" stroke-opacity="1.0" stroke-linecap="round" stroke-linejoin="round"/>
    <path d="M 75.0 58.0 C 79.20330810546875 57.795806884765625 83.40876770019531 54.09477233886719 83.99337768554688 52.89493179321289" stroke-width="3.0" fill="none" stroke="rgb(0, 0, 0)" stroke-opacity="1.0" stroke-linecap="round" stroke-linejoin="round"/>
    <path d="M 184.0 47.0 C 185.12814331054688 42.141151428222656 183.3057098388672 38.73307418823242 188.83587646484375 43.60116195678711" stroke-width="3.0" fill="none" stroke="rgb(0, 0, 0)" stroke-opacity="1.0" stroke-linecap="round" stroke-linejoin="round"/>
    <path d="M 91.0 188.0 C 93.05728912353516 193.05137634277344 97.67472839355469 192.4808807373047 93.7521743774414 190.8793487548828" stroke-width="3.0" fill="none" stroke="rgb(0, 0, 0)" stroke-opacity="1.0" stroke-linecap="round" stroke-linejoin="round"/>
    <path d="M 86.0 86.0 C 83.32136535644531 84.37833404541016 83.57166290283203 88.200439453125 82.9256362915039 89.81090545654297" stroke-width="3.0" fill="none" stroke="rgb(0, 0, 0)" stroke-opacity="1.0" stroke-linecap="round" stroke-linejoin="round"/>
    <path d="M 96.0 94.0 C 92.6235122680664 99.27743530273438 92.10926818847656 101.3757553100586 93.69580841064453 97.00422668457031" stroke-width="3.0" fill="none" stroke="rgb(0, 0, 0)" stroke-opacity="1.0" stroke-linecap="round" stroke-linejoin="round"/>
    <path d="M 128.0 97.0 C 125.34583282470703 100.43460083007812 130.7716064453125 103.4103012084961 134.12815856933594 100.84420776367188" stroke-width="3.0" fill="none" stroke="rgb(0, 0, 0)" stroke-opacity="1.0" stroke-linecap="round" stroke-linejoin="round"/>
    <path d="M 148.0 65.0 C 144.3137664794922 64.77079772949219 145.2978515625 60.43262481689453 149.63909912109375 64.61473083496094" stroke-width="3.0" fill="none" stroke="rgb(0, 0, 0)" stroke-opacity="1.0" stroke-linecap="round" stroke-linejoin="round"/>
    <path d="M 85.0 29.0 C 88.50408172607422 27.337055206298828 85.83670043945312 30.92340850830078 82.40955352783203 35.433311462402344" stroke-width="3.0" fill="none" stroke="rgb(0, 0, 0)" stroke-opacity="1.0" stroke-linecap="round" stroke-linejoin="round"/>
    <path d="M 93.0 98.0 C 92.2445297241211 99.63534545898438 96.56190490722656 97.70098114013672 95.34349822998047 98.56304168701172" stroke-width="3.0" fill="none" stroke="rgb(0, 0, 0)" stroke-opacity="1.0" stroke-linecap="round" stroke-linejoin="round"/>
    <path d="M 89.0 61.0 C 89.6189193725586 56.592830657958984 87.5262222290039 60.03655242919922 81.9447021484375 59.52976608276367" stroke-width="3.0" fill="none" stroke="rgb(0, 0, 0)" stroke-opacity="1.0" stroke-linecap="round" stroke-linejoin="round"/>
    <path d="M 86.0 160.0 C 89.56690979003906 164.0709686279297 91.2689208984375 169.24620056152344 94.6766586303711 168.33670043945312" stroke-width="3.0" fill="none" stroke="rgb(0, 0, 0)" stroke-opacity="1.0" stroke-linecap="round" stroke-linejoin="round"/>
    <path d="M 90.0 88.0 C 88.19879150390625 90.72667694091797 93.04829406738281 89.80309295654297 97.06832122802734 88.38740539550781" stroke-width="3.0" fill="none" stroke="rgb(0, 0, 0)" stroke-opacity="1.0" stroke-linecap="round" stroke-linejoin="round"/>
    <path d="M 151.0 64.0 C 155.05758666992188 66.86052703857422 150.45956420898438 64.49494934082031 146.77243041992188 68.5024642944336" stroke-width="3.0" fill="none" stroke="rgb(0, 0, 0)" stroke-opacity="1.0" stroke-linecap="round" stroke-linejoin="round"/>
    <path d="M 142.0 177.0 C 141.09376525878906 173.5772705078125 137.6834716796875 170.50479125976562 141.1752471923828 168.34866333007812" stroke-width="3.0" fill="none" stroke="rgb(0, 0, 0)" stroke-opacity="1.0" stroke-linecap="round" stroke-linejoin="round"/>
    <path d="M 163.0 19.0 C 157.93557739257812 20.26917266845703 155.5856170654297 16.35594367980957 154.9344482421875 12.395427703857422" stroke-width="3.0" fill="none" stroke="rgb(0, 0, 0)" stroke-opacity="1.0" stroke-linecap="round" stroke-linejoin="round"/>
  </g>
</svg>
