<?xml version="1.0" ?>
<svg xmlns="http://www.w3.org/2000/svg" version="1.1" width="224" height="224">
  <defs/>
  <g>
    <path d="M 74.93525695800781 154.20822143554688 C 67.11962890625 133.792236328125 61.336181640625 130.31558227539062 76.6736831665039 121.18435668945312" stroke-width="3.0" fill="none" stroke="rgb(0, 0, 0)" stroke-opacity="1.0011349" stroke-linecap="round" stroke-linejoin="round"/>
    <path d="M 97.39167785644531 116.35183715820312 C 97.9039077758789 96.3211898803711 88.2970199584961 101.17023468017578 110.90764617919922 101.06927490234375" stroke-width="3.0" fill="none" stroke="rgb(1, 0, 0)" stroke-opacity="0.8699166" stroke-linecap="round" stroke-linejoin="round"/>
    <path d="M 66.1128158569336 173.58348083496094 C 67.27961730957031 194.33612060546875 68.7863998413086 189.52024841308594 75.66661071777344 192.0790557861328" stroke-width="3.0" fill="none" stroke="rgb(0, 0, 0)" stroke-opacity="0.9692638" stroke-linecap="round" stroke-linejoin="round"/>
    <path d="M 91.06365966796875 135.2178192138672 C 84.65717315673828 129.243408203125 78.60028076171875 120.17219543457031 84.02767944335938 109.21533203125" stroke-width="3.0" fill="none" stroke="rgb(0, 0, 0)" stroke-opacity="0.9617052" stroke-linecap="round" stroke-linejoin="round"/>
    <path d="M 93.34486389160156 101.38235473632812 C 93.26841735839844 104.47854614257812 89.4527359008789 90.5294418334961 85.86541748046875 110.49812316894531" stroke-width="3.0" fill="none" stroke="rgb(0, 0, 0)" stroke-opacity="1.0015874" stroke-linecap="round" stroke-linejoin="round"/>
    <path d="M 185.81382751464844 61.582496643066406 C 195.02127075195312 67.74004364013672 183.95973205566406 65.27173614501953 195.999267578125 75.78850555419922" stroke-width="3.0" fill="none" stroke="rgb(0, 0, 1)" stroke-opacity="1.0000397" stroke-linecap="round" stroke-linejoin="round"/>
    <path d="M 123.91101837158203 211.4457244873047 C 125.51358032226562 205.20614624023438 113.26477813720703 210.48878479003906 99.28498840332031 208.40333557128906" stroke-width="3.0" fill="none" stroke="rgb(0, 0, 0)" stroke-opacity="1.0018322" stroke-linecap="round" stroke-linejoin="round"/>
    <path d="M 73.39299774169922 37.426902770996094 C 71.7287826538086 28.1503849029541 78.06617736816406 30.807371139526367 75.93177795410156 39.902198791503906" stroke-width="3.0" fill="none" stroke="rgb(0, 0, 1)" stroke-opacity="0.95026875" stroke-linecap="round" stroke-linejoin="round"/>
    <path d="M 94.86009979248047 127.13570404052734 C 94.03388214111328 152.3157501220703 96.65160369873047 156.6040802001953 104.3731689453125 127.98153686523438" stroke-width="3.0" fill="none" stroke="rgb(0, -1, 0)" stroke-opacity="0.9476679" stroke-linecap="round" stroke-linejoin="round"/>
    <path d="M 148.15692138671875 79.03662109375 C 134.69482421875 80.05575561523438 136.68711853027344 96.65480041503906 136.28334045410156 64.38945770263672" stroke-width="3.0" fill="none" stroke="rgb(0, 0, 1)" stroke-opacity="0.9640207" stroke-linecap="round" stroke-linejoin="round"/>
    <path d="M 156.1391143798828 15.317159652709961 C 126.73123168945312 39.1944694519043 125.1155776977539 32.735469818115234 143.50086975097656 24.884471893310547" stroke-width="3.0" fill="none" stroke="rgb(0, -1, 1)" stroke-opacity="1.0025333" stroke-linecap="round" stroke-linejoin="round"/>
    <path d="M 42.716094970703125 30.71631622314453 C 66.76033020019531 21.615861892700195 77.50988006591797 15.055402755737305 87.80535888671875 11.85356330871582" stroke-width="3.0" fill="none" stroke="rgb(-1, -1, 1)" stroke-opacity="1.0061201" stroke-linecap="round" stroke-linejoin="round"/>
    <path d="M 98.62879180908203 154.38226318359375 C 89.1023941040039 159.59104919433594 89.54656982421875 164.02342224121094 117.32661437988281 174.8975830078125" stroke-width="3.0" fill="none" stroke="rgb(1, 0, 0)" stroke-opacity="0.72899914" stroke-linecap="round" stroke-linejoin="round"/>
    <path d="M 80.00328063964844 46.1773796081543 C 76.77391815185547 63.0604133605957 79.70458984375 68.74990844726562 83.56782531738281 47.41664505004883" stroke-width="3.0" fill="none" stroke="rgb(0, 0, 0)" stroke-opacity="0.9709723" stroke-linecap="round" stroke-linejoin="round"/>
    <path d="M 80.07190704345703 118.99884796142578 C 81.2464370727539 75.56350708007812 77.64854431152344 66.12059783935547 88.50318145751953 84.15752410888672" stroke-width="3.0" fill="none" stroke="rgb(0, 0, 0)" stroke-opacity="0.774696" stroke-linecap="round" stroke-linejoin="round"/>
    <path d="M 151.86305236816406 182.7628936767578 C 151.08934020996094 145.83554077148438 152.491943359375 146.11355590820312 145.1521759033203 166.75682067871094" stroke-width="3.0" fill="none" stroke="rgb(-2, -1, 2)" stroke-opacity="1.0079854" stroke-linecap="round" stroke-linejoin="round"/>
    <path d="M 143.98739624023438 176.6446075439453 C 143.50958251953125 181.39012145996094 140.0529327392578 186.97674560546875 146.7206573486328 207.87327575683594" stroke-width="3.0" fill="none" stroke="rgb(0, 0, 0)" stroke-opacity="1.0032415" stroke-linecap="round" stroke-linejoin="round"/>
    <path d="M 159.99623107910156 52.64598083496094 C 159.6826171875 44.31705093383789 153.18959045410156 32.72427749633789 158.05690002441406 20.47039222717285" stroke-width="3.0" fill="none" stroke="rgb(0, 0, 1)" stroke-opacity="0.77010983" stroke-linecap="round" stroke-linejoin="round"/>
    <path d="M 153.76353454589844 38.787845611572266 C 149.95770263671875 34.20417404174805 140.62216186523438 32.65087890625 143.1847686767578 40.38140869140625" stroke-width="3.0" fill="none" stroke="rgb(0, 0, 0)" stroke-opacity="0.8501527" stroke-linecap="round" stroke-linejoin="round"/>
    <path d="M 52.70353317260742 83.21481323242188 C 65.06128692626953 99.72423553466797 69.58173370361328 99.37407684326172 63.93925857543945 98.67335510253906" stroke-width="3.0" fill="none" stroke="rgb(0, 0, 0)" stroke-opacity="0.92928195" stroke-linecap="round" stroke-linejoin="round"/>
    <path d="M 83.87484741210938 125.36251068115234 C 74.34976196289062 118.39456176757812 76.70335388183594 119.77227020263672 77.74750518798828 113.66814422607422" stroke-width="3.0" fill="none" stroke="rgb(0, 0, 0)" stroke-opacity="0.5354258" stroke-linecap="round" stroke-linejoin="round"/>
    <path d="M 107.96515655517578 25.383573532104492 C 124.31414031982422 27.688785552978516 126.97836303710938 29.51433563232422 147.19656372070312 35.20125198364258" stroke-width="3.0" fill="none" stroke="rgb(0, 0, 0)" stroke-opacity="0.99968565" stroke-linecap="round" stroke-linejoin="round"/>
    <path d="M 74.41831970214844 179.847900390625 C 92.10514831542969 178.7441864013672 87.29137420654297 171.05409240722656 82.1314926147461 148.4801483154297" stroke-width="3.0" fill="none" stroke="rgb(0, -1, 0)" stroke-opacity="0.96932983" stroke-linecap="round" stroke-linejoin="round"/>
    <path d="M 190.36363220214844 23.684921264648438 C 188.32818603515625 24.624317169189453 187.1333465576172 25.613494873046875 186.6631622314453 22.614309310913086" stroke-width="3.0" fill="none" stroke="rgb(0, 0, 0)" stroke-opacity="0.5686957" stroke-linecap="round" stroke-linejoin="round"/>
    <path d="M 146.9641876220703 39.077186584472656 C 147.57911682128906 62.46045684814453 147.9149932861328 77.85994720458984 145.47903442382812 61.515281677246094" stroke-width="3.0" fill="none" stroke="rgb(0, -1, 0)" stroke-opacity="0.9253645" stroke-linecap="round" stroke-linejoin="round"/>
    <path d="M 191.7616729736328 38.20637512207031 C 190.51986694335938 43.386112213134766 190.3071746826172 51.612701416015625 202.4873046875 64.5226821899414" stroke-width="3.0" fill="none" stroke="rgb(-2, -1, 2)" stroke-opacity="1.0046759" stroke-linecap="round" stroke-linejoin="round"/>
    <path d="M 133.26002502441406 189.8368682861328 C 119.84616088867188 169.79124450683594 118.93208312988281 166.79920959472656 121.60953521728516 196.44631958007812" stroke-width="3.0" fill="none" stroke="rgb(0, 0, 0)" stroke-opacity="1.002308" stroke-linecap="round" stroke-linejoin="round"/>
    <path d="M 127.12568664550781 205.1507568359375 C 127.73104858398438 174.30296325683594 122.10530090332031 159.29498291015625 129.12637329101562 166.7535858154297" stroke-width="3.0" fill="none" stroke="rgb(0, -1, 0)" stroke-opacity="1.0043793" stroke-linecap="round" stroke-linejoin="round"/>
    <path d="M 87.82630157470703 38.460567474365234 C 69.9610595703125 40.347869873046875 70.0455551147461 37.680633544921875 60.23194885253906 33.221649169921875" stroke-width="3.0" fill="none" stroke="rgb(0, 0, 0)" stroke-opacity="0.9213883" stroke-linecap="round" stroke-linejoin="round"/>
    <path d="M 145.15985107421875 52.20726776123047 C 146.27157592773438 48.079071044921875 150.9619598388672 40.295249938964844 147.56141662597656 42.649513244628906" stroke-width="3.0" fill="none" stroke="rgb(0, 0, 0)" stroke-opacity="0.99025387" stroke-linecap="round" stroke-linejoin="round"/>
    <path d="M 150.5868377685547 56.01148986816406 C 153.78628540039062 41.36058044433594 168.23483276367188 49.156959533691406 177.595947265625 52.27681350708008" stroke-width="3.0" fill="none" stroke="rgb(0, 0, 0)" stroke-opacity="0.578087" stroke-linecap="round" stroke-linejoin="round"/>
    <path d="M 159.98519897460938 110.90138244628906 C 159.14047241210938 134.7676239013672 150.24302673339844 153.78219604492188 153.85000610351562 101.43065643310547" stroke-width="3.0" fill="none" stroke="rgb(0, -2, 2)" stroke-opacity="1.0059017" stroke-linecap="round" stroke-linejoin="round"/>
    <path d="M 86.07778930664062 172.2916717529297 C 70.04331970214844 165.786376953125 69.3724365234375 167.32659912109375 78.4709243774414 180.73223876953125" stroke-width="3.0" fill="none" stroke="rgb(0, 0, 0)" stroke-opacity="0.9242872" stroke-linecap="round" stroke-linejoin="round"/>
    <path d="M 77.4544677734375 49.44607925415039 C 82.96546936035156 26.914655685424805 90.20564270019531 36.88507080078125 89.38158416748047 47.108341217041016" stroke-width="3.0" fill="none" stroke="rgb(0, 0, 0)" stroke-opacity="1.001853" stroke-linecap="round" stroke-linejoin="round"/>
    <path d="M 153.34805297851562 109.38737487792969 C 141.10113525390625 107.28129577636719 143.4635009765625 102.23206329345703 146.2845916748047 66.16327667236328" stroke-width="3.0" fill="none" stroke="rgb(0, -1, 0)" stroke-opacity="1.0054983" stroke-linecap="round" stroke-linejoin="round"/>
    <path d="M 84.11868286132812 97.0851058959961 C 87.95787811279297 96.85692596435547 81.1529312133789 82.04596710205078 78.50753021240234 61.126747131347656" stroke-width="3.0" fill="none" stroke="rgb(0, 0, 0)" stroke-opacity="0.96978277" stroke-linecap="round" stroke-linejoin="round"/>
    <path d="M 77.83470153808594 105.69512939453125 C 66.18755340576172 98.09081268310547 60.27739715576172 84.72494506835938 47.68965530395508 76.36077880859375" stroke-width="3.0" fill="none" stroke="rgb(0, -1, 1)" stroke-opacity="1.006377" stroke-linecap="round" stroke-linejoin="round"/>
    <path d="M 66.90210723876953 118.00875091552734 C 63.71745681762695 101.85274505615234 70.03675842285156 110.27893829345703 65.31403350830078 108.93714141845703" stroke-width="3.0" fill="none" stroke="rgb(0, 0, 0)" stroke-opacity="0.82520777" stroke-linecap="round" stroke-linejoin="round"/>
    <path d="M 64.5496597290039 40.54280090332031 C 35.42283248901367 46.80702209472656 42.76708221435547 50.75354766845703 54.93556594848633 53.408931732177734" stroke-width="3.0" fill="none" stroke="rgb(0, 0, 0)" stroke-opacity="0.7987328" stroke-linecap="round" stroke-linejoin="round"/>
    <path d="M 165.7882537841797 16.715518951416016 C 188.75515747070312 27.133323669433594 188.62664794921875 42.27448272705078 185.6234130859375 41.27286911010742" stroke-width="3.0" fill="none" stroke="rgb(-1, 0, 1)" stroke-opacity="1.0042808" stroke-linecap="round" stroke-linejoin="round"/>
    <path d="M 130.0218505859375 126.99562072753906 C 124.6793441772461 145.51190185546875 126.59246063232422 154.1945037841797 128.26023864746094 190.125" stroke-width="3.0" fill="none" stroke="rgb(0, -1, 1)" stroke-opacity="1.0059183" stroke-linecap="round" stroke-linejoin="round"/>
    <path d="M 144.910400390625 91.86473846435547 C 143.8083038330078 87.09261322021484 134.41493225097656 89.00720977783203 152.18515014648438 82.05660247802734" stroke-width="3.0" fill="none" stroke="rgb(0, 0, 1)" stroke-opacity="0.8134776" stroke-linecap="round" stroke-linejoin="round"/>
    <path d="M 64.80531311035156 125.47958374023438 C 66.94253540039062 111.94268035888672 65.37576293945312 97.14579772949219 73.21829223632812 103.04074096679688" stroke-width="3.0" fill="none" stroke="rgb(0, 0, 0)" stroke-opacity="0.8957517" stroke-linecap="round" stroke-linejoin="round"/>
    <path d="M 51.7739372253418 83.27310943603516 C 48.80582809448242 73.0159912109375 59.97239303588867 57.071311950683594 61.04692077636719 57.802513122558594" stroke-width="3.0" fill="none" stroke="rgb(-1, 0, 1)" stroke-opacity="0.6832873" stroke-linecap="round" stroke-linejoin="round"/>
    <path d="M 79.4941177368164 40.82957077026367 C 101.56969451904297 23.758495330810547 108.2926025390625 28.149768829345703 91.9056625366211 53.942874908447266" stroke-width="3.0" fill="none" stroke="rgb(0, 0, 1)" stroke-opacity="0.6419976" stroke-linecap="round" stroke-linejoin="round"/>
    <path d="M 109.069580078125 102.07965087890625 C 99.98751831054688 103.80579376220703 99.05123901367188 112.92583465576172 97.7068099975586 101.3181381225586" stroke-width="3.0" fill="none" stroke="rgb(0, 0, 0)" stroke-opacity="0.9291693" stroke-linecap="round" stroke-linejoin="round"/>
    <path d="M 41.73476028442383 29.943904876708984 C 25.343992233276367 50.73812484741211 17.70276641845703 57.62485885620117 40.15660095214844 68.68994903564453" stroke-width="3.0" fill="none" stroke="rgb(-1, -1, 1)" stroke-opacity="1.0059819" stroke-linecap="round" stroke-linejoin="round"/>
    <path d="M 204.48280334472656 63.24345397949219 C 196.327880859375 62.700252532958984 191.84458923339844 58.84563446044922 187.62399291992188 48.055389404296875" stroke-width="3.0" fill="none" stroke="rgb(0, 0, 0)" stroke-opacity="1.000149" stroke-linecap="round" stroke-linejoin="round"/>
    <path d="M 95.10441589355469 73.06697845458984 C 88.88528442382812 71.99525451660156 91.65721893310547 78.08177185058594 99.44332885742188 92.14017486572266" stroke-width="3.0" fill="none" stroke="rgb(0, 0, 0)" stroke-opacity="1.0032537" stroke-linecap="round" stroke-linejoin="round"/>
    <path d="M 139.867431640625 202.58871459960938 C 138.722900390625 198.09246826171875 122.66587829589844 201.53848266601562 136.5015869140625 201.8531036376953" stroke-width="3.0" fill="none" stroke="rgb(0, 0, 1)" stroke-opacity="0.9510667" stroke-linecap="round" stroke-linejoin="round"/>
    <path d="M 80.9716567993164 97.32525634765625 C 99.51532745361328 93.8179702758789 98.32208251953125 91.86744689941406 103.72242736816406 96.59419250488281" stroke-width="3.0" fill="none" stroke="rgb(1, 0, 0)" stroke-opacity="0.8514097" stroke-linecap="round" stroke-linejoin="round"/>
    <path d="M 99.00840759277344 128.1973876953125 C 94.62814331054688 168.80653381347656 98.83515167236328 177.7529754638672 84.85404205322266 157.32159423828125" stroke-width="3.0" fill="none" stroke="rgb(0, -1, 0)" stroke-opacity="1.00312" stroke-linecap="round" stroke-linejoin="round"/>
    <path d="M 113.83533477783203 210.36241149902344 C 104.8299560546875 197.6971435546875 101.45526123046875 186.26783752441406 111.54520416259766 184.48841857910156" stroke-width="3.0" fill="none" stroke="rgb(0, 0, 0)" stroke-opacity="0.9704628" stroke-linecap="round" stroke-linejoin="round"/>
    <path d="M 83.75000762939453 85.8601303100586 C 81.99554443359375 105.29808807373047 81.07243347167969 106.42529296875 83.04450988769531 92.68506622314453" stroke-width="3.0" fill="none" stroke="rgb(0, 0, 0)" stroke-opacity="0.698844" stroke-linecap="round" stroke-linejoin="round"/>
    <path d="M 92.28492736816406 131.2341766357422 C 84.5044937133789 129.79641723632812 88.8392105102539 135.73297119140625 106.73326873779297 154.57666015625" stroke-width="3.0" fill="none" stroke="rgb(0, -1, 1)" stroke-opacity="0.9078334" stroke-linecap="round" stroke-linejoin="round"/>
    <path d="M 181.56027221679688 38.54457092285156 C 187.97767639160156 43.496036529541016 187.3951416015625 44.52162170410156 184.94009399414062 41.70835494995117" stroke-width="3.0" fill="none" stroke="rgb(0, 1, 0)" stroke-opacity="0.6683654" stroke-linecap="round" stroke-linejoin="round"/>
    <path d="M 70.54772186279297 140.7541961669922 C 73.63036346435547 166.29849243164062 74.6756362915039 169.6909637451172 74.50645446777344 164.38848876953125" stroke-width="3.0" fill="none" stroke="rgb(0, 0, 0)" stroke-opacity="0.92760605" stroke-linecap="round" stroke-linejoin="round"/>
    <path d="M 183.37583923339844 87.97674560546875 C 186.16339111328125 65.79444885253906 180.1336212158203 65.44480895996094 174.28395080566406 53.815330505371094" stroke-width="3.0" fill="none" stroke="rgb(0, 0, 2)" stroke-opacity="0.9571054" stroke-linecap="round" stroke-linejoin="round"/>
    <path d="M 64.36739349365234 103.42416381835938 C 64.92835998535156 99.39412689208984 75.13351440429688 104.94951629638672 67.09362030029297 117.9726791381836" stroke-width="3.0" fill="none" stroke="rgb(0, -1, 1)" stroke-opacity="0.7780467" stroke-linecap="round" stroke-linejoin="round"/>
    <path d="M 141.1966094970703 43.751991271972656 C 145.94801330566406 64.14990997314453 155.9300537109375 61.59264373779297 141.06610107421875 57.209266662597656" stroke-width="3.0" fill="none" stroke="rgb(0, 0, 0)" stroke-opacity="0.9189549" stroke-linecap="round" stroke-linejoin="round"/>
    <path d="M 121.01461029052734 79.00100708007812 C 135.10601806640625 85.03950500488281 149.19483947753906 98.44025421142578 130.5548553466797 79.88397216796875" stroke-width="3.0" fill="none" stroke="rgb(0, 0, 0)" stroke-opacity="0.7017747" stroke-linecap="round" stroke-linejoin="round"/>
    <path d="M 151.6226806640625 124.82215118408203 C 152.28953552246094 144.7266082763672 150.759765625 144.25628662109375 146.69529724121094 159.61920166015625" stroke-width="3.0" fill="none" stroke="rgb(-1, -2, 2)" stroke-opacity="1.00689" stroke-linecap="round" stroke-linejoin="round"/>
    <path d="M 133.24395751953125 64.36161804199219 C 139.99212646484375 40.34929275512695 134.7748565673828 71.68876647949219 140.37281799316406 56.962467193603516" stroke-width="3.0" fill="none" stroke="rgb(-1, 0, 1)" stroke-opacity="1.002584" stroke-linecap="round" stroke-linejoin="round"/>
    <path d="M 76.3078842163086 105.1354751586914 C 79.22586822509766 103.43500518798828 80.98552703857422 106.54669952392578 86.05414581298828 87.06298828125" stroke-width="3.0" fill="none" stroke="rgb(0, -1, 1)" stroke-opacity="0.8107545" stroke-linecap="round" stroke-linejoin="round"/>
    <path d="M 77.19403076171875 190.341552734375 C 92.39171600341797 190.31161499023438 88.73015594482422 187.72360229492188 107.38946533203125 175.3135528564453" stroke-width="3.0" fill="none" stroke="rgb(0, -1, 1)" stroke-opacity="1.0040733" stroke-linecap="round" stroke-linejoin="round"/>
    <path d="M 40.15279006958008 77.38485717773438 C 34.48020935058594 60.2103385925293 26.51426887512207 53.029781341552734 31.488969802856445 62.685211181640625" stroke-width="3.0" fill="none" stroke="rgb(-2, -1, 1)" stroke-opacity="1.0067445" stroke-linecap="round" stroke-linejoin="round"/>
    <path d="M 94.9046401977539 91.4920425415039 C 103.53202819824219 94.77985382080078 96.55802917480469 89.86590576171875 100.92597961425781 86.34014129638672" stroke-width="3.0" fill="none" stroke="rgb(0, 0, 0)" stroke-opacity="0.79848206" stroke-linecap="round" stroke-linejoin="round"/>
    <path d="M 73.25508117675781 173.4225311279297 C 80.42994689941406 173.39268493652344 85.59245300292969 184.2272186279297 85.11531829833984 188.58860778808594" stroke-width="3.0" fill="none" stroke="rgb(0, 0, 0)" stroke-opacity="0.8598486" stroke-linecap="round" stroke-linejoin="round"/>
    <path d="M 187.13296508789062 38.60130310058594 C 188.13043212890625 33.74927520751953 193.0763702392578 40.60788345336914 187.99440002441406 43.21925735473633" stroke-width="3.0" fill="none" stroke="rgb(0, 0, 0)" stroke-opacity="0.8146236" stroke-linecap="round" stroke-linejoin="round"/>
    <path d="M 97.55486297607422 75.0961685180664 C 133.97950744628906 65.30687713623047 136.72056579589844 85.8273696899414 102.0374755859375 83.55834197998047" stroke-width="3.0" fill="none" stroke="rgb(0, 0, 1)" stroke-opacity="0.5641285" stroke-linecap="round" stroke-linejoin="round"/>
    <path d="M 88.54670715332031 143.92198181152344 C 92.74349212646484 142.73695373535156 91.57070922851562 144.95993041992188 91.4810791015625 155.3690643310547" stroke-width="3.0" fill="none" stroke="rgb(0, 0, 0)" stroke-opacity="0.9226653" stroke-linecap="round" stroke-linejoin="round"/>
    <path d="M 142.38816833496094 121.97615814208984 C 143.7271270751953 113.76372528076172 143.66265869140625 119.71109771728516 136.0099639892578 115.57035827636719" stroke-width="3.0" fill="none" stroke="rgb(0, 0, 1)" stroke-opacity="0.78515124" stroke-linecap="round" stroke-linejoin="round"/>
    <path d="M 97.22785949707031 28.42931365966797 C 96.01494598388672 32.50106430053711 99.30651092529297 22.020950317382812 125.93156433105469 28.057628631591797" stroke-width="3.0" fill="none" stroke="rgb(0, 0, 1)" stroke-opacity="1.0012457" stroke-linecap="round" stroke-linejoin="round"/>
    <path d="M 123.22238159179688 125.47697448730469 C 88.73056030273438 127.07878112792969 95.44600677490234 130.27061462402344 94.22705841064453 94.72321319580078" stroke-width="3.0" fill="none" stroke="rgb(0, 0, 1)" stroke-opacity="0.95948166" stroke-linecap="round" stroke-linejoin="round"/>
    <path d="M 140.44247436523438 43.8101806640625 C 142.1293487548828 49.09794235229492 131.6128692626953 50.531314849853516 131.0352783203125 69.05593872070312" stroke-width="3.0" fill="none" stroke="rgb(0, 0, 1)" stroke-opacity="0.6656078" stroke-linecap="round" stroke-linejoin="round"/>
    <path d="M 101.43136596679688 92.71134185791016 C 92.10218811035156 93.19670867919922 87.42051696777344 99.40093231201172 97.54676818847656 105.1985855102539" stroke-width="3.0" fill="none" stroke="rgb(0, 0, 0)" stroke-opacity="0.9836488" stroke-linecap="round" stroke-linejoin="round"/>
    <path d="M 89.00689697265625 66.1033706665039 C 79.3926773071289 65.99177551269531 75.89195251464844 73.27544403076172 96.39024353027344 69.00153350830078" stroke-width="3.0" fill="none" stroke="rgb(0, 0, 0)" stroke-opacity="0.7798859" stroke-linecap="round" stroke-linejoin="round"/>
    <path d="M 129.5167999267578 187.34751892089844 C 120.49368286132812 186.10655212402344 128.84861755371094 201.95635986328125 112.21392822265625 199.33489990234375" stroke-width="3.0" fill="none" stroke="rgb(0, 0, 0)" stroke-opacity="1.0032116" stroke-linecap="round" stroke-linejoin="round"/>
    <path d="M 154.4837188720703 108.8109130859375 C 173.4407501220703 106.47860717773438 171.6106719970703 101.44503784179688 160.87570190429688 78.65892028808594" stroke-width="3.0" fill="none" stroke="rgb(-1, -2, 2)" stroke-opacity="1.0064434" stroke-linecap="round" stroke-linejoin="round"/>
    <path d="M 132.5697479248047 93.85594177246094 C 143.45921325683594 78.3322982788086 144.7000274658203 78.94921875 142.87496948242188 82.69119262695312" stroke-width="3.0" fill="none" stroke="rgb(0, 0, 0)" stroke-opacity="0.86437494" stroke-linecap="round" stroke-linejoin="round"/>
    <path d="M 58.90536880493164 79.77202606201172 C 40.1258430480957 82.29090118408203 32.200984954833984 63.390289306640625 47.36256408691406 57.03911209106445" stroke-width="3.0" fill="none" stroke="rgb(-1, -1, 1)" stroke-opacity="1.0022428" stroke-linecap="round" stroke-linejoin="round"/>
    <path d="M 145.98074340820312 98.37692260742188 C 119.38557434082031 101.8774185180664 118.40093231201172 98.61219787597656 120.5470199584961 80.0030517578125" stroke-width="3.0" fill="none" stroke="rgb(1, 0, 1)" stroke-opacity="0.859653" stroke-linecap="round" stroke-linejoin="round"/>
    <path d="M 106.08160400390625 132.78379821777344 C 94.14550018310547 143.1639862060547 97.45541381835938 135.9461212158203 85.51742553710938 139.5506134033203" stroke-width="3.0" fill="none" stroke="rgb(-1, -1, 1)" stroke-opacity="0.9547718" stroke-linecap="round" stroke-linejoin="round"/>
    <path d="M 134.73426818847656 133.21295166015625 C 135.0170440673828 143.21409606933594 135.61477661132812 147.80032348632812 124.89139556884766 144.1594696044922" stroke-width="3.0" fill="none" stroke="rgb(0, -1, 1)" stroke-opacity="0.9301964" stroke-linecap="round" stroke-linejoin="round"/>
    <path d="M 138.16786193847656 74.66287994384766 C 127.93396759033203 99.93531799316406 135.4504852294922 101.509033203125 142.4539337158203 115.0905532836914" stroke-width="3.0" fill="none" stroke="rgb(0, -1, 0)" stroke-opacity="1.0055567" stroke-linecap="round" stroke-linejoin="round"/>
    <path d="M 86.3047866821289 92.09748077392578 C 102.26252746582031 73.36934661865234 91.78277587890625 66.98748779296875 101.92414855957031 58.79788589477539" stroke-width="3.0" fill="none" stroke="rgb(0, 0, 0)" stroke-opacity="0.9329947" stroke-linecap="round" stroke-linejoin="round"/>
    <path d="M 78.4328842163086 142.40834045410156 C 69.31547546386719 148.7740478515625 69.37742614746094 157.83367919921875 76.4962387084961 159.3256072998047" stroke-width="3.0" fill="none" stroke="rgb(0, 0, 0)" stroke-opacity="0.5886059" stroke-linecap="round" stroke-linejoin="round"/>
    <path d="M 140.0244598388672 207.53379821777344 C 93.33946990966797 211.2686309814453 98.929931640625 208.9658660888672 103.3182144165039 189.70896911621094" stroke-width="3.0" fill="none" stroke="rgb(0, -1, 0)" stroke-opacity="1.0026466" stroke-linecap="round" stroke-linejoin="round"/>
    <path d="M 69.8857421875 125.2915267944336 C 59.90040588378906 130.4665985107422 70.01070404052734 127.43588256835938 70.8017349243164 127.49063110351562" stroke-width="3.0" fill="none" stroke="rgb(0, 0, 0)" stroke-opacity="0.77799517" stroke-linecap="round" stroke-linejoin="round"/>
    <path d="M 148.4123992919922 179.0159912109375 C 165.2382049560547 185.1734161376953 169.07965087890625 176.78836059570312 159.53173828125 165.76412963867188" stroke-width="3.0" fill="none" stroke="rgb(1, 0, 0)" stroke-opacity="0.9018646" stroke-linecap="round" stroke-linejoin="round"/>
    <path d="M 112.9958724975586 168.39361572265625 C 119.64923858642578 145.63453674316406 124.36573791503906 150.0935516357422 114.99395751953125 172.0461883544922" stroke-width="3.0" fill="none" stroke="rgb(0, -2, 1)" stroke-opacity="1.0071927" stroke-linecap="round" stroke-linejoin="round"/>
    <path d="M 67.90695190429688 115.57250213623047 C 72.47132873535156 124.29778289794922 70.21969604492188 137.7530059814453 65.71088409423828 137.80731201171875" stroke-width="3.0" fill="none" stroke="rgb(0, 0, 0)" stroke-opacity="0.9239251" stroke-linecap="round" stroke-linejoin="round"/>
    <path d="M 84.1172866821289 68.18621826171875 C 68.80046844482422 70.89929962158203 76.60940551757812 62.51289749145508 81.0503921508789 67.8738784790039" stroke-width="3.0" fill="none" stroke="rgb(0, 0, 0)" stroke-opacity="0.7001124" stroke-linecap="round" stroke-linejoin="round"/>
    <path d="M 130.52748107910156 208.85980224609375 C 150.88548278808594 210.50030517578125 150.5133514404297 193.29127502441406 140.49510192871094 200.4789276123047" stroke-width="3.0" fill="none" stroke="rgb(0, -1, 1)" stroke-opacity="1.0036345" stroke-linecap="round" stroke-linejoin="round"/>
    <path d="M 80.99681854248047 39.9492301940918 C 83.55707550048828 34.43095397949219 85.46481323242188 43.03870391845703 81.02267456054688 72.80077362060547" stroke-width="3.0" fill="none" stroke="rgb(0, 0, 0)" stroke-opacity="0.99880594" stroke-linecap="round" stroke-linejoin="round"/>
    <path d="M 149.0421142578125 49.39808654785156 C 151.04176330566406 46.1201171875 149.94235229492188 69.65104675292969 141.16998291015625 78.0798110961914" stroke-width="3.0" fill="none" stroke="rgb(0, 0, 0)" stroke-opacity="1.0031192" stroke-linecap="round" stroke-linejoin="round"/>
    <path d="M 144.22622680664062 33.65888595581055 C 141.13316345214844 43.612003326416016 144.45167541503906 67.32396697998047 152.38577270507812 37.3941535949707" stroke-width="3.0" fill="none" stroke="rgb(0, 0, 0)" stroke-opacity="0.8836193" stroke-linecap="round" stroke-linejoin="round"/>
    <path d="M 126.45051574707031 101.48941040039062 C 127.24181365966797 131.4913787841797 116.95425415039062 148.26913452148438 122.77386474609375 157.44094848632812" stroke-width="3.0" fill="none" stroke="rgb(-1, -2, 1)" stroke-opacity="1.0073951" stroke-linecap="round" stroke-linejoin="round"/>
    <path d="M 70.82476043701172 167.09033203125 C 71.11035919189453 135.0907440185547 81.48857879638672 150.94009399414062 77.96064758300781 136.14932250976562" stroke-width="3.0" fill="none" stroke="rgb(0, 0, 0)" stroke-opacity="0.95354277" stroke-linecap="round" stroke-linejoin="round"/>
    <path d="M 120.48412322998047 134.6622314453125 C 136.5803985595703 145.14723205566406 130.52000427246094 132.65916442871094 130.1951141357422 117.72376251220703" stroke-width="3.0" fill="none" stroke="rgb(0, -1, 1)" stroke-opacity="0.89330906" stroke-linecap="round" stroke-linejoin="round"/>
    <path d="M 77.9293441772461 13.556208610534668 C 97.42542266845703 22.895122528076172 99.44097137451172 23.99547004699707 88.56637573242188 23.881851196289062" stroke-width="3.0" fill="none" stroke="rgb(-1, -1, 1)" stroke-opacity="0.9357438" stroke-linecap="round" stroke-linejoin="round"/>
    <path d="M 80.26656341552734 65.85993194580078 C 71.89143371582031 62.710472106933594 83.17570495605469 62.26912307739258 80.827392578125 65.05958557128906" stroke-width="3.0" fill="none" stroke="rgb(0, 1, 0)" stroke-opacity="0.98790973" stroke-linecap="round" stroke-linejoin="round"/>
    <path d="M 96.0193099975586 73.14471435546875 C 99.08233642578125 82.3822250366211 93.42845153808594 82.85842895507812 98.80121612548828 92.14929962158203" stroke-width="3.0" fill="none" stroke="rgb(0, 0, 0)" stroke-opacity="0.9080523" stroke-linecap="round" stroke-linejoin="round"/>
    <path d="M 89.24425506591797 19.451845169067383 C 89.3127670288086 31.73662757873535 86.08190155029297 31.075645446777344 94.49051666259766 28.742431640625" stroke-width="3.0" fill="none" stroke="rgb(0, 0, 1)" stroke-opacity="0.9305704" stroke-linecap="round" stroke-linejoin="round"/>
    <path d="M 169.86207580566406 98.04776000976562 C 183.50112915039062 97.06795501708984 185.0028076171875 87.34602355957031 191.29095458984375 78.97171783447266" stroke-width="3.0" fill="none" stroke="rgb(0, 0, 1)" stroke-opacity="1.0002196" stroke-linecap="round" stroke-linejoin="round"/>
    <path d="M 96.31368255615234 111.78317260742188 C 95.72806549072266 141.14825439453125 96.37706756591797 140.99986267089844 102.33966064453125 124.13067626953125" stroke-width="3.0" fill="none" stroke="rgb(-1, -1, 1)" stroke-opacity="1.0040951" stroke-linecap="round" stroke-linejoin="round"/>
    <path d="M 168.6675262451172 53.082149505615234 C 165.87738037109375 58.47200393676758 170.52017211914062 51.87263488769531 169.45603942871094 58.44770812988281" stroke-width="3.0" fill="none" stroke="rgb(0, 0, -1)" stroke-opacity="0.7270221" stroke-linecap="round" stroke-linejoin="round"/>
    <path d="M 69.20271301269531 190.1930694580078 C 63.69080352783203 189.29579162597656 63.93822479248047 183.5590057373047 91.84317016601562 183.7753143310547" stroke-width="3.0" fill="none" stroke="rgb(0, 0, 0)" stroke-opacity="0.96163154" stroke-linecap="round" stroke-linejoin="round"/>
    <path d="M 81.75880432128906 13.87487506866455 C 79.86190795898438 12.246248245239258 66.78491973876953 9.995474815368652 53.45319366455078 16.9853458404541" stroke-width="3.0" fill="none" stroke="rgb(0, -1, 1)" stroke-opacity="0.87401813" stroke-linecap="round" stroke-linejoin="round"/>
    <path d="M 134.88047790527344 27.982563018798828 C 136.6739959716797 32.06466293334961 131.05120849609375 26.47188377380371 136.41636657714844 36.988365173339844" stroke-width="3.0" fill="none" stroke="rgb(0, 0, 0)" stroke-opacity="0.67855424" stroke-linecap="round" stroke-linejoin="round"/>
    <path d="M 178.3308868408203 44.06486892700195 C 174.21022033691406 36.836299896240234 168.8534393310547 34.75798797607422 153.4685516357422 37.792579650878906" stroke-width="3.0" fill="none" stroke="rgb(0, 0, 0)" stroke-opacity="0.9148543" stroke-linecap="round" stroke-linejoin="round"/>
    <path d="M 94.73040771484375 109.13079071044922 C 90.9583969116211 98.90972137451172 96.31307220458984 97.45157623291016 100.17378234863281 120.10899353027344" stroke-width="3.0" fill="none" stroke="rgb(0, -1, 0)" stroke-opacity="1.0019993" stroke-linecap="round" stroke-linejoin="round"/>
    <path d="M 90.47400665283203 58.005821228027344 C 78.08672332763672 59.09792709350586 84.0533218383789 56.81784439086914 76.80467987060547 61.57632827758789" stroke-width="3.0" fill="none" stroke="rgb(0, 0, 0)" stroke-opacity="0.93837935" stroke-linecap="round" stroke-linejoin="round"/>
    <path d="M 76.08902740478516 40.21129608154297 C 77.01927947998047 51.61016082763672 92.31241607666016 53.341590881347656 86.71886444091797 60.68170928955078" stroke-width="3.0" fill="none" stroke="rgb(0, 0, 1)" stroke-opacity="0.87306726" stroke-linecap="round" stroke-linejoin="round"/>
    <path d="M 190.6436767578125 58.29365539550781 C 193.90524291992188 47.13743209838867 184.54739379882812 41.682769775390625 176.68099975585938 44.9632453918457" stroke-width="3.0" fill="none" stroke="rgb(0, 0, 0)" stroke-opacity="0.71044594" stroke-linecap="round" stroke-linejoin="round"/>
    <path d="M 115.87014770507812 167.84548950195312 C 102.49073028564453 180.59893798828125 98.94400024414062 189.6875457763672 111.69035339355469 195.3201904296875" stroke-width="3.0" fill="none" stroke="rgb(0, -1, 1)" stroke-opacity="1.0036719" stroke-linecap="round" stroke-linejoin="round"/>
    <path d="M 78.63676452636719 73.8191909790039 C 76.2263412475586 72.73560333251953 81.2124252319336 71.81193542480469 88.9031982421875 90.00514221191406" stroke-width="3.0" fill="none" stroke="rgb(0, 0, 0)" stroke-opacity="0.7299045" stroke-linecap="round" stroke-linejoin="round"/>
    <path d="M 92.95008087158203 93.07334899902344 C 95.8342514038086 93.60193634033203 105.6807632446289 104.46088409423828 102.070556640625 118.36918640136719" stroke-width="3.0" fill="none" stroke="rgb(0, -1, 0)" stroke-opacity="1.0048915" stroke-linecap="round" stroke-linejoin="round"/>
    <path d="M 127.51581573486328 128.6810302734375 C 125.55567169189453 102.16838836669922 128.75172424316406 118.38094329833984 128.95333862304688 90.359619140625" stroke-width="3.0" fill="none" stroke="rgb(-1, -2, 2)" stroke-opacity="1.0060335" stroke-linecap="round" stroke-linejoin="round"/>
    <path d="M 147.15907287597656 53.162628173828125 C 150.34951782226562 69.70840454101562 154.48269653320312 68.54364013671875 144.44366455078125 70.26691436767578" stroke-width="3.0" fill="none" stroke="rgb(0, 0, 0)" stroke-opacity="0.8498535" stroke-linecap="round" stroke-linejoin="round"/>
    <path d="M 81.59160614013672 39.161338806152344 C 90.36639404296875 26.41679573059082 89.12557983398438 39.63675308227539 95.5053482055664 26.25265884399414" stroke-width="3.0" fill="none" stroke="rgb(0, 0, 0)" stroke-opacity="0.9844956" stroke-linecap="round" stroke-linejoin="round"/>
    <path d="M 80.27420043945312 83.57795715332031 C 76.90694427490234 79.41715240478516 81.4208984375 82.85855102539062 98.42262268066406 106.53003692626953" stroke-width="3.0" fill="none" stroke="rgb(0, 0, 0)" stroke-opacity="0.9486996" stroke-linecap="round" stroke-linejoin="round"/>
    <path d="M 84.29792785644531 50.364479064941406 C 93.23015594482422 50.00048065185547 96.87533569335938 65.83009338378906 94.08623504638672 71.32907104492188" stroke-width="3.0" fill="none" stroke="rgb(0, -1, 1)" stroke-opacity="0.9839581" stroke-linecap="round" stroke-linejoin="round"/>
    <path d="M 85.27653503417969 156.01913452148438 C 86.73516845703125 162.030029296875 84.63646697998047 163.34158325195312 88.07905578613281 175.73114013671875" stroke-width="3.0" fill="none" stroke="rgb(1, 0, 0)" stroke-opacity="0.92281705" stroke-linecap="round" stroke-linejoin="round"/>
    <path d="M 101.2137451171875 90.73258209228516 C 96.87173461914062 96.14360046386719 89.06127166748047 88.64073944091797 111.69941711425781 90.93299865722656" stroke-width="3.0" fill="none" stroke="rgb(1, 0, 0)" stroke-opacity="0.71410644" stroke-linecap="round" stroke-linejoin="round"/>
    <path d="M 148.12135314941406 57.62040328979492 C 154.15084838867188 67.85982513427734 149.59580993652344 64.00003814697266 147.86502075195312 55.67501449584961" stroke-width="3.0" fill="none" stroke="rgb(0, -1, 0)" stroke-opacity="0.8808263" stroke-linecap="round" stroke-linejoin="round"/>
    <path d="M 143.48536682128906 186.7051239013672 C 145.33547973632812 173.59544372558594 146.0612335205078 164.302490234375 145.01744079589844 165.9952850341797" stroke-width="3.0" fill="none" stroke="rgb(0, 0, 0)" stroke-opacity="1.0012941" stroke-linecap="round" stroke-linejoin="round"/>
    <path d="M 162.29957580566406 2.5360536575317383 C 161.85067749023438 3.8034560680389404 166.8417205810547 -2.915912389755249 164.07701110839844 2.1214632987976074" stroke-width="3.0" fill="none" stroke="rgb(0, 0, 0)" stroke-opacity="0.7916197" stroke-linecap="round" stroke-linejoin="round"/>
  </g>
</svg>
