<?xml version="1.0" ?>
<svg xmlns="http://www.w3.org/2000/svg" version="1.1" width="224" height="224">
  <defs/>
  <g>
    <path d="M 48.00010681152344 16.000518798828125 C 42.817893981933594 15.233097076416016 45.52511978149414 14.01233959197998 44.72167205810547 16.086009979248047" stroke-width="3.0" fill="none" stroke="rgb(2, 2, 2)" stroke-opacity="0.9900001" stroke-linecap="round" stroke-linejoin="round"/>
    <path d="M 10.000534057617188 188.9998779296875 C 12.38143253326416 193.3978271484375 13.675116539001465 193.82545471191406 16.570344924926758 199.21099853515625" stroke-width="3.0" fill="none" stroke="rgb(2, 2, 2)" stroke-opacity="0.99" stroke-linecap="round" stroke-linejoin="round"/>
    <path d="M 123.99980163574219 198.0010986328125 C 121.65837860107422 200.9920654296875 116.89250183105469 200.3657684326172 119.90815734863281 201.5868377685547" stroke-width="3.0" fill="none" stroke="rgb(2, 2, 2)" stroke-opacity="0.99000007" stroke-linecap="round" stroke-linejoin="round"/>
    <path d="M 121.99990844726562 112.00011444091797 C 122.6802749633789 110.79178619384766 126.05287170410156 107.96166229248047 130.32508850097656 107.78366088867188" stroke-width="3.0" fill="none" stroke="rgb(2, 2, 2)" stroke-opacity="0.99" stroke-linecap="round" stroke-linejoin="round"/>
    <path d="M 76.00019073486328 187.99984741210938 C 72.22825622558594 187.51219177246094 72.53055572509766 189.7353057861328 70.8629150390625 189.68191528320312" stroke-width="3.0" fill="none" stroke="rgb(2, 2, 2)" stroke-opacity="0.99" stroke-linecap="round" stroke-linejoin="round"/>
    <path d="M 148.0001678466797 23.000228881835938 C 143.7949676513672 21.839399337768555 145.3093719482422 21.99635124206543 141.7384796142578 28.70417594909668" stroke-width="3.0" fill="none" stroke="rgb(2, 2, 2)" stroke-opacity="0.99000007" stroke-linecap="round" stroke-linejoin="round"/>
    <path d="M 216.0008087158203 98.0000991821289 C 217.47784423828125 92.46249389648438 217.31442260742188 96.95643615722656 216.8355712890625 96.13542938232422" stroke-width="3.0" fill="none" stroke="rgb(2, 2, -2)" stroke-opacity="0.99000007" stroke-linecap="round" stroke-linejoin="round"/>
    <path d="M 198.00074768066406 164.00025939941406 C 198.30838012695312 166.78390502929688 202.87905883789062 163.8512420654297 201.06643676757812 166.1184844970703" stroke-width="3.0" fill="none" stroke="rgb(2, 2, -2)" stroke-opacity="0.9900006" stroke-linecap="round" stroke-linejoin="round"/>
    <path d="M 158.9999542236328 202.00045776367188 C 156.67262268066406 198.5341339111328 159.28695678710938 196.17568969726562 164.06704711914062 191.24139404296875" stroke-width="3.0" fill="none" stroke="rgb(2, 2, 2)" stroke-opacity="0.99" stroke-linecap="round" stroke-linejoin="round"/>
    <path d="M 187.0000762939453 91.0015869140625 C 190.1898956298828 97.16630554199219 189.5159454345703 101.82145690917969 188.06143188476562 104.88424682617188" stroke-width="3.0" fill="none" stroke="rgb(2, 2, 2)" stroke-opacity="0.99000007" stroke-linecap="round" stroke-linejoin="round"/>
    <path d="M 24.999895095825195 151.0004425048828 C 24.6097469329834 145.70452880859375 24.87369155883789 141.6668243408203 30.1451473236084 140.04656982421875" stroke-width="3.0" fill="none" stroke="rgb(2, 2, -2)" stroke-opacity="0.99" stroke-linecap="round" stroke-linejoin="round"/>
    <path d="M 213.00015258789062 174.99984741210938 C 213.62188720703125 179.40151977539062 215.2607421875 182.60916137695312 217.98678588867188 181.8797149658203" stroke-width="3.0" fill="none" stroke="rgb(2, 2, -2)" stroke-opacity="0.99" stroke-linecap="round" stroke-linejoin="round"/>
    <path d="M 134.9998321533203 78.99968719482422 C 134.0171661376953 77.13153076171875 133.1708526611328 82.34959411621094 133.7943115234375 80.64608764648438" stroke-width="3.0" fill="none" stroke="rgb(2, 2, -2)" stroke-opacity="0.99000007" stroke-linecap="round" stroke-linejoin="round"/>
    <path d="M 58.0001106262207 1.0000743865966797 C 65.30131530761719 -0.2607555687427521 68.6476821899414 -6.013261318206787 63.19953536987305 -6.206053256988525" stroke-width="3.0" fill="none" stroke="rgb(2, 2, 2)" stroke-opacity="0.9900001" stroke-linecap="round" stroke-linejoin="round"/>
    <path d="M 109.0004653930664 59.00015640258789 C 109.53032684326172 58.02128219604492 111.90179443359375 53.100677490234375 111.73533630371094 48.6420783996582" stroke-width="3.0" fill="none" stroke="rgb(2, 2, -2)" stroke-opacity="0.99000007" stroke-linecap="round" stroke-linejoin="round"/>
    <path d="M 69.99921417236328 84.99974822998047 C 65.63573455810547 86.59112548828125 59.890541076660156 86.34043884277344 65.80949401855469 84.48812866210938" stroke-width="3.0" fill="none" stroke="rgb(2, 2, 2)" stroke-opacity="0.9900001" stroke-linecap="round" stroke-linejoin="round"/>
    <path d="M 98.0001449584961 78.99990844726562 C 97.00108337402344 76.08267974853516 97.36522674560547 76.07398986816406 99.73951721191406 78.60562133789062" stroke-width="3.0" fill="none" stroke="rgb(2, 2, 2)" stroke-opacity="0.9900001" stroke-linecap="round" stroke-linejoin="round"/>
    <path d="M 177.00184631347656 202.0003662109375 C 177.5313720703125 202.33010864257812 174.14588928222656 205.61679077148438 174.44476318359375 211.05807495117188" stroke-width="3.0" fill="none" stroke="rgb(2, 2, 2)" stroke-opacity="0.99000007" stroke-linecap="round" stroke-linejoin="round"/>
    <path d="M 193.00009155273438 40.000179290771484 C 197.17396545410156 37.40928649902344 200.13583374023438 39.61196517944336 195.68771362304688 40.86457061767578" stroke-width="3.0" fill="none" stroke="rgb(2, 2, 2)" stroke-opacity="0.99000007" stroke-linecap="round" stroke-linejoin="round"/>
    <path d="M 160.00010681152344 205.0002899169922 C 157.09800720214844 204.26210021972656 153.02622985839844 205.9091339111328 152.76766967773438 204.99085998535156" stroke-width="3.0" fill="none" stroke="rgb(2, 2, -2)" stroke-opacity="0.99000025" stroke-linecap="round" stroke-linejoin="round"/>
    <path d="M 53.999603271484375 218.0058135986328 C 51.7201042175293 216.88558959960938 55.70248031616211 222.09388732910156 53.78176498413086 221.39491271972656" stroke-width="3.0" fill="none" stroke="rgb(2, 2, -2)" stroke-opacity="0.99000007" stroke-linecap="round" stroke-linejoin="round"/>
    <path d="M 45.00019073486328 42.999755859375 C 46.461151123046875 39.402488708496094 43.09478759765625 43.21520233154297 40.07562255859375 40.79291534423828" stroke-width="3.0" fill="none" stroke="rgb(2, 2, 2)" stroke-opacity="0.99000007" stroke-linecap="round" stroke-linejoin="round"/>
    <path d="M 187.0008087158203 192.9998779296875 C 191.74449157714844 188.84193420410156 187.55682373046875 190.1967010498047 185.85057067871094 195.7576141357422" stroke-width="3.0" fill="none" stroke="rgb(2, 2, -2)" stroke-opacity="0.99000007" stroke-linecap="round" stroke-linejoin="round"/>
    <path d="M 20.99994468688965 143.00021362304688 C 25.386018753051758 143.93173217773438 24.706281661987305 141.16363525390625 25.39570426940918 143.5264892578125" stroke-width="3.0" fill="none" stroke="rgb(2, 2, 2)" stroke-opacity="0.99000007" stroke-linecap="round" stroke-linejoin="round"/>
    <path d="M 219.00010681152344 148.99984741210938 C 220.67909240722656 146.13941955566406 215.22048950195312 150.54469299316406 218.46580505371094 146.52798461914062" stroke-width="3.0" fill="none" stroke="rgb(2, 2, 2)" stroke-opacity="0.99000007" stroke-linecap="round" stroke-linejoin="round"/>
    <path d="M 69.00116729736328 108.00005340576172 C 67.35308837890625 105.64576721191406 64.75613403320312 112.3035659790039 64.59911346435547 112.95116424560547" stroke-width="3.0" fill="none" stroke="rgb(2, 2, 2)" stroke-opacity="0.99000007" stroke-linecap="round" stroke-linejoin="round"/>
    <path d="M 79.99982452392578 169.9996795654297 C 81.77021026611328 174.57247924804688 84.12594604492188 176.95846557617188 81.74601745605469 173.67250061035156" stroke-width="3.0" fill="none" stroke="rgb(2, 2, 2)" stroke-opacity="0.99" stroke-linecap="round" stroke-linejoin="round"/>
    <path d="M 190.99989318847656 28.999874114990234 C 189.86663818359375 22.547069549560547 192.48126220703125 17.16454315185547 193.3168182373047 21.22459602355957" stroke-width="3.0" fill="none" stroke="rgb(2, 2, 2)" stroke-opacity="0.99000007" stroke-linecap="round" stroke-linejoin="round"/>
    <path d="M 132.9982452392578 92.99983215332031 C 127.66990661621094 90.58854675292969 131.4573211669922 91.94992065429688 133.59385681152344 90.54039764404297" stroke-width="3.0" fill="none" stroke="rgb(2, 2, 2)" stroke-opacity="0.99000007" stroke-linecap="round" stroke-linejoin="round"/>
    <path d="M 28.0001220703125 174.9996795654297 C 30.576845169067383 167.48025512695312 35.361549377441406 168.43431091308594 32.8173713684082 175.78240966796875" stroke-width="3.0" fill="none" stroke="rgb(2, 2, 2)" stroke-opacity="0.99000007" stroke-linecap="round" stroke-linejoin="round"/>
    <path d="M 149.99990844726562 204.000244140625 C 154.97079467773438 204.64776611328125 154.12503051757812 197.3420867919922 157.1361083984375 202.36631774902344" stroke-width="3.0" fill="none" stroke="rgb(2, 2, 2)" stroke-opacity="0.99000007" stroke-linecap="round" stroke-linejoin="round"/>
    <path d="M 155.99978637695312 207.0001983642578 C 160.25430297851562 208.24081420898438 159.51283264160156 207.08084106445312 158.57122802734375 208.61517333984375" stroke-width="3.0" fill="none" stroke="rgb(2, 2, -2)" stroke-opacity="0.99000055" stroke-linecap="round" stroke-linejoin="round"/>
    <path d="M 81.00008392333984 105.0004653930664 C 80.131591796875 106.04019927978516 80.04531860351562 104.9532470703125 82.77381134033203 109.22125244140625" stroke-width="3.0" fill="none" stroke="rgb(2, 2, -2)" stroke-opacity="0.99000007" stroke-linecap="round" stroke-linejoin="round"/>
    <path d="M 104.99960327148438 79.99954986572266 C 108.41634368896484 83.02754211425781 107.6523208618164 80.96318054199219 103.17959594726562 85.44448852539062" stroke-width="3.0" fill="none" stroke="rgb(2, 2, 2)" stroke-opacity="0.99000007" stroke-linecap="round" stroke-linejoin="round"/>
    <path d="M 183.99972534179688 160.9967041015625 C 182.30886840820312 164.62095642089844 180.1264190673828 167.0767822265625 180.81382751464844 165.45184326171875" stroke-width="3.0" fill="none" stroke="rgb(2, 2, -2)" stroke-opacity="0.99000007" stroke-linecap="round" stroke-linejoin="round"/>
    <path d="M 55.00010299682617 85.00006103515625 C 51.8586540222168 89.47522735595703 47.229129791259766 93.82420349121094 48.65815353393555 96.23609161376953" stroke-width="3.0" fill="none" stroke="rgb(2, 2, 2)" stroke-opacity="0.99000007" stroke-linecap="round" stroke-linejoin="round"/>
    <path d="M 46.999778747558594 214.00006103515625 C 49.54926681518555 215.24151611328125 54.97486877441406 212.8240966796875 58.0004997253418 212.6029052734375" stroke-width="3.0" fill="none" stroke="rgb(2, 2, 2)" stroke-opacity="0.99" stroke-linecap="round" stroke-linejoin="round"/>
    <path d="M 89.9999008178711 215.00021362304688 C 90.89212036132812 217.29629516601562 94.97333526611328 215.6279754638672 96.86283874511719 214.62615966796875" stroke-width="3.0" fill="none" stroke="rgb(2, 2, 2)" stroke-opacity="0.99000007" stroke-linecap="round" stroke-linejoin="round"/>
    <path d="M 136.0020751953125 200.00083923339844 C 139.8893280029297 197.73422241210938 137.06126403808594 200.99501037597656 134.8765869140625 202.79981994628906" stroke-width="3.0" fill="none" stroke="rgb(2, 2, 2)" stroke-opacity="0.99000007" stroke-linecap="round" stroke-linejoin="round"/>
    <path d="M 142.99993896484375 84.00106048583984 C 142.96421813964844 80.95536041259766 144.82008361816406 80.41078186035156 142.18653869628906 79.16255187988281" stroke-width="3.0" fill="none" stroke="rgb(2, -2, 2)" stroke-opacity="0.9900001" stroke-linecap="round" stroke-linejoin="round"/>
    <path d="M 52.99956130981445 83.9999008178711 C 50.505775451660156 88.1662368774414 50.98360061645508 88.3438949584961 52.50995635986328 85.67303466796875" stroke-width="3.0" fill="none" stroke="rgb(2, 2, 2)" stroke-opacity="0.99000007" stroke-linecap="round" stroke-linejoin="round"/>
    <path d="M 213.00131225585938 122.9989013671875 C 214.8811798095703 122.06765747070312 209.288818359375 121.88520812988281 213.6698455810547 125.46978759765625" stroke-width="3.0" fill="none" stroke="rgb(2, 2, 2)" stroke-opacity="0.99000007" stroke-linecap="round" stroke-linejoin="round"/>
    <path d="M 35.00032043457031 100.00013732910156 C 32.974082946777344 100.10564422607422 35.22072982788086 101.26981353759766 33.486568450927734 98.20004272460938" stroke-width="3.0" fill="none" stroke="rgb(2, 2, 2)" stroke-opacity="0.99000007" stroke-linecap="round" stroke-linejoin="round"/>
    <path d="M 171.9999237060547 206.00006103515625 C 170.157470703125 202.8518524169922 175.8260040283203 203.1622772216797 180.12435913085938 201.41265869140625" stroke-width="3.0" fill="none" stroke="rgb(2, 2, 2)" stroke-opacity="0.99000007" stroke-linecap="round" stroke-linejoin="round"/>
    <path d="M 172.99990844726562 83.00007629394531 C 174.9795684814453 83.73565673828125 171.9030303955078 88.9207534790039 175.165771484375 87.38497924804688" stroke-width="3.0" fill="none" stroke="rgb(2, 2, -2)" stroke-opacity="0.9900001" stroke-linecap="round" stroke-linejoin="round"/>
    <path d="M 167.00010681152344 110.00060272216797 C 169.1480255126953 110.1824722290039 166.6333465576172 113.21293640136719 167.80670166015625 114.46947479248047" stroke-width="3.0" fill="none" stroke="rgb(2, 2, -2)" stroke-opacity="0.99000007" stroke-linecap="round" stroke-linejoin="round"/>
    <path d="M 79.99989318847656 38.99971008300781 C 80.37248229980469 35.49822235107422 84.27465057373047 38.8640022277832 85.74490356445312 46.241798400878906" stroke-width="3.0" fill="none" stroke="rgb(2, 2, 2)" stroke-opacity="0.99000007" stroke-linecap="round" stroke-linejoin="round"/>
    <path d="M 198.00009155273438 35.99995040893555 C 200.82411193847656 38.89141845703125 198.83218383789062 40.92973709106445 202.222412109375 36.83446502685547" stroke-width="3.0" fill="none" stroke="rgb(2, 2, 2)" stroke-opacity="0.99000007" stroke-linecap="round" stroke-linejoin="round"/>
    <path d="M 170.00010681152344 1.00008225440979 C 170.8436279296875 5.381078720092773 168.79026794433594 8.880141258239746 172.07562255859375 6.046675205230713" stroke-width="3.0" fill="none" stroke="rgb(2, 2, 2)" stroke-opacity="0.99000007" stroke-linecap="round" stroke-linejoin="round"/>
    <path d="M 150.99972534179688 117.00005340576172 C 154.3756103515625 115.5007553100586 154.83642578125 116.1247787475586 151.3968505859375 113.38327026367188" stroke-width="3.0" fill="none" stroke="rgb(2, 2, 2)" stroke-opacity="0.99000007" stroke-linecap="round" stroke-linejoin="round"/>
    <path d="M 50.00007629394531 184.99993896484375 C 45.038414001464844 182.65206909179688 51.36980056762695 185.47393798828125 48.287254333496094 185.9518585205078" stroke-width="3.0" fill="none" stroke="rgb(2, 2, 2)" stroke-opacity="0.99000007" stroke-linecap="round" stroke-linejoin="round"/>
    <path d="M 146.00247192382812 127.99974822998047 C 145.72784423828125 126.81507110595703 144.61558532714844 128.31298828125 146.19552612304688 126.43799591064453" stroke-width="3.0" fill="none" stroke="rgb(2, 2, 2)" stroke-opacity="0.99000007" stroke-linecap="round" stroke-linejoin="round"/>
    <path d="M 137.00018310546875 45.99989700317383 C 136.4310302734375 50.506141662597656 137.28726196289062 52.43691635131836 134.7828369140625 55.32463455200195" stroke-width="3.0" fill="none" stroke="rgb(2, 2, 2)" stroke-opacity="0.99000007" stroke-linecap="round" stroke-linejoin="round"/>
    <path d="M 190.00018310546875 101.00007629394531 C 189.01307678222656 100.74107360839844 184.5977020263672 104.15040588378906 187.51849365234375 101.81027221679688" stroke-width="3.0" fill="none" stroke="rgb(2, 2, 2)" stroke-opacity="0.9900003" stroke-linecap="round" stroke-linejoin="round"/>
    <path d="M 58.99991226196289 189.0000762939453 C 54.36349868774414 185.94883728027344 58.3640251159668 183.8156280517578 57.53797149658203 186.15672302246094" stroke-width="3.0" fill="none" stroke="rgb(2, 2, 2)" stroke-opacity="0.99000007" stroke-linecap="round" stroke-linejoin="round"/>
    <path d="M 136.9998321533203 70.99956512451172 C 133.6984100341797 67.19794464111328 135.65176391601562 68.36299133300781 141.88063049316406 66.65384674072266" stroke-width="3.0" fill="none" stroke="rgb(2, 2, -2)" stroke-opacity="0.99000007" stroke-linecap="round" stroke-linejoin="round"/>
    <path d="M 44.00006866455078 155.99952697753906 C 39.909488677978516 154.87057495117188 42.62627029418945 149.48675537109375 41.25141143798828 151.17686462402344" stroke-width="3.0" fill="none" stroke="rgb(2, 2, 2)" stroke-opacity="0.99000007" stroke-linecap="round" stroke-linejoin="round"/>
    <path d="M 188.0001678466797 30.999692916870117 C 189.72412109375 35.863441467285156 192.44764709472656 38.068241119384766 189.100341796875 41.43109130859375" stroke-width="3.0" fill="none" stroke="rgb(2, 2, 2)" stroke-opacity="0.99000007" stroke-linecap="round" stroke-linejoin="round"/>
    <path d="M 138.9996337890625 30.000070571899414 C 142.28939819335938 32.60560607910156 138.74185180664062 28.971494674682617 141.7873077392578 36.36611557006836" stroke-width="3.0" fill="none" stroke="rgb(2, 2, 2)" stroke-opacity="0.99000007" stroke-linecap="round" stroke-linejoin="round"/>
    <path d="M 23.999874114990234 134.99859619140625 C 28.745115280151367 140.43524169921875 25.156417846679688 138.5662384033203 30.63702392578125 138.35653686523438" stroke-width="3.0" fill="none" stroke="rgb(2, 2, 2)" stroke-opacity="0.99" stroke-linecap="round" stroke-linejoin="round"/>
    <path d="M 205.9998016357422 20.004220962524414 C 207.03570556640625 21.127689361572266 206.52584838867188 16.162675857543945 205.90255737304688 15.264543533325195" stroke-width="3.0" fill="none" stroke="rgb(2, 2, 2)" stroke-opacity="0.99000007" stroke-linecap="round" stroke-linejoin="round"/>
    <path d="M 200.00006103515625 63.99988555908203 C 197.37841796875 65.3836898803711 201.41090393066406 64.87432098388672 198.28831481933594 66.47069549560547" stroke-width="3.0" fill="none" stroke="rgb(2, 2, 2)" stroke-opacity="0.99000007" stroke-linecap="round" stroke-linejoin="round"/>
    <path d="M 125.9998779296875 17.000160217285156 C 123.9031753540039 16.50590705871582 123.3287353515625 11.220193862915039 121.57109069824219 12.88962459564209" stroke-width="3.0" fill="none" stroke="rgb(2, 2, 2)" stroke-opacity="0.99000007" stroke-linecap="round" stroke-linejoin="round"/>
    <path d="M 121.99884796142578 58.99991226196289 C 123.16313171386719 59.04570007324219 120.61786651611328 61.61974334716797 119.15234375 63.31764221191406" stroke-width="3.0" fill="none" stroke="rgb(2, 2, 2)" stroke-opacity="0.99000007" stroke-linecap="round" stroke-linejoin="round"/>
    <path d="M 39.99977111816406 126.00020599365234 C 44.633914947509766 126.87711334228516 41.06510925292969 124.31330108642578 39.333404541015625 121.74166107177734" stroke-width="3.0" fill="none" stroke="rgb(2, 2, -2)" stroke-opacity="0.99000007" stroke-linecap="round" stroke-linejoin="round"/>
    <path d="M 127.00022888183594 219.99765014648438 C 126.06937408447266 219.96229553222656 123.36799621582031 217.42822265625 118.86002349853516 217.6161346435547" stroke-width="3.0" fill="none" stroke="rgb(2, 2, -2)" stroke-opacity="0.99" stroke-linecap="round" stroke-linejoin="round"/>
    <path d="M 39.00009536743164 31.99985694885254 C 37.38017272949219 33.34765625 40.5947265625 29.934356689453125 38.42036437988281 32.64784622192383" stroke-width="3.0" fill="none" stroke="rgb(2, 2, 2)" stroke-opacity="0.99000007" stroke-linecap="round" stroke-linejoin="round"/>
    <path d="M 46.00152587890625 115.00019836425781 C 43.91738510131836 122.5242919921875 44.53672790527344 125.10539245605469 44.462249755859375 125.48632049560547" stroke-width="3.0" fill="none" stroke="rgb(2, 2, -2)" stroke-opacity="0.99000007" stroke-linecap="round" stroke-linejoin="round"/>
    <path d="M 47.00008773803711 40.000484466552734 C 50.94475555419922 43.46671676635742 49.13108825683594 46.51667404174805 47.32728958129883 49.93707275390625" stroke-width="3.0" fill="none" stroke="rgb(2, 2, 2)" stroke-opacity="0.99000007" stroke-linecap="round" stroke-linejoin="round"/>
    <path d="M 156.99981689453125 26.000062942504883 C 154.48995971679688 24.192293167114258 157.62045288085938 23.09904670715332 154.22406005859375 21.06991958618164" stroke-width="3.0" fill="none" stroke="rgb(2, 2, 2)" stroke-opacity="0.99000007" stroke-linecap="round" stroke-linejoin="round"/>
    <path d="M 186.0039520263672 167.01173400878906 C 184.53924560546875 170.83949279785156 188.41065979003906 169.0341339111328 185.61634826660156 165.3249053955078" stroke-width="3.0" fill="none" stroke="rgb(2, 2, 2)" stroke-opacity="0.99000007" stroke-linecap="round" stroke-linejoin="round"/>
    <path d="M 143.00015258789062 209.99990844726562 C 139.72207641601562 211.3218231201172 141.1068115234375 208.9449005126953 144.81764221191406 209.92562866210938" stroke-width="3.0" fill="none" stroke="rgb(2, 2, 2)" stroke-opacity="0.99000007" stroke-linecap="round" stroke-linejoin="round"/>
    <path d="M 127.99990844726562 67.9999008178711 C 127.14948272705078 71.12252044677734 126.04713439941406 68.45136260986328 129.73214721679688 69.11897277832031" stroke-width="3.0" fill="none" stroke="rgb(2, 2, 2)" stroke-opacity="0.99000007" stroke-linecap="round" stroke-linejoin="round"/>
    <path d="M 156.99989318847656 150.9999237060547 C 152.19029235839844 153.31280517578125 153.14291381835938 149.125732421875 155.99111938476562 153.3047332763672" stroke-width="3.0" fill="none" stroke="rgb(2, 2, 2)" stroke-opacity="0.99000007" stroke-linecap="round" stroke-linejoin="round"/>
    <path d="M 18.000553131103516 204.99974060058594 C 18.987621307373047 208.6442108154297 15.138452529907227 207.1053009033203 15.239686012268066 212.14381408691406" stroke-width="3.0" fill="none" stroke="rgb(2, 2, -2)" stroke-opacity="0.99" stroke-linecap="round" stroke-linejoin="round"/>
    <path d="M 170.99993896484375 201.001220703125 C 170.395263671875 207.4491424560547 177.63873291015625 204.4600067138672 178.74008178710938 200.64407348632812" stroke-width="3.0" fill="none" stroke="rgb(2, 2, 2)" stroke-opacity="0.9900001" stroke-linecap="round" stroke-linejoin="round"/>
    <path d="M 119.00003814697266 103.00008392333984 C 116.70671844482422 104.742919921875 119.70671081542969 108.98014831542969 119.31410217285156 106.630859375" stroke-width="3.0" fill="none" stroke="rgb(2, 2, 2)" stroke-opacity="0.99000007" stroke-linecap="round" stroke-linejoin="round"/>
    <path d="M 63.000099182128906 106.0035171508789 C 63.096954345703125 110.83747863769531 64.35558319091797 114.882080078125 62.61185836791992 112.64714050292969" stroke-width="3.0" fill="none" stroke="rgb(2, 2, -2)" stroke-opacity="0.99000007" stroke-linecap="round" stroke-linejoin="round"/>
    <path d="M 30.999788284301758 167.99993896484375 C 36.09700393676758 171.5034637451172 40.504356384277344 166.22276306152344 39.296939849853516 162.97055053710938" stroke-width="3.0" fill="none" stroke="rgb(2, 2, 2)" stroke-opacity="0.99" stroke-linecap="round" stroke-linejoin="round"/>
    <path d="M 201.0005340576172 163.00086975097656 C 199.3827362060547 167.1054229736328 192.33399963378906 165.0421905517578 196.3983612060547 165.5430450439453" stroke-width="3.0" fill="none" stroke="rgb(2, 2, 2)" stroke-opacity="0.9900001" stroke-linecap="round" stroke-linejoin="round"/>
    <path d="M 131.00025939941406 125.99967956542969 C 132.4074249267578 128.38490295410156 135.24822998046875 131.3309326171875 135.58041381835938 128.16432189941406" stroke-width="3.0" fill="none" stroke="rgb(2, 2, 2)" stroke-opacity="0.99000007" stroke-linecap="round" stroke-linejoin="round"/>
    <path d="M 139.00022888183594 148.9997100830078 C 134.01515197753906 145.7158203125 133.4368133544922 149.74404907226562 133.6014862060547 147.6188507080078" stroke-width="3.0" fill="none" stroke="rgb(2, 2, 2)" stroke-opacity="0.99000007" stroke-linecap="round" stroke-linejoin="round"/>
    <path d="M 67.00054168701172 84.99927520751953 C 63.27124786376953 79.91315460205078 70.17916870117188 81.98527526855469 66.43196105957031 83.22286224365234" stroke-width="3.0" fill="none" stroke="rgb(2, 2, 2)" stroke-opacity="0.9900002" stroke-linecap="round" stroke-linejoin="round"/>
    <path d="M 200.00033569335938 136.00021362304688 C 206.54147338867188 133.5696258544922 205.9932098388672 133.31393432617188 201.2229766845703 134.10867309570312" stroke-width="3.0" fill="none" stroke="rgb(2, 2, 2)" stroke-opacity="0.99000007" stroke-linecap="round" stroke-linejoin="round"/>
    <path d="M 76.12952423095703 15.00129508972168 C 71.2951889038086 12.097505569458008 73.98870849609375 12.43813705444336 75.55176544189453 14.241421699523926" stroke-width="3.0" fill="none" stroke="rgb(2, 2, 2)" stroke-opacity="0.99000007" stroke-linecap="round" stroke-linejoin="round"/>
    <path d="M 101.0000991821289 63.99970245361328 C 98.46144104003906 61.73283004760742 99.01885223388672 62.656158447265625 98.67451477050781 67.31041717529297" stroke-width="3.0" fill="none" stroke="rgb(2, 2, -2)" stroke-opacity="0.99000007" stroke-linecap="round" stroke-linejoin="round"/>
    <path d="M 110.00021362304688 56.00019454956055 C 107.43782806396484 57.981868743896484 108.43921661376953 54.83579635620117 103.02819061279297 54.52418518066406" stroke-width="3.0" fill="none" stroke="rgb(2, 2, 2)" stroke-opacity="0.99000007" stroke-linecap="round" stroke-linejoin="round"/>
    <path d="M 50.99769973754883 210.99993896484375 C 53.06868362426758 204.54681396484375 48.29548263549805 202.5999298095703 45.33981704711914 197.1498565673828" stroke-width="3.0" fill="none" stroke="rgb(2, 2, 2)" stroke-opacity="0.99000007" stroke-linecap="round" stroke-linejoin="round"/>
    <path d="M 200.00009155273438 117.99980163574219 C 202.00857543945312 123.4112777709961 195.69387817382812 122.30276489257812 197.16586303710938 125.21304321289062" stroke-width="3.0" fill="none" stroke="rgb(2, 2, -2)" stroke-opacity="0.99000007" stroke-linecap="round" stroke-linejoin="round"/>
    <path d="M 170.0019989013672 11.000100135803223 C 166.42361450195312 7.9323201179504395 170.48223876953125 5.645307540893555 171.7809295654297 8.848419189453125" stroke-width="3.0" fill="none" stroke="rgb(2, 2, 2)" stroke-opacity="0.99000007" stroke-linecap="round" stroke-linejoin="round"/>
    <path d="M 189.00009155273438 26.000911712646484 C 189.9628143310547 29.322040557861328 186.1274871826172 33.81846237182617 187.2016143798828 35.59540557861328" stroke-width="3.0" fill="none" stroke="rgb(2, 2, 2)" stroke-opacity="0.9900001" stroke-linecap="round" stroke-linejoin="round"/>
    <path d="M 157.9739990234375 208.00123596191406 C 155.83984375 203.05355834960938 149.9474334716797 198.0514373779297 148.97691345214844 195.07960510253906" stroke-width="3.0" fill="none" stroke="rgb(2, 2, 2)" stroke-opacity="0.99000007" stroke-linecap="round" stroke-linejoin="round"/>
    <path d="M 104.00019836425781 76.9995346069336 C 110.1650390625 74.93130493164062 108.1229019165039 72.81226348876953 108.18704986572266 66.13253021240234" stroke-width="3.0" fill="none" stroke="rgb(2, 2, -2)" stroke-opacity="0.99" stroke-linecap="round" stroke-linejoin="round"/>
    <path d="M 209.9999237060547 31.99988555908203 C 213.46131896972656 35.64164733886719 214.43435668945312 33.45146560668945 211.67697143554688 34.78841018676758" stroke-width="3.0" fill="none" stroke="rgb(2, 2, 2)" stroke-opacity="0.99" stroke-linecap="round" stroke-linejoin="round"/>
    <path d="M 50.999446868896484 95.00013732910156 C 45.80107498168945 89.82191467285156 42.86783981323242 92.41508483886719 40.381500244140625 89.62700653076172" stroke-width="3.0" fill="none" stroke="rgb(2, 2, -2)" stroke-opacity="0.99000007" stroke-linecap="round" stroke-linejoin="round"/>
    <path d="M 17.000274658203125 125.00005340576172 C 16.43925666809082 124.95096588134766 19.856687545776367 122.0840835571289 21.154748916625977 121.5781478881836" stroke-width="3.0" fill="none" stroke="rgb(2, 2, 2)" stroke-opacity="0.99" stroke-linecap="round" stroke-linejoin="round"/>
  </g>
</svg>
