<?xml version="1.0" ?>
<svg xmlns="http://www.w3.org/2000/svg" version="1.1" width="224" height="224">
  <defs/>
  <g>
    <path d="M 48.06247329711914 9.206085205078125 C 65.33336639404297 22.833711624145508 56.288272857666016 34.274627685546875 43.897552490234375 0.10225376486778259" stroke-width="3.0" fill="none" stroke="rgb(1, -1, 0)" stroke-opacity="0.13310634" stroke-linecap="round" stroke-linejoin="round"/>
    <path d="M 16.748903274536133 191.02073669433594 C 15.857816696166992 192.8673095703125 15.610979080200195 185.22462463378906 16.300872802734375 188.89047241210938" stroke-width="3.0" fill="none" stroke="rgb(1, 0, 1)" stroke-opacity="0.3096945" stroke-linecap="round" stroke-linejoin="round"/>
    <path d="M 125.5727767944336 194.86669921875 C 126.61040496826172 212.35731506347656 118.07770538330078 202.54664611816406 124.19168090820312 200.18544006347656" stroke-width="3.0" fill="none" stroke="rgb(0, 1, -1)" stroke-opacity="0.19769673" stroke-linecap="round" stroke-linejoin="round"/>
    <path d="M 122.39689636230469 114.3388671875 C 119.65948486328125 106.67357635498047 119.48430633544922 109.5705795288086 121.8534927368164 111.48651885986328" stroke-width="3.0" fill="none" stroke="rgb(0, 0, 1)" stroke-opacity="0.41963977" stroke-linecap="round" stroke-linejoin="round"/>
    <path d="M 71.87183380126953 193.74436950683594 C 74.48961639404297 194.8282928466797 66.96195220947266 191.27947998046875 74.939208984375 195.05491638183594" stroke-width="3.0" fill="none" stroke="rgb(0, 0, 0)" stroke-opacity="0.25264317" stroke-linecap="round" stroke-linejoin="round"/>
    <path d="M 136.10748291015625 22.257179260253906 C 132.6760711669922 10.204540252685547 143.50828552246094 27.24665069580078 139.59527587890625 24.147090911865234" stroke-width="3.0" fill="none" stroke="rgb(1, 0, 0)" stroke-opacity="0.38686344" stroke-linecap="round" stroke-linejoin="round"/>
    <path d="M 211.24867248535156 90.38316345214844 C 210.7122039794922 90.408203125 210.4351043701172 90.30542755126953 210.69000244140625 89.87734985351562" stroke-width="3.0" fill="none" stroke="rgb(1, 0, 0)" stroke-opacity="0.037920155" stroke-linecap="round" stroke-linejoin="round"/>
    <path d="M 197.50881958007812 145.5836181640625 C 192.2727508544922 169.16436767578125 201.4862518310547 155.2298583984375 200.6356201171875 174.08831787109375" stroke-width="3.0" fill="none" stroke="rgb(-2, 1, 0)" stroke-opacity="0.13750444" stroke-linecap="round" stroke-linejoin="round"/>
    <path d="M 159.89552307128906 193.76095581054688 C 159.87013244628906 202.0736846923828 163.2238006591797 198.12289428710938 159.93605041503906 194.49330139160156" stroke-width="3.0" fill="none" stroke="rgb(0, -1, 2)" stroke-opacity="0.42739034" stroke-linecap="round" stroke-linejoin="round"/>
    <path d="M 181.76132202148438 89.8094253540039 C 191.01699829101562 97.66761779785156 181.70567321777344 105.77328491210938 194.5538330078125 120.2347183227539" stroke-width="3.0" fill="none" stroke="rgb(0, 0, 3)" stroke-opacity="0.20700832" stroke-linecap="round" stroke-linejoin="round"/>
    <path d="M 32.89372634887695 135.7715606689453 C 30.79242706298828 133.38626098632812 36.03663635253906 137.46849060058594 32.75404357910156 138.7362060546875" stroke-width="3.0" fill="none" stroke="rgb(1, 0, -2)" stroke-opacity="0.37026253" stroke-linecap="round" stroke-linejoin="round"/>
    <path d="M 202.91920471191406 187.94947814941406 C 198.60337829589844 186.9810028076172 209.7838897705078 188.29623413085938 201.91226196289062 174.3211669921875" stroke-width="3.0" fill="none" stroke="rgb(0, 0, 0)" stroke-opacity="0.29815793" stroke-linecap="round" stroke-linejoin="round"/>
    <path d="M 138.70372009277344 89.99738311767578 C 143.0149383544922 67.9242172241211 140.54867553710938 92.14173889160156 140.89031982421875 79.29814147949219" stroke-width="3.0" fill="none" stroke="rgb(0, -1, 2)" stroke-opacity="0.38723227" stroke-linecap="round" stroke-linejoin="round"/>
    <path d="M 42.75510025024414 -1.110137939453125 C 44.407222747802734 6.02540922164917 54.51491165161133 -18.624317169189453 68.93109893798828 -16.717313766479492" stroke-width="3.0" fill="none" stroke="rgb(-2, 2, 2)" stroke-opacity="0.50025034" stroke-linecap="round" stroke-linejoin="round"/>
    <path d="M 95.29080200195312 59.432830810546875 C 102.26203155517578 48.37506103515625 101.42276000976562 49.02700424194336 102.97073364257812 49.42032241821289" stroke-width="3.0" fill="none" stroke="rgb(1, 0, -2)" stroke-opacity="0.2640842" stroke-linecap="round" stroke-linejoin="round"/>
    <path d="M 67.56842041015625 85.20008850097656 C 58.024173736572266 83.67508697509766 61.637264251708984 79.42306518554688 67.65575408935547 83.31829833984375" stroke-width="3.0" fill="none" stroke="rgb(3, -4, 2)" stroke-opacity="0.3452152" stroke-linecap="round" stroke-linejoin="round"/>
    <path d="M 95.4170150756836 83.4079360961914 C 98.4223403930664 73.00606536865234 101.8171615600586 70.0365219116211 97.6373291015625 80.57953643798828" stroke-width="3.0" fill="none" stroke="rgb(1, -2, 3)" stroke-opacity="0.42925197" stroke-linecap="round" stroke-linejoin="round"/>
    <path d="M 169.7155303955078 201.6590576171875 C 167.22531127929688 206.19424438476562 176.06088256835938 207.37039184570312 163.70828247070312 202.86907958984375" stroke-width="3.0" fill="none" stroke="rgb(0, 1, -3)" stroke-opacity="0.27824578" stroke-linecap="round" stroke-linejoin="round"/>
    <path d="M 186.13893127441406 40.57893753051758 C 188.63772583007812 42.09590530395508 188.70338439941406 39.87607955932617 187.92994689941406 38.9908447265625" stroke-width="3.0" fill="none" stroke="rgb(1, 0, 1)" stroke-opacity="0.37602034" stroke-linecap="round" stroke-linejoin="round"/>
    <path d="M 159.63497924804688 208.4933319091797 C 158.4419708251953 209.00880432128906 165.74623107910156 206.16973876953125 163.40914916992188 199.7654266357422" stroke-width="3.0" fill="none" stroke="rgb(-1, 2, -3)" stroke-opacity="0.17831637" stroke-linecap="round" stroke-linejoin="round"/>
    <path d="M 53.503143310546875 206.6947784423828 C 62.84749221801758 217.37704467773438 71.02888488769531 229.912353515625 64.59703826904297 231.1475067138672" stroke-width="3.0" fill="none" stroke="rgb(0, 0, 1)" stroke-opacity="0.20136021" stroke-linecap="round" stroke-linejoin="round"/>
    <path d="M 57.633697509765625 37.63356018066406 C 56.60260009765625 36.314598083496094 59.83147430419922 38.25523376464844 57.22366714477539 32.85628890991211" stroke-width="3.0" fill="none" stroke="rgb(0, 1, 0)" stroke-opacity="0.4023527" stroke-linecap="round" stroke-linejoin="round"/>
    <path d="M 181.324951171875 197.63421630859375 C 195.7891387939453 179.73159790039062 197.06861877441406 195.80078125 185.01998901367188 189.56558227539062" stroke-width="3.0" fill="none" stroke="rgb(-1, 1, -1)" stroke-opacity="0.30885127" stroke-linecap="round" stroke-linejoin="round"/>
    <path d="M 31.831663131713867 138.86219787597656 C 36.09556198120117 140.63818359375 36.059017181396484 136.0399932861328 30.93058204650879 138.8093719482422" stroke-width="3.0" fill="none" stroke="rgb(0, 0, 0)" stroke-opacity="0.2558493" stroke-linecap="round" stroke-linejoin="round"/>
    <path d="M 231.51190185546875 154.5423126220703 C 233.34713745117188 155.82102966308594 227.7408447265625 150.03456115722656 229.66796875 150.60987854003906" stroke-width="3.0" fill="none" stroke="rgb(0, 0, 0)" stroke-opacity="0.60053355" stroke-linecap="round" stroke-linejoin="round"/>
    <path d="M 73.76696014404297 107.44232940673828 C 60.521244049072266 107.64472198486328 69.17481231689453 105.9205551147461 66.95928192138672 104.87085723876953" stroke-width="3.0" fill="none" stroke="rgb(0, 0, 1)" stroke-opacity="0.1775773" stroke-linecap="round" stroke-linejoin="round"/>
    <path d="M 79.01934814453125 172.7470245361328 C 78.76902770996094 173.1107635498047 77.87238311767578 172.71066284179688 78.7802963256836 172.49839782714844" stroke-width="3.0" fill="none" stroke="rgb(0, 0, 0)" stroke-opacity="0.30438948" stroke-linecap="round" stroke-linejoin="round"/>
    <path d="M 185.7476043701172 28.801620483398438 C 189.0675506591797 4.126008033752441 184.1179962158203 3.453352928161621 191.79904174804688 -3.878268003463745" stroke-width="3.0" fill="none" stroke="rgb(0, 0, 0)" stroke-opacity="0.30563712" stroke-linecap="round" stroke-linejoin="round"/>
    <path d="M 126.70133209228516 102.59896850585938 C 136.13392639160156 91.2906723022461 133.13973999023438 97.01188659667969 129.38827514648438 97.43991088867188" stroke-width="3.0" fill="none" stroke="rgb(0, 0, 1)" stroke-opacity="0.22232161" stroke-linecap="round" stroke-linejoin="round"/>
    <path d="M 31.348411560058594 180.8883819580078 C 33.860565185546875 171.42417907714844 31.3996639251709 168.71595764160156 30.444843292236328 173.2843017578125" stroke-width="3.0" fill="none" stroke="rgb(0, 1, 0)" stroke-opacity="0.2546182" stroke-linecap="round" stroke-linejoin="round"/>
    <path d="M 155.60137939453125 205.95797729492188 C 156.95704650878906 206.6125030517578 157.2135009765625 201.81805419921875 156.40121459960938 205.67459106445312" stroke-width="3.0" fill="none" stroke="rgb(0, 1, 0)" stroke-opacity="0.2599343" stroke-linecap="round" stroke-linejoin="round"/>
    <path d="M 168.11761474609375 202.3907928466797 C 159.31703186035156 197.49159240722656 166.0342559814453 207.12124633789062 149.5200653076172 207.61715698242188" stroke-width="3.0" fill="none" stroke="rgb(-1, 1, -2)" stroke-opacity="0.27440718" stroke-linecap="round" stroke-linejoin="round"/>
    <path d="M 81.09207916259766 109.31320190429688 C 82.55876922607422 98.09423828125 72.50334167480469 110.5124740600586 98.53205108642578 109.24771881103516" stroke-width="3.0" fill="none" stroke="rgb(0, 0, 2)" stroke-opacity="0.22171253" stroke-linecap="round" stroke-linejoin="round"/>
    <path d="M 100.33470153808594 84.17033386230469 C 101.17938232421875 87.24836730957031 100.27932739257812 77.7262954711914 100.86009216308594 84.79728698730469" stroke-width="3.0" fill="none" stroke="rgb(1, 0, 0)" stroke-opacity="0.4029007" stroke-linecap="round" stroke-linejoin="round"/>
    <path d="M 188.08155822753906 169.80006408691406 C 186.4603729248047 168.10302734375 183.97213745117188 160.25582885742188 187.09194946289062 167.9984588623047" stroke-width="3.0" fill="none" stroke="rgb(1, 1, 0)" stroke-opacity="0.16865262" stroke-linecap="round" stroke-linejoin="round"/>
    <path d="M 54.304500579833984 88.28907775878906 C 54.56990051269531 99.35816955566406 53.92743682861328 118.57770538330078 52.3354606628418 93.6850814819336" stroke-width="3.0" fill="none" stroke="rgb(0, 0, -1)" stroke-opacity="0.123687275" stroke-linecap="round" stroke-linejoin="round"/>
    <path d="M 39.98724365234375 208.02127075195312 C 55.65316390991211 211.16616821289062 59.44940185546875 215.31312561035156 58.404747009277344 214.22897338867188" stroke-width="3.0" fill="none" stroke="rgb(1, 0, 1)" stroke-opacity="0.30476356" stroke-linecap="round" stroke-linejoin="round"/>
    <path d="M 90.62965393066406 208.5819091796875 C 82.06759643554688 222.3258819580078 109.74738311767578 232.3592071533203 91.5527572631836 216.68968200683594" stroke-width="3.0" fill="none" stroke="rgb(-2, 2, -3)" stroke-opacity="0.26834708" stroke-linecap="round" stroke-linejoin="round"/>
    <path d="M 127.88848876953125 192.47015380859375 C 129.9544677734375 202.44467163085938 135.6545867919922 200.89080810546875 142.86868286132812 204.60765075683594" stroke-width="3.0" fill="none" stroke="rgb(0, 0, 1)" stroke-opacity="0.2300554" stroke-linecap="round" stroke-linejoin="round"/>
    <path d="M 145.36659240722656 90.58280944824219 C 135.02383422851562 89.41387176513672 147.16371154785156 99.12529754638672 141.80145263671875 75.2768783569336" stroke-width="3.0" fill="none" stroke="rgb(1, -2, 2)" stroke-opacity="0.3144559" stroke-linecap="round" stroke-linejoin="round"/>
    <path d="M 53.266815185546875 89.9328842163086 C 51.03058624267578 93.18820190429688 50.41143798828125 88.14070129394531 51.05400848388672 90.56668853759766" stroke-width="3.0" fill="none" stroke="rgb(1, 0, -1)" stroke-opacity="0.22753018" stroke-linecap="round" stroke-linejoin="round"/>
    <path d="M 209.46408081054688 114.03382110595703 C 208.2310791015625 114.04419708251953 209.30340576171875 114.0593490600586 210.14486694335938 113.91838073730469" stroke-width="3.0" fill="none" stroke="rgb(0, 0, 0)" stroke-opacity="0.1303372" stroke-linecap="round" stroke-linejoin="round"/>
    <path d="M 31.75930404663086 89.50654602050781 C 32.020660400390625 90.44210052490234 30.711206436157227 92.53239440917969 31.57337760925293 89.68587493896484" stroke-width="3.0" fill="none" stroke="rgb(1, 1, -1)" stroke-opacity="0.1373367" stroke-linecap="round" stroke-linejoin="round"/>
    <path d="M 178.16867065429688 201.40289306640625 C 173.44244384765625 205.65252685546875 169.7669677734375 206.5587615966797 174.4226531982422 197.56851196289062" stroke-width="3.0" fill="none" stroke="rgb(2, 1, -2)" stroke-opacity="0.23485526" stroke-linecap="round" stroke-linejoin="round"/>
    <path d="M 174.699462890625 84.32957458496094 C 178.1031494140625 82.71944427490234 169.51382446289062 90.5172119140625 172.89108276367188 80.899169921875" stroke-width="3.0" fill="none" stroke="rgb(1, -3, 2)" stroke-opacity="0.7116366" stroke-linecap="round" stroke-linejoin="round"/>
    <path d="M 167.8544921875 110.2958755493164 C 159.79537963867188 108.6117172241211 164.55313110351562 116.63302612304688 180.86715698242188 107.64256286621094" stroke-width="3.0" fill="none" stroke="rgb(1, 0, -1)" stroke-opacity="0.10048402" stroke-linecap="round" stroke-linejoin="round"/>
    <path d="M 79.87464904785156 54.96124267578125 C 82.38136291503906 16.91010284423828 73.55799102783203 30.239442825317383 79.48435974121094 52.52322006225586" stroke-width="3.0" fill="none" stroke="rgb(0, 1, -1)" stroke-opacity="0.44113308" stroke-linecap="round" stroke-linejoin="round"/>
    <path d="M 189.5885772705078 36.84471893310547 C 189.17189025878906 36.930484771728516 191.82931518554688 38.213172912597656 187.6754608154297 37.95232391357422" stroke-width="3.0" fill="none" stroke="rgb(0, 0, 0)" stroke-opacity="0.31157777" stroke-linecap="round" stroke-linejoin="round"/>
    <path d="M 164.13038635253906 -7.593954563140869 C 170.5110321044922 -15.600004196166992 175.5618133544922 -8.534029006958008 171.99664306640625 7.021580219268799" stroke-width="3.0" fill="none" stroke="rgb(0, 1, -2)" stroke-opacity="0.2062482" stroke-linecap="round" stroke-linejoin="round"/>
    <path d="M 150.95631408691406 112.56533813476562 C 147.0150604248047 115.03898620605469 150.5727996826172 116.26006317138672 164.1671905517578 112.77581024169922" stroke-width="3.0" fill="none" stroke="rgb(1, 0, 0)" stroke-opacity="0.38944465" stroke-linecap="round" stroke-linejoin="round"/>
    <path d="M 46.12153625488281 188.0433349609375 C 36.386016845703125 187.99098205566406 44.42802047729492 187.5395050048828 41.98483657836914 187.3738555908203" stroke-width="3.0" fill="none" stroke="rgb(0, 0, 0)" stroke-opacity="0.22912537" stroke-linecap="round" stroke-linejoin="round"/>
    <path d="M 144.33999633789062 140.97315979003906 C 144.34130859375 142.1798858642578 144.29415893554688 138.53233337402344 148.4964599609375 133.160400390625" stroke-width="3.0" fill="none" stroke="rgb(0, 0, 0)" stroke-opacity="0.031065244" stroke-linecap="round" stroke-linejoin="round"/>
    <path d="M 140.87652587890625 42.05516052246094 C 143.1743621826172 48.80567932128906 144.4284210205078 57.66948318481445 141.66346740722656 44.37582015991211" stroke-width="3.0" fill="none" stroke="rgb(0, 0, 0)" stroke-opacity="0.42394587" stroke-linecap="round" stroke-linejoin="round"/>
    <path d="M 185.13638305664062 99.00439453125 C 184.56700134277344 94.73643493652344 182.69418334960938 107.75223541259766 184.05104064941406 101.87632751464844" stroke-width="3.0" fill="none" stroke="rgb(1, 0, 0)" stroke-opacity="0.2122987" stroke-linecap="round" stroke-linejoin="round"/>
    <path d="M 59.95258712768555 191.11656188964844 C 53.38434600830078 189.59564208984375 64.02413177490234 191.23509216308594 55.79401779174805 190.83021545410156" stroke-width="3.0" fill="none" stroke="rgb(0, 0, 1)" stroke-opacity="0.30012637" stroke-linecap="round" stroke-linejoin="round"/>
    <path d="M 142.51458740234375 65.66886138916016 C 137.59051513671875 52.746131896972656 146.6858673095703 53.64073181152344 143.32778930664062 68.70879364013672" stroke-width="3.0" fill="none" stroke="rgb(0, 0, 1)" stroke-opacity="0.27062336" stroke-linecap="round" stroke-linejoin="round"/>
    <path d="M 36.25950241088867 156.01902770996094 C 38.490989685058594 148.40394592285156 36.005252838134766 151.46029663085938 43.81202697753906 138.44891357421875" stroke-width="3.0" fill="none" stroke="rgb(0, 0, 1)" stroke-opacity="0.07138043" stroke-linecap="round" stroke-linejoin="round"/>
    <path d="M 187.43202209472656 31.89101791381836 C 180.9908905029297 46.57505798339844 180.2506866455078 61.18577575683594 188.90985107421875 32.352542877197266" stroke-width="3.0" fill="none" stroke="rgb(1, 1, 0)" stroke-opacity="0.24740079" stroke-linecap="round" stroke-linejoin="round"/>
    <path d="M 148.46873474121094 42.62105178833008 C 141.82644653320312 16.503568649291992 129.68894958496094 13.609216690063477 140.43411254882812 43.92841720581055" stroke-width="3.0" fill="none" stroke="rgb(2, -1, -2)" stroke-opacity="0.30337363" stroke-linecap="round" stroke-linejoin="round"/>
    <path d="M 35.37335205078125 136.65536499023438 C 31.639183044433594 134.78074645996094 31.70931625366211 138.54495239257812 35.086910247802734 135.3511505126953" stroke-width="3.0" fill="none" stroke="rgb(1, 0, -2)" stroke-opacity="0.44190714" stroke-linecap="round" stroke-linejoin="round"/>
    <path d="M 204.1813507080078 21.506332397460938 C 204.2191162109375 21.465391159057617 203.95419311523438 21.20157814025879 204.28054809570312 21.180221557617188" stroke-width="3.0" fill="none" stroke="rgb(0, 0, 1)" stroke-opacity="0.11972141" stroke-linecap="round" stroke-linejoin="round"/>
    <path d="M 201.81932067871094 54.0633659362793 C 202.01571655273438 54.3823356628418 201.6547393798828 53.25507354736328 201.71966552734375 53.72248458862305" stroke-width="3.0" fill="none" stroke="rgb(0, 0, 0)" stroke-opacity="0.22003195" stroke-linecap="round" stroke-linejoin="round"/>
    <path d="M 135.32095336914062 29.959789276123047 C 131.2437286376953 13.547865867614746 128.26206970214844 8.92953109741211 135.9912567138672 18.01714324951172" stroke-width="3.0" fill="none" stroke="rgb(0, -1, 1)" stroke-opacity="0.2218216" stroke-linecap="round" stroke-linejoin="round"/>
    <path d="M 118.33321380615234 62.92131805419922 C 117.76036071777344 62.72635269165039 119.23036193847656 62.87649917602539 119.08043670654297 63.026573181152344" stroke-width="3.0" fill="none" stroke="rgb(0, 0, 0)" stroke-opacity="0.22249143" stroke-linecap="round" stroke-linejoin="round"/>
    <path d="M 43.137237548828125 128.80894470214844 C 41.188899993896484 131.17169189453125 42.180110931396484 122.30522918701172 37.80036163330078 137.02186584472656" stroke-width="3.0" fill="none" stroke="rgb(0, 0, 2)" stroke-opacity="0.18032655" stroke-linecap="round" stroke-linejoin="round"/>
    <path d="M 123.72590637207031 207.10289001464844 C 122.04786682128906 221.2597198486328 109.17366790771484 227.02366638183594 103.98513793945312 220.5327911376953" stroke-width="3.0" fill="none" stroke="rgb(-1, 1, -2)" stroke-opacity="0.2690397" stroke-linecap="round" stroke-linejoin="round"/>
    <path d="M 27.015913009643555 33.788333892822266 C 21.152664184570312 33.343814849853516 28.251455307006836 34.01277542114258 38.64335250854492 36.26978302001953" stroke-width="3.0" fill="none" stroke="rgb(0, 0, 1)" stroke-opacity="-0.010144514" stroke-linecap="round" stroke-linejoin="round"/>
    <path d="M 50.6004524230957 111.12675476074219 C 40.06883239746094 128.85487365722656 39.65632629394531 128.9816436767578 43.91180419921875 125.34024810791016" stroke-width="3.0" fill="none" stroke="rgb(0, 0, 2)" stroke-opacity="0.1540791" stroke-linecap="round" stroke-linejoin="round"/>
    <path d="M 65.647216796875 52.121551513671875 C 57.74375534057617 32.53096008300781 59.57603073120117 37.51445388793945 54.0888671875 26.437057495117188" stroke-width="3.0" fill="none" stroke="rgb(0, 0, 1)" stroke-opacity="0.25075448" stroke-linecap="round" stroke-linejoin="round"/>
    <path d="M 169.5680389404297 14.56531047821045 C 166.78709411621094 19.520959854125977 160.0603485107422 24.11046600341797 159.3416290283203 51.94147872924805" stroke-width="3.0" fill="none" stroke="rgb(0, 0, 0)" stroke-opacity="0.11864063" stroke-linecap="round" stroke-linejoin="round"/>
    <path d="M 186.64584350585938 177.24801635742188 C 186.48826599121094 169.93353271484375 187.12579345703125 176.99859619140625 187.7611083984375 175.84014892578125" stroke-width="3.0" fill="none" stroke="rgb(0, 0, 0)" stroke-opacity="0.10852355" stroke-linecap="round" stroke-linejoin="round"/>
    <path d="M 146.60520935058594 205.47145080566406 C 145.76437377929688 206.64341735839844 138.56614685058594 208.3115692138672 147.33880615234375 206.59103393554688" stroke-width="3.0" fill="none" stroke="rgb(0, 2, -3)" stroke-opacity="0.3958762" stroke-linecap="round" stroke-linejoin="round"/>
    <path d="M 128.07276916503906 64.90324401855469 C 128.91488647460938 65.12621307373047 127.69234466552734 64.58333587646484 127.90614318847656 64.79424285888672" stroke-width="3.0" fill="none" stroke="rgb(0, 0, 0)" stroke-opacity="0.20086803" stroke-linecap="round" stroke-linejoin="round"/>
    <path d="M 150.22129821777344 151.06910705566406 C 149.98171997070312 151.75881958007812 151.2276611328125 148.03309631347656 150.50143432617188 150.35121154785156" stroke-width="3.0" fill="none" stroke="rgb(0, 1, 0)" stroke-opacity="0.27726373" stroke-linecap="round" stroke-linejoin="round"/>
    <path d="M 11.782944679260254 209.2718048095703 C 11.631710052490234 209.75857543945312 11.747949600219727 209.20201110839844 11.840478897094727 209.0368194580078" stroke-width="3.0" fill="none" stroke="rgb(0, 0, 0)" stroke-opacity="0.24717613" stroke-linecap="round" stroke-linejoin="round"/>
    <path d="M 177.9080810546875 202.38902282714844 C 188.1796875 198.0030975341797 192.7960968017578 213.9361114501953 177.2503204345703 208.48619079589844" stroke-width="3.0" fill="none" stroke="rgb(0, 0, -1)" stroke-opacity="0.03642491" stroke-linecap="round" stroke-linejoin="round"/>
    <path d="M 116.39073944091797 99.2019271850586 C 116.7237319946289 96.85774230957031 121.19773864746094 117.87095642089844 122.24073791503906 103.00762176513672" stroke-width="3.0" fill="none" stroke="rgb(0, 0, -1)" stroke-opacity="0.2651691" stroke-linecap="round" stroke-linejoin="round"/>
    <path d="M 63.76221466064453 108.06739807128906 C 70.04072570800781 110.55451202392578 71.35875701904297 112.86689758300781 80.06724548339844 108.99769592285156" stroke-width="3.0" fill="none" stroke="rgb(0, 0, 0)" stroke-opacity="0.17541802" stroke-linecap="round" stroke-linejoin="round"/>
    <path d="M 31.938692092895508 170.4342041015625 C 31.688135147094727 170.9076385498047 32.09168243408203 167.27711486816406 32.02317810058594 169.81951904296875" stroke-width="3.0" fill="none" stroke="rgb(0, 0, 0)" stroke-opacity="0.51642853" stroke-linecap="round" stroke-linejoin="round"/>
    <path d="M 197.87237548828125 168.32957458496094 C 199.32223510742188 159.635009765625 194.52993774414062 155.88011169433594 197.97860717773438 167.87530517578125" stroke-width="3.0" fill="none" stroke="rgb(0, 1, -3)" stroke-opacity="0.3172557" stroke-linecap="round" stroke-linejoin="round"/>
    <path d="M 131.79376220703125 132.36277770996094 C 132.79420471191406 129.71641540527344 127.78854370117188 130.31678771972656 133.25772094726562 131.71673583984375" stroke-width="3.0" fill="none" stroke="rgb(1, 0, 0)" stroke-opacity="0.2408889" stroke-linecap="round" stroke-linejoin="round"/>
    <path d="M 139.66741943359375 152.90106201171875 C 138.25607299804688 154.16412353515625 139.36985778808594 154.45339965820312 139.6510009765625 153.37265014648438" stroke-width="3.0" fill="none" stroke="rgb(1, 0, -1)" stroke-opacity="0.335069" stroke-linecap="round" stroke-linejoin="round"/>
    <path d="M 61.38816452026367 84.64359283447266 C 60.0903205871582 70.95585632324219 72.85971069335938 85.0971908569336 62.17396926879883 82.21378326416016" stroke-width="3.0" fill="none" stroke="rgb(4, -4, 4)" stroke-opacity="0.5045417" stroke-linecap="round" stroke-linejoin="round"/>
    <path d="M 197.8006134033203 143.47927856445312 C 195.0806427001953 127.69329071044922 195.19540405273438 135.67686462402344 194.06715393066406 130.94650268554688" stroke-width="3.0" fill="none" stroke="rgb(-1, 0, 1)" stroke-opacity="0.24292809" stroke-linecap="round" stroke-linejoin="round"/>
    <path d="M 51.76012420654297 4.577400207519531 C 64.60566711425781 11.320879936218262 72.20808410644531 20.772188186645508 80.59142303466797 45.00172805786133" stroke-width="3.0" fill="none" stroke="rgb(-1, 1, 1)" stroke-opacity="0.2453567" stroke-linecap="round" stroke-linejoin="round"/>
    <path d="M 100.8834457397461 76.07209014892578 C 103.6453628540039 64.41002655029297 102.45711517333984 74.4549789428711 98.35031127929688 58.45573425292969" stroke-width="3.0" fill="none" stroke="rgb(0, 1, 1)" stroke-opacity="0.15025263" stroke-linecap="round" stroke-linejoin="round"/>
    <path d="M 100.7490234375 52.740478515625 C 107.71490478515625 45.17218017578125 107.26813507080078 48.24848175048828 104.5219955444336 49.386436462402344" stroke-width="3.0" fill="none" stroke="rgb(1, 0, -1)" stroke-opacity="0.2870264" stroke-linecap="round" stroke-linejoin="round"/>
    <path d="M 53.54826354980469 208.94912719726562 C 45.693443298339844 208.54928588867188 44.640220642089844 200.2485809326172 50.685245513916016 204.22691345214844" stroke-width="3.0" fill="none" stroke="rgb(1, 0, 1)" stroke-opacity="0.48445195" stroke-linecap="round" stroke-linejoin="round"/>
    <path d="M 193.54537963867188 122.38587188720703 C 195.7057647705078 131.0296173095703 193.87034606933594 117.49507141113281 193.87245178222656 120.83850860595703" stroke-width="3.0" fill="none" stroke="rgb(0, 0, 3)" stroke-opacity="0.37852854" stroke-linecap="round" stroke-linejoin="round"/>
    <path d="M 181.8783416748047 -2.7939772605895996 C 167.4146728515625 12.548185348510742 168.37832641601562 11.979084968566895 177.42379760742188 -4.5551300048828125" stroke-width="3.0" fill="none" stroke="rgb(-1, 1, 0)" stroke-opacity="0.22974809" stroke-linecap="round" stroke-linejoin="round"/>
    <path d="M 187.10391235351562 3.868765354156494 C 181.21385192871094 14.510247230529785 187.96768188476562 25.573320388793945 177.38575744628906 51.65390396118164" stroke-width="3.0" fill="none" stroke="rgb(0, 0, 1)" stroke-opacity="0.17927396" stroke-linecap="round" stroke-linejoin="round"/>
    <path d="M 156.87646484375 208.0362091064453 C 146.00936889648438 209.13131713867188 130.6553955078125 210.6444091796875 140.22752380371094 206.4941864013672" stroke-width="3.0" fill="none" stroke="rgb(0, 1, -2)" stroke-opacity="0.19818053" stroke-linecap="round" stroke-linejoin="round"/>
    <path d="M 95.52880096435547 81.78942108154297 C 103.691650390625 85.76881408691406 101.19595336914062 69.61647033691406 101.97834777832031 82.82890319824219" stroke-width="3.0" fill="none" stroke="rgb(2, -2, 2)" stroke-opacity="0.6495335" stroke-linecap="round" stroke-linejoin="round"/>
    <path d="M 211.95884704589844 26.686527252197266 C 212.070556640625 26.18441390991211 211.6283416748047 28.559837341308594 211.96588134765625 27.088680267333984" stroke-width="3.0" fill="none" stroke="rgb(0, 0, -1)" stroke-opacity="0.22000158" stroke-linecap="round" stroke-linejoin="round"/>
    <path d="M 54.03099822998047 92.3275146484375 C 59.18859100341797 95.4351806640625 51.70343017578125 92.39839172363281 53.1710319519043 91.31012725830078" stroke-width="3.0" fill="none" stroke="rgb(1, 0, -1)" stroke-opacity="0.3484135" stroke-linecap="round" stroke-linejoin="round"/>
    <path d="M 22.917560577392578 123.22895050048828 C 23.34425163269043 120.49823760986328 22.40127182006836 124.25872039794922 22.853267669677734 123.43523406982422" stroke-width="3.0" fill="none" stroke="rgb(0, 1, -1)" stroke-opacity="0.14765255" stroke-linecap="round" stroke-linejoin="round"/>
  </g>
</svg>
