<?xml version="1.0" ?>
<svg xmlns="http://www.w3.org/2000/svg" version="1.1" width="224" height="224">
  <defs/>
  <g>
    <path d="M 46.788902282714844 6.025007247924805 C 78.63986206054688 37.588226318359375 49.65708541870117 24.533958435058594 43.26737594604492 -3.8997528553009033" stroke-width="3.0" fill="none" stroke="rgb(2, -2, 1)" stroke-opacity="0.13479872" stroke-linecap="round" stroke-linejoin="round"/>
    <path d="M 31.355817794799805 205.0048828125 C 17.48348617553711 202.36671447753906 15.378498077392578 193.0403289794922 10.393266677856445 181.2191925048828" stroke-width="3.0" fill="none" stroke="rgb(0, 0, 0)" stroke-opacity="0.015748989" stroke-linecap="round" stroke-linejoin="round"/>
    <path d="M 133.085205078125 181.3378143310547 C 111.804443359375 232.57957458496094 124.65913391113281 174.74986267089844 129.8314666748047 199.3657684326172" stroke-width="3.0" fill="none" stroke="rgb(0, 0, 0)" stroke-opacity="0.122522414" stroke-linecap="round" stroke-linejoin="round"/>
    <path d="M 128.3082733154297 125.26152038574219 C 109.86273193359375 69.274658203125 121.96931457519531 126.02369689941406 125.96283721923828 112.54114532470703" stroke-width="3.0" fill="none" stroke="rgb(0, -2, 1)" stroke-opacity="0.11894531" stroke-linecap="round" stroke-linejoin="round"/>
    <path d="M 59.02089309692383 200.1074676513672 C 101.4993667602539 215.63693237304688 25.474214553833008 174.62498474121094 85.08797454833984 194.8572540283203" stroke-width="3.0" fill="none" stroke="rgb(0, 0, 0)" stroke-opacity="0.028684525" stroke-linecap="round" stroke-linejoin="round"/>
    <path d="M 138.9004669189453 32.61737060546875 C 120.39384460449219 -5.343113899230957 142.2866973876953 21.042367935180664 143.4329833984375 21.686845779418945" stroke-width="3.0" fill="none" stroke="rgb(1, -2, 2)" stroke-opacity="0.16459262" stroke-linecap="round" stroke-linejoin="round"/>
    <path d="M 220.78627014160156 106.51271057128906 C 217.0646209716797 87.35895538330078 214.33636474609375 84.69773864746094 214.60891723632812 83.63142395019531" stroke-width="3.0" fill="none" stroke="rgb(0, 0, 0)" stroke-opacity="0.007865321" stroke-linecap="round" stroke-linejoin="round"/>
    <path d="M 196.14036560058594 147.79571533203125 C 188.2718505859375 169.37669372558594 215.2339630126953 188.55911254882812 199.30665588378906 177.98069763183594" stroke-width="3.0" fill="none" stroke="rgb(-1, 1, 1)" stroke-opacity="0.08680443" stroke-linecap="round" stroke-linejoin="round"/>
    <path d="M 154.65554809570312 188.5272216796875 C 185.37060546875 209.17739868164062 170.37770080566406 214.47402954101562 153.39202880859375 179.0092315673828" stroke-width="3.0" fill="none" stroke="rgb(0, 0, 0)" stroke-opacity="0.07782149" stroke-linecap="round" stroke-linejoin="round"/>
    <path d="M 172.6173553466797 70.95658874511719 C 200.20191955566406 112.18724060058594 171.3936767578125 77.1340560913086 195.4249267578125 123.7755355834961" stroke-width="3.0" fill="none" stroke="rgb(-2, 0, 2)" stroke-opacity="0.12170102" stroke-linecap="round" stroke-linejoin="round"/>
    <path d="M 39.93064880371094 140.57620239257812 C 41.475486755371094 208.70285034179688 34.55430603027344 161.5935821533203 55.00531768798828 152.4397735595703" stroke-width="3.0" fill="none" stroke="rgb(0, 0, 1)" stroke-opacity="0.029309578" stroke-linecap="round" stroke-linejoin="round"/>
    <path d="M 203.611328125 185.9652099609375 C 194.4127960205078 195.92239379882812 209.69435119628906 184.9059295654297 200.6347198486328 172.34112548828125" stroke-width="3.0" fill="none" stroke="rgb(0, 0, -1)" stroke-opacity="0.2599898" stroke-linecap="round" stroke-linejoin="round"/>
    <path d="M 137.33758544921875 87.01468658447266 C 148.57334899902344 65.66470336914062 141.4988250732422 102.49988555908203 142.2987518310547 78.39665985107422" stroke-width="3.0" fill="none" stroke="rgb(3, -3, 3)" stroke-opacity="0.47403437" stroke-linecap="round" stroke-linejoin="round"/>
    <path d="M 42.63007354736328 -3.963223934173584 C 35.1377067565918 2.0839850902557373 44.794708251953125 -23.27356719970703 63.22288131713867 -20.975326538085938" stroke-width="3.0" fill="none" stroke="rgb(0, 0, 0)" stroke-opacity="0.49196306" stroke-linecap="round" stroke-linejoin="round"/>
    <path d="M 93.4490737915039 63.31259536743164 C 98.00027465820312 49.138587951660156 92.28215026855469 57.61310577392578 100.26151275634766 68.07984161376953" stroke-width="3.0" fill="none" stroke="rgb(0, 0, 1)" stroke-opacity="0.081531554" stroke-linecap="round" stroke-linejoin="round"/>
    <path d="M 70.96866607666016 76.97881317138672 C 71.93631744384766 114.22225189208984 70.4241714477539 49.277076721191406 53.4923095703125 91.50916290283203" stroke-width="3.0" fill="none" stroke="rgb(2, -1, 1)" stroke-opacity="0.10034409" stroke-linecap="round" stroke-linejoin="round"/>
    <path d="M 101.2499008178711 82.47909545898438 C 75.14029693603516 73.77973937988281 107.099365234375 89.91780853271484 89.9271011352539 96.06098175048828" stroke-width="3.0" fill="none" stroke="rgb(0, 0, 0)" stroke-opacity="0.019409323" stroke-linecap="round" stroke-linejoin="round"/>
    <path d="M 180.9748077392578 197.91688537597656 C 182.34649658203125 203.24078369140625 158.85263061523438 207.99024963378906 159.04641723632812 191.5460205078125" stroke-width="3.0" fill="none" stroke="rgb(2, 0, -1)" stroke-opacity="0.23537122" stroke-linecap="round" stroke-linejoin="round"/>
    <path d="M 169.87347412109375 63.829341888427734 C 177.64837646484375 45.39192581176758 172.9242401123047 79.0783920288086 173.50938415527344 61.46175765991211" stroke-width="3.0" fill="none" stroke="rgb(0, -1, 0)" stroke-opacity="0.12240223" stroke-linecap="round" stroke-linejoin="round"/>
    <path d="M 167.08009338378906 174.1521453857422 C 150.14544677734375 230.30870056152344 178.710205078125 218.66578674316406 154.59080505371094 174.62930297851562" stroke-width="3.0" fill="none" stroke="rgb(-2, 1, 0)" stroke-opacity="0.04574391" stroke-linecap="round" stroke-linejoin="round"/>
    <path d="M 56.194679260253906 202.81275939941406 C 57.77032470703125 232.23326110839844 72.22449493408203 223.93617248535156 67.0941390991211 217.99948120117188" stroke-width="3.0" fill="none" stroke="rgb(-2, 2, -1)" stroke-opacity="0.12729107" stroke-linecap="round" stroke-linejoin="round"/>
    <path d="M 69.20350646972656 56.26667404174805 C 61.54864501953125 12.377666473388672 60.30157470703125 37.54922866821289 49.58549499511719 11.500261306762695" stroke-width="3.0" fill="none" stroke="rgb(1, -2, 1)" stroke-opacity="0.12323879" stroke-linecap="round" stroke-linejoin="round"/>
    <path d="M 184.6428985595703 199.3807373046875 C 180.23594665527344 184.074951171875 214.5181884765625 197.4151153564453 188.34756469726562 189.61793518066406" stroke-width="3.0" fill="none" stroke="rgb(-2, 1, -1)" stroke-opacity="0.14622614" stroke-linecap="round" stroke-linejoin="round"/>
    <path d="M 29.898664474487305 163.47850036621094 C 46.1673469543457 153.3144073486328 33.27753829956055 125.93070983886719 32.68351364135742 166.03224182128906" stroke-width="3.0" fill="none" stroke="rgb(0, 0, 1)" stroke-opacity="0.055308335" stroke-linecap="round" stroke-linejoin="round"/>
    <path d="M 231.52894592285156 154.54750061035156 C 233.35882568359375 155.81951904296875 227.74929809570312 150.0322723388672 229.679443359375 150.60531616210938" stroke-width="3.0" fill="none" stroke="rgb(0, 0, 0)" stroke-opacity="0.60038054" stroke-linecap="round" stroke-linejoin="round"/>
    <path d="M 83.95733642578125 97.49800872802734 C 64.7251968383789 101.88236236572266 107.79031372070312 113.82096862792969 65.44413757324219 105.41780090332031" stroke-width="3.0" fill="none" stroke="rgb(2, -3, 1)" stroke-opacity="0.09395075" stroke-linecap="round" stroke-linejoin="round"/>
    <path d="M 96.80530548095703 186.53465270996094 C 87.26514434814453 115.66429138183594 107.52996826171875 173.9523162841797 67.91410827636719 172.1991424560547" stroke-width="3.0" fill="none" stroke="rgb(0, 0, 0)" stroke-opacity="0.013215636" stroke-linecap="round" stroke-linejoin="round"/>
    <path d="M 184.51083374023438 32.21725845336914 C 191.88412475585938 0.8696516752243042 182.42996215820312 12.991313934326172 193.0210723876953 -4.1042866706848145" stroke-width="3.0" fill="none" stroke="rgb(-1, 0, 1)" stroke-opacity="0.17558268" stroke-linecap="round" stroke-linejoin="round"/>
    <path d="M 121.859375 110.9931869506836 C 150.51348876953125 62.65819549560547 114.09754180908203 115.75853729248047 157.80136108398438 113.92070770263672" stroke-width="3.0" fill="none" stroke="rgb(-1, 0, 2)" stroke-opacity="0.06863236" stroke-linecap="round" stroke-linejoin="round"/>
    <path d="M 26.398868560791016 200.24720764160156 C 24.690032958984375 170.37939453125 33.92888259887695 201.05592346191406 24.925701141357422 194.23678588867188" stroke-width="3.0" fill="none" stroke="rgb(0, 0, 0)" stroke-opacity="0.09319048" stroke-linecap="round" stroke-linejoin="round"/>
    <path d="M 159.29393005371094 200.8890838623047 C 180.50326538085938 198.9857177734375 143.1736297607422 214.0969696044922 143.94252014160156 199.67556762695312" stroke-width="3.0" fill="none" stroke="rgb(0, 2, -2)" stroke-opacity="0.08248155" stroke-linecap="round" stroke-linejoin="round"/>
    <path d="M 182.0577850341797 200.56716918945312 C 136.34878540039062 196.26670837402344 177.24179077148438 216.66285705566406 138.17967224121094 204.11160278320312" stroke-width="3.0" fill="none" stroke="rgb(0, 1, -2)" stroke-opacity="0.11619545" stroke-linecap="round" stroke-linejoin="round"/>
    <path d="M 83.37792205810547 108.52395629882812 C 77.20002746582031 96.42068481445312 95.9700698852539 114.85041046142578 101.99018096923828 105.01390838623047" stroke-width="3.0" fill="none" stroke="rgb(1, -1, 0)" stroke-opacity="0.07457493" stroke-linecap="round" stroke-linejoin="round"/>
    <path d="M 97.2909927368164 88.77533721923828 C 84.00411224365234 74.64250946044922 108.96832275390625 64.14954376220703 110.59359741210938 99.21257019042969" stroke-width="3.0" fill="none" stroke="rgb(1, -1, 1)" stroke-opacity="0.05465251" stroke-linecap="round" stroke-linejoin="round"/>
    <path d="M 178.28738403320312 178.48236083984375 C 194.54563903808594 165.39413452148438 186.30221557617188 152.95938110351562 187.2655029296875 173.7063751220703" stroke-width="3.0" fill="none" stroke="rgb(2, 0, -2)" stroke-opacity="0.050545998" stroke-linecap="round" stroke-linejoin="round"/>
    <path d="M 69.74983978271484 62.161930084228516 C 53.164981842041016 70.84796142578125 56.39350891113281 104.81708526611328 63.6358642578125 73.24254608154297" stroke-width="3.0" fill="none" stroke="rgb(-1, 0, 2)" stroke-opacity="0.10584114" stroke-linecap="round" stroke-linejoin="round"/>
    <path d="M 38.502296447753906 201.52809143066406 C 39.57001495361328 220.70326232910156 70.89221954345703 197.56678771972656 58.86537551879883 210.29818725585938" stroke-width="3.0" fill="none" stroke="rgb(1, -1, 0)" stroke-opacity="0.11828021" stroke-linecap="round" stroke-linejoin="round"/>
    <path d="M 88.73504638671875 210.05406188964844 C 87.82501220703125 230.14517211914062 109.59442138671875 223.10801696777344 90.58149719238281 216.41529846191406" stroke-width="3.0" fill="none" stroke="rgb(-2, 2, -1)" stroke-opacity="0.14903262" stroke-linecap="round" stroke-linejoin="round"/>
    <path d="M 133.53977966308594 168.89157104492188 C 117.95355224609375 218.70924377441406 160.20655822753906 199.3197021484375 138.22052001953125 207.47142028808594" stroke-width="3.0" fill="none" stroke="rgb(1, -1, 0)" stroke-opacity="0.105596155" stroke-linecap="round" stroke-linejoin="round"/>
    <path d="M 150.0734100341797 87.7779769897461 C 130.7386474609375 59.06382369995117 155.39797973632812 82.60625457763672 139.1114959716797 72.46697235107422" stroke-width="3.0" fill="none" stroke="rgb(1, 0, 0)" stroke-opacity="0.08529692" stroke-linecap="round" stroke-linejoin="round"/>
    <path d="M 58.3541374206543 81.97084045410156 C 97.17284393310547 78.56803131103516 55.589595794677734 83.91545104980469 54.363773345947266 93.80322265625" stroke-width="3.0" fill="none" stroke="rgb(2, -3, 4)" stroke-opacity="0.059760585" stroke-linecap="round" stroke-linejoin="round"/>
    <path d="M 204.10484313964844 117.40228271484375 C 208.3455810546875 118.45926666259766 205.8622283935547 113.47757720947266 204.8975372314453 106.54104614257812" stroke-width="3.0" fill="none" stroke="rgb(0, 0, 0)" stroke-opacity="0.005821986" stroke-linecap="round" stroke-linejoin="round"/>
    <path d="M 32.62761306762695 103.41221618652344 C 28.140352249145508 86.68569946289062 35.61100387573242 83.23564910888672 43.43724822998047 95.98621368408203" stroke-width="3.0" fill="none" stroke="rgb(0, 0, 0)" stroke-opacity="0.007392378" stroke-linecap="round" stroke-linejoin="round"/>
    <path d="M 180.83663940429688 190.3304901123047 C 180.42880249023438 217.8209686279297 178.88983154296875 201.0862274169922 170.96641540527344 187.99319458007812" stroke-width="3.0" fill="none" stroke="rgb(0, 1, 0)" stroke-opacity="0.04118103" stroke-linecap="round" stroke-linejoin="round"/>
    <path d="M 174.1207733154297 82.57886505126953 C 174.22830200195312 77.8959732055664 174.09738159179688 93.68525695800781 173.7574920654297 82.10877990722656" stroke-width="3.0" fill="none" stroke="rgb(2, -2, 3)" stroke-opacity="0.7923981" stroke-linecap="round" stroke-linejoin="round"/>
    <path d="M 169.85462951660156 115.51383209228516 C 145.62548828125 93.31632995605469 170.932861328125 119.36437225341797 178.0082550048828 104.66246795654297" stroke-width="3.0" fill="none" stroke="rgb(1, -1, 0)" stroke-opacity="0.0987011" stroke-linecap="round" stroke-linejoin="round"/>
    <path d="M 79.73980712890625 55.79637145996094 C 109.97915649414062 -18.9727840423584 84.80934143066406 15.618797302246094 84.86656188964844 54.73192596435547" stroke-width="3.0" fill="none" stroke="rgb(0, 0, 2)" stroke-opacity="0.115541376" stroke-linecap="round" stroke-linejoin="round"/>
    <path d="M 180.3544464111328 39.85578536987305 C 187.85623168945312 35.21977996826172 185.9080352783203 21.406917572021484 172.60337829589844 64.21845245361328" stroke-width="3.0" fill="none" stroke="rgb(1, -3, 4)" stroke-opacity="0.20011878" stroke-linecap="round" stroke-linejoin="round"/>
    <path d="M 164.59619140625 -7.491282939910889 C 175.34149169921875 -15.339786529541016 189.7131805419922 -11.929643630981445 173.11758422851562 9.48138427734375" stroke-width="3.0" fill="none" stroke="rgb(0, 0, 1)" stroke-opacity="0.13507912" stroke-linecap="round" stroke-linejoin="round"/>
    <path d="M 163.00540161132812 114.9383773803711 C 149.7526397705078 109.3961410522461 175.81895446777344 118.71746063232422 179.95355224609375 106.22966766357422" stroke-width="3.0" fill="none" stroke="rgb(2, -2, 1)" stroke-opacity="0.19721408" stroke-linecap="round" stroke-linejoin="round"/>
    <path d="M 53.01750946044922 204.9677734375 C 29.037080764770508 226.46141052246094 28.297365188598633 169.38829040527344 29.15353012084961 202.24569702148438" stroke-width="3.0" fill="none" stroke="rgb(2, -1, 0)" stroke-opacity="0.16093665" stroke-linecap="round" stroke-linejoin="round"/>
    <path d="M 151.17385864257812 167.31185913085938 C 133.0493621826172 142.08346557617188 162.4304962158203 135.9091796875 150.92971801757812 121.34596252441406" stroke-width="3.0" fill="none" stroke="rgb(-2, 1, 2)" stroke-opacity="0.030932596" stroke-linecap="round" stroke-linejoin="round"/>
    <path d="M 129.82135009765625 33.180912017822266 C 138.64280700683594 73.62284088134766 158.91168212890625 65.80140686035156 134.00485229492188 39.92799758911133" stroke-width="3.0" fill="none" stroke="rgb(-3, 1, 2)" stroke-opacity="0.17033449" stroke-linecap="round" stroke-linejoin="round"/>
    <path d="M 179.43995666503906 92.40093994140625 C 183.41941833496094 54.01976776123047 182.7930908203125 136.58267211914062 185.94580078125 102.34674835205078" stroke-width="3.0" fill="none" stroke="rgb(0, 0, 0)" stroke-opacity="0.06559796" stroke-linecap="round" stroke-linejoin="round"/>
    <path d="M 64.57634735107422 204.62513732910156 C 19.234174728393555 186.74485778808594 67.14942932128906 181.99786376953125 39.18193054199219 210.01190185546875" stroke-width="3.0" fill="none" stroke="rgb(1, 0, -1)" stroke-opacity="0.05100903" stroke-linecap="round" stroke-linejoin="round"/>
    <path d="M 148.3270721435547 59.89301300048828 C 132.71392822265625 85.23941802978516 151.3291778564453 23.984256744384766 138.99191284179688 79.11409759521484" stroke-width="3.0" fill="none" stroke="rgb(0, 0, 2)" stroke-opacity="0.11094283" stroke-linecap="round" stroke-linejoin="round"/>
    <path d="M 35.950321197509766 145.62313842773438 C 25.47338104248047 191.26791381835938 28.356348037719727 168.7425079345703 49.02573776245117 144.2430419921875" stroke-width="3.0" fill="none" stroke="rgb(-1, 0, 1)" stroke-opacity="0.03750107" stroke-linecap="round" stroke-linejoin="round"/>
    <path d="M 184.9352264404297 29.963712692260742 C 181.9688262939453 44.45235824584961 179.4232940673828 34.286380767822266 186.9059295654297 11.85537052154541" stroke-width="3.0" fill="none" stroke="rgb(1, 0, 0)" stroke-opacity="0.109787256" stroke-linecap="round" stroke-linejoin="round"/>
    <path d="M 155.1728057861328 55.15728759765625 C 158.50173950195312 33.8377685546875 118.78594970703125 -17.4384765625 144.51260375976562 46.073970794677734" stroke-width="3.0" fill="none" stroke="rgb(1, -1, 0)" stroke-opacity="0.16175896" stroke-linecap="round" stroke-linejoin="round"/>
    <path d="M 61.043540954589844 117.88213348388672 C 35.07574462890625 154.4889373779297 85.0309829711914 119.98355865478516 32.8164176940918 137.39210510253906" stroke-width="3.0" fill="none" stroke="rgb(0, 0, 0)" stroke-opacity="0.024091488" stroke-linecap="round" stroke-linejoin="round"/>
    <path d="M 192.52655029296875 23.266504287719727 C 201.6766357421875 27.30891990661621 207.58578491210938 16.02631950378418 208.7922821044922 21.978118896484375" stroke-width="3.0" fill="none" stroke="rgb(0, 0, 0)" stroke-opacity="0.00705834" stroke-linecap="round" stroke-linejoin="round"/>
    <path d="M 199.77761840820312 54.084415435791016 C 199.50680541992188 54.48891830444336 198.40219116210938 54.51571273803711 199.43716430664062 55.6241569519043" stroke-width="3.0" fill="none" stroke="rgb(0, 0, 0)" stroke-opacity="-0.0019699102" stroke-linecap="round" stroke-linejoin="round"/>
    <path d="M 140.58621215820312 37.166648864746094 C 126.38070678710938 18.117692947387695 124.34329223632812 9.69600772857666 134.63027954101562 23.908771514892578" stroke-width="3.0" fill="none" stroke="rgb(1, -1, 1)" stroke-opacity="0.25571284" stroke-linecap="round" stroke-linejoin="round"/>
    <path d="M 118.9825210571289 70.15980529785156 C 119.405517578125 65.40441131591797 118.99517822265625 64.95777893066406 119.58991241455078 66.70462799072266" stroke-width="3.0" fill="none" stroke="rgb(0, 0, 0)" stroke-opacity="0.003986208" stroke-linecap="round" stroke-linejoin="round"/>
    <path d="M 37.048519134521484 143.89527893066406 C 47.53873825073242 124.17633819580078 43.69533920288086 122.09957885742188 32.1928596496582 154.86813354492188" stroke-width="3.0" fill="none" stroke="rgb(-1, -1, 3)" stroke-opacity="0.09515887" stroke-linecap="round" stroke-linejoin="round"/>
    <path d="M 122.84291076660156 206.4497833251953 C 125.74449157714844 223.47874450683594 102.69080352783203 227.5677490234375 108.40121459960938 219.20909118652344" stroke-width="3.0" fill="none" stroke="rgb(-2, 1, 0)" stroke-opacity="0.13296774" stroke-linecap="round" stroke-linejoin="round"/>
    <path d="M 25.470407485961914 33.76231384277344 C 3.245251417160034 34.74856948852539 20.360002517700195 37.389183044433594 39.582725524902344 35.858097076416016" stroke-width="3.0" fill="none" stroke="rgb(0, 0, 0)" stroke-opacity="0.0064616143" stroke-linecap="round" stroke-linejoin="round"/>
    <path d="M 57.2567138671875 93.18984985351562 C 45.990318298339844 106.52976989746094 62.597049713134766 96.48086547851562 42.189292907714844 127.9802017211914" stroke-width="3.0" fill="none" stroke="rgb(-3, 0, 3)" stroke-opacity="0.0811758" stroke-linecap="round" stroke-linejoin="round"/>
    <path d="M 63.72652053833008 66.24835205078125 C 68.20321655273438 53.2857666015625 60.8219108581543 63.25620651245117 48.249107360839844 9.012883186340332" stroke-width="3.0" fill="none" stroke="rgb(-2, 0, 3)" stroke-opacity="0.23683903" stroke-linecap="round" stroke-linejoin="round"/>
    <path d="M 175.26600646972656 3.39231276512146 C 172.7951202392578 16.042633056640625 159.0609588623047 18.206003189086914 159.39974975585938 56.18418884277344" stroke-width="3.0" fill="none" stroke="rgb(0, -2, 2)" stroke-opacity="0.1762922" stroke-linecap="round" stroke-linejoin="round"/>
    <path d="M 191.3181610107422 181.6695098876953 C 203.08592224121094 194.84002685546875 177.5205078125 205.98020935058594 182.37258911132812 146.64688110351562" stroke-width="3.0" fill="none" stroke="rgb(0, 1, -1)" stroke-opacity="0.03407603" stroke-linecap="round" stroke-linejoin="round"/>
    <path d="M 148.778076171875 198.35665893554688 C 154.6967010498047 206.3483428955078 148.49818420410156 220.26641845703125 143.62550354003906 195.7556610107422" stroke-width="3.0" fill="none" stroke="rgb(0, 1, -2)" stroke-opacity="0.0472094" stroke-linecap="round" stroke-linejoin="round"/>
    <path d="M 129.52340698242188 66.30441284179688 C 129.4074249267578 64.86253356933594 129.47967529296875 68.22006225585938 129.4851837158203 66.72822570800781" stroke-width="3.0" fill="none" stroke="rgb(0, 0, 0)" stroke-opacity="0.005161484" stroke-linecap="round" stroke-linejoin="round"/>
    <path d="M 159.60391235351562 160.50978088378906 C 148.3738555908203 118.20874786376953 168.73036193847656 139.80479431152344 154.25613403320312 146.95223999023438" stroke-width="3.0" fill="none" stroke="rgb(0, 0, 0)" stroke-opacity="0.03782438" stroke-linecap="round" stroke-linejoin="round"/>
    <path d="M 6.408191204071045 204.8777618408203 C -0.8225322961807251 223.7708282470703 17.41027069091797 216.36944580078125 11.218513488769531 206.18014526367188" stroke-width="3.0" fill="none" stroke="rgb(-1, 0, 0)" stroke-opacity="0.022131894" stroke-linecap="round" stroke-linejoin="round"/>
    <path d="M 173.9342498779297 204.05332946777344 C 229.09986877441406 206.58766174316406 243.5676727294922 208.5069580078125 170.64532470703125 209.11544799804688" stroke-width="3.0" fill="none" stroke="rgb(-1, 1, -2)" stroke-opacity="0.012561901" stroke-linecap="round" stroke-linejoin="round"/>
    <path d="M 109.50566101074219 83.97596740722656 C 113.39656829833984 113.04508972167969 142.137451171875 117.57583618164062 110.92571258544922 94.28894805908203" stroke-width="3.0" fill="none" stroke="rgb(2, -3, 2)" stroke-opacity="0.14535925" stroke-linecap="round" stroke-linejoin="round"/>
    <path d="M 67.02647399902344 107.98099517822266 C 82.6187973022461 115.3192367553711 72.14579010009766 106.47557830810547 94.85553741455078 109.77881622314453" stroke-width="3.0" fill="none" stroke="rgb(1, -2, 0)" stroke-opacity="0.18748255" stroke-linecap="round" stroke-linejoin="round"/>
    <path d="M 32.1690673828125 168.67628479003906 C 24.351295471191406 178.52796936035156 35.033260345458984 175.4927520751953 27.74471664428711 184.19456481933594" stroke-width="3.0" fill="none" stroke="rgb(-2, 0, 2)" stroke-opacity="0.10478605" stroke-linecap="round" stroke-linejoin="round"/>
    <path d="M 187.96908569335938 173.3389892578125 C 196.68966674804688 139.0857696533203 198.4420928955078 147.1116180419922 193.69374084472656 165.61778259277344" stroke-width="3.0" fill="none" stroke="rgb(0, 0, 0)" stroke-opacity="0.051346853" stroke-linecap="round" stroke-linejoin="round"/>
    <path d="M 131.3489990234375 146.5832977294922 C 125.85964965820312 90.4617691040039 139.34510803222656 138.47640991210938 129.13656616210938 138.12901306152344" stroke-width="3.0" fill="none" stroke="rgb(0, 0, 1)" stroke-opacity="0.08587156" stroke-linecap="round" stroke-linejoin="round"/>
    <path d="M 129.8358917236328 159.55108642578125 C 159.92373657226562 180.08546447753906 109.83316802978516 175.38912963867188 142.0719757080078 127.78109741210938" stroke-width="3.0" fill="none" stroke="rgb(0, 0, 1)" stroke-opacity="0.03791009" stroke-linecap="round" stroke-linejoin="round"/>
    <path d="M 66.88184356689453 83.03150177001953 C 67.09083557128906 80.24430084228516 62.298553466796875 88.97383117675781 65.27632904052734 79.88682556152344" stroke-width="3.0" fill="none" stroke="rgb(2, -2, 2)" stroke-opacity="0.64029527" stroke-linecap="round" stroke-linejoin="round"/>
    <path d="M 194.37680053710938 149.53054809570312 C 195.9258575439453 121.88330841064453 203.04591369628906 147.0076141357422 190.83641052246094 127.7616195678711" stroke-width="3.0" fill="none" stroke="rgb(0, 0, 0)" stroke-opacity="0.047611665" stroke-linecap="round" stroke-linejoin="round"/>
    <path d="M 52.60405731201172 -2.400411367416382 C 47.61233901977539 9.946130752563477 74.9616928100586 3.2686824798583984 79.69819641113281 54.64076614379883" stroke-width="3.0" fill="none" stroke="rgb(1, 0, -2)" stroke-opacity="0.28291366" stroke-linecap="round" stroke-linejoin="round"/>
    <path d="M 109.15272521972656 85.49916076660156 C 92.44933319091797 61.8199577331543 109.88329315185547 75.03746795654297 96.26802062988281 63.43073654174805" stroke-width="3.0" fill="none" stroke="rgb(-1, 0, 1)" stroke-opacity="0.16613138" stroke-linecap="round" stroke-linejoin="round"/>
    <path d="M 96.10523986816406 64.8819580078125 C 89.77078247070312 48.146507263183594 100.4269027709961 70.80813598632812 82.20308685302734 59.137916564941406" stroke-width="3.0" fill="none" stroke="rgb(0, 0, 0)" stroke-opacity="0.026416896" stroke-linecap="round" stroke-linejoin="round"/>
    <path d="M 49.343780517578125 202.8526611328125 C 37.66450119018555 218.997802734375 81.36141967773438 213.83457946777344 44.44404983520508 208.8776397705078" stroke-width="3.0" fill="none" stroke="rgb(2, 0, -2)" stroke-opacity="0.15895481" stroke-linecap="round" stroke-linejoin="round"/>
    <path d="M 189.15570068359375 107.2975845336914 C 186.50796508789062 127.01688385009766 195.15658569335938 96.24381256103516 198.44503784179688 145.51222229003906" stroke-width="3.0" fill="none" stroke="rgb(-3, 0, 3)" stroke-opacity="0.094327725" stroke-linecap="round" stroke-linejoin="round"/>
    <path d="M 181.3922576904297 -5.782869815826416 C 172.05873107910156 25.471899032592773 166.29251098632812 17.0418643951416 181.91749572753906 -0.8155950307846069" stroke-width="3.0" fill="none" stroke="rgb(-1, 0, 2)" stroke-opacity="0.12615791" stroke-linecap="round" stroke-linejoin="round"/>
    <path d="M 190.28123474121094 -8.581256866455078 C 179.43809509277344 33.7825813293457 179.32301330566406 8.602692604064941 165.0706787109375 57.6934928894043" stroke-width="3.0" fill="none" stroke="rgb(-1, 0, 1)" stroke-opacity="0.050846163" stroke-linecap="round" stroke-linejoin="round"/>
    <path d="M 149.7906951904297 208.27513122558594 C 171.03538513183594 200.61041259765625 131.30535888671875 210.620361328125 134.1334228515625 189.62828063964844" stroke-width="3.0" fill="none" stroke="rgb(0, 0, 0)" stroke-opacity="0.05114875" stroke-linecap="round" stroke-linejoin="round"/>
    <path d="M 96.8890380859375 82.36997985839844 C 102.36651611328125 86.75997161865234 93.9931411743164 76.1250991821289 98.84197998046875 81.12916564941406" stroke-width="3.0" fill="none" stroke="rgb(3, -2, 2)" stroke-opacity="0.90891314" stroke-linecap="round" stroke-linejoin="round"/>
    <path d="M 209.39215087890625 24.877668380737305 C 210.6280975341797 24.55280303955078 209.68643188476562 36.8057975769043 207.65505981445312 44.05987548828125" stroke-width="3.0" fill="none" stroke="rgb(0, 0, 0)" stroke-opacity="0.0073179854" stroke-linecap="round" stroke-linejoin="round"/>
    <path d="M 55.868614196777344 90.61115264892578 C 63.76564407348633 86.42628479003906 49.79492950439453 74.87345886230469 55.2880744934082 111.24569702148438" stroke-width="3.0" fill="none" stroke="rgb(0, 0, 1)" stroke-opacity="0.061059657" stroke-linecap="round" stroke-linejoin="round"/>
    <path d="M 32.92292022705078 119.13479614257812 C 20.018672943115234 115.95939636230469 17.30141258239746 122.47517395019531 19.25666618347168 116.9642562866211" stroke-width="3.0" fill="none" stroke="rgb(0, 0, 0)" stroke-opacity="0.008727411" stroke-linecap="round" stroke-linejoin="round"/>
  </g>
</svg>
