<?xml version="1.0" ?>
<svg xmlns="http://www.w3.org/2000/svg" version="1.1" width="224" height="224">
  <defs/>
  <g>
    <path d="M 107.072265625 28.577659606933594 C 106.64690399169922 22.00221061706543 110.9013900756836 35.03615951538086 103.64847564697266 17.663854598999023" stroke-width="3.0" fill="none" stroke="rgb(0, 0, 1)" stroke-opacity="0.42919827" stroke-linecap="round" stroke-linejoin="round"/>
    <path d="M 48.80974197387695 -3.563239336013794 C 41.60837936401367 -2.8866634368896484 46.7532958984375 -2.102205753326416 47.389366149902344 -6.409263610839844" stroke-width="3.0" fill="none" stroke="rgb(0, 0, 0)" stroke-opacity="0.58911526" stroke-linecap="round" stroke-linejoin="round"/>
    <path d="M 115.8729248046875 102.27508544921875 C 129.13734436035156 109.29627990722656 106.97296905517578 102.44414520263672 120.3162841796875 96.71878051757812" stroke-width="3.0" fill="none" stroke="rgb(0, 0, 0)" stroke-opacity="0.24159083" stroke-linecap="round" stroke-linejoin="round"/>
    <path d="M 164.88880920410156 117.55860137939453 C 155.58213806152344 113.64248657226562 161.22337341308594 121.08248901367188 148.39627075195312 110.3539810180664" stroke-width="3.0" fill="none" stroke="rgb(0, 1, -1)" stroke-opacity="0.27948964" stroke-linecap="round" stroke-linejoin="round"/>
    <path d="M 137.51400756835938 122.2020492553711 C 123.49437713623047 147.39942932128906 120.95236206054688 142.36692810058594 142.59909057617188 106.85464477539062" stroke-width="3.0" fill="none" stroke="rgb(-2, 1, 3)" stroke-opacity="0.26236132" stroke-linecap="round" stroke-linejoin="round"/>
    <path d="M 96.91023254394531 194.1864776611328 C 72.64234924316406 202.0251007080078 76.87723541259766 187.35960388183594 81.89130401611328 207.78985595703125" stroke-width="3.0" fill="none" stroke="rgb(-1, 0, 1)" stroke-opacity="0.29825366" stroke-linecap="round" stroke-linejoin="round"/>
    <path d="M 73.76278686523438 155.2887420654297 C 65.1392822265625 175.8068389892578 74.33655548095703 159.9001922607422 75.51204681396484 159.55377197265625" stroke-width="3.0" fill="none" stroke="rgb(1, -1, -1)" stroke-opacity="0.23908253" stroke-linecap="round" stroke-linejoin="round"/>
    <path d="M 121.16288757324219 56.28452682495117 C 95.75450134277344 42.237457275390625 129.23776245117188 59.6402702331543 103.24444580078125 60.92863845825195" stroke-width="3.0" fill="none" stroke="rgb(2, -2, 1)" stroke-opacity="0.22901706" stroke-linecap="round" stroke-linejoin="round"/>
    <path d="M 39.81880569458008 76.29856872558594 C 37.27927780151367 75.8923568725586 40.112796783447266 73.78350830078125 39.05915832519531 76.8360824584961" stroke-width="3.0" fill="none" stroke="rgb(0, 0, 2)" stroke-opacity="0.4391845" stroke-linecap="round" stroke-linejoin="round"/>
    <path d="M 156.90284729003906 81.48120880126953 C 152.12210083007812 80.42644500732422 149.38693237304688 79.98548126220703 150.2516632080078 79.5268783569336" stroke-width="3.0" fill="none" stroke="rgb(0, 1, -1)" stroke-opacity="0.24238081" stroke-linecap="round" stroke-linejoin="round"/>
    <path d="M 85.14437103271484 154.45909118652344 C 90.31678771972656 157.04574584960938 103.1441879272461 158.1273193359375 95.92647552490234 157.27854919433594" stroke-width="3.0" fill="none" stroke="rgb(-1, 0, 1)" stroke-opacity="0.31029433" stroke-linecap="round" stroke-linejoin="round"/>
    <path d="M 175.5616455078125 184.1280517578125 C 160.7515411376953 207.73770141601562 147.4607696533203 212.06369018554688 173.08084106445312 184.1326904296875" stroke-width="3.0" fill="none" stroke="rgb(-3, 1, 2)" stroke-opacity="0.3662762" stroke-linecap="round" stroke-linejoin="round"/>
    <path d="M 26.27497100830078 80.68016052246094 C 25.615726470947266 81.15560913085938 25.624359130859375 80.48123168945312 26.547557830810547 81.13536071777344" stroke-width="3.0" fill="none" stroke="rgb(0, 0, 2)" stroke-opacity="0.32073015" stroke-linecap="round" stroke-linejoin="round"/>
    <path d="M 127.7806167602539 175.9188995361328 C 133.66917419433594 154.50735473632812 125.5529556274414 149.1637725830078 129.5563201904297 149.22882080078125" stroke-width="3.0" fill="none" stroke="rgb(0, 1, 0)" stroke-opacity="0.105647564" stroke-linecap="round" stroke-linejoin="round"/>
    <path d="M 116.61560821533203 79.90581512451172 C 114.41710662841797 74.02129364013672 123.12178802490234 79.9097671508789 130.86524963378906 71.63720703125" stroke-width="3.0" fill="none" stroke="rgb(0, 1, 0)" stroke-opacity="0.20925765" stroke-linecap="round" stroke-linejoin="round"/>
    <path d="M 181.13772583007812 181.2256317138672 C 194.5891571044922 178.99693298339844 187.44039916992188 196.17080688476562 173.078857421875 163.5326385498047" stroke-width="3.0" fill="none" stroke="rgb(-1, 1, -2)" stroke-opacity="0.4556486" stroke-linecap="round" stroke-linejoin="round"/>
    <path d="M 88.2828140258789 121.61186218261719 C 89.6487808227539 121.4069595336914 92.72958374023438 126.90315246582031 83.48207092285156 117.52234649658203" stroke-width="3.0" fill="none" stroke="rgb(0, 1, 1)" stroke-opacity="0.21908905" stroke-linecap="round" stroke-linejoin="round"/>
    <path d="M 221.355224609375 111.07791900634766 C 222.56256103515625 111.47792053222656 222.45584106445312 113.92512512207031 220.86767578125 110.95165252685547" stroke-width="3.0" fill="none" stroke="rgb(0, 1, 0)" stroke-opacity="0.21141705" stroke-linecap="round" stroke-linejoin="round"/>
    <path d="M 193.6765594482422 196.2729949951172 C 183.92372131347656 191.49560546875 188.54388427734375 187.897705078125 196.02572631835938 234.38400268554688" stroke-width="3.0" fill="none" stroke="rgb(-2, 1, -2)" stroke-opacity="0.39825395" stroke-linecap="round" stroke-linejoin="round"/>
    <path d="M 185.4805908203125 205.72511291503906 C 184.5334930419922 196.03912353515625 182.53428649902344 197.655517578125 175.31964111328125 207.00177001953125" stroke-width="3.0" fill="none" stroke="rgb(1, 1, -2)" stroke-opacity="0.2832773" stroke-linecap="round" stroke-linejoin="round"/>
    <path d="M 61.50041961669922 177.1442413330078 C -13.227913856506348 199.99795532226562 23.517908096313477 174.28817749023438 58.563995361328125 169.1468505859375" stroke-width="3.0" fill="none" stroke="rgb(-4, 3, 2)" stroke-opacity="0.5080399" stroke-linecap="round" stroke-linejoin="round"/>
    <path d="M 89.2710189819336 209.5404815673828 C 77.12078857421875 193.17803955078125 88.36769104003906 205.78395080566406 85.31144714355469 223.82334899902344" stroke-width="3.0" fill="none" stroke="rgb(0, 1, -1)" stroke-opacity="0.19552678" stroke-linecap="round" stroke-linejoin="round"/>
    <path d="M 173.4803466796875 203.93736267089844 C 162.4910430908203 237.35142517089844 153.60415649414062 234.8667755126953 172.1878662109375 204.1811981201172" stroke-width="3.0" fill="none" stroke="rgb(0, 0, 0)" stroke-opacity="0.20435712" stroke-linecap="round" stroke-linejoin="round"/>
    <path d="M 72.0604476928711 60.298072814941406 C 95.1178207397461 88.54680633544922 83.16407775878906 73.4993667602539 82.06463623046875 90.34241485595703" stroke-width="3.0" fill="none" stroke="rgb(-3, 1, 3)" stroke-opacity="0.14592934" stroke-linecap="round" stroke-linejoin="round"/>
    <path d="M 195.38072204589844 147.09474182128906 C 169.92193603515625 155.33924865722656 161.3168487548828 134.01028442382812 183.92054748535156 170.1153106689453" stroke-width="3.0" fill="none" stroke="rgb(-3, 2, 2)" stroke-opacity="0.48687345" stroke-linecap="round" stroke-linejoin="round"/>
    <path d="M 95.28461456298828 20.36664390563965 C 83.03884887695312 22.09414291381836 91.703125 14.388208389282227 94.76690673828125 29.02482795715332" stroke-width="3.0" fill="none" stroke="rgb(1, 0, -1)" stroke-opacity="0.23808946" stroke-linecap="round" stroke-linejoin="round"/>
    <path d="M 127.78983306884766 30.42241859436035 C 138.39019775390625 33.689117431640625 139.30349731445312 38.63261032104492 124.18098449707031 20.90674591064453" stroke-width="3.0" fill="none" stroke="rgb(3, -2, 2)" stroke-opacity="0.38985756" stroke-linecap="round" stroke-linejoin="round"/>
    <path d="M 159.31387329101562 66.99195861816406 C 160.49365234375 69.05654907226562 157.55213928222656 67.51654815673828 159.9447021484375 67.93244934082031" stroke-width="3.0" fill="none" stroke="rgb(-1, 0, 1)" stroke-opacity="0.33942342" stroke-linecap="round" stroke-linejoin="round"/>
    <path d="M 88.63379669189453 49.59613800048828 C 117.30548095703125 54.77468490600586 97.94563293457031 24.15006446838379 89.58677673339844 38.327613830566406" stroke-width="3.0" fill="none" stroke="rgb(0, 0, 1)" stroke-opacity="0.348093" stroke-linecap="round" stroke-linejoin="round"/>
    <path d="M 104.2695541381836 185.85595703125 C 92.95570373535156 181.4127197265625 84.99352264404297 180.63880920410156 78.6678466796875 184.5499725341797" stroke-width="3.0" fill="none" stroke="rgb(-1, 0, 1)" stroke-opacity="0.32996473" stroke-linecap="round" stroke-linejoin="round"/>
    <path d="M 141.64483642578125 37.657798767089844 C 142.28311157226562 38.73067855834961 138.88406372070312 34.65345001220703 138.42430114746094 34.23123550415039" stroke-width="3.0" fill="none" stroke="rgb(0, 0, 0)" stroke-opacity="0.27091932" stroke-linecap="round" stroke-linejoin="round"/>
    <path d="M 70.48361206054688 169.50865173339844 C 70.76229858398438 181.8330841064453 78.66849517822266 139.7449493408203 83.21084594726562 149.00660705566406" stroke-width="3.0" fill="none" stroke="rgb(0, 0, 0)" stroke-opacity="0.26270673" stroke-linecap="round" stroke-linejoin="round"/>
    <path d="M 136.17276000976562 100.8663558959961 C 122.95619201660156 102.62332153320312 121.13780212402344 120.42579650878906 124.42829895019531 110.78717041015625" stroke-width="3.0" fill="none" stroke="rgb(-1, 0, 1)" stroke-opacity="0.27156034" stroke-linecap="round" stroke-linejoin="round"/>
    <path d="M 100.24046325683594 95.41400909423828 C 114.06754302978516 89.60375213623047 113.7402572631836 93.24889373779297 97.58672332763672 99.85858917236328" stroke-width="3.0" fill="none" stroke="rgb(-1, 0, 1)" stroke-opacity="0.24890763" stroke-linecap="round" stroke-linejoin="round"/>
    <path d="M 23.056869506835938 53.743385314941406 C 23.020893096923828 50.290489196777344 23.228178024291992 54.2657470703125 23.178142547607422 55.01021957397461" stroke-width="3.0" fill="none" stroke="rgb(0, 1, -1)" stroke-opacity="0.25727978" stroke-linecap="round" stroke-linejoin="round"/>
    <path d="M 158.01145935058594 222.368896484375 C 166.65113830566406 230.0840606689453 159.07797241210938 234.1676788330078 159.46597290039062 217.06398010253906" stroke-width="3.0" fill="none" stroke="rgb(-2, 1, 1)" stroke-opacity="0.43925813" stroke-linecap="round" stroke-linejoin="round"/>
    <path d="M 176.7557373046875 158.2432861328125 C 183.59954833984375 144.1255645751953 164.22132873535156 152.76626586914062 184.54049682617188 178.1543731689453" stroke-width="3.0" fill="none" stroke="rgb(2, 1, -3)" stroke-opacity="0.48205057" stroke-linecap="round" stroke-linejoin="round"/>
    <path d="M 174.2120361328125 185.83998107910156 C 178.7515869140625 174.1053466796875 177.26333618164062 190.91453552246094 179.38198852539062 180.0681915283203" stroke-width="3.0" fill="none" stroke="rgb(0, 0, 1)" stroke-opacity="0.41076308" stroke-linecap="round" stroke-linejoin="round"/>
    <path d="M 107.9012680053711 18.715246200561523 C 112.99153137207031 47.71337127685547 108.79660034179688 38.48267364501953 98.46118927001953 16.448211669921875" stroke-width="3.0" fill="none" stroke="rgb(1, 0, -3)" stroke-opacity="0.23095804" stroke-linecap="round" stroke-linejoin="round"/>
    <path d="M 117.1061019897461 36.41336441040039 C 120.4884033203125 51.34074401855469 144.25454711914062 27.101524353027344 116.08489227294922 26.952119827270508" stroke-width="3.0" fill="none" stroke="rgb(-1, 0, 1)" stroke-opacity="0.27134037" stroke-linecap="round" stroke-linejoin="round"/>
    <path d="M 84.9163818359375 133.70242309570312 C 94.27495574951172 143.36534118652344 92.98298645019531 136.02003479003906 110.60646057128906 149.05239868164062" stroke-width="3.0" fill="none" stroke="rgb(-3, 1, 2)" stroke-opacity="0.24583709" stroke-linecap="round" stroke-linejoin="round"/>
    <path d="M 96.6860122680664 41.46162796020508 C 86.72864532470703 59.767616271972656 98.45500946044922 17.4273681640625 74.0461654663086 55.657798767089844" stroke-width="3.0" fill="none" stroke="rgb(-2, 1, 0)" stroke-opacity="0.3744635" stroke-linecap="round" stroke-linejoin="round"/>
    <path d="M 76.017822265625 205.40225219726562 C 63.38742446899414 223.39886474609375 57.37366485595703 244.83749389648438 77.51760864257812 207.47732543945312" stroke-width="3.0" fill="none" stroke="rgb(-3, 3, -2)" stroke-opacity="0.72630024" stroke-linecap="round" stroke-linejoin="round"/>
    <path d="M 135.1707000732422 195.8448486328125 C 150.22430419921875 176.26441955566406 162.40994262695312 174.81024169921875 175.18463134765625 169.17291259765625" stroke-width="3.0" fill="none" stroke="rgb(-3, 2, 0)" stroke-opacity="0.4039088" stroke-linecap="round" stroke-linejoin="round"/>
    <path d="M 20.406959533691406 201.3555908203125 C 50.706912994384766 169.73580932617188 84.41289520263672 189.73255920410156 63.103206634521484 181.59219360351562" stroke-width="3.0" fill="none" stroke="rgb(0, 1, -2)" stroke-opacity="0.41444546" stroke-linecap="round" stroke-linejoin="round"/>
    <path d="M 96.24852752685547 78.77462768554688 C 120.84774780273438 85.19679260253906 128.33399963378906 74.39173126220703 93.24433898925781 76.30857849121094" stroke-width="3.0" fill="none" stroke="rgb(1, 0, 1)" stroke-opacity="0.24699576" stroke-linecap="round" stroke-linejoin="round"/>
    <path d="M 9.146919250488281 233.83758544921875 C 6.146955490112305 230.72402954101562 -1.038806438446045 196.58116149902344 36.035884857177734 175.3844451904297" stroke-width="3.0" fill="none" stroke="rgb(-2, 1, 1)" stroke-opacity="0.54199237" stroke-linecap="round" stroke-linejoin="round"/>
    <path d="M 102.49197387695312 108.4570083618164 C 114.92880249023438 88.85721588134766 121.87843322753906 103.6830062866211 113.51014709472656 127.90770721435547" stroke-width="3.0" fill="none" stroke="rgb(-2, 0, 2)" stroke-opacity="0.17563988" stroke-linecap="round" stroke-linejoin="round"/>
  </g>
</svg>
