<?xml version="1.0" ?>
<svg xmlns="http://www.w3.org/2000/svg" version="1.1" width="224" height="224">
  <defs/>
  <g>
    <path d="M 107.99983978271484 33.99955368041992 C 105.60964965820312 27.48109245300293 109.8547134399414 27.38811492919922 105.31633758544922 22.712888717651367" stroke-width="3.0" fill="none" stroke="rgb(2, 2, -2)" stroke-opacity="0.9900001" stroke-linecap="round" stroke-linejoin="round"/>
    <path d="M 36.999900817871094 9.998699188232422 C 38.13841247558594 10.85276985168457 42.33346939086914 6.711133003234863 47.59388732910156 8.132562637329102" stroke-width="3.0" fill="none" stroke="rgb(2, 2, 2)" stroke-opacity="0.99000007" stroke-linecap="round" stroke-linejoin="round"/>
    <path d="M 111.99990844726562 93.99982452392578 C 114.57915496826172 97.53579711914062 108.65479278564453 99.99920654296875 108.2621078491211 98.67599487304688" stroke-width="3.0" fill="none" stroke="rgb(2, 2, 2)" stroke-opacity="0.99000007" stroke-linecap="round" stroke-linejoin="round"/>
    <path d="M 157.0006103515625 119.00032043457031 C 155.55746459960938 121.24525451660156 156.8306121826172 120.28636932373047 153.53433227539062 115.5856704711914" stroke-width="3.0" fill="none" stroke="rgb(2, 2, -2)" stroke-opacity="0.99000007" stroke-linecap="round" stroke-linejoin="round"/>
    <path d="M 129.99801635742188 141.00013732910156 C 126.38259887695312 136.14231872558594 123.9247817993164 133.63027954101562 127.87787628173828 126.9428939819336" stroke-width="3.0" fill="none" stroke="rgb(2, 2, 2)" stroke-opacity="0.99000007" stroke-linecap="round" stroke-linejoin="round"/>
    <path d="M 83.99971771240234 192.00079345703125 C 77.13859558105469 197.0194091796875 77.67912292480469 202.20396423339844 81.06378173828125 199.73223876953125" stroke-width="3.0" fill="none" stroke="rgb(2, 2, 2)" stroke-opacity="0.99000007" stroke-linecap="round" stroke-linejoin="round"/>
    <path d="M 72.00007629394531 160.0001678466797 C 70.82022094726562 162.97280883789062 73.15773010253906 162.00820922851562 69.8965835571289 164.9865264892578" stroke-width="3.0" fill="none" stroke="rgb(2, 2, 2)" stroke-opacity="0.99000007" stroke-linecap="round" stroke-linejoin="round"/>
    <path d="M 104.99881744384766 48.99992752075195 C 101.31990051269531 47.425113677978516 102.4073486328125 47.48880386352539 99.66378784179688 48.47951889038086" stroke-width="3.0" fill="none" stroke="rgb(2, 2, -2)" stroke-opacity="0.9900001" stroke-linecap="round" stroke-linejoin="round"/>
    <path d="M 35.999351501464844 80.99980163574219 C 38.63295364379883 83.65038299560547 42.52308654785156 88.78048706054688 44.74897003173828 85.89886474609375" stroke-width="3.0" fill="none" stroke="rgb(2, 2, 2)" stroke-opacity="0.99" stroke-linecap="round" stroke-linejoin="round"/>
    <path d="M 150.9999542236328 79.00020599365234 C 150.24710083007812 77.39285278320312 150.14004516601562 76.28244018554688 150.5286102294922 72.7773666381836" stroke-width="3.0" fill="none" stroke="rgb(2, 2, -2)" stroke-opacity="0.99000007" stroke-linecap="round" stroke-linejoin="round"/>
    <path d="M 102.99600982666016 156.0002899169922 C 103.09480285644531 156.6392364501953 105.3830337524414 157.23248291015625 104.12403106689453 150.38763427734375" stroke-width="3.0" fill="none" stroke="rgb(2, 2, 2)" stroke-opacity="0.99000007" stroke-linecap="round" stroke-linejoin="round"/>
    <path d="M 164.9999237060547 192.000244140625 C 167.2926025390625 195.0830078125 171.6304168701172 199.2240753173828 171.5933074951172 195.64898681640625" stroke-width="3.0" fill="none" stroke="rgb(2, 2, 2)" stroke-opacity="0.99" stroke-linecap="round" stroke-linejoin="round"/>
    <path d="M 22.999834060668945 92.00015258789062 C 23.319644927978516 89.72274780273438 20.572858810424805 87.56562042236328 15.285202026367188 85.01828002929688" stroke-width="3.0" fill="none" stroke="rgb(2, 2, 2)" stroke-opacity="0.99" stroke-linecap="round" stroke-linejoin="round"/>
    <path d="M 128.999755859375 144.99917602539062 C 127.78158569335938 146.66799926757812 130.8225555419922 148.80642700195312 127.67687225341797 147.04095458984375" stroke-width="3.0" fill="none" stroke="rgb(2, 2, -2)" stroke-opacity="0.99000007" stroke-linecap="round" stroke-linejoin="round"/>
    <path d="M 123.00033569335938 79.00096893310547 C 126.48904418945312 78.06462860107422 126.07337951660156 77.60631561279297 126.02650451660156 82.05802917480469" stroke-width="3.0" fill="none" stroke="rgb(2, 2, 2)" stroke-opacity="0.99000007" stroke-linecap="round" stroke-linejoin="round"/>
    <path d="M 168.00033569335938 174.9999237060547 C 172.3460693359375 178.59457397460938 177.18382263183594 176.5743408203125 181.65298461914062 174.1719970703125" stroke-width="3.0" fill="none" stroke="rgb(2, 2, 2)" stroke-opacity="0.99000007" stroke-linecap="round" stroke-linejoin="round"/>
    <path d="M 90.00053405761719 120.00064849853516 C 91.17183685302734 118.65680694580078 89.17283630371094 120.3337173461914 85.58305358886719 117.9947509765625" stroke-width="3.0" fill="none" stroke="rgb(2, 2, -2)" stroke-opacity="0.99000007" stroke-linecap="round" stroke-linejoin="round"/>
    <path d="M 208.9998779296875 111.00015258789062 C 212.38638305664062 113.30410766601562 216.14349365234375 110.55923461914062 219.24501037597656 110.60133361816406" stroke-width="3.0" fill="none" stroke="rgb(2, 2, 2)" stroke-opacity="0.99" stroke-linecap="round" stroke-linejoin="round"/>
    <path d="M 184.0000762939453 211.99981689453125 C 185.16297912597656 208.54197692871094 181.18197631835938 210.5133056640625 186.2019500732422 212.13717651367188" stroke-width="3.0" fill="none" stroke="rgb(2, 2, 2)" stroke-opacity="0.9900001" stroke-linecap="round" stroke-linejoin="round"/>
    <path d="M 174.99990844726562 205.00009155273438 C 176.7162628173828 201.87808227539062 174.50363159179688 200.4249725341797 177.07102966308594 197.60794067382812" stroke-width="3.0" fill="none" stroke="rgb(2, 2, 2)" stroke-opacity="0.99000007" stroke-linecap="round" stroke-linejoin="round"/>
    <path d="M 55.99942398071289 177.000244140625 C 50.36988830566406 176.61187744140625 56.83123779296875 174.19882202148438 59.638671875 179.0737762451172" stroke-width="3.0" fill="none" stroke="rgb(2, 2, 2)" stroke-opacity="0.99000007" stroke-linecap="round" stroke-linejoin="round"/>
    <path d="M 83.00047302246094 216.9879608154297 C 81.69950866699219 213.94703674316406 85.63086700439453 212.28677368164062 82.78919219970703 217.054443359375" stroke-width="3.0" fill="none" stroke="rgb(2, 2, -2)" stroke-opacity="0.99000007" stroke-linecap="round" stroke-linejoin="round"/>
    <path d="M 166.99981689453125 207.9998016357422 C 169.68699645996094 206.76332092285156 165.6853485107422 212.1766815185547 166.90020751953125 212.89974975585938" stroke-width="3.0" fill="none" stroke="rgb(2, 2, -2)" stroke-opacity="0.99000007" stroke-linecap="round" stroke-linejoin="round"/>
    <path d="M 76.99995422363281 79.99988555908203 C 79.71805572509766 81.17887878417969 77.87653350830078 78.46199035644531 80.31851959228516 73.63481140136719" stroke-width="3.0" fill="none" stroke="rgb(2, 2, 2)" stroke-opacity="0.99000007" stroke-linecap="round" stroke-linejoin="round"/>
    <path d="M 174.00018310546875 147.00006103515625 C 172.6265106201172 149.45652770996094 169.2305908203125 147.1102294921875 172.7165985107422 151.79542541503906" stroke-width="3.0" fill="none" stroke="rgb(2, 2, 2)" stroke-opacity="0.99000007" stroke-linecap="round" stroke-linejoin="round"/>
    <path d="M 88.00199127197266 27.999238967895508 C 82.92878723144531 25.1137752532959 81.94685363769531 21.686779022216797 82.97415161132812 23.904340744018555" stroke-width="3.0" fill="none" stroke="rgb(2, 2, -2)" stroke-opacity="0.99000007" stroke-linecap="round" stroke-linejoin="round"/>
    <path d="M 125.99977111816406 38.00433349609375 C 126.4940185546875 38.77615737915039 130.02488708496094 42.603694915771484 135.20132446289062 42.000709533691406" stroke-width="3.0" fill="none" stroke="rgb(2, 2, 2)" stroke-opacity="0.99000007" stroke-linecap="round" stroke-linejoin="round"/>
    <path d="M 169.99990844726562 56.00017547607422 C 167.94778442382812 61.21808624267578 168.78196716308594 64.53126525878906 167.05580139160156 62.58826446533203" stroke-width="3.0" fill="none" stroke="rgb(2, 2, 2)" stroke-opacity="0.99" stroke-linecap="round" stroke-linejoin="round"/>
    <path d="M 95.99982452392578 47.999717712402344 C 95.6678695678711 52.894989013671875 93.96977996826172 51.3103141784668 90.62789916992188 45.87998580932617" stroke-width="3.0" fill="none" stroke="rgb(2, 2, 2)" stroke-opacity="0.9900001" stroke-linecap="round" stroke-linejoin="round"/>
    <path d="M 99.99980926513672 178.99990844726562 C 96.22322845458984 184.22918701171875 89.09481811523438 183.4886016845703 85.8270263671875 186.8560333251953" stroke-width="3.0" fill="none" stroke="rgb(2, 2, 2)" stroke-opacity="0.99" stroke-linecap="round" stroke-linejoin="round"/>
    <path d="M 142.99972534179688 36.00012969970703 C 147.63046264648438 36.89691162109375 145.10997009277344 36.53019332885742 143.9134979248047 37.97676086425781" stroke-width="3.0" fill="none" stroke="rgb(2, 2, 2)" stroke-opacity="0.99000007" stroke-linecap="round" stroke-linejoin="round"/>
    <path d="M 77.9998779296875 165.9999542236328 C 76.63375091552734 169.28585815429688 82.13101959228516 161.93736267089844 89.15711975097656 159.4920654296875" stroke-width="3.0" fill="none" stroke="rgb(2, 2, 2)" stroke-opacity="0.99" stroke-linecap="round" stroke-linejoin="round"/>
    <path d="M 128.99986267089844 109.00006103515625 C 124.65386199951172 113.27330017089844 126.08765411376953 117.79850769042969 125.29744720458984 116.70610809326172" stroke-width="3.0" fill="none" stroke="rgb(2, 2, 2)" stroke-opacity="0.99000007" stroke-linecap="round" stroke-linejoin="round"/>
    <path d="M 104.99893951416016 91.00015258789062 C 106.84028625488281 92.1011962890625 108.24463653564453 86.92460632324219 109.57482147216797 89.97976684570312" stroke-width="3.0" fill="none" stroke="rgb(2, 2, 2)" stroke-opacity="0.99000007" stroke-linecap="round" stroke-linejoin="round"/>
    <path d="M 31.00058937072754 55.00015640258789 C 29.694988250732422 51.463348388671875 31.181703567504883 47.453861236572266 27.846914291381836 51.7999382019043" stroke-width="3.0" fill="none" stroke="rgb(2, 2, 2)" stroke-opacity="0.99" stroke-linecap="round" stroke-linejoin="round"/>
    <path d="M 164.99990844726562 214.99978637695312 C 170.30686950683594 215.41717529296875 169.08868408203125 213.48223876953125 162.85345458984375 216.8597869873047" stroke-width="3.0" fill="none" stroke="rgb(2, 2, -2)" stroke-opacity="0.9900001" stroke-linecap="round" stroke-linejoin="round"/>
    <path d="M 177.99530029296875 153.99984741210938 C 181.7613067626953 153.28775024414062 176.3965301513672 156.325927734375 177.84471130371094 157.08758544921875" stroke-width="3.0" fill="none" stroke="rgb(2, 2, 2)" stroke-opacity="0.9900001" stroke-linecap="round" stroke-linejoin="round"/>
    <path d="M 178.99954223632812 185.00010681152344 C 178.0808868408203 187.1335906982422 176.10818481445312 184.39297485351562 177.46768188476562 187.7194366455078" stroke-width="3.0" fill="none" stroke="rgb(2, 2, 2)" stroke-opacity="0.9900001" stroke-linecap="round" stroke-linejoin="round"/>
    <path d="M 108.00054168701172 31.000595092773438 C 113.44557189941406 37.94281005859375 110.17845916748047 32.98593521118164 107.4376449584961 27.85922622680664" stroke-width="3.0" fill="none" stroke="rgb(2, 2, 2)" stroke-opacity="0.99000007" stroke-linecap="round" stroke-linejoin="round"/>
    <path d="M 115.99966430664062 37.9998893737793 C 118.98764038085938 37.84724807739258 120.36731719970703 32.55674743652344 118.08613586425781 37.421451568603516" stroke-width="3.0" fill="none" stroke="rgb(-2, 2, -2)" stroke-opacity="0.99000007" stroke-linecap="round" stroke-linejoin="round"/>
    <path d="M 95.00093841552734 141.00015258789062 C 101.82488250732422 143.81443786621094 97.98387908935547 137.6356201171875 101.50870513916016 137.41949462890625" stroke-width="3.0" fill="none" stroke="rgb(2, 2, 2)" stroke-opacity="0.99000007" stroke-linecap="round" stroke-linejoin="round"/>
    <path d="M 90.99990844726562 49.000335693359375 C 91.63471221923828 43.448631286621094 89.50663757324219 38.6072883605957 85.77978515625 45.6939582824707" stroke-width="3.0" fill="none" stroke="rgb(2, 2, 2)" stroke-opacity="0.9900001" stroke-linecap="round" stroke-linejoin="round"/>
    <path d="M 70.99991607666016 215.997802734375 C 70.52349090576172 217.42889404296875 75.75983428955078 222.130859375 71.4033432006836 218.64483642578125" stroke-width="3.0" fill="none" stroke="rgb(-2, 2, 2)" stroke-opacity="0.9900001" stroke-linecap="round" stroke-linejoin="round"/>
    <path d="M 154.99993896484375 173.99981689453125 C 152.9341583251953 173.4066162109375 158.8070831298828 174.23553466796875 161.88473510742188 171.2666473388672" stroke-width="3.0" fill="none" stroke="rgb(2, 2, -2)" stroke-opacity="0.99000007" stroke-linecap="round" stroke-linejoin="round"/>
    <path d="M 60.000694274902344 179.99978637695312 C 61.31416702270508 181.31771850585938 62.11177062988281 179.55319213867188 64.1416244506836 179.1658172607422" stroke-width="3.0" fill="none" stroke="rgb(2, 2, 2)" stroke-opacity="0.9900001" stroke-linecap="round" stroke-linejoin="round"/>
    <path d="M 114.00009155273438 75.0000991821289 C 111.36820983886719 79.81407165527344 109.47925567626953 76.3167953491211 104.39456939697266 77.5983657836914" stroke-width="3.0" fill="none" stroke="rgb(2, 2, 2)" stroke-opacity="0.99000007" stroke-linecap="round" stroke-linejoin="round"/>
    <path d="M 4.999716758728027 220.99977111816406 C 4.409138202667236 217.9093017578125 7.7358174324035645 211.73631286621094 11.939226150512695 206.76966857910156" stroke-width="3.0" fill="none" stroke="rgb(2, 2, 2)" stroke-opacity="0.99000007" stroke-linecap="round" stroke-linejoin="round"/>
    <path d="M 112.0002212524414 98.99974822998047 C 112.49913787841797 100.72412109375 117.34178924560547 101.51508331298828 114.33103942871094 109.02307891845703" stroke-width="3.0" fill="none" stroke="rgb(2, 2, 2)" stroke-opacity="0.99000007" stroke-linecap="round" stroke-linejoin="round"/>
  </g>
</svg>
