<?xml version="1.0" ?>
<svg xmlns="http://www.w3.org/2000/svg" version="1.1" width="224" height="224">
  <defs/>
  <g>
    <path d="M 92.47140502929688 20.55201530456543 C 137.7165069580078 51.988075256347656 84.29878997802734 -26.934329986572266 112.66100311279297 37.05795669555664" stroke-width="3.0" fill="none" stroke="rgb(3, -1, -2)" stroke-opacity="0.2228874" stroke-linecap="round" stroke-linejoin="round"/>
    <path d="M 48.81422805786133 -3.5708420276641846 C 41.6059684753418 -2.8913187980651855 46.74866485595703 -2.107832670211792 47.3939323425293 -6.429390907287598" stroke-width="3.0" fill="none" stroke="rgb(0, 0, 0)" stroke-opacity="0.5889482" stroke-linecap="round" stroke-linejoin="round"/>
    <path d="M 102.62322235107422 109.70323944091797 C 126.93437957763672 152.6256103515625 65.76124572753906 88.09408569335938 135.73536682128906 93.5318603515625" stroke-width="3.0" fill="none" stroke="rgb(-3, 0, 4)" stroke-opacity="0.23304611" stroke-linecap="round" stroke-linejoin="round"/>
    <path d="M 194.95269775390625 150.8895263671875 C 195.31703186035156 113.47745513916016 192.02015686035156 132.57174682617188 147.37109375 110.63231658935547" stroke-width="3.0" fill="none" stroke="rgb(-2, 2, -2)" stroke-opacity="0.5639848" stroke-linecap="round" stroke-linejoin="round"/>
    <path d="M 141.40628051757812 110.44473266601562 C 121.70722961425781 192.7456512451172 125.66700744628906 41.92243194580078 158.87255859375 141.5023651123047" stroke-width="3.0" fill="none" stroke="rgb(-4, 5, 2)" stroke-opacity="0.22094522" stroke-linecap="round" stroke-linejoin="round"/>
    <path d="M 75.27511596679688 167.9321746826172 C 165.06411743164062 203.6171875 17.470943450927734 192.21392822265625 98.43990325927734 201.6735076904297" stroke-width="3.0" fill="none" stroke="rgb(-1, 0, 1)" stroke-opacity="0.19158909" stroke-linecap="round" stroke-linejoin="round"/>
    <path d="M 81.5505142211914 99.10059356689453 C 41.810585021972656 126.3954086303711 60.77984619140625 235.61495971679688 76.97554016113281 123.5221939086914" stroke-width="3.0" fill="none" stroke="rgb(-1, 1, 1)" stroke-opacity="0.06841191" stroke-linecap="round" stroke-linejoin="round"/>
    <path d="M 134.03123474121094 47.353675842285156 C 23.615829467773438 40.606266021728516 166.0918426513672 49.614933013916016 99.42594146728516 62.719207763671875" stroke-width="3.0" fill="none" stroke="rgb(1, -3, 3)" stroke-opacity="0.16000257" stroke-linecap="round" stroke-linejoin="round"/>
    <path d="M 40.04956817626953 78.68073272705078 C 32.62419509887695 81.45624542236328 30.280921936035156 80.6611557006836 42.422183990478516 80.70140838623047" stroke-width="3.0" fill="none" stroke="rgb(0, 0, 0)" stroke-opacity="-0.0100526735" stroke-linecap="round" stroke-linejoin="round"/>
    <path d="M 177.700927734375 84.95183563232422 C 148.28880310058594 86.24581909179688 51.51047897338867 74.26787567138672 174.16629028320312 82.55708312988281" stroke-width="3.0" fill="none" stroke="rgb(0, 0, 2)" stroke-opacity="0.050933495" stroke-linecap="round" stroke-linejoin="round"/>
    <path d="M 71.9772720336914 132.928955078125 C 83.01497650146484 160.17210388183594 89.14906311035156 147.62892150878906 119.96866607666016 168.2911834716797" stroke-width="3.0" fill="none" stroke="rgb(-2, 0, 2)" stroke-opacity="0.20960146" stroke-linecap="round" stroke-linejoin="round"/>
    <path d="M 175.73660278320312 183.08505249023438 C 135.17184448242188 247.85519409179688 165.0191650390625 182.14337158203125 183.3090057373047 178.9625701904297" stroke-width="3.0" fill="none" stroke="rgb(-3, 3, 2)" stroke-opacity="0.6524524" stroke-linecap="round" stroke-linejoin="round"/>
    <path d="M 18.1336727142334 66.71134948730469 C -8.685540199279785 37.45993423461914 41.60676193237305 77.08586883544922 -0.452192485332489 38.41146469116211" stroke-width="3.0" fill="none" stroke="rgb(-2, 1, 2)" stroke-opacity="0.02896003" stroke-linecap="round" stroke-linejoin="round"/>
    <path d="M 132.06631469726562 149.57305908203125 C 106.38956451416016 178.45457458496094 147.1657257080078 128.25636291503906 141.65093994140625 176.64297485351562" stroke-width="3.0" fill="none" stroke="rgb(-2, 2, 3)" stroke-opacity="0.15616922" stroke-linecap="round" stroke-linejoin="round"/>
    <path d="M 136.3662567138672 73.07506561279297 C -15.97315502166748 70.69208526611328 203.3684539794922 92.72571563720703 114.83255004882812 40.934226989746094" stroke-width="3.0" fill="none" stroke="rgb(0, 2, -2)" stroke-opacity="0.14850529" stroke-linecap="round" stroke-linejoin="round"/>
    <path d="M 186.0836639404297 197.01416015625 C 166.86448669433594 135.46356201171875 210.35203552246094 241.45069885253906 173.5084228515625 167.23680114746094" stroke-width="3.0" fill="none" stroke="rgb(0, 2, -2)" stroke-opacity="0.5476713" stroke-linecap="round" stroke-linejoin="round"/>
    <path d="M 78.49689483642578 113.70796966552734 C 117.60456085205078 129.27951049804688 56.92277145385742 142.8385467529297 90.49213409423828 78.78668212890625" stroke-width="3.0" fill="none" stroke="rgb(-2, 0, 2)" stroke-opacity="0.05258336" stroke-linecap="round" stroke-linejoin="round"/>
    <path d="M 171.18218994140625 89.5317153930664 C 250.1684112548828 114.66691589355469 267.11962890625 125.92354583740234 171.44985961914062 90.71041870117188" stroke-width="3.0" fill="none" stroke="rgb(1, 0, 0)" stroke-opacity="0.013127922" stroke-linecap="round" stroke-linejoin="round"/>
    <path d="M 248.23190307617188 173.7850341796875 C 163.72645568847656 179.28135681152344 193.24948120117188 184.67616271972656 206.8435516357422 236.32366943359375" stroke-width="3.0" fill="none" stroke="rgb(-4, 3, 4)" stroke-opacity="0.21865773" stroke-linecap="round" stroke-linejoin="round"/>
    <path d="M 199.61363220214844 239.41024780273438 C 176.67803955078125 165.79600524902344 166.0853729248047 158.8104248046875 195.20529174804688 233.98886108398438" stroke-width="3.0" fill="none" stroke="rgb(-2, 2, 0)" stroke-opacity="0.6287888" stroke-linecap="round" stroke-linejoin="round"/>
    <path d="M 59.1928596496582 175.67730712890625 C -10.038777351379395 202.09054565429688 20.014720916748047 174.3861083984375 56.02238464355469 169.77877807617188" stroke-width="3.0" fill="none" stroke="rgb(-2, 2, 2)" stroke-opacity="0.509669" stroke-linecap="round" stroke-linejoin="round"/>
    <path d="M 101.35932159423828 215.73220825195312 C 46.706695556640625 195.6856689453125 95.72379302978516 194.94195556640625 85.87187957763672 219.0338134765625" stroke-width="3.0" fill="none" stroke="rgb(1, 3, -2)" stroke-opacity="0.13419984" stroke-linecap="round" stroke-linejoin="round"/>
    <path d="M 232.2734832763672 179.43028259277344 C 95.68244171142578 243.13088989257812 173.4582977294922 192.03089904785156 223.06881713867188 187.96253967285156" stroke-width="3.0" fill="none" stroke="rgb(0, 2, -2)" stroke-opacity="0.40552562" stroke-linecap="round" stroke-linejoin="round"/>
    <path d="M 59.779048919677734 14.178638458251953 C 79.33260345458984 97.0332260131836 93.08943176269531 68.41849517822266 83.26675415039062 87.89408874511719" stroke-width="3.0" fill="none" stroke="rgb(-2, 2, 2)" stroke-opacity="0.16761507" stroke-linecap="round" stroke-linejoin="round"/>
    <path d="M 188.587890625 124.77986145019531 C 209.17393493652344 176.6704559326172 143.9759979248047 112.75322723388672 186.876708984375 179.46383666992188" stroke-width="3.0" fill="none" stroke="rgb(-2, 2, 2)" stroke-opacity="0.5166837" stroke-linecap="round" stroke-linejoin="round"/>
    <path d="M 130.96923828125 0.17958369851112366 C 64.44925689697266 66.65718078613281 71.53962707519531 11.17037296295166 107.3529052734375 19.781585693359375" stroke-width="3.0" fill="none" stroke="rgb(0, 0, 0)" stroke-opacity="0.14502345" stroke-linecap="round" stroke-linejoin="round"/>
    <path d="M 99.14576721191406 14.227548599243164 C 169.7955322265625 26.86223030090332 86.08692932128906 0.8670878410339355 132.7200469970703 26.977285385131836" stroke-width="3.0" fill="none" stroke="rgb(2, -2, 3)" stroke-opacity="0.28811026" stroke-linecap="round" stroke-linejoin="round"/>
    <path d="M 167.85682678222656 64.57849884033203 C 175.0662841796875 92.26720428466797 146.9724578857422 40.04813003540039 168.1504364013672 68.36783599853516" stroke-width="3.0" fill="none" stroke="rgb(-1, 2, -1)" stroke-opacity="0.092891045" stroke-linecap="round" stroke-linejoin="round"/>
    <path d="M 78.95913696289062 45.435420989990234 C 129.49818420410156 67.98188781738281 88.92002868652344 4.640754699707031 88.0498275756836 52.84725570678711" stroke-width="3.0" fill="none" stroke="rgb(2, 0, -3)" stroke-opacity="0.31925452" stroke-linecap="round" stroke-linejoin="round"/>
    <path d="M 114.93385314941406 181.59649658203125 C 130.68650817871094 180.60308837890625 61.93578338623047 201.15220642089844 66.78672790527344 176.7479248046875" stroke-width="3.0" fill="none" stroke="rgb(-2, 0, 3)" stroke-opacity="0.2638682" stroke-linecap="round" stroke-linejoin="round"/>
    <path d="M 134.5128631591797 62.303871154785156 C 154.59481811523438 36.529170989990234 111.6478042602539 3.247372627258301 141.99769592285156 50.25590515136719" stroke-width="3.0" fill="none" stroke="rgb(0, -3, 2)" stroke-opacity="0.18631335" stroke-linecap="round" stroke-linejoin="round"/>
    <path d="M 112.89340209960938 173.27781677246094 C 43.040931701660156 147.33657836914062 72.54473876953125 132.39295959472656 90.66582489013672 153.68531799316406" stroke-width="3.0" fill="none" stroke="rgb(-3, 1, 3)" stroke-opacity="0.16136266" stroke-linecap="round" stroke-linejoin="round"/>
    <path d="M 138.1157684326172 100.94432067871094 C 119.29563903808594 99.89598083496094 118.05270385742188 117.09237670898438 126.94200897216797 102.44918060302734" stroke-width="3.0" fill="none" stroke="rgb(-2, 0, 2)" stroke-opacity="0.36090872" stroke-linecap="round" stroke-linejoin="round"/>
    <path d="M 95.44758605957031 96.83145904541016 C 162.52297973632812 52.399288177490234 151.02525329589844 98.43440246582031 95.77303314208984 106.07630157470703" stroke-width="3.0" fill="none" stroke="rgb(-2, 2, 1)" stroke-opacity="0.12513697" stroke-linecap="round" stroke-linejoin="round"/>
    <path d="M 13.439315795898438 64.17867279052734 C -16.777467727661133 72.27531433105469 38.278839111328125 71.2398681640625 5.043989658355713 52.100128173828125" stroke-width="3.0" fill="none" stroke="rgb(-1, 0, 1)" stroke-opacity="0.017550578" stroke-linecap="round" stroke-linejoin="round"/>
    <path d="M 178.200927734375 186.33975219726562 C 152.23226928710938 269.8289794921875 158.4061279296875 230.26759338378906 175.8579864501953 186.4739532470703" stroke-width="3.0" fill="none" stroke="rgb(-1, 3, -3)" stroke-opacity="0.57315445" stroke-linecap="round" stroke-linejoin="round"/>
    <path d="M 171.7465362548828 164.25657653808594 C 200.50296020507812 108.75579071044922 154.0242462158203 159.6406707763672 185.09339904785156 177.97784423828125" stroke-width="3.0" fill="none" stroke="rgb(-3, 2, 2)" stroke-opacity="0.3812669" stroke-linecap="round" stroke-linejoin="round"/>
    <path d="M 157.40292358398438 235.0906524658203 C 175.9752960205078 154.65658569335938 194.7522735595703 196.70196533203125 179.4253387451172 160.79205322265625" stroke-width="3.0" fill="none" stroke="rgb(-2, 3, 0)" stroke-opacity="0.62360674" stroke-linecap="round" stroke-linejoin="round"/>
    <path d="M 96.68682098388672 15.553156852722168 C 122.75495147705078 61.89467239379883 119.6957778930664 28.170547485351562 65.318603515625 16.98651123046875" stroke-width="3.0" fill="none" stroke="rgb(3, 1, -3)" stroke-opacity="0.17415848" stroke-linecap="round" stroke-linejoin="round"/>
    <path d="M 118.59410095214844 33.90306854248047 C 128.1142120361328 40.1433219909668 123.22904205322266 24.864408493041992 117.25618743896484 33.092918395996094" stroke-width="3.0" fill="none" stroke="rgb(-1, 2, -3)" stroke-opacity="0.74379116" stroke-linecap="round" stroke-linejoin="round"/>
    <path d="M 87.05094146728516 129.918212890625 C 84.41780853271484 129.55052185058594 91.39390563964844 141.5194549560547 123.44149017333984 156.2185516357422" stroke-width="3.0" fill="none" stroke="rgb(-3, 2, 2)" stroke-opacity="0.24076019" stroke-linecap="round" stroke-linejoin="round"/>
    <path d="M 98.70323944091797 41.588340759277344 C 90.971435546875 60.08681869506836 94.68770599365234 17.654827117919922 73.02816009521484 55.85725021362305" stroke-width="3.0" fill="none" stroke="rgb(-1, 1, 0)" stroke-opacity="0.34527805" stroke-linecap="round" stroke-linejoin="round"/>
    <path d="M 76.34285736083984 205.6873016357422 C 59.338069915771484 231.8730010986328 55.459754943847656 245.90545654296875 75.92615509033203 209.4095916748047" stroke-width="3.0" fill="none" stroke="rgb(-2, 2, 0)" stroke-opacity="0.71883327" stroke-linecap="round" stroke-linejoin="round"/>
    <path d="M 137.51109313964844 233.55162048339844 C 140.7528076171875 196.94692993164062 126.51495361328125 191.57562255859375 175.63253784179688 167.74688720703125" stroke-width="3.0" fill="none" stroke="rgb(-2, 2, 1)" stroke-opacity="0.38757658" stroke-linecap="round" stroke-linejoin="round"/>
    <path d="M 4.790228366851807 228.7736358642578 C 19.756362915039062 160.02334594726562 104.80670928955078 191.93905639648438 52.445987701416016 177.95462036132812" stroke-width="3.0" fill="none" stroke="rgb(-2, 2, -1)" stroke-opacity="0.35232484" stroke-linecap="round" stroke-linejoin="round"/>
    <path d="M 76.17977905273438 64.63074493408203 C 126.94478607177734 102.81486511230469 222.2638702392578 77.09811401367188 99.08726501464844 82.81883239746094" stroke-width="3.0" fill="none" stroke="rgb(2, 1, -3)" stroke-opacity="0.100684576" stroke-linecap="round" stroke-linejoin="round"/>
    <path d="M 6.16052770614624 243.49363708496094 C -5.122814178466797 240.2234649658203 -7.70256233215332 205.25259399414062 35.36078643798828 174.1238250732422" stroke-width="3.0" fill="none" stroke="rgb(-2, 2, 2)" stroke-opacity="0.512163" stroke-linecap="round" stroke-linejoin="round"/>
    <path d="M 139.91845703125 126.01422119140625 C 82.1490249633789 159.7519989013672 132.26953125 61.229122161865234 119.339599609375 134.77880859375" stroke-width="3.0" fill="none" stroke="rgb(-2, 1, 2)" stroke-opacity="0.23149659" stroke-linecap="round" stroke-linejoin="round"/>
  </g>
</svg>
