<?xml version="1.0" ?>
<svg xmlns="http://www.w3.org/2000/svg" version="1.1" width="224" height="224">
  <defs/>
  <g>
    <path d="M 161.00009155273438 77.99990844726562 C 158.14309692382812 78.4320297241211 158.96693420410156 79.58147430419922 156.75286865234375 78.93003845214844" stroke-width="3.0" fill="none" stroke="rgb(2, 2, 2)" stroke-opacity="0.99000007" stroke-linecap="round" stroke-linejoin="round"/>
    <path d="M 101.99993133544922 104.99980926513672 C 99.82405090332031 108.0070571899414 100.98583221435547 112.49853515625 100.36112976074219 116.01851654052734" stroke-width="3.0" fill="none" stroke="rgb(2, 2, 2)" stroke-opacity="0.99" stroke-linecap="round" stroke-linejoin="round"/>
    <path d="M 81.99990844726562 79.00008392333984 C 79.25679016113281 76.01260375976562 80.96337127685547 71.87540435791016 83.24940490722656 77.74104309082031" stroke-width="3.0" fill="none" stroke="rgb(2, 2, 2)" stroke-opacity="0.99000007" stroke-linecap="round" stroke-linejoin="round"/>
    <path d="M 217.99989318847656 182.99990844726562 C 213.20509338378906 187.35621643066406 217.989501953125 184.5681610107422 218.8848114013672 186.5809326171875" stroke-width="3.0" fill="none" stroke="rgb(2, 2, 2)" stroke-opacity="0.99000007" stroke-linecap="round" stroke-linejoin="round"/>
    <path d="M 90.99995422363281 80.99995422363281 C 87.16606140136719 81.03081512451172 88.19779968261719 84.38008117675781 89.20563507080078 81.99188232421875" stroke-width="3.0" fill="none" stroke="rgb(2, 2, 2)" stroke-opacity="0.99000007" stroke-linecap="round" stroke-linejoin="round"/>
    <path d="M 107.0041275024414 21.99973487854004 C 109.26016235351562 23.754322052001953 106.6578598022461 26.706249237060547 111.86090850830078 30.88215446472168" stroke-width="3.0" fill="none" stroke="rgb(2, 2, 2)" stroke-opacity="0.99" stroke-linecap="round" stroke-linejoin="round"/>
    <path d="M 89.00006866455078 110.99996185302734 C 93.01029968261719 115.98100280761719 94.4027099609375 114.00130462646484 91.6941909790039 113.21526336669922" stroke-width="3.0" fill="none" stroke="rgb(2, 2, 2)" stroke-opacity="0.99000007" stroke-linecap="round" stroke-linejoin="round"/>
    <path d="M 69.00019073486328 115.99980163574219 C 68.70866394042969 114.68633270263672 66.74549865722656 110.3253402709961 70.01969146728516 109.80018615722656" stroke-width="3.0" fill="none" stroke="rgb(2, 2, 2)" stroke-opacity="0.9900001" stroke-linecap="round" stroke-linejoin="round"/>
    <path d="M 57.000099182128906 149.99493408203125 C 57.439308166503906 143.7525177001953 58.5205078125 144.90367126464844 53.089290618896484 141.73367309570312" stroke-width="3.0" fill="none" stroke="rgb(2, 2, -2)" stroke-opacity="0.99000007" stroke-linecap="round" stroke-linejoin="round"/>
    <path d="M 189.99990844726562 200.00010681152344 C 190.2957763671875 197.90924072265625 194.3066864013672 202.34205627441406 193.10916137695312 199.19406127929688" stroke-width="3.0" fill="none" stroke="rgb(2, 2, 2)" stroke-opacity="0.99" stroke-linecap="round" stroke-linejoin="round"/>
    <path d="M 129.99981689453125 78.99987030029297 C 131.837890625 82.58751678466797 138.39454650878906 85.25613403320312 131.89083862304688 82.36287689208984" stroke-width="3.0" fill="none" stroke="rgb(2, 2, 2)" stroke-opacity="0.99" stroke-linecap="round" stroke-linejoin="round"/>
    <path d="M 208.00021362304688 64.00009155273438 C 213.80067443847656 61.05813980102539 217.98976135253906 56.732608795166016 218.4730987548828 54.249446868896484" stroke-width="3.0" fill="none" stroke="rgb(2, 2, 2)" stroke-opacity="0.99" stroke-linecap="round" stroke-linejoin="round"/>
    <path d="M 88.00153350830078 83.0001220703125 C 90.06993103027344 86.72559356689453 87.84159851074219 89.15275573730469 85.61499786376953 94.68104553222656" stroke-width="3.0" fill="none" stroke="rgb(2, 2, 2)" stroke-opacity="0.99000007" stroke-linecap="round" stroke-linejoin="round"/>
    <path d="M 77.99977111816406 181.0001678466797 C 80.08844757080078 179.43724060058594 77.22020721435547 174.79100036621094 80.39130401611328 170.7673797607422" stroke-width="3.0" fill="none" stroke="rgb(2, 2, 2)" stroke-opacity="0.99" stroke-linecap="round" stroke-linejoin="round"/>
    <path d="M 100.99989318847656 216.00021362304688 C 102.21220397949219 217.18751525878906 106.4129638671875 219.52926635742188 109.76826477050781 216.81686401367188" stroke-width="3.0" fill="none" stroke="rgb(2, 2, 2)" stroke-opacity="0.99" stroke-linecap="round" stroke-linejoin="round"/>
    <path d="M 85.00823211669922 215.9997100830078 C 84.58654022216797 216.10140991210938 87.60802459716797 218.69105529785156 87.92189025878906 216.26358032226562" stroke-width="3.0" fill="none" stroke="rgb(2, 2, -2)" stroke-opacity="0.99000007" stroke-linecap="round" stroke-linejoin="round"/>
    <path d="M 179.99993896484375 42.99985885620117 C 182.98110961914062 44.6782341003418 188.287353515625 48.070281982421875 192.82107543945312 51.756797790527344" stroke-width="3.0" fill="none" stroke="rgb(2, 2, 2)" stroke-opacity="0.99" stroke-linecap="round" stroke-linejoin="round"/>
    <path d="M 69.99957275390625 85.00130462646484 C 65.07428741455078 90.40918731689453 70.6043930053711 87.8392333984375 72.43527221679688 86.90593719482422" stroke-width="3.0" fill="none" stroke="rgb(2, 2, -2)" stroke-opacity="0.99000007" stroke-linecap="round" stroke-linejoin="round"/>
    <path d="M 38.99885559082031 46.999820709228516 C 42.94464874267578 44.34859085083008 43.57373809814453 46.85111999511719 38.426143646240234 45.26402282714844" stroke-width="3.0" fill="none" stroke="rgb(2, 2, -2)" stroke-opacity="0.99000007" stroke-linecap="round" stroke-linejoin="round"/>
    <path d="M 105.99994659423828 68.99982452392578 C 109.63885498046875 64.27050018310547 111.04804992675781 68.44539642333984 116.49783325195312 66.494873046875" stroke-width="3.0" fill="none" stroke="rgb(2, 2, 2)" stroke-opacity="0.99" stroke-linecap="round" stroke-linejoin="round"/>
    <path d="M 198.99974060058594 5.00251579284668 C 192.4766845703125 1.8957901000976562 193.6587371826172 3.958075523376465 196.2157745361328 3.276977777481079" stroke-width="3.0" fill="none" stroke="rgb(2, 2, 2)" stroke-opacity="0.99000007" stroke-linecap="round" stroke-linejoin="round"/>
    <path d="M 55.99962615966797 31.999805450439453 C 58.79324722290039 34.59846878051758 54.68433380126953 36.103275299072266 56.66832733154297 39.35579299926758" stroke-width="3.0" fill="none" stroke="rgb(2, 2, 2)" stroke-opacity="0.99000007" stroke-linecap="round" stroke-linejoin="round"/>
    <path d="M 159.99942016601562 71.0002212524414 C 156.1371307373047 68.88436126708984 153.24478149414062 70.31096649169922 149.2004852294922 73.55293273925781" stroke-width="3.0" fill="none" stroke="rgb(2, 2, 2)" stroke-opacity="0.99000007" stroke-linecap="round" stroke-linejoin="round"/>
    <path d="M 19.000062942504883 67.00016021728516 C 14.433145523071289 68.2637939453125 16.217758178710938 67.0923843383789 17.251806259155273 63.55339050292969" stroke-width="3.0" fill="none" stroke="rgb(2, 2, 2)" stroke-opacity="0.99" stroke-linecap="round" stroke-linejoin="round"/>
    <path d="M 43.00093460083008 48.99985122680664 C 46.77967071533203 48.73203659057617 43.85201644897461 51.22163009643555 46.24485778808594 48.111026763916016" stroke-width="3.0" fill="none" stroke="rgb(2, 2, -2)" stroke-opacity="0.99000007" stroke-linecap="round" stroke-linejoin="round"/>
    <path d="M 201.0001678466797 41.00014877319336 C 197.2352752685547 40.20154571533203 196.55543518066406 36.22694778442383 199.6157989501953 37.373661041259766" stroke-width="3.0" fill="none" stroke="rgb(2, 2, 2)" stroke-opacity="0.99" stroke-linecap="round" stroke-linejoin="round"/>
    <path d="M 47.99986267089844 144.99981689453125 C 50.31045913696289 147.44813537597656 47.471580505371094 151.2186737060547 48.5595588684082 149.14224243164062" stroke-width="3.0" fill="none" stroke="rgb(2, 2, 2)" stroke-opacity="0.99" stroke-linecap="round" stroke-linejoin="round"/>
    <path d="M 4.999379634857178 49.00037384033203 C 8.092020034790039 49.619895935058594 4.941356658935547 50.24853515625 6.856521129608154 45.819053649902344" stroke-width="3.0" fill="none" stroke="rgb(2, 2, -2)" stroke-opacity="0.99000007" stroke-linecap="round" stroke-linejoin="round"/>
    <path d="M 173.00010681152344 130.9997100830078 C 170.70706176757812 132.45330810546875 165.71673583984375 135.09230041503906 170.11395263671875 133.5287628173828" stroke-width="3.0" fill="none" stroke="rgb(2, 2, 2)" stroke-opacity="0.99" stroke-linecap="round" stroke-linejoin="round"/>
    <path d="M 158.99383544921875 67.00465393066406 C 163.26901245117188 71.19924926757812 157.45401000976562 67.55619049072266 154.0415496826172 67.07785034179688" stroke-width="3.0" fill="none" stroke="rgb(2, 2, 2)" stroke-opacity="0.99000007" stroke-linecap="round" stroke-linejoin="round"/>
    <path d="M 130.00015258789062 158.99990844726562 C 125.21031188964844 158.92938232421875 121.42669677734375 158.42564392089844 118.09967041015625 158.64183044433594" stroke-width="3.0" fill="none" stroke="rgb(2, 2, 2)" stroke-opacity="0.99" stroke-linecap="round" stroke-linejoin="round"/>
    <path d="M 74.99357604980469 32.994327545166016 C 74.16889953613281 36.799049377441406 77.08170318603516 31.614229202270508 78.78870391845703 30.29517364501953" stroke-width="3.0" fill="none" stroke="rgb(2, 2, 2)" stroke-opacity="0.9900001" stroke-linecap="round" stroke-linejoin="round"/>
    <path d="M 75.99960327148438 29.00046157836914 C 68.7638168334961 30.747426986694336 72.22186279296875 28.50010871887207 71.66972351074219 28.150362014770508" stroke-width="3.0" fill="none" stroke="rgb(2, -2, 2)" stroke-opacity="0.9900012" stroke-linecap="round" stroke-linejoin="round"/>
    <path d="M 91.99983215332031 123.00017547607422 C 90.800048828125 123.33631134033203 91.81056213378906 123.39688110351562 99.08734130859375 121.28282928466797" stroke-width="3.0" fill="none" stroke="rgb(2, 2, 2)" stroke-opacity="0.99000007" stroke-linecap="round" stroke-linejoin="round"/>
    <path d="M 163.0001220703125 184.99986267089844 C 160.6949005126953 183.20050048828125 164.59506225585938 186.74256896972656 159.88800048828125 188.9437255859375" stroke-width="3.0" fill="none" stroke="rgb(2, 2, 2)" stroke-opacity="0.99000007" stroke-linecap="round" stroke-linejoin="round"/>
    <path d="M 86.99993133544922 26.000568389892578 C 85.82662200927734 21.11334228515625 81.28523254394531 23.422786712646484 82.67601776123047 21.520305633544922" stroke-width="3.0" fill="none" stroke="rgb(2, 2, -2)" stroke-opacity="0.99000007" stroke-linecap="round" stroke-linejoin="round"/>
    <path d="M 69.00007629394531 15.999969482421875 C 66.90326690673828 12.387995719909668 64.32220458984375 17.19925308227539 64.50125885009766 20.20106315612793" stroke-width="3.0" fill="none" stroke="rgb(2, 2, 2)" stroke-opacity="0.99000007" stroke-linecap="round" stroke-linejoin="round"/>
    <path d="M 137.0001220703125 202.99948120117188 C 135.6372528076172 202.0157012939453 130.34535217285156 205.10350036621094 133.9921112060547 206.28526306152344" stroke-width="3.0" fill="none" stroke="rgb(2, 2, 2)" stroke-opacity="0.99" stroke-linecap="round" stroke-linejoin="round"/>
    <path d="M 65.00037384033203 23.99811553955078 C 65.32808685302734 17.46354866027832 58.259639739990234 17.86309242248535 59.75014114379883 22.636838912963867" stroke-width="3.0" fill="none" stroke="rgb(2, 2, -2)" stroke-opacity="0.99000007" stroke-linecap="round" stroke-linejoin="round"/>
    <path d="M 31.000173568725586 45.99993896484375 C 34.05465316772461 47.373172760009766 28.533252716064453 48.80674743652344 32.0308837890625 48.632301330566406" stroke-width="3.0" fill="none" stroke="rgb(2, 2, 2)" stroke-opacity="0.99000007" stroke-linecap="round" stroke-linejoin="round"/>
    <path d="M 167.00045776367188 199.99990844726562 C 163.5182342529297 198.25131225585938 164.16551208496094 199.09402465820312 164.8970489501953 197.99244689941406" stroke-width="3.0" fill="none" stroke="rgb(2, 2, 2)" stroke-opacity="0.99000007" stroke-linecap="round" stroke-linejoin="round"/>
    <path d="M 17.000144958496094 158.00018310546875 C 17.132728576660156 161.75494384765625 19.524436950683594 160.86024475097656 17.411333084106445 163.49908447265625" stroke-width="3.0" fill="none" stroke="rgb(2, 2, 2)" stroke-opacity="0.9900001" stroke-linecap="round" stroke-linejoin="round"/>
    <path d="M 90.99894714355469 62.000083923339844 C 93.25379180908203 63.879642486572266 95.04519653320312 60.545772552490234 91.47753143310547 62.07990646362305" stroke-width="3.0" fill="none" stroke="rgb(2, 2, 2)" stroke-opacity="0.99000007" stroke-linecap="round" stroke-linejoin="round"/>
    <path d="M 223.99960327148438 210.00035095214844 C 222.74871826171875 207.98147583007812 220.512939453125 205.404052734375 220.89324951171875 210.7297821044922" stroke-width="3.0" fill="none" stroke="rgb(2, 2, 2)" stroke-opacity="0.9900001" stroke-linecap="round" stroke-linejoin="round"/>
    <path d="M 70.0023193359375 104.00061798095703 C 72.87957000732422 100.77783203125 77.2760238647461 103.34140014648438 73.51546478271484 105.52900695800781" stroke-width="3.0" fill="none" stroke="rgb(2, 2, 2)" stroke-opacity="0.99000007" stroke-linecap="round" stroke-linejoin="round"/>
    <path d="M 136.0001678466797 14.999872207641602 C 134.0571746826172 12.789965629577637 138.15948486328125 12.288472175598145 137.72023010253906 16.817106246948242" stroke-width="3.0" fill="none" stroke="rgb(2, 2, 2)" stroke-opacity="0.99000007" stroke-linecap="round" stroke-linejoin="round"/>
    <path d="M 6.999812602996826 130.99993896484375 C 12.385963439941406 129.26473999023438 17.360734939575195 130.749267578125 18.895505905151367 132.619873046875" stroke-width="3.0" fill="none" stroke="rgb(2, 2, -2)" stroke-opacity="0.99" stroke-linecap="round" stroke-linejoin="round"/>
    <path d="M 75.99992370605469 96.00025939941406 C 79.41863250732422 96.79756164550781 73.8372802734375 100.83255004882812 79.01026916503906 98.9149169921875" stroke-width="3.0" fill="none" stroke="rgb(2, 2, 2)" stroke-opacity="0.99000007" stroke-linecap="round" stroke-linejoin="round"/>
    <path d="M 17.999868392944336 106.99986267089844 C 17.152040481567383 106.6170883178711 21.04619789123535 101.78650665283203 18.891523361206055 100.10840606689453" stroke-width="3.0" fill="none" stroke="rgb(2, 2, 2)" stroke-opacity="0.99000007" stroke-linecap="round" stroke-linejoin="round"/>
    <path d="M 75.99990844726562 221.9998779296875 C 71.71907043457031 225.0930938720703 64.78582000732422 222.8506622314453 63.60956954956055 225.23428344726562" stroke-width="3.0" fill="none" stroke="rgb(2, 2, 2)" stroke-opacity="0.99000007" stroke-linecap="round" stroke-linejoin="round"/>
    <path d="M 74.99983978271484 28.00019645690918 C 73.17675018310547 25.857927322387695 69.45231628417969 21.34908103942871 70.89138793945312 27.713088989257812" stroke-width="3.0" fill="none" stroke="rgb(-2, 2, 2)" stroke-opacity="0.99000055" stroke-linecap="round" stroke-linejoin="round"/>
    <path d="M 86.00090026855469 120.9998550415039 C 86.60162353515625 122.72100830078125 86.92302703857422 119.72415161132812 84.65763092041016 121.78595733642578" stroke-width="3.0" fill="none" stroke="rgb(2, 2, 2)" stroke-opacity="0.99000007" stroke-linecap="round" stroke-linejoin="round"/>
    <path d="M 97.00015258789062 79.00022888183594 C 96.96054077148438 82.35922241210938 96.22019958496094 77.87097930908203 89.97620391845703 82.62337493896484" stroke-width="3.0" fill="none" stroke="rgb(2, 2, 2)" stroke-opacity="0.99000007" stroke-linecap="round" stroke-linejoin="round"/>
    <path d="M 101.00033569335938 47.99964904785156 C 102.9185791015625 42.1148681640625 105.50062561035156 37.36438751220703 108.64424133300781 34.150569915771484" stroke-width="3.0" fill="none" stroke="rgb(2, 2, 2)" stroke-opacity="0.99" stroke-linecap="round" stroke-linejoin="round"/>
    <path d="M 206.99993896484375 126.00033569335938 C 203.5555877685547 123.96565246582031 206.42440795898438 123.92200469970703 211.6348419189453 127.09394073486328" stroke-width="3.0" fill="none" stroke="rgb(2, 2, 2)" stroke-opacity="0.99" stroke-linecap="round" stroke-linejoin="round"/>
    <path d="M 62.9996223449707 121.0001449584961 C 66.00404357910156 116.52535247802734 64.90347290039062 117.71305084228516 67.95026397705078 113.75444030761719" stroke-width="3.0" fill="none" stroke="rgb(2, 2, 2)" stroke-opacity="0.99000007" stroke-linecap="round" stroke-linejoin="round"/>
    <path d="M 157.9998016357422 176.9998016357422 C 157.46580505371094 174.63987731933594 155.43606567382812 176.7611083984375 153.22344970703125 176.55848693847656" stroke-width="3.0" fill="none" stroke="rgb(2, 2, 2)" stroke-opacity="0.99000007" stroke-linecap="round" stroke-linejoin="round"/>
    <path d="M 156.99977111816406 179.9998016357422 C 159.60842895507812 179.02183532714844 163.27203369140625 179.3828582763672 159.04185485839844 178.38880920410156" stroke-width="3.0" fill="none" stroke="rgb(2, 2, 2)" stroke-opacity="0.99000007" stroke-linecap="round" stroke-linejoin="round"/>
    <path d="M 6.999897003173828 103.00015258789062 C 10.399436950683594 106.61564636230469 13.426797866821289 105.88187408447266 12.754404067993164 109.81733703613281" stroke-width="3.0" fill="none" stroke="rgb(2, 2, -2)" stroke-opacity="0.99000007" stroke-linecap="round" stroke-linejoin="round"/>
    <path d="M 83.00038146972656 58.99994659423828 C 87.99566650390625 58.63558578491211 83.95809936523438 54.923187255859375 87.9968490600586 52.936790466308594" stroke-width="3.0" fill="none" stroke="rgb(2, 2, 2)" stroke-opacity="0.99000007" stroke-linecap="round" stroke-linejoin="round"/>
    <path d="M 77.0000991821289 94.00123596191406 C 80.35972595214844 96.18001556396484 85.40904235839844 98.33626556396484 80.81218719482422 92.7869873046875" stroke-width="3.0" fill="none" stroke="rgb(2, 2, 2)" stroke-opacity="0.99000007" stroke-linecap="round" stroke-linejoin="round"/>
    <path d="M 80.99966430664062 67.99982452392578 C 82.14549255371094 61.06452178955078 87.52257537841797 62.91908264160156 89.49311065673828 56.36878967285156" stroke-width="3.0" fill="none" stroke="rgb(2, 2, 2)" stroke-opacity="0.99" stroke-linecap="round" stroke-linejoin="round"/>
    <path d="M 23.000118255615234 47.00010299682617 C 20.29213523864746 44.92192840576172 22.283977508544922 47.15507125854492 19.331085205078125 47.706817626953125" stroke-width="3.0" fill="none" stroke="rgb(2, 2, -2)" stroke-opacity="0.99000007" stroke-linecap="round" stroke-linejoin="round"/>
    <path d="M 37.999969482421875 101.99862670898438 C 39.39596939086914 96.60079193115234 42.032371520996094 92.3587875366211 43.27164077758789 92.26534271240234" stroke-width="3.0" fill="none" stroke="rgb(2, 2, 2)" stroke-opacity="0.99" stroke-linecap="round" stroke-linejoin="round"/>
    <path d="M 132.99990844726562 119.00003814697266 C 137.7161865234375 120.87598419189453 138.58868408203125 115.40618896484375 138.58753967285156 113.0019302368164" stroke-width="3.0" fill="none" stroke="rgb(2, 2, 2)" stroke-opacity="0.99" stroke-linecap="round" stroke-linejoin="round"/>
    <path d="M 21.999927520751953 109.99944305419922 C 21.666757583618164 104.35066223144531 20.982776641845703 100.3823471069336 19.70189094543457 104.7845230102539" stroke-width="3.0" fill="none" stroke="rgb(2, 2, 2)" stroke-opacity="0.9900001" stroke-linecap="round" stroke-linejoin="round"/>
    <path d="M 215.9999237060547 211.99981689453125 C 221.3107147216797 208.2044219970703 224.80433654785156 205.4029998779297 222.57876586914062 210.81637573242188" stroke-width="3.0" fill="none" stroke="rgb(2, 2, -2)" stroke-opacity="0.99000007" stroke-linecap="round" stroke-linejoin="round"/>
    <path d="M 102.9999008178711 50.998992919921875 C 102.43807983398438 53.84329605102539 104.93721008300781 54.375213623046875 100.4137191772461 59.20818328857422" stroke-width="3.0" fill="none" stroke="rgb(2, 2, 2)" stroke-opacity="0.9900002" stroke-linecap="round" stroke-linejoin="round"/>
    <path d="M 82.00015258789062 68.00011444091797 C 80.89278411865234 68.97572326660156 80.70134735107422 71.92308044433594 81.44698333740234 72.79283142089844" stroke-width="3.0" fill="none" stroke="rgb(2, 2, 2)" stroke-opacity="0.99000007" stroke-linecap="round" stroke-linejoin="round"/>
    <path d="M 40.000343322753906 122.99913024902344 C 42.043819427490234 121.5169448852539 38.81714630126953 124.20752716064453 38.69001007080078 121.33812713623047" stroke-width="3.0" fill="none" stroke="rgb(2, 2, -2)" stroke-opacity="0.99000007" stroke-linecap="round" stroke-linejoin="round"/>
    <path d="M 17.999422073364258 110.0005111694336 C 15.840288162231445 112.89913940429688 11.08767318725586 112.79328918457031 13.969085693359375 116.12754821777344" stroke-width="3.0" fill="none" stroke="rgb(2, 2, 2)" stroke-opacity="0.99000007" stroke-linecap="round" stroke-linejoin="round"/>
    <path d="M 64.99959564208984 0.9997811317443848 C 60.784400939941406 -0.662482500076294 63.070003509521484 1.773699164390564 57.732177734375 -1.8575068712234497" stroke-width="3.0" fill="none" stroke="rgb(2, 2, 2)" stroke-opacity="0.9900002" stroke-linecap="round" stroke-linejoin="round"/>
    <path d="M 100.99908447265625 52.000205993652344 C 98.7353744506836 58.487918853759766 101.09208679199219 62.37254333496094 97.64659118652344 64.58422088623047" stroke-width="3.0" fill="none" stroke="rgb(2, 2, 2)" stroke-opacity="0.99000007" stroke-linecap="round" stroke-linejoin="round"/>
    <path d="M 129.00006103515625 45.999900817871094 C 127.09921264648438 44.33243942260742 130.82115173339844 45.521881103515625 129.9336395263672 45.5982551574707" stroke-width="3.0" fill="none" stroke="rgb(2, 2, 2)" stroke-opacity="0.99000007" stroke-linecap="round" stroke-linejoin="round"/>
    <path d="M 101.99991607666016 174.99957275390625 C 104.91949462890625 179.3846435546875 104.63282775878906 172.35195922851562 106.88925170898438 170.98822021484375" stroke-width="3.0" fill="none" stroke="rgb(2, 2, 2)" stroke-opacity="0.99" stroke-linecap="round" stroke-linejoin="round"/>
    <path d="M 41.99991989135742 177.0000457763672 C 40.24845886230469 171.58245849609375 44.05034637451172 173.17152404785156 41.424625396728516 175.2748260498047" stroke-width="3.0" fill="none" stroke="rgb(2, 2, 2)" stroke-opacity="0.99000007" stroke-linecap="round" stroke-linejoin="round"/>
    <path d="M 171.00010681152344 47.00004577636719 C 170.09640502929688 43.96742630004883 171.19857788085938 38.428733825683594 168.2664337158203 34.43882751464844" stroke-width="3.0" fill="none" stroke="rgb(2, 2, 2)" stroke-opacity="0.99" stroke-linecap="round" stroke-linejoin="round"/>
    <path d="M 59.92628860473633 21.999473571777344 C 61.92506408691406 17.68642807006836 66.54320526123047 16.533145904541016 68.47212982177734 17.738216400146484" stroke-width="3.0" fill="none" stroke="rgb(2, 2, 2)" stroke-opacity="0.99000007" stroke-linecap="round" stroke-linejoin="round"/>
    <path d="M 31.999937057495117 38.00008773803711 C 34.134822845458984 36.2977180480957 29.210224151611328 40.474761962890625 34.108253479003906 37.500701904296875" stroke-width="3.0" fill="none" stroke="rgb(2, 2, 2)" stroke-opacity="0.99000007" stroke-linecap="round" stroke-linejoin="round"/>
    <path d="M 73.00031280517578 34.99978256225586 C 73.4501953125 27.576377868652344 78.62332153320312 32.97735595703125 77.77143096923828 38.98121643066406" stroke-width="3.0" fill="none" stroke="rgb(2, 2, 2)" stroke-opacity="0.99000025" stroke-linecap="round" stroke-linejoin="round"/>
    <path d="M 163.9999542236328 43.99992752075195 C 169.3251190185547 40.76872253417969 171.2901153564453 45.11380386352539 167.39627075195312 41.9864387512207" stroke-width="3.0" fill="none" stroke="rgb(2, 2, 2)" stroke-opacity="0.99000007" stroke-linecap="round" stroke-linejoin="round"/>
    <path d="M 92.0006103515625 43.999794006347656 C 99.04299926757812 45.09779357910156 98.93801879882812 50.35824203491211 103.37130737304688 48.22755813598633" stroke-width="3.0" fill="none" stroke="rgb(2, 2, 2)" stroke-opacity="0.99000007" stroke-linecap="round" stroke-linejoin="round"/>
    <path d="M 175.00039672851562 82.98729705810547 C 169.84788513183594 82.863037109375 166.80101013183594 83.22335052490234 171.02389526367188 85.33551025390625" stroke-width="3.0" fill="none" stroke="rgb(2, 2, 2)" stroke-opacity="0.99" stroke-linecap="round" stroke-linejoin="round"/>
    <path d="M 83.9996566772461 55.00066375732422 C 85.23371887207031 53.70487976074219 80.57778930664062 52.349998474121094 78.99735260009766 53.01097869873047" stroke-width="3.0" fill="none" stroke="rgb(2, 2, 2)" stroke-opacity="0.99000007" stroke-linecap="round" stroke-linejoin="round"/>
    <path d="M 70.99989318847656 103.99972534179688 C 68.61865997314453 108.18223571777344 70.72760009765625 111.27410888671875 73.35354614257812 105.96586608886719" stroke-width="3.0" fill="none" stroke="rgb(2, 2, 2)" stroke-opacity="0.99000007" stroke-linecap="round" stroke-linejoin="round"/>
    <path d="M 217.0000762939453 62.00004959106445 C 218.2988739013672 56.6520881652832 220.14453125 57.90335464477539 225.65435791015625 54.0711555480957" stroke-width="3.0" fill="none" stroke="rgb(2, 2, 2)" stroke-opacity="0.99" stroke-linecap="round" stroke-linejoin="round"/>
    <path d="M 85.00006866455078 164.99993896484375 C 86.02255249023438 162.82830810546875 83.21544647216797 160.76535034179688 80.91320037841797 165.3341522216797" stroke-width="3.0" fill="none" stroke="rgb(2, 2, -2)" stroke-opacity="0.99" stroke-linecap="round" stroke-linejoin="round"/>
    <path d="M 79.00004577636719 209.00022888183594 C 75.91024017333984 213.1544952392578 71.56484985351562 217.391357421875 77.56604766845703 220.050048828125" stroke-width="3.0" fill="none" stroke="rgb(2, 2, 2)" stroke-opacity="0.99" stroke-linecap="round" stroke-linejoin="round"/>
    <path d="M 145.99928283691406 73.99991607666016 C 151.5476531982422 72.33855438232422 153.03378295898438 72.32343292236328 157.99459838867188 76.10542297363281" stroke-width="3.0" fill="none" stroke="rgb(2, 2, 2)" stroke-opacity="0.99000007" stroke-linecap="round" stroke-linejoin="round"/>
    <path d="M 100.99974060058594 10.9998197555542 C 101.87699127197266 12.301264762878418 109.14964294433594 11.222015380859375 109.93685913085938 13.619321823120117" stroke-width="3.0" fill="none" stroke="rgb(2, 2, 2)" stroke-opacity="0.99" stroke-linecap="round" stroke-linejoin="round"/>
    <path d="M 212.00006103515625 42.00029373168945 C 213.08486938476562 37.362369537353516 211.2871551513672 33.39746856689453 212.74842834472656 29.800504684448242" stroke-width="3.0" fill="none" stroke="rgb(2, 2, 2)" stroke-opacity="0.99" stroke-linecap="round" stroke-linejoin="round"/>
    <path d="M 57.99973678588867 20.00046157836914 C 57.9096794128418 18.7631778717041 58.437477111816406 21.912738800048828 58.775001525878906 21.879377365112305" stroke-width="3.0" fill="none" stroke="rgb(2, 2, 2)" stroke-opacity="0.9900002" stroke-linecap="round" stroke-linejoin="round"/>
    <path d="M 23.999908447265625 64.99696350097656 C 25.140483856201172 60.25818634033203 25.613323211669922 63.997737884521484 22.429046630859375 62.821502685546875" stroke-width="3.0" fill="none" stroke="rgb(2, 2, 2)" stroke-opacity="0.9900001" stroke-linecap="round" stroke-linejoin="round"/>
    <path d="M 209.000244140625 118.99989318847656 C 208.8756103515625 122.7774887084961 205.23342895507812 120.5439453125 207.08314514160156 123.1021957397461" stroke-width="3.0" fill="none" stroke="rgb(2, 2, 2)" stroke-opacity="0.99000007" stroke-linecap="round" stroke-linejoin="round"/>
    <path d="M 83.00006866455078 91.00010681152344 C 88.19782257080078 90.63924407958984 94.5492172241211 88.88407897949219 96.79735565185547 87.59410858154297" stroke-width="3.0" fill="none" stroke="rgb(2, 2, 2)" stroke-opacity="0.99" stroke-linecap="round" stroke-linejoin="round"/>
    <path d="M 53.99995422363281 44.999847412109375 C 53.15186309814453 47.501197814941406 53.595787048339844 49.68210220336914 55.43400192260742 47.26030349731445" stroke-width="3.0" fill="none" stroke="rgb(2, 2, -2)" stroke-opacity="0.99000007" stroke-linecap="round" stroke-linejoin="round"/>
  </g>
</svg>
