<?xml version="1.0" ?>
<svg xmlns="http://www.w3.org/2000/svg" version="1.1" width="224" height="224">
  <defs/>
  <g>
    <path d="M 157.35455322265625 77.47437286376953 C 156.4131622314453 75.5097427368164 171.04873657226562 76.23652648925781 157.10366821289062 74.6438980102539" stroke-width="3.0" fill="none" stroke="rgb(1, 0, 2)" stroke-opacity="0.30332434" stroke-linecap="round" stroke-linejoin="round"/>
    <path d="M 101.89546203613281 105.05998992919922 C 101.72566223144531 109.50747680664062 102.2513198852539 107.9057846069336 101.16952514648438 110.11943054199219" stroke-width="3.0" fill="none" stroke="rgb(-1, 0, 2)" stroke-opacity="0.3747951" stroke-linecap="round" stroke-linejoin="round"/>
    <path d="M 79.19132995605469 78.28495025634766 C 88.82691955566406 95.80818176269531 74.37013244628906 97.96275329589844 77.73440551757812 75.0946273803711" stroke-width="3.0" fill="none" stroke="rgb(-3, 0, 2)" stroke-opacity="0.3000756" stroke-linecap="round" stroke-linejoin="round"/>
    <path d="M 221.8340606689453 177.9413299560547 C 222.72532653808594 178.08993530273438 231.70135498046875 179.44337463378906 229.392333984375 173.9200439453125" stroke-width="3.0" fill="none" stroke="rgb(0, 0, 1)" stroke-opacity="0.45221084" stroke-linecap="round" stroke-linejoin="round"/>
    <path d="M 92.79625701904297 82.64103698730469 C 83.26057434082031 84.09693145751953 85.88099670410156 70.17029571533203 91.56769561767578 81.21043395996094" stroke-width="3.0" fill="none" stroke="rgb(2, 0, -1)" stroke-opacity="0.079876006" stroke-linecap="round" stroke-linejoin="round"/>
    <path d="M 114.7764663696289 24.55339241027832 C 115.91802215576172 24.3072566986084 113.6576919555664 24.543071746826172 115.19701385498047 23.978801727294922" stroke-width="3.0" fill="none" stroke="rgb(-1, 0, 1)" stroke-opacity="0.30807844" stroke-linecap="round" stroke-linejoin="round"/>
    <path d="M 90.68743133544922 108.61468505859375 C 90.99970245361328 108.70343780517578 90.46356964111328 108.62761688232422 90.2552261352539 108.5423583984375" stroke-width="3.0" fill="none" stroke="rgb(0, 0, 0)" stroke-opacity="0.26240873" stroke-linecap="round" stroke-linejoin="round"/>
    <path d="M 58.743865966796875 119.14220428466797 C 64.42718505859375 113.76543426513672 67.56985473632812 113.70708465576172 64.9776840209961 114.64397430419922" stroke-width="3.0" fill="none" stroke="rgb(0, 0, 0)" stroke-opacity="0.3038968" stroke-linecap="round" stroke-linejoin="round"/>
    <path d="M 54.231834411621094 176.48873901367188 C 73.09956359863281 153.30580139160156 64.42931365966797 143.66445922851562 52.025146484375 133.2849884033203" stroke-width="3.0" fill="none" stroke="rgb(-1, 0, 4)" stroke-opacity="0.32854524" stroke-linecap="round" stroke-linejoin="round"/>
    <path d="M 185.9716796875 193.112060546875 C 186.25279235839844 192.0535888671875 187.79989624023438 194.06138610839844 187.38868713378906 193.72560119628906" stroke-width="3.0" fill="none" stroke="rgb(1, 0, -2)" stroke-opacity="0.16871306" stroke-linecap="round" stroke-linejoin="round"/>
    <path d="M 148.9456329345703 79.6107177734375 C 116.44254302978516 81.31541442871094 147.13522338867188 72.69788360595703 128.95407104492188 80.25149536132812" stroke-width="3.0" fill="none" stroke="rgb(-3, 1, 1)" stroke-opacity="0.23109195" stroke-linecap="round" stroke-linejoin="round"/>
    <path d="M 212.7174530029297 64.2847900390625 C 218.51966857910156 62.557769775390625 219.0026397705078 66.42493438720703 215.44029235839844 63.54556655883789" stroke-width="3.0" fill="none" stroke="rgb(0, 1, 0)" stroke-opacity="0.23703194" stroke-linecap="round" stroke-linejoin="round"/>
    <path d="M 89.73942565917969 74.92113494873047 C 85.64517211914062 83.9567642211914 87.6126937866211 104.31117248535156 75.22480773925781 94.55522918701172" stroke-width="3.0" fill="none" stroke="rgb(2, 0, -3)" stroke-opacity="0.21249084" stroke-linecap="round" stroke-linejoin="round"/>
    <path d="M 89.92250061035156 178.87197875976562 C 85.32987976074219 176.96852111816406 73.60430908203125 179.27207946777344 92.99535369873047 183.00833129882812" stroke-width="3.0" fill="none" stroke="rgb(2, -2, 0)" stroke-opacity="0.34890702" stroke-linecap="round" stroke-linejoin="round"/>
    <path d="M 96.16777801513672 216.41127014160156 C 96.39669799804688 216.1280975341797 95.75140380859375 216.6451873779297 96.1482925415039 216.48739624023438" stroke-width="3.0" fill="none" stroke="rgb(-1, 1, 0)" stroke-opacity="0.3479829" stroke-linecap="round" stroke-linejoin="round"/>
    <path d="M 84.7435073852539 224.16827392578125 C 85.68587493896484 225.17926025390625 88.91932678222656 224.912109375 89.54351806640625 224.21240234375" stroke-width="3.0" fill="none" stroke="rgb(0, 0, 1)" stroke-opacity="0.13732147" stroke-linecap="round" stroke-linejoin="round"/>
    <path d="M 190.28074645996094 49.85751724243164 C 189.59571838378906 49.914608001708984 191.45468139648438 49.86423110961914 190.4298095703125 49.9658317565918" stroke-width="3.0" fill="none" stroke="rgb(0, 0, 0)" stroke-opacity="0.4539726" stroke-linecap="round" stroke-linejoin="round"/>
    <path d="M 70.67317962646484 81.7115249633789 C 64.97096252441406 91.00850677490234 87.8857192993164 88.39754486083984 77.84368896484375 86.01133728027344" stroke-width="3.0" fill="none" stroke="rgb(1, -4, 4)" stroke-opacity="0.59078467" stroke-linecap="round" stroke-linejoin="round"/>
    <path d="M 51.94010543823242 51.67024612426758 C 42.34305953979492 51.71461868286133 46.377769470214844 52.400001525878906 51.10320281982422 52.735591888427734" stroke-width="3.0" fill="none" stroke="rgb(0, 0, 1)" stroke-opacity="0.23200227" stroke-linecap="round" stroke-linejoin="round"/>
    <path d="M 120.38528442382812 76.888427734375 C 121.85806274414062 79.44212341308594 108.13008880615234 81.09953308105469 127.93832397460938 79.35501098632812" stroke-width="3.0" fill="none" stroke="rgb(0, 1, 1)" stroke-opacity="0.40688628" stroke-linecap="round" stroke-linejoin="round"/>
    <path d="M 197.15567016601562 -5.030888080596924 C 192.92457580566406 -5.1109232902526855 201.67645263671875 -5.929497718811035 201.03302001953125 -5.256062030792236" stroke-width="3.0" fill="none" stroke="rgb(0, 0, 0)" stroke-opacity="0.72774804" stroke-linecap="round" stroke-linejoin="round"/>
    <path d="M 62.13525390625 36.45984649658203 C 59.54246139526367 35.43085861206055 51.814884185791016 38.28714370727539 59.4981803894043 35.79945373535156" stroke-width="3.0" fill="none" stroke="rgb(0, 0, 0)" stroke-opacity="0.22355238" stroke-linecap="round" stroke-linejoin="round"/>
    <path d="M 158.8964080810547 71.61447143554688 C 148.6418914794922 75.97611999511719 151.0819091796875 82.49945068359375 149.47659301757812 73.02880096435547" stroke-width="3.0" fill="none" stroke="rgb(0, 0, 1)" stroke-opacity="0.19100145" stroke-linecap="round" stroke-linejoin="round"/>
    <path d="M 18.288516998291016 74.58248901367188 C 20.18472671508789 69.5993423461914 13.429387092590332 84.17814636230469 19.96290397644043 100.08637237548828" stroke-width="3.0" fill="none" stroke="rgb(0, 0, 0)" stroke-opacity="0.1382398" stroke-linecap="round" stroke-linejoin="round"/>
    <path d="M 37.219478607177734 50.23453140258789 C 46.347984313964844 51.725807189941406 43.798484802246094 50.889705657958984 39.865047454833984 50.67428207397461" stroke-width="3.0" fill="none" stroke="rgb(1, 0, 1)" stroke-opacity="0.21467492" stroke-linecap="round" stroke-linejoin="round"/>
    <path d="M 199.30284118652344 43.066802978515625 C 196.1470184326172 43.729331970214844 201.33123779296875 46.47043228149414 199.76766967773438 47.00029754638672" stroke-width="3.0" fill="none" stroke="rgb(0, 0, 1)" stroke-opacity="0.18888843" stroke-linecap="round" stroke-linejoin="round"/>
    <path d="M 52.12727737426758 135.4859161376953 C 58.387123107910156 144.38864135742188 53.73363494873047 137.31045532226562 59.830963134765625 146.5158233642578" stroke-width="3.0" fill="none" stroke="rgb(0, 1, -2)" stroke-opacity="0.34775305" stroke-linecap="round" stroke-linejoin="round"/>
    <path d="M -0.5129562020301819 50.22318649291992 C 0.8982921242713928 51.2606315612793 -1.1190811395645142 48.89345932006836 -1.7349426746368408 49.10847091674805" stroke-width="3.0" fill="none" stroke="rgb(0, 0, 0)" stroke-opacity="0.24919753" stroke-linecap="round" stroke-linejoin="round"/>
    <path d="M 164.69735717773438 131.5247802734375 C 166.7702178955078 131.6339111328125 165.5449981689453 131.7150421142578 165.77333068847656 131.5981903076172" stroke-width="3.0" fill="none" stroke="rgb(0, 0, -1)" stroke-opacity="0.17490222" stroke-linecap="round" stroke-linejoin="round"/>
    <path d="M 154.8809356689453 76.44939422607422 C 157.1160888671875 85.23303985595703 147.40570068359375 69.30892181396484 153.4502716064453 71.7011947631836" stroke-width="3.0" fill="none" stroke="rgb(0, 0, 0)" stroke-opacity="0.19712989" stroke-linecap="round" stroke-linejoin="round"/>
    <path d="M 118.6609878540039 168.04583740234375 C 118.08626556396484 168.15211486816406 119.23712158203125 168.07452392578125 119.85963439941406 167.86549377441406" stroke-width="3.0" fill="none" stroke="rgb(1, 0, -1)" stroke-opacity="0.32081488" stroke-linecap="round" stroke-linejoin="round"/>
    <path d="M 76.00218200683594 30.72109603881836 C 83.98600769042969 27.038599014282227 72.95370483398438 44.59543991088867 74.13426971435547 31.799694061279297" stroke-width="3.0" fill="none" stroke="rgb(3, -3, 1)" stroke-opacity="0.31261018" stroke-linecap="round" stroke-linejoin="round"/>
    <path d="M 70.0436782836914 23.85350799560547 C 71.39400482177734 27.714879989624023 86.27174377441406 32.178680419921875 67.13148498535156 20.71465492248535" stroke-width="3.0" fill="none" stroke="rgb(0, -2, 2)" stroke-opacity="0.27608743" stroke-linecap="round" stroke-linejoin="round"/>
    <path d="M 97.08740234375 144.60841369628906 C 98.98851013183594 121.11278533935547 102.9201431274414 132.82545471191406 99.26284790039062 117.41629791259766" stroke-width="3.0" fill="none" stroke="rgb(-1, 0, 3)" stroke-opacity="0.21422239" stroke-linecap="round" stroke-linejoin="round"/>
    <path d="M 151.01344299316406 188.34445190429688 C 151.61585998535156 191.37522888183594 158.15611267089844 184.67771911621094 161.6168975830078 187.3259735107422" stroke-width="3.0" fill="none" stroke="rgb(0, 1, 0)" stroke-opacity="0.15621297" stroke-linecap="round" stroke-linejoin="round"/>
    <path d="M 91.27308654785156 35.48234176635742 C 79.72515869140625 19.48917007446289 82.4485092163086 14.602095603942871 98.55005645751953 42.05226516723633" stroke-width="3.0" fill="none" stroke="rgb(0, -1, 1)" stroke-opacity="0.37906635" stroke-linecap="round" stroke-linejoin="round"/>
    <path d="M 65.10289764404297 24.20819091796875 C 66.772216796875 18.413944244384766 69.23078918457031 21.817665100097656 63.48535919189453 31.231996536254883" stroke-width="3.0" fill="none" stroke="rgb(0, 0, 1)" stroke-opacity="0.11042286" stroke-linecap="round" stroke-linejoin="round"/>
    <path d="M 137.09129333496094 200.16989135742188 C 137.77410888671875 199.15383911132812 142.7328643798828 199.41720581054688 138.51060485839844 199.36752319335938" stroke-width="3.0" fill="none" stroke="rgb(0, 1, -1)" stroke-opacity="0.09912229" stroke-linecap="round" stroke-linejoin="round"/>
    <path d="M 74.16333770751953 33.07000732421875 C 64.4477767944336 18.480165481567383 66.80656433105469 22.04401969909668 68.02378845214844 23.73630714416504" stroke-width="3.0" fill="none" stroke="rgb(2, -2, 2)" stroke-opacity="0.59208775" stroke-linecap="round" stroke-linejoin="round"/>
    <path d="M 24.849946975708008 53.44889450073242 C 32.903175354003906 48.080726623535156 32.05013656616211 51.06229019165039 29.116830825805664 51.534141540527344" stroke-width="3.0" fill="none" stroke="rgb(-1, 0, 3)" stroke-opacity="0.25316513" stroke-linecap="round" stroke-linejoin="round"/>
    <path d="M 164.2849884033203 197.21780395507812 C 164.3346405029297 197.443115234375 164.0768585205078 196.3319091796875 163.99801635742188 197.03305053710938" stroke-width="3.0" fill="none" stroke="rgb(0, 0, -1)" stroke-opacity="0.21978112" stroke-linecap="round" stroke-linejoin="round"/>
    <path d="M 19.576810836791992 152.47142028808594 C 14.637802124023438 170.14712524414062 20.795143127441406 176.49374389648438 12.330118179321289 174.56773376464844" stroke-width="3.0" fill="none" stroke="rgb(1, -3, 2)" stroke-opacity="0.45833614" stroke-linecap="round" stroke-linejoin="round"/>
    <path d="M 90.61817169189453 54.2775993347168 C 81.95884704589844 49.508487701416016 89.54241180419922 63.79125213623047 91.48167419433594 53.527225494384766" stroke-width="3.0" fill="none" stroke="rgb(3, -3, 1)" stroke-opacity="0.49993184" stroke-linecap="round" stroke-linejoin="round"/>
    <path d="M 229.94578552246094 206.9894561767578 C 234.88345336914062 211.7928466796875 234.53054809570312 214.28973388671875 230.3948211669922 208.62953186035156" stroke-width="3.0" fill="none" stroke="rgb(0, 0, 0)" stroke-opacity="0.775456" stroke-linecap="round" stroke-linejoin="round"/>
    <path d="M 70.09651184082031 108.15546417236328 C 75.63198852539062 88.90319061279297 74.79955291748047 87.41564178466797 67.83255767822266 106.69680786132812" stroke-width="3.0" fill="none" stroke="rgb(-1, 0, 2)" stroke-opacity="0.13334596" stroke-linecap="round" stroke-linejoin="round"/>
    <path d="M 135.83082580566406 13.601619720458984 C 134.8125 13.678428649902344 135.80288696289062 13.182767868041992 135.74461364746094 13.647161483764648" stroke-width="3.0" fill="none" stroke="rgb(0, 0, 0)" stroke-opacity="0.3320622" stroke-linecap="round" stroke-linejoin="round"/>
    <path d="M 17.787132263183594 121.84449768066406 C 16.38058853149414 131.7923583984375 25.14630126953125 122.0443344116211 15.714360237121582 160.30572509765625" stroke-width="3.0" fill="none" stroke="rgb(0, -3, 3)" stroke-opacity="0.44585016" stroke-linecap="round" stroke-linejoin="round"/>
    <path d="M 74.16603088378906 90.38945770263672 C 89.67540740966797 80.95738983154297 61.76952362060547 98.89300537109375 79.426513671875 92.03079223632812" stroke-width="3.0" fill="none" stroke="rgb(1, -2, 0)" stroke-opacity="0.51024634" stroke-linecap="round" stroke-linejoin="round"/>
    <path d="M 22.568063735961914 109.18875885009766 C 14.286154747009277 146.2072296142578 32.47710037231445 114.39726257324219 18.439655303955078 101.88263702392578" stroke-width="3.0" fill="none" stroke="rgb(1, 0, -2)" stroke-opacity="0.3668076" stroke-linecap="round" stroke-linejoin="round"/>
    <path d="M 84.77608489990234 232.32550048828125 C 81.02164459228516 230.63388061523438 65.95498657226562 230.89735412597656 66.38851928710938 232.78834533691406" stroke-width="3.0" fill="none" stroke="rgb(0, 0, 0)" stroke-opacity="0.8899649" stroke-linecap="round" stroke-linejoin="round"/>
    <path d="M 74.81724548339844 33.42790985107422 C 73.25363159179688 33.194156646728516 69.99771881103516 25.094018936157227 75.16327667236328 30.799745559692383" stroke-width="3.0" fill="none" stroke="rgb(3, -4, 1)" stroke-opacity="0.73280597" stroke-linecap="round" stroke-linejoin="round"/>
    <path d="M 86.94020080566406 130.17459106445312 C 86.81909942626953 140.83889770507812 85.56231689453125 131.9183807373047 87.30511474609375 136.05307006835938" stroke-width="3.0" fill="none" stroke="rgb(0, 0, 1)" stroke-opacity="0.23281357" stroke-linecap="round" stroke-linejoin="round"/>
    <path d="M 95.27413177490234 83.45709228515625 C 107.85758209228516 83.48416900634766 126.55835723876953 77.90328216552734 94.19622039794922 80.37503814697266" stroke-width="3.0" fill="none" stroke="rgb(0, 0, -1)" stroke-opacity="0.08610973" stroke-linecap="round" stroke-linejoin="round"/>
    <path d="M 103.02275848388672 55.051544189453125 C 104.34647369384766 38.3062858581543 95.80805206298828 42.79079055786133 102.83341979980469 48.84737014770508" stroke-width="3.0" fill="none" stroke="rgb(1, 0, 1)" stroke-opacity="0.38786763" stroke-linecap="round" stroke-linejoin="round"/>
    <path d="M 213.5839385986328 127.05827331542969 C 214.81314086914062 127.54315185546875 217.36798095703125 128.61581420898438 211.0309295654297 129.90625" stroke-width="3.0" fill="none" stroke="rgb(0, 1, -1)" stroke-opacity="0.17048892" stroke-linecap="round" stroke-linejoin="round"/>
    <path d="M 53.1599006652832 119.72476959228516 C 52.511444091796875 114.10450744628906 60.562278747558594 117.47016906738281 65.95086669921875 109.06330871582031" stroke-width="3.0" fill="none" stroke="rgb(1, 0, -1)" stroke-opacity="0.21211363" stroke-linecap="round" stroke-linejoin="round"/>
    <path d="M 158.79306030273438 179.10360717773438 C 154.5689239501953 179.07066345214844 155.71194458007812 179.80233764648438 164.39552307128906 177.39015197753906" stroke-width="3.0" fill="none" stroke="rgb(0, 0, 1)" stroke-opacity="0.29733232" stroke-linecap="round" stroke-linejoin="round"/>
    <path d="M 156.52587890625 176.6177520751953 C 164.81036376953125 177.17510986328125 164.786865234375 177.23532104492188 149.5871124267578 178.404541015625" stroke-width="3.0" fill="none" stroke="rgb(-1, 0, 1)" stroke-opacity="0.27807048" stroke-linecap="round" stroke-linejoin="round"/>
    <path d="M 9.917683601379395 94.96195983886719 C 11.572376251220703 110.86792755126953 13.657878875732422 108.4663314819336 13.406338691711426 109.96561431884766" stroke-width="3.0" fill="none" stroke="rgb(0, 0, 1)" stroke-opacity="0.21073008" stroke-linecap="round" stroke-linejoin="round"/>
    <path d="M 82.5609359741211 61.053497314453125 C 88.18589782714844 47.47146224975586 81.25482940673828 50.51301956176758 91.47110748291016 54.58818054199219" stroke-width="3.0" fill="none" stroke="rgb(1, -3, 3)" stroke-opacity="0.29064566" stroke-linecap="round" stroke-linejoin="round"/>
    <path d="M 80.42597961425781 92.25851440429688 C 65.53858184814453 105.23693084716797 90.1047134399414 95.40127563476562 78.10282897949219 83.5848388671875" stroke-width="3.0" fill="none" stroke="rgb(0, 1, 2)" stroke-opacity="0.32267466" stroke-linecap="round" stroke-linejoin="round"/>
    <path d="M 80.63556671142578 76.06452178955078 C 86.17860412597656 47.70403289794922 90.1896743774414 66.08509826660156 90.38668060302734 54.9135856628418" stroke-width="3.0" fill="none" stroke="rgb(0, 0, 1)" stroke-opacity="0.14637627" stroke-linecap="round" stroke-linejoin="round"/>
    <path d="M 16.41184425354004 53.59078598022461 C 18.696475982666016 54.57379913330078 17.153209686279297 54.8743782043457 18.09256935119629 55.1635856628418" stroke-width="3.0" fill="none" stroke="rgb(0, 1, 0)" stroke-opacity="0.3390831" stroke-linecap="round" stroke-linejoin="round"/>
    <path d="M 43.53362274169922 102.49214935302734 C 38.79817581176758 96.20882415771484 43.95809555053711 95.78636932373047 41.97313690185547 96.85916137695312" stroke-width="3.0" fill="none" stroke="rgb(0, 0, 1)" stroke-opacity="0.25277397" stroke-linecap="round" stroke-linejoin="round"/>
    <path d="M 137.91590881347656 109.45953369140625 C 138.14906311035156 109.79940032958984 136.93934631347656 109.78273010253906 137.67140197753906 109.396728515625" stroke-width="3.0" fill="none" stroke="rgb(1, 0, -2)" stroke-opacity="0.25104612" stroke-linecap="round" stroke-linejoin="round"/>
    <path d="M 26.34658432006836 118.37986755371094 C 32.28746032714844 107.65513610839844 1.0992379188537598 99.605712890625 23.427383422851562 112.58758544921875" stroke-width="3.0" fill="none" stroke="rgb(1, 0, 3)" stroke-opacity="0.3310665" stroke-linecap="round" stroke-linejoin="round"/>
    <path d="M 233.3892822265625 204.17758178710938 C 230.96258544921875 210.7913360595703 235.5218963623047 212.10858154296875 231.7148895263672 222.23471069335938" stroke-width="3.0" fill="none" stroke="rgb(0, 0, 0)" stroke-opacity="0.8184276" stroke-linecap="round" stroke-linejoin="round"/>
    <path d="M 98.47220611572266 43.18279266357422 C 101.5357666015625 57.178741455078125 102.56352996826172 67.72225189208984 99.69559478759766 76.20645904541016" stroke-width="3.0" fill="none" stroke="rgb(-2, 1, 2)" stroke-opacity="0.15444043" stroke-linecap="round" stroke-linejoin="round"/>
    <path d="M 83.1665267944336 62.926963806152344 C 73.56620025634766 68.00083923339844 74.89741516113281 81.91825866699219 82.84551239013672 65.07582092285156" stroke-width="3.0" fill="none" stroke="rgb(-1, 0, 1)" stroke-opacity="0.24368522" stroke-linecap="round" stroke-linejoin="round"/>
    <path d="M 31.76963233947754 116.61912536621094 C 55.87977981567383 123.44963836669922 39.47921371459961 121.45482635498047 51.12577438354492 133.90464782714844" stroke-width="3.0" fill="none" stroke="rgb(-2, 0, 0)" stroke-opacity="0.17200522" stroke-linecap="round" stroke-linejoin="round"/>
    <path d="M 30.014820098876953 116.12987518310547 C 9.732887268066406 112.16626739501953 10.378288269042969 108.37335968017578 18.35312843322754 119.48208618164062" stroke-width="3.0" fill="none" stroke="rgb(0, 0, 0)" stroke-opacity="0.25172862" stroke-linecap="round" stroke-linejoin="round"/>
    <path d="M 67.87398529052734 -8.598663330078125 C 69.40636444091797 -5.720871448516846 67.35443115234375 -4.49636173248291 59.41242218017578 -5.9465012550354" stroke-width="3.0" fill="none" stroke="rgb(0, 0, 0)" stroke-opacity="0.88369983" stroke-linecap="round" stroke-linejoin="round"/>
    <path d="M 101.99531555175781 43.75220489501953 C 111.52204895019531 58.994895935058594 102.67974090576172 74.87960815429688 103.72777557373047 53.538612365722656" stroke-width="3.0" fill="none" stroke="rgb(1, -1, 0)" stroke-opacity="0.27800497" stroke-linecap="round" stroke-linejoin="round"/>
    <path d="M 122.54657745361328 32.36412048339844 C 123.1279525756836 32.23970413208008 122.50955963134766 32.701080322265625 122.25533294677734 32.809627532958984" stroke-width="3.0" fill="none" stroke="rgb(0, 0, 0)" stroke-opacity="0.08955328" stroke-linecap="round" stroke-linejoin="round"/>
    <path d="M 104.42874908447266 185.80262756347656 C 98.30178833007812 180.75279235839844 96.54214477539062 176.27468872070312 102.97396850585938 194.31491088867188" stroke-width="3.0" fill="none" stroke="rgb(1, -1, 1)" stroke-opacity="0.26820058" stroke-linecap="round" stroke-linejoin="round"/>
    <path d="M 46.921573638916016 165.60157775878906 C 40.507225036621094 198.67181396484375 54.295711517333984 188.14805603027344 37.30803680419922 184.23004150390625" stroke-width="3.0" fill="none" stroke="rgb(0, 0, 1)" stroke-opacity="0.13963063" stroke-linecap="round" stroke-linejoin="round"/>
    <path d="M 169.5165557861328 47.58342361450195 C 170.38665771484375 48.262733459472656 170.04576110839844 48.06595230102539 168.919921875 48.165077209472656" stroke-width="3.0" fill="none" stroke="rgb(0, 0, 1)" stroke-opacity="0.389868" stroke-linecap="round" stroke-linejoin="round"/>
    <path d="M 64.70722961425781 17.180034637451172 C 66.87986755371094 22.056934356689453 68.55939483642578 21.085872650146484 70.94837188720703 28.624101638793945" stroke-width="3.0" fill="none" stroke="rgb(1, 0, 0)" stroke-opacity="0.34243953" stroke-linecap="round" stroke-linejoin="round"/>
    <path d="M 35.114501953125 37.6635627746582 C 31.331335067749023 37.83283233642578 33.26071548461914 38.014617919921875 32.82307815551758 37.882728576660156" stroke-width="3.0" fill="none" stroke="rgb(0, 0, 0)" stroke-opacity="0.1912922" stroke-linecap="round" stroke-linejoin="round"/>
    <path d="M 79.0230941772461 36.427982330322266 C 72.92498016357422 23.234193801879883 70.0379409790039 30.53614616394043 83.84552764892578 46.76171875" stroke-width="3.0" fill="none" stroke="rgb(0, -2, 0)" stroke-opacity="0.16810647" stroke-linecap="round" stroke-linejoin="round"/>
    <path d="M 170.11123657226562 48.00804901123047 C 168.72406005859375 45.64981460571289 169.3287353515625 47.25862121582031 172.12884521484375 48.7688102722168" stroke-width="3.0" fill="none" stroke="rgb(0, 0, 0)" stroke-opacity="0.11880069" stroke-linecap="round" stroke-linejoin="round"/>
    <path d="M 104.49768829345703 49.83863830566406 C 101.22224426269531 41.470706939697266 104.91764831542969 47.31205749511719 101.88617706298828 53.740699768066406" stroke-width="3.0" fill="none" stroke="rgb(2, 0, 1)" stroke-opacity="0.4245057" stroke-linecap="round" stroke-linejoin="round"/>
    <path d="M 175.87342834472656 75.83036804199219 C 177.4925537109375 74.16019439697266 180.326416015625 76.53936004638672 179.43423461914062 75.56300354003906" stroke-width="3.0" fill="none" stroke="rgb(-1, 1, 0)" stroke-opacity="0.25595796" stroke-linecap="round" stroke-linejoin="round"/>
    <path d="M 89.28802490234375 53.19377517700195 C 98.37980651855469 51.38666915893555 95.02719116210938 45.61190414428711 85.8327407836914 52.91550827026367" stroke-width="3.0" fill="none" stroke="rgb(2, -2, 1)" stroke-opacity="0.41244206" stroke-linecap="round" stroke-linejoin="round"/>
    <path d="M 65.36477661132812 114.254150390625 C 69.32356262207031 109.808349609375 64.77909851074219 118.95471954345703 68.41156768798828 109.86885070800781" stroke-width="3.0" fill="none" stroke="rgb(0, 0, 0)" stroke-opacity="0.23715293" stroke-linecap="round" stroke-linejoin="round"/>
    <path d="M 226.9383544921875 61.11760711669922 C 227.995361328125 63.434993743896484 230.54159545898438 54.60646057128906 238.62936401367188 56.03499984741211" stroke-width="3.0" fill="none" stroke="rgb(0, 0, 0)" stroke-opacity="0.6337445" stroke-linecap="round" stroke-linejoin="round"/>
    <path d="M 83.05523681640625 167.5137481689453 C 79.56660461425781 164.48695373535156 88.69680786132812 181.25657653808594 81.25447082519531 168.7389373779297" stroke-width="3.0" fill="none" stroke="rgb(1, 0, 0)" stroke-opacity="0.3214732" stroke-linecap="round" stroke-linejoin="round"/>
    <path d="M 71.19031524658203 209.4761505126953 C 71.48834991455078 209.72421264648438 72.19219207763672 209.5412139892578 71.63607025146484 209.57754516601562" stroke-width="3.0" fill="none" stroke="rgb(0, 1, -1)" stroke-opacity="0.32034644" stroke-linecap="round" stroke-linejoin="round"/>
    <path d="M 156.44618225097656 74.52527618408203 C 156.56520080566406 75.49916076660156 156.9468536376953 72.28953552246094 155.01136779785156 76.15631866455078" stroke-width="3.0" fill="none" stroke="rgb(1, 0, 1)" stroke-opacity="0.43874773" stroke-linecap="round" stroke-linejoin="round"/>
    <path d="M 115.89636993408203 10.314887046813965 C 116.2307357788086 10.09959602355957 114.18476867675781 10.754768371582031 116.38568878173828 10.5305814743042" stroke-width="3.0" fill="none" stroke="rgb(0, 0, 0)" stroke-opacity="0.30195108" stroke-linecap="round" stroke-linejoin="round"/>
    <path d="M 200.4812774658203 37.75041198730469 C 200.19866943359375 38.16652297973633 200.20835876464844 37.52177429199219 200.0272979736328 38.020931243896484" stroke-width="3.0" fill="none" stroke="rgb(0, 0, 0)" stroke-opacity="0.3248357" stroke-linecap="round" stroke-linejoin="round"/>
    <path d="M 66.1736068725586 19.775604248046875 C 66.06444549560547 16.428436279296875 68.62125396728516 24.108659744262695 68.19635009765625 22.96771812438965" stroke-width="3.0" fill="none" stroke="rgb(1, 0, 1)" stroke-opacity="0.3463248" stroke-linecap="round" stroke-linejoin="round"/>
    <path d="M 22.42328643798828 62.9451789855957 C 26.997270584106445 61.96799087524414 21.6158447265625 64.244140625 19.543094635009766 71.32232666015625" stroke-width="3.0" fill="none" stroke="rgb(0, 0, 1)" stroke-opacity="0.13793546" stroke-linecap="round" stroke-linejoin="round"/>
    <path d="M 212.51742553710938 129.48635864257812 C 212.80807495117188 130.48455810546875 212.50265502929688 125.99720001220703 212.36390686035156 127.60565185546875" stroke-width="3.0" fill="none" stroke="rgb(0, 1, -1)" stroke-opacity="0.17291075" stroke-linecap="round" stroke-linejoin="round"/>
    <path d="M 77.91896057128906 86.22557067871094 C 64.19833374023438 91.76527404785156 101.69271850585938 90.7613525390625 97.62802124023438 87.12327575683594" stroke-width="3.0" fill="none" stroke="rgb(0, 0, 2)" stroke-opacity="0.12195042" stroke-linecap="round" stroke-linejoin="round"/>
    <path d="M 53.47065353393555 52.27894592285156 C 60.973243713378906 49.50600814819336 59.360198974609375 46.02499008178711 65.67981719970703 46.68439483642578" stroke-width="3.0" fill="none" stroke="rgb(-1, 1, 0)" stroke-opacity="0.12722611" stroke-linecap="round" stroke-linejoin="round"/>
  </g>
</svg>
