<?xml version="1.0" ?>
<svg xmlns="http://www.w3.org/2000/svg" version="1.1" width="224" height="224">
  <defs/>
  <g>
    <path d="M 224.93594360351562 81.28974914550781 C 81.5210952758789 81.42533111572266 191.58932495117188 66.02821350097656 167.42544555664062 82.40254211425781" stroke-width="3.0" fill="none" stroke="rgb(0, 0, 0)" stroke-opacity="0.040562864" stroke-linecap="round" stroke-linejoin="round"/>
    <path d="M 98.13627624511719 88.99832153320312 C 109.43087768554688 118.12068939208984 99.42460632324219 86.67323303222656 95.70455932617188 144.76683044433594" stroke-width="3.0" fill="none" stroke="rgb(-2, 0, 3)" stroke-opacity="0.090991884" stroke-linecap="round" stroke-linejoin="round"/>
    <path d="M 80.5081787109375 69.52645111083984 C 94.32551574707031 109.54791259765625 66.81835174560547 83.06520080566406 83.11646270751953 65.49380493164062" stroke-width="3.0" fill="none" stroke="rgb(-3, 0, 2)" stroke-opacity="0.10643261" stroke-linecap="round" stroke-linejoin="round"/>
    <path d="M 232.39273071289062 178.3290252685547 C 226.64407348632812 178.59912109375 232.4839324951172 178.485107421875 229.4140625 173.86154174804688" stroke-width="3.0" fill="none" stroke="rgb(0, 0, 0)" stroke-opacity="0.0314815" stroke-linecap="round" stroke-linejoin="round"/>
    <path d="M 95.31636047363281 72.18182373046875 C 100.70626068115234 138.08828735351562 107.56859588623047 49.711029052734375 112.82172393798828 76.59595489501953" stroke-width="3.0" fill="none" stroke="rgb(-1, 1, 0)" stroke-opacity="0.043689325" stroke-linecap="round" stroke-linejoin="round"/>
    <path d="M 159.45013427734375 24.21877098083496 C 77.08131408691406 -1.5350487232208252 226.0767364501953 21.252357482910156 97.5752182006836 23.227636337280273" stroke-width="3.0" fill="none" stroke="rgb(-2, 0, 2)" stroke-opacity="0.026046483" stroke-linecap="round" stroke-linejoin="round"/>
    <path d="M 87.81807708740234 123.24457550048828 C 103.63773345947266 92.00682067871094 102.8941879272461 128.4763641357422 67.65946197509766 131.89605712890625" stroke-width="3.0" fill="none" stroke="rgb(2, 1, -2)" stroke-opacity="0.0987977" stroke-linecap="round" stroke-linejoin="round"/>
    <path d="M 58.08588790893555 106.075927734375 C 36.358280181884766 126.76089477539062 69.2303237915039 97.84820556640625 63.8232536315918 138.4971466064453" stroke-width="3.0" fill="none" stroke="rgb(0, 0, 0)" stroke-opacity="0.061887" stroke-linecap="round" stroke-linejoin="round"/>
    <path d="M 47.004241943359375 175.51089477539062 C 77.26578521728516 160.62203979492188 75.30928802490234 131.0276641845703 63.9563102722168 160.63800048828125" stroke-width="3.0" fill="none" stroke="rgb(-1, -2, 2)" stroke-opacity="0.37524676" stroke-linecap="round" stroke-linejoin="round"/>
    <path d="M 206.6001434326172 200.9433135986328 C 124.8476333618164 198.19932556152344 220.46949768066406 210.34144592285156 149.86007690429688 199.66220092773438" stroke-width="3.0" fill="none" stroke="rgb(-1, 2, -3)" stroke-opacity="0.023626449" stroke-linecap="round" stroke-linejoin="round"/>
    <path d="M 187.91482543945312 80.09613037109375 C 111.08660125732422 84.34598541259766 150.4419708251953 69.3076171875 141.30291748046875 80.18669891357422" stroke-width="3.0" fill="none" stroke="rgb(-2, 0, 1)" stroke-opacity="0.086758636" stroke-linecap="round" stroke-linejoin="round"/>
    <path d="M 202.5171356201172 76.83995056152344 C 227.49258422851562 52.185462951660156 217.8013458251953 80.35328674316406 232.5089874267578 59.29329299926758" stroke-width="3.0" fill="none" stroke="rgb(-1, 0, 0)" stroke-opacity="0.06318738" stroke-linecap="round" stroke-linejoin="round"/>
    <path d="M 89.36457061767578 68.08795928955078 C 93.85103607177734 101.67489624023438 71.7126693725586 157.3721466064453 52.2248420715332 76.38435363769531" stroke-width="3.0" fill="none" stroke="rgb(0, 0, 0)" stroke-opacity="0.013654443" stroke-linecap="round" stroke-linejoin="round"/>
    <path d="M 89.8741455078125 180.04820251464844 C 25.725317001342773 174.4391632080078 -6.310832500457764 181.39395141601562 87.6380844116211 181.457763671875" stroke-width="3.0" fill="none" stroke="rgb(-3, 1, 4)" stroke-opacity="0.29107183" stroke-linecap="round" stroke-linejoin="round"/>
    <path d="M 74.38704681396484 217.0333251953125 C -19.213655471801758 205.0115203857422 -27.02299690246582 207.65988159179688 82.5639877319336 206.59510803222656" stroke-width="3.0" fill="none" stroke="rgb(-2, 2, -2)" stroke-opacity="0.014560379" stroke-linecap="round" stroke-linejoin="round"/>
    <path d="M 36.405189514160156 223.4732666015625 C 139.58702087402344 216.2379608154297 -15.320792198181152 213.98500061035156 147.87506103515625 215.21144104003906" stroke-width="3.0" fill="none" stroke="rgb(-3, 3, -1)" stroke-opacity="0.021954704" stroke-linecap="round" stroke-linejoin="round"/>
    <path d="M 182.52606201171875 51.26312255859375 C 180.25869750976562 39.412906646728516 238.5530242919922 56.518436431884766 166.74807739257812 46.866641998291016" stroke-width="3.0" fill="none" stroke="rgb(-2, 0, 2)" stroke-opacity="0.025050683" stroke-linecap="round" stroke-linejoin="round"/>
    <path d="M 67.3688735961914 60.060218811035156 C 81.20176696777344 100.52790832519531 40.7978401184082 117.5074691772461 103.01239776611328 67.19453430175781" stroke-width="3.0" fill="none" stroke="rgb(0, 0, 0)" stroke-opacity="0.031885855" stroke-linecap="round" stroke-linejoin="round"/>
    <path d="M 61.8936882019043 42.931358337402344 C 44.621891021728516 60.377079010009766 62.977760314941406 47.92637634277344 70.44652557373047 44.24382400512695" stroke-width="3.0" fill="none" stroke="rgb(-2, 2, -3)" stroke-opacity="0.14390714" stroke-linecap="round" stroke-linejoin="round"/>
    <path d="M 115.22632598876953 72.75608825683594 C 159.46449279785156 74.67695617675781 89.0779800415039 62.769081115722656 141.29405212402344 82.45013427734375" stroke-width="3.0" fill="none" stroke="rgb(-1, 1, 1)" stroke-opacity="0.1155749" stroke-linecap="round" stroke-linejoin="round"/>
    <path d="M 197.15406799316406 -5.033168792724609 C 192.92361450195312 -5.113842487335205 201.67630004882812 -5.931144714355469 201.03421020507812 -5.25750207901001" stroke-width="3.0" fill="none" stroke="rgb(0, 0, 0)" stroke-opacity="0.7277141" stroke-linecap="round" stroke-linejoin="round"/>
    <path d="M 59.870361328125 37.58721923828125 C 79.14177703857422 29.727693557739258 57.465362548828125 37.45058822631836 67.86647033691406 35.15414047241211" stroke-width="3.0" fill="none" stroke="rgb(1, -1, 0)" stroke-opacity="0.14848633" stroke-linecap="round" stroke-linejoin="round"/>
    <path d="M 174.0874481201172 70.11870574951172 C 157.64451599121094 55.78254699707031 112.42063903808594 93.42007446289062 155.09544372558594 71.38519287109375" stroke-width="3.0" fill="none" stroke="rgb(-1, 2, -1)" stroke-opacity="0.07968434" stroke-linecap="round" stroke-linejoin="round"/>
    <path d="M 19.35418128967285 127.7207260131836 C 29.784914016723633 84.81023406982422 12.585237503051758 110.46319580078125 20.973590850830078 98.44587707519531" stroke-width="3.0" fill="none" stroke="rgb(0, -1, 1)" stroke-opacity="0.23127861" stroke-linecap="round" stroke-linejoin="round"/>
    <path d="M 40.83580017089844 49.36205291748047 C 57.130950927734375 59.34401321411133 62.25911331176758 47.0481071472168 27.691282272338867 50.4477653503418" stroke-width="3.0" fill="none" stroke="rgb(-1, 0, 0)" stroke-opacity="0.09132321" stroke-linecap="round" stroke-linejoin="round"/>
    <path d="M 216.58058166503906 51.98225021362305 C 197.9761199951172 43.20012283325195 250.93414306640625 51.29647445678711 204.3877716064453 51.00901794433594" stroke-width="3.0" fill="none" stroke="rgb(-2, 0, 1)" stroke-opacity="0.030714836" stroke-linecap="round" stroke-linejoin="round"/>
    <path d="M 53.86262893676758 137.58721923828125 C 61.39436721801758 143.708984375 60.400474548339844 158.99754333496094 53.14118957519531 160.37059020996094" stroke-width="3.0" fill="none" stroke="rgb(-1, 2, -2)" stroke-opacity="0.19190863" stroke-linecap="round" stroke-linejoin="round"/>
    <path d="M -3.2996292114257812 51.093162536621094 C -2.6817166805267334 53.29889678955078 -2.3076202869415283 49.65018844604492 -1.7769750356674194 49.033756256103516" stroke-width="3.0" fill="none" stroke="rgb(0, 0, 0)" stroke-opacity="0.18963785" stroke-linecap="round" stroke-linejoin="round"/>
    <path d="M 161.1330108642578 133.80511474609375 C 161.830078125 124.83858489990234 202.6600341796875 138.35511779785156 156.23782348632812 134.3208770751953" stroke-width="3.0" fill="none" stroke="rgb(0, 0, -1)" stroke-opacity="0.016576443" stroke-linecap="round" stroke-linejoin="round"/>
    <path d="M 188.60348510742188 75.99884033203125 C 149.70068359375 86.98855590820312 134.5735321044922 48.08266067504883 161.65310668945312 76.33784484863281" stroke-width="3.0" fill="none" stroke="rgb(0, 0, 0)" stroke-opacity="0.07929578" stroke-linecap="round" stroke-linejoin="round"/>
    <path d="M 98.89602661132812 154.38169860839844 C 44.53312683105469 161.01869201660156 192.1405792236328 152.24839782714844 58.515838623046875 165.02899169921875" stroke-width="3.0" fill="none" stroke="rgb(-1, 1, 0)" stroke-opacity="0.04792502" stroke-linecap="round" stroke-linejoin="round"/>
    <path d="M 67.55939483642578 23.446550369262695 C 61.185726165771484 8.916444778442383 76.42404174804688 25.864105224609375 84.51563262939453 18.725069046020508" stroke-width="3.0" fill="none" stroke="rgb(-1, 1, 1)" stroke-opacity="0.097609736" stroke-linecap="round" stroke-linejoin="round"/>
    <path d="M 74.27857208251953 34.97896957397461 C 69.69646453857422 17.121553421020508 81.9129409790039 48.63885498046875 67.11481475830078 22.967052459716797" stroke-width="3.0" fill="none" stroke="rgb(0, -3, 4)" stroke-opacity="0.52885765" stroke-linecap="round" stroke-linejoin="round"/>
    <path d="M 103.23336791992188 192.732666015625 C 88.2252197265625 135.94908142089844 107.46480560302734 170.52288818359375 95.07575225830078 137.56881713867188" stroke-width="3.0" fill="none" stroke="rgb(0, -2, 2)" stroke-opacity="0.25994772" stroke-linecap="round" stroke-linejoin="round"/>
    <path d="M 202.65939331054688 173.3890380859375 C 228.49366760253906 173.95985412597656 194.638427734375 174.10984802246094 247.08761596679688 174.0509490966797" stroke-width="3.0" fill="none" stroke="rgb(0, 0, 0)" stroke-opacity="0.04682624" stroke-linecap="round" stroke-linejoin="round"/>
    <path d="M 88.65906524658203 25.08073616027832 C 82.62680053710938 12.93039321899414 89.05339050292969 45.9129524230957 89.3220443725586 26.324771881103516" stroke-width="3.0" fill="none" stroke="rgb(3, -2, 0)" stroke-opacity="0.7424943" stroke-linecap="round" stroke-linejoin="round"/>
    <path d="M 71.7822036743164 14.842157363891602 C 121.63811492919922 4.852856159210205 85.59917449951172 45.62759017944336 8.455082893371582 27.478181838989258" stroke-width="3.0" fill="none" stroke="rgb(-3, 2, 2)" stroke-opacity="0.01925567" stroke-linecap="round" stroke-linejoin="round"/>
    <path d="M 95.79899597167969 204.07496643066406 C 267.126953125 204.16683959960938 40.29682922363281 202.9021453857422 138.89161682128906 200.8145294189453" stroke-width="3.0" fill="none" stroke="rgb(-2, 3, -4)" stroke-opacity="0.033046328" stroke-linecap="round" stroke-linejoin="round"/>
    <path d="M 75.19947052001953 34.126426696777344 C 70.341796875 25.15866470336914 71.25841522216797 26.25296974182129 75.41768646240234 30.707563400268555" stroke-width="3.0" fill="none" stroke="rgb(0, -2, 2)" stroke-opacity="0.6767648" stroke-linecap="round" stroke-linejoin="round"/>
    <path d="M 10.60476303100586 56.23231887817383 C 38.83877182006836 50.70415496826172 33.838497161865234 42.14999008178711 6.69240140914917 67.43021392822266" stroke-width="3.0" fill="none" stroke="rgb(1, 0, 0)" stroke-opacity="0.094303645" stroke-linecap="round" stroke-linejoin="round"/>
    <path d="M 172.7772674560547 210.11520385742188 C 168.9012451171875 229.70022583007812 133.03244018554688 204.38645935058594 183.90367126464844 216.23452758789062" stroke-width="3.0" fill="none" stroke="rgb(-2, 1, -1)" stroke-opacity="0.021696169" stroke-linecap="round" stroke-linejoin="round"/>
    <path d="M 18.7972412109375 158.95492553710938 C 8.871466636657715 186.40536499023438 27.552410125732422 173.94583129882812 10.81942367553711 176.7015380859375" stroke-width="3.0" fill="none" stroke="rgb(-1, -2, 2)" stroke-opacity="0.37482795" stroke-linecap="round" stroke-linejoin="round"/>
    <path d="M 69.29116821289062 47.81553649902344 C 78.79248809814453 38.51020050048828 95.862060546875 61.191802978515625 75.84500122070312 90.61641693115234" stroke-width="3.0" fill="none" stroke="rgb(0, 0, 0)" stroke-opacity="0.06291873" stroke-linecap="round" stroke-linejoin="round"/>
    <path d="M 229.94630432128906 206.98916625976562 C 234.88558959960938 211.79270935058594 234.53280639648438 214.29019165039062 230.3957977294922 208.62953186035156" stroke-width="3.0" fill="none" stroke="rgb(0, 0, 0)" stroke-opacity="0.77543485" stroke-linecap="round" stroke-linejoin="round"/>
    <path d="M 61.29671096801758 118.28028106689453 C 81.11896514892578 99.43495178222656 92.44493103027344 37.315677642822266 68.39888000488281 110.24883270263672" stroke-width="3.0" fill="none" stroke="rgb(-1, -1, 2)" stroke-opacity="0.13252802" stroke-linecap="round" stroke-linejoin="round"/>
    <path d="M 87.93742370605469 5.5555596351623535 C 156.13088989257812 35.92422103881836 87.18401336669922 -5.627065658569336 167.39027404785156 24.184560775756836" stroke-width="3.0" fill="none" stroke="rgb(-3, 0, 3)" stroke-opacity="0.024379466" stroke-linecap="round" stroke-linejoin="round"/>
    <path d="M 16.53212547302246 133.4263916015625 C 21.650741577148438 85.64720153808594 19.841035842895508 174.9415740966797 13.89675521850586 158.55648803710938" stroke-width="3.0" fill="none" stroke="rgb(1, -2, 2)" stroke-opacity="0.31795552" stroke-linecap="round" stroke-linejoin="round"/>
    <path d="M 78.78217315673828 93.65855407714844 C 84.48043060302734 61.54413986206055 84.84432220458984 122.08698272705078 70.24835205078125 81.47683715820312" stroke-width="3.0" fill="none" stroke="rgb(1, 0, 0)" stroke-opacity="0.29400215" stroke-linecap="round" stroke-linejoin="round"/>
    <path d="M 20.340700149536133 95.87385559082031 C 17.660484313964844 173.2859344482422 25.695045471191406 90.43162536621094 22.54376220703125 108.75386810302734" stroke-width="3.0" fill="none" stroke="rgb(1, -1, 0)" stroke-opacity="0.19199735" stroke-linecap="round" stroke-linejoin="round"/>
    <path d="M 84.77652740478516 232.32601928710938 C 81.02213287353516 230.63417053222656 65.95507049560547 230.89776611328125 66.38863372802734 232.78871154785156" stroke-width="3.0" fill="none" stroke="rgb(0, 0, 0)" stroke-opacity="0.88995963" stroke-linecap="round" stroke-linejoin="round"/>
    <path d="M 73.2026138305664 33.21843719482422 C 89.84915924072266 40.73139953613281 60.440364837646484 20.863746643066406 77.3642807006836 37.05903625488281" stroke-width="3.0" fill="none" stroke="rgb(1, -1, 1)" stroke-opacity="0.18137726" stroke-linecap="round" stroke-linejoin="round"/>
    <path d="M 85.91326141357422 131.51402282714844 C 97.08251953125 160.9102783203125 83.36873626708984 141.33352661132812 91.4562759399414 166.83578491210938" stroke-width="3.0" fill="none" stroke="rgb(0, -2, 2)" stroke-opacity="0.28745094" stroke-linecap="round" stroke-linejoin="round"/>
    <path d="M 109.38863372802734 81.34724426269531 C 243.34181213378906 82.34256744384766 318.618896484375 77.5672836303711 110.40499114990234 79.30155944824219" stroke-width="3.0" fill="none" stroke="rgb(-5, 5, 3)" stroke-opacity="0.16339304" stroke-linecap="round" stroke-linejoin="round"/>
    <path d="M 100.98377990722656 77.5391845703125 C 119.81864166259766 30.060922622680664 77.84367370605469 55.0880241394043 85.0618667602539 24.910600662231445" stroke-width="3.0" fill="none" stroke="rgb(-3, 0, 2)" stroke-opacity="0.17150714" stroke-linecap="round" stroke-linejoin="round"/>
    <path d="M 212.59193420410156 136.43356323242188 C 198.9352264404297 126.07533264160156 245.53416442871094 119.11865234375 170.91641235351562 120.44952392578125" stroke-width="3.0" fill="none" stroke="rgb(-1, 1, -1)" stroke-opacity="0.01808463" stroke-linecap="round" stroke-linejoin="round"/>
    <path d="M 71.56051635742188 154.94711303710938 C 57.63470458984375 91.73678588867188 39.43654251098633 129.72219848632812 57.9639778137207 110.08564758300781" stroke-width="3.0" fill="none" stroke="rgb(-1, -1, 2)" stroke-opacity="0.117365874" stroke-linecap="round" stroke-linejoin="round"/>
    <path d="M 225.12962341308594 170.01686096191406 C 135.5577392578125 165.1667938232422 139.3904571533203 161.65664672851562 220.60223388671875 196.45828247070312" stroke-width="3.0" fill="none" stroke="rgb(-1, 2, -2)" stroke-opacity="0.013578856" stroke-linecap="round" stroke-linejoin="round"/>
    <path d="M 92.2103042602539 187.115234375 C 325.4830017089844 175.80421447753906 342.74755859375 169.1963348388672 104.73331451416016 177.7752227783203" stroke-width="3.0" fill="none" stroke="rgb(-3, 1, 3)" stroke-opacity="0.17025347" stroke-linecap="round" stroke-linejoin="round"/>
    <path d="M 15.434887886047363 61.414039611816406 C -4.932101726531982 94.11911010742188 20.26173210144043 132.21339416503906 13.474648475646973 110.39804077148438" stroke-width="3.0" fill="none" stroke="rgb(-1, 2, -1)" stroke-opacity="0.17341346" stroke-linecap="round" stroke-linejoin="round"/>
    <path d="M 76.78581237792969 68.52606964111328 C 112.44239044189453 45.03794860839844 68.44583129882812 69.27941131591797 93.13793182373047 44.71257781982422" stroke-width="3.0" fill="none" stroke="rgb(-1, 0, 1)" stroke-opacity="0.07044868" stroke-linecap="round" stroke-linejoin="round"/>
    <path d="M 72.36013793945312 87.6811752319336 C 67.14761352539062 86.100341796875 82.40618133544922 95.66136169433594 76.11225128173828 86.51943969726562" stroke-width="3.0" fill="none" stroke="rgb(1, -1, 0)" stroke-opacity="0.53400713" stroke-linecap="round" stroke-linejoin="round"/>
    <path d="M 77.20850372314453 70.27116394042969 C 100.80310821533203 23.88873863220215 102.1253433227539 73.80917358398438 105.74715423583984 45.9964714050293" stroke-width="3.0" fill="none" stroke="rgb(-2, 0, 1)" stroke-opacity="0.06908063" stroke-linecap="round" stroke-linejoin="round"/>
    <path d="M 2.0227277278900146 83.89012145996094 C 29.373851776123047 46.53635787963867 -31.86371612548828 89.14775085449219 11.768932342529297 59.90053176879883" stroke-width="3.0" fill="none" stroke="rgb(1, 0, -2)" stroke-opacity="0.073230535" stroke-linecap="round" stroke-linejoin="round"/>
    <path d="M 62.82291793823242 146.69735717773438 C 27.699951171875 93.1175537109375 51.13611602783203 105.90731811523438 44.60972595214844 91.75424194335938" stroke-width="3.0" fill="none" stroke="rgb(0, -1, 2)" stroke-opacity="0.06177771" stroke-linecap="round" stroke-linejoin="round"/>
    <path d="M 142.76876831054688 120.72603607177734 C 37.55546188354492 117.44381713867188 -19.008197784423828 126.87610626220703 163.92442321777344 121.82896423339844" stroke-width="3.0" fill="none" stroke="rgb(-2, 1, -2)" stroke-opacity="0.027397305" stroke-linecap="round" stroke-linejoin="round"/>
    <path d="M 21.50376319885254 125.36317443847656 C 39.522884368896484 102.1211166381836 -2.426300048828125 95.74522399902344 32.031314849853516 116.3946304321289" stroke-width="3.0" fill="none" stroke="rgb(2, 1, -2)" stroke-opacity="0.36012706" stroke-linecap="round" stroke-linejoin="round"/>
    <path d="M 233.3909454345703 204.17721557617188 C 230.9630584716797 210.7913360595703 235.52252197265625 212.1088409423828 231.71551513671875 222.23538208007812" stroke-width="3.0" fill="none" stroke="rgb(0, 0, 0)" stroke-opacity="0.8184149" stroke-linecap="round" stroke-linejoin="round"/>
    <path d="M 87.4921875 37.51190948486328 C 104.34307098388672 46.671302795410156 99.8359146118164 34.245811462402344 105.74601745605469 86.65029907226562" stroke-width="3.0" fill="none" stroke="rgb(-2, 0, 2)" stroke-opacity="0.17890558" stroke-linecap="round" stroke-linejoin="round"/>
    <path d="M 91.54606628417969 56.893924713134766 C 71.82513427734375 59.86935806274414 78.09553527832031 74.9290771484375 81.9665756225586 57.165279388427734" stroke-width="3.0" fill="none" stroke="rgb(-1, 0, 1)" stroke-opacity="0.086403854" stroke-linecap="round" stroke-linejoin="round"/>
    <path d="M 19.46109962463379 105.76659393310547 C 67.93928527832031 134.8037872314453 32.753082275390625 112.24412536621094 57.47121810913086 142.06480407714844" stroke-width="3.0" fill="none" stroke="rgb(0, 0, 1)" stroke-opacity="0.13044477" stroke-linecap="round" stroke-linejoin="round"/>
    <path d="M 41.63355255126953 119.66710662841797 C 13.480527877807617 112.8863525390625 1.0592691898345947 79.05474090576172 22.34229278564453 161.55340576171875" stroke-width="3.0" fill="none" stroke="rgb(-1, 0, 1)" stroke-opacity="0.10285884" stroke-linecap="round" stroke-linejoin="round"/>
    <path d="M 67.87405395507812 -8.59922981262207 C 69.40679931640625 -5.721190452575684 67.3546142578125 -4.4967122077941895 59.4124641418457 -5.946704864501953" stroke-width="3.0" fill="none" stroke="rgb(0, 0, 0)" stroke-opacity="0.8836941" stroke-linecap="round" stroke-linejoin="round"/>
    <path d="M 87.03297424316406 22.481698989868164 C 102.97322845458984 40.47480010986328 112.94381713867188 58.19051742553711 86.25224304199219 27.520343780517578" stroke-width="3.0" fill="none" stroke="rgb(1, -3, 2)" stroke-opacity="0.2351218" stroke-linecap="round" stroke-linejoin="round"/>
    <path d="M 147.9898681640625 36.91112518310547 C 21.732627868652344 38.122032165527344 229.3987274169922 32.54945755004883 98.7688980102539 31.524507522583008" stroke-width="3.0" fill="none" stroke="rgb(-1, 2, -1)" stroke-opacity="0.015647424" stroke-linecap="round" stroke-linejoin="round"/>
    <path d="M 101.98271942138672 184.8616485595703 C 94.21625518798828 183.96328735351562 98.7206802368164 165.9475860595703 104.12759399414062 189.58753967285156" stroke-width="3.0" fill="none" stroke="rgb(1, -2, 2)" stroke-opacity="0.450494" stroke-linecap="round" stroke-linejoin="round"/>
    <path d="M 48.91117477416992 161.25152587890625 C -5.612688064575195 183.33340454101562 230.1227569580078 176.93443298339844 45.229366302490234 172.088134765625" stroke-width="3.0" fill="none" stroke="rgb(0, 0, 0)" stroke-opacity="0.12220642" stroke-linecap="round" stroke-linejoin="round"/>
    <path d="M 110.26415252685547 51.27159118652344 C 196.62811279296875 50.37301254272461 194.6439666748047 51.803287506103516 143.33135986328125 51.00957107543945" stroke-width="3.0" fill="none" stroke="rgb(-3, 0, 2)" stroke-opacity="0.02670867" stroke-linecap="round" stroke-linejoin="round"/>
    <path d="M 64.17013549804688 15.757872581481934 C 74.7874755859375 41.15186309814453 80.15200805664062 25.680007934570312 73.58271789550781 31.911386489868164" stroke-width="3.0" fill="none" stroke="rgb(0, -1, 1)" stroke-opacity="0.25417826" stroke-linecap="round" stroke-linejoin="round"/>
    <path d="M -9.823592185974121 34.106998443603516 C 21.582813262939453 37.412574768066406 21.94191551208496 42.30783462524414 -2.598198890686035 36.933197021484375" stroke-width="3.0" fill="none" stroke="rgb(-1, 0, 0)" stroke-opacity="0.025945006" stroke-linecap="round" stroke-linejoin="round"/>
    <path d="M 74.47537994384766 38.36811065673828 C 84.1507339477539 -0.26336824893951416 68.41939544677734 54.829776763916016 92.96045684814453 47.079349517822266" stroke-width="3.0" fill="none" stroke="rgb(0, -1, 2)" stroke-opacity="0.11575411" stroke-linecap="round" stroke-linejoin="round"/>
    <path d="M 156.52674865722656 55.728736877441406 C 98.75247955322266 44.81599426269531 163.1231689453125 46.624176025390625 188.86465454101562 50.955726623535156" stroke-width="3.0" fill="none" stroke="rgb(-2, 0, 1)" stroke-opacity="0.0121139595" stroke-linecap="round" stroke-linejoin="round"/>
    <path d="M 100.48262786865234 91.88175964355469 C 86.23446655273438 15.16171932220459 121.5035629272461 57.8092041015625 77.43939971923828 83.15510559082031" stroke-width="3.0" fill="none" stroke="rgb(-3, 1, 3)" stroke-opacity="0.05326943" stroke-linecap="round" stroke-linejoin="round"/>
    <path d="M 180.3782196044922 76.56683349609375 C 203.1103973388672 57.615928649902344 263.7738342285156 82.42955780029297 180.79322814941406 68.60430908203125" stroke-width="3.0" fill="none" stroke="rgb(-3, 3, -2)" stroke-opacity="0.10620643" stroke-linecap="round" stroke-linejoin="round"/>
    <path d="M 83.08723449707031 52.56855392456055 C 106.5718002319336 48.725929260253906 82.03227233886719 58.842498779296875 93.19501495361328 53.275421142578125" stroke-width="3.0" fill="none" stroke="rgb(0, 0, 0)" stroke-opacity="0.32678595" stroke-linecap="round" stroke-linejoin="round"/>
    <path d="M 51.3007698059082 118.23796081542969 C 76.38074493408203 93.27342987060547 54.40802764892578 163.790283203125 61.37548828125 111.00809478759766" stroke-width="3.0" fill="none" stroke="rgb(2, -2, 0)" stroke-opacity="0.09919128" stroke-linecap="round" stroke-linejoin="round"/>
    <path d="M 226.9480743408203 61.11992263793945 C 228.01095581054688 63.44551086425781 230.5587158203125 54.6082878112793 238.63604736328125 56.034080505371094" stroke-width="3.0" fill="none" stroke="rgb(0, 0, 0)" stroke-opacity="0.63359886" stroke-linecap="round" stroke-linejoin="round"/>
    <path d="M 96.48051452636719 152.26071166992188 C 78.56952667236328 212.2123260498047 106.72456359863281 167.624267578125 75.00366973876953 177.27737426757812" stroke-width="3.0" fill="none" stroke="rgb(0, -1, 2)" stroke-opacity="0.14695922" stroke-linecap="round" stroke-linejoin="round"/>
    <path d="M 65.71251678466797 211.83351135253906 C 23.680025100708008 219.22500610351562 68.29588317871094 215.65728759765625 57.42963409423828 218.46238708496094" stroke-width="3.0" fill="none" stroke="rgb(-1, 1, -1)" stroke-opacity="0.026488451" stroke-linecap="round" stroke-linejoin="round"/>
    <path d="M 141.76622009277344 72.98915100097656 C 145.6424560546875 98.8612289428711 180.64208984375 60.66019058227539 147.46055603027344 72.80014038085938" stroke-width="3.0" fill="none" stroke="rgb(-1, 0, 1)" stroke-opacity="0.08160704" stroke-linecap="round" stroke-linejoin="round"/>
    <path d="M 109.69599914550781 6.445967197418213 C -90.06256103515625 52.23704147338867 20.009849548339844 52.773887634277344 138.73974609375 7.847208023071289" stroke-width="3.0" fill="none" stroke="rgb(-2, 2, 1)" stroke-opacity="0.011795105" stroke-linecap="round" stroke-linejoin="round"/>
    <path d="M 202.09860229492188 33.88996124267578 C 202.07339477539062 35.804866790771484 202.11965942382812 26.473369598388672 143.53297424316406 32.31454086303711" stroke-width="3.0" fill="none" stroke="rgb(0, 0, -1)" stroke-opacity="0.01075591" stroke-linecap="round" stroke-linejoin="round"/>
    <path d="M 59.02195739746094 -1.3203984498977661 C 45.0677490234375 26.21918487548828 59.199241638183594 23.9315242767334 59.379615783691406 21.839906692504883" stroke-width="3.0" fill="none" stroke="rgb(0, 0, 0)" stroke-opacity="0.012528177" stroke-linecap="round" stroke-linejoin="round"/>
    <path d="M 35.62171173095703 58.05409240722656 C 10.103031158447266 58.1863899230957 5.301019668579102 152.71533203125 26.01437759399414 72.20692443847656" stroke-width="3.0" fill="none" stroke="rgb(-2, -1, 2)" stroke-opacity="0.054887902" stroke-linecap="round" stroke-linejoin="round"/>
    <path d="M 219.16175842285156 129.4674072265625 C 184.15020751953125 137.92955017089844 217.03802490234375 103.49674224853516 215.544921875 117.88790130615234" stroke-width="3.0" fill="none" stroke="rgb(0, 0, -1)" stroke-opacity="0.016779883" stroke-linecap="round" stroke-linejoin="round"/>
    <path d="M 61.97511291503906 68.89639282226562 C 47.10792541503906 110.67024993896484 105.24663543701172 86.97831726074219 97.62454986572266 84.29291534423828" stroke-width="3.0" fill="none" stroke="rgb(0, 0, 0)" stroke-opacity="0.02429857" stroke-linecap="round" stroke-linejoin="round"/>
    <path d="M 58.0919189453125 42.09581756591797 C 62.31731033325195 45.00837707519531 80.88330078125 33.21516799926758 68.9209976196289 54.44123840332031" stroke-width="3.0" fill="none" stroke="rgb(0, 0, -2)" stroke-opacity="0.053631485" stroke-linecap="round" stroke-linejoin="round"/>
  </g>
</svg>
