<?xml version="1.0" ?>
<svg xmlns="http://www.w3.org/2000/svg" version="1.1" width="224" height="224">
  <defs/>
  <g>
    <path d="M 73.99994659423828 84.00523376464844 C 75.56143188476562 80.67828369140625 73.04088592529297 77.57931518554688 73.69044494628906 79.55895233154297" stroke-width="3.0" fill="none" stroke="rgb(2, 2, 2)" stroke-opacity="0.99000007" stroke-linecap="round" stroke-linejoin="round"/>
    <path d="M 115.00008392333984 199.0000457763672 C 121.39212799072266 196.37319946289062 120.51720428466797 189.10775756835938 117.36592102050781 189.1682891845703" stroke-width="3.0" fill="none" stroke="rgb(2, 2, 2)" stroke-opacity="0.99" stroke-linecap="round" stroke-linejoin="round"/>
    <path d="M 7.0001912117004395 139.99972534179688 C 3.696591377258301 134.62742614746094 5.375331878662109 137.12928771972656 2.244668483734131 138.12802124023438" stroke-width="3.0" fill="none" stroke="rgb(2, 2, -2)" stroke-opacity="0.99000007" stroke-linecap="round" stroke-linejoin="round"/>
    <path d="M 159.00015258789062 116.9996566772461 C 162.466064453125 109.47333526611328 165.89227294921875 113.69082641601562 164.1016845703125 109.833251953125" stroke-width="3.0" fill="none" stroke="rgb(2, 2, 2)" stroke-opacity="0.99000007" stroke-linecap="round" stroke-linejoin="round"/>
    <path d="M 162.0001983642578 45.000083923339844 C 169.12071228027344 45.16956329345703 164.55941772460938 40.65277862548828 166.45156860351562 41.81473159790039" stroke-width="3.0" fill="none" stroke="rgb(2, 2, 2)" stroke-opacity="0.99000007" stroke-linecap="round" stroke-linejoin="round"/>
    <path d="M 194.0012969970703 23.999027252197266 C 199.4395294189453 24.573545455932617 197.8478240966797 29.872812271118164 196.49473571777344 30.454906463623047" stroke-width="3.0" fill="none" stroke="rgb(2, 2, 2)" stroke-opacity="0.99000007" stroke-linecap="round" stroke-linejoin="round"/>
    <path d="M 122.0009765625 173.99948120117188 C 127.68865203857422 173.3279266357422 131.73985290527344 176.19320678710938 134.0313262939453 171.10633850097656" stroke-width="3.0" fill="none" stroke="rgb(2, 2, 2)" stroke-opacity="0.99000007" stroke-linecap="round" stroke-linejoin="round"/>
    <path d="M 54.00074768066406 116.00019073486328 C 50.9534797668457 115.64044952392578 46.247161865234375 112.64778137207031 43.7772102355957 108.16183471679688" stroke-width="3.0" fill="none" stroke="rgb(2, 2, 2)" stroke-opacity="0.99" stroke-linecap="round" stroke-linejoin="round"/>
    <path d="M 222.99990844726562 133.99990844726562 C 224.51856994628906 132.48550415039062 223.064453125 129.2322235107422 220.45205688476562 132.12411499023438" stroke-width="3.0" fill="none" stroke="rgb(2, 2, 2)" stroke-opacity="0.99000007" stroke-linecap="round" stroke-linejoin="round"/>
    <path d="M 22.000320434570312 10.000275611877441 C 23.66067886352539 13.222047805786133 21.97390365600586 15.788396835327148 18.204742431640625 14.438288688659668" stroke-width="3.0" fill="none" stroke="rgb(2, 2, 2)" stroke-opacity="0.99000007" stroke-linecap="round" stroke-linejoin="round"/>
    <path d="M 51.99981689453125 207.9993896484375 C 57.482269287109375 207.56834411621094 58.1201286315918 209.635986328125 59.96056365966797 212.7270050048828" stroke-width="3.0" fill="none" stroke="rgb(2, 2, 2)" stroke-opacity="0.99" stroke-linecap="round" stroke-linejoin="round"/>
    <path d="M 49.99675369262695 164.99974060058594 C 46.96495056152344 157.75970458984375 44.89807891845703 155.1584014892578 41.6612548828125 162.1185760498047" stroke-width="3.0" fill="none" stroke="rgb(2, 2, 2)" stroke-opacity="0.99000007" stroke-linecap="round" stroke-linejoin="round"/>
    <path d="M 165.0003204345703 57.00023651123047 C 171.2144775390625 56.9239501953125 172.95166015625 53.76336669921875 175.5998992919922 53.29487609863281" stroke-width="3.0" fill="none" stroke="rgb(2, 2, 2)" stroke-opacity="0.99000007" stroke-linecap="round" stroke-linejoin="round"/>
    <path d="M 77.99994659423828 51.000152587890625 C 75.36615753173828 48.16297149658203 74.0623550415039 47.48149871826172 75.00157165527344 51.959861755371094" stroke-width="3.0" fill="none" stroke="rgb(2, 2, -2)" stroke-opacity="0.9900001" stroke-linecap="round" stroke-linejoin="round"/>
    <path d="M 173.9999237060547 52.99971389770508 C 172.87278747558594 47.85966491699219 178.44290161132812 47.96404266357422 173.86380004882812 42.89110565185547" stroke-width="3.0" fill="none" stroke="rgb(2, 2, -2)" stroke-opacity="0.99000007" stroke-linecap="round" stroke-linejoin="round"/>
    <path d="M 37.00029754638672 73.00028228759766 C 34.625003814697266 74.44410705566406 37.89645767211914 73.55767059326172 33.01076889038086 72.23003387451172" stroke-width="3.0" fill="none" stroke="rgb(2, 2, 2)" stroke-opacity="0.99000007" stroke-linecap="round" stroke-linejoin="round"/>
    <path d="M 8.999916076660156 105.00009155273438 C 12.557618141174316 107.2913589477539 17.834096908569336 111.36604309082031 14.361084938049316 113.83871459960938" stroke-width="3.0" fill="none" stroke="rgb(2, 2, 2)" stroke-opacity="0.99000007" stroke-linecap="round" stroke-linejoin="round"/>
    <path d="M 173.0006103515625 92.00008392333984 C 175.03610229492188 92.41431427001953 172.4253387451172 93.992919921875 170.0728759765625 93.26223754882812" stroke-width="3.0" fill="none" stroke="rgb(2, 2, 2)" stroke-opacity="0.99000007" stroke-linecap="round" stroke-linejoin="round"/>
    <path d="M 150.00021362304688 71.99971008300781 C 151.4812774658203 75.08699798583984 153.69189453125 72.43555450439453 153.6979522705078 70.83344268798828" stroke-width="3.0" fill="none" stroke="rgb(2, -2, 2)" stroke-opacity="0.9900005" stroke-linecap="round" stroke-linejoin="round"/>
    <path d="M 194.99972534179688 118.99991607666016 C 197.62246704101562 123.14896392822266 195.37289428710938 124.70296478271484 196.58457946777344 118.81849670410156" stroke-width="3.0" fill="none" stroke="rgb(2, 2, 2)" stroke-opacity="0.99000007" stroke-linecap="round" stroke-linejoin="round"/>
    <path d="M 39.99989318847656 42.00051498413086 C 42.93717575073242 42.44124221801758 46.05715560913086 42.7813720703125 38.467437744140625 40.8116340637207" stroke-width="3.0" fill="none" stroke="rgb(2, 2, 2)" stroke-opacity="0.9900001" stroke-linecap="round" stroke-linejoin="round"/>
    <path d="M 179.00091552734375 71.99833679199219 C 175.61785888671875 76.8055648803711 179.8567352294922 80.518798828125 177.70387268066406 73.56962585449219" stroke-width="3.0" fill="none" stroke="rgb(2, 2, 2)" stroke-opacity="0.99000007" stroke-linecap="round" stroke-linejoin="round"/>
    <path d="M 63.001930236816406 84.99974822998047 C 69.23358917236328 90.0055923461914 64.59284973144531 89.84872436523438 59.76799011230469 90.76787567138672" stroke-width="3.0" fill="none" stroke="rgb(2, 2, 2)" stroke-opacity="0.99000007" stroke-linecap="round" stroke-linejoin="round"/>
    <path d="M 154.00083923339844 95.0042953491211 C 156.98020935058594 90.84033966064453 158.6961212158203 91.53417205810547 154.0711212158203 95.56898498535156" stroke-width="3.0" fill="none" stroke="rgb(2, 2, 2)" stroke-opacity="0.9900002" stroke-linecap="round" stroke-linejoin="round"/>
    <path d="M 121.0002212524414 152.99957275390625 C 122.13858032226562 147.772705078125 122.57770538330078 150.3477020263672 119.2318115234375 148.24110412597656" stroke-width="3.0" fill="none" stroke="rgb(2, 2, -2)" stroke-opacity="0.9900002" stroke-linecap="round" stroke-linejoin="round"/>
    <path d="M 11.000411033630371 56.9998893737793 C 18.54368019104004 56.67927932739258 15.871625900268555 56.877925872802734 11.609076499938965 55.791561126708984" stroke-width="3.0" fill="none" stroke="rgb(2, 2, 2)" stroke-opacity="0.9900001" stroke-linecap="round" stroke-linejoin="round"/>
    <path d="M 130.99948120117188 103.0097427368164 C 127.18930053710938 105.98872375488281 124.1646728515625 102.85533905029297 119.3591079711914 102.3243179321289" stroke-width="3.0" fill="none" stroke="rgb(2, 2, -2)" stroke-opacity="0.9900001" stroke-linecap="round" stroke-linejoin="round"/>
    <path d="M 150.0001678466797 115.99872589111328 C 148.95819091796875 120.53346252441406 152.98196411132812 113.74073028564453 148.0607452392578 115.62702178955078" stroke-width="3.0" fill="none" stroke="rgb(2, 2, -2)" stroke-opacity="0.9900002" stroke-linecap="round" stroke-linejoin="round"/>
    <path d="M 206.9977569580078 19.00071907043457 C 201.80105590820312 14.88382625579834 206.6783905029297 15.89236831665039 208.36651611328125 20.86505889892578" stroke-width="3.0" fill="none" stroke="rgb(2, 2, 2)" stroke-opacity="0.9900003" stroke-linecap="round" stroke-linejoin="round"/>
    <path d="M 57.99745559692383 118.99991607666016 C 59.444034576416016 115.5324478149414 54.92969512939453 114.76026153564453 54.07415008544922 112.39169311523438" stroke-width="3.0" fill="none" stroke="rgb(2, 2, 2)" stroke-opacity="0.99000007" stroke-linecap="round" stroke-linejoin="round"/>
    <path d="M 38.99991989135742 49.00008010864258 C 41.56526184082031 50.950408935546875 45.00959777832031 48.44354248046875 43.897796630859375 44.644378662109375" stroke-width="3.0" fill="none" stroke="rgb(2, 2, 2)" stroke-opacity="0.99000007" stroke-linecap="round" stroke-linejoin="round"/>
    <path d="M 170.00009155273438 24.000194549560547 C 176.0503692626953 21.18710708618164 172.58056640625 20.610748291015625 171.7059783935547 18.12920570373535" stroke-width="3.0" fill="none" stroke="rgb(2, 2, 2)" stroke-opacity="0.99000007" stroke-linecap="round" stroke-linejoin="round"/>
    <path d="M 123.00018310546875 199.9999237060547 C 120.1986083984375 202.7419891357422 119.56143951416016 206.78848266601562 120.12459564208984 203.74334716796875" stroke-width="3.0" fill="none" stroke="rgb(2, 2, 2)" stroke-opacity="0.99000007" stroke-linecap="round" stroke-linejoin="round"/>
    <path d="M 189.00193786621094 205.99864196777344 C 196.5911102294922 207.7638397216797 201.84410095214844 212.53909301757812 205.74932861328125 208.8016357421875" stroke-width="3.0" fill="none" stroke="rgb(2, 2, -2)" stroke-opacity="0.99000007" stroke-linecap="round" stroke-linejoin="round"/>
    <path d="M 108.00106811523438 158.99986267089844 C 107.83979797363281 155.79225158691406 106.73168182373047 150.8483428955078 105.37604522705078 156.2835235595703" stroke-width="3.0" fill="none" stroke="rgb(2, 2, 2)" stroke-opacity="0.99000007" stroke-linecap="round" stroke-linejoin="round"/>
    <path d="M 43.00014114379883 73.00045776367188 C 40.370914459228516 76.18287658691406 39.867149353027344 77.31822204589844 46.98759460449219 80.86842346191406" stroke-width="3.0" fill="none" stroke="rgb(2, 2, 2)" stroke-opacity="0.99000007" stroke-linecap="round" stroke-linejoin="round"/>
    <path d="M 179.00616455078125 31.941879272460938 C 179.74069213867188 33.8437614440918 175.36279296875 31.47568702697754 180.0082550048828 32.056400299072266" stroke-width="3.0" fill="none" stroke="rgb(2, 2, 2)" stroke-opacity="0.99000096" stroke-linecap="round" stroke-linejoin="round"/>
    <path d="M 45.99995422363281 130.99986267089844 C 46.472450256347656 133.7770538330078 39.51810073852539 132.7378387451172 39.54501724243164 138.42649841308594" stroke-width="3.0" fill="none" stroke="rgb(2, 2, 2)" stroke-opacity="0.99000007" stroke-linecap="round" stroke-linejoin="round"/>
    <path d="M 215.0000762939453 93.00244140625 C 211.1636962890625 98.16117858886719 206.46160888671875 96.63925170898438 209.52325439453125 96.60479736328125" stroke-width="3.0" fill="none" stroke="rgb(2, 2, 2)" stroke-opacity="0.99000007" stroke-linecap="round" stroke-linejoin="round"/>
    <path d="M 177.99974060058594 37.0001335144043 C 175.03399658203125 34.74164962768555 179.40509033203125 31.899229049682617 180.46336364746094 31.238109588623047" stroke-width="3.0" fill="none" stroke="rgb(2, 2, -2)" stroke-opacity="0.9900001" stroke-linecap="round" stroke-linejoin="round"/>
    <path d="M 17.000064849853516 101.00028228759766 C 16.095510482788086 101.93775177001953 16.350749969482422 106.80652618408203 13.038329124450684 109.22761535644531" stroke-width="3.0" fill="none" stroke="rgb(2, 2, 2)" stroke-opacity="0.9900001" stroke-linecap="round" stroke-linejoin="round"/>
    <path d="M 8.00013542175293 17.999853134155273 C 5.073606967926025 16.8325252532959 8.995307922363281 14.592281341552734 6.9373321533203125 15.413796424865723" stroke-width="3.0" fill="none" stroke="rgb(2, 2, 2)" stroke-opacity="0.9900001" stroke-linecap="round" stroke-linejoin="round"/>
    <path d="M 44.99952697753906 185.00021362304688 C 38.21387481689453 184.5345916748047 45.78683090209961 190.08985900878906 39.01709747314453 186.8767547607422" stroke-width="3.0" fill="none" stroke="rgb(2, 2, 2)" stroke-opacity="0.9900001" stroke-linecap="round" stroke-linejoin="round"/>
    <path d="M 54.00251388549805 65.00022888183594 C 53.370018005371094 71.85082244873047 57.63364791870117 76.09967803955078 56.16896057128906 70.26824188232422" stroke-width="3.0" fill="none" stroke="rgb(2, 2, 2)" stroke-opacity="0.99000025" stroke-linecap="round" stroke-linejoin="round"/>
    <path d="M 58.00020980834961 126.99990844726562 C 61.73863983154297 129.27894592285156 62.99123764038086 134.67547607421875 66.71295928955078 129.2240447998047" stroke-width="3.0" fill="none" stroke="rgb(2, 2, -2)" stroke-opacity="0.99000007" stroke-linecap="round" stroke-linejoin="round"/>
    <path d="M 79.99993896484375 74.00010681152344 C 81.55259704589844 71.75382995605469 83.43435668945312 76.67240905761719 81.28472900390625 72.36215209960938" stroke-width="3.0" fill="none" stroke="rgb(2, 2, -2)" stroke-opacity="0.9900001" stroke-linecap="round" stroke-linejoin="round"/>
    <path d="M 93.00057983398438 104.00008392333984 C 88.60318756103516 104.59667205810547 86.05066680908203 105.77125549316406 88.4864730834961 102.4505615234375" stroke-width="3.0" fill="none" stroke="rgb(2, 2, 2)" stroke-opacity="0.99000007" stroke-linecap="round" stroke-linejoin="round"/>
    <path d="M 134.9999237060547 108.99987030029297 C 136.50254821777344 104.35704803466797 136.3745574951172 108.89682006835938 140.250732421875 106.32660675048828" stroke-width="3.0" fill="none" stroke="rgb(2, 2, -2)" stroke-opacity="0.99000007" stroke-linecap="round" stroke-linejoin="round"/>
    <path d="M 216.9998321533203 52.99726867675781 C 216.13848876953125 50.49846649169922 210.58238220214844 53.53490447998047 212.11929321289062 50.86910629272461" stroke-width="3.0" fill="none" stroke="rgb(2, 2, 2)" stroke-opacity="0.99000007" stroke-linecap="round" stroke-linejoin="round"/>
    <path d="M 36.0013427734375 207.99969482421875 C 38.70315933227539 208.57814025878906 37.8951530456543 203.08689880371094 33.134708404541016 207.37770080566406" stroke-width="3.0" fill="none" stroke="rgb(2, 2, 2)" stroke-opacity="0.99000007" stroke-linecap="round" stroke-linejoin="round"/>
    <path d="M 40.99839782714844 150.99879455566406 C 43.53157424926758 149.51077270507812 47.272220611572266 150.43507385253906 43.33030319213867 148.26197814941406" stroke-width="3.0" fill="none" stroke="rgb(2, 2, -2)" stroke-opacity="0.99000007" stroke-linecap="round" stroke-linejoin="round"/>
    <path d="M 104.00012969970703 194.0004119873047 C 101.85284423828125 198.46878051757812 105.17076873779297 202.508544921875 111.63664245605469 199.2613983154297" stroke-width="3.0" fill="none" stroke="rgb(2, 2, 2)" stroke-opacity="0.99000007" stroke-linecap="round" stroke-linejoin="round"/>
    <path d="M 10.003748893737793 182.98866271972656 C 7.195470333099365 178.5493621826172 10.332661628723145 182.85255432128906 11.282621383666992 184.20455932617188" stroke-width="3.0" fill="none" stroke="rgb(2, 2, -2)" stroke-opacity="0.99000055" stroke-linecap="round" stroke-linejoin="round"/>
    <path d="M 147.9998779296875 116.9989242553711 C 144.13079833984375 119.82413482666016 148.21408081054688 126.85896301269531 149.69537353515625 129.42031860351562" stroke-width="3.0" fill="none" stroke="rgb(2, 2, -2)" stroke-opacity="0.99" stroke-linecap="round" stroke-linejoin="round"/>
    <path d="M 96.99931335449219 188.00027465820312 C 89.67790985107422 190.64974975585938 89.79739379882812 195.47515869140625 93.1821517944336 199.5523681640625" stroke-width="3.0" fill="none" stroke="rgb(2, 2, 2)" stroke-opacity="0.99" stroke-linecap="round" stroke-linejoin="round"/>
    <path d="M 168.00010681152344 29.00031089782715 C 171.48086547851562 26.38864517211914 174.70005798339844 22.553924560546875 178.8682098388672 28.014968872070312" stroke-width="3.0" fill="none" stroke="rgb(2, 2, 2)" stroke-opacity="0.99000007" stroke-linecap="round" stroke-linejoin="round"/>
    <path d="M 24.9998779296875 55.99964141845703 C 21.89010238647461 57.54729080200195 21.445844650268555 55.37146759033203 22.75592041015625 54.31290054321289" stroke-width="3.0" fill="none" stroke="rgb(2, 2, 2)" stroke-opacity="0.99000007" stroke-linecap="round" stroke-linejoin="round"/>
    <path d="M 168.00082397460938 20.9998836517334 C 164.66392517089844 17.56289291381836 162.7407684326172 21.64356231689453 167.9706573486328 17.17007064819336" stroke-width="3.0" fill="none" stroke="rgb(2, 2, 2)" stroke-opacity="0.99000007" stroke-linecap="round" stroke-linejoin="round"/>
    <path d="M -0.9993452429771423 77.00016021728516 C 0.5856960415840149 75.87663269042969 7.972497463226318 78.28128051757812 12.89122486114502 73.97379302978516" stroke-width="3.0" fill="none" stroke="rgb(2, 2, 2)" stroke-opacity="0.99000007" stroke-linecap="round" stroke-linejoin="round"/>
    <path d="M 90.00019836425781 87.99983978271484 C 97.26821899414062 84.39979553222656 102.44792175292969 81.77291107177734 98.06280517578125 79.04039764404297" stroke-width="3.0" fill="none" stroke="rgb(2, 2, 2)" stroke-opacity="0.99000007" stroke-linecap="round" stroke-linejoin="round"/>
    <path d="M 68.11822509765625 67.00570678710938 C 72.5550537109375 64.91477966308594 73.74728393554688 65.04229736328125 72.46314239501953 67.89864349365234" stroke-width="3.0" fill="none" stroke="rgb(2, 2, -2)" stroke-opacity="0.99000037" stroke-linecap="round" stroke-linejoin="round"/>
    <path d="M 61.00005340576172 162.00009155273438 C 58.255577087402344 164.33901977539062 54.671653747558594 171.1045684814453 55.102413177490234 173.56076049804688" stroke-width="3.0" fill="none" stroke="rgb(2, 2, 2)" stroke-opacity="0.99" stroke-linecap="round" stroke-linejoin="round"/>
    <path d="M 175.0003204345703 82.99983215332031 C 179.70948791503906 84.90872192382812 178.18731689453125 78.09764862060547 178.02865600585938 78.19170379638672" stroke-width="3.0" fill="none" stroke="rgb(2, 2, 2)" stroke-opacity="0.99000007" stroke-linecap="round" stroke-linejoin="round"/>
    <path d="M 191.9998779296875 68.00216674804688 C 187.91650390625 71.89936065673828 190.37864685058594 69.66651153564453 188.24143981933594 70.63522338867188" stroke-width="3.0" fill="none" stroke="rgb(2, 2, -2)" stroke-opacity="0.9900001" stroke-linecap="round" stroke-linejoin="round"/>
    <path d="M 60.00009536743164 108.99983978271484 C 60.90571594238281 104.7121810913086 56.73057556152344 103.82148742675781 61.66447448730469 105.80656433105469" stroke-width="3.0" fill="none" stroke="rgb(2, 2, 2)" stroke-opacity="0.9900002" stroke-linecap="round" stroke-linejoin="round"/>
    <path d="M 72.0003662109375 43.99920654296875 C 76.55220031738281 45.292972564697266 74.28287506103516 45.830448150634766 70.68643951416016 41.44414138793945" stroke-width="3.0" fill="none" stroke="rgb(2, 2, -2)" stroke-opacity="0.9900001" stroke-linecap="round" stroke-linejoin="round"/>
    <path d="M 211.99954223632812 156.99827575683594 C 209.2152557373047 155.8973388671875 210.94754028320312 155.5054168701172 210.29966735839844 154.29701232910156" stroke-width="3.0" fill="none" stroke="rgb(2, 2, -2)" stroke-opacity="0.99000007" stroke-linecap="round" stroke-linejoin="round"/>
    <path d="M 171.99954223632812 27.99913787841797 C 171.69769287109375 32.48772430419922 175.01222229003906 28.79081916809082 170.36361694335938 28.966596603393555" stroke-width="3.0" fill="none" stroke="rgb(2, 2, 2)" stroke-opacity="0.9900005" stroke-linecap="round" stroke-linejoin="round"/>
    <path d="M 163.9998779296875 214.00009155273438 C 165.48464965820312 212.15415954589844 169.0526123046875 214.96693420410156 168.99192810058594 213.8826904296875" stroke-width="3.0" fill="none" stroke="rgb(2, 2, 2)" stroke-opacity="0.99000007" stroke-linecap="round" stroke-linejoin="round"/>
    <path d="M 98.00016784667969 148.00042724609375 C 96.63002014160156 142.6741180419922 93.772216796875 142.39561462402344 95.68964385986328 137.61087036132812" stroke-width="3.0" fill="none" stroke="rgb(2, 2, 2)" stroke-opacity="0.99000007" stroke-linecap="round" stroke-linejoin="round"/>
    <path d="M 176.00013732910156 54.001075744628906 C 177.0302734375 57.451900482177734 173.61688232421875 59.65138626098633 173.55368041992188 56.78078079223633" stroke-width="3.0" fill="none" stroke="rgb(2, 2, 2)" stroke-opacity="0.9900001" stroke-linecap="round" stroke-linejoin="round"/>
    <path d="M 23.999326705932617 1.0013532638549805 C 23.74822425842285 -4.537299156188965 26.560382843017578 -1.511901617050171 22.159700393676758 -2.3490536212921143" stroke-width="3.0" fill="none" stroke="rgb(2, 2, -2)" stroke-opacity="0.9900006" stroke-linecap="round" stroke-linejoin="round"/>
    <path d="M 56.00008773803711 159.00015258789062 C 52.37055587768555 164.12933349609375 52.571529388427734 159.09173583984375 49.76253128051758 162.9930877685547" stroke-width="3.0" fill="none" stroke="rgb(2, 2, 2)" stroke-opacity="0.99000007" stroke-linecap="round" stroke-linejoin="round"/>
    <path d="M 158.9999237060547 132.0001678466797 C 158.5122833251953 135.37684631347656 160.38905334472656 140.8413543701172 161.4571533203125 147.8805694580078" stroke-width="3.0" fill="none" stroke="rgb(2, 2, 2)" stroke-opacity="0.99000007" stroke-linecap="round" stroke-linejoin="round"/>
    <path d="M 65.9997787475586 137.00039672851562 C 68.38561248779297 140.2612762451172 70.84801483154297 140.31103515625 74.54277038574219 140.85101318359375" stroke-width="3.0" fill="none" stroke="rgb(2, 2, 2)" stroke-opacity="0.99000007" stroke-linecap="round" stroke-linejoin="round"/>
    <path d="M 59.99939727783203 149.99990844726562 C 62.45118713378906 150.73280334472656 62.16847610473633 148.0335693359375 59.33438491821289 149.57415771484375" stroke-width="3.0" fill="none" stroke="rgb(2, 2, -2)" stroke-opacity="0.9900001" stroke-linecap="round" stroke-linejoin="round"/>
    <path d="M 60.999542236328125 26.000133514404297 C 61.97739028930664 28.23771095275879 63.396846771240234 25.713788986206055 60.664058685302734 23.31414031982422" stroke-width="3.0" fill="none" stroke="rgb(2, 2, 2)" stroke-opacity="0.99000007" stroke-linecap="round" stroke-linejoin="round"/>
    <path d="M 24.999345779418945 83.99980163574219 C 22.442020416259766 81.9761962890625 22.891389846801758 77.93014526367188 19.88275718688965 80.0975112915039" stroke-width="3.0" fill="none" stroke="rgb(2, 2, 2)" stroke-opacity="0.99000007" stroke-linecap="round" stroke-linejoin="round"/>
    <path d="M 47.999664306640625 37.999488830566406 C 48.312320709228516 33.11838912963867 47.277320861816406 33.59377670288086 46.333736419677734 30.31304359436035" stroke-width="3.0" fill="none" stroke="rgb(2, 2, -2)" stroke-opacity="0.99000007" stroke-linecap="round" stroke-linejoin="round"/>
    <path d="M 162.99990844726562 171.00091552734375 C 162.09962463378906 177.5339813232422 161.04739379882812 179.72393798828125 165.04281616210938 182.6984405517578" stroke-width="3.0" fill="none" stroke="rgb(2, 2, 2)" stroke-opacity="0.99000007" stroke-linecap="round" stroke-linejoin="round"/>
    <path d="M 131.99932861328125 119.00048065185547 C 130.6600799560547 113.46656036376953 128.999267578125 118.29741668701172 130.9589080810547 121.3868408203125" stroke-width="3.0" fill="none" stroke="rgb(2, 2, 2)" stroke-opacity="0.9900001" stroke-linecap="round" stroke-linejoin="round"/>
    <path d="M 208.00111389160156 78.47034454345703 C 207.09439086914062 81.54730224609375 207.61187744140625 82.92644500732422 206.47940063476562 77.78663635253906" stroke-width="3.0" fill="none" stroke="rgb(-2, 2, 2)" stroke-opacity="0.99000037" stroke-linecap="round" stroke-linejoin="round"/>
    <path d="M 47.99988555908203 24.000097274780273 C 47.28109359741211 18.728126525878906 45.444557189941406 22.73064613342285 42.37449645996094 16.980236053466797" stroke-width="3.0" fill="none" stroke="rgb(2, 2, 2)" stroke-opacity="0.99000007" stroke-linecap="round" stroke-linejoin="round"/>
    <path d="M 67.00004577636719 75.99984741210938 C 66.6354751586914 69.83159637451172 68.0044174194336 64.53334045410156 68.81688690185547 65.25286865234375" stroke-width="3.0" fill="none" stroke="rgb(2, 2, 2)" stroke-opacity="0.9900002" stroke-linecap="round" stroke-linejoin="round"/>
    <path d="M 215.00030517578125 77.9998779296875 C 211.70294189453125 79.59866333007812 207.620361328125 79.16868591308594 200.58856201171875 75.81814575195312" stroke-width="3.0" fill="none" stroke="rgb(2, 2, 2)" stroke-opacity="0.99000007" stroke-linecap="round" stroke-linejoin="round"/>
    <path d="M 81.99971008300781 137.00033569335938 C 78.7697525024414 135.0618133544922 81.69474029541016 133.70803833007812 82.51902770996094 137.43508911132812" stroke-width="3.0" fill="none" stroke="rgb(2, 2, 2)" stroke-opacity="0.9900001" stroke-linecap="round" stroke-linejoin="round"/>
    <path d="M 123.00006866455078 121.00012969970703 C 122.2244873046875 116.31797790527344 116.8399658203125 116.7594985961914 120.44161224365234 115.07891082763672" stroke-width="3.0" fill="none" stroke="rgb(2, 2, 2)" stroke-opacity="0.99000007" stroke-linecap="round" stroke-linejoin="round"/>
    <path d="M 9.00027847290039 180.9998321533203 C 10.681944847106934 182.15045166015625 14.37782096862793 184.99740600585938 17.417591094970703 183.63002014160156" stroke-width="3.0" fill="none" stroke="rgb(2, 2, -2)" stroke-opacity="0.99000007" stroke-linecap="round" stroke-linejoin="round"/>
    <path d="M 155.9998779296875 97.00006866455078 C 150.6272430419922 93.10761260986328 146.44137573242188 95.00580596923828 147.15821838378906 93.84549713134766" stroke-width="3.0" fill="none" stroke="rgb(2, 2, 2)" stroke-opacity="0.99000007" stroke-linecap="round" stroke-linejoin="round"/>
    <path d="M 44.00019454956055 38.99892807006836 C 48.209327697753906 39.99562072753906 42.513999938964844 41.191871643066406 45.29046630859375 36.87449264526367" stroke-width="3.0" fill="none" stroke="rgb(2, 2, 2)" stroke-opacity="0.9900002" stroke-linecap="round" stroke-linejoin="round"/>
    <path d="M 179.999267578125 134.99891662597656 C 181.5765380859375 140.20411682128906 177.18734741210938 132.8932647705078 177.08070373535156 134.87890625" stroke-width="3.0" fill="none" stroke="rgb(2, 2, 2)" stroke-opacity="0.99000007" stroke-linecap="round" stroke-linejoin="round"/>
    <path d="M 128.00074768066406 145.00035095214844 C 135.13072204589844 145.84210205078125 135.54129028320312 139.09393310546875 137.6746826171875 140.5189208984375" stroke-width="3.0" fill="none" stroke="rgb(2, 2, -2)" stroke-opacity="0.99000007" stroke-linecap="round" stroke-linejoin="round"/>
    <path d="M 119.99978637695312 110.99930572509766 C 115.54035186767578 112.05679321289062 117.46480560302734 113.17741394042969 113.22063446044922 118.59636688232422" stroke-width="3.0" fill="none" stroke="rgb(2, 2, 2)" stroke-opacity="0.99000007" stroke-linecap="round" stroke-linejoin="round"/>
    <path d="M 40.99966049194336 149.9990997314453 C 42.16571807861328 146.28941345214844 41.36344909667969 144.8413543701172 41.430179595947266 145.0606689453125" stroke-width="3.0" fill="none" stroke="rgb(-2, 2, 2)" stroke-opacity="0.99000025" stroke-linecap="round" stroke-linejoin="round"/>
    <path d="M 177.9999542236328 101.99981689453125 C 181.91481018066406 103.6119155883789 177.49710083007812 108.77312469482422 179.01576232910156 112.45270538330078" stroke-width="3.0" fill="none" stroke="rgb(2, 2, 2)" stroke-opacity="0.99000007" stroke-linecap="round" stroke-linejoin="round"/>
    <path d="M 138.00035095214844 104.00013732910156 C 140.32225036621094 103.2782974243164 142.9404754638672 108.49567413330078 142.3650360107422 113.94239044189453" stroke-width="3.0" fill="none" stroke="rgb(2, 2, 2)" stroke-opacity="0.9900001" stroke-linecap="round" stroke-linejoin="round"/>
    <path d="M 23.00016975402832 92.00090026855469 C 25.418333053588867 93.81324005126953 24.705745697021484 96.40228271484375 22.11195182800293 98.34204864501953" stroke-width="3.0" fill="none" stroke="rgb(2, 2, -2)" stroke-opacity="0.99000007" stroke-linecap="round" stroke-linejoin="round"/>
    <path d="M 202.99964904785156 12.00014877319336 C 206.70361328125 9.370257377624512 210.9780731201172 6.50167179107666 208.58331298828125 5.737953186035156" stroke-width="3.0" fill="none" stroke="rgb(2, 2, 2)" stroke-opacity="0.99" stroke-linecap="round" stroke-linejoin="round"/>
    <path d="M 54.003028869628906 35.99979782104492 C 54.64289474487305 30.712738037109375 58.568702697753906 27.14944076538086 55.350685119628906 30.493223190307617" stroke-width="3.0" fill="none" stroke="rgb(2, 2, 2)" stroke-opacity="0.9900001" stroke-linecap="round" stroke-linejoin="round"/>
    <path d="M 208.99974060058594 15.999885559082031 C 205.2274169921875 20.198352813720703 209.4610595703125 17.750675201416016 203.978515625 22.771774291992188" stroke-width="3.0" fill="none" stroke="rgb(2, 2, 2)" stroke-opacity="0.99000007" stroke-linecap="round" stroke-linejoin="round"/>
    <path d="M 90.99977111816406 121.00045013427734 C 86.35856628417969 125.464111328125 86.23063659667969 128.3546600341797 86.36592102050781 127.99141693115234" stroke-width="3.0" fill="none" stroke="rgb(2, 2, 2)" stroke-opacity="0.9900001" stroke-linecap="round" stroke-linejoin="round"/>
    <path d="M 206.00100708007812 74.00022888183594 C 207.8967742919922 77.28487396240234 203.3392333984375 74.16500091552734 205.48728942871094 73.99131774902344" stroke-width="3.0" fill="none" stroke="rgb(2, -2, 2)" stroke-opacity="0.9900002" stroke-linecap="round" stroke-linejoin="round"/>
    <path d="M 180.00088500976562 102.00012969970703 C 180.91395568847656 101.700927734375 181.26083374023438 100.86713409423828 184.01429748535156 98.9727554321289" stroke-width="3.0" fill="none" stroke="rgb(2, 2, 2)" stroke-opacity="0.99000007" stroke-linecap="round" stroke-linejoin="round"/>
    <path d="M 147.99986267089844 185.99929809570312 C 150.2718048095703 181.4361114501953 147.48745727539062 177.18614196777344 142.04518127441406 174.923095703125" stroke-width="3.0" fill="none" stroke="rgb(2, 2, -2)" stroke-opacity="0.99000007" stroke-linecap="round" stroke-linejoin="round"/>
    <path d="M 170.00027465820312 64.99987030029297 C 170.409912109375 65.9370346069336 168.8731689453125 62.7612419128418 168.69827270507812 65.27548217773438" stroke-width="3.0" fill="none" stroke="rgb(2, 2, -2)" stroke-opacity="0.99000007" stroke-linecap="round" stroke-linejoin="round"/>
    <path d="M 99.99946594238281 90.9996566772461 C 105.33775329589844 91.23736572265625 102.90743255615234 84.80213165283203 99.48128509521484 81.7516098022461" stroke-width="3.0" fill="none" stroke="rgb(2, 2, 2)" stroke-opacity="0.9900001" stroke-linecap="round" stroke-linejoin="round"/>
    <path d="M 114.00013732910156 145.99896240234375 C 112.40959930419922 138.55934143066406 112.79178619384766 138.0303192138672 116.1045913696289 138.6282501220703" stroke-width="3.0" fill="none" stroke="rgb(2, 2, -2)" stroke-opacity="0.99000007" stroke-linecap="round" stroke-linejoin="round"/>
    <path d="M 57.000221252441406 61.99977493286133 C 59.211788177490234 55.814453125 63.33893585205078 55.712249755859375 67.51278686523438 56.54179000854492" stroke-width="3.0" fill="none" stroke="rgb(2, 2, -2)" stroke-opacity="0.99000007" stroke-linecap="round" stroke-linejoin="round"/>
    <path d="M 43.999908447265625 27.00047492980957 C 41.65740203857422 28.332778930664062 38.1223258972168 23.307226181030273 45.05832290649414 23.059120178222656" stroke-width="3.0" fill="none" stroke="rgb(2, 2, 2)" stroke-opacity="0.99000007" stroke-linecap="round" stroke-linejoin="round"/>
    <path d="M 73.00016021728516 70.00041198730469 C 78.60472106933594 68.88816833496094 73.8365707397461 70.33792877197266 66.84022521972656 66.40916442871094" stroke-width="3.0" fill="none" stroke="rgb(2, 2, 2)" stroke-opacity="0.99000007" stroke-linecap="round" stroke-linejoin="round"/>
    <path d="M 211.9997100830078 46.000587463378906 C 212.7035369873047 45.80278778076172 218.23538208007812 41.52949905395508 219.1975860595703 42.719547271728516" stroke-width="3.0" fill="none" stroke="rgb(2, 2, 2)" stroke-opacity="0.99000007" stroke-linecap="round" stroke-linejoin="round"/>
    <path d="M 182.00006103515625 190.00015258789062 C 187.2549591064453 188.92689514160156 185.5096893310547 188.37013244628906 184.8682098388672 190.40737915039062" stroke-width="3.0" fill="none" stroke="rgb(2, 2, 2)" stroke-opacity="0.99000007" stroke-linecap="round" stroke-linejoin="round"/>
    <path d="M 87.99974822998047 157.0001983642578 C 93.48762512207031 154.82046508789062 94.84246063232422 156.04840087890625 95.53311157226562 163.06033325195312" stroke-width="3.0" fill="none" stroke="rgb(2, 2, 2)" stroke-opacity="0.99000007" stroke-linecap="round" stroke-linejoin="round"/>
    <path d="M 0.9997142553329468 122.99932098388672 C -4.271293640136719 119.76065826416016 -2.468841075897217 115.90963745117188 -6.029331207275391 110.99674224853516" stroke-width="3.0" fill="none" stroke="rgb(-2, 2, 2)" stroke-opacity="0.99006367" stroke-linecap="round" stroke-linejoin="round"/>
    <path d="M 28.0001277923584 175.9999237060547 C 22.43105125427246 175.4449005126953 23.481943130493164 171.10830688476562 22.4730224609375 173.42576599121094" stroke-width="3.0" fill="none" stroke="rgb(2, 2, 2)" stroke-opacity="0.99000007" stroke-linecap="round" stroke-linejoin="round"/>
    <path d="M 62.999881744384766 157.9998321533203 C 65.2728042602539 157.48219299316406 67.37178802490234 160.2333526611328 68.59603118896484 161.6339111328125" stroke-width="3.0" fill="none" stroke="rgb(2, 2, 2)" stroke-opacity="0.99000007" stroke-linecap="round" stroke-linejoin="round"/>
    <path d="M 57.99972152709961 52.00006866455078 C 57.80541229248047 58.8560791015625 56.967002868652344 59.35512161254883 60.619441986083984 63.93024444580078" stroke-width="3.0" fill="none" stroke="rgb(2, 2, 2)" stroke-opacity="0.9900004" stroke-linecap="round" stroke-linejoin="round"/>
    <path d="M 77.99987030029297 180.00079345703125 C 81.65804290771484 177.19708251953125 77.91629028320312 175.04367065429688 78.70506286621094 175.8200225830078" stroke-width="3.0" fill="none" stroke="rgb(2, 2, -2)" stroke-opacity="0.99000007" stroke-linecap="round" stroke-linejoin="round"/>
    <path d="M 155.00035095214844 106.00009155273438 C 152.63404846191406 103.78787994384766 154.74844360351562 106.0294189453125 159.7036895751953 106.00928497314453" stroke-width="3.0" fill="none" stroke="rgb(-2, 2, 2)" stroke-opacity="0.9900001" stroke-linecap="round" stroke-linejoin="round"/>
    <path d="M 58.000125885009766 157.00067138671875 C 59.92951583862305 152.30162048339844 54.77602005004883 151.54025268554688 52.786617279052734 150.74362182617188" stroke-width="3.0" fill="none" stroke="rgb(2, 2, -2)" stroke-opacity="0.99000007" stroke-linecap="round" stroke-linejoin="round"/>
    <path d="M 63.00017166137695 181.00038146972656 C 60.422630310058594 186.17385864257812 64.18521118164062 187.01907348632812 67.23628234863281 192.6109619140625" stroke-width="3.0" fill="none" stroke="rgb(2, 2, -2)" stroke-opacity="0.99000007" stroke-linecap="round" stroke-linejoin="round"/>
    <path d="M 154.9998016357422 75.00044250488281 C 156.92877197265625 74.41687774658203 151.77920532226562 77.28746795654297 149.44998168945312 76.98663330078125" stroke-width="3.0" fill="none" stroke="rgb(2, 2, 2)" stroke-opacity="0.9900011" stroke-linecap="round" stroke-linejoin="round"/>
    <path d="M 175.0005340576172 34.00029754638672 C 179.66030883789062 30.433156967163086 180.61582946777344 31.94270896911621 182.5228271484375 27.364299774169922" stroke-width="3.0" fill="none" stroke="rgb(2, 2, 2)" stroke-opacity="0.9900001" stroke-linecap="round" stroke-linejoin="round"/>
    <path d="M 34.00124740600586 60.000789642333984 C 32.29753112792969 60.116817474365234 34.203216552734375 64.13815307617188 34.2963981628418 66.30828857421875" stroke-width="3.0" fill="none" stroke="rgb(2, 2, 2)" stroke-opacity="0.99000025" stroke-linecap="round" stroke-linejoin="round"/>
    <path d="M 7.00013542175293 92.0001220703125 C 6.627761363983154 96.98739624023438 10.139219284057617 97.54816436767578 7.634490013122559 97.4686279296875" stroke-width="3.0" fill="none" stroke="rgb(2, 2, 2)" stroke-opacity="0.9900001" stroke-linecap="round" stroke-linejoin="round"/>
    <path d="M 175.9991455078125 159.00030517578125 C 174.02053833007812 166.26548767089844 172.94723510742188 164.42990112304688 176.4144287109375 168.1950225830078" stroke-width="3.0" fill="none" stroke="rgb(2, 2, 2)" stroke-opacity="0.99000007" stroke-linecap="round" stroke-linejoin="round"/>
    <path d="M 46.998226165771484 171.00027465820312 C 47.476219177246094 170.02899169921875 43.97692108154297 168.48114013671875 46.849830627441406 169.88534545898438" stroke-width="3.0" fill="none" stroke="rgb(2, 2, 2)" stroke-opacity="0.9900001" stroke-linecap="round" stroke-linejoin="round"/>
    <path d="M 10.999382972717285 2.0007431507110596 C 11.912214279174805 0.675510823726654 12.463350296020508 5.468362331390381 13.769987106323242 7.6899895668029785" stroke-width="3.0" fill="none" stroke="rgb(2, 2, -2)" stroke-opacity="0.9900001" stroke-linecap="round" stroke-linejoin="round"/>
    <path d="M 41.00010299682617 103.00006866455078 C 36.760746002197266 108.30116271972656 37.98091506958008 107.37883758544922 36.15293502807617 105.94900512695312" stroke-width="3.0" fill="none" stroke="rgb(2, 2, 2)" stroke-opacity="0.99000007" stroke-linecap="round" stroke-linejoin="round"/>
    <path d="M 97.00016021728516 91.99971771240234 C 97.58832550048828 87.44181823730469 105.09686279296875 92.06259155273438 102.66688537597656 87.78419494628906" stroke-width="3.0" fill="none" stroke="rgb(2, 2, -2)" stroke-opacity="0.9900005" stroke-linecap="round" stroke-linejoin="round"/>
    <path d="M 54.00627517700195 60.99966049194336 C 59.71858215332031 58.98251724243164 62.14497756958008 59.082557678222656 59.60824203491211 62.830360412597656" stroke-width="3.0" fill="none" stroke="rgb(2, 2, 2)" stroke-opacity="0.9900002" stroke-linecap="round" stroke-linejoin="round"/>
    <path d="M 47.00048828125 37.00022506713867 C 52.37905502319336 34.129966735839844 52.95352554321289 32.82635498046875 59.67755126953125 34.918190002441406" stroke-width="3.0" fill="none" stroke="rgb(2, 2, 2)" stroke-opacity="0.99000007" stroke-linecap="round" stroke-linejoin="round"/>
    <path d="M 218.00025939941406 79.99981689453125 C 222.2485809326172 82.07943725585938 219.74256896972656 85.32670593261719 220.78900146484375 90.18885040283203" stroke-width="3.0" fill="none" stroke="rgb(2, 2, 2)" stroke-opacity="0.99000007" stroke-linecap="round" stroke-linejoin="round"/>
    <path d="M 47.99985885620117 197.99989318847656 C 48.08622741699219 201.58932495117188 43.65463638305664 199.32713317871094 44.628257751464844 202.92178344726562" stroke-width="3.0" fill="none" stroke="rgb(2, 2, -2)" stroke-opacity="0.99000007" stroke-linecap="round" stroke-linejoin="round"/>
    <path d="M 150.0041961669922 77.99612426757812 C 151.8810272216797 74.05622863769531 152.3144989013672 72.30902862548828 152.89730834960938 70.81624603271484" stroke-width="3.0" fill="none" stroke="rgb(2, 2, -2)" stroke-opacity="0.9900041" stroke-linecap="round" stroke-linejoin="round"/>
    <path d="M 58.000450134277344 105.99943542480469 C 57.502323150634766 104.00338745117188 54.01461410522461 106.215087890625 56.816768646240234 103.22987365722656" stroke-width="3.0" fill="none" stroke="rgb(2, 2, -2)" stroke-opacity="0.9900002" stroke-linecap="round" stroke-linejoin="round"/>
    <path d="M 47.00008773803711 132.00013732910156 C 50.08649826049805 126.88904571533203 52.828575134277344 129.1875457763672 56.314945220947266 127.91166687011719" stroke-width="3.0" fill="none" stroke="rgb(2, 2, 2)" stroke-opacity="0.99000007" stroke-linecap="round" stroke-linejoin="round"/>
    <path d="M 192.9996795654297 82.0010757446289 C 194.8184051513672 87.5912857055664 198.21994018554688 87.53927612304688 193.03359985351562 85.56591033935547" stroke-width="3.0" fill="none" stroke="rgb(2, 2, -2)" stroke-opacity="0.99000007" stroke-linecap="round" stroke-linejoin="round"/>
    <path d="M 200.00006103515625 207.99989318847656 C 201.0105743408203 210.14170837402344 205.20848083496094 209.47242736816406 205.49168395996094 210.98907470703125" stroke-width="3.0" fill="none" stroke="rgb(2, 2, -2)" stroke-opacity="0.99000007" stroke-linecap="round" stroke-linejoin="round"/>
    <path d="M 188.00106811523438 204.99960327148438 C 190.5481414794922 203.9856719970703 192.22604370117188 198.12542724609375 191.88555908203125 203.37608337402344" stroke-width="3.0" fill="none" stroke="rgb(2, 2, 2)" stroke-opacity="0.9900001" stroke-linecap="round" stroke-linejoin="round"/>
  </g>
</svg>
