<?xml version="1.0" ?>
<svg xmlns="http://www.w3.org/2000/svg" version="1.1" width="224" height="224">
  <defs/>
  <g>
    <path d="M 87.49108123779297 100.19221496582031 C 83.54238891601562 104.48393249511719 86.43838500976562 62.89243698120117 82.63630676269531 73.80171203613281" stroke-width="3.0" fill="none" stroke="rgb(0, 0, -2)" stroke-opacity="0.42025405" stroke-linecap="round" stroke-linejoin="round"/>
    <path d="M 102.2763671875 179.13204956054688 C 129.92715454101562 182.27114868164062 132.5794219970703 166.72572326660156 103.07209777832031 174.58749389648438" stroke-width="3.0" fill="none" stroke="rgb(1, -1, 1)" stroke-opacity="0.4824909" stroke-linecap="round" stroke-linejoin="round"/>
    <path d="M 6.944894313812256 127.46748352050781 C 11.398674011230469 100.55553436279297 11.5349702835083 112.69852447509766 8.896328926086426 144.74691772460938" stroke-width="3.0" fill="none" stroke="rgb(0, 0, 0)" stroke-opacity="0.20383665" stroke-linecap="round" stroke-linejoin="round"/>
    <path d="M 154.26527404785156 128.41152954101562 C 157.1756591796875 91.31354522705078 161.03431701660156 147.42495727539062 160.49468994140625 108.91464233398438" stroke-width="3.0" fill="none" stroke="rgb(2, -2, 0)" stroke-opacity="0.3599783" stroke-linecap="round" stroke-linejoin="round"/>
    <path d="M 150.19244384765625 44.65718078613281 C 179.05751037597656 42.76349639892578 184.93739318847656 48.25425338745117 161.21412658691406 42.31355285644531" stroke-width="3.0" fill="none" stroke="rgb(2, -1, 1)" stroke-opacity="0.43849546" stroke-linecap="round" stroke-linejoin="round"/>
    <path d="M 190.61798095703125 20.458192825317383 C 204.5929412841797 21.89076042175293 184.4283905029297 21.15460205078125 207.16384887695312 34.35666275024414" stroke-width="3.0" fill="none" stroke="rgb(-1, 1, 1)" stroke-opacity="0.23065038" stroke-linecap="round" stroke-linejoin="round"/>
    <path d="M 115.7137680053711 168.2377166748047 C 104.48249053955078 183.5998992919922 143.444091796875 167.14639282226562 126.99674224853516 167.75885009765625" stroke-width="3.0" fill="none" stroke="rgb(1, -1, -2)" stroke-opacity="0.42680797" stroke-linecap="round" stroke-linejoin="round"/>
    <path d="M 45.86600112915039 98.94891357421875 C 34.80327606201172 94.71583557128906 46.68600082397461 118.05056762695312 40.323299407958984 94.06502532958984" stroke-width="3.0" fill="none" stroke="rgb(0, 0, 1)" stroke-opacity="0.29143408" stroke-linecap="round" stroke-linejoin="round"/>
    <path d="M 193.3206329345703 131.14950561523438 C 240.65841674804688 140.6251983642578 215.97064208984375 143.838134765625 224.95973205566406 123.4044418334961" stroke-width="3.0" fill="none" stroke="rgb(-3, 0, 3)" stroke-opacity="0.48893318" stroke-linecap="round" stroke-linejoin="round"/>
    <path d="M 23.13868522644043 12.139947891235352 C 21.399688720703125 33.8378791809082 28.99187469482422 28.531007766723633 14.484047889709473 23.555282592773438" stroke-width="3.0" fill="none" stroke="rgb(0, -1, 2)" stroke-opacity="0.48129004" stroke-linecap="round" stroke-linejoin="round"/>
    <path d="M 66.11727905273438 198.4482879638672 C 44.51631546020508 210.8394775390625 51.51563262939453 208.24380493164062 57.434776306152344 202.76576232910156" stroke-width="3.0" fill="none" stroke="rgb(0, 0, 2)" stroke-opacity="0.38002416" stroke-linecap="round" stroke-linejoin="round"/>
    <path d="M 44.331214904785156 150.6802978515625 C 50.51792907714844 145.61341857910156 48.873756408691406 142.1595458984375 49.63764953613281 175.93453979492188" stroke-width="3.0" fill="none" stroke="rgb(1, 1, -1)" stroke-opacity="0.40317214" stroke-linecap="round" stroke-linejoin="round"/>
    <path d="M 149.0137939453125 50.93211364746094 C 183.94720458984375 51.28987121582031 175.94969177246094 55.51787567138672 178.0074462890625 39.22444152832031" stroke-width="3.0" fill="none" stroke="rgb(1, 0, 0)" stroke-opacity="0.20462234" stroke-linecap="round" stroke-linejoin="round"/>
    <path d="M 88.07699584960938 54.58591842651367 C 61.73968505859375 51.826812744140625 77.86720275878906 37.44819259643555 81.05363464355469 61.28340148925781" stroke-width="3.0" fill="none" stroke="rgb(0, 0, -1)" stroke-opacity="0.369657" stroke-linecap="round" stroke-linejoin="round"/>
    <path d="M 174.61485290527344 48.959442138671875 C 172.96365356445312 27.831274032592773 173.07778930664062 41.31369400024414 173.7023162841797 34.40606689453125" stroke-width="3.0" fill="none" stroke="rgb(1, 0, 0)" stroke-opacity="0.6585207" stroke-linecap="round" stroke-linejoin="round"/>
    <path d="M 42.37263870239258 60.286865234375 C 46.41395950317383 99.57511901855469 51.11020278930664 98.08214569091797 47.740840911865234 71.58102416992188" stroke-width="3.0" fill="none" stroke="rgb(0, 0, -1)" stroke-opacity="0.27077606" stroke-linecap="round" stroke-linejoin="round"/>
    <path d="M 15.557960510253906 82.82117462158203 C 17.20421028137207 97.74927520751953 16.562116622924805 106.32227325439453 16.319406509399414 125.01700592041016" stroke-width="3.0" fill="none" stroke="rgb(-2, 0, 2)" stroke-opacity="0.46871015" stroke-linecap="round" stroke-linejoin="round"/>
    <path d="M 170.27474975585938 100.3006591796875 C 170.32589721679688 77.63916778564453 168.17315673828125 78.91050720214844 174.28062438964844 87.08334350585938" stroke-width="3.0" fill="none" stroke="rgb(0, 0, 1)" stroke-opacity="0.20684378" stroke-linecap="round" stroke-linejoin="round"/>
    <path d="M 158.83741760253906 61.56990051269531 C 168.82566833496094 77.66301727294922 153.28138732910156 77.60582733154297 156.96615600585938 62.06507873535156" stroke-width="3.0" fill="none" stroke="rgb(0, -1, 1)" stroke-opacity="0.2751036" stroke-linecap="round" stroke-linejoin="round"/>
    <path d="M 188.3666229248047 105.86317443847656 C 194.73178100585938 137.84425354003906 186.22463989257812 152.7265167236328 192.7213592529297 90.66138458251953" stroke-width="3.0" fill="none" stroke="rgb(0, 0, 1)" stroke-opacity="0.349581" stroke-linecap="round" stroke-linejoin="round"/>
    <path d="M 34.52620315551758 40.5301399230957 C 66.43767547607422 32.63837814331055 57.39591979980469 31.80582046508789 38.238712310791016 32.734161376953125" stroke-width="3.0" fill="none" stroke="rgb(1, 0, -1)" stroke-opacity="0.087907165" stroke-linecap="round" stroke-linejoin="round"/>
    <path d="M 190.00119018554688 61.757938385009766 C 182.89988708496094 86.3139877319336 170.5817108154297 63.70182418823242 190.03567504882812 67.89493560791016" stroke-width="3.0" fill="none" stroke="rgb(-1, 0, 1)" stroke-opacity="0.34546784" stroke-linecap="round" stroke-linejoin="round"/>
    <path d="M 53.190738677978516 80.2635726928711 C 104.74803924560547 96.25753784179688 102.4185562133789 108.32565307617188 47.842681884765625 85.4488754272461" stroke-width="3.0" fill="none" stroke="rgb(0, -2, 1)" stroke-opacity="0.44009528" stroke-linecap="round" stroke-linejoin="round"/>
    <path d="M 148.20555114746094 83.59349060058594 C 163.70663452148438 85.74954223632812 173.54307556152344 71.63240814208984 150.2385711669922 93.27998352050781" stroke-width="3.0" fill="none" stroke="rgb(0, -1, 1)" stroke-opacity="0.26186073" stroke-linecap="round" stroke-linejoin="round"/>
    <path d="M 111.27919006347656 159.92762756347656 C 147.33950805664062 173.0380096435547 138.85931396484375 142.13658142089844 115.6559066772461 152.83212280273438" stroke-width="3.0" fill="none" stroke="rgb(2, -1, -2)" stroke-opacity="0.39525005" stroke-linecap="round" stroke-linejoin="round"/>
    <path d="M 7.990633487701416 52.807498931884766 C 50.361698150634766 65.32320404052734 38.42478942871094 63.066585540771484 -4.085569858551025 41.60515594482422" stroke-width="3.0" fill="none" stroke="rgb(-2, -1, 3)" stroke-opacity="0.36362356" stroke-linecap="round" stroke-linejoin="round"/>
    <path d="M 138.57321166992188 95.1526107788086 C 94.19068145751953 94.39933013916016 114.1841049194336 102.0398178100586 113.79931640625 99.339599609375" stroke-width="3.0" fill="none" stroke="rgb(2, 0, -2)" stroke-opacity="0.39321434" stroke-linecap="round" stroke-linejoin="round"/>
    <path d="M 133.6775665283203 119.68565368652344 C 161.24978637695312 117.56167602539062 156.0316162109375 114.91220092773438 142.89990234375 123.14671325683594" stroke-width="3.0" fill="none" stroke="rgb(2, 0, -1)" stroke-opacity="0.26362854" stroke-linecap="round" stroke-linejoin="round"/>
    <path d="M 214.3251953125 8.130743026733398 C 173.7195281982422 6.898765563964844 175.98519897460938 -3.418179750442505 219.5104217529297 6.542551517486572" stroke-width="3.0" fill="none" stroke="rgb(1, 1, -2)" stroke-opacity="0.25218135" stroke-linecap="round" stroke-linejoin="round"/>
    <path d="M 64.9663314819336 141.59657287597656 C 68.2508773803711 122.20369720458984 66.57830047607422 111.25370788574219 68.01323699951172 107.01731872558594" stroke-width="3.0" fill="none" stroke="rgb(0, 1, 0)" stroke-opacity="0.36496913" stroke-linecap="round" stroke-linejoin="round"/>
    <path d="M 38.67072296142578 42.210960388183594 C 35.818458557128906 78.50432586669922 47.37643814086914 59.48967742919922 38.48158645629883 39.62887954711914" stroke-width="3.0" fill="none" stroke="rgb(0, 0, 1)" stroke-opacity="0.57599074" stroke-linecap="round" stroke-linejoin="round"/>
    <path d="M 167.34884643554688 26.9887752532959 C 179.8941192626953 27.74047088623047 178.46517944335938 33.68733596801758 179.61048889160156 -3.8808696269989014" stroke-width="3.0" fill="none" stroke="rgb(0, 0, 1)" stroke-opacity="0.3647213" stroke-linecap="round" stroke-linejoin="round"/>
    <path d="M 113.6961441040039 200.9656524658203 C 120.93675994873047 201.1704559326172 120.22732543945312 199.93734741210938 118.19671630859375 201.35089111328125" stroke-width="3.0" fill="none" stroke="rgb(1, 0, 2)" stroke-opacity="0.38302115" stroke-linecap="round" stroke-linejoin="round"/>
    <path d="M 199.21263122558594 203.44808959960938 C 193.5512237548828 202.8737335205078 191.5489501953125 211.54750061035156 210.55198669433594 225.8048095703125" stroke-width="3.0" fill="none" stroke="rgb(0, 1, 0)" stroke-opacity="0.30426732" stroke-linecap="round" stroke-linejoin="round"/>
    <path d="M 97.05862426757812 177.78114318847656 C 112.36045837402344 170.2748260498047 88.4366226196289 170.77317810058594 118.42912292480469 163.92938232421875" stroke-width="3.0" fill="none" stroke="rgb(0, 0, 0)" stroke-opacity="0.5130398" stroke-linecap="round" stroke-linejoin="round"/>
    <path d="M 37.52523422241211 60.54473114013672 C 41.46027374267578 81.52763366699219 25.00156021118164 67.9106674194336 47.592777252197266 76.2434310913086" stroke-width="3.0" fill="none" stroke="rgb(0, -1, 2)" stroke-opacity="0.429927" stroke-linecap="round" stroke-linejoin="round"/>
    <path d="M 171.82643127441406 33.51350784301758 C 171.78770446777344 23.38132095336914 164.40818786621094 28.199316024780273 174.877685546875 36.85811233520508" stroke-width="3.0" fill="none" stroke="rgb(0, -2, 2)" stroke-opacity="0.32963923" stroke-linecap="round" stroke-linejoin="round"/>
    <path d="M 39.73923110961914 103.0044174194336 C 43.192298889160156 151.7716827392578 38.8027229309082 121.914306640625 37.161476135253906 138.26666259765625" stroke-width="3.0" fill="none" stroke="rgb(-3, 0, 2)" stroke-opacity="0.4480951" stroke-linecap="round" stroke-linejoin="round"/>
    <path d="M 189.69618225097656 97.07308197021484 C 220.14340209960938 84.80232238769531 210.64883422851562 93.94407653808594 208.0345916748047 85.83306884765625" stroke-width="3.0" fill="none" stroke="rgb(-1, 0, 1)" stroke-opacity="0.35959843" stroke-linecap="round" stroke-linejoin="round"/>
    <path d="M 176.615478515625 28.47846031188965 C 171.08612060546875 51.76939010620117 177.48907470703125 48.97986602783203 178.7115936279297 21.664026260375977" stroke-width="3.0" fill="none" stroke="rgb(2, 0, -2)" stroke-opacity="0.25879687" stroke-linecap="round" stroke-linejoin="round"/>
    <path d="M 12.171609878540039 100.23027038574219 C 17.9758358001709 102.98542022705078 17.31737518310547 106.83248901367188 14.631945610046387 100.75894927978516" stroke-width="3.0" fill="none" stroke="rgb(1, 0, 1)" stroke-opacity="0.18687214" stroke-linecap="round" stroke-linejoin="round"/>
    <path d="M 24.658519744873047 32.42679977416992 C -5.028860569000244 11.107844352722168 12.079634666442871 35.24888229370117 6.39668607711792 -1.7306326627731323" stroke-width="3.0" fill="none" stroke="rgb(0, 0, -2)" stroke-opacity="0.1753308" stroke-linecap="round" stroke-linejoin="round"/>
    <path d="M 31.05432891845703 189.9612274169922 C 1.55394446849823 197.22508239746094 59.62952423095703 193.68630981445312 7.885950088500977 208.61447143554688" stroke-width="3.0" fill="none" stroke="rgb(0, 0, 0)" stroke-opacity="0.25156698" stroke-linecap="round" stroke-linejoin="round"/>
    <path d="M 61.86906051635742 50.48244857788086 C 62.43274688720703 88.76605224609375 58.13782501220703 99.68392181396484 57.947288513183594 57.00053405761719" stroke-width="3.0" fill="none" stroke="rgb(0, 0, 0)" stroke-opacity="0.4212848" stroke-linecap="round" stroke-linejoin="round"/>
    <path d="M 59.67527389526367 117.49481201171875 C 59.146636962890625 141.6077423095703 61.893375396728516 136.17576599121094 72.55248260498047 136.86434936523438" stroke-width="3.0" fill="none" stroke="rgb(0, 1, 1)" stroke-opacity="0.2927513" stroke-linecap="round" stroke-linejoin="round"/>
    <path d="M 89.36503601074219 66.1810531616211 C 73.98583984375 63.258384704589844 74.6927261352539 66.72748565673828 94.47348022460938 72.08964538574219" stroke-width="3.0" fill="none" stroke="rgb(0, -1, 2)" stroke-opacity="0.41157484" stroke-linecap="round" stroke-linejoin="round"/>
    <path d="M 92.47611999511719 104.4332275390625 C 65.57843017578125 97.67835235595703 87.01734161376953 91.02922821044922 86.74285888671875 109.99421691894531" stroke-width="3.0" fill="none" stroke="rgb(0, 0, 1)" stroke-opacity="0.33026704" stroke-linecap="round" stroke-linejoin="round"/>
    <path d="M 140.46778869628906 104.62898254394531 C 135.2410125732422 97.68260955810547 140.42349243164062 114.96615600585938 134.81829833984375 115.82686614990234" stroke-width="3.0" fill="none" stroke="rgb(2, -2, -2)" stroke-opacity="0.5278309" stroke-linecap="round" stroke-linejoin="round"/>
    <path d="M 219.42245483398438 53.595314025878906 C 215.21876525878906 51.63011169433594 216.78163146972656 40.31498336791992 217.43531799316406 68.51390838623047" stroke-width="3.0" fill="none" stroke="rgb(-2, 0, 1)" stroke-opacity="0.24698232" stroke-linecap="round" stroke-linejoin="round"/>
    <path d="M 56.5400276184082 201.106689453125 C 35.450653076171875 214.22988891601562 39.21561813354492 209.3753662109375 15.157187461853027 222.63067626953125" stroke-width="3.0" fill="none" stroke="rgb(-2, -3, 3)" stroke-opacity="0.505758" stroke-linecap="round" stroke-linejoin="round"/>
    <path d="M 36.347801208496094 187.7620391845703 C 36.87179946899414 136.9193115234375 33.21955871582031 136.13755798339844 35.452091217041016 157.35263061523438" stroke-width="3.0" fill="none" stroke="rgb(0, -3, 3)" stroke-opacity="0.4333612" stroke-linecap="round" stroke-linejoin="round"/>
    <path d="M 66.17790222167969 227.60726928710938 C 99.98473358154297 206.48681640625 92.74717712402344 197.0672607421875 131.45318603515625 182.17434692382812" stroke-width="3.0" fill="none" stroke="rgb(-3, 0, 3)" stroke-opacity="0.2693786" stroke-linecap="round" stroke-linejoin="round"/>
    <path d="M 13.821093559265137 183.40220642089844 C 10.648605346679688 205.73680114746094 16.769908905029297 185.5895538330078 14.706094741821289 188.7781219482422" stroke-width="3.0" fill="none" stroke="rgb(1, 0, -1)" stroke-opacity="0.2336694" stroke-linecap="round" stroke-linejoin="round"/>
    <path d="M 149.29302978515625 108.43489837646484 C 143.0479278564453 148.30096435546875 154.4204559326172 135.90077209472656 120.11332702636719 134.50848388671875" stroke-width="3.0" fill="none" stroke="rgb(0, 0, 0)" stroke-opacity="0.2599508" stroke-linecap="round" stroke-linejoin="round"/>
    <path d="M 118.967041015625 184.29071044921875 C 76.41719818115234 187.9525146484375 80.40576171875 190.84364318847656 98.13446807861328 180.95814514160156" stroke-width="3.0" fill="none" stroke="rgb(1, -2, 1)" stroke-opacity="0.406697" stroke-linecap="round" stroke-linejoin="round"/>
    <path d="M 167.3183135986328 23.76311492919922 C 167.5955352783203 17.910621643066406 166.3133087158203 19.28127670288086 172.78805541992188 28.111717224121094" stroke-width="3.0" fill="none" stroke="rgb(0, 0, 1)" stroke-opacity="0.37554246" stroke-linecap="round" stroke-linejoin="round"/>
    <path d="M 35.20418930053711 67.49117279052734 C 28.251962661743164 65.94105529785156 39.57729721069336 70.22933197021484 4.771120548248291 58.27449035644531" stroke-width="3.0" fill="none" stroke="rgb(1, 0, -2)" stroke-opacity="0.19711441" stroke-linecap="round" stroke-linejoin="round"/>
    <path d="M 168.1156768798828 26.550472259521484 C 158.32254028320312 23.390506744384766 173.76576232910156 21.408668518066406 177.08428955078125 -2.51157283782959" stroke-width="3.0" fill="none" stroke="rgb(-1, 0, 1)" stroke-opacity="0.20476677" stroke-linecap="round" stroke-linejoin="round"/>
    <path d="M -9.612408638000488 70.46918487548828 C -10.708115577697754 71.65815734863281 16.79341697692871 76.76765441894531 19.24224090576172 83.2893295288086" stroke-width="3.0" fill="none" stroke="rgb(2, -3, 2)" stroke-opacity="0.43710783" stroke-linecap="round" stroke-linejoin="round"/>
    <path d="M 77.16824340820312 97.13497161865234 C 97.61410522460938 90.84784698486328 93.9835205078125 98.8760986328125 91.97212219238281 72.74605560302734" stroke-width="3.0" fill="none" stroke="rgb(1, -1, 0)" stroke-opacity="0.32431355" stroke-linecap="round" stroke-linejoin="round"/>
    <path d="M 66.81565856933594 51.83354187011719 C 79.03363800048828 63.07467269897461 74.78063201904297 50.367801666259766 75.46439361572266 87.39738464355469" stroke-width="3.0" fill="none" stroke="rgb(1, 0, -2)" stroke-opacity="0.42985177" stroke-linecap="round" stroke-linejoin="round"/>
    <path d="M 57.768192291259766 166.32186889648438 C 57.65262985229492 159.68157958984375 59.713356018066406 186.4931640625 57.192508697509766 174.2737274169922" stroke-width="3.0" fill="none" stroke="rgb(1, 0, 0)" stroke-opacity="0.5029" stroke-linecap="round" stroke-linejoin="round"/>
    <path d="M 181.12518310546875 78.26832580566406 C 180.67686462402344 80.30630493164062 179.9435272216797 66.02023315429688 186.31253051757812 80.0599136352539" stroke-width="3.0" fill="none" stroke="rgb(0, 0, 1)" stroke-opacity="0.27937764" stroke-linecap="round" stroke-linejoin="round"/>
    <path d="M 205.20567321777344 52.59480667114258 C 181.08560180664062 70.26994323730469 201.7513885498047 40.79373550415039 197.7846221923828 73.20449829101562" stroke-width="3.0" fill="none" stroke="rgb(-2, 0, 2)" stroke-opacity="0.325887" stroke-linecap="round" stroke-linejoin="round"/>
    <path d="M 60.17176055908203 116.40740966796875 C 60.478599548339844 113.02005767822266 58.166107177734375 131.14852905273438 59.95768737792969 104.72683715820312" stroke-width="3.0" fill="none" stroke="rgb(0, 0, 2)" stroke-opacity="0.29596457" stroke-linecap="round" stroke-linejoin="round"/>
    <path d="M 62.98708724975586 36.33726119995117 C 91.93854522705078 55.34088134765625 87.38036346435547 60.32280731201172 67.37535095214844 33.98921203613281" stroke-width="3.0" fill="none" stroke="rgb(1, -1, -1)" stroke-opacity="0.45656466" stroke-linecap="round" stroke-linejoin="round"/>
    <path d="M 204.49497985839844 149.81442260742188 C 202.80868530273438 147.28265380859375 205.816162109375 149.05662536621094 205.47450256347656 150.1572723388672" stroke-width="3.0" fill="none" stroke="rgb(1, 0, 0)" stroke-opacity="0.25213632" stroke-linecap="round" stroke-linejoin="round"/>
    <path d="M 172.7116241455078 22.23892593383789 C 176.3273162841797 33.639793395996094 171.35354614257812 22.267763137817383 174.8706512451172 26.235795974731445" stroke-width="3.0" fill="none" stroke="rgb(0, 1, 0)" stroke-opacity="0.5702672" stroke-linecap="round" stroke-linejoin="round"/>
    <path d="M 185.4633331298828 210.2516632080078 C 150.8447265625 208.02236938476562 176.4021453857422 219.819580078125 144.74801635742188 175.846435546875" stroke-width="3.0" fill="none" stroke="rgb(0, 0, 0)" stroke-opacity="0.24091044" stroke-linecap="round" stroke-linejoin="round"/>
    <path d="M 101.17737579345703 165.83067321777344 C 102.83065032958984 109.76081848144531 97.70903015136719 168.4723358154297 102.76817321777344 122.7376480102539" stroke-width="3.0" fill="none" stroke="rgb(0, 0, 1)" stroke-opacity="0.38516107" stroke-linecap="round" stroke-linejoin="round"/>
    <path d="M 176.1005401611328 53.212493896484375 C 177.36663818359375 72.73762512207031 170.2409210205078 65.64140319824219 173.1150360107422 45.14278793334961" stroke-width="3.0" fill="none" stroke="rgb(0, 1, -1)" stroke-opacity="0.3148716" stroke-linecap="round" stroke-linejoin="round"/>
    <path d="M 23.298547744750977 8.411664962768555 C 19.356578826904297 -26.9609375 22.78885841369629 -16.01605224609375 18.40951156616211 -8.500657081604004" stroke-width="3.0" fill="none" stroke="rgb(0, 1, -1)" stroke-opacity="0.36578873" stroke-linecap="round" stroke-linejoin="round"/>
    <path d="M 62.02949905395508 172.42465209960938 C 54.79743576049805 144.07984924316406 54.68475341796875 139.85948181152344 58.64091873168945 145.7168731689453" stroke-width="3.0" fill="none" stroke="rgb(0, 0, 0)" stroke-opacity="0.368707" stroke-linecap="round" stroke-linejoin="round"/>
    <path d="M 154.95364379882812 137.42266845703125 C 163.6222686767578 104.17192840576172 159.17860412597656 122.13580322265625 160.9275665283203 158.7780303955078" stroke-width="3.0" fill="none" stroke="rgb(1, 0, 0)" stroke-opacity="0.35696164" stroke-linecap="round" stroke-linejoin="round"/>
    <path d="M 58.07016372680664 135.04759216308594 C 59.807796478271484 155.18931579589844 48.630672454833984 152.65023803710938 94.13764953613281 136.32093811035156" stroke-width="3.0" fill="none" stroke="rgb(0, 0, 0)" stroke-opacity="0.31123456" stroke-linecap="round" stroke-linejoin="round"/>
    <path d="M 58.27712631225586 140.15948486328125 C 59.03069305419922 151.0191192626953 63.49188232421875 146.29495239257812 59.59947204589844 158.83575439453125" stroke-width="3.0" fill="none" stroke="rgb(3, -1, 1)" stroke-opacity="0.42650667" stroke-linecap="round" stroke-linejoin="round"/>
    <path d="M 67.98965454101562 35.626644134521484 C 69.86654663085938 37.9423828125 61.023860931396484 27.845596313476562 52.80396270751953 22.974950790405273" stroke-width="3.0" fill="none" stroke="rgb(-2, 0, 4)" stroke-opacity="0.6275483" stroke-linecap="round" stroke-linejoin="round"/>
    <path d="M 23.539081573486328 99.02729034423828 C 22.27495574951172 74.64702606201172 29.686473846435547 84.08061981201172 14.3516845703125 76.55638122558594" stroke-width="3.0" fill="none" stroke="rgb(0, 0, 0)" stroke-opacity="0.16488723" stroke-linecap="round" stroke-linejoin="round"/>
    <path d="M 47.00320053100586 56.24871826171875 C 48.20229721069336 17.84636116027832 52.563804626464844 27.575439453125 38.12733840942383 29.40130043029785" stroke-width="3.0" fill="none" stroke="rgb(2, -1, -2)" stroke-opacity="0.43215415" stroke-linecap="round" stroke-linejoin="round"/>
    <path d="M 167.50106811523438 164.07330322265625 C 133.33473205566406 159.57794189453125 134.89920043945312 179.71214294433594 167.44520568847656 173.9167022705078" stroke-width="3.0" fill="none" stroke="rgb(2, -3, 2)" stroke-opacity="0.47146434" stroke-linecap="round" stroke-linejoin="round"/>
    <path d="M 125.02163696289062 105.306640625 C 126.82679748535156 124.99425506591797 124.11087799072266 106.59689331054688 124.97906494140625 119.3779525756836" stroke-width="3.0" fill="none" stroke="rgb(2, -1, 0)" stroke-opacity="0.49090594" stroke-linecap="round" stroke-linejoin="round"/>
    <path d="M 213.8910369873047 63.528648376464844 C 200.99143981933594 88.9237060546875 221.4398956298828 70.67463684082031 189.97381591796875 67.73578643798828" stroke-width="3.0" fill="none" stroke="rgb(-1, 0, 1)" stroke-opacity="0.25197905" stroke-linecap="round" stroke-linejoin="round"/>
    <path d="M 52.470035552978516 25.269794464111328 C 58.77273178100586 15.77575969696045 32.302734375 25.55963134765625 41.34416580200195 14.625168800354004" stroke-width="3.0" fill="none" stroke="rgb(-2, 1, 1)" stroke-opacity="0.43225017" stroke-linecap="round" stroke-linejoin="round"/>
    <path d="M 69.25447082519531 84.93878173828125 C 69.72183227539062 69.98302459716797 67.87445831298828 55.0510139465332 70.38249969482422 60.298362731933594" stroke-width="3.0" fill="none" stroke="rgb(0, -1, 1)" stroke-opacity="0.6450996" stroke-linecap="round" stroke-linejoin="round"/>
    <path d="M 216.41664123535156 73.36598205566406 C 223.49697875976562 92.19173431396484 221.5294189453125 90.26763916015625 193.3746795654297 82.47283935546875" stroke-width="3.0" fill="none" stroke="rgb(-1, 0, 1)" stroke-opacity="0.29474637" stroke-linecap="round" stroke-linejoin="round"/>
    <path d="M 77.76634979248047 146.27456665039062 C 91.58744049072266 149.87689208984375 81.93864440917969 132.73013305664062 85.1020736694336 145.5946502685547" stroke-width="3.0" fill="none" stroke="rgb(0, -1, 1)" stroke-opacity="0.37675464" stroke-linecap="round" stroke-linejoin="round"/>
    <path d="M 115.41748046875 137.6724090576172 C 114.36772155761719 76.1591567993164 112.82626342773438 85.09443664550781 110.2469253540039 114.63803100585938" stroke-width="3.0" fill="none" stroke="rgb(1, -1, -1)" stroke-opacity="0.28607464" stroke-linecap="round" stroke-linejoin="round"/>
    <path d="M 15.459343910217285 180.4820556640625 C 5.837009429931641 182.35284423828125 12.070761680603027 176.0597686767578 11.61247444152832 218.39491271972656" stroke-width="3.0" fill="none" stroke="rgb(0, 1, 0)" stroke-opacity="0.17752205" stroke-linecap="round" stroke-linejoin="round"/>
    <path d="M 161.59945678710938 87.9686508178711 C 130.71051025390625 82.92105102539062 164.6929931640625 90.53814697265625 160.5972900390625 81.22374725341797" stroke-width="3.0" fill="none" stroke="rgb(1, -2, 1)" stroke-opacity="0.42779493" stroke-linecap="round" stroke-linejoin="round"/>
    <path d="M 43.69575500488281 29.648845672607422 C 50.051456451416016 29.141847610473633 32.62584686279297 26.698633193969727 39.751399993896484 37.57609558105469" stroke-width="3.0" fill="none" stroke="rgb(1, 1, -2)" stroke-opacity="0.34661004" stroke-linecap="round" stroke-linejoin="round"/>
    <path d="M 183.20164489746094 144.52732849121094 C 176.07891845703125 147.30455017089844 179.38546752929688 109.2880859375 175.93576049804688 92.92550659179688" stroke-width="3.0" fill="none" stroke="rgb(0, 0, 1)" stroke-opacity="0.13979334" stroke-linecap="round" stroke-linejoin="round"/>
    <path d="M 135.2140350341797 163.30393981933594 C 172.37924194335938 163.53489685058594 137.0770721435547 156.99795532226562 137.84375 132.38082885742188" stroke-width="3.0" fill="none" stroke="rgb(0, 0, 0)" stroke-opacity="0.38457772" stroke-linecap="round" stroke-linejoin="round"/>
    <path d="M 103.00959014892578 96.17669677734375 C 102.33164978027344 151.05072021484375 107.91375732421875 95.76318359375 107.3680648803711 137.07025146484375" stroke-width="3.0" fill="none" stroke="rgb(0, 0, 0)" stroke-opacity="0.38065755" stroke-linecap="round" stroke-linejoin="round"/>
    <path d="M 35.06852722167969 149.1640167236328 C 36.237518310546875 144.98023986816406 25.27174186706543 146.9756622314453 56.7893180847168 139.22874450683594" stroke-width="3.0" fill="none" stroke="rgb(0, -2, 1)" stroke-opacity="0.3525044" stroke-linecap="round" stroke-linejoin="round"/>
    <path d="M 178.27761840820312 88.60502624511719 C 180.64453125 89.14933013916016 179.01475524902344 92.6185073852539 182.39984130859375 128.4783477783203" stroke-width="3.0" fill="none" stroke="rgb(0, -1, 1)" stroke-opacity="0.32701382" stroke-linecap="round" stroke-linejoin="round"/>
    <path d="M 137.80712890625 97.06116485595703 C 137.63998413085938 108.19657135009766 133.26251220703125 97.69255828857422 132.79945373535156 123.51768493652344" stroke-width="3.0" fill="none" stroke="rgb(1, -1, 0)" stroke-opacity="0.37577263" stroke-linecap="round" stroke-linejoin="round"/>
    <path d="M 25.86823081970215 80.95378112792969 C 27.463146209716797 90.6542739868164 27.363656997680664 108.66201782226562 27.788352966308594 134.05091857910156" stroke-width="3.0" fill="none" stroke="rgb(0, 2, -2)" stroke-opacity="0.23901658" stroke-linecap="round" stroke-linejoin="round"/>
    <path d="M 213.5852508544922 1.1108617782592773 C 201.1092529296875 6.253569602966309 217.0854949951172 4.677971363067627 219.3751220703125 0.2313799411058426" stroke-width="3.0" fill="none" stroke="rgb(0, 1, -2)" stroke-opacity="0.33842742" stroke-linecap="round" stroke-linejoin="round"/>
    <path d="M 47.43626022338867 32.305877685546875 C 56.72876739501953 19.11324691772461 46.25416564941406 26.21060562133789 72.4641342163086 39.40721130371094" stroke-width="3.0" fill="none" stroke="rgb(1, 0, -2)" stroke-opacity="0.39018652" stroke-linecap="round" stroke-linejoin="round"/>
    <path d="M 219.39756774902344 7.960948944091797 C 204.84291076660156 26.672985076904297 223.7156524658203 -3.2735629081726074 216.7397918701172 23.957429885864258" stroke-width="3.0" fill="none" stroke="rgb(-2, 1, 0)" stroke-opacity="0.18277623" stroke-linecap="round" stroke-linejoin="round"/>
    <path d="M 88.92496490478516 103.2154769897461 C 90.58426666259766 135.1026153564453 85.97488403320312 116.1441421508789 96.82485961914062 121.65896606445312" stroke-width="3.0" fill="none" stroke="rgb(1, -2, 1)" stroke-opacity="0.4341729" stroke-linecap="round" stroke-linejoin="round"/>
    <path d="M 206.0869903564453 52.89007568359375 C 198.32481384277344 112.1867446899414 209.88552856445312 105.49242401123047 209.4776153564453 60.79670715332031" stroke-width="3.0" fill="none" stroke="rgb(-2, 0, 1)" stroke-opacity="0.29900643" stroke-linecap="round" stroke-linejoin="round"/>
    <path d="M 182.06597900390625 96.19461059570312 C 183.37413024902344 106.2407455444336 179.4776153564453 103.03779602050781 180.66519165039062 78.54314422607422" stroke-width="3.0" fill="none" stroke="rgb(0, -1, 1)" stroke-opacity="0.24536057" stroke-linecap="round" stroke-linejoin="round"/>
    <path d="M 162.18392944335938 227.2520294189453 C 134.5684356689453 167.87008666992188 145.72996520996094 182.86073303222656 132.27877807617188 183.8062744140625" stroke-width="3.0" fill="none" stroke="rgb(-2, 0, 3)" stroke-opacity="0.20275265" stroke-linecap="round" stroke-linejoin="round"/>
    <path d="M 172.10987854003906 79.88494110107422 C 166.39300537109375 47.10187530517578 179.12193298339844 77.20333862304688 180.46298217773438 64.03877258300781" stroke-width="3.0" fill="none" stroke="rgb(-1, 1, 0)" stroke-opacity="0.40135223" stroke-linecap="round" stroke-linejoin="round"/>
    <path d="M 119.30306243896484 94.8089370727539 C 115.50767517089844 93.10047912597656 106.90522003173828 83.50187683105469 93.17611694335938 85.4594497680664" stroke-width="3.0" fill="none" stroke="rgb(0, -2, 2)" stroke-opacity="0.60165364" stroke-linecap="round" stroke-linejoin="round"/>
    <path d="M 109.05430603027344 165.53707885742188 C 113.4728012084961 117.98224639892578 125.04786682128906 169.5245361328125 107.77300262451172 145.90101623535156" stroke-width="3.0" fill="none" stroke="rgb(1, 0, -1)" stroke-opacity="0.27253392" stroke-linecap="round" stroke-linejoin="round"/>
    <path d="M 56.59853744506836 71.27252197265625 C 58.682010650634766 43.50299072265625 52.99237060546875 47.441131591796875 61.463768005371094 50.8834114074707" stroke-width="3.0" fill="none" stroke="rgb(0, 0, 0)" stroke-opacity="0.49163646" stroke-linecap="round" stroke-linejoin="round"/>
    <path d="M 47.8736572265625 15.943387031555176 C 33.19884490966797 21.374496459960938 21.286176681518555 24.1413516998291 56.6145133972168 24.299720764160156" stroke-width="3.0" fill="none" stroke="rgb(0, 0, 1)" stroke-opacity="0.26942956" stroke-linecap="round" stroke-linejoin="round"/>
    <path d="M 72.91466522216797 80.94160461425781 C 73.7596435546875 51.99853515625 74.61776733398438 52.83701705932617 73.0138168334961 61.185882568359375" stroke-width="3.0" fill="none" stroke="rgb(0, 0, -1)" stroke-opacity="0.46311125" stroke-linecap="round" stroke-linejoin="round"/>
    <path d="M 230.08056640625 32.07011032104492 C 208.5050048828125 50.0910758972168 219.0248260498047 64.93939208984375 193.45562744140625 36.94773864746094" stroke-width="3.0" fill="none" stroke="rgb(-3, 0, 2)" stroke-opacity="0.35842013" stroke-linecap="round" stroke-linejoin="round"/>
    <path d="M 168.30130004882812 194.55694580078125 C 197.82440185546875 190.4839630126953 191.79193115234375 187.6094207763672 194.48446655273438 189.703125" stroke-width="3.0" fill="none" stroke="rgb(0, -1, 2)" stroke-opacity="0.612121" stroke-linecap="round" stroke-linejoin="round"/>
    <path d="M 93.5311508178711 160.80271911621094 C 80.37918090820312 167.09068298339844 91.41153717041016 122.60951232910156 89.94803619384766 180.00196838378906" stroke-width="3.0" fill="none" stroke="rgb(0, -1, 2)" stroke-opacity="0.31216508" stroke-linecap="round" stroke-linejoin="round"/>
    <path d="M 3.9609365463256836 120.9239273071289 C -13.568962097167969 104.93462371826172 -10.343896865844727 110.7967529296875 -11.402185440063477 113.38040161132812" stroke-width="3.0" fill="none" stroke="rgb(0, 1, -2)" stroke-opacity="0.30705413" stroke-linecap="round" stroke-linejoin="round"/>
    <path d="M 23.78345489501953 188.3520965576172 C 21.997182846069336 159.8736114501953 20.27722930908203 116.42830657958984 17.350980758666992 182.37762451171875" stroke-width="3.0" fill="none" stroke="rgb(0, 0, -1)" stroke-opacity="0.37839416" stroke-linecap="round" stroke-linejoin="round"/>
    <path d="M 78.09251403808594 182.6221923828125 C 79.22312927246094 129.75584411621094 67.60637664794922 139.99795532226562 68.02020263671875 182.34930419921875" stroke-width="3.0" fill="none" stroke="rgb(-2, 1, 1)" stroke-opacity="0.1929545" stroke-linecap="round" stroke-linejoin="round"/>
    <path d="M 53.969207763671875 44.38410186767578 C 47.84797286987305 87.53834533691406 55.482181549072266 88.63502502441406 57.37914276123047 62.81869125366211" stroke-width="3.0" fill="none" stroke="rgb(0, 0, 0)" stroke-opacity="0.21226919" stroke-linecap="round" stroke-linejoin="round"/>
    <path d="M 74.16069030761719 189.34689331054688 C 75.05024719238281 191.74278259277344 93.60932922363281 183.29104614257812 63.4582633972168 199.19076538085938" stroke-width="3.0" fill="none" stroke="rgb(0, -1, 2)" stroke-opacity="0.34060922" stroke-linecap="round" stroke-linejoin="round"/>
    <path d="M 158.90830993652344 96.17057800292969 C 164.06185913085938 113.48912048339844 144.50502014160156 107.03020477294922 161.08477783203125 107.7564468383789" stroke-width="3.0" fill="none" stroke="rgb(-1, -2, 3)" stroke-opacity="0.49635917" stroke-linecap="round" stroke-linejoin="round"/>
    <path d="M 57.84380340576172 166.94410705566406 C 60.49319076538086 138.11305236816406 55.61945343017578 145.80560302734375 59.15317916870117 151.18788146972656" stroke-width="3.0" fill="none" stroke="rgb(1, 0, 0)" stroke-opacity="0.3524196" stroke-linecap="round" stroke-linejoin="round"/>
    <path d="M 57.78369903564453 177.26461791992188 C 52.72026443481445 200.62307739257812 67.63613891601562 182.32998657226562 34.22657775878906 188.9304656982422" stroke-width="3.0" fill="none" stroke="rgb(1, -1, 2)" stroke-opacity="0.23567262" stroke-linecap="round" stroke-linejoin="round"/>
    <path d="M 148.3861846923828 77.96003723144531 C 193.7669677734375 73.02812957763672 169.3037872314453 66.29328918457031 146.70130920410156 70.9382553100586" stroke-width="3.0" fill="none" stroke="rgb(1, 0, -1)" stroke-opacity="0.1897423" stroke-linecap="round" stroke-linejoin="round"/>
    <path d="M 174.52085876464844 36.61224365234375 C 174.50279235839844 21.840290069580078 166.21279907226562 13.937691688537598 174.1190948486328 17.715904235839844" stroke-width="3.0" fill="none" stroke="rgb(0, 0, 1)" stroke-opacity="0.481875" stroke-linecap="round" stroke-linejoin="round"/>
    <path d="M 35.060367584228516 64.84976959228516 C 30.20054817199707 53.221336364746094 38.14223861694336 77.68146514892578 32.68800735473633 65.00078582763672" stroke-width="3.0" fill="none" stroke="rgb(3, -2, 1)" stroke-opacity="0.36177206" stroke-linecap="round" stroke-linejoin="round"/>
    <path d="M 7.257152557373047 82.36357879638672 C 8.679211616516113 116.75450134277344 7.571378707885742 116.48133087158203 9.500600814819336 99.34815979003906" stroke-width="3.0" fill="none" stroke="rgb(-2, 1, 1)" stroke-opacity="0.47410834" stroke-linecap="round" stroke-linejoin="round"/>
    <path d="M 176.12396240234375 132.7588348388672 C 182.48260498046875 173.64622497558594 174.6621551513672 132.791259765625 175.90562438964844 176.84410095214844" stroke-width="3.0" fill="none" stroke="rgb(0, 0, 1)" stroke-opacity="0.12864286" stroke-linecap="round" stroke-linejoin="round"/>
    <path d="M 43.86159896850586 185.06944274902344 C 44.786529541015625 143.22093200683594 46.056827545166016 130.81585693359375 45.93645095825195 176.66888427734375" stroke-width="3.0" fill="none" stroke="rgb(1, -2, 0)" stroke-opacity="0.36234036" stroke-linecap="round" stroke-linejoin="round"/>
    <path d="M 9.688048362731934 -11.865570068359375 C 10.93274974822998 -13.63904857635498 10.246435165405273 15.844270706176758 11.020276069641113 19.229753494262695" stroke-width="3.0" fill="none" stroke="rgb(0, 0, 0)" stroke-opacity="0.4296121" stroke-linecap="round" stroke-linejoin="round"/>
    <path d="M 34.50544738769531 71.51740264892578 C 34.92035675048828 103.17886352539062 33.63472366333008 110.97109985351562 35.1943359375 91.8315658569336" stroke-width="3.0" fill="none" stroke="rgb(-1, 0, 1)" stroke-opacity="0.22985056" stroke-linecap="round" stroke-linejoin="round"/>
    <path d="M 96.98786163330078 96.50965881347656 C 92.5855712890625 82.74906158447266 108.51270294189453 89.85997009277344 116.75588989257812 99.94588470458984" stroke-width="3.0" fill="none" stroke="rgb(0, 0, -2)" stroke-opacity="0.33169955" stroke-linecap="round" stroke-linejoin="round"/>
    <path d="M 58.065181732177734 63.18385314941406 C 52.3270378112793 49.92512512207031 62.18521499633789 41.19169998168945 59.285579681396484 75.53179931640625" stroke-width="3.0" fill="none" stroke="rgb(0, 0, 1)" stroke-opacity="0.45204988" stroke-linecap="round" stroke-linejoin="round"/>
    <path d="M 37.10425567626953 30.202980041503906 C 35.56282424926758 23.606046676635742 46.08934783935547 23.905019760131836 71.04753112792969 46.81637954711914" stroke-width="3.0" fill="none" stroke="rgb(1, 1, -2)" stroke-opacity="0.4578543" stroke-linecap="round" stroke-linejoin="round"/>
    <path d="M 229.67063903808594 85.8166275024414 C 218.7476806640625 61.711395263671875 226.6114044189453 55.218170166015625 219.3838348388672 91.07637786865234" stroke-width="3.0" fill="none" stroke="rgb(0, 1, 1)" stroke-opacity="0.37601382" stroke-linecap="round" stroke-linejoin="round"/>
    <path d="M 37.978538513183594 199.64584350585938 C 47.81254196166992 192.3613739013672 45.83623123168945 194.38882446289062 22.691179275512695 204.6944122314453" stroke-width="3.0" fill="none" stroke="rgb(1, 0, -2)" stroke-opacity="0.31457785" stroke-linecap="round" stroke-linejoin="round"/>
    <path d="M 155.50924682617188 75.03988647460938 C 162.10853576660156 54.535377502441406 137.4826202392578 57.82992935180664 167.18417358398438 61.807777404785156" stroke-width="3.0" fill="none" stroke="rgb(0, -1, 0)" stroke-opacity="0.17663057" stroke-linecap="round" stroke-linejoin="round"/>
    <path d="M 57.307281494140625 139.03961181640625 C 58.13396072387695 104.22158813476562 55.373470306396484 97.3687973022461 60.59449005126953 105.16587829589844" stroke-width="3.0" fill="none" stroke="rgb(-1, 0, 1)" stroke-opacity="0.31692713" stroke-linecap="round" stroke-linejoin="round"/>
    <path d="M 49.477115631103516 136.00929260253906 C 48.823787689208984 121.32523345947266 39.346343994140625 137.72052001953125 50.1793327331543 127.81107330322266" stroke-width="3.0" fill="none" stroke="rgb(0, 0, 1)" stroke-opacity="0.3848253" stroke-linecap="round" stroke-linejoin="round"/>
    <path d="M 193.05999755859375 76.16661834716797 C 184.53213500976562 88.56022644042969 201.88380432128906 69.85002136230469 190.30795288085938 90.88221740722656" stroke-width="3.0" fill="none" stroke="rgb(-1, 0, 0)" stroke-opacity="0.23959051" stroke-linecap="round" stroke-linejoin="round"/>
    <path d="M 189.5637664794922 205.91046142578125 C 196.62203979492188 211.90463256835938 196.4561004638672 215.1866912841797 193.6380615234375 204.3551788330078" stroke-width="3.0" fill="none" stroke="rgb(0, 0, 0)" stroke-opacity="0.32290566" stroke-linecap="round" stroke-linejoin="round"/>
    <path d="M 158.32925415039062 210.12315368652344 C 199.28237915039062 202.8410186767578 201.32196044921875 206.94615173339844 198.68478393554688 192.52670288085938" stroke-width="3.0" fill="none" stroke="rgb(0, -1, 1)" stroke-opacity="0.29648224" stroke-linecap="round" stroke-linejoin="round"/>
  </g>
</svg>
