<?xml version="1.0" ?>
<svg xmlns="http://www.w3.org/2000/svg" version="1.1" width="224" height="224">
  <defs/>
  <g>
    <path d="M 92.47872924804688 106.53386688232422 C 73.51319885253906 108.5228271484375 84.22960662841797 65.48887634277344 77.84637451171875 42.78844451904297" stroke-width="3.0" fill="none" stroke="rgb(1, -1, 0)" stroke-opacity="0.33746198" stroke-linecap="round" stroke-linejoin="round"/>
    <path d="M 95.88829040527344 182.01036071777344 C 176.9495086669922 173.5935821533203 143.3277130126953 168.97134399414062 104.3829574584961 173.1634979248047" stroke-width="3.0" fill="none" stroke="rgb(-1, -1, 5)" stroke-opacity="0.38867956" stroke-linecap="round" stroke-linejoin="round"/>
    <path d="M 5.507156848907471 153.9689483642578 C 1.4943524599075317 56.38837814331055 6.900193214416504 36.71051788330078 8.304322242736816 154.36752319335938" stroke-width="3.0" fill="none" stroke="rgb(1, 2, -3)" stroke-opacity="0.17253883" stroke-linecap="round" stroke-linejoin="round"/>
    <path d="M 156.33961486816406 122.82940673828125 C 138.8642578125 0.9429630637168884 182.56617736816406 109.51009368896484 143.21665954589844 111.8560562133789" stroke-width="3.0" fill="none" stroke="rgb(0, -1, 2)" stroke-opacity="0.2831841" stroke-linecap="round" stroke-linejoin="round"/>
    <path d="M 148.20606994628906 44.11284255981445 C 205.9339141845703 47.248172760009766 140.034423828125 35.180599212646484 150.5775909423828 51.64936828613281" stroke-width="3.0" fill="none" stroke="rgb(0, -3, 4)" stroke-opacity="0.45671102" stroke-linecap="round" stroke-linejoin="round"/>
    <path d="M 186.19888305664062 1.97654128074646 C 216.02615356445312 -3.276516914367676 157.64727783203125 31.3653564453125 212.45008850097656 24.880624771118164" stroke-width="3.0" fill="none" stroke="rgb(1, 0, -2)" stroke-opacity="0.1975893" stroke-linecap="round" stroke-linejoin="round"/>
    <path d="M 123.54125213623047 150.87814331054688 C 109.07758331298828 219.78355407714844 149.77420043945312 148.09326171875 124.5354232788086 176.1035614013672" stroke-width="3.0" fill="none" stroke="rgb(1, -2, 0)" stroke-opacity="0.43583083" stroke-linecap="round" stroke-linejoin="round"/>
    <path d="M 49.133949279785156 81.089599609375 C 18.075437545776367 95.31106567382812 53.20417022705078 117.6327896118164 43.837562561035156 72.23064422607422" stroke-width="3.0" fill="none" stroke="rgb(0, 1, -1)" stroke-opacity="0.13021266" stroke-linecap="round" stroke-linejoin="round"/>
    <path d="M 192.0251922607422 127.13597869873047 C 271.39947509765625 154.49900817871094 202.3993682861328 131.8930206298828 229.60678100585938 119.88217163085938" stroke-width="3.0" fill="none" stroke="rgb(-1, -1, 1)" stroke-opacity="0.37653163" stroke-linecap="round" stroke-linejoin="round"/>
    <path d="M 20.666492462158203 -15.076815605163574 C 15.222467422485352 38.19587326049805 26.779869079589844 28.403236389160156 6.923256874084473 20.138561248779297" stroke-width="3.0" fill="none" stroke="rgb(0, 0, 0)" stroke-opacity="0.4251308" stroke-linecap="round" stroke-linejoin="round"/>
    <path d="M 85.77227020263672 187.15499877929688 C 29.93563461303711 266.9952087402344 -4.927698612213135 240.1317596435547 76.89934539794922 195.37255859375" stroke-width="3.0" fill="none" stroke="rgb(-2, 0, 2)" stroke-opacity="0.089893654" stroke-linecap="round" stroke-linejoin="round"/>
    <path d="M 46.40548324584961 185.64002990722656 C 43.21199035644531 145.16477966308594 50.878990173339844 142.1935272216797 49.680511474609375 185.328369140625" stroke-width="3.0" fill="none" stroke="rgb(1, 0, -1)" stroke-opacity="0.6051614" stroke-linecap="round" stroke-linejoin="round"/>
    <path d="M 148.10911560058594 53.62229537963867 C 192.1431884765625 48.82625198364258 168.7476348876953 61.202579498291016 175.97613525390625 -14.057123184204102" stroke-width="3.0" fill="none" stroke="rgb(1, -3, 1)" stroke-opacity="0.18314804" stroke-linecap="round" stroke-linejoin="round"/>
    <path d="M 90.19631958007812 58.08116149902344 C 45.031192779541016 46.49989318847656 80.96143341064453 1.3356869220733643 80.72196960449219 86.72474670410156" stroke-width="3.0" fill="none" stroke="rgb(1, 0, -2)" stroke-opacity="0.16891938" stroke-linecap="round" stroke-linejoin="round"/>
    <path d="M 174.09397888183594 54.226951599121094 C 171.34471130371094 21.626707077026367 173.25958251953125 3.5452165603637695 168.2215118408203 80.59268951416016" stroke-width="3.0" fill="none" stroke="rgb(0, 0, 0)" stroke-opacity="0.41633987" stroke-linecap="round" stroke-linejoin="round"/>
    <path d="M 40.8704833984375 74.51728057861328 C 50.08653259277344 29.791900634765625 58.105186462402344 119.34526824951172 49.08304977416992 84.01740264892578" stroke-width="3.0" fill="none" stroke="rgb(-2, 0, 1)" stroke-opacity="0.34448034" stroke-linecap="round" stroke-linejoin="round"/>
    <path d="M 16.919456481933594 78.45357513427734 C 26.310171127319336 147.52450561523438 4.597293853759766 121.33504486083984 42.958133697509766 139.85601806640625" stroke-width="3.0" fill="none" stroke="rgb(0, 0, 0)" stroke-opacity="0.31451207" stroke-linecap="round" stroke-linejoin="round"/>
    <path d="M 168.43844604492188 119.76322937011719 C 164.7089385986328 49.786529541015625 156.6572723388672 48.6848030090332 175.5100860595703 66.3415298461914" stroke-width="3.0" fill="none" stroke="rgb(1, 1, -2)" stroke-opacity="0.09448732" stroke-linecap="round" stroke-linejoin="round"/>
    <path d="M 167.5518035888672 59.73457336425781 C 186.1460723876953 56.010318756103516 124.28294372558594 73.78936004638672 167.3065948486328 57.338130950927734" stroke-width="3.0" fill="none" stroke="rgb(2, -2, 0)" stroke-opacity="0.41086948" stroke-linecap="round" stroke-linejoin="round"/>
    <path d="M 194.0265655517578 91.1243667602539 C 209.4597625732422 47.6159782409668 193.41152954101562 224.52279663085938 197.19866943359375 63.11931610107422" stroke-width="3.0" fill="none" stroke="rgb(0, 0, 1)" stroke-opacity="0.36340013" stroke-linecap="round" stroke-linejoin="round"/>
    <path d="M 41.84787368774414 71.06732940673828 C 47.085723876953125 -6.718725681304932 33.830631256103516 12.673030853271484 45.55950927734375 23.787334442138672" stroke-width="3.0" fill="none" stroke="rgb(0, 0, 0)" stroke-opacity="0.209542" stroke-linecap="round" stroke-linejoin="round"/>
    <path d="M 197.46315002441406 -0.9731886386871338 C 212.475341796875 94.33514404296875 159.41424560546875 11.929616928100586 212.25869750976562 52.54251480102539" stroke-width="3.0" fill="none" stroke="rgb(-2, 0, 2)" stroke-opacity="0.22538422" stroke-linecap="round" stroke-linejoin="round"/>
    <path d="M 54.04182434082031 82.62614440917969 C 116.61380767822266 100.74185943603516 107.37772369384766 108.18708801269531 46.79112243652344 86.24659729003906" stroke-width="3.0" fill="none" stroke="rgb(-2, -1, 3)" stroke-opacity="0.45819455" stroke-linecap="round" stroke-linejoin="round"/>
    <path d="M 165.50001525878906 57.1373405456543 C 174.757080078125 81.52021789550781 145.0893096923828 14.565934181213379 159.359619140625 119.54691314697266" stroke-width="3.0" fill="none" stroke="rgb(0, 0, 2)" stroke-opacity="0.25510707" stroke-linecap="round" stroke-linejoin="round"/>
    <path d="M 127.2472152709961 148.23199462890625 C 159.27978515625 204.3207550048828 160.4099884033203 107.56546020507812 98.54497528076172 159.2091064453125" stroke-width="3.0" fill="none" stroke="rgb(0, 0, 1)" stroke-opacity="0.22619641" stroke-linecap="round" stroke-linejoin="round"/>
    <path d="M 10.536388397216797 28.562294006347656 C 67.18389892578125 73.00582885742188 41.11371994018555 67.91875457763672 -4.906683921813965 35.02788543701172" stroke-width="3.0" fill="none" stroke="rgb(0, 0, 0)" stroke-opacity="0.031273052" stroke-linecap="round" stroke-linejoin="round"/>
    <path d="M 129.77391052246094 99.39027404785156 C 89.33686065673828 91.77397155761719 101.87211608886719 103.68245697021484 134.7417755126953 93.24891662597656" stroke-width="3.0" fill="none" stroke="rgb(1, 0, -1)" stroke-opacity="0.37233794" stroke-linecap="round" stroke-linejoin="round"/>
    <path d="M 113.2733383178711 125.92084503173828 C 203.85960388183594 105.94309997558594 183.97789001464844 93.79042053222656 150.87911987304688 125.49906158447266" stroke-width="3.0" fill="none" stroke="rgb(-1, 0, 2)" stroke-opacity="0.19448234" stroke-linecap="round" stroke-linejoin="round"/>
    <path d="M 219.27874755859375 -3.791029691696167 C 206.47764587402344 35.55979919433594 153.54498291015625 -6.19450044631958 213.55712890625 4.791399002075195" stroke-width="3.0" fill="none" stroke="rgb(0, 0, 0)" stroke-opacity="0.22018063" stroke-linecap="round" stroke-linejoin="round"/>
    <path d="M 80.93690490722656 128.2386474609375 C 60.46696090698242 139.359619140625 87.8140869140625 86.48412322998047 55.822052001953125 109.31867980957031" stroke-width="3.0" fill="none" stroke="rgb(1, 0, 0)" stroke-opacity="0.15530075" stroke-linecap="round" stroke-linejoin="round"/>
    <path d="M 33.01925277709961 58.22446060180664 C 51.80386734008789 147.50173950195312 35.728553771972656 165.84056091308594 42.296791076660156 43.07223892211914" stroke-width="3.0" fill="none" stroke="rgb(0, -2, 1)" stroke-opacity="0.21518317" stroke-linecap="round" stroke-linejoin="round"/>
    <path d="M 177.09326171875 65.87670135498047 C 177.02012634277344 -18.71440315246582 180.50270080566406 68.05734252929688 180.0605010986328 -0.8847396373748779" stroke-width="3.0" fill="none" stroke="rgb(2, 0, -3)" stroke-opacity="0.23208006" stroke-linecap="round" stroke-linejoin="round"/>
    <path d="M 151.2975616455078 211.05392456054688 C 152.46852111816406 203.8982696533203 77.9755630493164 191.425537109375 77.71479034423828 202.47698974609375" stroke-width="3.0" fill="none" stroke="rgb(-2, -2, 2)" stroke-opacity="0.19455269" stroke-linecap="round" stroke-linejoin="round"/>
    <path d="M 213.20697021484375 230.81068420410156 C 185.73367309570312 193.30442810058594 177.24432373046875 198.74148559570312 214.9776611328125 232.29347229003906" stroke-width="3.0" fill="none" stroke="rgb(-1, 0, 1)" stroke-opacity="0.3764622" stroke-linecap="round" stroke-linejoin="round"/>
    <path d="M 84.71055603027344 186.8418426513672 C 120.63478088378906 178.23922729492188 62.47330856323242 179.47230529785156 136.23614501953125 155.70811462402344" stroke-width="3.0" fill="none" stroke="rgb(-1, 1, 0)" stroke-opacity="0.4487319" stroke-linecap="round" stroke-linejoin="round"/>
    <path d="M 39.82513427734375 39.94270324707031 C 34.25177001953125 86.26496887207031 39.182865142822266 75.05567169189453 46.9315071105957 76.31038665771484" stroke-width="3.0" fill="none" stroke="rgb(-2, -2, 2)" stroke-opacity="0.62795424" stroke-linecap="round" stroke-linejoin="round"/>
    <path d="M 179.9402618408203 71.29228210449219 C 182.96377563476562 14.399821281433105 159.7787322998047 -23.739728927612305 179.5875244140625 75.10315704345703" stroke-width="3.0" fill="none" stroke="rgb(0, 0, 0)" stroke-opacity="0.14633967" stroke-linecap="round" stroke-linejoin="round"/>
    <path d="M 43.87327194213867 98.40251159667969 C 46.81961441040039 231.50396728515625 39.59678649902344 175.82867431640625 40.936317443847656 99.29496002197266" stroke-width="3.0" fill="none" stroke="rgb(-1, 0, 1)" stroke-opacity="0.32697996" stroke-linecap="round" stroke-linejoin="round"/>
    <path d="M 192.90541076660156 106.32515716552734 C 206.6110382080078 83.44776153564453 157.89822387695312 111.23868560791016 233.8198699951172 81.33477020263672" stroke-width="3.0" fill="none" stroke="rgb(-2, -2, 3)" stroke-opacity="0.37240103" stroke-linecap="round" stroke-linejoin="round"/>
    <path d="M 171.79347229003906 13.077943801879883 C 159.1114959716797 28.057397842407227 169.7287139892578 20.31597328186035 166.45506286621094 26.36404037475586" stroke-width="3.0" fill="none" stroke="rgb(0, -1, 3)" stroke-opacity="0.48030782" stroke-linecap="round" stroke-linejoin="round"/>
    <path d="M -2.277491569519043 119.17312622070312 C 58.495994567871094 109.6040267944336 16.725631713867188 134.42152404785156 32.169960021972656 70.8845443725586" stroke-width="3.0" fill="none" stroke="rgb(0, 1, 0)" stroke-opacity="0.096731305" stroke-linecap="round" stroke-linejoin="round"/>
    <path d="M 24.391130447387695 31.958118438720703 C -4.376901626586914 14.807147979736328 12.93350601196289 39.00786590576172 5.241533279418945 -22.569244384765625" stroke-width="3.0" fill="none" stroke="rgb(3, 0, -2)" stroke-opacity="0.34574255" stroke-linecap="round" stroke-linejoin="round"/>
    <path d="M 34.14059066772461 189.47796630859375 C -25.326229095458984 191.4786376953125 120.4107437133789 199.57252502441406 10.699078559875488 204.23687744140625" stroke-width="3.0" fill="none" stroke="rgb(2, -1, -1)" stroke-opacity="0.37850836" stroke-linecap="round" stroke-linejoin="round"/>
    <path d="M 70.91796112060547 62.19343185424805 C 79.07115173339844 116.05747985839844 48.10542678833008 68.22533416748047 52.99639129638672 43.91336441040039" stroke-width="3.0" fill="none" stroke="rgb(0, 0, 0)" stroke-opacity="0.08859137" stroke-linecap="round" stroke-linejoin="round"/>
    <path d="M 69.45922088623047 106.08811950683594 C 70.1607437133789 168.57908630371094 78.67192840576172 107.82269287109375 77.26641845703125 133.35205078125" stroke-width="3.0" fill="none" stroke="rgb(0, -4, 4)" stroke-opacity="0.53735584" stroke-linecap="round" stroke-linejoin="round"/>
    <path d="M 94.48237609863281 70.34532928466797 C 60.29415512084961 59.051021575927734 100.713134765625 84.131103515625 92.03744506835938 71.262939453125" stroke-width="3.0" fill="none" stroke="rgb(3, -1, 0)" stroke-opacity="0.45807725" stroke-linecap="round" stroke-linejoin="round"/>
    <path d="M 86.8572998046875 135.0690155029297 C 83.51984405517578 98.54933166503906 79.38562774658203 85.60950469970703 81.74275207519531 140.5635986328125" stroke-width="3.0" fill="none" stroke="rgb(-1, 0, 0)" stroke-opacity="0.30589956" stroke-linecap="round" stroke-linejoin="round"/>
    <path d="M 146.88409423828125 142.0865478515625 C 147.6793212890625 34.66948699951172 151.9569854736328 236.46572875976562 151.80352783203125 107.63662719726562" stroke-width="3.0" fill="none" stroke="rgb(0, -2, 0)" stroke-opacity="0.42792612" stroke-linecap="round" stroke-linejoin="round"/>
    <path d="M 233.15309143066406 56.134456634521484 C 221.21774291992188 65.67451477050781 236.14414978027344 -0.20715852081775665 215.22393798828125 71.64875030517578" stroke-width="3.0" fill="none" stroke="rgb(0, 0, 0)" stroke-opacity="0.19487455" stroke-linecap="round" stroke-linejoin="round"/>
    <path d="M 79.31621551513672 191.7877960205078 C 31.141870498657227 216.94577026367188 13.684944152832031 220.33729553222656 18.910110473632812 225.03822326660156" stroke-width="3.0" fill="none" stroke="rgb(-2, -2, 2)" stroke-opacity="0.51257807" stroke-linecap="round" stroke-linejoin="round"/>
    <path d="M 42.75734329223633 187.05152893066406 C 36.68880844116211 130.70208740234375 30.450410842895508 105.14042663574219 34.24690628051758 185.62255859375" stroke-width="3.0" fill="none" stroke="rgb(0, -1, 2)" stroke-opacity="0.3416351" stroke-linecap="round" stroke-linejoin="round"/>
    <path d="M 56.6690559387207 234.59886169433594 C 108.01058959960938 202.80697631835938 87.03349304199219 180.18211364746094 185.40689086914062 179.6710968017578" stroke-width="3.0" fill="none" stroke="rgb(-2, -2, 2)" stroke-opacity="0.2944002" stroke-linecap="round" stroke-linejoin="round"/>
    <path d="M 20.066341400146484 149.72476196289062 C 17.087844848632812 256.35186767578125 37.659889221191406 183.8898162841797 10.562225341796875 194.94737243652344" stroke-width="3.0" fill="none" stroke="rgb(-1, 0, 2)" stroke-opacity="0.36144456" stroke-linecap="round" stroke-linejoin="round"/>
    <path d="M 161.01617431640625 98.20477294921875 C 155.42274475097656 190.9298553466797 180.1553955078125 95.7839584350586 87.40928649902344 148.791015625" stroke-width="3.0" fill="none" stroke="rgb(-2, 0, 3)" stroke-opacity="0.2391488" stroke-linecap="round" stroke-linejoin="round"/>
    <path d="M 120.57148742675781 185.3498992919922 C 66.1707992553711 186.82427978515625 108.42367553710938 175.2169189453125 95.70604705810547 175.50453186035156" stroke-width="3.0" fill="none" stroke="rgb(2, -2, 1)" stroke-opacity="0.5614505" stroke-linecap="round" stroke-linejoin="round"/>
    <path d="M 167.88758850097656 27.29794692993164 C 172.17794799804688 -21.891931533813477 187.05445861816406 66.63733673095703 170.0832977294922 32.151126861572266" stroke-width="3.0" fill="none" stroke="rgb(0, 0, 0)" stroke-opacity="0.026262581" stroke-linecap="round" stroke-linejoin="round"/>
    <path d="M -0.4736218750476837 51.09700393676758 C 60.952369689941406 70.31035614013672 80.3716812133789 86.21701049804688 -3.4383182525634766 53.228641510009766" stroke-width="3.0" fill="none" stroke="rgb(2, 0, -2)" stroke-opacity="0.31734082" stroke-linecap="round" stroke-linejoin="round"/>
    <path d="M 172.44583129882812 24.06717300415039 C 161.96511840820312 33.28938674926758 182.10919189453125 51.66325759887695 174.80177307128906 -13.4446439743042" stroke-width="3.0" fill="none" stroke="rgb(-2, -1, 1)" stroke-opacity="0.34087163" stroke-linecap="round" stroke-linejoin="round"/>
    <path d="M -24.965314865112305 65.29096984863281 C -28.769161224365234 79.92576599121094 44.71037292480469 81.35517883300781 22.745519638061523 87.73417663574219" stroke-width="3.0" fill="none" stroke="rgb(-1, 0, 1)" stroke-opacity="0.1640629" stroke-linecap="round" stroke-linejoin="round"/>
    <path d="M 85.96479797363281 122.40493774414062 C 80.50213623046875 61.795440673828125 91.4710693359375 148.93226623535156 88.44959259033203 67.68409729003906" stroke-width="3.0" fill="none" stroke="rgb(0, 2, -2)" stroke-opacity="0.5309692" stroke-linecap="round" stroke-linejoin="round"/>
    <path d="M 64.85066223144531 52.865726470947266 C 86.40870666503906 77.24687194824219 71.7462158203125 38.873409271240234 68.13578033447266 82.8855209350586" stroke-width="3.0" fill="none" stroke="rgb(0, 1, -1)" stroke-opacity="0.18702094" stroke-linecap="round" stroke-linejoin="round"/>
    <path d="M 36.82609176635742 152.69241333007812 C 76.38876342773438 107.14030456542969 66.48481750488281 264.0481872558594 43.32941436767578 129.12802124023438" stroke-width="3.0" fill="none" stroke="rgb(-2, 0, 1)" stroke-opacity="0.14790446" stroke-linecap="round" stroke-linejoin="round"/>
    <path d="M 192.23101806640625 127.79530334472656 C 192.82386779785156 49.42746353149414 178.68405151367188 32.027992248535156 208.00343322753906 87.04415130615234" stroke-width="3.0" fill="none" stroke="rgb(-3, 2, 0)" stroke-opacity="0.20538735" stroke-linecap="round" stroke-linejoin="round"/>
    <path d="M 225.84449768066406 40.057735443115234 C 133.32440185546875 35.387142181396484 243.98580932617188 -31.949020385742188 186.94863891601562 84.24339294433594" stroke-width="3.0" fill="none" stroke="rgb(-1, 1, 0)" stroke-opacity="0.19166814" stroke-linecap="round" stroke-linejoin="round"/>
    <path d="M 59.21016311645508 104.7547378540039 C 67.74028778076172 226.91134643554688 39.30070877075195 200.35751342773438 50.58064651489258 65.77954864501953" stroke-width="3.0" fill="none" stroke="rgb(-1, 0, 0)" stroke-opacity="0.33694676" stroke-linecap="round" stroke-linejoin="round"/>
    <path d="M 51.60811996459961 18.997793197631836 C 99.15294647216797 72.8355941772461 76.54612731933594 57.261871337890625 50.544315338134766 26.54388427734375" stroke-width="3.0" fill="none" stroke="rgb(2, 2, -3)" stroke-opacity="0.4077425" stroke-linecap="round" stroke-linejoin="round"/>
    <path d="M 215.4903106689453 153.31033325195312 C 178.31089782714844 156.4911346435547 205.45675659179688 57.17620086669922 217.10581970214844 191.49331665039062" stroke-width="3.0" fill="none" stroke="rgb(0, 1, -2)" stroke-opacity="0.03851272" stroke-linecap="round" stroke-linejoin="round"/>
    <path d="M 171.40353393554688 14.440319061279297 C 163.72430419921875 40.43570327758789 175.53968811035156 15.390037536621094 174.16018676757812 27.878068923950195" stroke-width="3.0" fill="none" stroke="rgb(0, -4, 3)" stroke-opacity="0.44806632" stroke-linecap="round" stroke-linejoin="round"/>
    <path d="M 186.73023986816406 209.794189453125 C 130.7733612060547 210.69837951660156 195.3994140625 221.52012634277344 145.05020141601562 178.06234741210938" stroke-width="3.0" fill="none" stroke="rgb(0, 1, -1)" stroke-opacity="0.27795777" stroke-linecap="round" stroke-linejoin="round"/>
    <path d="M 93.6583480834961 177.46597290039062 C 95.118896484375 12.321035385131836 102.3246078491211 276.4456481933594 103.742431640625 130.87484741210938" stroke-width="3.0" fill="none" stroke="rgb(0, 0, 0)" stroke-opacity="0.27855086" stroke-linecap="round" stroke-linejoin="round"/>
    <path d="M 174.5759735107422 17.698740005493164 C 173.7467803955078 83.47030639648438 181.42877197265625 78.36549377441406 180.17544555664062 22.327774047851562" stroke-width="3.0" fill="none" stroke="rgb(1, 0, -2)" stroke-opacity="0.22054191" stroke-linecap="round" stroke-linejoin="round"/>
    <path d="M 14.910099983215332 19.123205184936523 C 10.504268646240234 -82.78466033935547 10.503754615783691 -36.51432800292969 8.396799087524414 -9.618407249450684" stroke-width="3.0" fill="none" stroke="rgb(-2, 2, 1)" stroke-opacity="0.32621342" stroke-linecap="round" stroke-linejoin="round"/>
    <path d="M 72.99324035644531 171.8533477783203 C 70.83154296875 133.14566040039062 95.52092742919922 153.42333984375 6.953213214874268 141.88079833984375" stroke-width="3.0" fill="none" stroke="rgb(-4, 0, 4)" stroke-opacity="0.3271458" stroke-linecap="round" stroke-linejoin="round"/>
    <path d="M 164.71737670898438 147.89259338378906 C 173.71067810058594 -3.270841598510742 176.90066528320312 2.5215933322906494 166.65475463867188 175.56629943847656" stroke-width="3.0" fill="none" stroke="rgb(0, 1, -1)" stroke-opacity="0.1756643" stroke-linecap="round" stroke-linejoin="round"/>
    <path d="M 54.95484924316406 167.51866149902344 C 59.15977478027344 105.86089324951172 43.62097930908203 158.70265197753906 103.57178497314453 124.12598419189453" stroke-width="3.0" fill="none" stroke="rgb(-2, -1, 2)" stroke-opacity="0.31594697" stroke-linecap="round" stroke-linejoin="round"/>
    <path d="M 51.39030838012695 142.66220092773438 C 66.70143127441406 235.15785217285156 17.92156410217285 138.55691528320312 83.22991943359375 140.35089111328125" stroke-width="3.0" fill="none" stroke="rgb(-2, 5, -2)" stroke-opacity="0.3214519" stroke-linecap="round" stroke-linejoin="round"/>
    <path d="M 87.08122253417969 52.608333587646484 C 69.64461517333984 42.2652473449707 59.08944320678711 19.49875259399414 38.95634841918945 20.966339111328125" stroke-width="3.0" fill="none" stroke="rgb(-1, 0, 0)" stroke-opacity="0.5464561" stroke-linecap="round" stroke-linejoin="round"/>
    <path d="M 26.316133499145508 122.79678344726562 C 21.529644012451172 57.392696380615234 39.57750701904297 93.46904754638672 -8.165383338928223 67.7997055053711" stroke-width="3.0" fill="none" stroke="rgb(0, -2, 2)" stroke-opacity="0.5058127" stroke-linecap="round" stroke-linejoin="round"/>
    <path d="M 49.6540641784668 58.90565872192383 C 50.103023529052734 24.916316986083984 53.54016876220703 28.544523239135742 37.44295883178711 29.309810638427734" stroke-width="3.0" fill="none" stroke="rgb(1, 0, -1)" stroke-opacity="0.35798866" stroke-linecap="round" stroke-linejoin="round"/>
    <path d="M 154.75328063964844 167.10958862304688 C 200.29078674316406 155.87347412109375 69.70104217529297 163.19842529296875 177.5550079345703 173.28457641601562" stroke-width="3.0" fill="none" stroke="rgb(1, -3, 4)" stroke-opacity="0.436145" stroke-linecap="round" stroke-linejoin="round"/>
    <path d="M 114.25090026855469 117.60379791259766 C 112.8038558959961 188.927001953125 126.6710205078125 22.396305084228516 125.05036926269531 137.59156799316406" stroke-width="3.0" fill="none" stroke="rgb(1, 0, -3)" stroke-opacity="0.22368088" stroke-linecap="round" stroke-linejoin="round"/>
    <path d="M 224.45657348632812 55.409156799316406 C 148.5457763671875 39.24064254760742 232.98275756835938 78.83499908447266 191.39190673828125 78.99060821533203" stroke-width="3.0" fill="none" stroke="rgb(0, 0, 1)" stroke-opacity="0.21902716" stroke-linecap="round" stroke-linejoin="round"/>
    <path d="M 40.828460693359375 23.14704132080078 C 71.76154327392578 5.952495098114014 33.21249771118164 76.25575256347656 37.976070404052734 -0.8925480246543884" stroke-width="3.0" fill="none" stroke="rgb(1, 0, -2)" stroke-opacity="0.21961085" stroke-linecap="round" stroke-linejoin="round"/>
    <path d="M 74.08975982666016 79.82049560546875 C 67.26578521728516 52.532615661621094 78.03494262695312 48.103546142578125 73.55987548828125 80.3794937133789" stroke-width="3.0" fill="none" stroke="rgb(3, 1, -4)" stroke-opacity="0.51376283" stroke-linecap="round" stroke-linejoin="round"/>
    <path d="M 211.28077697753906 43.21951675415039 C 200.578857421875 102.03292083740234 219.57745361328125 76.90162658691406 190.1905975341797 85.09486389160156" stroke-width="3.0" fill="none" stroke="rgb(-1, 1, 1)" stroke-opacity="0.37086278" stroke-linecap="round" stroke-linejoin="round"/>
    <path d="M 37.216766357421875 156.45362854003906 C 118.78559112548828 137.63490295410156 91.36046600341797 111.77798461914062 86.989501953125 170.47789001464844" stroke-width="3.0" fill="none" stroke="rgb(2, -3, 0)" stroke-opacity="0.16249107" stroke-linecap="round" stroke-linejoin="round"/>
    <path d="M 122.12265014648438 143.6916046142578 C 113.37498474121094 67.10043334960938 83.2793197631836 86.01744079589844 103.87382507324219 89.35955047607422" stroke-width="3.0" fill="none" stroke="rgb(1, 0, -1)" stroke-opacity="0.24271768" stroke-linecap="round" stroke-linejoin="round"/>
    <path d="M 5.129767894744873 128.43809509277344 C 16.61610984802246 241.52928161621094 -1.3660575151443481 121.10511016845703 14.5833158493042 225.9748992919922" stroke-width="3.0" fill="none" stroke="rgb(-1, 1, 0)" stroke-opacity="0.16619007" stroke-linecap="round" stroke-linejoin="round"/>
    <path d="M 160.4490203857422 83.18954467773438 C 120.46632385253906 81.71831512451172 187.4312744140625 68.1479263305664 149.44241333007812 77.2081069946289" stroke-width="3.0" fill="none" stroke="rgb(0, 0, 1)" stroke-opacity="0.45630038" stroke-linecap="round" stroke-linejoin="round"/>
    <path d="M 26.946304321289062 -3.746826171875 C 27.925811767578125 71.0704574584961 26.268064498901367 -8.17552375793457 43.64960479736328 74.52640533447266" stroke-width="3.0" fill="none" stroke="rgb(-2, 2, 1)" stroke-opacity="0.16901945" stroke-linecap="round" stroke-linejoin="round"/>
    <path d="M 190.84323120117188 145.13450622558594 C 203.48538208007812 269.7450256347656 187.41143798828125 129.33763122558594 167.88197326660156 51.57841110229492" stroke-width="3.0" fill="none" stroke="rgb(0, 0, 0)" stroke-opacity="0.10351909" stroke-linecap="round" stroke-linejoin="round"/>
    <path d="M 118.65445709228516 151.7439727783203 C 214.53550720214844 178.3480987548828 93.67711639404297 125.1004638671875 160.1209716796875 141.99630737304688" stroke-width="3.0" fill="none" stroke="rgb(0, 1, 0)" stroke-opacity="0.31076485" stroke-linecap="round" stroke-linejoin="round"/>
    <path d="M 96.82816314697266 90.90201568603516 C 98.85620880126953 189.40615844726562 106.66266632080078 19.135753631591797 107.84979248046875 129.52505493164062" stroke-width="3.0" fill="none" stroke="rgb(-2, 1, 0)" stroke-opacity="0.3089796" stroke-linecap="round" stroke-linejoin="round"/>
    <path d="M 48.23291778564453 138.92428588867188 C 41.04706573486328 134.67185974121094 17.431175231933594 170.59365844726562 67.94188690185547 132.19139099121094" stroke-width="3.0" fill="none" stroke="rgb(-3, 0, 1)" stroke-opacity="0.35536012" stroke-linecap="round" stroke-linejoin="round"/>
    <path d="M 163.40606689453125 90.58671569824219 C 183.96270751953125 23.517444610595703 164.40695190429688 68.83138275146484 187.34771728515625 190.5" stroke-width="3.0" fill="none" stroke="rgb(0, 0, 0)" stroke-opacity="0.09292453" stroke-linecap="round" stroke-linejoin="round"/>
    <path d="M 134.68397521972656 151.06883239746094 C 154.54803466796875 86.4837875366211 110.75932312011719 65.83296203613281 142.62258911132812 158.28680419921875" stroke-width="3.0" fill="none" stroke="rgb(0, 1, -3)" stroke-opacity="0.26045623" stroke-linecap="round" stroke-linejoin="round"/>
    <path d="M 28.875057220458984 108.5569076538086 C 34.634708404541016 54.11222839355469 24.076404571533203 142.48590087890625 46.12639236450195 148.1140594482422" stroke-width="3.0" fill="none" stroke="rgb(0, 1, -1)" stroke-opacity="0.057825677" stroke-linecap="round" stroke-linejoin="round"/>
    <path d="M 219.41619873046875 -4.551396369934082 C 175.80892944335938 28.596555709838867 226.32994079589844 20.2476806640625 225.8877716064453 -14.891002655029297" stroke-width="3.0" fill="none" stroke="rgb(-3, 0, 2)" stroke-opacity="0.25136638" stroke-linecap="round" stroke-linejoin="round"/>
    <path d="M 45.904300689697266 35.178802490234375 C 41.8217658996582 25.29745864868164 67.64466857910156 20.330764770507812 85.57681274414062 59.34137725830078" stroke-width="3.0" fill="none" stroke="rgb(0, 0, 0)" stroke-opacity="0.23093334" stroke-linecap="round" stroke-linejoin="round"/>
    <path d="M 222.27577209472656 -15.534460067749023 C 213.34349060058594 67.46300506591797 243.8701934814453 17.320507049560547 206.52871704101562 56.616912841796875" stroke-width="3.0" fill="none" stroke="rgb(-3, 0, 3)" stroke-opacity="0.35441634" stroke-linecap="round" stroke-linejoin="round"/>
    <path d="M 91.15962982177734 112.42254638671875 C 86.39605712890625 136.43115234375 12.2582426071167 155.960693359375 139.62677001953125 102.69709014892578" stroke-width="3.0" fill="none" stroke="rgb(0, -2, 2)" stroke-opacity="0.2085193" stroke-linecap="round" stroke-linejoin="round"/>
    <path d="M 214.3441619873047 1.3825693130493164 C 152.078125 236.01715087890625 147.30865478515625 242.16983032226562 217.6161346435547 10.751659393310547" stroke-width="3.0" fill="none" stroke="rgb(0, 1, 0)" stroke-opacity="0.08598717" stroke-linecap="round" stroke-linejoin="round"/>
    <path d="M 171.95401000976562 122.27877044677734 C 180.8389434814453 92.59259033203125 181.26673889160156 206.6063690185547 180.2993621826172 65.21897888183594" stroke-width="3.0" fill="none" stroke="rgb(0, -3, 2)" stroke-opacity="0.37708208" stroke-linecap="round" stroke-linejoin="round"/>
    <path d="M 167.91395568847656 233.1786346435547 C 137.36167907714844 168.0615692138672 152.57017517089844 177.16372680664062 111.07569122314453 186.1891326904297" stroke-width="3.0" fill="none" stroke="rgb(-2, 0, 2)" stroke-opacity="0.27781925" stroke-linecap="round" stroke-linejoin="round"/>
    <path d="M 176.7771453857422 89.8720703125 C 181.60479736328125 28.131980895996094 141.3589630126953 103.7537612915039 198.80592346191406 56.13121032714844" stroke-width="3.0" fill="none" stroke="rgb(0, 0, 1)" stroke-opacity="0.21035664" stroke-linecap="round" stroke-linejoin="round"/>
    <path d="M 121.0286865234375 97.60697174072266 C 89.58980560302734 72.07095336914062 116.13845825195312 87.09346008300781 79.04969787597656 97.50904846191406" stroke-width="3.0" fill="none" stroke="rgb(1, -2, 1)" stroke-opacity="0.49490535" stroke-linecap="round" stroke-linejoin="round"/>
    <path d="M 109.04402160644531 171.54327392578125 C 123.14998626708984 -47.50014114379883 111.76994323730469 270.1863098144531 112.46154022216797 139.3623809814453" stroke-width="3.0" fill="none" stroke="rgb(1, 0, -3)" stroke-opacity="0.4489596" stroke-linecap="round" stroke-linejoin="round"/>
    <path d="M 59.0843391418457 78.1917724609375 C 58.7009162902832 24.898456573486328 62.19404602050781 67.03961944580078 57.139007568359375 53.23997116088867" stroke-width="3.0" fill="none" stroke="rgb(1, 0, 0)" stroke-opacity="0.5403816" stroke-linecap="round" stroke-linejoin="round"/>
    <path d="M 51.638092041015625 7.41067361831665 C 4.758565425872803 13.522884368896484 -2.4117534160614014 7.544241428375244 46.94240188598633 13.324335098266602" stroke-width="3.0" fill="none" stroke="rgb(0, 0, 0)" stroke-opacity="0.040534243" stroke-linecap="round" stroke-linejoin="round"/>
    <path d="M 74.31574249267578 87.7918930053711 C 76.44229125976562 40.627655029296875 66.33761596679688 53.613521575927734 70.27934265136719 80.03472900390625" stroke-width="3.0" fill="none" stroke="rgb(-3, 2, 0)" stroke-opacity="0.4366272" stroke-linecap="round" stroke-linejoin="round"/>
    <path d="M 239.02511596679688 22.488340377807617 C 166.41603088378906 79.54613494873047 196.95652770996094 79.1785888671875 188.64292907714844 -1.1266140937805176" stroke-width="3.0" fill="none" stroke="rgb(-2, 0, 1)" stroke-opacity="0.35527855" stroke-linecap="round" stroke-linejoin="round"/>
    <path d="M 159.55120849609375 199.06504821777344 C 210.02561950683594 196.2121124267578 202.08355712890625 184.1509246826172 174.14804077148438 187.38931274414062" stroke-width="3.0" fill="none" stroke="rgb(0, -3, 2)" stroke-opacity="0.40604717" stroke-linecap="round" stroke-linejoin="round"/>
    <path d="M 87.47879028320312 159.2925567626953 C 114.95059204101562 170.5069122314453 95.0337142944336 -31.056062698364258 89.78888702392578 183.6036834716797" stroke-width="3.0" fill="none" stroke="rgb(0, -1, 1)" stroke-opacity="0.24229474" stroke-linecap="round" stroke-linejoin="round"/>
    <path d="M 25.10773468017578 123.09446716308594 C -53.57334518432617 137.2043914794922 20.8717041015625 100.1069107055664 -37.62057876586914 -5.838649749755859" stroke-width="3.0" fill="none" stroke="rgb(1, -1, -1)" stroke-opacity="0.5521019" stroke-linecap="round" stroke-linejoin="round"/>
    <path d="M 28.015613555908203 186.43699645996094 C 19.848445892333984 42.320899963378906 17.15801239013672 -21.248580932617188 23.914464950561523 189.29583740234375" stroke-width="3.0" fill="none" stroke="rgb(-1, 2, 0)" stroke-opacity="0.13285746" stroke-linecap="round" stroke-linejoin="round"/>
    <path d="M 83.83305358886719 178.0275115966797 C 84.32184600830078 119.16600799560547 76.7289047241211 135.5236053466797 74.88868713378906 182.63955688476562" stroke-width="3.0" fill="none" stroke="rgb(-1, 1, 0)" stroke-opacity="0.16706482" stroke-linecap="round" stroke-linejoin="round"/>
    <path d="M 52.27540588378906 17.51521110534668 C 50.89419174194336 125.9575424194336 59.58342742919922 62.758419036865234 56.77532958984375 44.401100158691406" stroke-width="3.0" fill="none" stroke="rgb(0, -1, 1)" stroke-opacity="0.1489496" stroke-linecap="round" stroke-linejoin="round"/>
    <path d="M 26.20578384399414 188.82530212402344 C 140.00149536132812 167.27685546875 116.8002700805664 200.5454864501953 32.729522705078125 186.50955200195312" stroke-width="3.0" fill="none" stroke="rgb(2, -2, 2)" stroke-opacity="0.25803408" stroke-linecap="round" stroke-linejoin="round"/>
    <path d="M 161.68295288085938 100.04181671142578 C 154.69627380371094 97.01777648925781 133.20376586914062 97.3023681640625 160.77188110351562 89.57388305664062" stroke-width="3.0" fill="none" stroke="rgb(0, -1, 1)" stroke-opacity="0.31986558" stroke-linecap="round" stroke-linejoin="round"/>
    <path d="M 65.81150817871094 181.76829528808594 C 55.595848083496094 72.30156707763672 56.676490783691406 258.5130615234375 64.89996337890625 151.29440307617188" stroke-width="3.0" fill="none" stroke="rgb(0, -2, 3)" stroke-opacity="0.3952341" stroke-linecap="round" stroke-linejoin="round"/>
    <path d="M 65.051025390625 192.3137969970703 C 42.03178405761719 192.3465118408203 63.57771301269531 188.24554443359375 7.716390609741211 208.4596405029297" stroke-width="3.0" fill="none" stroke="rgb(3, 1, -4)" stroke-opacity="0.2405659" stroke-linecap="round" stroke-linejoin="round"/>
    <path d="M 151.78231811523438 56.71044158935547 C 183.68434143066406 63.026039123535156 127.03890228271484 -0.30611398816108704 169.1910400390625 80.38593292236328" stroke-width="3.0" fill="none" stroke="rgb(0, 0, 0)" stroke-opacity="0.064408496" stroke-linecap="round" stroke-linejoin="round"/>
    <path d="M 165.66799926757812 37.0798225402832 C 157.62100219726562 20.535673141479492 138.05775451660156 18.824186325073242 172.22073364257812 -1.935768961906433" stroke-width="3.0" fill="none" stroke="rgb(0, 0, 0)" stroke-opacity="0.009193134" stroke-linecap="round" stroke-linejoin="round"/>
    <path d="M 4.66257905960083 51.61440658569336 C -44.63612365722656 18.97324562072754 81.89739990234375 84.77330017089844 -2.198529005050659 44.986732482910156" stroke-width="3.0" fill="none" stroke="rgb(-3, -3, 4)" stroke-opacity="0.41595295" stroke-linecap="round" stroke-linejoin="round"/>
    <path d="M 15.95272445678711 78.04010772705078 C 22.103179931640625 144.46043395996094 10.076711654663086 147.5428466796875 11.971878051757812 83.23927307128906" stroke-width="3.0" fill="none" stroke="rgb(-3, -4, 5)" stroke-opacity="0.40993255" stroke-linecap="round" stroke-linejoin="round"/>
    <path d="M 167.55101013183594 63.57553482055664 C 196.27072143554688 253.50038146972656 159.551025390625 100.5632553100586 178.48619079589844 173.21823120117188" stroke-width="3.0" fill="none" stroke="rgb(3, -2, -1)" stroke-opacity="0.13808821" stroke-linecap="round" stroke-linejoin="round"/>
    <path d="M 38.63865661621094 185.26959228515625 C 35.5329475402832 110.1789779663086 36.07455062866211 67.5816421508789 39.61476135253906 187.5535430908203" stroke-width="3.0" fill="none" stroke="rgb(2, -1, 0)" stroke-opacity="0.55793905" stroke-linecap="round" stroke-linejoin="round"/>
    <path d="M 14.201462745666504 -20.889738082885742 C 13.100383758544922 -71.56671142578125 11.152527809143066 1.5220746994018555 11.244776725769043 18.64902687072754" stroke-width="3.0" fill="none" stroke="rgb(1, 0, 0)" stroke-opacity="0.3469791" stroke-linecap="round" stroke-linejoin="round"/>
    <path d="M 36.97041702270508 78.04930877685547 C 31.595256805419922 170.7954864501953 46.06565475463867 155.4130096435547 42.37382125854492 104.89432525634766" stroke-width="3.0" fill="none" stroke="rgb(-1, -2, 4)" stroke-opacity="0.43245083" stroke-linecap="round" stroke-linejoin="round"/>
    <path d="M 110.173583984375 95.61322784423828 C 63.29597091674805 81.52472686767578 121.83082580566406 73.66704559326172 119.71096801757812 109.31502532958984" stroke-width="3.0" fill="none" stroke="rgb(1, 0, 0)" stroke-opacity="0.41856167" stroke-linecap="round" stroke-linejoin="round"/>
    <path d="M 57.14748764038086 82.55290985107422 C 54.6097297668457 52.296077728271484 63.50322341918945 25.26070785522461 62.89376449584961 79.18242645263672" stroke-width="3.0" fill="none" stroke="rgb(0, -1, 0)" stroke-opacity="0.44287887" stroke-linecap="round" stroke-linejoin="round"/>
    <path d="M 40.87528991699219 61.857669830322266 C 31.705270767211914 -16.716066360473633 42.65281295776367 16.176023483276367 79.3704833984375 56.033451080322266" stroke-width="3.0" fill="none" stroke="rgb(0, 0, -1)" stroke-opacity="0.21326147" stroke-linecap="round" stroke-linejoin="round"/>
    <path d="M 214.70176696777344 126.44149017333984 C 214.15345764160156 9.283053398132324 231.3398895263672 -4.204019546508789 217.5073699951172 131.9188995361328" stroke-width="3.0" fill="none" stroke="rgb(-3, 1, 2)" stroke-opacity="0.24479066" stroke-linecap="round" stroke-linejoin="round"/>
    <path d="M 70.71736907958984 186.3279266357422 C -24.30242347717285 205.7723388671875 100.72926330566406 191.9398956298828 11.283201217651367 216.36651611328125" stroke-width="3.0" fill="none" stroke="rgb(2, -1, -1)" stroke-opacity="0.29570353" stroke-linecap="round" stroke-linejoin="round"/>
    <path d="M 147.2432861328125 93.8167953491211 C 150.391845703125 28.294715881347656 147.04586791992188 83.20459747314453 164.50018310546875 62.18665313720703" stroke-width="3.0" fill="none" stroke="rgb(-1, 1, 1)" stroke-opacity="0.13992544" stroke-linecap="round" stroke-linejoin="round"/>
    <path d="M 57.89155578613281 168.5384979248047 C 50.43888473510742 79.60050201416016 74.21092224121094 69.63914489746094 41.65480422973633 113.79434204101562" stroke-width="3.0" fill="none" stroke="rgb(-1, 0, 1)" stroke-opacity="0.21299888" stroke-linecap="round" stroke-linejoin="round"/>
    <path d="M 51.8210334777832 137.76171875 C 49.636844635009766 113.76768493652344 20.110076904296875 136.29757690429688 55.27485656738281 129.44873046875" stroke-width="3.0" fill="none" stroke="rgb(-1, 2, 1)" stroke-opacity="0.33356404" stroke-linecap="round" stroke-linejoin="round"/>
    <path d="M 219.21640014648438 65.45021057128906 C 145.41693115234375 91.54525756835938 205.14541625976562 42.30203628540039 184.22999572753906 74.264892578125" stroke-width="3.0" fill="none" stroke="rgb(-3, 0, 4)" stroke-opacity="0.20571631" stroke-linecap="round" stroke-linejoin="round"/>
    <path d="M 198.93081665039062 227.86151123046875 C 162.7659454345703 191.34481811523438 169.7200164794922 218.0928192138672 202.32252502441406 201.99740600585938" stroke-width="3.0" fill="none" stroke="rgb(-2, 1, 2)" stroke-opacity="0.16993436" stroke-linecap="round" stroke-linejoin="round"/>
    <path d="M 158.5695343017578 209.41696166992188 C 191.5443572998047 204.9933319091797 223.16763305664062 208.7708282470703 170.07339477539062 167.33175659179688" stroke-width="3.0" fill="none" stroke="rgb(1, -2, 1)" stroke-opacity="0.35990387" stroke-linecap="round" stroke-linejoin="round"/>
  </g>
</svg>
