<?xml version="1.0" ?>
<svg xmlns="http://www.w3.org/2000/svg" version="1.1" width="224" height="224">
  <defs/>
  <g>
    <path d="M 133.9998321533203 20.000099182128906 C 129.75619506835938 27.290372848510742 130.97828674316406 22.37993621826172 125.15325927734375 22.949249267578125" stroke-width="3.0" fill="none" stroke="rgb(2, 2, 2)" stroke-opacity="0.9900001" stroke-linecap="round" stroke-linejoin="round"/>
    <path d="M 40.999794006347656 81.9996566772461 C 39.61268615722656 77.44371032714844 47.0974235534668 82.06854248046875 44.66682434082031 77.78429412841797" stroke-width="3.0" fill="none" stroke="rgb(2, 2, 2)" stroke-opacity="0.99000007" stroke-linecap="round" stroke-linejoin="round"/>
    <path d="M 39.0001220703125 71.00011444091797 C 44.719329833984375 70.98208618164062 47.14531707763672 71.08163452148438 42.60850143432617 74.83023071289062" stroke-width="3.0" fill="none" stroke="rgb(2, 2, 2)" stroke-opacity="0.9900001" stroke-linecap="round" stroke-linejoin="round"/>
    <path d="M 148.00050354003906 47.00053405761719 C 153.38502502441406 46.12670135498047 155.95156860351562 44.82549285888672 158.6825714111328 44.915565490722656" stroke-width="3.0" fill="none" stroke="rgb(2, 2, 2)" stroke-opacity="0.99000067" stroke-linecap="round" stroke-linejoin="round"/>
    <path d="M 176.00021362304688 37.9998779296875 C 180.2487030029297 42.076385498046875 177.7425994873047 43.32575988769531 178.78973388671875 48.18901443481445" stroke-width="3.0" fill="none" stroke="rgb(2, 2, -2)" stroke-opacity="0.99000007" stroke-linecap="round" stroke-linejoin="round"/>
    <path d="M 119.00007629394531 63.000083923339844 C 119.08689880371094 66.59086608886719 116.65460968017578 66.33131408691406 117.62821197509766 71.921630859375" stroke-width="3.0" fill="none" stroke="rgb(2, 2, 2)" stroke-opacity="0.99000007" stroke-linecap="round" stroke-linejoin="round"/>
    <path d="M 160.99990844726562 181.99884033203125 C 158.88424682617188 176.06512451171875 159.3162384033203 174.33050537109375 159.8980255126953 174.81654357910156" stroke-width="3.0" fill="none" stroke="rgb(-2, 2, -2)" stroke-opacity="0.99000037" stroke-linecap="round" stroke-linejoin="round"/>
    <path d="M 168.99893188476562 60.00010299682617 C 168.49684143066406 58.009525299072266 165.01150512695312 60.218658447265625 165.81602478027344 57.23395919799805" stroke-width="3.0" fill="none" stroke="rgb(2, 2, 2)" stroke-opacity="0.9900005" stroke-linecap="round" stroke-linejoin="round"/>
    <path d="M 148.98312377929688 80.00914001464844 C 150.088134765625 74.88936614990234 152.82962036132812 77.1875228881836 156.31500244140625 75.91158294677734" stroke-width="3.0" fill="none" stroke="rgb(2, 2, 2)" stroke-opacity="0.99000007" stroke-linecap="round" stroke-linejoin="round"/>
    <path d="M 125.99992370605469 121.00375366210938 C 127.8264389038086 124.59396362304688 133.21585083007812 124.54054260253906 126.03328704833984 124.56595611572266" stroke-width="3.0" fill="none" stroke="rgb(2, 2, -2)" stroke-opacity="0.99000007" stroke-linecap="round" stroke-linejoin="round"/>
    <path d="M 166.00186157226562 66.99981689453125 C 167.01031494140625 71.1400146484375 171.20164489746094 68.4723892211914 171.49168395996094 69.98596954345703" stroke-width="3.0" fill="none" stroke="rgb(2, 2, -2)" stroke-opacity="0.99000007" stroke-linecap="round" stroke-linejoin="round"/>
    <path d="M 85.000244140625 190.0000457763672 C 87.4917984008789 188.99195861816406 91.2245101928711 185.12118530273438 90.88282012939453 190.3763427734375" stroke-width="3.0" fill="none" stroke="rgb(-2, 2, -2)" stroke-opacity="0.9900001" stroke-linecap="round" stroke-linejoin="round"/>
    <path d="M 80.99883270263672 187.0000457763672 C 79.19158172607422 191.1573486328125 80.869384765625 193.09947204589844 84.81623840332031 197.12274169921875" stroke-width="3.0" fill="none" stroke="rgb(2, 2, 2)" stroke-opacity="0.99000007" stroke-linecap="round" stroke-linejoin="round"/>
    <path d="M 145.00604248046875 50.00129318237305 C 145.64488220214844 47.94801712036133 148.10415649414062 52.85071563720703 150.2803955078125 47.65144729614258" stroke-width="3.0" fill="none" stroke="rgb(-2, 2, 2)" stroke-opacity="0.99021083" stroke-linecap="round" stroke-linejoin="round"/>
    <path d="M 149.64739990234375 78.00936126708984 C 145.1549530029297 79.47402954101562 149.87660217285156 85.04080200195312 152.644287109375 84.30072784423828" stroke-width="3.0" fill="none" stroke="rgb(2, 2, 2)" stroke-opacity="0.9900002" stroke-linecap="round" stroke-linejoin="round"/>
    <path d="M 150.99993896484375 58.99985122680664 C 146.50189208984375 60.49702835083008 150.67526245117188 57.867454528808594 152.8482208251953 62.38554763793945" stroke-width="3.0" fill="none" stroke="rgb(2, 2, 2)" stroke-opacity="0.99000007" stroke-linecap="round" stroke-linejoin="round"/>
    <path d="M 179.00010681152344 54.00004959106445 C 173.91546630859375 57.31686782836914 171.60244750976562 55.91508102416992 169.63076782226562 56.26423645019531" stroke-width="3.0" fill="none" stroke="rgb(2, 2, 2)" stroke-opacity="0.99000007" stroke-linecap="round" stroke-linejoin="round"/>
    <path d="M 141.01498413085938 26.0039005279541 C 141.74046325683594 29.280231475830078 138.04347229003906 26.46693229675293 144.19520568847656 25.901714324951172" stroke-width="3.0" fill="none" stroke="rgb(2, 2, 2)" stroke-opacity="0.99000037" stroke-linecap="round" stroke-linejoin="round"/>
    <path d="M 121.00009155273438 91.00023651123047 C 118.09819793701172 95.62374877929688 114.10105895996094 95.1886215209961 113.34323120117188 92.44847106933594" stroke-width="3.0" fill="none" stroke="rgb(2, 2, 2)" stroke-opacity="0.99" stroke-linecap="round" stroke-linejoin="round"/>
    <path d="M 79.9992904663086 80.99906921386719 C 74.50508880615234 84.41089630126953 78.99864196777344 86.39999389648438 75.16807556152344 85.7484359741211" stroke-width="3.0" fill="none" stroke="rgb(2, 2, -2)" stroke-opacity="0.9900001" stroke-linecap="round" stroke-linejoin="round"/>
    <path d="M 148.0018768310547 29.99994468688965 C 146.27117919921875 28.983657836914062 147.82705688476562 28.134183883666992 145.0276641845703 32.00056076049805" stroke-width="3.0" fill="none" stroke="rgb(2, 2, 2)" stroke-opacity="0.99000007" stroke-linecap="round" stroke-linejoin="round"/>
    <path d="M 146.9998321533203 54.9998779296875 C 143.6236572265625 53.70513153076172 143.44117736816406 50.761940002441406 144.24644470214844 51.601646423339844" stroke-width="3.0" fill="none" stroke="rgb(2, 2, 2)" stroke-opacity="0.9900002" stroke-linecap="round" stroke-linejoin="round"/>
    <path d="M 145.00021362304688 171.0001678466797 C 150.52146911621094 170.70616149902344 157.86553955078125 172.4783172607422 153.34725952148438 171.21754455566406" stroke-width="3.0" fill="none" stroke="rgb(-2, 2, -2)" stroke-opacity="0.99000037" stroke-linecap="round" stroke-linejoin="round"/>
    <path d="M 133.00006103515625 50.99985885620117 C 137.08078002929688 53.74007034301758 132.02908325195312 54.931617736816406 129.99380493164062 57.45920944213867" stroke-width="3.0" fill="none" stroke="rgb(2, 2, 2)" stroke-opacity="0.99000007" stroke-linecap="round" stroke-linejoin="round"/>
    <path d="M 145.00013732910156 40.98871994018555 C 142.6063690185547 42.3478889465332 145.78927612304688 40.69402313232422 147.33425903320312 42.04743576049805" stroke-width="3.0" fill="none" stroke="rgb(-2, 2, 2)" stroke-opacity="0.9900002" stroke-linecap="round" stroke-linejoin="round"/>
    <path d="M 39.00014877319336 78.00008392333984 C 42.99061584472656 80.47510528564453 44.773433685302734 84.26451873779297 44.21052169799805 90.78180694580078" stroke-width="3.0" fill="none" stroke="rgb(2, 2, -2)" stroke-opacity="0.9900002" stroke-linecap="round" stroke-linejoin="round"/>
    <path d="M 99.99990844726562 196.9998016357422 C 99.64005279541016 192.86131286621094 100.97594451904297 195.75070190429688 103.57843780517578 191.16062927246094" stroke-width="3.0" fill="none" stroke="rgb(2, 2, -2)" stroke-opacity="0.9900002" stroke-linecap="round" stroke-linejoin="round"/>
    <path d="M 147.00042724609375 49.00020980834961 C 144.70669555664062 51.772220611572266 143.0703582763672 47.6653938293457 141.51455688476562 54.932559967041016" stroke-width="3.0" fill="none" stroke="rgb(2, 2, 2)" stroke-opacity="0.99000055" stroke-linecap="round" stroke-linejoin="round"/>
    <path d="M 90.99983978271484 112.00016021728516 C 91.34326934814453 116.63140869140625 93.04734802246094 113.90925598144531 98.6832504272461 113.70608520507812" stroke-width="3.0" fill="none" stroke="rgb(-2, 2, -2)" stroke-opacity="0.9900001" stroke-linecap="round" stroke-linejoin="round"/>
    <path d="M 60.00042724609375 138.99989318847656 C 63.43296813964844 139.76588439941406 61.626502990722656 135.45172119140625 66.81201934814453 131.42791748046875" stroke-width="3.0" fill="none" stroke="rgb(2, 2, -2)" stroke-opacity="0.99000007" stroke-linecap="round" stroke-linejoin="round"/>
    <path d="M 120.99991607666016 49.0002326965332 C 126.22453308105469 53.033905029296875 128.73587036132812 58.409122467041016 133.9691619873047 63.8198356628418" stroke-width="3.0" fill="none" stroke="rgb(2, 2, -2)" stroke-opacity="0.99000007" stroke-linecap="round" stroke-linejoin="round"/>
    <path d="M 119.00009155273438 129.99960327148438 C 119.4964599609375 133.25547790527344 112.05522155761719 131.66656494140625 111.54641723632812 135.60073852539062" stroke-width="3.0" fill="none" stroke="rgb(2, 2, 2)" stroke-opacity="0.99000007" stroke-linecap="round" stroke-linejoin="round"/>
    <path d="M 125.00022888183594 67.99980926513672 C 126.93060302734375 68.94666290283203 130.5418701171875 73.87709045410156 126.15484619140625 70.8958969116211" stroke-width="3.0" fill="none" stroke="rgb(2, 2, 2)" stroke-opacity="0.99000007" stroke-linecap="round" stroke-linejoin="round"/>
    <path d="M 57.999610900878906 97.99952697753906 C 50.680885314941406 100.30400848388672 51.368404388427734 104.95451354980469 50.247249603271484 100.06249237060547" stroke-width="3.0" fill="none" stroke="rgb(2, 2, 2)" stroke-opacity="0.99000007" stroke-linecap="round" stroke-linejoin="round"/>
    <path d="M 76.99946594238281 97.99935913085938 C 80.62704467773438 102.5842514038086 78.41148376464844 101.55643463134766 72.37731170654297 104.55645751953125" stroke-width="3.0" fill="none" stroke="rgb(2, 2, -2)" stroke-opacity="0.99000007" stroke-linecap="round" stroke-linejoin="round"/>
    <path d="M 86.00017547607422 83.99990844726562 C 83.80949401855469 81.91764831542969 79.29792785644531 86.2549057006836 77.21488189697266 87.7351303100586" stroke-width="3.0" fill="none" stroke="rgb(2, 2, -2)" stroke-opacity="0.99" stroke-linecap="round" stroke-linejoin="round"/>
    <path d="M 150.00022888183594 33.00014114379883 C 151.94483947753906 35.723236083984375 156.90469360351562 34.817466735839844 159.61880493164062 30.948251724243164" stroke-width="3.0" fill="none" stroke="rgb(2, 2, 2)" stroke-opacity="0.99000007" stroke-linecap="round" stroke-linejoin="round"/>
    <path d="M 58.00033950805664 154.99974060058594 C 59.04606246948242 150.50637817382812 56.964210510253906 147.48089599609375 61.98448181152344 142.24644470214844" stroke-width="3.0" fill="none" stroke="rgb(2, 2, -2)" stroke-opacity="0.99" stroke-linecap="round" stroke-linejoin="round"/>
    <path d="M 129.00018310546875 61.999725341796875 C 127.55007934570312 61.365699768066406 132.5972442626953 65.34671020507812 130.10879516601562 67.42646789550781" stroke-width="3.0" fill="none" stroke="rgb(-2, 2, 2)" stroke-opacity="0.99000114" stroke-linecap="round" stroke-linejoin="round"/>
    <path d="M 162.99990844726562 43.000125885009766 C 163.49722290039062 50.35161209106445 159.91529846191406 49.21089553833008 156.4411163330078 44.979103088378906" stroke-width="3.0" fill="none" stroke="rgb(2, 2, -2)" stroke-opacity="0.99000823" stroke-linecap="round" stroke-linejoin="round"/>
    <path d="M 114.99932861328125 28.999963760375977 C 116.8982162475586 26.493080139160156 118.7210693359375 28.08001708984375 121.80895233154297 24.719017028808594" stroke-width="3.0" fill="none" stroke="rgb(2, 2, -2)" stroke-opacity="0.99000007" stroke-linecap="round" stroke-linejoin="round"/>
    <path d="M 151.0001678466797 89.99948120117188 C 156.2105255126953 85.1309814453125 150.02291870117188 85.85147094726562 145.19091796875 88.82103729248047" stroke-width="3.0" fill="none" stroke="rgb(2, 2, 2)" stroke-opacity="0.99000007" stroke-linecap="round" stroke-linejoin="round"/>
    <path d="M 131.00035095214844 115.99978637695312 C 129.71983337402344 112.81427001953125 133.86044311523438 110.89765167236328 129.9130401611328 115.3843994140625" stroke-width="3.0" fill="none" stroke="rgb(2, 2, 2)" stroke-opacity="0.9900001" stroke-linecap="round" stroke-linejoin="round"/>
    <path d="M 161.00027465820312 23.999902725219727 C 157.40704345703125 26.01427459716797 153.4518585205078 21.87026023864746 148.65985107421875 20.22439193725586" stroke-width="3.0" fill="none" stroke="rgb(2, 2, -2)" stroke-opacity="0.99000007" stroke-linecap="round" stroke-linejoin="round"/>
    <path d="M 59.999820709228516 80.00265502929688 C 61.80281066894531 76.68827819824219 56.362030029296875 79.93643188476562 53.435062408447266 77.96276092529297" stroke-width="3.0" fill="none" stroke="rgb(2, 2, 2)" stroke-opacity="0.99" stroke-linecap="round" stroke-linejoin="round"/>
    <path d="M 181.0001220703125 47.00017166137695 C 177.3520965576172 41.987648010253906 180.0595703125 42.279388427734375 184.8101043701172 44.012943267822266" stroke-width="3.0" fill="none" stroke="rgb(2, 2, 2)" stroke-opacity="0.99000007" stroke-linecap="round" stroke-linejoin="round"/>
    <path d="M 144.00013732910156 98.00019073486328 C 147.1144561767578 98.149658203125 142.74221801757812 100.19036865234375 147.72442626953125 93.07704162597656" stroke-width="3.0" fill="none" stroke="rgb(2, 2, 2)" stroke-opacity="0.99000007" stroke-linecap="round" stroke-linejoin="round"/>
    <path d="M 146.99951171875 43.999027252197266 C 150.1691436767578 48.110023498535156 150.40492248535156 47.640079498291016 153.60971069335938 40.74940872192383" stroke-width="3.0" fill="none" stroke="rgb(2, 2, 2)" stroke-opacity="0.9900002" stroke-linecap="round" stroke-linejoin="round"/>
    <path d="M 109.99966430664062 119.9999008178711 C 107.765380859375 116.89876556396484 109.84931182861328 116.78946685791016 114.43763732910156 112.01227569580078" stroke-width="3.0" fill="none" stroke="rgb(2, 2, -2)" stroke-opacity="0.9900001" stroke-linecap="round" stroke-linejoin="round"/>
    <path d="M 60.000160217285156 68.00008392333984 C 57.30412292480469 69.21297454833984 50.47453308105469 66.6932601928711 51.93109893798828 69.234619140625" stroke-width="3.0" fill="none" stroke="rgb(2, 2, -2)" stroke-opacity="0.99000007" stroke-linecap="round" stroke-linejoin="round"/>
    <path d="M 83.9999008178711 179.0002899169922 C 82.02275085449219 186.47222900390625 82.3821029663086 186.01333618164062 83.56481170654297 181.5304718017578" stroke-width="3.0" fill="none" stroke="rgb(2, 2, 2)" stroke-opacity="0.9900003" stroke-linecap="round" stroke-linejoin="round"/>
    <path d="M 163.9998779296875 38.000282287597656 C 164.26034545898438 43.950679779052734 165.95143127441406 46.96247100830078 168.42364501953125 41.77256774902344" stroke-width="3.0" fill="none" stroke="rgb(2, 2, 2)" stroke-opacity="0.99000007" stroke-linecap="round" stroke-linejoin="round"/>
    <path d="M 142.0001220703125 64.99958801269531 C 143.4571533203125 59.959651947021484 141.65309143066406 59.438838958740234 140.71249389648438 56.903106689453125" stroke-width="3.0" fill="none" stroke="rgb(2, 2, 2)" stroke-opacity="0.99000007" stroke-linecap="round" stroke-linejoin="round"/>
    <path d="M 128.0001220703125 37.999027252197266 C 127.18500518798828 37.85219192504883 125.77346801757812 33.961669921875 130.5095977783203 31.110595703125" stroke-width="3.0" fill="none" stroke="rgb(2, 2, 2)" stroke-opacity="0.99000007" stroke-linecap="round" stroke-linejoin="round"/>
    <path d="M 157.9999237060547 176.99990844726562 C 161.71533203125 172.4434051513672 157.17800903320312 173.12890625 158.6902313232422 175.749267578125" stroke-width="3.0" fill="none" stroke="rgb(-2, 2, -2)" stroke-opacity="0.99000067" stroke-linecap="round" stroke-linejoin="round"/>
    <path d="M 158.9987335205078 163.0048065185547 C 159.9671173095703 163.69227600097656 158.05673217773438 159.45977783203125 154.42091369628906 163.31053161621094" stroke-width="3.0" fill="none" stroke="rgb(2, 2, -2)" stroke-opacity="0.99000037" stroke-linecap="round" stroke-linejoin="round"/>
    <path d="M 190.00013732910156 51.99980545043945 C 192.80337524414062 56.12232208251953 195.27944946289062 61.36808395385742 196.40370178222656 57.7075080871582" stroke-width="3.0" fill="none" stroke="rgb(2, 2, 2)" stroke-opacity="0.99000007" stroke-linecap="round" stroke-linejoin="round"/>
    <path d="M 87.00008392333984 104.99971771240234 C 89.82980346679688 99.7944564819336 91.62265014648438 96.70003509521484 87.24009704589844 102.56227111816406" stroke-width="3.0" fill="none" stroke="rgb(2, 2, -2)" stroke-opacity="0.9900001" stroke-linecap="round" stroke-linejoin="round"/>
    <path d="M 160.00010681152344 149.00010681152344 C 160.51580810546875 153.87002563476562 161.3462371826172 155.3826446533203 163.21238708496094 162.6966552734375" stroke-width="3.0" fill="none" stroke="rgb(2, 2, -2)" stroke-opacity="0.99000007" stroke-linecap="round" stroke-linejoin="round"/>
    <path d="M 128.0002899169922 84.00009155273438 C 131.56857299804688 85.27218627929688 135.1637725830078 79.96622467041016 139.96978759765625 83.6561508178711" stroke-width="3.0" fill="none" stroke="rgb(2, 2, 2)" stroke-opacity="0.99000007" stroke-linecap="round" stroke-linejoin="round"/>
    <path d="M 148.9999237060547 82.99960327148438 C 146.3953399658203 77.43074035644531 148.6655731201172 75.29353332519531 146.87161254882812 69.75065612792969" stroke-width="3.0" fill="none" stroke="rgb(2, 2, 2)" stroke-opacity="0.99000007" stroke-linecap="round" stroke-linejoin="round"/>
    <path d="M 147.9993133544922 50.99882888793945 C 152.14198303222656 51.74216842651367 151.029541015625 47.730220794677734 152.52247619628906 42.47492980957031" stroke-width="3.0" fill="none" stroke="rgb(2, 2, 2)" stroke-opacity="0.9900002" stroke-linecap="round" stroke-linejoin="round"/>
    <path d="M 170.9996795654297 34.998966217041016 C 173.75625610351562 31.808900833129883 172.85830688476562 30.026878356933594 169.40341186523438 32.50907516479492" stroke-width="3.0" fill="none" stroke="rgb(2, 2, 2)" stroke-opacity="0.9900001" stroke-linecap="round" stroke-linejoin="round"/>
    <path d="M 164.99913024902344 168.00009155273438 C 168.09979248046875 168.75726318359375 163.4517059326172 163.74705505371094 157.6151580810547 167.06600952148438" stroke-width="3.0" fill="none" stroke="rgb(2, 2, -2)" stroke-opacity="0.99000007" stroke-linecap="round" stroke-linejoin="round"/>
    <path d="M 148.0020751953125 169.0019989013672 C 151.94818115234375 168.44725036621094 153.76194763183594 168.28672790527344 151.1134490966797 165.74630737304688" stroke-width="3.0" fill="none" stroke="rgb(-2, 2, 2)" stroke-opacity="0.9900002" stroke-linecap="round" stroke-linejoin="round"/>
    <path d="M 69.99991607666016 97.99922180175781 C 72.85408020019531 93.67249298095703 72.06929779052734 91.24578094482422 72.06980895996094 91.09687042236328" stroke-width="3.0" fill="none" stroke="rgb(2, 2, -2)" stroke-opacity="0.99000007" stroke-linecap="round" stroke-linejoin="round"/>
    <path d="M 131.99771118164062 63.004371643066406 C 133.8707733154297 57.91073989868164 132.69705200195312 59.02778244018555 125.18499755859375 58.79680252075195" stroke-width="3.0" fill="none" stroke="rgb(2, 2, 2)" stroke-opacity="0.9900017" stroke-linecap="round" stroke-linejoin="round"/>
    <path d="M 135.00010681152344 65.99950408935547 C 131.76611328125 61.936851501464844 131.0254669189453 60.011871337890625 123.5180435180664 62.778404235839844" stroke-width="3.0" fill="none" stroke="rgb(2, 2, 2)" stroke-opacity="0.9900001" stroke-linecap="round" stroke-linejoin="round"/>
    <path d="M 145.00064086914062 128.9995880126953 C 141.36878967285156 127.65774536132812 143.6523895263672 127.66033172607422 147.3825225830078 129.09080505371094" stroke-width="3.0" fill="none" stroke="rgb(2, 2, 2)" stroke-opacity="0.99000007" stroke-linecap="round" stroke-linejoin="round"/>
    <path d="M 161.00021362304688 168.0000762939453 C 156.20823669433594 172.05186462402344 153.0790252685547 166.66189575195312 155.79869079589844 172.7171173095703" stroke-width="3.0" fill="none" stroke="rgb(-2, 2, -2)" stroke-opacity="0.99000007" stroke-linecap="round" stroke-linejoin="round"/>
    <path d="M 116.00048065185547 166.00022888183594 C 116.8501968383789 166.8234100341797 121.19425964355469 165.9007568359375 114.8851547241211 162.53379821777344" stroke-width="3.0" fill="none" stroke="rgb(2, 2, 2)" stroke-opacity="0.99000007" stroke-linecap="round" stroke-linejoin="round"/>
    <path d="M 89.00020599365234 143.999755859375 C 89.03031158447266 145.37742614746094 88.36270904541016 149.09442138671875 93.06207275390625 146.48045349121094" stroke-width="3.0" fill="none" stroke="rgb(2, 2, -2)" stroke-opacity="0.99000007" stroke-linecap="round" stroke-linejoin="round"/>
    <path d="M 69.00074768066406 98.00020599365234 C 72.85997009277344 95.12789916992188 73.85430908203125 95.39838409423828 74.68478393554688 93.26866912841797" stroke-width="3.0" fill="none" stroke="rgb(-2, 2, -2)" stroke-opacity="0.9900001" stroke-linecap="round" stroke-linejoin="round"/>
    <path d="M 162.00086975097656 32.001094818115234 C 162.20143127441406 30.13048553466797 158.4843292236328 30.24787139892578 152.1636962890625 30.359386444091797" stroke-width="3.0" fill="none" stroke="rgb(2, 2, -2)" stroke-opacity="0.9900001" stroke-linecap="round" stroke-linejoin="round"/>
    <path d="M 123.99838256835938 42.99992370605469 C 126.54859924316406 41.312923431396484 131.091064453125 44.88497543334961 132.6216278076172 41.9297981262207" stroke-width="3.0" fill="none" stroke="rgb(2, 2, 2)" stroke-opacity="0.99000007" stroke-linecap="round" stroke-linejoin="round"/>
    <path d="M 99.00012969970703 170.999267578125 C 95.0643081665039 165.6153564453125 98.17960357666016 168.5283660888672 97.92955017089844 164.9080810546875" stroke-width="3.0" fill="none" stroke="rgb(2, 2, -2)" stroke-opacity="0.9900001" stroke-linecap="round" stroke-linejoin="round"/>
    <path d="M 48.962486267089844 91.00143432617188 C 50.06931686401367 92.93358612060547 54.90548324584961 95.82279205322266 52.33354949951172 98.59659576416016" stroke-width="3.0" fill="none" stroke="rgb(2, 2, -2)" stroke-opacity="0.99000007" stroke-linecap="round" stroke-linejoin="round"/>
    <path d="M 125.04434967041016 21.00079917907715 C 127.7208251953125 22.516014099121094 129.11587524414062 26.59530258178711 128.542236328125 22.685789108276367" stroke-width="3.0" fill="none" stroke="rgb(2, 2, 2)" stroke-opacity="0.9900001" stroke-linecap="round" stroke-linejoin="round"/>
    <path d="M 170.99981689453125 34.00007247924805 C 166.16224670410156 33.35314178466797 161.95852661132812 32.82783126831055 158.9834442138672 30.915203094482422" stroke-width="3.0" fill="none" stroke="rgb(2, 2, 2)" stroke-opacity="0.9900001" stroke-linecap="round" stroke-linejoin="round"/>
    <path d="M 76.0007553100586 105.00007629394531 C 73.87893676757812 106.46021270751953 68.9139404296875 108.1766128540039 66.17228698730469 112.25607299804688" stroke-width="3.0" fill="none" stroke="rgb(2, 2, 2)" stroke-opacity="0.99" stroke-linecap="round" stroke-linejoin="round"/>
    <path d="M 136.0000762939453 20.99989128112793 C 139.9796142578125 22.287927627563477 140.05868530273438 21.87017059326172 142.6667022705078 25.13834571838379" stroke-width="3.0" fill="none" stroke="rgb(2, 2, -2)" stroke-opacity="0.99000007" stroke-linecap="round" stroke-linejoin="round"/>
    <path d="M 115.99972534179688 41.000083923339844 C 120.43097686767578 40.43752670288086 121.93731689453125 42.142738342285156 119.90524291992188 43.86452865600586" stroke-width="3.0" fill="none" stroke="rgb(2, 2, 2)" stroke-opacity="0.9900002" stroke-linecap="round" stroke-linejoin="round"/>
    <path d="M 147.00015258789062 84.99977111816406 C 145.08914184570312 78.09317779541016 140.6483612060547 82.56690979003906 138.89527893066406 86.96334075927734" stroke-width="3.0" fill="none" stroke="rgb(2, 2, 2)" stroke-opacity="0.9900001" stroke-linecap="round" stroke-linejoin="round"/>
    <path d="M 134.9998779296875 118.00009155273438 C 135.05079650878906 114.33285522460938 132.2254180908203 113.63572692871094 131.546630859375 113.89051818847656" stroke-width="3.0" fill="none" stroke="rgb(2, 2, 2)" stroke-opacity="0.99000007" stroke-linecap="round" stroke-linejoin="round"/>
    <path d="M 119.9995346069336 100.00006103515625 C 116.177490234375 98.57604217529297 113.74564361572266 97.55425262451172 111.9360122680664 98.65055084228516" stroke-width="3.0" fill="none" stroke="rgb(2, 2, 2)" stroke-opacity="0.99" stroke-linecap="round" stroke-linejoin="round"/>
    <path d="M 164.0000762939453 48.99931716918945 C 169.2390899658203 48.650325775146484 164.37718200683594 44.10899353027344 164.37669372558594 43.687591552734375" stroke-width="3.0" fill="none" stroke="rgb(2, 2, -2)" stroke-opacity="0.99000025" stroke-linecap="round" stroke-linejoin="round"/>
    <path d="M 157.00067138671875 124.99987030029297 C 161.5053253173828 124.75385284423828 164.05747985839844 130.9298095703125 162.1905975341797 129.8610382080078" stroke-width="3.0" fill="none" stroke="rgb(2, 2, 2)" stroke-opacity="0.99000007" stroke-linecap="round" stroke-linejoin="round"/>
    <path d="M 190.99984741210938 48.000083923339844 C 186.9833526611328 46.318504333496094 192.22164916992188 48.541378021240234 189.01271057128906 51.6052360534668" stroke-width="3.0" fill="none" stroke="rgb(2, 2, -2)" stroke-opacity="0.9900002" stroke-linecap="round" stroke-linejoin="round"/>
    <path d="M 121.9997329711914 62.999481201171875 C 126.90432739257812 58.867462158203125 125.5241470336914 62.134098052978516 129.03196716308594 64.03934478759766" stroke-width="3.0" fill="none" stroke="rgb(2, 2, 2)" stroke-opacity="0.9900001" stroke-linecap="round" stroke-linejoin="round"/>
    <path d="M 148.00010681152344 133.99996948242188 C 151.6857147216797 134.67477416992188 155.76004028320312 134.97007751464844 155.3966064453125 136.11192321777344" stroke-width="3.0" fill="none" stroke="rgb(2, 2, 2)" stroke-opacity="0.99000007" stroke-linecap="round" stroke-linejoin="round"/>
    <path d="M 58.00033187866211 100.00033569335938 C 56.45277786254883 100.46031951904297 52.871700286865234 95.26116943359375 57.885398864746094 97.10606384277344" stroke-width="3.0" fill="none" stroke="rgb(-2, 2, 2)" stroke-opacity="0.9900001" stroke-linecap="round" stroke-linejoin="round"/>
    <path d="M 162.99977111816406 155.00009155273438 C 157.9469451904297 150.94082641601562 155.20018005371094 154.798583984375 150.73423767089844 157.83473205566406" stroke-width="3.0" fill="none" stroke="rgb(-2, 2, -2)" stroke-opacity="0.99000007" stroke-linecap="round" stroke-linejoin="round"/>
    <path d="M 88.00110626220703 103.45984649658203 C 91.75401306152344 108.2933120727539 88.5438003540039 106.46804809570312 91.55857849121094 102.33662414550781" stroke-width="3.0" fill="none" stroke="rgb(2, 2, -2)" stroke-opacity="0.9900002" stroke-linecap="round" stroke-linejoin="round"/>
    <path d="M 42.999881744384766 87.99986267089844 C 41.61888122558594 82.21752166748047 43.33073043823242 85.25358581542969 46.79167938232422 83.50737762451172" stroke-width="3.0" fill="none" stroke="rgb(2, 2, -2)" stroke-opacity="0.99000007" stroke-linecap="round" stroke-linejoin="round"/>
    <path d="M 175.9998016357422 33.000511169433594 C 173.30294799804688 32.00271224975586 177.27706909179688 29.06331443786621 176.65216064453125 28.653060913085938" stroke-width="3.0" fill="none" stroke="rgb(2, 2, 2)" stroke-opacity="0.99000007" stroke-linecap="round" stroke-linejoin="round"/>
    <path d="M 125.99921417236328 66.00006103515625 C 126.78707885742188 65.43002319335938 127.16519927978516 63.29437255859375 132.62088012695312 64.94647979736328" stroke-width="3.0" fill="none" stroke="rgb(2, 2, 2)" stroke-opacity="0.990002" stroke-linecap="round" stroke-linejoin="round"/>
    <path d="M 166.0001678466797 52.99995040893555 C 169.7534942626953 51.519744873046875 174.76133728027344 56.94544982910156 174.33204650878906 54.501346588134766" stroke-width="3.0" fill="none" stroke="rgb(2, 2, 2)" stroke-opacity="0.99000007" stroke-linecap="round" stroke-linejoin="round"/>
    <path d="M 158.0001678466797 50.99988555908203 C 156.6783905029297 49.308265686035156 161.9002227783203 52.85696029663086 165.27337646484375 48.80702209472656" stroke-width="3.0" fill="none" stroke="rgb(2, 2, 2)" stroke-opacity="0.99000007" stroke-linecap="round" stroke-linejoin="round"/>
    <path d="M 102.99620056152344 191.9994354248047 C 98.20156860351562 193.5780487060547 104.38880157470703 194.18975830078125 99.93907165527344 196.06741333007812" stroke-width="3.0" fill="none" stroke="rgb(2, 2, 2)" stroke-opacity="0.99000037" stroke-linecap="round" stroke-linejoin="round"/>
    <path d="M 155.99957275390625 68.00004577636719 C 157.93344116210938 65.59294891357422 162.8797607421875 65.04776763916016 167.4193115234375 61.09819793701172" stroke-width="3.0" fill="none" stroke="rgb(2, 2, 2)" stroke-opacity="0.99000007" stroke-linecap="round" stroke-linejoin="round"/>
    <path d="M 151.99984741210938 168.99937438964844 C 151.2989044189453 173.99832153320312 148.18618774414062 171.4536895751953 146.50181579589844 166.15130615234375" stroke-width="3.0" fill="none" stroke="rgb(-2, 2, -2)" stroke-opacity="0.9900002" stroke-linecap="round" stroke-linejoin="round"/>
    <path d="M 134.00015258789062 95.00006103515625 C 128.99691772460938 95.02261352539062 126.04682922363281 102.5586166381836 126.63616180419922 97.2765121459961" stroke-width="3.0" fill="none" stroke="rgb(2, 2, -2)" stroke-opacity="0.99000007" stroke-linecap="round" stroke-linejoin="round"/>
    <path d="M 136.0000457763672 146.9999237060547 C 140.82542419433594 150.79861450195312 142.50543212890625 154.06167602539062 140.4457244873047 149.67535400390625" stroke-width="3.0" fill="none" stroke="rgb(2, 2, -2)" stroke-opacity="0.99000007" stroke-linecap="round" stroke-linejoin="round"/>
    <path d="M 77.00199127197266 80.99897766113281 C 80.700439453125 83.19536590576172 76.64851379394531 85.4974594116211 78.06668090820312 77.95696258544922" stroke-width="3.0" fill="none" stroke="rgb(2, 2, 2)" stroke-opacity="0.9900002" stroke-linecap="round" stroke-linejoin="round"/>
    <path d="M 44.000911712646484 88.9990005493164 C 39.29033660888672 86.26421356201172 43.060367584228516 86.79773712158203 47.58347702026367 87.12350463867188" stroke-width="3.0" fill="none" stroke="rgb(-2, 2, 2)" stroke-opacity="0.9900003" stroke-linecap="round" stroke-linejoin="round"/>
    <path d="M 82.99979400634766 78.0005111694336 C 76.6458740234375 77.62577056884766 74.41841888427734 72.5597915649414 75.52014923095703 73.85718536376953" stroke-width="3.0" fill="none" stroke="rgb(2, 2, -2)" stroke-opacity="0.99000007" stroke-linecap="round" stroke-linejoin="round"/>
    <path d="M 158.00332641601562 45.966102600097656 C 159.5097198486328 41.64017868041992 164.05471801757812 42.72476577758789 158.64129638671875 42.8972053527832" stroke-width="3.0" fill="none" stroke="rgb(2, 2, 2)" stroke-opacity="0.99000025" stroke-linecap="round" stroke-linejoin="round"/>
    <path d="M 153.00013732910156 126.00005340576172 C 152.1094207763672 122.00831604003906 151.31553649902344 125.29364013671875 146.41189575195312 124.35942077636719" stroke-width="3.0" fill="none" stroke="rgb(2, 2, -2)" stroke-opacity="0.99000007" stroke-linecap="round" stroke-linejoin="round"/>
    <path d="M 182.9999237060547 54.999874114990234 C 184.84083557128906 50.358741760253906 190.156982421875 45.51678466796875 188.44908142089844 45.59890365600586" stroke-width="3.0" fill="none" stroke="rgb(2, 2, 2)" stroke-opacity="0.99" stroke-linecap="round" stroke-linejoin="round"/>
    <path d="M 138.9999237060547 24.00012969970703 C 144.46290588378906 24.606792449951172 141.24313354492188 24.27528953552246 144.7618408203125 31.65902328491211" stroke-width="3.0" fill="none" stroke="rgb(2, 2, 2)" stroke-opacity="0.9900001" stroke-linecap="round" stroke-linejoin="round"/>
    <path d="M 53.00065231323242 100.9994125366211 C 52.23999786376953 95.5817642211914 55.471683502197266 93.8436508178711 56.08143997192383 95.28014373779297" stroke-width="3.0" fill="none" stroke="rgb(2, 2, -2)" stroke-opacity="0.9900001" stroke-linecap="round" stroke-linejoin="round"/>
    <path d="M 161.11119079589844 43.186763763427734 C 164.55593872070312 46.2951545715332 162.91549682617188 41.37731170654297 163.41981506347656 44.88092803955078" stroke-width="3.0" fill="none" stroke="rgb(2, 2, -2)" stroke-opacity="1.009999" stroke-linecap="round" stroke-linejoin="round"/>
    <path d="M 86.99971008300781 181.99993896484375 C 83.36078643798828 185.12603759765625 82.96453094482422 187.31146240234375 84.43984985351562 188.8043670654297" stroke-width="3.0" fill="none" stroke="rgb(2, 2, -2)" stroke-opacity="0.99000007" stroke-linecap="round" stroke-linejoin="round"/>
    <path d="M 90.9999008178711 185.99911499023438 C 86.10545349121094 187.09336853027344 85.6323471069336 184.77996826171875 78.52841186523438 183.4137725830078" stroke-width="3.0" fill="none" stroke="rgb(2, 2, -2)" stroke-opacity="0.99000007" stroke-linecap="round" stroke-linejoin="round"/>
    <path d="M 100.99932098388672 173.0008087158203 C 95.86857604980469 179.85272216796875 96.02143859863281 185.32798767089844 94.52690887451172 182.54762268066406" stroke-width="3.0" fill="none" stroke="rgb(2, 2, 2)" stroke-opacity="0.99000007" stroke-linecap="round" stroke-linejoin="round"/>
    <path d="M 142.99961853027344 66.00007629394531 C 143.84677124023438 62.54084014892578 142.23570251464844 65.68589782714844 148.33103942871094 63.80340576171875" stroke-width="3.0" fill="none" stroke="rgb(2, 2, 2)" stroke-opacity="0.99000007" stroke-linecap="round" stroke-linejoin="round"/>
    <path d="M 151.99671936035156 22.001127243041992 C 147.79299926757812 20.522188186645508 152.1549072265625 23.247201919555664 156.57568359375 23.976953506469727" stroke-width="3.0" fill="none" stroke="rgb(2, 2, -2)" stroke-opacity="0.9900002" stroke-linecap="round" stroke-linejoin="round"/>
    <path d="M 153.00033569335938 176.0005340576172 C 158.3059844970703 177.95724487304688 158.27810668945312 182.70913696289062 158.49398803710938 184.08277893066406" stroke-width="3.0" fill="none" stroke="rgb(-2, 2, -2)" stroke-opacity="0.99000007" stroke-linecap="round" stroke-linejoin="round"/>
    <path d="M 43.00038146972656 72.00050354003906 C 45.5440559387207 67.2842025756836 46.691490173339844 70.89448547363281 47.2001953125 70.88462829589844" stroke-width="3.0" fill="none" stroke="rgb(2, 2, 2)" stroke-opacity="0.9900001" stroke-linecap="round" stroke-linejoin="round"/>
    <path d="M 94.00083923339844 188.00009155273438 C 89.29732513427734 189.802490234375 89.12285614013672 190.95565795898438 86.30209350585938 193.0771484375" stroke-width="3.0" fill="none" stroke="rgb(2, 2, -2)" stroke-opacity="0.99000007" stroke-linecap="round" stroke-linejoin="round"/>
    <path d="M 95.99994659423828 187.0019989013672 C 94.33724212646484 181.87539672851562 96.4825439453125 180.22315979003906 102.06168365478516 177.6981658935547" stroke-width="3.0" fill="none" stroke="rgb(2, 2, -2)" stroke-opacity="0.99000007" stroke-linecap="round" stroke-linejoin="round"/>
    <path d="M 156.99981689453125 156.00015258789062 C 160.37672424316406 161.01699829101562 155.61695861816406 162.55703735351562 154.08592224121094 165.92910766601562" stroke-width="3.0" fill="none" stroke="rgb(-2, 2, -2)" stroke-opacity="0.99000007" stroke-linecap="round" stroke-linejoin="round"/>
    <path d="M 154.0000457763672 57.99995040893555 C 156.00965881347656 61.07248306274414 152.00869750976562 62.2766227722168 155.15928649902344 59.06291580200195" stroke-width="3.0" fill="none" stroke="rgb(2, 2, 2)" stroke-opacity="0.99000007" stroke-linecap="round" stroke-linejoin="round"/>
    <path d="M 38.99984359741211 69.99993896484375 C 34.152671813964844 73.1192398071289 32.654544830322266 71.8069839477539 31.409473419189453 72.9837875366211" stroke-width="3.0" fill="none" stroke="rgb(2, 2, -2)" stroke-opacity="0.99000007" stroke-linecap="round" stroke-linejoin="round"/>
    <path d="M 78.00010681152344 157.99899291992188 C 80.00678253173828 161.0285186767578 78.57222747802734 165.96481323242188 79.40000915527344 164.30343627929688" stroke-width="3.0" fill="none" stroke="rgb(2, 2, -2)" stroke-opacity="0.99000007" stroke-linecap="round" stroke-linejoin="round"/>
    <path d="M 166.02713012695312 59.000755310058594 C 166.85708618164062 62.669803619384766 164.05331420898438 58.344459533691406 166.692626953125 58.33472442626953" stroke-width="3.0" fill="none" stroke="rgb(2, 2, 2)" stroke-opacity="0.99000037" stroke-linecap="round" stroke-linejoin="round"/>
    <path d="M 177.0260772705078 42.99956512451172 C 175.73504638671875 41.69110870361328 173.06686401367188 39.006187438964844 174.4643096923828 44.56561279296875" stroke-width="3.0" fill="none" stroke="rgb(2, 2, 2)" stroke-opacity="0.99000007" stroke-linecap="round" stroke-linejoin="round"/>
    <path d="M 142.00048828125 84.00041198730469 C 139.5994873046875 88.67015075683594 139.50135803222656 84.46688842773438 145.45144653320312 85.90093994140625" stroke-width="3.0" fill="none" stroke="rgb(2, 2, 2)" stroke-opacity="0.9900001" stroke-linecap="round" stroke-linejoin="round"/>
  </g>
</svg>
