<?xml version="1.0" ?>
<svg xmlns="http://www.w3.org/2000/svg" version="1.1" width="224" height="224">
  <defs/>
  <g>
    <path d="M 127.23688507080078 20.805755615234375 C 125.47985076904297 25.834686279296875 123.74165344238281 15.18431282043457 114.38861846923828 35.27076721191406" stroke-width="3.0" fill="none" stroke="rgb(2, -2, -1)" stroke-opacity="0.30789784" stroke-linecap="round" stroke-linejoin="round"/>
    <path d="M 36.044029235839844 85.90679931640625 C 21.944766998291016 75.71341705322266 51.716529846191406 85.38684844970703 33.966793060302734 83.84663391113281" stroke-width="3.0" fill="none" stroke="rgb(-1, 1, -1)" stroke-opacity="0.26534328" stroke-linecap="round" stroke-linejoin="round"/>
    <path d="M 30.483266830444336 72.81314086914062 C 67.77925109863281 64.03446197509766 76.11985778808594 71.84784698486328 33.79689025878906 77.95414733886719" stroke-width="3.0" fill="none" stroke="rgb(-2, 2, -4)" stroke-opacity="0.23098831" stroke-linecap="round" stroke-linejoin="round"/>
    <path d="M 143.3836212158203 39.36177444458008 C 154.1277618408203 52.815162658691406 156.52867126464844 44.869449615478516 166.7506561279297 39.120269775390625" stroke-width="3.0" fill="none" stroke="rgb(-2, 2, 2)" stroke-opacity="0.372751" stroke-linecap="round" stroke-linejoin="round"/>
    <path d="M 182.9749298095703 42.23823547363281 C 189.24957275390625 36.86814498901367 171.8169708251953 33.795982360839844 185.86708068847656 43.042633056640625" stroke-width="3.0" fill="none" stroke="rgb(1, -1, 1)" stroke-opacity="0.2117113" stroke-linecap="round" stroke-linejoin="round"/>
    <path d="M 120.6832275390625 49.83225631713867 C 116.23814392089844 64.09532928466797 115.51065826416016 75.68714904785156 120.21253204345703 81.07490539550781" stroke-width="3.0" fill="none" stroke="rgb(0, -2, 2)" stroke-opacity="0.46069205" stroke-linecap="round" stroke-linejoin="round"/>
    <path d="M 162.89248657226562 184.366943359375 C 160.07598876953125 160.8186492919922 163.99826049804688 164.39102172851562 159.8579559326172 169.55865478515625" stroke-width="3.0" fill="none" stroke="rgb(-1, 1, -1)" stroke-opacity="0.8263271" stroke-linecap="round" stroke-linejoin="round"/>
    <path d="M 170.15643310546875 61.07572937011719 C 172.04498291015625 60.45168685913086 170.12120056152344 60.05421829223633 172.6111297607422 63.65583419799805" stroke-width="3.0" fill="none" stroke="rgb(3, -2, 1)" stroke-opacity="0.2816865" stroke-linecap="round" stroke-linejoin="round"/>
    <path d="M 156.9417724609375 72.3647689819336 C 149.68788146972656 66.19844818115234 155.69839477539062 82.34115600585938 166.6641082763672 66.23506164550781" stroke-width="3.0" fill="none" stroke="rgb(-2, 0, 2)" stroke-opacity="0.19519356" stroke-linecap="round" stroke-linejoin="round"/>
    <path d="M 129.0242462158203 117.55681610107422 C 113.367919921875 125.42662048339844 117.5126953125 122.51510620117188 122.87448120117188 118.99248504638672" stroke-width="3.0" fill="none" stroke="rgb(-1, 0, 0)" stroke-opacity="0.2274481" stroke-linecap="round" stroke-linejoin="round"/>
    <path d="M 171.60653686523438 64.65103912353516 C 159.49192810058594 75.5338134765625 171.7987518310547 63.61774444580078 167.4464569091797 68.4560546875" stroke-width="3.0" fill="none" stroke="rgb(0, -1, 1)" stroke-opacity="0.4286911" stroke-linecap="round" stroke-linejoin="round"/>
    <path d="M 77.65138244628906 187.2421875 C 88.67017364501953 190.8934326171875 101.34954833984375 175.2965850830078 99.79094696044922 186.76324462890625" stroke-width="3.0" fill="none" stroke="rgb(-1, 2, -2)" stroke-opacity="0.38824114" stroke-linecap="round" stroke-linejoin="round"/>
    <path d="M 76.55068969726562 185.6060333251953 C 77.58480834960938 197.05210876464844 80.97965240478516 190.0668487548828 96.48422241210938 205.95071411132812" stroke-width="3.0" fill="none" stroke="rgb(-2, 2, -2)" stroke-opacity="0.32694975" stroke-linecap="round" stroke-linejoin="round"/>
    <path d="M 141.4288787841797 46.673282623291016 C 145.31271362304688 30.709142684936523 148.78883361816406 67.66142272949219 135.9943389892578 42.48102569580078" stroke-width="3.0" fill="none" stroke="rgb(-1, 0, 1)" stroke-opacity="0.17728285" stroke-linecap="round" stroke-linejoin="round"/>
    <path d="M 155.57421875 80.81269073486328 C 143.3610382080078 89.21089935302734 149.5731964111328 80.22936248779297 148.91815185546875 82.72620391845703" stroke-width="3.0" fill="none" stroke="rgb(1, -1, 0)" stroke-opacity="0.12179717" stroke-linecap="round" stroke-linejoin="round"/>
    <path d="M 163.10696411132812 60.084896087646484 C 141.7699737548828 55.019805908203125 147.60098266601562 61.236602783203125 169.44590759277344 59.33570861816406" stroke-width="3.0" fill="none" stroke="rgb(0, 0, 2)" stroke-opacity="0.46234936" stroke-linecap="round" stroke-linejoin="round"/>
    <path d="M 188.21669006347656 58.12455368041992 C 171.63259887695312 63.4571418762207 174.90789794921875 57.18185043334961 172.45346069335938 59.35877990722656" stroke-width="3.0" fill="none" stroke="rgb(0, -1, 1)" stroke-opacity="0.35886887" stroke-linecap="round" stroke-linejoin="round"/>
    <path d="M 146.7865753173828 22.41827392578125 C 147.19937133789062 27.718746185302734 139.93136596679688 22.310619354248047 140.04624938964844 23.158985137939453" stroke-width="3.0" fill="none" stroke="rgb(1, 0, 0)" stroke-opacity="0.17249946" stroke-linecap="round" stroke-linejoin="round"/>
    <path d="M 126.35559844970703 96.93101501464844 C 128.25611877441406 93.0135726928711 131.75363159179688 91.16950225830078 117.90833282470703 106.29883575439453" stroke-width="3.0" fill="none" stroke="rgb(0, 0, -1)" stroke-opacity="0.51808" stroke-linecap="round" stroke-linejoin="round"/>
    <path d="M 79.19268798828125 75.12688446044922 C 78.7109146118164 71.32601165771484 78.68487548828125 82.14043426513672 80.3555679321289 76.1887435913086" stroke-width="3.0" fill="none" stroke="rgb(-1, 1, -1)" stroke-opacity="0.23253421" stroke-linecap="round" stroke-linejoin="round"/>
    <path d="M 153.72366333007812 36.72868347167969 C 155.4639892578125 26.722787857055664 148.61793518066406 27.271102905273438 152.46580505371094 27.810073852539062" stroke-width="3.0" fill="none" stroke="rgb(0, 0, 1)" stroke-opacity="0.22040688" stroke-linecap="round" stroke-linejoin="round"/>
    <path d="M 145.5652313232422 49.7812614440918 C 146.58001708984375 49.565093994140625 152.103515625 55.22917556762695 143.2641143798828 46.58539962768555" stroke-width="3.0" fill="none" stroke="rgb(-1, 1, 3)" stroke-opacity="0.36409244" stroke-linecap="round" stroke-linejoin="round"/>
    <path d="M 137.86111450195312 158.62168884277344 C 146.54066467285156 175.20947265625 158.63059997558594 180.5170440673828 156.115234375 168.371337890625" stroke-width="3.0" fill="none" stroke="rgb(-2, 1, -1)" stroke-opacity="0.2993371" stroke-linecap="round" stroke-linejoin="round"/>
    <path d="M 124.37118530273438 60.482582092285156 C 139.78189086914062 60.39874267578125 133.6189727783203 65.5593490600586 120.62228393554688 51.624507904052734" stroke-width="3.0" fill="none" stroke="rgb(1, -1, 0)" stroke-opacity="0.5455326" stroke-linecap="round" stroke-linejoin="round"/>
    <path d="M 141.65550231933594 33.823734283447266 C 139.87109375 41.349300384521484 163.4230194091797 46.101219177246094 158.34341430664062 36.3536262512207" stroke-width="3.0" fill="none" stroke="rgb(-2, 1, 0)" stroke-opacity="0.3173576" stroke-linecap="round" stroke-linejoin="round"/>
    <path d="M 39.494842529296875 86.33172607421875 C 40.02126693725586 82.83558654785156 40.04452133178711 87.27879333496094 41.79572677612305 90.93643188476562" stroke-width="3.0" fill="none" stroke="rgb(0, 0, 0)" stroke-opacity="0.26036847" stroke-linecap="round" stroke-linejoin="round"/>
    <path d="M 98.81157684326172 235.6781768798828 C 101.90577697753906 204.99806213378906 96.77193450927734 190.68765258789062 117.95939636230469 199.16925048828125" stroke-width="3.0" fill="none" stroke="rgb(-2, 2, 0)" stroke-opacity="0.22798084" stroke-linecap="round" stroke-linejoin="round"/>
    <path d="M 155.29721069335938 49.091121673583984 C 140.605712890625 44.263153076171875 141.8795166015625 51.10090637207031 149.551513671875 52.625770568847656" stroke-width="3.0" fill="none" stroke="rgb(-2, 0, 2)" stroke-opacity="0.33911145" stroke-linecap="round" stroke-linejoin="round"/>
    <path d="M 95.23104858398438 116.16810607910156 C 88.47499084472656 111.310302734375 89.73677825927734 103.51676177978516 103.6949691772461 122.71652221679688" stroke-width="3.0" fill="none" stroke="rgb(-3, 2, -2)" stroke-opacity="0.56873864" stroke-linecap="round" stroke-linejoin="round"/>
    <path d="M 62.955684661865234 136.57183837890625 C 65.02642059326172 139.60360717773438 64.48143005371094 127.53814697265625 76.98737335205078 131.158203125" stroke-width="3.0" fill="none" stroke="rgb(-2, 1, 1)" stroke-opacity="0.2643728" stroke-linecap="round" stroke-linejoin="round"/>
    <path d="M 119.71995544433594 50.599822998046875 C 121.74153900146484 60.650306701660156 131.17388916015625 58.960933685302734 132.0336456298828 60.17673110961914" stroke-width="3.0" fill="none" stroke="rgb(1, 0, 1)" stroke-opacity="0.5701688" stroke-linecap="round" stroke-linejoin="round"/>
    <path d="M 132.31492614746094 138.0922393798828 C 101.66911315917969 128.33053588867188 112.87498474121094 111.32339477539062 99.8773422241211 154.17787170410156" stroke-width="3.0" fill="none" stroke="rgb(0, 0, -2)" stroke-opacity="0.30162534" stroke-linecap="round" stroke-linejoin="round"/>
    <path d="M 125.76714324951172 60.086509704589844 C 127.02994537353516 59.85441207885742 129.1265411376953 58.31046676635742 128.42498779296875 59.59046173095703" stroke-width="3.0" fill="none" stroke="rgb(1, 1, 1)" stroke-opacity="0.6959603" stroke-linecap="round" stroke-linejoin="round"/>
    <path d="M 69.23311614990234 104.22310638427734 C 46.801944732666016 97.74662017822266 50.582889556884766 99.27925872802734 39.33310317993164 91.9094467163086" stroke-width="3.0" fill="none" stroke="rgb(-1, 1, -2)" stroke-opacity="0.2368862" stroke-linecap="round" stroke-linejoin="round"/>
    <path d="M 81.94317626953125 106.54605865478516 C 85.21827697753906 107.13331604003906 85.50273895263672 108.01179504394531 75.99146270751953 105.4455337524414" stroke-width="3.0" fill="none" stroke="rgb(0, 1, -1)" stroke-opacity="0.3933308" stroke-linecap="round" stroke-linejoin="round"/>
    <path d="M 78.81072998046875 75.1791763305664 C 73.64134216308594 74.52095031738281 78.49134063720703 76.48983764648438 78.5912857055664 73.64747619628906" stroke-width="3.0" fill="none" stroke="rgb(0, 0, -1)" stroke-opacity="0.34153342" stroke-linecap="round" stroke-linejoin="round"/>
    <path d="M 159.32302856445312 27.577213287353516 C 155.3691864013672 25.87864875793457 143.1145477294922 21.63043785095215 162.177490234375 26.28376007080078" stroke-width="3.0" fill="none" stroke="rgb(1, -1, 0)" stroke-opacity="0.45736292" stroke-linecap="round" stroke-linejoin="round"/>
    <path d="M 43.82498550415039 152.20362854003906 C 40.29738998413086 159.4443359375 51.40982437133789 145.16055297851562 61.06375503540039 138.33673095703125" stroke-width="3.0" fill="none" stroke="rgb(-1, 1, 0)" stroke-opacity="0.29408294" stroke-linecap="round" stroke-linejoin="round"/>
    <path d="M 120.23728942871094 64.32144927978516 C 124.21112823486328 64.02686309814453 142.12368774414062 63.66179656982422 131.18136596679688 59.549503326416016" stroke-width="3.0" fill="none" stroke="rgb(1, -1, 2)" stroke-opacity="0.4118918" stroke-linecap="round" stroke-linejoin="round"/>
    <path d="M 172.2471466064453 39.92390060424805 C 169.09097290039062 54.87483596801758 156.09109497070312 53.508079528808594 147.5962677001953 42.92411422729492" stroke-width="3.0" fill="none" stroke="rgb(-4, 3, 3)" stroke-opacity="0.26066387" stroke-linecap="round" stroke-linejoin="round"/>
    <path d="M 111.12928009033203 37.079750061035156 C 117.56724548339844 23.845340728759766 114.70063018798828 21.505529403686523 133.0325164794922 16.8328857421875" stroke-width="3.0" fill="none" stroke="rgb(0, -2, 2)" stroke-opacity="0.33505982" stroke-linecap="round" stroke-linejoin="round"/>
    <path d="M 149.4763946533203 90.84178161621094 C 186.87705993652344 91.71479034423828 158.56309509277344 82.03810119628906 135.8500213623047 83.73316192626953" stroke-width="3.0" fill="none" stroke="rgb(1, 0, 0)" stroke-opacity="0.22850351" stroke-linecap="round" stroke-linejoin="round"/>
    <path d="M 137.52047729492188 116.05994415283203 C 130.5676727294922 110.37953186035156 146.8827667236328 118.6291275024414 140.67291259765625 117.00924682617188" stroke-width="3.0" fill="none" stroke="rgb(0, 0, 0)" stroke-opacity="0.21806031" stroke-linecap="round" stroke-linejoin="round"/>
    <path d="M 162.72174072265625 27.70616912841797 C 169.5958251953125 26.159616470336914 155.13783264160156 25.884395599365234 145.30758666992188 22.090856552124023" stroke-width="3.0" fill="none" stroke="rgb(1, -1, 0)" stroke-opacity="0.3490446" stroke-linecap="round" stroke-linejoin="round"/>
    <path d="M 65.09971618652344 85.59217834472656 C 62.77391052246094 83.07974243164062 67.69464874267578 86.3064956665039 59.762359619140625 84.60604858398438" stroke-width="3.0" fill="none" stroke="rgb(0, 1, 0)" stroke-opacity="0.21529193" stroke-linecap="round" stroke-linejoin="round"/>
    <path d="M 188.54425048828125 46.53725051879883 C 188.59417724609375 36.03535079956055 185.47171020507812 37.14510726928711 187.70774841308594 53.12131881713867" stroke-width="3.0" fill="none" stroke="rgb(1, -1, 0)" stroke-opacity="0.44336945" stroke-linecap="round" stroke-linejoin="round"/>
    <path d="M 133.62796020507812 91.12723541259766 C 141.192138671875 105.48872375488281 144.29815673828125 100.70340728759766 141.86416625976562 101.47427368164062" stroke-width="3.0" fill="none" stroke="rgb(0, 0, 0)" stroke-opacity="0.37045836" stroke-linecap="round" stroke-linejoin="round"/>
    <path d="M 149.38604736328125 44.135589599609375 C 159.76646423339844 44.303653717041016 159.78146362304688 55.57918167114258 148.81333923339844 49.82378387451172" stroke-width="3.0" fill="none" stroke="rgb(-3, 2, 3)" stroke-opacity="0.43927017" stroke-linecap="round" stroke-linejoin="round"/>
    <path d="M 107.31886291503906 127.98242950439453 C 108.92591857910156 118.67227935791016 110.22702026367188 115.0263900756836 126.86547088623047 95.794189453125" stroke-width="3.0" fill="none" stroke="rgb(0, 0, 0)" stroke-opacity="0.48850143" stroke-linecap="round" stroke-linejoin="round"/>
    <path d="M 71.5554428100586 71.65930938720703 C 53.48161315917969 64.94071960449219 40.49348831176758 70.42739868164062 43.60908508300781 68.48456573486328" stroke-width="3.0" fill="none" stroke="rgb(-3, 1, -2)" stroke-opacity="0.32802683" stroke-linecap="round" stroke-linejoin="round"/>
    <path d="M 87.6800765991211 178.22813415527344 C 74.25092315673828 177.86676025390625 74.78272247314453 187.19683837890625 86.71217346191406 183.7939910888672" stroke-width="3.0" fill="none" stroke="rgb(-2, 1, -2)" stroke-opacity="0.35392547" stroke-linecap="round" stroke-linejoin="round"/>
    <path d="M 163.81781005859375 37.26604080200195 C 167.22019958496094 34.300899505615234 160.6675567626953 43.78425979614258 161.66937255859375 35.792232513427734" stroke-width="3.0" fill="none" stroke="rgb(0, 1, 0)" stroke-opacity="0.417579" stroke-linecap="round" stroke-linejoin="round"/>
    <path d="M 151.65032958984375 56.33832550048828 C 152.8994598388672 56.662967681884766 152.74008178710938 53.65983963012695 149.845703125 56.467323303222656" stroke-width="3.0" fill="none" stroke="rgb(0, 0, 1)" stroke-opacity="0.391564" stroke-linecap="round" stroke-linejoin="round"/>
    <path d="M 129.52203369140625 48.49024200439453 C 121.61820220947266 40.74168395996094 120.12371063232422 34.80158996582031 123.5546646118164 41.56039810180664" stroke-width="3.0" fill="none" stroke="rgb(-2, 1, 1)" stroke-opacity="0.39953175" stroke-linecap="round" stroke-linejoin="round"/>
    <path d="M 159.42787170410156 179.7360076904297 C 161.5383758544922 167.40325927734375 148.51409912109375 167.8677215576172 159.84744262695312 181.99134826660156" stroke-width="3.0" fill="none" stroke="rgb(-2, 2, -2)" stroke-opacity="0.8945312" stroke-linecap="round" stroke-linejoin="round"/>
    <path d="M 157.15892028808594 170.30711364746094 C 169.9104461669922 155.75955200195312 156.716064453125 142.70465087890625 156.06640625 167.37826538085938" stroke-width="3.0" fill="none" stroke="rgb(-2, 2, -2)" stroke-opacity="0.5285631" stroke-linecap="round" stroke-linejoin="round"/>
    <path d="M 190.62510681152344 46.46664810180664 C 188.6885986328125 61.13991165161133 192.74574279785156 57.157684326171875 190.3692626953125 47.43382263183594" stroke-width="3.0" fill="none" stroke="rgb(2, -2, -2)" stroke-opacity="0.5462435" stroke-linecap="round" stroke-linejoin="round"/>
    <path d="M 83.79428100585938 105.66484832763672 C 91.27228546142578 101.98582458496094 97.47762298583984 83.5667953491211 89.88362884521484 103.0964584350586" stroke-width="3.0" fill="none" stroke="rgb(-3, 1, -1)" stroke-opacity="0.21341172" stroke-linecap="round" stroke-linejoin="round"/>
    <path d="M 158.01702880859375 148.48199462890625 C 164.05679321289062 156.1800537109375 167.858642578125 153.17320251464844 164.56472778320312 175.9069061279297" stroke-width="3.0" fill="none" stroke="rgb(1, 1, -2)" stroke-opacity="0.6525014" stroke-linecap="round" stroke-linejoin="round"/>
    <path d="M 109.79792022705078 74.83183288574219 C 127.45492553710938 88.74585723876953 138.50753784179688 80.07791900634766 128.11279296875 87.36396789550781" stroke-width="3.0" fill="none" stroke="rgb(0, 0, 0)" stroke-opacity="0.2722416" stroke-linecap="round" stroke-linejoin="round"/>
    <path d="M 142.48361206054688 84.48100280761719 C 158.3961639404297 84.75080108642578 163.1613311767578 74.35586547851562 148.26077270507812 71.54828643798828" stroke-width="3.0" fill="none" stroke="rgb(0, 0, 1)" stroke-opacity="0.077171005" stroke-linecap="round" stroke-linejoin="round"/>
    <path d="M 139.03146362304688 53.05042266845703 C 150.5426788330078 54.17143249511719 159.41287231445312 51.35699462890625 162.78648376464844 43.55841064453125" stroke-width="3.0" fill="none" stroke="rgb(-1, 0, 1)" stroke-opacity="0.28172246" stroke-linecap="round" stroke-linejoin="round"/>
    <path d="M 177.62725830078125 28.97193145751953 C 178.90843200683594 31.17567253112793 182.19879150390625 30.707988739013672 155.37496948242188 34.364776611328125" stroke-width="3.0" fill="none" stroke="rgb(1, 0, 0)" stroke-opacity="0.21307656" stroke-linecap="round" stroke-linejoin="round"/>
    <path d="M 162.85928344726562 173.19332885742188 C 161.6928253173828 156.2049560546875 172.09413146972656 158.99105834960938 159.04135131835938 172.4144287109375" stroke-width="3.0" fill="none" stroke="rgb(0, 2, -2)" stroke-opacity="0.74033135" stroke-linecap="round" stroke-linejoin="round"/>
    <path d="M 153.4758758544922 175.49842834472656 C 159.75668334960938 169.03277587890625 161.1187286376953 167.7729949951172 158.6577911376953 167.5730743408203" stroke-width="3.0" fill="none" stroke="rgb(-1, 2, -2)" stroke-opacity="0.6968586" stroke-linecap="round" stroke-linejoin="round"/>
    <path d="M 75.2296142578125 93.05510711669922 C 75.40983581542969 90.15498352050781 76.59371948242188 94.49774169921875 74.9792251586914 93.42379760742188" stroke-width="3.0" fill="none" stroke="rgb(0, 0, 0)" stroke-opacity="0.13482356" stroke-linecap="round" stroke-linejoin="round"/>
    <path d="M 122.35643768310547 54.91781234741211 C 125.55896759033203 60.89815139770508 116.56671905517578 70.2530517578125 120.91707611083984 54.59489059448242" stroke-width="3.0" fill="none" stroke="rgb(3, 0, 0)" stroke-opacity="0.69887036" stroke-linecap="round" stroke-linejoin="round"/>
    <path d="M 122.55619812011719 61.30492401123047 C 124.2662353515625 62.45635223388672 134.94635009765625 61.76802444458008 123.97098541259766 57.73085403442383" stroke-width="3.0" fill="none" stroke="rgb(1, 2, 2)" stroke-opacity="0.5266707" stroke-linecap="round" stroke-linejoin="round"/>
    <path d="M 140.58045959472656 124.03560638427734 C 138.51971435546875 124.4256591796875 139.91641235351562 126.98133850097656 142.17698669433594 126.01274108886719" stroke-width="3.0" fill="none" stroke="rgb(0, 0, 0)" stroke-opacity="0.10559394" stroke-linecap="round" stroke-linejoin="round"/>
    <path d="M 158.16241455078125 171.4944610595703 C 170.42877197265625 172.8352813720703 156.09677124023438 156.98150634765625 155.33546447753906 172.0032196044922" stroke-width="3.0" fill="none" stroke="rgb(-1, 3, -3)" stroke-opacity="0.7451614" stroke-linecap="round" stroke-linejoin="round"/>
    <path d="M 108.71379089355469 164.89230346679688 C 122.44990539550781 175.600341796875 128.148193359375 160.63148498535156 99.34908294677734 164.71737670898438" stroke-width="3.0" fill="none" stroke="rgb(-2, 0, 0)" stroke-opacity="0.37713146" stroke-linecap="round" stroke-linejoin="round"/>
    <path d="M 73.69644165039062 130.00440979003906 C 94.83074188232422 132.54673767089844 92.17060852050781 150.35643005371094 85.2081069946289 157.79173278808594" stroke-width="3.0" fill="none" stroke="rgb(-3, 2, 0)" stroke-opacity="0.2967388" stroke-linecap="round" stroke-linejoin="round"/>
    <path d="M 70.65689849853516 90.61231231689453 C 73.22159576416016 100.31153106689453 71.18775939941406 95.93563842773438 71.74855041503906 90.2261962890625" stroke-width="3.0" fill="none" stroke="rgb(0, 0, 0)" stroke-opacity="0.03798437" stroke-linecap="round" stroke-linejoin="round"/>
    <path d="M 177.46713256835938 29.759197235107422 C 167.5654296875 29.578750610351562 163.7504119873047 28.419715881347656 150.2211456298828 33.392826080322266" stroke-width="3.0" fill="none" stroke="rgb(1, -1, 0)" stroke-opacity="0.3237486" stroke-linecap="round" stroke-linejoin="round"/>
    <path d="M 135.4733428955078 34.3652458190918 C 127.70529174804688 47.811466217041016 146.84022521972656 58.45168685913086 131.10977172851562 48.23944854736328" stroke-width="3.0" fill="none" stroke="rgb(-3, 1, 1)" stroke-opacity="0.3021498" stroke-linecap="round" stroke-linejoin="round"/>
    <path d="M 98.12136840820312 172.7333984375 C 102.1059341430664 161.0323486328125 100.59561157226562 153.2476348876953 94.67269897460938 151.18536376953125" stroke-width="3.0" fill="none" stroke="rgb(0, 0, 0)" stroke-opacity="0.30558422" stroke-linecap="round" stroke-linejoin="round"/>
    <path d="M 54.97309875488281 97.02803802490234 C 57.567100524902344 96.77053833007812 62.51404571533203 101.31178283691406 45.27229309082031 94.69184875488281" stroke-width="3.0" fill="none" stroke="rgb(-2, 1, -2)" stroke-opacity="0.32634142" stroke-linecap="round" stroke-linejoin="round"/>
    <path d="M 122.95506286621094 28.387968063354492 C 126.61392974853516 14.58599853515625 135.27069091796875 18.250219345092773 127.97305297851562 19.698856353759766" stroke-width="3.0" fill="none" stroke="rgb(0, 0, 0)" stroke-opacity="0.1295625" stroke-linecap="round" stroke-linejoin="round"/>
    <path d="M 180.9113311767578 31.42633056640625 C 172.0576629638672 26.15471839904785 169.04254150390625 23.893726348876953 149.3409423828125 30.086740493774414" stroke-width="3.0" fill="none" stroke="rgb(1, -3, 2)" stroke-opacity="0.39571026" stroke-linecap="round" stroke-linejoin="round"/>
    <path d="M 78.88764953613281 107.28841400146484 C 74.92317962646484 106.7409896850586 63.33992004394531 104.40991973876953 77.43732452392578 107.10821533203125" stroke-width="3.0" fill="none" stroke="rgb(0, 1, -1)" stroke-opacity="0.4300359" stroke-linecap="round" stroke-linejoin="round"/>
    <path d="M 131.6294708251953 17.261377334594727 C 140.95750427246094 18.979848861694336 144.2207489013672 22.01308250427246 149.8465576171875 23.34088706970215" stroke-width="3.0" fill="none" stroke="rgb(0, -1, 1)" stroke-opacity="0.26663947" stroke-linecap="round" stroke-linejoin="round"/>
    <path d="M 112.80626678466797 37.77719497680664 C 120.49214172363281 47.06610870361328 121.51177215576172 53.38015365600586 116.97427368164062 43.790122985839844" stroke-width="3.0" fill="none" stroke="rgb(0, -1, 1)" stroke-opacity="0.38429025" stroke-linecap="round" stroke-linejoin="round"/>
    <path d="M 138.31410217285156 84.75579071044922 C 142.1603546142578 85.74458312988281 129.90586853027344 83.26799011230469 136.16043090820312 92.43804931640625" stroke-width="3.0" fill="none" stroke="rgb(0, 0, 0)" stroke-opacity="0.2649271" stroke-linecap="round" stroke-linejoin="round"/>
    <path d="M 133.9495391845703 116.00102996826172 C 134.54116821289062 117.11111450195312 126.56961822509766 117.18274688720703 132.43276977539062 115.97260284423828" stroke-width="3.0" fill="none" stroke="rgb(0, 0, 0)" stroke-opacity="0.31444016" stroke-linecap="round" stroke-linejoin="round"/>
    <path d="M 125.17797088623047 93.94605255126953 C 129.15155029296875 82.05931854248047 136.81626892089844 86.08904266357422 125.1159439086914 96.72208404541016" stroke-width="3.0" fill="none" stroke="rgb(-3, 3, -3)" stroke-opacity="0.5463595" stroke-linecap="round" stroke-linejoin="round"/>
    <path d="M 161.3307342529297 45.30735778808594 C 168.55853271484375 38.67686080932617 160.65830993652344 44.092315673828125 154.2986602783203 43.90562057495117" stroke-width="3.0" fill="none" stroke="rgb(0, 1, 0)" stroke-opacity="0.2915988" stroke-linecap="round" stroke-linejoin="round"/>
    <path d="M 154.0576934814453 118.4830093383789 C 161.78480529785156 123.06964874267578 162.9141387939453 136.52804565429688 155.29502868652344 121.13096618652344" stroke-width="3.0" fill="none" stroke="rgb(0, 2, -2)" stroke-opacity="0.3700147" stroke-linecap="round" stroke-linejoin="round"/>
    <path d="M 188.92181396484375 50.781375885009766 C 185.83572387695312 33.48359680175781 194.67994689941406 57.792179107666016 188.0905303955078 47.95334243774414" stroke-width="3.0" fill="none" stroke="rgb(1, -1, -1)" stroke-opacity="0.19620234" stroke-linecap="round" stroke-linejoin="round"/>
    <path d="M 118.00028991699219 61.39361572265625 C 122.34635162353516 55.95753860473633 117.3782958984375 57.99138259887695 145.24098205566406 62.70427322387695" stroke-width="3.0" fill="none" stroke="rgb(1, 0, 1)" stroke-opacity="0.36401352" stroke-linecap="round" stroke-linejoin="round"/>
    <path d="M 132.2067413330078 147.27008056640625 C 148.59303283691406 136.3397216796875 149.60647583007812 144.4239959716797 141.115234375 140.41842651367188" stroke-width="3.0" fill="none" stroke="rgb(-1, 0, 1)" stroke-opacity="0.2719657" stroke-linecap="round" stroke-linejoin="round"/>
    <path d="M 53.59477996826172 95.45014953613281 C 50.13321304321289 100.65157318115234 44.353477478027344 95.3528823852539 48.50606155395508 97.38966369628906" stroke-width="3.0" fill="none" stroke="rgb(0, 0, -1)" stroke-opacity="0.21020713" stroke-linecap="round" stroke-linejoin="round"/>
    <path d="M 161.65870666503906 163.04869079589844 C 160.5908660888672 143.6549835205078 155.91104125976562 154.34295654296875 159.9442596435547 153.2650909423828" stroke-width="3.0" fill="none" stroke="rgb(0, 1, -1)" stroke-opacity="0.6101232" stroke-linecap="round" stroke-linejoin="round"/>
    <path d="M 88.66495513916016 101.4122085571289 C 86.22953796386719 101.41645812988281 84.27919006347656 103.83927917480469 93.10360717773438 100.0287094116211" stroke-width="3.0" fill="none" stroke="rgb(0, 1, -1)" stroke-opacity="0.2648461" stroke-linecap="round" stroke-linejoin="round"/>
    <path d="M 43.83305358886719 97.26875305175781 C 25.753854751586914 86.85707092285156 37.17768096923828 75.9295883178711 37.36256790161133 88.46377563476562" stroke-width="3.0" fill="none" stroke="rgb(0, 0, -1)" stroke-opacity="0.23417817" stroke-linecap="round" stroke-linejoin="round"/>
    <path d="M 182.7735595703125 34.728363037109375 C 174.6747283935547 34.76849365234375 181.18783569335938 23.707183837890625 189.87620544433594 45.37861251831055" stroke-width="3.0" fill="none" stroke="rgb(2, -2, -1)" stroke-opacity="0.45817307" stroke-linecap="round" stroke-linejoin="round"/>
    <path d="M 119.9238510131836 66.0201187133789 C 137.00160217285156 66.30714416503906 142.76766967773438 67.30181884765625 130.2686309814453 61.9968147277832" stroke-width="3.0" fill="none" stroke="rgb(0, 0, 1)" stroke-opacity="0.26803353" stroke-linecap="round" stroke-linejoin="round"/>
    <path d="M 173.50123596191406 62.64238357543945 C 170.0227813720703 60.806739807128906 178.3587188720703 63.470916748046875 174.7875518798828 64.1414566040039" stroke-width="3.0" fill="none" stroke="rgb(1, -2, 2)" stroke-opacity="0.4664223" stroke-linecap="round" stroke-linejoin="round"/>
    <path d="M 163.74298095703125 52.40153503417969 C 143.0363311767578 55.33945083618164 167.8892059326172 52.424659729003906 161.1300811767578 50.73442840576172" stroke-width="3.0" fill="none" stroke="rgb(0, 0, 0)" stroke-opacity="0.3199791" stroke-linecap="round" stroke-linejoin="round"/>
    <path d="M 96.79951477050781 203.8786163330078 C 120.52059173583984 189.23985290527344 106.40684509277344 181.02096557617188 105.38133239746094 196.93527221679688" stroke-width="3.0" fill="none" stroke="rgb(-1, 2, -2)" stroke-opacity="0.18987413" stroke-linecap="round" stroke-linejoin="round"/>
    <path d="M 173.32623291015625 57.997074127197266 C 130.34603881835938 60.17768478393555 171.9523468017578 65.87654113769531 173.9665069580078 63.33679962158203" stroke-width="3.0" fill="none" stroke="rgb(0, -1, 2)" stroke-opacity="0.25990337" stroke-linecap="round" stroke-linejoin="round"/>
    <path d="M 156.16326904296875 169.82334899902344 C 149.35008239746094 169.2625274658203 154.88003540039062 176.72396850585938 153.38951110839844 164.6759796142578" stroke-width="3.0" fill="none" stroke="rgb(0, 1, -1)" stroke-opacity="0.58067954" stroke-linecap="round" stroke-linejoin="round"/>
    <path d="M 118.2752456665039 104.20073699951172 C 126.44154357910156 87.2646484375 119.73512268066406 98.36817169189453 123.48452758789062 95.02261352539062" stroke-width="3.0" fill="none" stroke="rgb(-3, 1, 0)" stroke-opacity="0.47622284" stroke-linecap="round" stroke-linejoin="round"/>
    <path d="M 136.3624725341797 152.189453125 C 132.9770050048828 143.759033203125 129.55653381347656 155.73123168945312 142.8374786376953 158.2874755859375" stroke-width="3.0" fill="none" stroke="rgb(-1, 1, -3)" stroke-opacity="0.3100282" stroke-linecap="round" stroke-linejoin="round"/>
    <path d="M 84.1703109741211 76.99202728271484 C 100.3163070678711 94.30850982666016 90.39351654052734 100.92790222167969 84.5565185546875 77.41390228271484" stroke-width="3.0" fill="none" stroke="rgb(-2, 1, -2)" stroke-opacity="0.23854207" stroke-linecap="round" stroke-linejoin="round"/>
    <path d="M 51.3677864074707 95.29722595214844 C 26.023841857910156 87.46073150634766 43.13125228881836 81.79579162597656 43.695960998535156 92.68860626220703" stroke-width="3.0" fill="none" stroke="rgb(-2, 1, -2)" stroke-opacity="0.2358451" stroke-linecap="round" stroke-linejoin="round"/>
    <path d="M 83.26045989990234 84.37451934814453 C 83.00180053710938 74.36174011230469 78.05840301513672 76.37358856201172 74.49765014648438 71.0250015258789" stroke-width="3.0" fill="none" stroke="rgb(-1, 0, -1)" stroke-opacity="0.21439643" stroke-linecap="round" stroke-linejoin="round"/>
    <path d="M 160.14405822753906 48.083587646484375 C 157.1197509765625 42.50288772583008 157.50204467773438 47.43395233154297 159.81832885742188 47.8862419128418" stroke-width="3.0" fill="none" stroke="rgb(0, 1, 1)" stroke-opacity="0.37779182" stroke-linecap="round" stroke-linejoin="round"/>
    <path d="M 142.41961669921875 115.03459167480469 C 158.12628173828125 113.55268859863281 151.21124267578125 124.79898071289062 150.1763458251953 120.0649185180664" stroke-width="3.0" fill="none" stroke="rgb(-2, 1, -1)" stroke-opacity="0.24685563" stroke-linecap="round" stroke-linejoin="round"/>
    <path d="M 186.86447143554688 60.114994049072266 C 186.47996520996094 67.3723373413086 190.44224548339844 55.132225036621094 189.48011779785156 58.481239318847656" stroke-width="3.0" fill="none" stroke="rgb(0, 0, 0)" stroke-opacity="0.47771195" stroke-linecap="round" stroke-linejoin="round"/>
    <path d="M 148.70623779296875 23.333194732666016 C 150.2615966796875 25.302431106567383 140.99639892578125 25.85895538330078 156.61912536621094 26.24354362487793" stroke-width="3.0" fill="none" stroke="rgb(1, 0, 0)" stroke-opacity="0.35821676" stroke-linecap="round" stroke-linejoin="round"/>
    <path d="M 54.24427032470703 98.27043914794922 C 50.744781494140625 103.65753173828125 61.91221618652344 100.8942642211914 61.772674560546875 100.99727630615234" stroke-width="3.0" fill="none" stroke="rgb(-1, 0, -1)" stroke-opacity="0.2598085" stroke-linecap="round" stroke-linejoin="round"/>
    <path d="M 154.13278198242188 45.51647186279297 C 155.51409912109375 52.33480453491211 160.81814575195312 50.0643424987793 167.34861755371094 51.27484893798828" stroke-width="3.0" fill="none" stroke="rgb(0, 0, 0)" stroke-opacity="0.12174984" stroke-linecap="round" stroke-linejoin="round"/>
    <path d="M 79.05821228027344 179.34156799316406 C 82.7615966796875 183.0751495361328 82.70501708984375 187.24131774902344 89.22090148925781 182.8332977294922" stroke-width="3.0" fill="none" stroke="rgb(-1, 1, -2)" stroke-opacity="0.30957752" stroke-linecap="round" stroke-linejoin="round"/>
    <path d="M 99.14678192138672 182.33505249023438 C 81.35275268554688 179.25059509277344 94.22895050048828 181.81690979003906 80.0977783203125 181.46737670898438" stroke-width="3.0" fill="none" stroke="rgb(-1, 1, -1)" stroke-opacity="0.35955507" stroke-linecap="round" stroke-linejoin="round"/>
    <path d="M 114.88458251953125 172.87875366210938 C 92.12458038330078 178.7045440673828 104.96984100341797 183.91116333007812 101.82123565673828 183.41818237304688" stroke-width="3.0" fill="none" stroke="rgb(0, 1, 0)" stroke-opacity="0.3182656" stroke-linecap="round" stroke-linejoin="round"/>
    <path d="M 147.4123992919922 57.86238479614258 C 152.77252197265625 58.22556686401367 143.1204833984375 59.22360610961914 147.3758544921875 56.00218200683594" stroke-width="3.0" fill="none" stroke="rgb(0, 0, 1)" stroke-opacity="0.4070758" stroke-linecap="round" stroke-linejoin="round"/>
    <path d="M 148.28924560546875 26.054597854614258 C 145.70574951171875 32.511566162109375 142.4154510498047 29.33454132080078 147.01393127441406 25.816560745239258" stroke-width="3.0" fill="none" stroke="rgb(0, 0, 1)" stroke-opacity="0.17718731" stroke-linecap="round" stroke-linejoin="round"/>
    <path d="M 154.01296997070312 168.807861328125 C 154.35595703125 182.97091674804688 159.74905395507812 180.82388305664062 163.19363403320312 178.55323791503906" stroke-width="3.0" fill="none" stroke="rgb(-1, 2, -2)" stroke-opacity="0.6851831" stroke-linecap="round" stroke-linejoin="round"/>
    <path d="M 30.69426155090332 76.48101806640625 C 48.772621154785156 72.70974731445312 56.35049819946289 69.62398529052734 54.1182861328125 69.326171875" stroke-width="3.0" fill="none" stroke="rgb(0, 1, -2)" stroke-opacity="0.20709705" stroke-linecap="round" stroke-linejoin="round"/>
    <path d="M 99.35149383544922 185.43157958984375 C 89.07462310791016 188.27195739746094 85.63984680175781 192.72933959960938 77.19537353515625 189.4861602783203" stroke-width="3.0" fill="none" stroke="rgb(-2, 1, -2)" stroke-opacity="0.37716308" stroke-linecap="round" stroke-linejoin="round"/>
    <path d="M 102.1861572265625 196.70770263671875 C 100.35607147216797 164.7366485595703 102.12644958496094 166.0064697265625 104.29863739013672 168.68270874023438" stroke-width="3.0" fill="none" stroke="rgb(0, 0, 2)" stroke-opacity="0.32305217" stroke-linecap="round" stroke-linejoin="round"/>
    <path d="M 158.45433044433594 152.7554473876953 C 160.1355438232422 160.70729064941406 159.17552185058594 165.29518127441406 152.7322235107422 173.29220581054688" stroke-width="3.0" fill="none" stroke="rgb(-1, 2, -2)" stroke-opacity="0.58788526" stroke-linecap="round" stroke-linejoin="round"/>
    <path d="M 148.0303192138672 57.58597183227539 C 158.7281036376953 60.052391052246094 152.1424560546875 59.220672607421875 150.75961303710938 58.42701721191406" stroke-width="3.0" fill="none" stroke="rgb(0, 1, 1)" stroke-opacity="0.44356444" stroke-linecap="round" stroke-linejoin="round"/>
    <path d="M 34.586509704589844 69.95693969726562 C 33.42267608642578 78.53975677490234 7.465268135070801 71.66889190673828 31.865076065063477 72.70932006835938" stroke-width="3.0" fill="none" stroke="rgb(0, 0, -1)" stroke-opacity="0.07874877" stroke-linecap="round" stroke-linejoin="round"/>
    <path d="M 82.26436614990234 155.36744689941406 C 79.32999420166016 162.68069458007812 69.64910888671875 162.46365356445312 73.2410888671875 163.0504913330078" stroke-width="3.0" fill="none" stroke="rgb(-2, 1, -1)" stroke-opacity="0.31532454" stroke-linecap="round" stroke-linejoin="round"/>
    <path d="M 172.85433959960938 65.20817565917969 C 171.93992614746094 63.785675048828125 165.40249633789062 70.09662628173828 179.122802734375 61.700199127197266" stroke-width="3.0" fill="none" stroke="rgb(0, -1, 1)" stroke-opacity="0.19329184" stroke-linecap="round" stroke-linejoin="round"/>
    <path d="M 175.87155151367188 48.22235870361328 C 174.7373809814453 25.11857795715332 179.44300842285156 21.642797470092773 177.42027282714844 46.758209228515625" stroke-width="3.0" fill="none" stroke="rgb(0, 0, 1)" stroke-opacity="0.13179916" stroke-linecap="round" stroke-linejoin="round"/>
    <path d="M 159.16709899902344 89.98965454101562 C 130.61439514160156 88.38236236572266 129.37071228027344 86.94232177734375 152.2758331298828 86.68833923339844" stroke-width="3.0" fill="none" stroke="rgb(2, -1, 0)" stroke-opacity="0.35414758" stroke-linecap="round" stroke-linejoin="round"/>
  </g>
</svg>
