<?xml version="1.0" ?>
<svg xmlns="http://www.w3.org/2000/svg" version="1.1" width="224" height="224">
  <defs/>
  <g>
    <path d="M 137.5598907470703 16.387592315673828 C 110.05351257324219 31.187612533569336 114.00438690185547 18.88820457458496 128.27691650390625 47.74977111816406" stroke-width="3.0" fill="none" stroke="rgb(1, -1, 0)" stroke-opacity="0.04425715" stroke-linecap="round" stroke-linejoin="round"/>
    <path d="M 33.28615188598633 78.81143188476562 C 14.126542091369629 68.68136596679688 166.54917907714844 88.46774291992188 33.59477615356445 76.73480987548828" stroke-width="3.0" fill="none" stroke="rgb(-4, 3, -2)" stroke-opacity="0.18260202" stroke-linecap="round" stroke-linejoin="round"/>
    <path d="M 33.58681106567383 72.41888427734375 C 34.550350189208984 60.35957336425781 135.32400512695312 83.45775604248047 27.06238555908203 71.01844024658203" stroke-width="3.0" fill="none" stroke="rgb(-2, 2, -2)" stroke-opacity="0.17581291" stroke-linecap="round" stroke-linejoin="round"/>
    <path d="M 143.35116577148438 40.37416076660156 C 143.74188232421875 47.55806350708008 170.8028106689453 44.38972854614258 155.6205596923828 49.78988265991211" stroke-width="3.0" fill="none" stroke="rgb(-1, 0, 0)" stroke-opacity="0.12035267" stroke-linecap="round" stroke-linejoin="round"/>
    <path d="M 190.6280517578125 51.72227096557617 C 192.8489990234375 44.49543380737305 182.24435424804688 23.76348114013672 192.1294708251953 51.90316390991211" stroke-width="3.0" fill="none" stroke="rgb(3, -4, 0)" stroke-opacity="0.15204662" stroke-linecap="round" stroke-linejoin="round"/>
    <path d="M 111.5888671875 38.3167839050293 C 132.53799438476562 58.204627990722656 96.02558898925781 57.85573196411133 134.79251098632812 91.34317779541016" stroke-width="3.0" fill="none" stroke="rgb(0, -2, 3)" stroke-opacity="0.25529823" stroke-linecap="round" stroke-linejoin="round"/>
    <path d="M 163.2953338623047 183.1289825439453 C 160.6707000732422 117.88341522216797 176.52288818359375 195.49444580078125 151.01400756835938 172.3996124267578" stroke-width="3.0" fill="none" stroke="rgb(-1, 2, -2)" stroke-opacity="0.22647206" stroke-linecap="round" stroke-linejoin="round"/>
    <path d="M 167.37588500976562 59.516700744628906 C 188.7664031982422 54.829566955566406 176.7048797607422 82.23323059082031 167.41421508789062 72.92671203613281" stroke-width="3.0" fill="none" stroke="rgb(2, 0, 1)" stroke-opacity="0.031501215" stroke-linecap="round" stroke-linejoin="round"/>
    <path d="M 156.32469177246094 75.84266662597656 C 127.83916473388672 81.28826904296875 139.626708984375 95.83524322509766 164.144287109375 65.5309829711914" stroke-width="3.0" fill="none" stroke="rgb(0, 0, 1)" stroke-opacity="0.05174879" stroke-linecap="round" stroke-linejoin="round"/>
    <path d="M 146.30831909179688 115.55432891845703 C 93.02725982666016 126.6210708618164 137.44529724121094 121.8818130493164 101.86661529541016 148.08566284179688" stroke-width="3.0" fill="none" stroke="rgb(-2, 3, -3)" stroke-opacity="0.25539008" stroke-linecap="round" stroke-linejoin="round"/>
    <path d="M 179.66836547851562 60.806697845458984 C 159.1675567626953 83.39271545410156 175.67294311523438 66.47905731201172 156.173828125 91.24872589111328" stroke-width="3.0" fill="none" stroke="rgb(-2, 0, 1)" stroke-opacity="0.1484729" stroke-linecap="round" stroke-linejoin="round"/>
    <path d="M 99.75381469726562 202.88931274414062 C 44.91826248168945 157.72207641601562 119.76688385009766 183.04672241210938 109.54301452636719 194.4392547607422" stroke-width="3.0" fill="none" stroke="rgb(-2, 2, -2)" stroke-opacity="0.116765924" stroke-linecap="round" stroke-linejoin="round"/>
    <path d="M 77.79890441894531 178.14413452148438 C 73.57959747314453 199.83421325683594 86.32737731933594 190.02447509765625 97.12698364257812 205.53009033203125" stroke-width="3.0" fill="none" stroke="rgb(-1, 2, -3)" stroke-opacity="0.33284324" stroke-linecap="round" stroke-linejoin="round"/>
    <path d="M 161.49867248535156 52.088016510009766 C 116.98977661132812 56.3695068359375 139.8807373046875 63.077632904052734 134.5193328857422 34.25749206542969" stroke-width="3.0" fill="none" stroke="rgb(0, 0, 1)" stroke-opacity="0.053157188" stroke-linecap="round" stroke-linejoin="round"/>
    <path d="M 173.74017333984375 82.6697998046875 C 158.5181121826172 92.08711242675781 156.8311004638672 92.3145980834961 153.30828857421875 91.38055419921875" stroke-width="3.0" fill="none" stroke="rgb(0, 0, -1)" stroke-opacity="0.44684726" stroke-linecap="round" stroke-linejoin="round"/>
    <path d="M 178.1570587158203 60.249244689941406 C 170.31565856933594 56.09333419799805 174.31427001953125 56.87828063964844 163.7023468017578 60.50530242919922" stroke-width="3.0" fill="none" stroke="rgb(0, 0, 0)" stroke-opacity="-0.002577077" stroke-linecap="round" stroke-linejoin="round"/>
    <path d="M 185.40818786621094 61.117271423339844 C 178.2730255126953 47.5899658203125 213.62509155273438 47.79823684692383 195.02740478515625 95.72979736328125" stroke-width="3.0" fill="none" stroke="rgb(0, 0, 0)" stroke-opacity="0.0036499419" stroke-linecap="round" stroke-linejoin="round"/>
    <path d="M 119.48646545410156 21.852439880371094 C 162.72433471679688 20.87540626525879 99.43235778808594 27.048002243041992 134.9376220703125 16.876096725463867" stroke-width="3.0" fill="none" stroke="rgb(0, -2, 2)" stroke-opacity="0.046222392" stroke-linecap="round" stroke-linejoin="round"/>
    <path d="M 110.14398193359375 115.97337341308594 C 139.48423767089844 84.78318786621094 136.19281005859375 71.38582611083984 121.242431640625 129.8560791015625" stroke-width="3.0" fill="none" stroke="rgb(0, 1, -1)" stroke-opacity="0.10185497" stroke-linecap="round" stroke-linejoin="round"/>
    <path d="M 85.4161148071289 95.56941986083984 C 93.54341125488281 67.43536376953125 51.437469482421875 69.03784942626953 92.76116180419922 75.88302612304688" stroke-width="3.0" fill="none" stroke="rgb(0, 0, 0)" stroke-opacity="0.018513504" stroke-linecap="round" stroke-linejoin="round"/>
    <path d="M 175.4425506591797 46.74761199951172 C 172.3503875732422 26.08293914794922 134.64874267578125 38.41058349609375 178.747314453125 41.49040985107422" stroke-width="3.0" fill="none" stroke="rgb(-1, -2, 3)" stroke-opacity="0.07749904" stroke-linecap="round" stroke-linejoin="round"/>
    <path d="M 133.4511260986328 43.57021713256836 C 163.5389404296875 64.35823059082031 126.35845184326172 52.119564056396484 135.2954864501953 35.07670974731445" stroke-width="3.0" fill="none" stroke="rgb(-3, 2, 3)" stroke-opacity="0.120832816" stroke-linecap="round" stroke-linejoin="round"/>
    <path d="M 138.93328857421875 152.763916015625 C 125.42649841308594 153.19715881347656 158.56307983398438 191.4479522705078 152.5712890625 166.68946838378906" stroke-width="3.0" fill="none" stroke="rgb(-2, 2, -2)" stroke-opacity="0.27581614" stroke-linecap="round" stroke-linejoin="round"/>
    <path d="M 120.16139221191406 69.71454620361328 C 118.86669921875 48.070377349853516 130.54916381835938 65.4620132446289 119.26236724853516 51.205020904541016" stroke-width="3.0" fill="none" stroke="rgb(2, -2, 0)" stroke-opacity="0.11912351" stroke-linecap="round" stroke-linejoin="round"/>
    <path d="M 139.77342224121094 32.3909912109375 C 143.0392303466797 51.83018112182617 190.22035217285156 32.67310333251953 146.35194396972656 40.41584014892578" stroke-width="3.0" fill="none" stroke="rgb(0, -2, 2)" stroke-opacity="0.18061261" stroke-linecap="round" stroke-linejoin="round"/>
    <path d="M 91.06857299804688 84.62698364257812 C -27.30617332458496 72.72061157226562 66.30274963378906 99.82449340820312 60.75467300415039 103.46404266357422" stroke-width="3.0" fill="none" stroke="rgb(-3, 4, -5)" stroke-opacity="0.12049703" stroke-linecap="round" stroke-linejoin="round"/>
    <path d="M 96.15800476074219 240.01071166992188 C 106.78800964355469 224.77487182617188 89.64788055419922 184.31204223632812 118.26573944091797 199.9544219970703" stroke-width="3.0" fill="none" stroke="rgb(-2, 2, -1)" stroke-opacity="0.26974133" stroke-linecap="round" stroke-linejoin="round"/>
    <path d="M 179.60865783691406 55.069602966308594 C 157.1439666748047 61.67583084106445 158.90969848632812 61.93364334106445 179.55459594726562 51.34676742553711" stroke-width="3.0" fill="none" stroke="rgb(1, -1, 0)" stroke-opacity="0.023116881" stroke-linecap="round" stroke-linejoin="round"/>
    <path d="M 101.38771057128906 122.30083465576172 C 80.12166595458984 105.81058502197266 98.9352798461914 111.64057159423828 104.23721313476562 122.27498626708984" stroke-width="3.0" fill="none" stroke="rgb(-2, 2, -2)" stroke-opacity="0.53469133" stroke-linecap="round" stroke-linejoin="round"/>
    <path d="M 88.17269897460938 141.9156951904297 C 56.73244094848633 127.39537048339844 84.77702331542969 124.81057739257812 100.90142822265625 160.40615844726562" stroke-width="3.0" fill="none" stroke="rgb(-1, 2, -3)" stroke-opacity="0.19990642" stroke-linecap="round" stroke-linejoin="round"/>
    <path d="M 111.5004653930664 37.712947845458984 C 133.12367248535156 62.16110610961914 112.083984375 60.36957931518555 130.81045532226562 90.93912506103516" stroke-width="3.0" fill="none" stroke="rgb(0, -2, 2)" stroke-opacity="0.11188126" stroke-linecap="round" stroke-linejoin="round"/>
    <path d="M 129.60626220703125 137.12423706054688 C 99.6982650756836 127.96502685546875 110.46525573730469 108.50543975830078 99.65592956542969 158.5717315673828" stroke-width="3.0" fill="none" stroke="rgb(1, 0, -1)" stroke-opacity="0.15830387" stroke-linecap="round" stroke-linejoin="round"/>
    <path d="M 122.24064636230469 77.01216888427734 C 119.62823486328125 73.5586929321289 125.9217300415039 26.580530166625977 116.97865295410156 69.24375915527344" stroke-width="3.0" fill="none" stroke="rgb(3, -3, 2)" stroke-opacity="0.1699025" stroke-linecap="round" stroke-linejoin="round"/>
    <path d="M 90.67159271240234 100.46503448486328 C 53.93560028076172 82.72570037841797 43.67289352416992 113.80126190185547 33.94775390625 70.62262725830078" stroke-width="3.0" fill="none" stroke="rgb(-3, 2, -2)" stroke-opacity="0.13231058" stroke-linecap="round" stroke-linejoin="round"/>
    <path d="M 83.93290710449219 112.32968139648438 C 90.16822814941406 79.23432922363281 104.63408660888672 115.65689849853516 67.6607437133789 84.80130767822266" stroke-width="3.0" fill="none" stroke="rgb(-2, 1, -2)" stroke-opacity="0.10224316" stroke-linecap="round" stroke-linejoin="round"/>
    <path d="M 71.44779205322266 68.51667785644531 C 57.53753662109375 85.25894165039062 111.08621215820312 73.13383483886719 59.65437316894531 73.0268325805664" stroke-width="3.0" fill="none" stroke="rgb(-1, 0, -1)" stroke-opacity="0.0428651" stroke-linecap="round" stroke-linejoin="round"/>
    <path d="M 165.3645477294922 36.38777160644531 C 138.65867614746094 22.89104652404785 148.65463256835938 17.62710189819336 181.21836853027344 34.098209381103516" stroke-width="3.0" fill="none" stroke="rgb(1, -2, 0)" stroke-opacity="0.056715827" stroke-linecap="round" stroke-linejoin="round"/>
    <path d="M 59.3216667175293 142.33575439453125 C 32.22920227050781 169.2896270751953 54.332969665527344 135.8927764892578 71.60968780517578 133.7069091796875" stroke-width="3.0" fill="none" stroke="rgb(-2, 2, -2)" stroke-opacity="0.26046658" stroke-linecap="round" stroke-linejoin="round"/>
    <path d="M 134.45294189453125 89.70616912841797 C 109.2722396850586 70.50255584716797 121.10739135742188 42.85360336303711 117.58621215820312 52.84470748901367" stroke-width="3.0" fill="none" stroke="rgb(1, -2, 2)" stroke-opacity="0.07846741" stroke-linecap="round" stroke-linejoin="round"/>
    <path d="M 171.99427795410156 41.405391693115234 C 165.52015686035156 62.31446838378906 125.34148406982422 50.45260238647461 136.64320373535156 34.51496887207031" stroke-width="3.0" fill="none" stroke="rgb(-3, 1, 2)" stroke-opacity="0.1633533" stroke-linecap="round" stroke-linejoin="round"/>
    <path d="M 110.35474395751953 37.99736022949219 C 120.28057098388672 15.273246765136719 116.24687957763672 25.49618148803711 132.0577392578125 16.58466148376465" stroke-width="3.0" fill="none" stroke="rgb(-1, -2, 2)" stroke-opacity="0.25148478" stroke-linecap="round" stroke-linejoin="round"/>
    <path d="M 160.20700073242188 91.83032989501953 C 177.96505737304688 86.18290710449219 110.06409454345703 96.09355926513672 128.055908203125 59.64299011230469" stroke-width="3.0" fill="none" stroke="rgb(0, 0, 0)" stroke-opacity="0.058123644" stroke-linecap="round" stroke-linejoin="round"/>
    <path d="M 116.80523681640625 126.63992309570312 C 161.9915313720703 118.22555541992188 177.57412719726562 120.09252166748047 117.50955963134766 129.24981689453125" stroke-width="3.0" fill="none" stroke="rgb(-2, 2, -2)" stroke-opacity="0.211743" stroke-linecap="round" stroke-linejoin="round"/>
    <path d="M 124.86930847167969 25.670839309692383 C 183.60556030273438 24.19386863708496 189.4486541748047 33.47227096557617 123.3233642578125 26.080936431884766" stroke-width="3.0" fill="none" stroke="rgb(2, -2, 0)" stroke-opacity="0.031557497" stroke-linecap="round" stroke-linejoin="round"/>
    <path d="M 93.7558822631836 91.18965148925781 C 34.5863037109375 69.7894287109375 57.30861282348633 87.32015991210938 51.10585021972656 64.13668823242188" stroke-width="3.0" fill="none" stroke="rgb(-1, 2, -2)" stroke-opacity="0.056651782" stroke-linecap="round" stroke-linejoin="round"/>
    <path d="M 181.31546020507812 59.612239837646484 C 192.91845703125 54.97313690185547 190.60340881347656 60.12310028076172 191.69015502929688 53.51902389526367" stroke-width="3.0" fill="none" stroke="rgb(0, -1, 1)" stroke-opacity="0.13121809" stroke-linecap="round" stroke-linejoin="round"/>
    <path d="M 135.25360107421875 94.09104919433594 C 132.93466186523438 95.5812759399414 145.93045043945312 107.36854553222656 135.37850952148438 96.1952896118164" stroke-width="3.0" fill="none" stroke="rgb(2, 1, -2)" stroke-opacity="0.52792543" stroke-linecap="round" stroke-linejoin="round"/>
    <path d="M 138.0079345703125 34.94439697265625 C 136.60910034179688 52.40317153930664 171.03065490722656 56.21319580078125 144.7833251953125 38.35224914550781" stroke-width="3.0" fill="none" stroke="rgb(-1, 0, 1)" stroke-opacity="0.10420423" stroke-linecap="round" stroke-linejoin="round"/>
    <path d="M 99.79317474365234 159.1338348388672 C 112.51105499267578 118.61405944824219 99.46714782714844 122.30350494384766 134.51991271972656 90.38954162597656" stroke-width="3.0" fill="none" stroke="rgb(2, 0, -2)" stroke-opacity="0.32354918" stroke-linecap="round" stroke-linejoin="round"/>
    <path d="M 65.88198852539062 69.62877655029297 C 56.62455749511719 66.07654571533203 18.639751434326172 65.96943664550781 58.77769470214844 68.16486358642578" stroke-width="3.0" fill="none" stroke="rgb(-1, 1, -2)" stroke-opacity="0.2967192" stroke-linecap="round" stroke-linejoin="round"/>
    <path d="M 101.85187530517578 168.15878295898438 C 80.91400146484375 168.1693878173828 80.5396728515625 171.09921264648438 108.36988067626953 169.69186401367188" stroke-width="3.0" fill="none" stroke="rgb(-1, 2, -3)" stroke-opacity="0.20351106" stroke-linecap="round" stroke-linejoin="round"/>
    <path d="M 135.6514892578125 16.581798553466797 C 179.92520141601562 38.455726623535156 201.73867797851562 49.020259857177734 149.68356323242188 43.898258209228516" stroke-width="3.0" fill="none" stroke="rgb(1, -1, 2)" stroke-opacity="0.044239752" stroke-linecap="round" stroke-linejoin="round"/>
    <path d="M 134.2513885498047 36.432762145996094 C 164.2997283935547 50.09634017944336 151.86459350585938 56.645381927490234 133.4204864501953 38.560630798339844" stroke-width="3.0" fill="none" stroke="rgb(-2, 2, 2)" stroke-opacity="0.083573915" stroke-linecap="round" stroke-linejoin="round"/>
    <path d="M 133.8060302734375 53.51060485839844 C 117.41227722167969 32.25752258300781 102.5736312866211 21.310413360595703 123.52760314941406 39.27959060668945" stroke-width="3.0" fill="none" stroke="rgb(0, -2, 1)" stroke-opacity="0.08041403" stroke-linecap="round" stroke-linejoin="round"/>
    <path d="M 163.6159210205078 186.1005859375 C 149.5182342529297 160.25059509277344 137.0831298828125 175.54330444335938 157.82847595214844 177.1041717529297" stroke-width="3.0" fill="none" stroke="rgb(-1, 1, -1)" stroke-opacity="0.23614648" stroke-linecap="round" stroke-linejoin="round"/>
    <path d="M 162.46047973632812 181.6796875 C 157.750244140625 160.80740356445312 144.07904052734375 113.95569610595703 165.07119750976562 175.8429718017578" stroke-width="3.0" fill="none" stroke="rgb(-2, 1, -1)" stroke-opacity="0.07805877" stroke-linecap="round" stroke-linejoin="round"/>
    <path d="M 184.2019500732422 33.572967529296875 C 192.84841918945312 66.06710815429688 196.67947387695312 43.5137825012207 181.79798889160156 31.253318786621094" stroke-width="3.0" fill="none" stroke="rgb(1, -1, 0)" stroke-opacity="0.111829326" stroke-linecap="round" stroke-linejoin="round"/>
    <path d="M 90.10569763183594 100.60955810546875 C 86.2156982421875 102.39886474609375 93.84519958496094 66.62257385253906 92.07000732421875 98.63304138183594" stroke-width="3.0" fill="none" stroke="rgb(0, 1, -1)" stroke-opacity="0.13093647" stroke-linecap="round" stroke-linejoin="round"/>
    <path d="M 130.4335479736328 139.60845947265625 C 175.15487670898438 137.94432067871094 170.19717407226562 174.67156982421875 159.94769287109375 181.3095703125" stroke-width="3.0" fill="none" stroke="rgb(-2, 2, -2)" stroke-opacity="0.17545608" stroke-linecap="round" stroke-linejoin="round"/>
    <path d="M 101.75028228759766 68.46624755859375 C 133.18649291992188 86.14656829833984 77.68168640136719 73.53211975097656 123.55587005615234 82.74954223632812" stroke-width="3.0" fill="none" stroke="rgb(0, 1, -1)" stroke-opacity="0.24767335" stroke-linecap="round" stroke-linejoin="round"/>
    <path d="M 137.98837280273438 97.91349029541016 C 168.6673126220703 98.78951263427734 125.79537963867188 87.38494873046875 149.18136596679688 89.6000747680664" stroke-width="3.0" fill="none" stroke="rgb(-1, 0, 4)" stroke-opacity="0.084430635" stroke-linecap="round" stroke-linejoin="round"/>
    <path d="M 140.25341796875 31.245628356933594 C 153.9477081298828 57.4941520690918 176.96820068359375 35.94268798828125 153.76502990722656 35.53483963012695" stroke-width="3.0" fill="none" stroke="rgb(-2, 0, 2)" stroke-opacity="0.11963501" stroke-linecap="round" stroke-linejoin="round"/>
    <path d="M 179.7948455810547 30.321659088134766 C 201.8295440673828 47.91205978393555 166.37017822265625 21.11057472229004 144.7784423828125 22.336057662963867" stroke-width="3.0" fill="none" stroke="rgb(2, -3, 0)" stroke-opacity="0.05653316" stroke-linecap="round" stroke-linejoin="round"/>
    <path d="M 154.9699249267578 177.87588500976562 C 144.26112365722656 129.07469177246094 149.4884796142578 132.04104614257812 157.5630340576172 177.46343994140625" stroke-width="3.0" fill="none" stroke="rgb(-1, 1, -1)" stroke-opacity="0.092761934" stroke-linecap="round" stroke-linejoin="round"/>
    <path d="M 165.98428344726562 173.51136779785156 C 147.6119842529297 179.5823211669922 133.29249572753906 152.85816955566406 163.50897216796875 177.0799102783203" stroke-width="3.0" fill="none" stroke="rgb(-1, 1, -2)" stroke-opacity="0.08484387" stroke-linecap="round" stroke-linejoin="round"/>
    <path d="M 70.11013793945312 68.69178009033203 C 96.28494262695312 145.1077423095703 67.46502685546875 78.63655853271484 69.74561309814453 78.16747283935547" stroke-width="3.0" fill="none" stroke="rgb(-1, 1, -1)" stroke-opacity="0.049523667" stroke-linecap="round" stroke-linejoin="round"/>
    <path d="M 124.65242767333984 57.16708755493164 C 118.91358184814453 83.7624740600586 121.21934509277344 89.3634033203125 124.67786407470703 55.56344223022461" stroke-width="3.0" fill="none" stroke="rgb(0, 0, 1)" stroke-opacity="0.087898225" stroke-linecap="round" stroke-linejoin="round"/>
    <path d="M 118.50502014160156 73.27942657470703 C 120.65433502197266 62.78648376464844 115.39134979248047 55.35575866699219 119.10504913330078 71.06336975097656" stroke-width="3.0" fill="none" stroke="rgb(5, -6, 5)" stroke-opacity="0.09219684" stroke-linecap="round" stroke-linejoin="round"/>
    <path d="M 153.52706909179688 125.38829803466797 C 116.92534637451172 137.371337890625 83.78744506835938 125.84211730957031 154.78025817871094 117.87617492675781" stroke-width="3.0" fill="none" stroke="rgb(-2, 2, -2)" stroke-opacity="0.16528663" stroke-linecap="round" stroke-linejoin="round"/>
    <path d="M 163.4682159423828 183.3551483154297 C 161.1079559326172 170.94635009765625 142.2849578857422 174.36077880859375 163.64532470703125 179.23587036132812" stroke-width="3.0" fill="none" stroke="rgb(0, 0, -1)" stroke-opacity="0.078256436" stroke-linecap="round" stroke-linejoin="round"/>
    <path d="M 106.65145874023438 161.8201904296875 C 134.434814453125 186.60816955566406 118.3000717163086 152.71034240722656 92.2253646850586 166.0040283203125" stroke-width="3.0" fill="none" stroke="rgb(-1, 1, -1)" stroke-opacity="0.33570838" stroke-linecap="round" stroke-linejoin="round"/>
    <path d="M 65.77630615234375 135.14068603515625 C 75.52937316894531 118.44638061523438 115.6650390625 144.9286651611328 68.2009048461914 169.69700622558594" stroke-width="3.0" fill="none" stroke="rgb(-2, 2, -2)" stroke-opacity="0.26541635" stroke-linecap="round" stroke-linejoin="round"/>
    <path d="M 82.1326904296875 74.17745208740234 C 89.80835723876953 109.37408447265625 92.73832702636719 118.28114318847656 76.63109588623047 70.3805923461914" stroke-width="3.0" fill="none" stroke="rgb(-1, 1, -1)" stroke-opacity="0.09012691" stroke-linecap="round" stroke-linejoin="round"/>
    <path d="M 141.32867431640625 19.936338424682617 C 184.4794921875 29.898067474365234 181.8114013671875 27.214262008666992 127.41231536865234 19.27033805847168" stroke-width="3.0" fill="none" stroke="rgb(0, 0, 1)" stroke-opacity="0.06123353" stroke-linecap="round" stroke-linejoin="round"/>
    <path d="M 139.37692260742188 42.68144989013672 C 118.45870208740234 16.42696189880371 148.86941528320312 77.78340911865234 121.0268783569336 35.60639953613281" stroke-width="3.0" fill="none" stroke="rgb(-1, 1, 1)" stroke-opacity="0.20168509" stroke-linecap="round" stroke-linejoin="round"/>
    <path d="M 100.18484497070312 172.5726318359375 C 93.9405288696289 159.66937255859375 115.3355941772461 136.57217407226562 87.69159698486328 156.81039428710938" stroke-width="3.0" fill="none" stroke="rgb(4, 2, -4)" stroke-opacity="0.30722293" stroke-linecap="round" stroke-linejoin="round"/>
    <path d="M 71.20643615722656 98.35664367675781 C 70.16707611083984 120.86183166503906 132.80398559570312 84.48326110839844 35.57977294921875 92.06755065917969" stroke-width="3.0" fill="none" stroke="rgb(-4, 4, -3)" stroke-opacity="0.12810493" stroke-linecap="round" stroke-linejoin="round"/>
    <path d="M 131.48304748535156 50.382591247558594 C 106.13561248779297 29.610061645507812 140.52732849121094 3.4315552711486816 110.76727294921875 34.013851165771484" stroke-width="3.0" fill="none" stroke="rgb(2, -3, 2)" stroke-opacity="0.12130613" stroke-linecap="round" stroke-linejoin="round"/>
    <path d="M 179.32337951660156 29.657211303710938 C 163.25502014160156 19.62083625793457 160.85845947265625 30.48834228515625 133.69297790527344 16.14763641357422" stroke-width="3.0" fill="none" stroke="rgb(0, -2, 3)" stroke-opacity="0.13618726" stroke-linecap="round" stroke-linejoin="round"/>
    <path d="M 86.2561264038086 103.6084976196289 C 111.9622802734375 106.3361587524414 36.15227508544922 86.97759246826172 70.58924102783203 104.52388000488281" stroke-width="3.0" fill="none" stroke="rgb(-2, 3, -3)" stroke-opacity="0.121823564" stroke-linecap="round" stroke-linejoin="round"/>
    <path d="M 126.22711181640625 24.64579963684082 C 143.02130126953125 28.838825225830078 128.5592041015625 13.48932933807373 172.2193603515625 32.381717681884766" stroke-width="3.0" fill="none" stroke="rgb(3, -1, 0)" stroke-opacity="0.032714587" stroke-linecap="round" stroke-linejoin="round"/>
    <path d="M 120.93714904785156 42.627933502197266 C 102.15858459472656 22.123571395874023 122.57474517822266 49.87211990356445 110.49271392822266 37.58798599243164" stroke-width="3.0" fill="none" stroke="rgb(1, -1, 0)" stroke-opacity="0.06165972" stroke-linecap="round" stroke-linejoin="round"/>
    <path d="M 130.17840576171875 95.39080047607422 C 122.2009048461914 77.91612243652344 136.86962890625 80.75357055664062 125.14511108398438 113.79137420654297" stroke-width="3.0" fill="none" stroke="rgb(-1, 1, 0)" stroke-opacity="0.24907188" stroke-linecap="round" stroke-linejoin="round"/>
    <path d="M 143.45848083496094 116.22569274902344 C 113.76731872558594 162.0173797607422 105.65699768066406 104.770751953125 152.2730712890625 115.71077728271484" stroke-width="3.0" fill="none" stroke="rgb(-3, 3, -3)" stroke-opacity="0.20458996" stroke-linecap="round" stroke-linejoin="round"/>
    <path d="M 119.28839111328125 104.83700561523438 C 130.9803009033203 66.64832305908203 130.51385498046875 98.79710388183594 118.15185546875 106.24388885498047" stroke-width="3.0" fill="none" stroke="rgb(-3, 3, -3)" stroke-opacity="0.47118184" stroke-linecap="round" stroke-linejoin="round"/>
    <path d="M 146.971923828125 36.550689697265625 C 156.66116333007812 30.529443740844727 155.1888427734375 49.09545135498047 151.55160522460938 35.0662727355957" stroke-width="3.0" fill="none" stroke="rgb(0, 0, 0)" stroke-opacity="0.058953486" stroke-linecap="round" stroke-linejoin="round"/>
    <path d="M 160.3188934326172 132.0576171875 C 155.9023895263672 142.0763702392578 164.63804626464844 132.74734497070312 156.086181640625 119.9511489868164" stroke-width="3.0" fill="none" stroke="rgb(-1, 0, 0)" stroke-opacity="-0.0048564947" stroke-linecap="round" stroke-linejoin="round"/>
    <path d="M 179.31195068359375 61.435665130615234 C 161.58432006835938 -0.830592155456543 199.30322265625 32.584842681884766 198.70675659179688 54.41142654418945" stroke-width="3.0" fill="none" stroke="rgb(0, 0, 0)" stroke-opacity="0.0042084674" stroke-linecap="round" stroke-linejoin="round"/>
    <path d="M 118.56096649169922 75.33419799804688 C 123.08351135253906 35.343021392822266 108.69171142578125 65.84986114501953 168.1178741455078 65.43656921386719" stroke-width="3.0" fill="none" stroke="rgb(0, -1, 1)" stroke-opacity="0.18776043" stroke-linecap="round" stroke-linejoin="round"/>
    <path d="M 143.1658935546875 159.30126953125 C 96.38545989990234 132.7155303955078 198.2602081298828 122.11982727050781 122.00680541992188 133.81280517578125" stroke-width="3.0" fill="none" stroke="rgb(-3, 3, -3)" stroke-opacity="0.19498804" stroke-linecap="round" stroke-linejoin="round"/>
    <path d="M 79.21208190917969 87.95948028564453 C -18.82052230834961 91.82891082763672 59.62389373779297 73.44038391113281 93.04447937011719 97.55924987792969" stroke-width="3.0" fill="none" stroke="rgb(-3, 3, -3)" stroke-opacity="0.12001728" stroke-linecap="round" stroke-linejoin="round"/>
    <path d="M 160.35350036621094 181.386962890625 C 169.65855407714844 161.54978942871094 159.3794403076172 143.0634765625 163.54896545410156 158.16285705566406" stroke-width="3.0" fill="none" stroke="rgb(-2, 2, -2)" stroke-opacity="0.11491665" stroke-linecap="round" stroke-linejoin="round"/>
    <path d="M 86.98104095458984 82.06922149658203 C 99.15873718261719 116.52191162109375 66.29598236083984 105.14569854736328 97.95606231689453 108.37669372558594" stroke-width="3.0" fill="none" stroke="rgb(0, 2, -2)" stroke-opacity="0.16853955" stroke-linecap="round" stroke-linejoin="round"/>
    <path d="M 49.100433349609375 98.238525390625 C 25.999523162841797 86.13182067871094 23.883769989013672 48.304710388183594 41.644893646240234 96.12879943847656" stroke-width="3.0" fill="none" stroke="rgb(-2, 2, -2)" stroke-opacity="0.21797542" stroke-linecap="round" stroke-linejoin="round"/>
    <path d="M 181.34449768066406 31.327167510986328 C 153.3150177001953 18.979366302490234 199.1743621826172 29.682146072387695 190.8228759765625 57.8083381652832" stroke-width="3.0" fill="none" stroke="rgb(2, -2, 1)" stroke-opacity="0.104012184" stroke-linecap="round" stroke-linejoin="round"/>
    <path d="M 154.3891143798828 86.7686996459961 C 101.85015869140625 83.80644226074219 151.27732849121094 44.49997329711914 118.19270324707031 64.94635009765625" stroke-width="3.0" fill="none" stroke="rgb(0, 0, 0)" stroke-opacity="0.023195375" stroke-linecap="round" stroke-linejoin="round"/>
    <path d="M 176.4308319091797 62.645660400390625 C 157.07369995117188 67.69507598876953 164.55560302734375 69.22486877441406 139.85499572753906 60.94688415527344" stroke-width="3.0" fill="none" stroke="rgb(-3, 1, 2)" stroke-opacity="0.06927103" stroke-linecap="round" stroke-linejoin="round"/>
    <path d="M 176.16119384765625 46.311553955078125 C 170.93179321289062 57.23158264160156 112.91976928710938 56.816463470458984 124.4654312133789 28.72469711303711" stroke-width="3.0" fill="none" stroke="rgb(-1, -2, 2)" stroke-opacity="0.0684409" stroke-linecap="round" stroke-linejoin="round"/>
    <path d="M 100.90054321289062 199.3815155029297 C 110.25389099121094 203.8437042236328 105.90727996826172 157.10684204101562 101.30230712890625 202.6074676513672" stroke-width="3.0" fill="none" stroke="rgb(-1, 1, -1)" stroke-opacity="0.25888136" stroke-linecap="round" stroke-linejoin="round"/>
    <path d="M 171.78643798828125 65.61502838134766 C 73.4769058227539 18.52601432800293 128.92994689941406 74.87612915039062 174.43214416503906 65.93858337402344" stroke-width="3.0" fill="none" stroke="rgb(0, 0, 0)" stroke-opacity="0.021480093" stroke-linecap="round" stroke-linejoin="round"/>
    <path d="M 150.13363647460938 172.4550018310547 C 128.92189025878906 154.70660400390625 173.2740478515625 188.19815063476562 144.5194549560547 167.3216552734375" stroke-width="3.0" fill="none" stroke="rgb(0, 1, -1)" stroke-opacity="0.06089492" stroke-linecap="round" stroke-linejoin="round"/>
    <path d="M 105.88213348388672 123.8961181640625 C 136.38609313964844 72.86566925048828 142.6941375732422 93.2089614868164 125.85750579833984 93.05937957763672" stroke-width="3.0" fill="none" stroke="rgb(-3, 4, -4)" stroke-opacity="0.27562657" stroke-linecap="round" stroke-linejoin="round"/>
    <path d="M 146.15292358398438 143.28453063964844 C 135.99093627929688 142.0894775390625 121.85380554199219 161.2760772705078 145.8074951171875 144.22438049316406" stroke-width="3.0" fill="none" stroke="rgb(-2, 3, -3)" stroke-opacity="0.32896927" stroke-linecap="round" stroke-linejoin="round"/>
    <path d="M 83.85150909423828 77.2762222290039 C 97.03092193603516 83.19249725341797 94.09305572509766 109.0040283203125 91.2410659790039 85.18734741210938" stroke-width="3.0" fill="none" stroke="rgb(-1, 1, 0)" stroke-opacity="0.20166443" stroke-linecap="round" stroke-linejoin="round"/>
    <path d="M 94.1793212890625 93.55335998535156 C 12.158167839050293 60.964656829833984 33.58586502075195 99.228759765625 24.47369384765625 71.97004699707031" stroke-width="3.0" fill="none" stroke="rgb(-3, 3, -3)" stroke-opacity="0.10639769" stroke-linecap="round" stroke-linejoin="round"/>
    <path d="M 111.8113021850586 79.05291748046875 C 82.45823669433594 96.49466705322266 99.66239166259766 77.943359375 65.16299438476562 74.09403991699219" stroke-width="3.0" fill="none" stroke="rgb(-2, 2, -3)" stroke-opacity="0.10618091" stroke-linecap="round" stroke-linejoin="round"/>
    <path d="M 177.61416625976562 35.28849792480469 C 131.60635375976562 29.659029006958008 156.72979736328125 28.234207153320312 169.5413055419922 33.65803146362305" stroke-width="3.0" fill="none" stroke="rgb(1, 0, 0)" stroke-opacity="0.036551863" stroke-linecap="round" stroke-linejoin="round"/>
    <path d="M 120.77621459960938 132.1272430419922 C 152.18125915527344 88.3967514038086 181.10948181152344 154.3966827392578 138.51991271972656 127.84380340576172" stroke-width="3.0" fill="none" stroke="rgb(-2, 2, -2)" stroke-opacity="0.05629276" stroke-linecap="round" stroke-linejoin="round"/>
    <path d="M 182.4683837890625 60.14393997192383 C 197.4521026611328 62.41399002075195 182.79470825195312 51.54620361328125 174.5082244873047 66.6550064086914" stroke-width="3.0" fill="none" stroke="rgb(0, -3, 4)" stroke-opacity="0.22034098" stroke-linecap="round" stroke-linejoin="round"/>
    <path d="M 179.74636840820312 32.546504974365234 C 70.48822021484375 34.95615005493164 120.57408905029297 16.184141159057617 176.35235595703125 41.533748626708984" stroke-width="3.0" fill="none" stroke="rgb(2, -3, 0)" stroke-opacity="0.051739488" stroke-linecap="round" stroke-linejoin="round"/>
    <path d="M 85.15013885498047 103.65213775634766 C 13.303339004516602 88.0526351928711 81.47803497314453 108.85131072998047 87.19866180419922 104.9923324584961" stroke-width="3.0" fill="none" stroke="rgb(-3, 3, -3)" stroke-opacity="0.23091672" stroke-linecap="round" stroke-linejoin="round"/>
    <path d="M 129.9488067626953 36.04021072387695 C 141.2036895751953 53.33817672729492 171.67442321777344 52.87776184082031 169.7777099609375 43.70998764038086" stroke-width="3.0" fill="none" stroke="rgb(-2, 0, 2)" stroke-opacity="0.08681135" stroke-linecap="round" stroke-linejoin="round"/>
    <path d="M 117.87640380859375 163.1594696044922 C 39.80061340332031 174.63296508789062 132.0973358154297 180.88751220703125 86.93251037597656 169.358154296875" stroke-width="3.0" fill="none" stroke="rgb(-4, 3, -2)" stroke-opacity="0.19532011" stroke-linecap="round" stroke-linejoin="round"/>
    <path d="M 104.1171646118164 194.7355194091797 C 101.8374252319336 152.77821350097656 61.760372161865234 179.25401306152344 86.98954010009766 194.87648010253906" stroke-width="3.0" fill="none" stroke="rgb(-1, 1, -1)" stroke-opacity="0.20689698" stroke-linecap="round" stroke-linejoin="round"/>
    <path d="M 116.24562072753906 162.8350067138672 C 142.7659912109375 189.14950561523438 122.43576049804688 182.32284545898438 119.04742431640625 199.7714385986328" stroke-width="3.0" fill="none" stroke="rgb(-2, 3, -3)" stroke-opacity="0.22116034" stroke-linecap="round" stroke-linejoin="round"/>
    <path d="M 135.5966033935547 52.10122299194336 C 146.81375122070312 58.58052444458008 158.02127075195312 58.95793914794922 169.96731567382812 57.106788635253906" stroke-width="3.0" fill="none" stroke="rgb(-3, 1, 3)" stroke-opacity="0.19946745" stroke-linecap="round" stroke-linejoin="round"/>
    <path d="M 179.30154418945312 39.530548095703125 C 109.50575256347656 29.136123657226562 124.61481475830078 36.0867919921875 115.2375717163086 41.78268814086914" stroke-width="3.0" fill="none" stroke="rgb(0, -1, 1)" stroke-opacity="0.022535084" stroke-linecap="round" stroke-linejoin="round"/>
    <path d="M 143.54261779785156 145.49940490722656 C 159.5638427734375 183.9464874267578 169.11221313476562 181.08047485351562 166.97012329101562 179.5321807861328" stroke-width="3.0" fill="none" stroke="rgb(-1, 1, 0)" stroke-opacity="0.04383066" stroke-linecap="round" stroke-linejoin="round"/>
    <path d="M 36.780799865722656 69.29312133789062 C 75.29890441894531 73.45085906982422 72.40736389160156 69.56859588623047 81.89877319335938 77.2331771850586" stroke-width="3.0" fill="none" stroke="rgb(-2, 2, -2)" stroke-opacity="0.25046358" stroke-linecap="round" stroke-linejoin="round"/>
    <path d="M 93.97288513183594 189.34519958496094 C 56.93183135986328 139.94090270996094 128.42886352539062 238.00656127929688 82.06757354736328 180.2986297607422" stroke-width="3.0" fill="none" stroke="rgb(-3, 3, -2)" stroke-opacity="0.09874013" stroke-linecap="round" stroke-linejoin="round"/>
    <path d="M 96.6994857788086 204.58160400390625 C 96.44696044921875 199.2353973388672 98.26642608642578 163.48403930664062 127.77108764648438 175.32598876953125" stroke-width="3.0" fill="none" stroke="rgb(-2, 2, -1)" stroke-opacity="0.10318146" stroke-linecap="round" stroke-linejoin="round"/>
    <path d="M 136.22056579589844 156.64077758789062 C 163.9768524169922 148.2577362060547 153.26637268066406 211.3362579345703 162.26014709472656 153.85470581054688" stroke-width="3.0" fill="none" stroke="rgb(-1, 1, -1)" stroke-opacity="0.057005905" stroke-linecap="round" stroke-linejoin="round"/>
    <path d="M 176.85336303710938 42.5781364440918 C 181.0097198486328 65.9922103881836 122.40502166748047 41.734859466552734 143.06234741210938 37.45765686035156" stroke-width="3.0" fill="none" stroke="rgb(0, 0, 1)" stroke-opacity="0.046238277" stroke-linecap="round" stroke-linejoin="round"/>
    <path d="M 41.234642028808594 90.47035217285156 C 57.44633483886719 93.6836929321289 3.8796439170837402 69.64404296875 32.16326141357422 63.69306945800781" stroke-width="3.0" fill="none" stroke="rgb(0, 0, -1)" stroke-opacity="0.009080484" stroke-linecap="round" stroke-linejoin="round"/>
    <path d="M 76.71468353271484 141.01258850097656 C 99.20343780517578 175.32630920410156 52.6163444519043 155.0770721435547 81.71470642089844 159.5984344482422" stroke-width="3.0" fill="none" stroke="rgb(-2, 2, -2)" stroke-opacity="0.25815988" stroke-linecap="round" stroke-linejoin="round"/>
    <path d="M 188.54193115234375 62.30950164794922 C 182.73046875 57.11600875854492 194.72848510742188 62.87715530395508 184.77745056152344 59.612159729003906" stroke-width="3.0" fill="none" stroke="rgb(2, -3, 1)" stroke-opacity="0.23966897" stroke-linecap="round" stroke-linejoin="round"/>
    <path d="M 178.11033630371094 46.4157829284668 C 166.9495391845703 21.600324630737305 190.46026611328125 61.42904281616211 171.6035614013672 45.59011459350586" stroke-width="3.0" fill="none" stroke="rgb(0, 0, 0)" stroke-opacity="0.038844045" stroke-linecap="round" stroke-linejoin="round"/>
    <path d="M 182.50302124023438 80.97835540771484 C 171.91775512695312 76.74114990234375 169.93966674804688 100.674560546875 127.71649932861328 84.09407043457031" stroke-width="3.0" fill="none" stroke="rgb(0, -1, 1)" stroke-opacity="0.17435585" stroke-linecap="round" stroke-linejoin="round"/>
  </g>
</svg>
