<?xml version="1.0" ?>
<svg xmlns="http://www.w3.org/2000/svg" version="1.1" width="224" height="224">
  <defs/>
  <g>
    <path d="M 80.99967193603516 70.99989318847656 C 74.4123764038086 66.77970123291016 71.30113983154297 63.868980407714844 74.37256622314453 69.35175323486328" stroke-width="3.0" fill="none" stroke="rgb(-2, -2, -2)" stroke-opacity="1.0099972" stroke-linecap="round" stroke-linejoin="round"/>
    <path d="M 204.00006103515625 195.99993896484375 C 200.51318359375 193.220947265625 200.4063262939453 191.96766662597656 203.1701202392578 196.62672424316406" stroke-width="3.0" fill="none" stroke="rgb(2, 2, 2)" stroke-opacity="0.99000007" stroke-linecap="round" stroke-linejoin="round"/>
    <path d="M 28.999752044677734 74.99990844726562 C 31.69493865966797 78.02165222167969 32.245033264160156 75.24263000488281 33.871158599853516 76.52899169921875" stroke-width="3.0" fill="none" stroke="rgb(2, 2, 2)" stroke-opacity="0.99000007" stroke-linecap="round" stroke-linejoin="round"/>
    <path d="M 43.99991989135742 148.0000762939453 C 42.43484115600586 146.53564453125 47.3621711730957 144.10794067382812 45.52571105957031 150.08615112304688" stroke-width="3.0" fill="none" stroke="rgb(2, 2, 2)" stroke-opacity="0.9900001" stroke-linecap="round" stroke-linejoin="round"/>
    <path d="M 48.99991989135742 197.00006103515625 C 49.663177490234375 191.8213348388672 52.057186126708984 195.49319458007812 57.65483856201172 193.57846069335938" stroke-width="3.0" fill="none" stroke="rgb(2, 2, -2)" stroke-opacity="0.99" stroke-linecap="round" stroke-linejoin="round"/>
    <path d="M 75.00004577636719 146.99981689453125 C 80.68766021728516 146.60069274902344 78.588134765625 142.089111328125 74.2018051147461 143.1121368408203" stroke-width="3.0" fill="none" stroke="rgb(2, 2, -2)" stroke-opacity="0.99000007" stroke-linecap="round" stroke-linejoin="round"/>
    <path d="M 16.00016212463379 212.99929809570312 C 13.162344932556152 213.67323303222656 7.583352565765381 218.94854736328125 10.314409255981445 217.5399169921875" stroke-width="3.0" fill="none" stroke="rgb(2, 2, -2)" stroke-opacity="0.99000007" stroke-linecap="round" stroke-linejoin="round"/>
    <path d="M 22.000164031982422 57.99990463256836 C 21.028249740600586 57.22294998168945 21.123455047607422 57.565067291259766 19.28707504272461 58.88697052001953" stroke-width="3.0" fill="none" stroke="rgb(2, 2, 2)" stroke-opacity="0.99000007" stroke-linecap="round" stroke-linejoin="round"/>
    <path d="M 76.99988555908203 1.9951485395431519 C 76.08348083496094 5.819104194641113 76.935791015625 6.618856430053711 79.5660629272461 10.13299560546875" stroke-width="3.0" fill="none" stroke="rgb(2, 2, 2)" stroke-opacity="0.99" stroke-linecap="round" stroke-linejoin="round"/>
    <path d="M 55.99991226196289 181.00042724609375 C 56.72176742553711 186.49649047851562 59.277793884277344 187.98745727539062 56.93778610229492 186.20945739746094" stroke-width="3.0" fill="none" stroke="rgb(2, 2, 2)" stroke-opacity="0.99000007" stroke-linecap="round" stroke-linejoin="round"/>
    <path d="M 68.00009155273438 194.0000457763672 C 71.79075622558594 192.37376403808594 76.6646728515625 192.62619018554688 81.34061431884766 191.4184112548828" stroke-width="3.0" fill="none" stroke="rgb(2, 2, 2)" stroke-opacity="0.99" stroke-linecap="round" stroke-linejoin="round"/>
    <path d="M 81.00016021728516 52.99978256225586 C 87.94449615478516 52.684993743896484 80.98323059082031 52.733829498291016 81.83353424072266 53.94649887084961" stroke-width="3.0" fill="none" stroke="rgb(2, 2, -2)" stroke-opacity="0.9900002" stroke-linecap="round" stroke-linejoin="round"/>
    <path d="M 79.99967956542969 56.00063705444336 C 79.29732513427734 60.586036682128906 80.0203628540039 65.4421157836914 83.6889877319336 70.4130630493164" stroke-width="3.0" fill="none" stroke="rgb(2, 2, -2)" stroke-opacity="0.99000007" stroke-linecap="round" stroke-linejoin="round"/>
    <path d="M 1.9559063911437988 83.07337188720703 C 6.617702484130859 82.37297821044922 8.121615409851074 81.66716003417969 7.867506980895996 86.70059204101562" stroke-width="3.0" fill="none" stroke="rgb(2, 2, 2)" stroke-opacity="0.99000007" stroke-linecap="round" stroke-linejoin="round"/>
    <path d="M 111.0010757446289 196.99966430664062 C 112.671630859375 195.9741668701172 109.35111236572266 201.40431213378906 111.44674682617188 196.64276123046875" stroke-width="3.0" fill="none" stroke="rgb(2, 2, -2)" stroke-opacity="0.99000007" stroke-linecap="round" stroke-linejoin="round"/>
    <path d="M 75.00057220458984 59.999874114990234 C 72.3868637084961 58.93046951293945 67.21920013427734 56.055301666259766 67.9079818725586 56.78266906738281" stroke-width="3.0" fill="none" stroke="rgb(2, 2, -2)" stroke-opacity="0.9900001" stroke-linecap="round" stroke-linejoin="round"/>
    <path d="M 160.9998779296875 186.00025939941406 C 158.72703552246094 180.9904022216797 158.207763671875 179.53697204589844 153.117431640625 178.5203399658203" stroke-width="3.0" fill="none" stroke="rgb(2, 2, -2)" stroke-opacity="0.99000007" stroke-linecap="round" stroke-linejoin="round"/>
    <path d="M 110.0001220703125 1.9994614124298096 C 115.30992126464844 3.544721841812134 113.40641021728516 2.682368755340576 113.54623413085938 2.9255785942077637" stroke-width="3.0" fill="none" stroke="rgb(2, 2, 2)" stroke-opacity="0.99000007" stroke-linecap="round" stroke-linejoin="round"/>
    <path d="M 64.0004653930664 148.0003204345703 C 61.38383102416992 152.02322387695312 57.41316223144531 147.8092041015625 62.62288284301758 147.11692810058594" stroke-width="3.0" fill="none" stroke="rgb(2, 2, -2)" stroke-opacity="0.99000007" stroke-linecap="round" stroke-linejoin="round"/>
    <path d="M 119.00027465820312 163.00135803222656 C 125.77998352050781 167.28549194335938 129.80760192871094 164.33270263671875 130.1251983642578 168.4110107421875" stroke-width="3.0" fill="none" stroke="rgb(2, 2, 2)" stroke-opacity="0.9900001" stroke-linecap="round" stroke-linejoin="round"/>
    <path d="M 78.99976348876953 72.99980926513672 C 80.76010131835938 65.49217224121094 75.60404205322266 62.08378601074219 73.84508514404297 63.40291213989258" stroke-width="3.0" fill="none" stroke="rgb(2, 2, 2)" stroke-opacity="0.9900002" stroke-linecap="round" stroke-linejoin="round"/>
    <path d="M 82.00010681152344 71.99956512451172 C 81.50113677978516 65.57588195800781 76.61019897460938 73.08782958984375 72.6669692993164 67.58447265625" stroke-width="3.0" fill="none" stroke="rgb(2, 2, 2)" stroke-opacity="1.0099989" stroke-linecap="round" stroke-linejoin="round"/>
    <path d="M 75.00003051757812 157.0000457763672 C 70.04241180419922 161.58692932128906 72.96727752685547 164.3356475830078 69.39521026611328 161.15061950683594" stroke-width="3.0" fill="none" stroke="rgb(2, 2, 2)" stroke-opacity="0.99000007" stroke-linecap="round" stroke-linejoin="round"/>
    <path d="M 72.99993133544922 48.99964904785156 C 68.33548736572266 51.236549377441406 70.35099029541016 50.45759963989258 69.3629150390625 51.99238967895508" stroke-width="3.0" fill="none" stroke="rgb(2, 2, 2)" stroke-opacity="0.9900001" stroke-linecap="round" stroke-linejoin="round"/>
    <path d="M 155.99949645996094 107.00259399414062 C 151.94509887695312 114.10704040527344 152.34176635742188 109.5556640625 149.4711151123047 102.76026916503906" stroke-width="3.0" fill="none" stroke="rgb(2, 2, 2)" stroke-opacity="0.99000007" stroke-linecap="round" stroke-linejoin="round"/>
    <path d="M 123.00008392333984 217.00433349609375 C 127.65872192382812 220.44522094726562 123.93118286132812 222.60592651367188 122.6864013671875 224.63938903808594" stroke-width="3.0" fill="none" stroke="rgb(2, 2, -2)" stroke-opacity="0.9900001" stroke-linecap="round" stroke-linejoin="round"/>
    <path d="M 116.99938201904297 222.9994354248047 C 119.21920013427734 226.00241088867188 121.17955017089844 227.86766052246094 121.90444946289062 228.628662109375" stroke-width="3.0" fill="none" stroke="rgb(2, 2, 2)" stroke-opacity="0.9900002" stroke-linecap="round" stroke-linejoin="round"/>
    <path d="M 194.00018310546875 192.00106811523438 C 189.63621520996094 192.5033416748047 184.52040100097656 191.0502471923828 185.53759765625 193.10784912109375" stroke-width="3.0" fill="none" stroke="rgb(2, 2, 2)" stroke-opacity="0.99" stroke-linecap="round" stroke-linejoin="round"/>
    <path d="M 57.99880599975586 150.9998779296875 C 56.716468811035156 146.5623321533203 57.77660369873047 145.86468505859375 58.622711181640625 146.15538024902344" stroke-width="3.0" fill="none" stroke="rgb(2, 2, 2)" stroke-opacity="0.9900001" stroke-linecap="round" stroke-linejoin="round"/>
    <path d="M 42.999839782714844 195.00018310546875 C 42.064327239990234 199.1715545654297 41.78106689453125 194.34019470214844 36.78825759887695 190.76614379882812" stroke-width="3.0" fill="none" stroke="rgb(2, 2, 2)" stroke-opacity="0.99" stroke-linecap="round" stroke-linejoin="round"/>
    <path d="M 49.000282287597656 122.00006103515625 C 44.81991958618164 125.74816131591797 39.39079284667969 120.86579895019531 38.43159103393555 119.05518341064453" stroke-width="3.0" fill="none" stroke="rgb(2, 2, -2)" stroke-opacity="0.99" stroke-linecap="round" stroke-linejoin="round"/>
    <path d="M 69.99974822998047 61.99993133544922 C 63.537193298339844 64.60285949707031 59.25580978393555 60.993404388427734 61.61003494262695 55.425331115722656" stroke-width="3.0" fill="none" stroke="rgb(2, 2, -2)" stroke-opacity="0.9900001" stroke-linecap="round" stroke-linejoin="round"/>
    <path d="M 7.0002875328063965 73.00038146972656 C 7.347682952880859 77.4020004272461 10.292447090148926 75.46541595458984 15.289325714111328 72.63861846923828" stroke-width="3.0" fill="none" stroke="rgb(2, 2, 2)" stroke-opacity="0.99000025" stroke-linecap="round" stroke-linejoin="round"/>
    <path d="M 87.0000991821289 47.0002555847168 C 91.64543914794922 52.081382751464844 93.16101837158203 51.044193267822266 92.11689758300781 56.40829849243164" stroke-width="3.0" fill="none" stroke="rgb(2, 2, 2)" stroke-opacity="0.9900001" stroke-linecap="round" stroke-linejoin="round"/>
    <path d="M 9.99804401397705 76.00109100341797 C 11.766315460205078 73.45819091796875 8.208267211914062 71.8113784790039 5.511882781982422 73.03656005859375" stroke-width="3.0" fill="none" stroke="rgb(2, 2, 2)" stroke-opacity="0.9900002" stroke-linecap="round" stroke-linejoin="round"/>
    <path d="M 12.000236511230469 77.99980163574219 C 18.182411193847656 72.59727478027344 13.86307430267334 73.08064270019531 11.669530868530273 71.7068099975586" stroke-width="3.0" fill="none" stroke="rgb(2, 2, 2)" stroke-opacity="0.9900001" stroke-linecap="round" stroke-linejoin="round"/>
    <path d="M 67.00019836425781 159.00025939941406 C 69.92269897460938 159.70123291015625 66.40230560302734 163.21383666992188 63.49897003173828 167.55459594726562" stroke-width="3.0" fill="none" stroke="rgb(2, 2, -2)" stroke-opacity="0.9900002" stroke-linecap="round" stroke-linejoin="round"/>
    <path d="M 123.99943542480469 217.99925231933594 C 125.02950286865234 219.38194274902344 120.77998352050781 224.07313537597656 121.85553741455078 223.14910888671875" stroke-width="3.0" fill="none" stroke="rgb(2, 2, 2)" stroke-opacity="0.9900001" stroke-linecap="round" stroke-linejoin="round"/>
    <path d="M 69.00011444091797 57.000205993652344 C 66.0073013305664 62.36315155029297 70.44763946533203 58.980224609375 74.28409576416016 59.82950973510742" stroke-width="3.0" fill="none" stroke="rgb(2, 2, 2)" stroke-opacity="0.9900003" stroke-linecap="round" stroke-linejoin="round"/>
    <path d="M 38.99958038330078 154.00228881835938 C 33.56119918823242 151.74497985839844 37.00617218017578 151.78013610839844 39.75390625 152.061767578125" stroke-width="3.0" fill="none" stroke="rgb(2, -2, 2)" stroke-opacity="0.9900001" stroke-linecap="round" stroke-linejoin="round"/>
    <path d="M 2.0001509189605713 61.99931716918945 C 2.4708189964294434 62.92119598388672 1.4143638610839844 59.57283401489258 4.070619583129883 56.93003845214844" stroke-width="3.0" fill="none" stroke="rgb(2, 2, 2)" stroke-opacity="0.99000007" stroke-linecap="round" stroke-linejoin="round"/>
    <path d="M 179.99961853027344 188.9999237060547 C 174.26722717285156 191.8359832763672 175.72982788085938 189.64512634277344 175.68174743652344 189.51986694335938" stroke-width="3.0" fill="none" stroke="rgb(2, 2, 2)" stroke-opacity="0.99000007" stroke-linecap="round" stroke-linejoin="round"/>
    <path d="M 103.99993896484375 204.99900817871094 C 103.09088134765625 208.81434631347656 105.80912017822266 210.91281127929688 109.79988098144531 214.16517639160156" stroke-width="3.0" fill="none" stroke="rgb(2, 2, 2)" stroke-opacity="0.99" stroke-linecap="round" stroke-linejoin="round"/>
    <path d="M 64.99969482421875 219.99989318847656 C 68.08572387695312 214.94638061523438 67.7084732055664 211.7163848876953 63.889488220214844 212.474853515625" stroke-width="3.0" fill="none" stroke="rgb(2, 2, 2)" stroke-opacity="0.99000007" stroke-linecap="round" stroke-linejoin="round"/>
    <path d="M 170.9993133544922 203.99929809570312 C 166.8620147705078 207.12965393066406 169.7451629638672 209.16482543945312 167.43081665039062 213.87063598632812" stroke-width="3.0" fill="none" stroke="rgb(2, 2, 2)" stroke-opacity="0.99000007" stroke-linecap="round" stroke-linejoin="round"/>
    <path d="M 211.00308227539062 201.00010681152344 C 209.1136932373047 197.9866485595703 203.8955078125 200.43267822265625 199.9927215576172 196.7779083251953" stroke-width="3.0" fill="none" stroke="rgb(2, 2, 2)" stroke-opacity="0.99000007" stroke-linecap="round" stroke-linejoin="round"/>
    <path d="M 66.99961853027344 153.99932861328125 C 70.00199127197266 148.7406768798828 70.11846923828125 142.87644958496094 76.4046401977539 141.91339111328125" stroke-width="3.0" fill="none" stroke="rgb(2, 2, 2)" stroke-opacity="0.99000007" stroke-linecap="round" stroke-linejoin="round"/>
    <path d="M 95.00003814697266 203.00009155273438 C 94.41897583007812 204.99977111816406 89.0031967163086 208.84727478027344 92.55855560302734 208.6132049560547" stroke-width="3.0" fill="none" stroke="rgb(2, 2, 2)" stroke-opacity="0.99000007" stroke-linecap="round" stroke-linejoin="round"/>
    <path d="M 67.00013732910156 122.00015258789062 C 72.22811126708984 119.41728210449219 76.1104507446289 116.90975189208984 79.08911895751953 118.11734771728516" stroke-width="3.0" fill="none" stroke="rgb(2, 2, 2)" stroke-opacity="0.99" stroke-linecap="round" stroke-linejoin="round"/>
    <path d="M 5.9998273849487305 85.99995422363281 C 1.8530560731887817 86.31584930419922 -2.2602291107177734 89.28795623779297 -4.445274829864502 87.15474700927734" stroke-width="3.0" fill="none" stroke="rgb(2, 2, 2)" stroke-opacity="0.9900013" stroke-linecap="round" stroke-linejoin="round"/>
    <path d="M 41.000064849853516 135.9999542236328 C 38.18427658081055 134.93377685546875 34.636924743652344 135.78216552734375 31.079784393310547 140.1112823486328" stroke-width="3.0" fill="none" stroke="rgb(2, 2, -2)" stroke-opacity="0.99000007" stroke-linecap="round" stroke-linejoin="round"/>
    <path d="M 79.99991607666016 149.99974060058594 C 81.90824890136719 152.7748565673828 79.82388305664062 150.8538818359375 73.95909881591797 151.0694122314453" stroke-width="3.0" fill="none" stroke="rgb(2, -2, -2)" stroke-opacity="0.99000037" stroke-linecap="round" stroke-linejoin="round"/>
    <path d="M 123.00041961669922 169.99993896484375 C 128.5662384033203 163.41085815429688 131.79994201660156 167.8025360107422 130.22940063476562 170.9262237548828" stroke-width="3.0" fill="none" stroke="rgb(2, 2, -2)" stroke-opacity="1.0099969" stroke-linecap="round" stroke-linejoin="round"/>
    <path d="M 44.99977493286133 220.00013732910156 C 50.140907287597656 218.49632263183594 53.49308395385742 218.93946838378906 52.225337982177734 217.59425354003906" stroke-width="3.0" fill="none" stroke="rgb(2, 2, 2)" stroke-opacity="0.99" stroke-linecap="round" stroke-linejoin="round"/>
    <path d="M 34.00006103515625 147.99986267089844 C 30.445343017578125 142.7539825439453 32.52344512939453 137.33377075195312 35.58464050292969 134.59661865234375" stroke-width="3.0" fill="none" stroke="rgb(2, 2, -2)" stroke-opacity="0.99000007" stroke-linecap="round" stroke-linejoin="round"/>
    <path d="M 42.999717712402344 203.0000457763672 C 43.83439636230469 204.0447235107422 46.993614196777344 205.6759033203125 41.68061447143555 201.19708251953125" stroke-width="3.0" fill="none" stroke="rgb(2, 2, -2)" stroke-opacity="0.99000007" stroke-linecap="round" stroke-linejoin="round"/>
    <path d="M 28.999853134155273 66.00101470947266 C 28.15805435180664 71.44354248046875 28.27047348022461 72.79234313964844 31.284652709960938 75.16841888427734" stroke-width="3.0" fill="none" stroke="rgb(2, 2, 2)" stroke-opacity="0.99000007" stroke-linecap="round" stroke-linejoin="round"/>
    <path d="M 77.99987030029297 50.99965286254883 C 81.34290313720703 53.96609115600586 76.59147644042969 58.279605865478516 75.12008666992188 60.369468688964844" stroke-width="3.0" fill="none" stroke="rgb(2, 2, -2)" stroke-opacity="0.99000007" stroke-linecap="round" stroke-linejoin="round"/>
    <path d="M 73.00550079345703 132.0000457763672 C 77.20435333251953 127.96453094482422 80.37472534179688 126.4012451171875 82.32795715332031 128.9132080078125" stroke-width="3.0" fill="none" stroke="rgb(2, 2, -2)" stroke-opacity="0.99" stroke-linecap="round" stroke-linejoin="round"/>
    <path d="M 85.99968719482422 70.99838256835938 C 83.7272720336914 70.94441223144531 88.1829605102539 74.07473754882812 83.58973693847656 68.7978744506836" stroke-width="3.0" fill="none" stroke="rgb(-2, 2, 2)" stroke-opacity="0.9900026" stroke-linecap="round" stroke-linejoin="round"/>
    <path d="M 10.003206253051758 214.9996795654297 C 15.168377876281738 207.93247985839844 12.880456924438477 209.0839080810547 7.9481658935546875 209.47842407226562" stroke-width="3.0" fill="none" stroke="rgb(2, 2, 2)" stroke-opacity="0.99000007" stroke-linecap="round" stroke-linejoin="round"/>
    <path d="M 55.99985885620117 204.00010681152344 C 54.606285095214844 202.14141845703125 56.37318801879883 206.41297912597656 57.63081741333008 204.14683532714844" stroke-width="3.0" fill="none" stroke="rgb(2, 2, 2)" stroke-opacity="0.99000007" stroke-linecap="round" stroke-linejoin="round"/>
    <path d="M 69.66576385498047 72.65019989013672 C 68.95518493652344 72.62096405029297 73.67790985107422 73.76913452148438 66.3833236694336 76.30908966064453" stroke-width="3.0" fill="none" stroke="rgb(2, -2, 2)" stroke-opacity="0.99000067" stroke-linecap="round" stroke-linejoin="round"/>
    <path d="M 70.00022888183594 53.000160217285156 C 76.16532897949219 54.75397491455078 72.3106460571289 48.00838851928711 70.91303253173828 44.693790435791016" stroke-width="3.0" fill="none" stroke="rgb(2, 2, -2)" stroke-opacity="0.99000007" stroke-linecap="round" stroke-linejoin="round"/>
    <path d="M 168.99981689453125 182.99961853027344 C 171.86061096191406 184.6140594482422 168.626220703125 187.29078674316406 162.93179321289062 187.68551635742188" stroke-width="3.0" fill="none" stroke="rgb(2, 2, 2)" stroke-opacity="0.99000007" stroke-linecap="round" stroke-linejoin="round"/>
    <path d="M 59.99991989135742 169.99989318847656 C 63.290687561035156 164.6520233154297 68.65441131591797 161.30087280273438 66.49561309814453 159.452880859375" stroke-width="3.0" fill="none" stroke="rgb(2, 2, -2)" stroke-opacity="0.9900001" stroke-linecap="round" stroke-linejoin="round"/>
    <path d="M 158.0001220703125 108.99996185302734 C 164.8590545654297 111.39652252197266 165.33096313476562 116.98373413085938 165.61456298828125 119.23282623291016" stroke-width="3.0" fill="none" stroke="rgb(2, 2, 2)" stroke-opacity="0.99" stroke-linecap="round" stroke-linejoin="round"/>
    <path d="M 57.00014877319336 168.00013732910156 C 53.08329772949219 172.0735626220703 52.755130767822266 169.5530242919922 55.665340423583984 172.4401397705078" stroke-width="3.0" fill="none" stroke="rgb(2, 2, -2)" stroke-opacity="0.990001" stroke-linecap="round" stroke-linejoin="round"/>
    <path d="M 67.00009155273438 73.9972152709961 C 71.47577667236328 71.46420288085938 75.76509857177734 72.0916519165039 79.85772705078125 70.1076431274414" stroke-width="3.0" fill="none" stroke="rgb(2, 2, -2)" stroke-opacity="0.99000096" stroke-linecap="round" stroke-linejoin="round"/>
    <path d="M 80.99994659423828 139.99986267089844 C 82.62596130371094 137.01470947265625 80.04991912841797 136.3048553466797 80.5528564453125 136.54563903808594" stroke-width="3.0" fill="none" stroke="rgb(2, 2, -2)" stroke-opacity="0.99000007" stroke-linecap="round" stroke-linejoin="round"/>
    <path d="M 63.00014114379883 42.9998779296875 C 61.74066162109375 42.270233154296875 62.07832717895508 45.825584411621094 57.995357513427734 49.24427795410156" stroke-width="3.0" fill="none" stroke="rgb(2, 2, 2)" stroke-opacity="0.99000007" stroke-linecap="round" stroke-linejoin="round"/>
    <path d="M 124.0005111694336 167.9994659423828 C 127.6417007446289 173.57888793945312 131.3657989501953 176.53810119628906 136.29873657226562 178.60400390625" stroke-width="3.0" fill="none" stroke="rgb(2, 2, 2)" stroke-opacity="0.99000007" stroke-linecap="round" stroke-linejoin="round"/>
    <path d="M 42.000091552734375 127.00015258789062 C 42.28235626220703 126.04032135009766 38.18201446533203 124.63452911376953 38.92845153808594 131.8080291748047" stroke-width="3.0" fill="none" stroke="rgb(2, 2, -2)" stroke-opacity="0.99000007" stroke-linecap="round" stroke-linejoin="round"/>
    <path d="M 57.99989318847656 126.99988555908203 C 54.386756896972656 124.02312469482422 55.295433044433594 126.30368041992188 57.88444137573242 133.6352996826172" stroke-width="3.0" fill="none" stroke="rgb(2, 2, 2)" stroke-opacity="0.99000007" stroke-linecap="round" stroke-linejoin="round"/>
    <path d="M 11.999961853027344 202.0001220703125 C 11.522513389587402 204.30625915527344 13.388528823852539 206.9895477294922 13.215730667114258 205.69915771484375" stroke-width="3.0" fill="none" stroke="rgb(2, 2, 2)" stroke-opacity="0.99000007" stroke-linecap="round" stroke-linejoin="round"/>
    <path d="M 197.00106811523438 198.99981689453125 C 201.25137329101562 197.44947814941406 204.7463836669922 200.68678283691406 198.6708221435547 193.76956176757812" stroke-width="3.0" fill="none" stroke="rgb(2, 2, 2)" stroke-opacity="0.99000055" stroke-linecap="round" stroke-linejoin="round"/>
    <path d="M 51.999935150146484 170.9998016357422 C 56.04234313964844 168.18898010253906 59.97508239746094 164.87847900390625 56.488712310791016 161.01528930664062" stroke-width="3.0" fill="none" stroke="rgb(2, 2, -2)" stroke-opacity="0.9900002" stroke-linecap="round" stroke-linejoin="round"/>
    <path d="M 9.998926162719727 52.9998664855957 C 4.63474178314209 48.38721466064453 6.302125453948975 53.692420959472656 7.91801643371582 58.84628677368164" stroke-width="3.0" fill="none" stroke="rgb(2, 2, 2)" stroke-opacity="0.99000007" stroke-linecap="round" stroke-linejoin="round"/>
    <path d="M 64.99990844726562 57.00011444091797 C 66.98098754882812 60.410701751708984 68.6343002319336 61.68353271484375 67.93919372558594 68.52717590332031" stroke-width="3.0" fill="none" stroke="rgb(2, 2, 2)" stroke-opacity="0.9900001" stroke-linecap="round" stroke-linejoin="round"/>
    <path d="M 153.0000457763672 101.9998779296875 C 147.91844177246094 102.83453369140625 151.70916748046875 105.01976776123047 151.55081176757812 108.35962677001953" stroke-width="3.0" fill="none" stroke="rgb(2, 2, 2)" stroke-opacity="0.99000007" stroke-linecap="round" stroke-linejoin="round"/>
    <path d="M 46.00044250488281 163.00006103515625 C 51.68769836425781 164.27658081054688 54.639163970947266 169.48983764648438 59.79511260986328 173.04437255859375" stroke-width="3.0" fill="none" stroke="rgb(2, 2, -2)" stroke-opacity="0.9900001" stroke-linecap="round" stroke-linejoin="round"/>
    <path d="M 89.0001220703125 48.99988555908203 C 87.82689666748047 48.1619873046875 89.2872314453125 53.60036087036133 82.1883773803711 55.737178802490234" stroke-width="3.0" fill="none" stroke="rgb(2, 2, 2)" stroke-opacity="0.9900002" stroke-linecap="round" stroke-linejoin="round"/>
    <path d="M 58.00025939941406 69.99969482421875 C 62.36640167236328 74.19104766845703 59.21480941772461 67.74898529052734 57.110557556152344 65.22469329833984" stroke-width="3.0" fill="none" stroke="rgb(2, 2, 2)" stroke-opacity="0.99000007" stroke-linecap="round" stroke-linejoin="round"/>
    <path d="M 18.999832153320312 87.9990234375 C 18.349571228027344 89.18958282470703 16.856700897216797 84.66132354736328 18.99277114868164 79.44960021972656" stroke-width="3.0" fill="none" stroke="rgb(2, -2, 2)" stroke-opacity="0.9900006" stroke-linecap="round" stroke-linejoin="round"/>
    <path d="M 116.99846649169922 183.00013732910156 C 119.67195892333984 177.47776794433594 120.50929260253906 176.91775512695312 118.76527404785156 176.2270050048828" stroke-width="3.0" fill="none" stroke="rgb(2, 2, 2)" stroke-opacity="0.99000007" stroke-linecap="round" stroke-linejoin="round"/>
    <path d="M 18.999492645263672 200.0005340576172 C 22.331932067871094 199.63462829589844 20.382169723510742 203.07177734375 22.833757400512695 200.40966796875" stroke-width="3.0" fill="none" stroke="rgb(2, 2, 2)" stroke-opacity="0.99000007" stroke-linecap="round" stroke-linejoin="round"/>
    <path d="M 57.00049591064453 176.00299072265625 C 54.00480651855469 178.84507751464844 52.62318420410156 182.4606475830078 55.04500198364258 176.91712951660156" stroke-width="3.0" fill="none" stroke="rgb(-2, 2, 2)" stroke-opacity="0.9900002" stroke-linecap="round" stroke-linejoin="round"/>
    <path d="M 0.010268226265907288 82.0040283203125 C -3.361398696899414 83.6605224609375 -0.35021549463272095 80.39720916748047 5.932816028594971 80.45156860351562" stroke-width="3.0" fill="none" stroke="rgb(2, 2, 2)" stroke-opacity="0.9900002" stroke-linecap="round" stroke-linejoin="round"/>
    <path d="M 49.00010681152344 161.00010681152344 C 50.51976776123047 164.08404541015625 51.38917922973633 162.6565704345703 52.78544235229492 162.3984832763672" stroke-width="3.0" fill="none" stroke="rgb(2, 2, 2)" stroke-opacity="0.99000007" stroke-linecap="round" stroke-linejoin="round"/>
    <path d="M 143.0032501220703 187.9999542236328 C 140.38381958007812 190.18276977539062 135.94705200195312 190.08396911621094 140.73626708984375 189.10452270507812" stroke-width="3.0" fill="none" stroke="rgb(2, 2, 2)" stroke-opacity="0.99000007" stroke-linecap="round" stroke-linejoin="round"/>
    <path d="M 168.9990234375 217.00027465820312 C 171.94720458984375 212.18753051757812 177.69577026367188 214.99253845214844 172.48721313476562 216.6676025390625" stroke-width="3.0" fill="none" stroke="rgb(2, 2, 2)" stroke-opacity="0.99000007" stroke-linecap="round" stroke-linejoin="round"/>
    <path d="M 12.999528884887695 79.00032043457031 C 16.50838851928711 82.66997528076172 17.898712158203125 78.8167724609375 13.288557052612305 78.57722473144531" stroke-width="3.0" fill="none" stroke="rgb(2, 2, 2)" stroke-opacity="0.99000007" stroke-linecap="round" stroke-linejoin="round"/>
    <path d="M 67.99993133544922 78.00032806396484 C 68.85749053955078 79.75750732421875 73.81279754638672 77.36087799072266 72.88298797607422 76.5948257446289" stroke-width="3.0" fill="none" stroke="rgb(2, -2, 2)" stroke-opacity="0.9900007" stroke-linecap="round" stroke-linejoin="round"/>
    <path d="M 43.99978256225586 161.99974060058594 C 39.73271942138672 160.6868438720703 35.79692077636719 156.92762756347656 40.556915283203125 153.4502716064453" stroke-width="3.0" fill="none" stroke="rgb(2, 2, 2)" stroke-opacity="0.99000007" stroke-linecap="round" stroke-linejoin="round"/>
    <path d="M -0.9737343192100525 85.01216125488281 C -2.1643388271331787 88.95093536376953 0.8309040069580078 87.6273422241211 3.620220184326172 91.70096588134766" stroke-width="3.0" fill="none" stroke="rgb(2, 2, -2)" stroke-opacity="0.9900002" stroke-linecap="round" stroke-linejoin="round"/>
    <path d="M 19.998647689819336 60.00044250488281 C 23.389911651611328 60.31536865234375 21.030521392822266 58.506465911865234 24.809940338134766 61.53077697753906" stroke-width="3.0" fill="none" stroke="rgb(2, 2, -2)" stroke-opacity="0.9900002" stroke-linecap="round" stroke-linejoin="round"/>
    <path d="M 41.99968719482422 142.99972534179688 C 36.632423400878906 144.1779022216797 34.8629264831543 143.56617736816406 34.220375061035156 150.66275024414062" stroke-width="3.0" fill="none" stroke="rgb(2, 2, 2)" stroke-opacity="0.99000007" stroke-linecap="round" stroke-linejoin="round"/>
    <path d="M 132.00009155273438 179.9998321533203 C 133.36837768554688 182.92462158203125 129.1462860107422 184.47735595703125 131.90956115722656 186.30230712890625" stroke-width="3.0" fill="none" stroke="rgb(2, 2, -2)" stroke-opacity="0.99000007" stroke-linecap="round" stroke-linejoin="round"/>
    <path d="M 64.997802734375 58.00136947631836 C 61.38100814819336 55.09642791748047 57.799983978271484 58.49775695800781 60.595645904541016 62.232669830322266" stroke-width="3.0" fill="none" stroke="rgb(2, 2, 2)" stroke-opacity="0.99000007" stroke-linecap="round" stroke-linejoin="round"/>
    <path d="M 55.000091552734375 182.9999237060547 C 60.06848907470703 185.4239044189453 62.33292007446289 190.072509765625 66.62197875976562 194.61219787597656" stroke-width="3.0" fill="none" stroke="rgb(2, 2, 2)" stroke-opacity="0.99" stroke-linecap="round" stroke-linejoin="round"/>
    <path d="M 122.0000991821289 159.99920654296875 C 127.80055236816406 157.0403594970703 124.65628814697266 155.56976318359375 123.73745727539062 157.65821838378906" stroke-width="3.0" fill="none" stroke="rgb(2, 2, -2)" stroke-opacity="0.99000007" stroke-linecap="round" stroke-linejoin="round"/>
    <path d="M 68.00032043457031 143.00022888183594 C 63.647640228271484 145.91871643066406 68.32730102539062 146.6737518310547 70.6240005493164 143.87411499023438" stroke-width="3.0" fill="none" stroke="rgb(2, 2, 2)" stroke-opacity="0.9900001" stroke-linecap="round" stroke-linejoin="round"/>
    <path d="M 136.9999237060547 168.00009155273438 C 140.17282104492188 162.95838928222656 143.3184051513672 159.46878051757812 143.84657287597656 156.47108459472656" stroke-width="3.0" fill="none" stroke="rgb(2, 2, -2)" stroke-opacity="0.99" stroke-linecap="round" stroke-linejoin="round"/>
    <path d="M 100.99979400634766 182.9998321533203 C 103.77349090576172 187.85452270507812 101.68074798583984 183.05551147460938 103.70600891113281 179.45819091796875" stroke-width="3.0" fill="none" stroke="rgb(2, 2, 2)" stroke-opacity="0.99000007" stroke-linecap="round" stroke-linejoin="round"/>
    <path d="M 18.998191833496094 84.99871826171875 C 11.561369895935059 84.04572296142578 14.14737606048584 88.76168060302734 17.073612213134766 84.3532943725586" stroke-width="3.0" fill="none" stroke="rgb(2, 2, 2)" stroke-opacity="0.99000025" stroke-linecap="round" stroke-linejoin="round"/>
    <path d="M 20.999847412109375 69.00099182128906 C 22.520856857299805 71.22447967529297 24.744449615478516 66.7841796875 24.60917091369629 69.34185028076172" stroke-width="3.0" fill="none" stroke="rgb(2, 2, 2)" stroke-opacity="0.99000007" stroke-linecap="round" stroke-linejoin="round"/>
    <path d="M 152.00042724609375 213.00025939941406 C 155.14500427246094 212.9640350341797 150.2213897705078 218.23828125 151.046142578125 215.0173797607422" stroke-width="3.0" fill="none" stroke="rgb(2, 2, -2)" stroke-opacity="0.99000007" stroke-linecap="round" stroke-linejoin="round"/>
    <path d="M 97.9999771118164 102.00010681152344 C 94.42576599121094 98.1241455078125 99.64543151855469 93.73483276367188 100.46934509277344 92.72710418701172" stroke-width="3.0" fill="none" stroke="rgb(2, 2, -2)" stroke-opacity="0.99" stroke-linecap="round" stroke-linejoin="round"/>
    <path d="M 66.00044250488281 145.00108337402344 C 63.55699157714844 148.992919921875 61.087337493896484 152.48965454101562 66.15589904785156 157.97833251953125" stroke-width="3.0" fill="none" stroke="rgb(2, 2, 2)" stroke-opacity="0.99000007" stroke-linecap="round" stroke-linejoin="round"/>
    <path d="M 76.00070190429688 74.00055694580078 C 76.25609588623047 70.23921966552734 77.07075500488281 72.11080169677734 74.15062713623047 74.63075256347656" stroke-width="3.0" fill="none" stroke="rgb(2, 2, -2)" stroke-opacity="0.9900005" stroke-linecap="round" stroke-linejoin="round"/>
    <path d="M 100.00115203857422 179.0004119873047 C 104.0353012084961 178.6653594970703 109.43888092041016 176.32089233398438 108.15023040771484 176.078125" stroke-width="3.0" fill="none" stroke="rgb(2, 2, 2)" stroke-opacity="0.99000007" stroke-linecap="round" stroke-linejoin="round"/>
    <path d="M 68.99993896484375 161.99993896484375 C 73.58612060546875 156.96766662597656 74.37498474121094 156.0912322998047 76.59078216552734 148.59544372558594" stroke-width="3.0" fill="none" stroke="rgb(2, 2, -2)" stroke-opacity="0.99000007" stroke-linecap="round" stroke-linejoin="round"/>
    <path d="M 40.99829864501953 141.99993896484375 C 43.107845306396484 142.7543487548828 47.52760696411133 142.28050231933594 43.1838493347168 144.2373046875" stroke-width="3.0" fill="none" stroke="rgb(2, 2, -2)" stroke-opacity="0.99000037" stroke-linecap="round" stroke-linejoin="round"/>
    <path d="M 56.9998779296875 159.99981689453125 C 59.561546325683594 163.18954467773438 64.25254821777344 168.11996459960938 64.0467758178711 170.23179626464844" stroke-width="3.0" fill="none" stroke="rgb(2, 2, -2)" stroke-opacity="0.9900001" stroke-linecap="round" stroke-linejoin="round"/>
    <path d="M 88.00749206542969 51.9990234375 C 86.9454345703125 49.72513961791992 86.38429260253906 50.099178314208984 86.1485366821289 53.666290283203125" stroke-width="3.0" fill="none" stroke="rgb(2, 2, -2)" stroke-opacity="0.99000067" stroke-linecap="round" stroke-linejoin="round"/>
    <path d="M 59.99972915649414 177.9999237060547 C 55.24350357055664 183.2091064453125 56.96572494506836 180.89144897460938 59.48256301879883 179.25128173828125" stroke-width="3.0" fill="none" stroke="rgb(2, -2, 2)" stroke-opacity="0.9900016" stroke-linecap="round" stroke-linejoin="round"/>
    <path d="M 43.9998779296875 140.0000762939453 C 45.565250396728516 143.7158660888672 44.696380615234375 147.81201171875 45.5357780456543 150.27468872070312" stroke-width="3.0" fill="none" stroke="rgb(2, 2, 2)" stroke-opacity="0.9900002" stroke-linecap="round" stroke-linejoin="round"/>
    <path d="M 81.00016784667969 213.99989318847656 C 80.36621856689453 215.82843017578125 77.2611312866211 219.00733947753906 79.51972961425781 217.62896728515625" stroke-width="3.0" fill="none" stroke="rgb(2, 2, -2)" stroke-opacity="0.99000007" stroke-linecap="round" stroke-linejoin="round"/>
    <path d="M 159.00013732910156 94.99986267089844 C 163.51666259765625 98.78019714355469 163.7498779296875 98.62809753417969 170.5002899169922 95.2380599975586" stroke-width="3.0" fill="none" stroke="rgb(2, 2, 2)" stroke-opacity="0.99" stroke-linecap="round" stroke-linejoin="round"/>
    <path d="M 38.99809265136719 221.99996948242188 C 33.64113235473633 220.9727325439453 27.06841278076172 224.52870178222656 24.553897857666016 219.52438354492188" stroke-width="3.0" fill="none" stroke="rgb(2, 2, 2)" stroke-opacity="0.99000007" stroke-linecap="round" stroke-linejoin="round"/>
    <path d="M 159.0128936767578 185.0148162841797 C 155.39730834960938 184.34942626953125 160.16127014160156 184.1637420654297 159.32447814941406 186.5345001220703" stroke-width="3.0" fill="none" stroke="rgb(2, 2, 2)" stroke-opacity="0.99000055" stroke-linecap="round" stroke-linejoin="round"/>
    <path d="M 215.0001220703125 189.00022888183594 C 213.5782928466797 184.8890380859375 217.45111083984375 188.3118133544922 212.59439086914062 184.78590393066406" stroke-width="3.0" fill="none" stroke="rgb(2, 2, 2)" stroke-opacity="0.99000007" stroke-linecap="round" stroke-linejoin="round"/>
    <path d="M 66.99977111816406 68.00021362304688 C 70.32085418701172 70.46044921875 73.71782684326172 70.06902313232422 73.01483154296875 76.55647277832031" stroke-width="3.0" fill="none" stroke="rgb(2, 2, 2)" stroke-opacity="0.9900007" stroke-linecap="round" stroke-linejoin="round"/>
    <path d="M 68.00223541259766 220.00094604492188 C 63.842140197753906 223.34144592285156 67.57178497314453 218.3397216796875 66.65469360351562 222.66574096679688" stroke-width="3.0" fill="none" stroke="rgb(2, 2, -2)" stroke-opacity="0.9900001" stroke-linecap="round" stroke-linejoin="round"/>
    <path d="M 125.0000991821289 165.99990844726562 C 129.89120483398438 168.85488891601562 125.4761734008789 170.14480590820312 120.0984115600586 173.58511352539062" stroke-width="3.0" fill="none" stroke="rgb(2, 2, 2)" stroke-opacity="0.99000007" stroke-linecap="round" stroke-linejoin="round"/>
    <path d="M 102.99971008300781 176.00062561035156 C 98.79032135009766 176.2144317626953 96.18629455566406 176.97019958496094 95.70519256591797 178.21221923828125" stroke-width="3.0" fill="none" stroke="rgb(2, 2, 2)" stroke-opacity="0.99000007" stroke-linecap="round" stroke-linejoin="round"/>
    <path d="M 31.998348236083984 218.00013732910156 C 24.723756790161133 218.79437255859375 24.78174591064453 220.5123291015625 25.12896728515625 217.46592712402344" stroke-width="3.0" fill="none" stroke="rgb(2, 2, -2)" stroke-opacity="0.9900001" stroke-linecap="round" stroke-linejoin="round"/>
    <path d="M 55.00012969970703 164.00038146972656 C 56.20615768432617 166.63348388671875 53.44948959350586 167.2138214111328 60.161094665527344 166.86976623535156" stroke-width="3.0" fill="none" stroke="rgb(2, 2, -2)" stroke-opacity="1.0099976" stroke-linecap="round" stroke-linejoin="round"/>
  </g>
</svg>
