<?xml version="1.0" ?>
<svg xmlns="http://www.w3.org/2000/svg" version="1.1" width="224" height="224">
  <defs/>
  <g>
    <path d="M 86.17225646972656 66.95889282226562 C 79.6362533569336 65.88581848144531 69.00515747070312 67.01510620117188 80.2978744506836 63.16142272949219" stroke-width="3.0" fill="none" stroke="rgb(1, 1, 0)" stroke-opacity="0.79205227" stroke-linecap="round" stroke-linejoin="round"/>
    <path d="M 217.7772216796875 213.19517517089844 C 206.45462036132812 207.8961944580078 212.30014038085938 220.56295776367188 204.48419189453125 194.46824645996094" stroke-width="3.0" fill="none" stroke="rgb(-2, 1, 0)" stroke-opacity="0.06862283" stroke-linecap="round" stroke-linejoin="round"/>
    <path d="M 24.36768913269043 66.59874725341797 C 12.973246574401855 91.76009368896484 32.522953033447266 80.97809600830078 20.839881896972656 61.0055046081543" stroke-width="3.0" fill="none" stroke="rgb(1, 1, -1)" stroke-opacity="0.265676" stroke-linecap="round" stroke-linejoin="round"/>
    <path d="M 35.483917236328125 148.45159912109375 C 33.67029571533203 150.84677124023438 37.687843322753906 147.57669067382812 37.41273880004883 151.65423583984375" stroke-width="3.0" fill="none" stroke="rgb(2, 0, 0)" stroke-opacity="0.5241138" stroke-linecap="round" stroke-linejoin="round"/>
    <path d="M 56.9591178894043 190.930908203125 C 56.066410064697266 190.34457397460938 63.16161346435547 191.4409637451172 55.811771392822266 190.91671752929688" stroke-width="3.0" fill="none" stroke="rgb(0, 0, 0)" stroke-opacity="0.493195" stroke-linecap="round" stroke-linejoin="round"/>
    <path d="M 71.57923889160156 156.89134216308594 C 74.29010009765625 154.45034790039062 77.76685333251953 149.41432189941406 80.27909851074219 147.55914306640625" stroke-width="3.0" fill="none" stroke="rgb(2, 0, -1)" stroke-opacity="0.5352177" stroke-linecap="round" stroke-linejoin="round"/>
    <path d="M 8.957587242126465 203.81329345703125 C 12.485557556152344 206.16989135742188 2.496638774871826 208.34695434570312 7.359342575073242 202.72723388671875" stroke-width="3.0" fill="none" stroke="rgb(0, 0, 1)" stroke-opacity="0.28190377" stroke-linecap="round" stroke-linejoin="round"/>
    <path d="M 21.34014320373535 56.309288024902344 C 24.231292724609375 66.12457275390625 21.48624038696289 52.07132339477539 14.908000946044922 56.67375946044922" stroke-width="3.0" fill="none" stroke="rgb(0, 0, 1)" stroke-opacity="0.3532266" stroke-linecap="round" stroke-linejoin="round"/>
    <path d="M 79.64932250976562 -10.502725601196289 C 80.22250366210938 -11.494667053222656 79.6446533203125 -12.234710693359375 83.27317810058594 -10.60849666595459" stroke-width="3.0" fill="none" stroke="rgb(0, 0, 0)" stroke-opacity="0.75714666" stroke-linecap="round" stroke-linejoin="round"/>
    <path d="M 55.54862594604492 183.8070526123047 C 58.27108383178711 186.86289978027344 55.4783935546875 188.98435974121094 63.51384353637695 190.6903839111328" stroke-width="3.0" fill="none" stroke="rgb(0, -1, 1)" stroke-opacity="0.13219628" stroke-linecap="round" stroke-linejoin="round"/>
    <path d="M 73.9319839477539 190.0665740966797 C 73.07350158691406 192.73587036132812 70.23473358154297 193.30926513671875 70.70093536376953 192.3391571044922" stroke-width="3.0" fill="none" stroke="rgb(0, 0, 0)" stroke-opacity="0.34282607" stroke-linecap="round" stroke-linejoin="round"/>
    <path d="M 84.78239440917969 52.12230682373047 C 99.29796600341797 53.66923141479492 87.23271942138672 55.752296447753906 90.32575225830078 59.22154998779297" stroke-width="3.0" fill="none" stroke="rgb(0, 0, 0)" stroke-opacity="0.77778316" stroke-linecap="round" stroke-linejoin="round"/>
    <path d="M 91.09701538085938 54.11829376220703 C 89.51850128173828 75.58281707763672 80.34415435791016 66.4813461303711 76.71825408935547 77.14533996582031" stroke-width="3.0" fill="none" stroke="rgb(0, 0, 0)" stroke-opacity="0.99642265" stroke-linecap="round" stroke-linejoin="round"/>
    <path d="M -6.927003860473633 81.8653564453125 C 10.187259674072266 85.06461334228516 9.230928421020508 76.03387451171875 8.65064525604248 102.61376953125" stroke-width="3.0" fill="none" stroke="rgb(2, -2, 0)" stroke-opacity="0.486245" stroke-linecap="round" stroke-linejoin="round"/>
    <path d="M 105.59856414794922 193.97836303710938 C 109.70396423339844 193.97433471679688 111.39130401611328 191.79779052734375 115.50384521484375 190.99130249023438" stroke-width="3.0" fill="none" stroke="rgb(0, 0, 0)" stroke-opacity="0.16923042" stroke-linecap="round" stroke-linejoin="round"/>
    <path d="M 90.41722106933594 57.57469177246094 C 70.79475402832031 56.027671813964844 58.98694610595703 63.2343635559082 85.55208587646484 64.1523666381836" stroke-width="3.0" fill="none" stroke="rgb(1, 0, 1)" stroke-opacity="0.3195511" stroke-linecap="round" stroke-linejoin="round"/>
    <path d="M 157.2229766845703 180.53794860839844 C 155.23529052734375 183.023681640625 161.2608184814453 180.34597778320312 155.63107299804688 175.96466064453125" stroke-width="3.0" fill="none" stroke="rgb(0, 0, -1)" stroke-opacity="0.28342637" stroke-linecap="round" stroke-linejoin="round"/>
    <path d="M 108.1831283569336 -7.718570232391357 C 114.99371337890625 -5.457662105560303 116.22210693359375 -12.418510437011719 115.06087493896484 -7.955269813537598" stroke-width="3.0" fill="none" stroke="rgb(0, 0, 0)" stroke-opacity="0.7796999" stroke-linecap="round" stroke-linejoin="round"/>
    <path d="M 66.41080474853516 155.21595764160156 C 56.41289138793945 152.2681121826172 46.81067657470703 152.0529022216797 68.17485046386719 153.26446533203125" stroke-width="3.0" fill="none" stroke="rgb(0, 0, 0)" stroke-opacity="0.2354696" stroke-linecap="round" stroke-linejoin="round"/>
    <path d="M 114.95144653320312 163.735107421875 C 122.09428405761719 159.43490600585938 123.91280364990234 169.64857482910156 121.34993743896484 169.0913848876953" stroke-width="3.0" fill="none" stroke="rgb(0, 0, 1)" stroke-opacity="0.3171492" stroke-linecap="round" stroke-linejoin="round"/>
    <path d="M 74.99798583984375 75.43236541748047 C 81.78751373291016 60.531524658203125 86.2774658203125 59.56926727294922 80.41215515136719 74.75930786132812" stroke-width="3.0" fill="none" stroke="rgb(0, 2, -1)" stroke-opacity="0.92657644" stroke-linecap="round" stroke-linejoin="round"/>
    <path d="M 73.8795166015625 81.20510864257812 C 101.94233703613281 53.80039596557617 82.49571990966797 71.90692138671875 78.26709747314453 67.65633392333984" stroke-width="3.0" fill="none" stroke="rgb(-3, 3, -3)" stroke-opacity="0.9997304" stroke-linecap="round" stroke-linejoin="round"/>
    <path d="M 76.94920349121094 154.35031127929688 C 70.51732635498047 160.81781005859375 65.08474731445312 165.00521850585938 76.2516098022461 154.06565856933594" stroke-width="3.0" fill="none" stroke="rgb(2, 0, -2)" stroke-opacity="0.56774646" stroke-linecap="round" stroke-linejoin="round"/>
    <path d="M 71.91551208496094 41.47117614746094 C 69.78665924072266 59.31135559082031 70.10041809082031 67.95105743408203 74.55453491210938 55.95601272583008" stroke-width="3.0" fill="none" stroke="rgb(0, -1, 1)" stroke-opacity="0.2962254" stroke-linecap="round" stroke-linejoin="round"/>
    <path d="M 153.8392791748047 106.15281677246094 C 156.099365234375 108.13441467285156 149.34780883789062 105.62519836425781 150.39854431152344 98.60775756835938" stroke-width="3.0" fill="none" stroke="rgb(1, 0, 2)" stroke-opacity="0.19168808" stroke-linecap="round" stroke-linejoin="round"/>
    <path d="M 124.89236450195312 217.6343231201172 C 135.51495361328125 215.5225067138672 122.18280029296875 221.03451538085938 112.74468994140625 224.49794006347656" stroke-width="3.0" fill="none" stroke="rgb(-2, 2, -2)" stroke-opacity="0.27986804" stroke-linecap="round" stroke-linejoin="round"/>
    <path d="M 118.17623138427734 227.43321228027344 C 128.69268798828125 214.4598846435547 137.13287353515625 225.8198699951172 126.51604461669922 237.19219970703125" stroke-width="3.0" fill="none" stroke="rgb(-2, 3, -3)" stroke-opacity="0.33638737" stroke-linecap="round" stroke-linejoin="round"/>
    <path d="M 181.8295440673828 189.01780700683594 C 182.1456756591797 188.6497039794922 183.43899536132812 191.94601440429688 183.0177764892578 189.36622619628906" stroke-width="3.0" fill="none" stroke="rgb(0, 1, 1)" stroke-opacity="0.2991635" stroke-linecap="round" stroke-linejoin="round"/>
    <path d="M 63.91614532470703 149.6712646484375 C 49.18968200683594 151.0959930419922 53.543392181396484 146.2308349609375 67.0485610961914 149.9616241455078" stroke-width="3.0" fill="none" stroke="rgb(2, -1, 1)" stroke-opacity="0.21269765" stroke-linecap="round" stroke-linejoin="round"/>
    <path d="M 36.929325103759766 197.35726928710938 C 51.84926223754883 192.08969116210938 35.04291915893555 196.7985076904297 50.01007080078125 195.92709350585938" stroke-width="3.0" fill="none" stroke="rgb(0, 0, 1)" stroke-opacity="0.21339726" stroke-linecap="round" stroke-linejoin="round"/>
    <path d="M 58.18720626831055 118.60275268554688 C 37.577308654785156 120.12035369873047 44.85302734375 124.40345001220703 43.22827911376953 125.74198150634766" stroke-width="3.0" fill="none" stroke="rgb(-2, 0, 2)" stroke-opacity="0.42532772" stroke-linecap="round" stroke-linejoin="round"/>
    <path d="M 82.8448715209961 70.75605773925781 C 67.9961166381836 63.55451965332031 55.89171600341797 62.61729431152344 64.07527160644531 43.96261978149414" stroke-width="3.0" fill="none" stroke="rgb(2, -2, 0)" stroke-opacity="0.3384161" stroke-linecap="round" stroke-linejoin="round"/>
    <path d="M 10.440174102783203 69.4300765991211 C 10.124410629272461 110.51482391357422 2.9640583992004395 87.07523345947266 6.830899715423584 63.639373779296875" stroke-width="3.0" fill="none" stroke="rgb(2, -1, 0)" stroke-opacity="0.29483593" stroke-linecap="round" stroke-linejoin="round"/>
    <path d="M 79.42493438720703 42.810157775878906 C 93.2037353515625 45.32698059082031 95.98629760742188 61.88631820678711 87.2144775390625 67.03153228759766" stroke-width="3.0" fill="none" stroke="rgb(-2, 0, 1)" stroke-opacity="0.47931713" stroke-linecap="round" stroke-linejoin="round"/>
    <path d="M 5.065503120422363 67.83356475830078 C 33.63420486450195 64.57759857177734 -2.3404347896575928 71.48904418945312 8.646596908569336 56.65772247314453" stroke-width="3.0" fill="none" stroke="rgb(-3, 1, 1)" stroke-opacity="0.3159601" stroke-linecap="round" stroke-linejoin="round"/>
    <path d="M 13.65554428100586 74.7356948852539 C 14.3818998336792 86.21348571777344 15.542627334594727 83.9471435546875 15.870463371276855 58.074119567871094" stroke-width="3.0" fill="none" stroke="rgb(-1, 2, -1)" stroke-opacity="0.3852892" stroke-linecap="round" stroke-linejoin="round"/>
    <path d="M 65.74532318115234 148.18911743164062 C 63.03650665283203 168.5094451904297 66.56082916259766 173.78570556640625 58.9509162902832 171.70925903320312" stroke-width="3.0" fill="none" stroke="rgb(1, 1, -2)" stroke-opacity="0.22458127" stroke-linecap="round" stroke-linejoin="round"/>
    <path d="M 127.11150360107422 214.28102111816406 C 132.49827575683594 225.95123291015625 139.9468994140625 224.6192169189453 137.9178009033203 228.31358337402344" stroke-width="3.0" fill="none" stroke="rgb(-1, 1, -1)" stroke-opacity="0.17830035" stroke-linecap="round" stroke-linejoin="round"/>
    <path d="M 72.9092025756836 54.98400115966797 C 72.71125030517578 65.81806182861328 71.84651947021484 58.47601318359375 88.50265502929688 61.229244232177734" stroke-width="3.0" fill="none" stroke="rgb(0, 0, 1)" stroke-opacity="0.53281903" stroke-linecap="round" stroke-linejoin="round"/>
    <path d="M 36.315059661865234 153.12916564941406 C 45.29999923706055 155.625732421875 38.38047790527344 156.42303466796875 45.630977630615234 164.45648193359375" stroke-width="3.0" fill="none" stroke="rgb(1, -2, 1)" stroke-opacity="0.6643917" stroke-linecap="round" stroke-linejoin="round"/>
    <path d="M 0.9408552646636963 67.0154800415039 C -8.175904273986816 70.3279037475586 -3.313145160675049 50.62635803222656 9.624123573303223 52.02467346191406" stroke-width="3.0" fill="none" stroke="rgb(0, 0, 1)" stroke-opacity="0.30242142" stroke-linecap="round" stroke-linejoin="round"/>
    <path d="M 171.98342895507812 194.8989715576172 C 171.719970703125 195.3733673095703 170.87869262695312 196.138671875 174.5185089111328 193.84271240234375" stroke-width="3.0" fill="none" stroke="rgb(1, 0, 1)" stroke-opacity="0.19069019" stroke-linecap="round" stroke-linejoin="round"/>
    <path d="M 106.50872802734375 203.2890625 C 105.77049255371094 191.8739471435547 101.92761993408203 202.4455108642578 115.05817413330078 202.02676391601562" stroke-width="3.0" fill="none" stroke="rgb(0, 1, 1)" stroke-opacity="0.27575108" stroke-linecap="round" stroke-linejoin="round"/>
    <path d="M 59.440460205078125 216.70135498046875 C 65.25041198730469 220.8858184814453 54.72948455810547 222.7489013671875 70.48297119140625 211.86305236816406" stroke-width="3.0" fill="none" stroke="rgb(0, 0, 0)" stroke-opacity="0.2325579" stroke-linecap="round" stroke-linejoin="round"/>
    <path d="M 173.3852996826172 209.95440673828125 C 173.41929626464844 208.2017059326172 172.6392059326172 212.26515197753906 174.64010620117188 211.3978729248047" stroke-width="3.0" fill="none" stroke="rgb(0, 0, 2)" stroke-opacity="0.39718208" stroke-linecap="round" stroke-linejoin="round"/>
    <path d="M 208.4528350830078 197.2477569580078 C 216.8699188232422 200.86988830566406 197.92135620117188 195.66134643554688 192.05047607421875 204.60757446289062" stroke-width="3.0" fill="none" stroke="rgb(-1, 1, 1)" stroke-opacity="0.2550172" stroke-linecap="round" stroke-linejoin="round"/>
    <path d="M 70.22974395751953 158.0430908203125 C 74.6781005859375 150.7797088623047 75.42977142333984 143.8896026611328 75.0658950805664 148.1114044189453" stroke-width="3.0" fill="none" stroke="rgb(1, 1, -1)" stroke-opacity="0.4692713" stroke-linecap="round" stroke-linejoin="round"/>
    <path d="M 92.10839080810547 204.71646118164062 C 93.3908920288086 203.70924377441406 89.71431732177734 204.35675048828125 91.62786865234375 204.87759399414062" stroke-width="3.0" fill="none" stroke="rgb(0, 0, 0)" stroke-opacity="0.30306798" stroke-linecap="round" stroke-linejoin="round"/>
    <path d="M 56.087459564208984 120.1311264038086 C 82.06282806396484 118.65017700195312 71.21998596191406 130.74771118164062 65.74211120605469 122.38883209228516" stroke-width="3.0" fill="none" stroke="rgb(-2, 1, 1)" stroke-opacity="0.5770422" stroke-linecap="round" stroke-linejoin="round"/>
    <path d="M 1.8326194286346436 91.24789428710938 C -2.1527934074401855 79.92243957519531 4.731029033660889 75.2064437866211 -3.581364154815674 80.1485824584961" stroke-width="3.0" fill="none" stroke="rgb(-1, -2, 3)" stroke-opacity="0.65705264" stroke-linecap="round" stroke-linejoin="round"/>
    <path d="M 32.89091110229492 143.82191467285156 C 33.388633728027344 142.1626434326172 30.70162582397461 145.30746459960938 37.34949493408203 155.08657836914062" stroke-width="3.0" fill="none" stroke="rgb(1, 0, 2)" stroke-opacity="0.5466768" stroke-linecap="round" stroke-linejoin="round"/>
    <path d="M 78.79114532470703 140.9462890625 C 72.90373229980469 153.5731201171875 68.23126220703125 157.7357635498047 71.6974105834961 148.364013671875" stroke-width="3.0" fill="none" stroke="rgb(0, 0, -1)" stroke-opacity="0.3179291" stroke-linecap="round" stroke-linejoin="round"/>
    <path d="M 115.4759292602539 169.2781524658203 C 122.16883087158203 157.934814453125 127.77056884765625 165.2165069580078 127.81182861328125 160.34182739257812" stroke-width="3.0" fill="none" stroke="rgb(0, 0, 1)" stroke-opacity="0.24766587" stroke-linecap="round" stroke-linejoin="round"/>
    <path d="M 48.192020416259766 225.92689514160156 C 41.933929443359375 224.73756408691406 44.76624298095703 222.80101013183594 49.38159942626953 224.93075561523438" stroke-width="3.0" fill="none" stroke="rgb(0, 0, 0)" stroke-opacity="0.54578805" stroke-linecap="round" stroke-linejoin="round"/>
    <path d="M 40.178340911865234 159.56845092773438 C 26.172801971435547 144.9263153076172 32.845855712890625 127.8058090209961 33.29145431518555 142.7903594970703" stroke-width="3.0" fill="none" stroke="rgb(0, 0, 1)" stroke-opacity="0.41702536" stroke-linecap="round" stroke-linejoin="round"/>
    <path d="M 44.21873092651367 198.506591796875 C 42.51246643066406 196.96310424804688 40.697078704833984 199.66375732421875 43.44833755493164 199.13882446289062" stroke-width="3.0" fill="none" stroke="rgb(0, 0, 1)" stroke-opacity="0.15804054" stroke-linecap="round" stroke-linejoin="round"/>
    <path d="M 25.00224494934082 60.14950942993164 C 33.23706817626953 70.69337463378906 25.976655960083008 83.22032928466797 19.605445861816406 71.79730987548828" stroke-width="3.0" fill="none" stroke="rgb(1, 1, -2)" stroke-opacity="0.4604403" stroke-linecap="round" stroke-linejoin="round"/>
    <path d="M 81.70782470703125 44.2060432434082 C 88.55863189697266 52.30366516113281 77.51604461669922 65.98916625976562 85.0276107788086 63.79571533203125" stroke-width="3.0" fill="none" stroke="rgb(-3, 1, 0)" stroke-opacity="0.58381575" stroke-linecap="round" stroke-linejoin="round"/>
    <path d="M 78.35713195800781 126.64116668701172 C 75.76166534423828 125.38068389892578 81.53681945800781 125.2037124633789 82.26862335205078 142.25830078125" stroke-width="3.0" fill="none" stroke="rgb(0, 0, -1)" stroke-opacity="0.29121956" stroke-linecap="round" stroke-linejoin="round"/>
    <path d="M 88.938232421875 53.25509262084961 C 88.2741928100586 76.20671081542969 76.6552734375 68.34471893310547 80.86165618896484 68.56322479248047" stroke-width="3.0" fill="none" stroke="rgb(2, 0, 0)" stroke-opacity="0.97891307" stroke-linecap="round" stroke-linejoin="round"/>
    <path d="M 15.073591232299805 202.6942596435547 C 20.590822219848633 194.82891845703125 21.41149139404297 202.06893920898438 12.19055461883545 204.38638305664062" stroke-width="3.0" fill="none" stroke="rgb(0, 0, 1)" stroke-opacity="0.24150284" stroke-linecap="round" stroke-linejoin="round"/>
    <path d="M 60.3819580078125 205.07505798339844 C 60.291446685791016 205.1804962158203 60.96263885498047 205.8022918701172 60.25397491455078 205.19215393066406" stroke-width="3.0" fill="none" stroke="rgb(0, 0, 1)" stroke-opacity="0.23377708" stroke-linecap="round" stroke-linejoin="round"/>
    <path d="M 73.94717407226562 57.130741119384766 C 76.68059539794922 89.90531158447266 75.55282592773438 86.24829864501953 63.859771728515625 65.59269714355469" stroke-width="3.0" fill="none" stroke="rgb(2, 0, -1)" stroke-opacity="0.9175604" stroke-linecap="round" stroke-linejoin="round"/>
    <path d="M 73.14738464355469 47.31951904296875 C 71.18243408203125 64.78585815429688 79.1761474609375 44.657691955566406 75.53779602050781 47.354434967041016" stroke-width="3.0" fill="none" stroke="rgb(2, -2, 1)" stroke-opacity="0.34888628" stroke-linecap="round" stroke-linejoin="round"/>
    <path d="M 155.99632263183594 179.5583953857422 C 156.766357421875 182.22772216796875 153.795166015625 177.8055877685547 161.1162109375 180.403076171875" stroke-width="3.0" fill="none" stroke="rgb(1, 1, 0)" stroke-opacity="0.445902" stroke-linecap="round" stroke-linejoin="round"/>
    <path d="M 59.00229263305664 175.8455810546875 C 65.48876190185547 168.91847229003906 68.92688751220703 163.91265869140625 68.25987243652344 153.90708923339844" stroke-width="3.0" fill="none" stroke="rgb(0, 1, -1)" stroke-opacity="0.44118926" stroke-linecap="round" stroke-linejoin="round"/>
    <path d="M 157.05764770507812 107.78933715820312 C 165.83889770507812 111.93744659423828 161.86209106445312 115.04438018798828 155.07310485839844 108.34757232666016" stroke-width="3.0" fill="none" stroke="rgb(1, 0, 0)" stroke-opacity="0.25008902" stroke-linecap="round" stroke-linejoin="round"/>
    <path d="M 58.26663589477539 173.16453552246094 C 47.51520919799805 171.86187744140625 55.45014190673828 174.1112060546875 56.03594207763672 176.3446807861328" stroke-width="3.0" fill="none" stroke="rgb(1, 0, 0)" stroke-opacity="0.8096846" stroke-linecap="round" stroke-linejoin="round"/>
    <path d="M 63.661014556884766 65.13159942626953 C 86.0975570678711 76.53112030029297 79.24434661865234 71.414306640625 87.22602844238281 68.3375244140625" stroke-width="3.0" fill="none" stroke="rgb(-1, 0, 0)" stroke-opacity="0.44790325" stroke-linecap="round" stroke-linejoin="round"/>
    <path d="M 77.96736907958984 152.21197509765625 C 84.09580993652344 141.528076171875 79.22728729248047 139.38999938964844 77.59236907958984 152.4730682373047" stroke-width="3.0" fill="none" stroke="rgb(3, 0, -2)" stroke-opacity="0.64566875" stroke-linecap="round" stroke-linejoin="round"/>
    <path d="M 69.49105072021484 41.483028411865234 C 61.698883056640625 39.14323806762695 52.053707122802734 55.86286926269531 58.53828811645508 63.476348876953125" stroke-width="3.0" fill="none" stroke="rgb(-1, 0, 2)" stroke-opacity="0.4669651" stroke-linecap="round" stroke-linejoin="round"/>
    <path d="M 111.55587768554688 166.5219268798828 C 139.3642578125 162.91989135742188 136.01866149902344 168.7830810546875 129.20291137695312 166.35914611816406" stroke-width="3.0" fill="none" stroke="rgb(0, 0, 1)" stroke-opacity="0.27573848" stroke-linecap="round" stroke-linejoin="round"/>
    <path d="M 44.15890884399414 124.0167236328125 C 45.66423416137695 119.16473388671875 42.97257614135742 120.54541015625 32.45834732055664 134.8701934814453" stroke-width="3.0" fill="none" stroke="rgb(-1, 0, 0)" stroke-opacity="0.18262474" stroke-linecap="round" stroke-linejoin="round"/>
    <path d="M 54.87031173706055 127.30107116699219 C 50.0296630859375 115.84689331054688 59.8603630065918 123.91609191894531 59.7589225769043 121.40110778808594" stroke-width="3.0" fill="none" stroke="rgb(0, 1, -2)" stroke-opacity="0.3923413" stroke-linecap="round" stroke-linejoin="round"/>
    <path d="M 15.549839973449707 198.33334350585938 C 6.022098541259766 205.74598693847656 3.540987253189087 207.57791137695312 -6.243854522705078 205.40426635742188" stroke-width="3.0" fill="none" stroke="rgb(0, 0, 1)" stroke-opacity="0.22177844" stroke-linecap="round" stroke-linejoin="round"/>
    <path d="M 187.2109375 210.72752380371094 C 207.12986755371094 193.586181640625 202.72384643554688 209.82754516601562 202.90293884277344 196.41371154785156" stroke-width="3.0" fill="none" stroke="rgb(-1, 0, 1)" stroke-opacity="0.20127337" stroke-linecap="round" stroke-linejoin="round"/>
    <path d="M 50.71971130371094 169.86573791503906 C 51.01795959472656 173.84182739257812 53.47335433959961 172.7455596923828 50.27284240722656 167.46861267089844" stroke-width="3.0" fill="none" stroke="rgb(1, -1, 0)" stroke-opacity="0.69308716" stroke-linecap="round" stroke-linejoin="round"/>
    <path d="M 18.59539031982422 55.307167053222656 C 4.9933342933654785 52.17659378051758 9.694541931152344 51.62282180786133 6.763573169708252 56.027835845947266" stroke-width="3.0" fill="none" stroke="rgb(1, -1, 1)" stroke-opacity="0.33115622" stroke-linecap="round" stroke-linejoin="round"/>
    <path d="M 64.22563171386719 63.3768196105957 C 70.85704040527344 68.10342407226562 70.57939147949219 56.75433349609375 70.58065795898438 82.26409912109375" stroke-width="3.0" fill="none" stroke="rgb(1, -3, 3)" stroke-opacity="0.40531778" stroke-linecap="round" stroke-linejoin="round"/>
    <path d="M 160.56492614746094 102.17029571533203 C 151.18588256835938 91.53502655029297 153.43399047851562 103.08915710449219 161.23648071289062 106.89623260498047" stroke-width="3.0" fill="none" stroke="rgb(2, -2, 2)" stroke-opacity="0.1650614" stroke-linecap="round" stroke-linejoin="round"/>
    <path d="M 42.88365936279297 153.60577392578125 C 46.745792388916016 170.96881103515625 47.8149299621582 170.6302947998047 61.923980712890625 169.93006896972656" stroke-width="3.0" fill="none" stroke="rgb(2, -2, 0)" stroke-opacity="0.63653433" stroke-linecap="round" stroke-linejoin="round"/>
    <path d="M 84.33822631835938 62.59104537963867 C 82.864990234375 42.37883377075195 92.94585418701172 57.51860427856445 80.90010833740234 69.80692291259766" stroke-width="3.0" fill="none" stroke="rgb(-1, 3, -1)" stroke-opacity="0.90753937" stroke-linecap="round" stroke-linejoin="round"/>
    <path d="M 60.30329132080078 60.45478057861328 C 72.56169128417969 81.70056915283203 58.199317932128906 70.2286148071289 58.912986755371094 46.9915657043457" stroke-width="3.0" fill="none" stroke="rgb(3, -2, 1)" stroke-opacity="0.8703964" stroke-linecap="round" stroke-linejoin="round"/>
    <path d="M 15.518869400024414 79.82439422607422 C 6.305633068084717 105.65179443359375 16.756454467773438 92.07469940185547 27.309749603271484 77.30841827392578" stroke-width="3.0" fill="none" stroke="rgb(1, 1, -3)" stroke-opacity="0.56236297" stroke-linecap="round" stroke-linejoin="round"/>
    <path d="M 117.84825134277344 177.100341796875 C 120.54407501220703 162.29293823242188 118.94744110107422 163.83053588867188 116.454345703125 172.0844268798828" stroke-width="3.0" fill="none" stroke="rgb(0, 0, 1)" stroke-opacity="0.20277227" stroke-linecap="round" stroke-linejoin="round"/>
    <path d="M 34.14682388305664 200.392333984375 C 23.134620666503906 196.5016632080078 14.015599250793457 209.7058868408203 26.158462524414062 197.07908630371094" stroke-width="3.0" fill="none" stroke="rgb(-1, 0, 1)" stroke-opacity="0.19319329" stroke-linecap="round" stroke-linejoin="round"/>
    <path d="M 58.78936004638672 173.9349822998047 C 58.9199104309082 174.277099609375 60.585670471191406 181.99537658691406 52.656494140625 173.4802703857422" stroke-width="3.0" fill="none" stroke="rgb(1, -1, 1)" stroke-opacity="0.7392468" stroke-linecap="round" stroke-linejoin="round"/>
    <path d="M 11.389728546142578 74.47699737548828 C -19.280986785888672 68.21040344238281 -7.717709064483643 78.426025390625 23.466604232788086 78.7627182006836" stroke-width="3.0" fill="none" stroke="rgb(1, 0, 0)" stroke-opacity="0.25886017" stroke-linecap="round" stroke-linejoin="round"/>
    <path d="M 48.81618118286133 153.9367218017578 C 49.96957015991211 168.2439727783203 49.70823669433594 167.1560821533203 49.28956985473633 165.4896240234375" stroke-width="3.0" fill="none" stroke="rgb(2, 0, 0)" stroke-opacity="0.39197397" stroke-linecap="round" stroke-linejoin="round"/>
    <path d="M 135.7965545654297 191.1747283935547 C 140.1689910888672 190.98370361328125 146.63624572753906 190.70445251464844 141.435546875 190.14065551757812" stroke-width="3.0" fill="none" stroke="rgb(0, 0, 1)" stroke-opacity="0.13688034" stroke-linecap="round" stroke-linejoin="round"/>
    <path d="M 166.90771484375 212.20382690429688 C 170.98060607910156 209.9222869873047 174.07859802246094 209.1331787109375 171.73167419433594 207.5155029296875" stroke-width="3.0" fill="none" stroke="rgb(0, 0, 2)" stroke-opacity="0.16172819" stroke-linecap="round" stroke-linejoin="round"/>
    <path d="M 2.3957788944244385 79.78096008300781 C 22.097444534301758 87.10651397705078 27.223569869995117 76.44152069091797 15.764104843139648 75.97882080078125" stroke-width="3.0" fill="none" stroke="rgb(0, 0, 0)" stroke-opacity="0.39353412" stroke-linecap="round" stroke-linejoin="round"/>
    <path d="M 68.80537414550781 75.2930908203125 C 78.61199951171875 88.3675537109375 69.5776138305664 94.3507080078125 72.83283996582031 68.16717529296875" stroke-width="3.0" fill="none" stroke="rgb(2, -1, 0)" stroke-opacity="0.74076885" stroke-linecap="round" stroke-linejoin="round"/>
    <path d="M 49.29109191894531 167.21119689941406 C 47.0334358215332 158.33993530273438 44.88902282714844 150.01039123535156 46.932655334472656 155.6957244873047" stroke-width="3.0" fill="none" stroke="rgb(2, -3, 0)" stroke-opacity="0.63906693" stroke-linecap="round" stroke-linejoin="round"/>
    <path d="M 5.166563034057617 95.95337677001953 C 0.23442015051841736 85.39494323730469 4.595928192138672 75.80585479736328 7.349175453186035 96.02055358886719" stroke-width="3.0" fill="none" stroke="rgb(1, -1, 0)" stroke-opacity="0.6734294" stroke-linecap="round" stroke-linejoin="round"/>
    <path d="M 18.759981155395508 58.97125244140625 C 27.59761619567871 62.336151123046875 21.829973220825195 52.545711517333984 23.299781799316406 64.53927612304688" stroke-width="3.0" fill="none" stroke="rgb(1, 0, 0)" stroke-opacity="0.44303882" stroke-linecap="round" stroke-linejoin="round"/>
    <path d="M 39.130558013916016 157.18077087402344 C 33.344520568847656 149.92529296875 33.47791290283203 136.802734375 39.363216400146484 155.39320373535156" stroke-width="3.0" fill="none" stroke="rgb(2, -1, 0)" stroke-opacity="0.61366105" stroke-linecap="round" stroke-linejoin="round"/>
    <path d="M 132.10821533203125 169.1180877685547 C 129.62063598632812 163.47286987304688 126.8142318725586 165.99578857421875 141.6893768310547 171.6033935546875" stroke-width="3.0" fill="none" stroke="rgb(0, 0, 1)" stroke-opacity="0.36947453" stroke-linecap="round" stroke-linejoin="round"/>
    <path d="M 68.10042572021484 76.73851776123047 C 48.381839752197266 58.334442138671875 58.80672073364258 41.7955322265625 58.6619758605957 64.6847152709961" stroke-width="3.0" fill="none" stroke="rgb(3, 1, -3)" stroke-opacity="0.925114" stroke-linecap="round" stroke-linejoin="round"/>
    <path d="M 56.961341857910156 191.00706481933594 C 54.43144226074219 192.27391052246094 59.70568084716797 189.0492706298828 57.337310791015625 190.50845336914062" stroke-width="3.0" fill="none" stroke="rgb(0, 0, 0)" stroke-opacity="0.5858103" stroke-linecap="round" stroke-linejoin="round"/>
    <path d="M 117.1492919921875 162.80899047851562 C 128.950439453125 154.982666015625 126.20317077636719 168.14459228515625 125.08149719238281 159.0672149658203" stroke-width="3.0" fill="none" stroke="rgb(0, 1, 1)" stroke-opacity="0.28463486" stroke-linecap="round" stroke-linejoin="round"/>
    <path d="M 66.65159606933594 142.65625 C 66.23796081542969 149.7926025390625 72.47241973876953 152.84805297851562 67.7939224243164 150.69232177734375" stroke-width="3.0" fill="none" stroke="rgb(0, 1, 0)" stroke-opacity="0.30040738" stroke-linecap="round" stroke-linejoin="round"/>
    <path d="M 152.2611541748047 174.2456817626953 C 144.69712829589844 171.71670532226562 142.96627807617188 166.16830444335938 147.12045288085938 178.8518524169922" stroke-width="3.0" fill="none" stroke="rgb(0, 1, 1)" stroke-opacity="0.33771616" stroke-linecap="round" stroke-linejoin="round"/>
    <path d="M 102.9942398071289 179.93272399902344 C 102.8358383178711 179.9014434814453 103.49806213378906 174.42408752441406 103.40775299072266 177.69862365722656" stroke-width="3.0" fill="none" stroke="rgb(1, 0, 1)" stroke-opacity="0.3995158" stroke-linecap="round" stroke-linejoin="round"/>
    <path d="M 21.695899963378906 83.74205017089844 C 12.801239967346191 82.46060180664062 18.604061126708984 91.61190795898438 10.052973747253418 96.9831314086914" stroke-width="3.0" fill="none" stroke="rgb(1, 1, -2)" stroke-opacity="0.58585274" stroke-linecap="round" stroke-linejoin="round"/>
    <path d="M 23.40630531311035 62.54530715942383 C 17.541288375854492 78.95000457763672 35.19891357421875 65.28174591064453 24.5058536529541 65.8089370727539" stroke-width="3.0" fill="none" stroke="rgb(1, 1, -1)" stroke-opacity="0.3471206" stroke-linecap="round" stroke-linejoin="round"/>
    <path d="M 158.0788116455078 226.974609375 C 155.5972900390625 226.0381622314453 152.95065307617188 221.2227783203125 151.6431121826172 211.52159118652344" stroke-width="3.0" fill="none" stroke="rgb(-2, 1, 0)" stroke-opacity="0.16198519" stroke-linecap="round" stroke-linejoin="round"/>
    <path d="M 98.8143081665039 102.71266174316406 C 97.78580474853516 106.45427703857422 96.32178497314453 102.24644470214844 98.00245666503906 103.96195983886719" stroke-width="3.0" fill="none" stroke="rgb(0, 0, -2)" stroke-opacity="0.47580826" stroke-linecap="round" stroke-linejoin="round"/>
    <path d="M 55.007789611816406 145.44842529296875 C 69.09053039550781 147.29656982421875 60.535789489746094 139.90269470214844 60.1290397644043 171.9787139892578" stroke-width="3.0" fill="none" stroke="rgb(0, 0, 0)" stroke-opacity="0.22444776" stroke-linecap="round" stroke-linejoin="round"/>
    <path d="M 67.84284210205078 74.91021728515625 C 71.58436584472656 63.69906234741211 83.87823486328125 71.48236083984375 75.99885559082031 77.39423370361328" stroke-width="3.0" fill="none" stroke="rgb(2, 0, -2)" stroke-opacity="0.6060269" stroke-linecap="round" stroke-linejoin="round"/>
    <path d="M 100.08468627929688 179.1144561767578 C 103.60183715820312 179.7312774658203 101.71463012695312 177.00335693359375 102.80220031738281 179.0218048095703" stroke-width="3.0" fill="none" stroke="rgb(0, 0, 0)" stroke-opacity="0.2331517" stroke-linecap="round" stroke-linejoin="round"/>
    <path d="M 66.06063079833984 168.21376037597656 C 75.09268188476562 159.06069946289062 80.50633239746094 151.26983642578125 82.13585662841797 140.38336181640625" stroke-width="3.0" fill="none" stroke="rgb(2, -2, -2)" stroke-opacity="0.63083506" stroke-linecap="round" stroke-linejoin="round"/>
    <path d="M 35.705265045166016 147.00303649902344 C 35.863075256347656 146.2389373779297 34.478179931640625 141.27392578125 40.90932846069336 152.9409942626953" stroke-width="3.0" fill="none" stroke="rgb(1, 0, 0)" stroke-opacity="0.27445754" stroke-linecap="round" stroke-linejoin="round"/>
    <path d="M 50.034523010253906 163.15481567382812 C 64.38966369628906 168.05569458007812 72.5819320678711 159.30059814453125 58.504066467285156 176.77647399902344" stroke-width="3.0" fill="none" stroke="rgb(1, 0, -1)" stroke-opacity="0.23550496" stroke-linecap="round" stroke-linejoin="round"/>
    <path d="M 91.17282104492188 63.306488037109375 C 96.20188903808594 47.194183349609375 77.12599182128906 43.1188850402832 89.2636489868164 52.2315559387207" stroke-width="3.0" fill="none" stroke="rgb(3, 0, -1)" stroke-opacity="0.7481893" stroke-linecap="round" stroke-linejoin="round"/>
    <path d="M 57.27678680419922 174.85923767089844 C 55.66828918457031 183.48434448242188 59.94367980957031 189.67637634277344 55.37807083129883 174.06764221191406" stroke-width="3.0" fill="none" stroke="rgb(0, -1, 1)" stroke-opacity="0.39255252" stroke-linecap="round" stroke-linejoin="round"/>
    <path d="M 43.25590515136719 139.48480224609375 C 44.488006591796875 171.75511169433594 47.761478424072266 150.87269592285156 43.46010208129883 143.57763671875" stroke-width="3.0" fill="none" stroke="rgb(0, 0, -1)" stroke-opacity="0.18922447" stroke-linecap="round" stroke-linejoin="round"/>
    <path d="M 82.16609954833984 223.872314453125 C 85.30818939208984 219.04196166992188 83.32784271240234 219.1087646484375 84.09413146972656 221.19667053222656" stroke-width="3.0" fill="none" stroke="rgb(0, 1, 0)" stroke-opacity="0.23362517" stroke-linecap="round" stroke-linejoin="round"/>
    <path d="M 164.88137817382812 95.62980651855469 C 136.6720733642578 91.17668151855469 169.76223754882812 87.4859619140625 162.60751342773438 99.28764343261719" stroke-width="3.0" fill="none" stroke="rgb(0, 2, -2)" stroke-opacity="0.17074148" stroke-linecap="round" stroke-linejoin="round"/>
    <path d="M 62.292015075683594 223.45416259765625 C 25.694786071777344 223.05641174316406 -5.371397972106934 214.87672424316406 31.09544563293457 224.17002868652344" stroke-width="3.0" fill="none" stroke="rgb(-1, 1, -2)" stroke-opacity="0.28047162" stroke-linecap="round" stroke-linejoin="round"/>
    <path d="M 155.50473022460938 178.36756896972656 C 148.6703643798828 180.8988494873047 162.1650390625 172.97573852539062 154.5464630126953 184.8052520751953" stroke-width="3.0" fill="none" stroke="rgb(0, 0, 0)" stroke-opacity="0.18161358" stroke-linecap="round" stroke-linejoin="round"/>
    <path d="M 216.44400024414062 197.39459228515625 C 210.91856384277344 178.88233947753906 216.15184020996094 185.0103759765625 207.3798828125 191.13328552246094" stroke-width="3.0" fill="none" stroke="rgb(-1, 1, 2)" stroke-opacity="0.15813953" stroke-linecap="round" stroke-linejoin="round"/>
    <path d="M 73.11573791503906 60.031436920166016 C 67.51116943359375 73.42780303955078 80.17945861816406 68.70942687988281 73.3886947631836 81.14816284179688" stroke-width="3.0" fill="none" stroke="rgb(1, 1, -1)" stroke-opacity="0.68619263" stroke-linecap="round" stroke-linejoin="round"/>
    <path d="M 69.25050354003906 222.3373565673828 C 48.181312561035156 224.9091339111328 67.38893127441406 214.42237854003906 66.12600708007812 222.49790954589844" stroke-width="3.0" fill="none" stroke="rgb(-2, 2, -2)" stroke-opacity="0.31735435" stroke-linecap="round" stroke-linejoin="round"/>
    <path d="M 130.16372680664062 162.39578247070312 C 143.35467529296875 173.1468963623047 137.76402282714844 170.607177734375 118.51129150390625 167.84878540039062" stroke-width="3.0" fill="none" stroke="rgb(1, 0, 0)" stroke-opacity="0.20027128" stroke-linecap="round" stroke-linejoin="round"/>
    <path d="M 106.73774719238281 169.32872009277344 C 100.53533935546875 186.26885986328125 102.94654083251953 182.71026611328125 103.38475036621094 181.6195526123047" stroke-width="3.0" fill="none" stroke="rgb(0, 0, 1)" stroke-opacity="0.22186442" stroke-linecap="round" stroke-linejoin="round"/>
    <path d="M 32.16649627685547 219.01300048828125 C 13.174159049987793 205.2428436279297 8.012033462524414 222.23789978027344 40.21604919433594 217.7822723388672" stroke-width="3.0" fill="none" stroke="rgb(-1, 1, -1)" stroke-opacity="0.22752462" stroke-linecap="round" stroke-linejoin="round"/>
    <path d="M 45.299922943115234 165.84783935546875 C 50.189327239990234 166.38446044921875 60.82246017456055 168.54635620117188 62.457786560058594 167.825927734375" stroke-width="3.0" fill="none" stroke="rgb(1, 0, -1)" stroke-opacity="0.46283695" stroke-linecap="round" stroke-linejoin="round"/>
  </g>
</svg>
