<?xml version="1.0" ?>
<svg xmlns="http://www.w3.org/2000/svg" version="1.1" width="224" height="224">
  <defs/>
  <g>
    <path d="M 74.2703857421875 42.19398498535156 C 77.51947021484375 94.62031555175781 75.44184112548828 91.8090591430664 69.47447967529297 42.84928894042969" stroke-width="3.0" fill="none" stroke="rgb(3, -3, -1)" stroke-opacity="0.069252685" stroke-linecap="round" stroke-linejoin="round"/>
    <path d="M 199.73158264160156 224.63446044921875 C 247.2846221923828 138.74819946289062 200.74295043945312 305.18634033203125 212.199951171875 187.0943145751953" stroke-width="3.0" fill="none" stroke="rgb(-1, 2, 0)" stroke-opacity="0.11198438" stroke-linecap="round" stroke-linejoin="round"/>
    <path d="M 9.054828643798828 70.89944458007812 C 13.49752140045166 113.7758560180664 20.783334732055664 80.31011199951172 22.28541374206543 60.44231033325195" stroke-width="3.0" fill="none" stroke="rgb(1, -1, -1)" stroke-opacity="0.5506884" stroke-linecap="round" stroke-linejoin="round"/>
    <path d="M 8.806459426879883 140.763427734375 C 41.32221984863281 141.5671844482422 8.831636428833008 127.18958282470703 39.124454498291016 166.86590576171875" stroke-width="3.0" fill="none" stroke="rgb(0, 0, 2)" stroke-opacity="0.0012059233" stroke-linecap="round" stroke-linejoin="round"/>
    <path d="M 80.53656768798828 199.84835815429688 C -5.170932769775391 185.61915588378906 172.81385803222656 201.3690185546875 36.54315185546875 195.9783477783203" stroke-width="3.0" fill="none" stroke="rgb(-2, -2, 2)" stroke-opacity="0.09915546" stroke-linecap="round" stroke-linejoin="round"/>
    <path d="M 54.08771514892578 170.7448272705078 C 83.80359649658203 140.85069274902344 97.7253189086914 116.65106964111328 52.401893615722656 173.34881591796875" stroke-width="3.0" fill="none" stroke="rgb(3, 3, -3)" stroke-opacity="0.03630025" stroke-linecap="round" stroke-linejoin="round"/>
    <path d="M 0.3459874093532562 204.4017791748047 C 21.892642974853516 205.5990753173828 -79.8458480834961 262.65655517578125 38.46124267578125 205.22540283203125" stroke-width="3.0" fill="none" stroke="rgb(1, 0, -2)" stroke-opacity="0.06867706" stroke-linecap="round" stroke-linejoin="round"/>
    <path d="M -16.6612548828125 63.40803146362305 C 40.176292419433594 77.04496002197266 44.0333251953125 58.16251754760742 -14.676213264465332 58.957401275634766" stroke-width="3.0" fill="none" stroke="rgb(2, 1, -3)" stroke-opacity="0.2659525" stroke-linecap="round" stroke-linejoin="round"/>
    <path d="M 79.64942169189453 -10.503805160522461 C 80.22264862060547 -11.497818946838379 79.64464569091797 -12.23852252960205 83.27469635009766 -10.61168098449707" stroke-width="3.0" fill="none" stroke="rgb(0, 0, 0)" stroke-opacity="0.75712186" stroke-linecap="round" stroke-linejoin="round"/>
    <path d="M 79.48374938964844 200.84230041503906 C 33.6955680847168 190.9663543701172 38.08285903930664 224.33425903320312 131.9373779296875 178.90394592285156" stroke-width="3.0" fill="none" stroke="rgb(0, 0, 2)" stroke-opacity="0.042042848" stroke-linecap="round" stroke-linejoin="round"/>
    <path d="M 91.38471221923828 182.48536682128906 C 71.41788482666016 188.30567932128906 84.6024169921875 187.7418212890625 70.5684814453125 194.5023193359375" stroke-width="3.0" fill="none" stroke="rgb(0, -1, 2)" stroke-opacity="0.15181567" stroke-linecap="round" stroke-linejoin="round"/>
    <path d="M 78.65546417236328 43.837310791015625 C 101.83285522460938 54.7799186706543 82.26448822021484 61.69381332397461 92.54265594482422 53.08961868286133" stroke-width="3.0" fill="none" stroke="rgb(0, 0, 0)" stroke-opacity="0.16212827" stroke-linecap="round" stroke-linejoin="round"/>
    <path d="M 79.21852111816406 43.57135009765625 C 84.96357727050781 58.330963134765625 68.52204895019531 69.8211669921875 76.34428405761719 88.55885314941406" stroke-width="3.0" fill="none" stroke="rgb(2, -2, 1)" stroke-opacity="0.1567379" stroke-linecap="round" stroke-linejoin="round"/>
    <path d="M -12.42630386352539 77.60025024414062 C -18.987892150878906 74.35973358154297 -4.003978729248047 54.7628288269043 8.945096015930176 103.52465057373047" stroke-width="3.0" fill="none" stroke="rgb(1, -2, 1)" stroke-opacity="0.5278463" stroke-linecap="round" stroke-linejoin="round"/>
    <path d="M 115.15451049804688 207.47874450683594 C 38.664207458496094 206.08544921875 181.76954650878906 186.14279174804688 137.923095703125 185.3279571533203" stroke-width="3.0" fill="none" stroke="rgb(0, 0, 1)" stroke-opacity="0.13301879" stroke-linecap="round" stroke-linejoin="round"/>
    <path d="M 92.37113952636719 57.10966491699219 C 92.12860107421875 50.55895233154297 72.93592834472656 75.89555358886719 75.80766296386719 74.00503540039062" stroke-width="3.0" fill="none" stroke="rgb(-1, 0, 0)" stroke-opacity="0.22069131" stroke-linecap="round" stroke-linejoin="round"/>
    <path d="M 177.46255493164062 172.12953186035156 C 159.3702392578125 173.3463134765625 182.5829620361328 195.79498291015625 147.4187774658203 171.27294921875" stroke-width="3.0" fill="none" stroke="rgb(0, 0, 2)" stroke-opacity="0.14096522" stroke-linecap="round" stroke-linejoin="round"/>
    <path d="M 108.18304443359375 -7.719359874725342 C 114.99348449707031 -5.459314346313477 116.2220230102539 -12.421064376831055 115.06072998046875 -7.956709861755371" stroke-width="3.0" fill="none" stroke="rgb(0, 0, 0)" stroke-opacity="0.7796809" stroke-linecap="round" stroke-linejoin="round"/>
    <path d="M 74.36216735839844 126.37812042236328 C 62.568214416503906 174.91552734375 63.341617584228516 142.4595947265625 67.4017333984375 165.67416381835938" stroke-width="3.0" fill="none" stroke="rgb(0, 1, -2)" stroke-opacity="0.015677687" stroke-linecap="round" stroke-linejoin="round"/>
    <path d="M 123.55078887939453 187.0159912109375 C 151.2314910888672 144.40089416503906 93.95378112792969 192.4614715576172 156.30274963378906 177.8290252685547" stroke-width="3.0" fill="none" stroke="rgb(1, -1, 0)" stroke-opacity="0.0595884" stroke-linecap="round" stroke-linejoin="round"/>
    <path d="M 76.90992736816406 80.84207916259766 C 80.2925796508789 47.44491195678711 97.49441528320312 46.068748474121094 78.17230224609375 70.1313705444336" stroke-width="3.0" fill="none" stroke="rgb(-2, 1, -1)" stroke-opacity="0.10777959" stroke-linecap="round" stroke-linejoin="round"/>
    <path d="M 74.19091796875 81.65116882324219 C 95.80770111083984 50.11294174194336 100.31452941894531 53.16938400268555 76.78340911865234 80.99187469482422" stroke-width="3.0" fill="none" stroke="rgb(-3, 3, -2)" stroke-opacity="0.6427344" stroke-linecap="round" stroke-linejoin="round"/>
    <path d="M 82.50486755371094 145.48947143554688 C 52.028018951416016 179.88458251953125 41.00122833251953 189.7372589111328 83.17478942871094 142.51873779296875" stroke-width="3.0" fill="none" stroke="rgb(2, 0, -3)" stroke-opacity="0.121399015" stroke-linecap="round" stroke-linejoin="round"/>
    <path d="M 89.47380828857422 63.703433990478516 C 87.2270736694336 26.485118865966797 93.2423324584961 82.15608215332031 92.61520385742188 54.986881256103516" stroke-width="3.0" fill="none" stroke="rgb(0, 0, 0)" stroke-opacity="0.1455569" stroke-linecap="round" stroke-linejoin="round"/>
    <path d="M 153.14112854003906 95.18698120117188 C 161.57005310058594 118.94344329833984 140.90931701660156 94.46354675292969 158.34507751464844 89.8235855102539" stroke-width="3.0" fill="none" stroke="rgb(2, -1, 1)" stroke-opacity="0.05562975" stroke-linecap="round" stroke-linejoin="round"/>
    <path d="M 73.48639678955078 224.0979461669922 C 167.31324768066406 203.86434936523438 234.45155334472656 194.98902893066406 88.18476867675781 223.5775604248047" stroke-width="3.0" fill="none" stroke="rgb(2, -2, -2)" stroke-opacity="0.11929242" stroke-linecap="round" stroke-linejoin="round"/>
    <path d="M 75.27537536621094 229.4793701171875 C 134.63629150390625 213.61758422851562 157.81378173828125 221.5718231201172 94.42693328857422 223.89654541015625" stroke-width="3.0" fill="none" stroke="rgb(0, 2, -2)" stroke-opacity="0.35018474" stroke-linecap="round" stroke-linejoin="round"/>
    <path d="M 170.48057556152344 189.5628204345703 C 249.7456512451172 127.1519775390625 235.38519287109375 176.7041778564453 134.93038940429688 206.46319580078125" stroke-width="3.0" fill="none" stroke="rgb(2, 0, -2)" stroke-opacity="0.08713823" stroke-linecap="round" stroke-linejoin="round"/>
    <path d="M 72.66050720214844 143.91049194335938 C 49.975154876708984 143.63092041015625 -12.676563262939453 154.0723419189453 81.37619018554688 145.68515014648438" stroke-width="3.0" fill="none" stroke="rgb(1, 0, -2)" stroke-opacity="0.025893673" stroke-linecap="round" stroke-linejoin="round"/>
    <path d="M 32.766395568847656 197.0384063720703 C 57.37394714355469 186.48687744140625 27.758136749267578 203.65306091308594 44.13448715209961 194.44375610351562" stroke-width="3.0" fill="none" stroke="rgb(-2, 0, 1)" stroke-opacity="0.118048474" stroke-linecap="round" stroke-linejoin="round"/>
    <path d="M 57.06296157836914 119.26227569580078 C 38.58135223388672 115.1792221069336 38.19875717163086 131.7779541015625 47.72658920288086 119.4010009765625" stroke-width="3.0" fill="none" stroke="rgb(-2, 1, 1)" stroke-opacity="0.36959583" stroke-linecap="round" stroke-linejoin="round"/>
    <path d="M 72.44188690185547 88.70850372314453 C 85.38481903076172 86.90985107421875 50.9481315612793 67.21495819091797 62.03473663330078 47.8927116394043" stroke-width="3.0" fill="none" stroke="rgb(2, -2, -1)" stroke-opacity="0.14996597" stroke-linecap="round" stroke-linejoin="round"/>
    <path d="M 12.768866539001465 55.28723907470703 C 28.118282318115234 80.52886199951172 4.894417762756348 100.26553344726562 -5.856760501861572 62.569210052490234" stroke-width="3.0" fill="none" stroke="rgb(1, 0, -1)" stroke-opacity="0.1697135" stroke-linecap="round" stroke-linejoin="round"/>
    <path d="M 63.283199310302734 45.7384033203125 C 76.80512237548828 28.00975799560547 96.55683135986328 56.710208892822266 74.49163055419922 77.06362915039062" stroke-width="3.0" fill="none" stroke="rgb(-2, 1, 0)" stroke-opacity="0.21262491" stroke-linecap="round" stroke-linejoin="round"/>
    <path d="M -13.932299613952637 60.55002975463867 C 85.11019134521484 72.04873657226562 -19.160770416259766 76.83556365966797 -14.193211555480957 57.753021240234375" stroke-width="3.0" fill="none" stroke="rgb(0, 2, -3)" stroke-opacity="0.25628585" stroke-linecap="round" stroke-linejoin="round"/>
    <path d="M 6.8812456130981445 53.19334411621094 C 4.451994895935059 140.14439392089844 22.26675796508789 66.05437469482422 14.6675386428833 54.636898040771484" stroke-width="3.0" fill="none" stroke="rgb(0, 0, -1)" stroke-opacity="0.58027285" stroke-linecap="round" stroke-linejoin="round"/>
    <path d="M 69.46556091308594 124.14869689941406 C 68.3365707397461 154.11781311035156 47.93873977661133 209.57815551757812 44.89210891723633 141.1995086669922" stroke-width="3.0" fill="none" stroke="rgb(1, 2, -2)" stroke-opacity="0.034642905" stroke-linecap="round" stroke-linejoin="round"/>
    <path d="M 127.8685531616211 219.04006958007812 C 122.9603500366211 222.07888793945312 82.33100128173828 223.4355926513672 267.8639831542969 221.67782592773438" stroke-width="3.0" fill="none" stroke="rgb(-1, 4, -4)" stroke-opacity="0.36954856" stroke-linecap="round" stroke-linejoin="round"/>
    <path d="M 83.89909362792969 42.69353103637695 C 93.4473876953125 72.60440063476562 96.0261459350586 42.67157745361328 76.02684020996094 41.46296310424805" stroke-width="3.0" fill="none" stroke="rgb(0, 0, 1)" stroke-opacity="0.15917468" stroke-linecap="round" stroke-linejoin="round"/>
    <path d="M 49.44338607788086 171.49766540527344 C 26.80014991760254 147.25466918945312 45.26459884643555 159.66400146484375 54.15769958496094 174.0433349609375" stroke-width="3.0" fill="none" stroke="rgb(1, -1, 1)" stroke-opacity="0.11429878" stroke-linecap="round" stroke-linejoin="round"/>
    <path d="M 8.596778869628906 51.89704895019531 C 8.623090744018555 97.12167358398438 -17.386198043823242 39.58317565917969 19.332902908325195 55.44240951538086" stroke-width="3.0" fill="none" stroke="rgb(0, -2, 2)" stroke-opacity="0.31767252" stroke-linecap="round" stroke-linejoin="round"/>
    <path d="M 124.56388092041016 210.4523468017578 C 331.7433166503906 173.59414672851562 35.73154067993164 233.81771850585938 224.8014373779297 200.46163940429688" stroke-width="3.0" fill="none" stroke="rgb(2, -2, -2)" stroke-opacity="0.071550496" stroke-linecap="round" stroke-linejoin="round"/>
    <path d="M 103.15738677978516 211.94607543945312 C 200.24267578125 108.26091766357422 93.48420715332031 241.7284698486328 117.04434204101562 180.805419921875" stroke-width="3.0" fill="none" stroke="rgb(0, 0, 1)" stroke-opacity="0.06396988" stroke-linecap="round" stroke-linejoin="round"/>
    <path d="M 64.125244140625 214.83213806152344 C 68.81826782226562 244.84498596191406 36.10590362548828 222.3360137939453 71.55013275146484 210.79176330566406" stroke-width="3.0" fill="none" stroke="rgb(-2, 2, -1)" stroke-opacity="0.15302935" stroke-linecap="round" stroke-linejoin="round"/>
    <path d="M 203.51510620117188 223.3275146484375 C 345.7590637207031 206.3504638671875 -56.654422760009766 224.15138244628906 223.33065795898438 218.8984832763672" stroke-width="3.0" fill="none" stroke="rgb(-6, 4, -3)" stroke-opacity="0.2728643" stroke-linecap="round" stroke-linejoin="round"/>
    <path d="M 185.99220275878906 208.05982971191406 C 308.4989929199219 148.55499267578125 133.0297393798828 223.00563049316406 203.95904541015625 206.3313751220703" stroke-width="3.0" fill="none" stroke="rgb(-3, 1, 3)" stroke-opacity="0.22285344" stroke-linecap="round" stroke-linejoin="round"/>
    <path d="M 54.76491165161133 174.5044708251953 C 72.21514892578125 162.68856811523438 85.96437072753906 137.2571563720703 72.69526672363281 122.30265808105469" stroke-width="3.0" fill="none" stroke="rgb(3, 2, -3)" stroke-opacity="0.070223585" stroke-linecap="round" stroke-linejoin="round"/>
    <path d="M 78.60610961914062 235.7486572265625 C 103.6447982788086 202.39129638671875 91.95724487304688 204.23577880859375 67.27999114990234 229.0897979736328" stroke-width="3.0" fill="none" stroke="rgb(1, 0, 2)" stroke-opacity="0.08372139" stroke-linecap="round" stroke-linejoin="round"/>
    <path d="M 55.35260009765625 122.65963745117188 C 60.73895263671875 110.95040893554688 86.99773406982422 129.7926483154297 66.31732177734375 122.20923614501953" stroke-width="3.0" fill="none" stroke="rgb(-2, 3, 1)" stroke-opacity="0.54565114" stroke-linecap="round" stroke-linejoin="round"/>
    <path d="M 7.099618911743164 96.3994369506836 C -8.772135734558105 78.74958038330078 0.7810400128364563 56.91752243041992 -12.895123481750488 18.234813690185547" stroke-width="3.0" fill="none" stroke="rgb(1, 1, 0)" stroke-opacity="0.75646555" stroke-linecap="round" stroke-linejoin="round"/>
    <path d="M 53.94184875488281 175.2823944091797 C 26.924999237060547 150.09756469726562 29.245094299316406 140.8723602294922 59.183109283447266 176.29441833496094" stroke-width="3.0" fill="none" stroke="rgb(3, -3, 1)" stroke-opacity="0.11535808" stroke-linecap="round" stroke-linejoin="round"/>
    <path d="M 54.80642318725586 122.90760040283203 C 89.12278747558594 139.92684936523438 84.967041015625 141.08370971679688 65.41258239746094 134.32952880859375" stroke-width="3.0" fill="none" stroke="rgb(0, 0, -1)" stroke-opacity="0.0015241755" stroke-linecap="round" stroke-linejoin="round"/>
    <path d="M 109.93270874023438 194.4708709716797 C 131.3699188232422 151.05328369140625 127.23680877685547 147.01318359375 104.29032135009766 201.17340087890625" stroke-width="3.0" fill="none" stroke="rgb(0, 0, 1)" stroke-opacity="0.070309594" stroke-linecap="round" stroke-linejoin="round"/>
    <path d="M 48.28019714355469 226.2900390625 C 43.49799728393555 228.20657348632812 49.786170959472656 223.70584106445312 47.80796813964844 226.67947387695312" stroke-width="3.0" fill="none" stroke="rgb(0, 0, 0)" stroke-opacity="0.43021294" stroke-linecap="round" stroke-linejoin="round"/>
    <path d="M 58.16322708129883 177.47128295898438 C 17.536296844482422 148.60910034179688 35.50639724731445 114.72649383544922 36.13909149169922 152.8079071044922" stroke-width="3.0" fill="none" stroke="rgb(2, -2, 0)" stroke-opacity="0.24646124" stroke-linecap="round" stroke-linejoin="round"/>
    <path d="M 4.807091236114502 209.333740234375 C 104.37496948242188 196.7484130859375 -29.59823989868164 225.01744079589844 44.96763610839844 210.0441436767578" stroke-width="3.0" fill="none" stroke="rgb(2, 0, -2)" stroke-opacity="0.05451127" stroke-linecap="round" stroke-linejoin="round"/>
    <path d="M 12.705846786499023 53.779850006103516 C 50.13235092163086 64.90411376953125 13.690153121948242 93.74689483642578 8.01223373413086 98.64372253417969" stroke-width="3.0" fill="none" stroke="rgb(1, 0, 0)" stroke-opacity="0.3958562" stroke-linecap="round" stroke-linejoin="round"/>
    <path d="M 78.15222930908203 41.34977722167969 C 103.09986877441406 48.12107467651367 85.55353546142578 78.17922973632812 89.04019927978516 58.69796371459961" stroke-width="3.0" fill="none" stroke="rgb(0, 0, 2)" stroke-opacity="0.30688274" stroke-linecap="round" stroke-linejoin="round"/>
    <path d="M 54.33687210083008 120.79161071777344 C 65.57093048095703 114.76396179199219 98.12741088867188 128.29273986816406 73.27506256103516 161.66586303710938" stroke-width="3.0" fill="none" stroke="rgb(0, -1, 1)" stroke-opacity="0.1638512" stroke-linecap="round" stroke-linejoin="round"/>
    <path d="M 72.7968521118164 42.4581184387207 C 74.5684814453125 87.09811401367188 67.22488403320312 71.38472747802734 91.24964904785156 52.44084548950195" stroke-width="3.0" fill="none" stroke="rgb(1, 0, 0)" stroke-opacity="0.09552117" stroke-linecap="round" stroke-linejoin="round"/>
    <path d="M 12.188997268676758 243.0057373046875 C 27.58100700378418 188.90086364746094 46.06918716430664 209.60934448242188 -11.746866226196289 220.568603515625" stroke-width="3.0" fill="none" stroke="rgb(-3, 2, 0)" stroke-opacity="0.13820173" stroke-linecap="round" stroke-linejoin="round"/>
    <path d="M 93.52848052978516 187.8377227783203 C 50.446083068847656 240.1680908203125 104.1335220336914 154.13687133789062 68.28984069824219 203.344482421875" stroke-width="3.0" fill="none" stroke="rgb(-1, -1, 1)" stroke-opacity="0.07397223" stroke-linecap="round" stroke-linejoin="round"/>
    <path d="M 68.10140991210938 64.96861267089844 C 99.07830810546875 119.97026824951172 110.7231216430664 86.52633666992188 49.156700134277344 65.67662048339844" stroke-width="3.0" fill="none" stroke="rgb(0, 0, 0)" stroke-opacity="0.007654453" stroke-linecap="round" stroke-linejoin="round"/>
    <path d="M 83.63378143310547 43.822967529296875 C 72.4221420288086 120.98728942871094 68.73948669433594 29.740842819213867 80.70616149902344 43.07809066772461" stroke-width="3.0" fill="none" stroke="rgb(0, 0, 0)" stroke-opacity="0.09570719" stroke-linecap="round" stroke-linejoin="round"/>
    <path d="M 229.81195068359375 152.17547607421875 C 86.33357238769531 206.9447784423828 171.5159149169922 199.49798583984375 203.94503784179688 159.16127014160156" stroke-width="3.0" fill="none" stroke="rgb(-2, 0, 2)" stroke-opacity="0.1311823" stroke-linecap="round" stroke-linejoin="round"/>
    <path d="M 57.08607482910156 140.80616760253906 C 61.924560546875 188.2481689453125 39.568214416503906 169.86056518554688 79.18047332763672 135.4999542236328" stroke-width="3.0" fill="none" stroke="rgb(1, 0, -1)" stroke-opacity="0.014929744" stroke-linecap="round" stroke-linejoin="round"/>
    <path d="M 158.5926055908203 103.91241455078125 C 174.97325134277344 118.02627563476562 139.3472137451172 96.86231994628906 162.6204376220703 112.9339370727539" stroke-width="3.0" fill="none" stroke="rgb(2, -1, 1)" stroke-opacity="0.054820966" stroke-linecap="round" stroke-linejoin="round"/>
    <path d="M 32.16617965698242 181.98365783691406 C 81.42638397216797 168.23143005371094 100.18213653564453 175.71429443359375 64.44328308105469 176.34954833984375" stroke-width="3.0" fill="none" stroke="rgb(0, 0, 3)" stroke-opacity="0.0033137312" stroke-linecap="round" stroke-linejoin="round"/>
    <path d="M 84.70523071289062 49.32792282104492 C 82.92724609375 112.76692962646484 83.33467864990234 42.627967834472656 79.38468933105469 80.47474670410156" stroke-width="3.0" fill="none" stroke="rgb(-4, 6, -2)" stroke-opacity="0.08596199" stroke-linecap="round" stroke-linejoin="round"/>
    <path d="M 60.0218620300293 173.55014038085938 C 82.28128051757812 150.5885467529297 67.24225616455078 142.82423400878906 75.50740814208984 125.88440704345703" stroke-width="3.0" fill="none" stroke="rgb(0, 0, 0)" stroke-opacity="0.0057658125" stroke-linecap="round" stroke-linejoin="round"/>
    <path d="M 62.73307800292969 43.22682571411133 C 61.7384147644043 45.388465881347656 46.37818145751953 52.632328033447266 69.29226684570312 80.40386962890625" stroke-width="3.0" fill="none" stroke="rgb(-1, -1, 1)" stroke-opacity="0.45767725" stroke-linecap="round" stroke-linejoin="round"/>
    <path d="M 99.08222961425781 205.683349609375 C 121.53872680664062 142.21060180664062 159.82212829589844 162.2091522216797 123.50475311279297 205.6403045654297" stroke-width="3.0" fill="none" stroke="rgb(0, 0, 1)" stroke-opacity="0.053076528" stroke-linecap="round" stroke-linejoin="round"/>
    <path d="M 55.20391082763672 119.90509033203125 C 73.65775299072266 126.83625793457031 39.23234939575195 110.78285217285156 34.00393295288086 133.76353454589844" stroke-width="3.0" fill="none" stroke="rgb(-2, 2, 0)" stroke-opacity="0.1269223" stroke-linecap="round" stroke-linejoin="round"/>
    <path d="M 53.228580474853516 174.75648498535156 C 54.03627395629883 112.69497680664062 59.04619216918945 120.23619842529297 46.04364013671875 121.51629638671875" stroke-width="3.0" fill="none" stroke="rgb(-2, 2, -2)" stroke-opacity="0.05862538" stroke-linecap="round" stroke-linejoin="round"/>
    <path d="M 13.577805519104004 200.16372680664062 C 2.0497934818267822 219.4682159423828 -2.4328413009643555 182.4962158203125 3.188293218612671 230.48049926757812" stroke-width="3.0" fill="none" stroke="rgb(0, -1, 2)" stroke-opacity="0.09752828" stroke-linecap="round" stroke-linejoin="round"/>
    <path d="M 163.81370544433594 221.63479614257812 C 287.65423583984375 190.45477294921875 157.17242431640625 205.75540161132812 202.44149780273438 193.38818359375" stroke-width="3.0" fill="none" stroke="rgb(-3, 4, 1)" stroke-opacity="0.15438247" stroke-linecap="round" stroke-linejoin="round"/>
    <path d="M 56.78409194946289 174.39683532714844 C 51.32780838012695 173.6012420654297 66.3823013305664 171.20802307128906 57.38833999633789 176.86972045898438" stroke-width="3.0" fill="none" stroke="rgb(2, -1, 0)" stroke-opacity="0.6290351" stroke-linecap="round" stroke-linejoin="round"/>
    <path d="M 26.91532325744629 61.940555572509766 C -2.985551357269287 46.23796081542969 -17.224956512451172 68.09803771972656 -10.680562973022461 57.48827362060547" stroke-width="3.0" fill="none" stroke="rgb(2, -2, -1)" stroke-opacity="0.32770002" stroke-linecap="round" stroke-linejoin="round"/>
    <path d="M 72.58870697021484 42.613922119140625 C 91.69512176513672 74.78375244140625 61.36328125 75.25334930419922 49.94688415527344 59.61416244506836" stroke-width="3.0" fill="none" stroke="rgb(0, 0, 0)" stroke-opacity="0.02170064" stroke-linecap="round" stroke-linejoin="round"/>
    <path d="M 160.76937866210938 117.92930603027344 C 171.63551330566406 86.9910659790039 142.5481719970703 87.14075469970703 165.69386291503906 106.70747375488281" stroke-width="3.0" fill="none" stroke="rgb(1, -2, 0)" stroke-opacity="0.032990087" stroke-linecap="round" stroke-linejoin="round"/>
    <path d="M 35.3790397644043 148.57022094726562 C 63.52205276489258 168.01181030273438 54.520442962646484 179.43350219726562 52.86109924316406 173.64865112304688" stroke-width="3.0" fill="none" stroke="rgb(1, -1, -1)" stroke-opacity="0.062023338" stroke-linecap="round" stroke-linejoin="round"/>
    <path d="M 72.2983627319336 83.700927734375 C 101.31649780273438 72.98121643066406 88.86964416503906 66.54837799072266 76.2740478515625 63.54286193847656" stroke-width="3.0" fill="none" stroke="rgb(0, 0, 0)" stroke-opacity="0.028795503" stroke-linecap="round" stroke-linejoin="round"/>
    <path d="M 57.11071014404297 53.45313262939453 C 83.0130844116211 91.25780487060547 46.42734146118164 62.314579010009766 61.40052795410156 43.436607360839844" stroke-width="3.0" fill="none" stroke="rgb(1, -1, 0)" stroke-opacity="0.08985164" stroke-linecap="round" stroke-linejoin="round"/>
    <path d="M 9.501456260681152 82.2632064819336 C 15.205434799194336 100.63618469238281 0.9510360360145569 109.0058364868164 25.737276077270508 73.00980377197266" stroke-width="3.0" fill="none" stroke="rgb(3, 0, -3)" stroke-opacity="0.48937884" stroke-linecap="round" stroke-linejoin="round"/>
    <path d="M 131.68028259277344 163.30313110351562 C 152.6664581298828 208.27459716796875 143.86131286621094 136.98179626464844 97.38508605957031 192.14259338378906" stroke-width="3.0" fill="none" stroke="rgb(0, 0, 0)" stroke-opacity="0.062471837" stroke-linecap="round" stroke-linejoin="round"/>
    <path d="M 36.8365364074707 197.73719787597656 C -20.821590423583984 206.29031372070312 0.5790084600448608 217.28915405273438 25.307361602783203 197.2213592529297" stroke-width="3.0" fill="none" stroke="rgb(-3, -2, 3)" stroke-opacity="0.19253387" stroke-linecap="round" stroke-linejoin="round"/>
    <path d="M 57.483428955078125 172.54574584960938 C 59.9545783996582 170.657958984375 51.9472541809082 184.4799346923828 57.889644622802734 182.50308227539062" stroke-width="3.0" fill="none" stroke="rgb(2, -1, 1)" stroke-opacity="0.45388883" stroke-linecap="round" stroke-linejoin="round"/>
    <path d="M 25.33608627319336 77.96820068359375 C -32.28752517700195 66.6677474975586 -37.73126983642578 94.81489562988281 12.506834030151367 91.53410339355469" stroke-width="3.0" fill="none" stroke="rgb(1, 0, 0)" stroke-opacity="0.3690866" stroke-linecap="round" stroke-linejoin="round"/>
    <path d="M 54.06625747680664 142.01722717285156 C 49.37067413330078 188.07398986816406 62.7593879699707 157.3788299560547 54.855003356933594 171.92568969726562" stroke-width="3.0" fill="none" stroke="rgb(0, 1, -1)" stroke-opacity="0.013092356" stroke-linecap="round" stroke-linejoin="round"/>
    <path d="M 96.87981414794922 203.787353515625 C 219.82424926757812 174.83676147460938 188.16189575195312 154.3323974609375 180.26597595214844 174.35182189941406" stroke-width="3.0" fill="none" stroke="rgb(0, 1, 0)" stroke-opacity="0.11551555" stroke-linecap="round" stroke-linejoin="round"/>
    <path d="M 148.29869079589844 213.6212158203125 C 370.15960693359375 211.26622009277344 103.85912322998047 201.4853973388672 157.85324096679688 222.39141845703125" stroke-width="3.0" fill="none" stroke="rgb(-2, 2, -2)" stroke-opacity="0.19710818" stroke-linecap="round" stroke-linejoin="round"/>
    <path d="M -8.132899284362793 69.55864715576172 C 48.9581184387207 87.5681381225586 -0.28650611639022827 74.01813507080078 -13.2417631149292 78.89215850830078" stroke-width="3.0" fill="none" stroke="rgb(1, -1, 3)" stroke-opacity="0.39016753" stroke-linecap="round" stroke-linejoin="round"/>
    <path d="M 62.865318298339844 45.32345962524414 C 50.7206916809082 78.56175994873047 83.24340057373047 82.47080993652344 81.50105285644531 55.228851318359375" stroke-width="3.0" fill="none" stroke="rgb(2, 0, -2)" stroke-opacity="0.077344306" stroke-linecap="round" stroke-linejoin="round"/>
    <path d="M 58.510318756103516 173.45181274414062 C 60.39591979980469 156.6492919921875 39.630470275878906 152.04537963867188 48.214778900146484 125.10317993164062" stroke-width="3.0" fill="none" stroke="rgb(1, 1, -3)" stroke-opacity="0.050558254" stroke-linecap="round" stroke-linejoin="round"/>
    <path d="M 5.227967739105225 91.90301513671875 C -15.244415283203125 53.37845230102539 -10.518440246582031 36.0211296081543 8.144097328186035 95.78262329101562" stroke-width="3.0" fill="none" stroke="rgb(2, -2, 2)" stroke-opacity="0.53446555" stroke-linecap="round" stroke-linejoin="round"/>
    <path d="M -15.940407752990723 57.021488189697266 C 30.619009017944336 64.77522277832031 23.501575469970703 43.13036346435547 13.95464038848877 86.33751678466797" stroke-width="3.0" fill="none" stroke="rgb(3, -2, -2)" stroke-opacity="0.22731549" stroke-linecap="round" stroke-linejoin="round"/>
    <path d="M 53.8102912902832 174.1577911376953 C 34.39312744140625 135.8737030029297 17.865299224853516 133.45654296875 56.88844299316406 177.18032836914062" stroke-width="3.0" fill="none" stroke="rgb(2, -3, 0)" stroke-opacity="0.060979053" stroke-linecap="round" stroke-linejoin="round"/>
    <path d="M 148.9994354248047 184.1483612060547 C 126.71676635742188 137.6761474609375 148.7107391357422 212.68832397460938 154.25096130371094 172.5234832763672" stroke-width="3.0" fill="none" stroke="rgb(3, -2, 0)" stroke-opacity="0.09308628" stroke-linecap="round" stroke-linejoin="round"/>
    <path d="M 73.06050872802734 73.12999725341797 C 52.784149169921875 49.129093170166016 90.07256317138672 97.68355560302734 72.97640228271484 93.1594009399414" stroke-width="3.0" fill="none" stroke="rgb(0, 0, 0)" stroke-opacity="0.011364203" stroke-linecap="round" stroke-linejoin="round"/>
    <path d="M 41.9613037109375 203.71554565429688 C 91.46580505371094 218.6748046875 54.032840728759766 169.7161407470703 56.810401916503906 209.8836669921875" stroke-width="3.0" fill="none" stroke="rgb(0, 0, 1)" stroke-opacity="0.025982589" stroke-linecap="round" stroke-linejoin="round"/>
    <path d="M 100.65138244628906 176.7290802001953 C 143.29847717285156 155.99908447265625 114.44012451171875 139.21932983398438 142.45411682128906 171.2512664794922" stroke-width="3.0" fill="none" stroke="rgb(0, 0, 0)" stroke-opacity="-0.016146941" stroke-linecap="round" stroke-linejoin="round"/>
    <path d="M 69.17362976074219 126.03565979003906 C 55.711971282958984 197.4605712890625 80.77462005615234 149.90382385253906 75.34513092041016 126.49869537353516" stroke-width="3.0" fill="none" stroke="rgb(2, 2, -3)" stroke-opacity="0.04256068" stroke-linecap="round" stroke-linejoin="round"/>
    <path d="M 156.7795867919922 181.3280792236328 C 117.87521362304688 157.4984893798828 116.08169555664062 143.105224609375 147.33010864257812 191.957763671875" stroke-width="3.0" fill="none" stroke="rgb(1, -1, 0)" stroke-opacity="0.09587799" stroke-linecap="round" stroke-linejoin="round"/>
    <path d="M 125.13069152832031 161.00448608398438 C 83.61149597167969 179.16392517089844 113.77820587158203 175.3180694580078 118.30148315429688 161.44090270996094" stroke-width="3.0" fill="none" stroke="rgb(-1, -2, 2)" stroke-opacity="0.21228766" stroke-linecap="round" stroke-linejoin="round"/>
    <path d="M 9.771749496459961 98.22108459472656 C 46.280338287353516 60.76665496826172 16.481184005737305 66.27579498291016 14.174689292907715 92.0181655883789" stroke-width="3.0" fill="none" stroke="rgb(4, 1, -3)" stroke-opacity="0.49399045" stroke-linecap="round" stroke-linejoin="round"/>
    <path d="M 20.829757690429688 72.59327697753906 C 27.34365463256836 76.69509887695312 21.292179107666016 23.592988967895508 9.191705703735352 97.73204040527344" stroke-width="3.0" fill="none" stroke="rgb(3, 0, -2)" stroke-opacity="0.21888527" stroke-linecap="round" stroke-linejoin="round"/>
    <path d="M 168.9399871826172 233.32615661621094 C 172.48910522460938 165.94761657714844 156.18133544921875 292.17462158203125 156.67678833007812 212.02969360351562" stroke-width="3.0" fill="none" stroke="rgb(-1, 1, 0)" stroke-opacity="0.10320697" stroke-linecap="round" stroke-linejoin="round"/>
    <path d="M 102.45086669921875 107.24089813232422 C 114.79235076904297 118.75486755371094 95.74919128417969 103.24430847167969 103.81343841552734 103.47040557861328" stroke-width="3.0" fill="none" stroke="rgb(0, -1, 0)" stroke-opacity="0.10214677" stroke-linecap="round" stroke-linejoin="round"/>
    <path d="M 64.1661376953125 121.06944274902344 C 58.969974517822266 145.4942169189453 58.64531707763672 167.5216827392578 54.803070068359375 174.5027618408203" stroke-width="3.0" fill="none" stroke="rgb(1, 1, -4)" stroke-opacity="0.044939548" stroke-linecap="round" stroke-linejoin="round"/>
    <path d="M 79.61026763916016 69.59185028076172 C 91.0442886352539 51.89113235473633 80.6961441040039 57.18149185180664 82.12203979492188 73.37405395507812" stroke-width="3.0" fill="none" stroke="rgb(-1, 2, -1)" stroke-opacity="0.07868067" stroke-linecap="round" stroke-linejoin="round"/>
    <path d="M 84.18016815185547 188.3824462890625 C 105.09942626953125 184.87738037109375 142.43898010253906 154.3474884033203 80.31455993652344 190.17739868164062" stroke-width="3.0" fill="none" stroke="rgb(-1, -2, 3)" stroke-opacity="0.15524223" stroke-linecap="round" stroke-linejoin="round"/>
    <path d="M 57.320777893066406 176.4424285888672 C 82.1576919555664 152.95205688476562 77.3810043334961 154.2758026123047 81.79363250732422 146.72486877441406" stroke-width="3.0" fill="none" stroke="rgb(2, -2, 1)" stroke-opacity="0.27511394" stroke-linecap="round" stroke-linejoin="round"/>
    <path d="M 43.2027702331543 163.80210876464844 C 22.52529525756836 146.1655731201172 35.68754959106445 111.00770568847656 38.612335205078125 156.92007446289062" stroke-width="3.0" fill="none" stroke="rgb(1, -2, 0)" stroke-opacity="0.060335368" stroke-linecap="round" stroke-linejoin="round"/>
    <path d="M 45.961578369140625 152.4979705810547 C 52.489288330078125 206.37887573242188 75.3372802734375 126.32364654541016 54.00240707397461 170.98802185058594" stroke-width="3.0" fill="none" stroke="rgb(2, 0, -1)" stroke-opacity="0.02697368" stroke-linecap="round" stroke-linejoin="round"/>
    <path d="M 65.06989288330078 73.53717803955078 C 65.87926483154297 33.515987396240234 59.6306266784668 35.90126037597656 58.89210510253906 70.03341674804688" stroke-width="3.0" fill="none" stroke="rgb(1, 0, 0)" stroke-opacity="0.06260684" stroke-linecap="round" stroke-linejoin="round"/>
    <path d="M 63.309757232666016 193.5227813720703 C 48.4594841003418 251.47567749023438 37.49238967895508 242.1676483154297 59.196388244628906 160.41949462890625" stroke-width="3.0" fill="none" stroke="rgb(1, 0, 0)" stroke-opacity="0.007102334" stroke-linecap="round" stroke-linejoin="round"/>
    <path d="M 43.890132904052734 127.33209991455078 C 39.34951400756836 163.83363342285156 70.94755554199219 186.571044921875 44.928306579589844 149.83657836914062" stroke-width="3.0" fill="none" stroke="rgb(4, 0, -5)" stroke-opacity="0.10417069" stroke-linecap="round" stroke-linejoin="round"/>
    <path d="M 63.02661895751953 224.3875274658203 C 77.44962310791016 230.8202362060547 181.91668701171875 162.52383422851562 82.37432861328125 218.2010955810547" stroke-width="3.0" fill="none" stroke="rgb(-1, 1, 0)" stroke-opacity="0.1145654" stroke-linecap="round" stroke-linejoin="round"/>
    <path d="M 168.62554931640625 95.61725616455078 C 142.39266967773438 87.87629699707031 186.5299835205078 86.23983764648438 165.1833038330078 111.69386291503906" stroke-width="3.0" fill="none" stroke="rgb(0, 0, 1)" stroke-opacity="0.05067868" stroke-linecap="round" stroke-linejoin="round"/>
    <path d="M 66.63130950927734 222.25120544433594 C -42.78374099731445 218.92063903808594 -128.18589782714844 221.57041931152344 67.61211395263672 223.41644287109375" stroke-width="3.0" fill="none" stroke="rgb(2, 2, -2)" stroke-opacity="0.38613585" stroke-linecap="round" stroke-linejoin="round"/>
    <path d="M 155.40496826171875 181.7281036376953 C 90.51282501220703 222.8426971435547 225.5928497314453 170.9561767578125 122.48617553710938 201.19711303710938" stroke-width="3.0" fill="none" stroke="rgb(0, -1, 2)" stroke-opacity="0.10256328" stroke-linecap="round" stroke-linejoin="round"/>
    <path d="M 227.95864868164062 206.2215118408203 C 223.8496856689453 152.9362030029297 199.18482971191406 210.90774536132812 227.4453125 175.12506103515625" stroke-width="3.0" fill="none" stroke="rgb(-1, 1, 1)" stroke-opacity="0.26505783" stroke-linecap="round" stroke-linejoin="round"/>
    <path d="M 79.24819946289062 44.65839767456055 C 71.09806060791016 65.2564697265625 71.0633773803711 115.90740203857422 82.89962768554688 43.66818618774414" stroke-width="3.0" fill="none" stroke="rgb(2, 0, 0)" stroke-opacity="0.096378565" stroke-linecap="round" stroke-linejoin="round"/>
    <path d="M 66.06784057617188 223.46539306640625 C -18.3371524810791 225.2074737548828 70.74779510498047 209.16387939453125 79.31231689453125 227.08505249023438" stroke-width="3.0" fill="none" stroke="rgb(0, 2, -2)" stroke-opacity="0.15306449" stroke-linecap="round" stroke-linejoin="round"/>
    <path d="M 107.90449523925781 169.25572204589844 C 141.28424072265625 177.52235412597656 128.0793914794922 133.73944091796875 119.52615356445312 186.23806762695312" stroke-width="3.0" fill="none" stroke="rgb(0, 1, -2)" stroke-opacity="0.08228625" stroke-linecap="round" stroke-linejoin="round"/>
    <path d="M 129.80410766601562 161.49417114257812 C 86.66536712646484 181.69288635253906 121.5789794921875 183.23704528808594 79.95260620117188 192.1831512451172" stroke-width="3.0" fill="none" stroke="rgb(0, 1, 0)" stroke-opacity="0.121099494" stroke-linecap="round" stroke-linejoin="round"/>
    <path d="M 45.32395935058594 233.49237060546875 C 49.03141784667969 202.4700469970703 -20.777568817138672 221.9424285888672 41.60306930541992 218.36355590820312" stroke-width="3.0" fill="none" stroke="rgb(-3, 2, -1)" stroke-opacity="0.32869148" stroke-linecap="round" stroke-linejoin="round"/>
    <path d="M 77.8395767211914 143.95359802246094 C 48.035003662109375 183.87509155273438 55.46440124511719 178.8104705810547 69.13414001464844 166.6348419189453" stroke-width="3.0" fill="none" stroke="rgb(0, 0, -1)" stroke-opacity="0.034327593" stroke-linecap="round" stroke-linejoin="round"/>
  </g>
</svg>
