<?xml version='1.0' encoding='utf-8'?>
<svg xmlns="http://www.w3.org/2000/svg" version="1.1" width="224" height="224">
  <defs />
  <g>
    <path d="M 28.782764434814453 5.199438571929932 C 31.65818977355957 11.767910957336426 15.865760803222656 11.114317893981934 22.13975715637207 12.090790748596191" stroke-width="3.0" fill="none" stroke="rgb(0, 0, 0)" stroke-opacity="0" stroke-linecap="round" stroke-linejoin="round" />
    <path d="M 44.01090621948242 49.982078552246094 C 16.90424346923828 87.85743713378906 56.55715560913086 89.92200469970703 38.75335693359375 73.87816619873047" stroke-width="3.0" fill="none" stroke="rgb(0, 0, 0)" stroke-opacity="0.9989421" stroke-linecap="round" stroke-linejoin="round" />
    <path d="M 88.37202453613281 134.1801300048828 C 93.36320495605469 104.13175201416016 106.26124572753906 98.72823333740234 107.0322036743164 131.1909942626953" stroke-width="3.0" fill="none" stroke="rgb(0, 0, 0)" stroke-opacity="0" stroke-linecap="round" stroke-linejoin="round" />
    <path d="M 108.0853042602539 -5.989804267883301 C 106.82588958740234 -0.6828780770301819 114.10745239257812 -2.9916203022003174 114.15080261230469 -5.398087501525879" stroke-width="3.0" fill="none" stroke="rgb(0, 0, 0)" stroke-opacity="0.93062127" stroke-linecap="round" stroke-linejoin="round" />
    <path d="M 163.40724182128906 33.43941879272461 C 150.78335571289062 25.797456741333008 112.78788757324219 37.33469772338867 130.30564880371094 22.70257568359375" stroke-width="3.0" fill="none" stroke="rgb(0, 0, 0)" stroke-opacity="0" stroke-linecap="round" stroke-linejoin="round" />
    <path d="M 161.00450134277344 197.21031188964844 C 98.00142669677734 167.4025421142578 115.31494140625 157.25294494628906 160.7841033935547 186.27838134765625" stroke-width="3.0" fill="none" stroke="rgb(0, 0, 0)" stroke-opacity="0" stroke-linecap="round" stroke-linejoin="round" />
    <path d="M 51.781517028808594 90.66671752929688 C 110.93170166015625 83.51837158203125 123.66976165771484 63.181243896484375 109.59935760498047 139.62835693359375" stroke-width="3.0" fill="none" stroke="rgb(1, 0, 0)" stroke-opacity="0.99626994" stroke-linecap="round" stroke-linejoin="round" />
    <path d="M 164.3843994140625 160.0208740234375 C 163.98480224609375 193.85023498535156 173.3301544189453 182.1800994873047 241.90476989746094 186.4176788330078" stroke-width="3.0" fill="none" stroke="rgb(0, 0, 0)" stroke-opacity="0" stroke-linecap="round" stroke-linejoin="round" />
    <path d="M 159.67825317382812 162.9522705078125 C 78.74004364013672 157.94320678710938 46.74480438232422 186.623046875 58.96562576293945 195.03533935546875" stroke-width="3.0" fill="none" stroke="rgb(0, 0, 0)" stroke-opacity="0" stroke-linecap="round" stroke-linejoin="round" />
    <path d="M 71.34133911132812 182.18722534179688 C 42.894287109375 167.26605224609375 53.0736198425293 183.87484741210938 82.33658599853516 178.28343200683594" stroke-width="3.0" fill="none" stroke="rgb(0, 0, 0)" stroke-opacity="0" stroke-linecap="round" stroke-linejoin="round" />
    <path d="M 164.15878295898438 121.72407531738281 C 163.4229736328125 119.63091278076172 160.34088134765625 119.79216766357422 160.83395385742188 113.09011840820312" stroke-width="3.0" fill="none" stroke="rgb(0, 0, 0)" stroke-opacity="0" stroke-linecap="round" stroke-linejoin="round" />
    <path d="M 193.67059326171875 63.81513977050781 C 150.70155334472656 9.083962440490723 110.95390319824219 20.956968307495117 73.50328063964844 30.868745803833008" stroke-width="3.0" fill="none" stroke="rgb(-1, 0, 0)" stroke-opacity="1.0031486" stroke-linecap="round" stroke-linejoin="round" />
    <path d="M 40.159423828125 86.07615661621094 C 97.67401885986328 79.62664794921875 115.27761840820312 79.35325622558594 167.68975830078125 103.55136108398438" stroke-width="3.0" fill="none" stroke="rgb(1, 0, 0)" stroke-opacity="0.7516875" stroke-linecap="round" stroke-linejoin="round" />
    <path d="M 66.94612884521484 136.742431640625 C 95.07735443115234 132.45460510253906 97.59674835205078 42.48622131347656 67.78639221191406 93.78588104248047" stroke-width="3.0" fill="none" stroke="rgb(0, -2, 1)" stroke-opacity="1.0047846" stroke-linecap="round" stroke-linejoin="round" />
    <path d="M 130.88162231445312 22.663637161254883 C 165.42071533203125 29.576019287109375 168.21646118164062 47.35968780517578 136.39332580566406 31.918880462646484" stroke-width="3.0" fill="none" stroke="rgb(0, 0, 0)" stroke-opacity="0" stroke-linecap="round" stroke-linejoin="round" />
    <path d="M 166.49893188476562 96.54525756835938 C 139.2786407470703 106.20661926269531 128.7286376953125 109.54326629638672 177.30038452148438 102.82361602783203" stroke-width="3.0" fill="none" stroke="rgb(0, 0, 0)" stroke-opacity="1.0015366" stroke-linecap="round" stroke-linejoin="round" />
    <path d="M 11.39533519744873 -7.2853312492370605 C 11.2022123336792 -2.590641736984253 11.940726280212402 -1.9089664220809937 13.95965576171875 -10.27702808380127" stroke-width="3.0" fill="none" stroke="rgb(0, 0, 0)" stroke-opacity="0.8398758" stroke-linecap="round" stroke-linejoin="round" />
    <path d="M -8.582418441772461 11.383769989013672 C -6.995993614196777 7.20436954498291 -9.449193000793457 11.56286907196045 -12.605854988098145 10.51810073852539" stroke-width="3.0" fill="none" stroke="rgb(0, 0, 0)" stroke-opacity="0.8927899" stroke-linecap="round" stroke-linejoin="round" />
    <path d="M 169.88088989257812 -7.115390300750732 C 160.5875244140625 -5.85655403137207 168.57376098632812 -11.714582443237305 178.31280517578125 -5.655657768249512" stroke-width="3.0" fill="none" stroke="rgb(0, 0, 0)" stroke-opacity="0" stroke-linecap="round" stroke-linejoin="round" />
    <path d="M 174.0144805908203 97.41317749023438 C 163.77110290527344 107.73514556884766 156.3852081298828 82.69246673583984 175.9884490966797 77.7645263671875" stroke-width="3.0" fill="none" stroke="rgb(2, 0, 0)" stroke-opacity="0" stroke-linecap="round" stroke-linejoin="round" />
    <path d="M 180.2188262939453 171.77842712402344 C 253.8756866455078 170.6679229736328 248.83448791503906 192.86415100097656 248.0771026611328 198.25326538085938" stroke-width="3.0" fill="none" stroke="rgb(0, 0, 0)" stroke-opacity="0" stroke-linecap="round" stroke-linejoin="round" />
    <path d="M 73.72573852539062 -4.588415145874023 C 125.38811492919922 -18.474323272705078 130.3126220703125 18.854150772094727 143.0872802734375 24.16875648498535" stroke-width="3.0" fill="none" stroke="rgb(0, 0, 0)" stroke-opacity="0" stroke-linecap="round" stroke-linejoin="round" />
    <path d="M 187.43641662597656 78.14656829833984 C 166.2426300048828 43.7752799987793 156.19549560546875 49.2247314453125 147.69876098632812 27.98521614074707" stroke-width="3.0" fill="none" stroke="rgb(0, 0, 0)" stroke-opacity="0" stroke-linecap="round" stroke-linejoin="round" />
    <path d="M 134.05113220214844 24.20138931274414 C 166.3531494140625 40.1875 137.45338439941406 31.961362838745117 113.9990005493164 31.153091430664062" stroke-width="3.0" fill="none" stroke="rgb(0, 0, 0)" stroke-opacity="0" stroke-linecap="round" stroke-linejoin="round" />
    <path d="M 188.5950164794922 197.96627807617188 C 89.49002075195312 192.0789337158203 124.35289001464844 179.029052734375 235.223388671875 177.23374938964844" stroke-width="3.0" fill="none" stroke="rgb(0, 0, -1)" stroke-opacity="0.99484754" stroke-linecap="round" stroke-linejoin="round" />
    <path d="M 140.90240478515625 102.7474136352539 C 134.53404235839844 102.87137603759766 200.56675720214844 111.43647003173828 160.71914672851562 102.38265228271484" stroke-width="3.0" fill="none" stroke="rgb(0, 0, 0)" stroke-opacity="1.0003875" stroke-linecap="round" stroke-linejoin="round" />
    <path d="M 129.39837646484375 139.66375732421875 C 115.19560241699219 65.91108703613281 152.8821258544922 80.85932159423828 58.96865463256836 90.71475982666016" stroke-width="3.0" fill="none" stroke="rgb(0, 0, 0)" stroke-opacity="1.0004681" stroke-linecap="round" stroke-linejoin="round" />
    <path d="M 168.61378479003906 34.64622116088867 C 200.15225219726562 69.75880432128906 179.45779418945312 60.21113967895508 168.57667541503906 49.254947662353516" stroke-width="3.0" fill="none" stroke="rgb(0, 0, 0)" stroke-opacity="0" stroke-linecap="round" stroke-linejoin="round" />
    <path d="M 52.96989822387695 86.19136047363281 C 56.41536331176758 81.16818237304688 58.619789123535156 68.40184020996094 91.31082153320312 94.30655670166016" stroke-width="3.0" fill="none" stroke="rgb(0, 0, 0)" stroke-opacity="0" stroke-linecap="round" stroke-linejoin="round" />
    <path d="M 185.73355102539062 88.95687866210938 C 208.49569702148438 88.79244232177734 201.29989624023438 97.43539428710938 184.06219482421875 87.7033920288086" stroke-width="3.0" fill="none" stroke="rgb(0, 0, 0)" stroke-opacity="0" stroke-linecap="round" stroke-linejoin="round" />
    <path d="M 113.6259536743164 143.02317810058594 C 140.36074829101562 126.65204620361328 94.39828491210938 127.11493682861328 89.64241790771484 114.27513885498047" stroke-width="3.0" fill="none" stroke="rgb(0, 0, 0)" stroke-opacity="0" stroke-linecap="round" stroke-linejoin="round" />
    <path d="M 172.50433349609375 56.13919448852539 C 151.38015747070312 43.18666076660156 151.98780822753906 24.755544662475586 166.8520965576172 42.23684310913086" stroke-width="3.0" fill="none" stroke="rgb(0, 0, 0)" stroke-opacity="0" stroke-linecap="round" stroke-linejoin="round" />
    <path d="M 118.29007720947266 174.41531372070312 C 133.83712768554688 142.2358856201172 140.12538146972656 163.03543090820312 206.00933837890625 163.95156860351562" stroke-width="3.0" fill="none" stroke="rgb(0, 0, 0)" stroke-opacity="0" stroke-linecap="round" stroke-linejoin="round" />
    <path d="M 167.92381286621094 104.37862396240234 C 226.2631072998047 105.80233764648438 137.51187133789062 112.47997283935547 142.87203979492188 93.91687774658203" stroke-width="3.0" fill="none" stroke="rgb(0, -3, 1)" stroke-opacity="1.0019901" stroke-linecap="round" stroke-linejoin="round" />
    <path d="M 143.591064453125 95.8818359375 C 142.2620849609375 150.265869140625 180.82186889648438 188.08255004882812 145.10511779785156 121.30725860595703" stroke-width="3.0" fill="none" stroke="rgb(-1, -1, 0)" stroke-opacity="1.005687" stroke-linecap="round" stroke-linejoin="round" />
    <path d="M 159.45423889160156 55.186710357666016 C 170.58453369140625 67.80513000488281 164.362060546875 63.68490982055664 149.10574340820312 49.61372756958008" stroke-width="3.0" fill="none" stroke="rgb(0, 0, 0)" stroke-opacity="0" stroke-linecap="round" stroke-linejoin="round" />
    <path d="M 35.781341552734375 75.67263793945312 C 45.07881164550781 39.38321304321289 101.697265625 14.563916206359863 150.83607482910156 30.22542953491211" stroke-width="3.0" fill="none" stroke="rgb(0, 0, 0)" stroke-opacity="1.00391" stroke-linecap="round" stroke-linejoin="round" />
    <path d="M 41.75430679321289 193.8954620361328 C 91.2081069946289 200.51263427734375 106.97322845458984 205.55189514160156 142.02000427246094 196.23162841796875" stroke-width="3.0" fill="none" stroke="rgb(0, 0, 0)" stroke-opacity="1.0010694" stroke-linecap="round" stroke-linejoin="round" />
    <path d="M 192.6562042236328 175.26693725585938 C 201.59461975097656 155.44134521484375 224.4341278076172 140.27197265625 233.65692138671875 180.68780517578125" stroke-width="3.0" fill="none" stroke="rgb(0, 0, 0)" stroke-opacity="0" stroke-linecap="round" stroke-linejoin="round" />
    <path d="M 137.19093322753906 83.67750549316406 C 229.85025024414062 128.1307373046875 206.82301330566406 72.212158203125 161.30535888671875 32.37860870361328" stroke-width="3.0" fill="none" stroke="rgb(-1, -1, 0)" stroke-opacity="1.0067575" stroke-linecap="round" stroke-linejoin="round" />
    <path d="M 112.97315216064453 56.12820816040039 C 100.57416534423828 50.88780975341797 107.02337646484375 51.69713592529297 72.58636474609375 52.186161041259766" stroke-width="3.0" fill="none" stroke="rgb(0, 0, 0)" stroke-opacity="0" stroke-linecap="round" stroke-linejoin="round" />
    <path d="M 85.73867797851562 56.00746536254883 C 58.94574737548828 57.17842483520508 34.87582778930664 106.25042724609375 58.116817474365234 80.20927429199219" stroke-width="3.0" fill="none" stroke="rgb(0, 0, 0)" stroke-opacity="0" stroke-linecap="round" stroke-linejoin="round" />
    <path d="M 96.35824584960938 80.9425048828125 C 120.48004913330078 79.45098114013672 85.07977294921875 97.10991668701172 43.655555725097656 85.63290405273438" stroke-width="3.0" fill="none" stroke="rgb(0, 0, 0)" stroke-opacity="0.9779963" stroke-linecap="round" stroke-linejoin="round" />
    <path d="M 154.09498596191406 93.25138092041016 C 123.06666564941406 72.33908081054688 78.626220703125 82.02050018310547 125.51141357421875 81.16309356689453" stroke-width="3.0" fill="none" stroke="rgb(0, 0, 0)" stroke-opacity="0.9814505" stroke-linecap="round" stroke-linejoin="round" />
    <path d="M 42.43260955810547 188.02622985839844 C 49.47811508178711 203.33383178710938 88.0909194946289 186.0985107421875 74.75777435302734 198.29153442382812" stroke-width="3.0" fill="none" stroke="rgb(0, 0, 0)" stroke-opacity="0" stroke-linecap="round" stroke-linejoin="round" />
    <path d="M 129.90504455566406 25.216209411621094 C 128.1311492919922 42.35100555419922 116.09139251708984 40.75063705444336 129.2699737548828 38.98630905151367" stroke-width="3.0" fill="none" stroke="rgb(0, 0, 0)" stroke-opacity="0" stroke-linecap="round" stroke-linejoin="round" />
    <path d="M 150.88861083984375 141.5429229736328 C 132.31024169921875 75.37051391601562 177.70993041992188 72.11090850830078 48.42457580566406 73.19725799560547" stroke-width="3.0" fill="none" stroke="rgb(0, -1, 0)" stroke-opacity="1.0007768" stroke-linecap="round" stroke-linejoin="round" />
    <path d="M 77.6720199584961 79.52474975585938 C 137.8548583984375 99.55795288085938 129.35874938964844 99.48247528076172 105.7678451538086 75.04315185546875" stroke-width="3.0" fill="none" stroke="rgb(0, 0, 0)" stroke-opacity="0" stroke-linecap="round" stroke-linejoin="round" />
    <path d="M 80.45928955078125 151.13653564453125 C 127.14686584472656 85.29240417480469 50.48230743408203 54.937198638916016 158.49990844726562 88.73184967041016" stroke-width="3.0" fill="none" stroke="rgb(0, 0, 0)" stroke-opacity="0.9986716" stroke-linecap="round" stroke-linejoin="round" />
    <path d="M 133.13990783691406 199.77145385742188 C 106.64720153808594 172.1771240234375 145.79351806640625 150.8142852783203 104.73326110839844 160.35630798339844" stroke-width="3.0" fill="none" stroke="rgb(0, 0, 0)" stroke-opacity="0.9875338" stroke-linecap="round" stroke-linejoin="round" />
    <path d="M 123.741943359375 22.49272346496582 C 88.64425659179688 18.923131942749023 63.614620208740234 22.142120361328125 72.61371612548828 -8.418853759765625" stroke-width="3.0" fill="none" stroke="rgb(0, 0, 0)" stroke-opacity="0" stroke-linecap="round" stroke-linejoin="round" />
    <path d="M 177.90684509277344 7.971785545349121 C 181.1088104248047 53.02070236206055 127.73014068603516 19.001296997070312 89.5728759765625 16.869871139526367" stroke-width="3.0" fill="none" stroke="rgb(0, 0, 0)" stroke-opacity="0" stroke-linecap="round" stroke-linejoin="round" />
    <path d="M 227.950927734375 209.9297332763672 C 224.76589965820312 214.46212768554688 225.76739501953125 215.19715881347656 226.6997833251953 215.35986328125" stroke-width="3.0" fill="none" stroke="rgb(0, 0, 0)" stroke-opacity="0.7619667" stroke-linecap="round" stroke-linejoin="round" />
    <path d="M 41.50259017944336 13.653824806213379 C 49.740230560302734 2.3512954711914062 55.24319839477539 4.221874713897705 59.964298248291016 -5.518160820007324" stroke-width="3.0" fill="none" stroke="rgb(0, 0, 0)" stroke-opacity="0" stroke-linecap="round" stroke-linejoin="round" />
    <path d="M 31.915834426879883 209.00375366210938 C 30.17522430419922 209.64102172851562 40.23908996582031 236.8690643310547 64.39996337890625 225.4149169921875" stroke-width="3.0" fill="none" stroke="rgb(0, 0, 0)" stroke-opacity="0" stroke-linecap="round" stroke-linejoin="round" />
    <path d="M -32.11226272583008 206.20474243164062 C 7.585838794708252 189.57479858398438 75.29350280761719 209.31448364257812 76.39666748046875 155.489013671875" stroke-width="3.0" fill="none" stroke="rgb(0, 0, 0)" stroke-opacity="1.0045239" stroke-linecap="round" stroke-linejoin="round" />
    <path d="M 195.71388244628906 64.86866760253906 C 190.21376037597656 95.50777435302734 159.4805908203125 106.15380859375 160.2011260986328 89.33521270751953" stroke-width="3.0" fill="none" stroke="rgb(0, 0, 0)" stroke-opacity="0" stroke-linecap="round" stroke-linejoin="round" />
    <path d="M 157.6058807373047 161.1729278564453 C 31.897756576538086 149.54324340820312 41.66800308227539 155.98118591308594 81.49919128417969 114.27943420410156" stroke-width="3.0" fill="none" stroke="rgb(-1, 0, 0)" stroke-opacity="1.0038799" stroke-linecap="round" stroke-linejoin="round" />
    <path d="M 11.336929321289062 135.6256103515625 C 15.507041931152344 126.77178192138672 31.772594451904297 124.07425689697266 28.335920333862305 124.7940902709961" stroke-width="3.0" fill="none" stroke="rgb(0, 0, 0)" stroke-opacity="0" stroke-linecap="round" stroke-linejoin="round" />
    <path d="M 32.660057067871094 51.448604583740234 C 25.326038360595703 39.17033004760742 48.27896499633789 51.649444580078125 78.04631042480469 82.39216613769531" stroke-width="3.0" fill="none" stroke="rgb(0, 0, 0)" stroke-opacity="0" stroke-linecap="round" stroke-linejoin="round" />
    <path d="M 68.71455383300781 80.4178237915039 C 147.6934051513672 86.6434555053711 115.95835876464844 70.17337036132812 49.0445671081543 83.8512954711914" stroke-width="3.0" fill="none" stroke="rgb(0, -1, 0)" stroke-opacity="1.0065222" stroke-linecap="round" stroke-linejoin="round" />
    <path d="M 167.17489624023438 19.177141189575195 C 164.46798706054688 38.22261047363281 161.25132751464844 44.83713150024414 174.6570281982422 41.83269119262695" stroke-width="3.0" fill="none" stroke="rgb(0, 0, 0)" stroke-opacity="0" stroke-linecap="round" stroke-linejoin="round" />
    <path d="M 156.81024169921875 198.1202850341797 C 107.4669189453125 165.73788452148438 73.16252136230469 129.47181701660156 52.74374008178711 162.4921417236328" stroke-width="3.0" fill="none" stroke="rgb(0, 0, 0)" stroke-opacity="0" stroke-linecap="round" stroke-linejoin="round" />
    <path d="M 44.659664154052734 126.10211944580078 C 44.303131103515625 127.7822265625 45.49525833129883 128.57884216308594 44.57908248901367 126.3766098022461" stroke-width="3.0" fill="none" stroke="rgb(0, 0, 0)" stroke-opacity="0" stroke-linecap="round" stroke-linejoin="round" />
    <path d="M 153.83865356445312 38.50788879394531 C 148.63522338867188 43.24937438964844 172.5702667236328 71.79376220703125 174.6949462890625 68.45958709716797" stroke-width="3.0" fill="none" stroke="rgb(0, 0, 0)" stroke-opacity="0" stroke-linecap="round" stroke-linejoin="round" />
    <path d="M 130.7587127685547 79.79118347167969 C 142.39935302734375 83.98444366455078 148.257568359375 87.61148071289062 189.24964904785156 97.48185729980469" stroke-width="3.0" fill="none" stroke="rgb(0, -1, 0)" stroke-opacity="1.004327" stroke-linecap="round" stroke-linejoin="round" />
    <path d="M 60.790462493896484 -3.4148409366607666 C 57.06727981567383 -9.138769149780273 58.92683410644531 -6.557621002197266 63.216644287109375 -6.079841136932373" stroke-width="3.0" fill="none" stroke="rgb(0, 0, 0)" stroke-opacity="0.8802971" stroke-linecap="round" stroke-linejoin="round" />
    <path d="M 59.706626892089844 145.972412109375 C 156.91680908203125 164.36483764648438 137.07196044921875 176.42300415039062 105.57083892822266 154.56924438476562" stroke-width="3.0" fill="none" stroke="rgb(-1, -1, 1)" stroke-opacity="1.005524" stroke-linecap="round" stroke-linejoin="round" />
    <path d="M 85.12206268310547 93.84990692138672 C 32.68242645263672 85.8341293334961 29.842529296875 79.09819793701172 102.50643920898438 79.95268249511719" stroke-width="3.0" fill="none" stroke="rgb(0, -1, 1)" stroke-opacity="1.0030515" stroke-linecap="round" stroke-linejoin="round" />
    <path d="M 68.42750549316406 174.02230834960938 C 82.82671356201172 146.641357421875 110.8544692993164 144.74032592773438 83.25701141357422 146.51263427734375" stroke-width="3.0" fill="none" stroke="rgb(0, -1, 0)" stroke-opacity="0" stroke-linecap="round" stroke-linejoin="round" />
    <path d="M 203.26406860351562 43.9903564453125 C 209.6090087890625 49.408775329589844 208.63038635253906 53.63416290283203 209.01107788085938 52.20346450805664" stroke-width="3.0" fill="none" stroke="rgb(0, 0, 0)" stroke-opacity="0" stroke-linecap="round" stroke-linejoin="round" />
    <path d="M 180.83291625976562 98.9966812133789 C 127.21574401855469 73.5751724243164 101.89881134033203 69.45979309082031 60.620689392089844 70.07491302490234" stroke-width="3.0" fill="none" stroke="rgb(0, -1, 0)" stroke-opacity="0.9142889" stroke-linecap="round" stroke-linejoin="round" />
    <path d="M 21.050045013427734 11.708580017089844 C 47.56159210205078 -6.058905601501465 99.71063232421875 -15.279489517211914 61.73696517944336 -9.396318435668945" stroke-width="3.0" fill="none" stroke="rgb(0, 0, 0)" stroke-opacity="0" stroke-linecap="round" stroke-linejoin="round" />
    <path d="M 139.3037872314453 162.8197021484375 C 153.3809051513672 179.76608276367188 187.16665649414062 182.77296447753906 216.37754821777344 202.6378631591797" stroke-width="3.0" fill="none" stroke="rgb(0, 0, 0)" stroke-opacity="0" stroke-linecap="round" stroke-linejoin="round" />
    <path d="M 84.1449203491211 8.311918258666992 C 105.5526123046875 -14.697498321533203 145.18572998046875 -8.392596244812012 147.72987365722656 4.219018459320068" stroke-width="3.0" fill="none" stroke="rgb(0, 0, 0)" stroke-opacity="0" stroke-linecap="round" stroke-linejoin="round" />
    <path d="M 130.07382202148438 91.00814056396484 C 127.77322387695312 70.18194580078125 87.04862213134766 90.69864654541016 45.03460693359375 76.1709976196289" stroke-width="3.0" fill="none" stroke="rgb(0, -1, 0)" stroke-opacity="1.0004827" stroke-linecap="round" stroke-linejoin="round" />
    <path d="M 114.83177947998047 155.3191375732422 C 135.12936401367188 170.27239990234375 140.5196533203125 203.70787048339844 118.50712585449219 161.10845947265625" stroke-width="3.0" fill="none" stroke="rgb(0, -1, 1)" stroke-opacity="0.83844155" stroke-linecap="round" stroke-linejoin="round" />
    <path d="M 133.73431396484375 195.51210021972656 C 103.85428619384766 174.34744262695312 107.8149185180664 120.76080322265625 110.5728988647461 137.64108276367188" stroke-width="3.0" fill="none" stroke="rgb(0, 0, 0)" stroke-opacity="0" stroke-linecap="round" stroke-linejoin="round" />
    <path d="M 144.26190185546875 131.3418731689453 C 133.6919708251953 96.32345581054688 155.7758026123047 88.07967376708984 116.08839416503906 77.33936309814453" stroke-width="3.0" fill="none" stroke="rgb(0, -1, 1)" stroke-opacity="1.0021063" stroke-linecap="round" stroke-linejoin="round" />
    <path d="M 51.09414291381836 194.5677032470703 C 99.18185424804688 202.04574584960938 91.82439422607422 129.90753173828125 80.14044952392578 165.25485229492188" stroke-width="3.0" fill="none" stroke="rgb(0, 0, 0)" stroke-opacity="0.84942967" stroke-linecap="round" stroke-linejoin="round" />
    <path d="M 175.58779907226562 95.615966796875 C 148.974609375 92.41783142089844 113.85043334960938 102.16680145263672 195.83042907714844 103.19873809814453" stroke-width="3.0" fill="none" stroke="rgb(0, -1, 1)" stroke-opacity="1.0041157" stroke-linecap="round" stroke-linejoin="round" />
    <path d="M 190.9261016845703 97.25086212158203 C 213.9005584716797 81.11793518066406 177.3072967529297 26.471595764160156 145.74234008789062 25.80837059020996" stroke-width="3.0" fill="none" stroke="rgb(-1, -1, 0)" stroke-opacity="1.0043722" stroke-linecap="round" stroke-linejoin="round" />
    <path d="M -8.956551551818848 37.524635314941406 C -3.203674554824829 34.33504867553711 -9.958778381347656 32.892059326171875 -10.137411117553711 36.82981491088867" stroke-width="3.0" fill="none" stroke="rgb(0, 0, 0)" stroke-opacity="0.88407123" stroke-linecap="round" stroke-linejoin="round" />
    <path d="M 135.34278869628906 192.03424072265625 C 111.57722473144531 149.5904083251953 118.69649505615234 174.95974731445312 156.3063507080078 162.39462280273438" stroke-width="3.0" fill="none" stroke="rgb(-1, -1, 0)" stroke-opacity="1.0071162" stroke-linecap="round" stroke-linejoin="round" />
  </g>
</svg>