<?xml version="1.0" ?>
<svg xmlns="http://www.w3.org/2000/svg" version="1.1" width="224" height="224">
  <defs/>
  <g>
    <path d="M 39.0 10.0 C 36.27325439453125 15.10346508026123 32.453495025634766 16.575584411621094 37.51307678222656 17.542898178100586" stroke-width="3.0" fill="none" stroke="rgb(0, 0, 0)" stroke-opacity="1.0" stroke-linecap="round" stroke-linejoin="round"/>
    <path d="M 52.0 66.0 C 52.75657653808594 68.01842498779297 54.90055465698242 68.36566925048828 56.66118240356445 62.834136962890625" stroke-width="3.0" fill="none" stroke="rgb(0, 0, 0)" stroke-opacity="1.0" stroke-linecap="round" stroke-linejoin="round"/>
    <path d="M 80.0 127.0 C 82.75482177734375 132.3104705810547 84.48214721679688 130.6814422607422 86.92798614501953 131.19216918945312" stroke-width="3.0" fill="none" stroke="rgb(0, 0, 0)" stroke-opacity="1.0" stroke-linecap="round" stroke-linejoin="round"/>
    <path d="M 106.0 4.0 C 110.71812438964844 5.531948089599609 114.44062805175781 0.12414763867855072 116.93778991699219 -2.3465070724487305" stroke-width="3.0" fill="none" stroke="rgb(0, 0, 0)" stroke-opacity="1.0" stroke-linecap="round" stroke-linejoin="round"/>
    <path d="M 143.0 32.0 C 138.4899139404297 27.945283889770508 135.857421875 24.568260192871094 135.14080810546875 23.72870635986328" stroke-width="3.0" fill="none" stroke="rgb(0, 0, 0)" stroke-opacity="1.0" stroke-linecap="round" stroke-linejoin="round"/>
    <path d="M 123.0 192.0 C 123.55850219726562 191.7449188232422 128.44140625 188.37762451171875 132.13693237304688 187.52804565429688" stroke-width="3.0" fill="none" stroke="rgb(0, 0, 0)" stroke-opacity="1.0" stroke-linecap="round" stroke-linejoin="round"/>
    <path d="M 84.0 79.0 C 81.06170654296875 80.2563247680664 83.79459381103516 74.86531066894531 88.66007232666016 80.41590881347656" stroke-width="3.0" fill="none" stroke="rgb(0, 0, 0)" stroke-opacity="1.0" stroke-linecap="round" stroke-linejoin="round"/>
    <path d="M 153.0 187.0 C 153.21585083007812 187.5434112548828 154.0832061767578 189.08966064453125 159.2909393310547 189.74098205566406" stroke-width="3.0" fill="none" stroke="rgb(0, 0, 0)" stroke-opacity="1.0" stroke-linecap="round" stroke-linejoin="round"/>
    <path d="M 86.0 159.0 C 80.66746520996094 157.7644805908203 75.21405792236328 154.9779815673828 75.9329833984375 156.69996643066406" stroke-width="3.0" fill="none" stroke="rgb(0, 0, 0)" stroke-opacity="1.0" stroke-linecap="round" stroke-linejoin="round"/>
    <path d="M 61.0 198.0 C 62.79546356201172 200.07379150390625 64.63897705078125 198.83633422851562 61.1533203125 193.7347412109375" stroke-width="3.0" fill="none" stroke="rgb(0, 0, 0)" stroke-opacity="1.0" stroke-linecap="round" stroke-linejoin="round"/>
    <path d="M 146.0 106.0 C 151.08953857421875 107.83184051513672 153.8575897216797 106.04063415527344 154.8764190673828 108.62698364257812" stroke-width="3.0" fill="none" stroke="rgb(0, 0, 0)" stroke-opacity="1.0" stroke-linecap="round" stroke-linejoin="round"/>
    <path d="M 139.0 32.0 C 139.26119995117188 30.227123260498047 139.45265197753906 29.803068161010742 144.79226684570312 30.046398162841797" stroke-width="3.0" fill="none" stroke="rgb(0, 0, 0)" stroke-opacity="1.0" stroke-linecap="round" stroke-linejoin="round"/>
    <path d="M 118.0 67.0 C 115.29783630371094 62.67352294921875 113.5946273803711 57.13353729248047 118.61597442626953 56.38508224487305" stroke-width="3.0" fill="none" stroke="rgb(0, 0, 0)" stroke-opacity="1.0" stroke-linecap="round" stroke-linejoin="round"/>
    <path d="M 55.0 138.0 C 54.91224670410156 136.98489379882812 59.26831817626953 140.41152954101562 60.85744857788086 138.1143798828125" stroke-width="3.0" fill="none" stroke="rgb(0, 0, 0)" stroke-opacity="1.0" stroke-linecap="round" stroke-linejoin="round"/>
    <path d="M 119.0 36.0 C 119.38902282714844 32.89959716796875 114.36248779296875 34.35749053955078 115.968994140625 38.23472213745117" stroke-width="3.0" fill="none" stroke="rgb(0, 0, 0)" stroke-opacity="1.0" stroke-linecap="round" stroke-linejoin="round"/>
    <path d="M 133.0 73.0 C 130.5142364501953 68.96102905273438 130.34683227539062 65.1135482788086 135.159423828125 65.11392211914062" stroke-width="3.0" fill="none" stroke="rgb(0, 0, 0)" stroke-opacity="1.0" stroke-linecap="round" stroke-linejoin="round"/>
    <path d="M 12.0 3.0 C 8.324358940124512 3.810525417327881 13.906116485595703 2.1826186180114746 17.789257049560547 -2.914945363998413" stroke-width="3.0" fill="none" stroke="rgb(0, 0, 0)" stroke-opacity="1.0" stroke-linecap="round" stroke-linejoin="round"/>
    <path d="M 2.0 14.0 C 0.3977760076522827 11.614858627319336 -2.4525623321533203 16.10871124267578 -5.948818683624268 15.421422958374023" stroke-width="3.0" fill="none" stroke="rgb(0, 0, 0)" stroke-opacity="1.0" stroke-linecap="round" stroke-linejoin="round"/>
    <path d="M 179.0 12.0 C 181.54954528808594 8.612016677856445 186.39224243164062 6.989651203155518 181.55386352539062 10.928163528442383" stroke-width="3.0" fill="none" stroke="rgb(0, 0, 0)" stroke-opacity="1.0" stroke-linecap="round" stroke-linejoin="round"/>
    <path d="M 185.0 89.0 C 184.7310333251953 94.17971801757812 181.17494201660156 92.15824890136719 181.9097900390625 87.72309875488281" stroke-width="3.0" fill="none" stroke="rgb(0, 0, 0)" stroke-opacity="1.0" stroke-linecap="round" stroke-linejoin="round"/>
    <path d="M 207.0 192.0 C 206.28826904296875 190.96495056152344 211.43185424804688 186.68890380859375 207.42520141601562 186.33584594726562" stroke-width="3.0" fill="none" stroke="rgb(0, 0, 0)" stroke-opacity="1.0" stroke-linecap="round" stroke-linejoin="round"/>
    <path d="M 101.0 29.0 C 96.25238037109375 26.899761199951172 100.88358306884766 30.969364166259766 102.6729507446289 30.67487144470215" stroke-width="3.0" fill="none" stroke="rgb(0, 0, 0)" stroke-opacity="1.0" stroke-linecap="round" stroke-linejoin="round"/>
    <path d="M 149.0 56.0 C 153.883056640625 52.3941535949707 152.68658447265625 56.33704376220703 149.1048126220703 59.77556610107422" stroke-width="3.0" fill="none" stroke="rgb(0, 0, 0)" stroke-opacity="1.0" stroke-linecap="round" stroke-linejoin="round"/>
    <path d="M 130.0 8.0 C 132.9986114501953 10.95608901977539 131.28915405273438 12.362907409667969 134.52987670898438 14.336222648620605" stroke-width="3.0" fill="none" stroke="rgb(0, 0, 0)" stroke-opacity="1.0" stroke-linecap="round" stroke-linejoin="round"/>
    <path d="M 135.0 212.0 C 133.39321899414062 206.57098388671875 137.1886749267578 206.64039611816406 132.50531005859375 211.7725830078125" stroke-width="3.0" fill="none" stroke="rgb(0, 0, 0)" stroke-opacity="1.0" stroke-linecap="round" stroke-linejoin="round"/>
    <path d="M 166.0 91.0 C 170.02108764648438 93.49617767333984 166.80361938476562 96.07667541503906 171.81008911132812 91.28058624267578" stroke-width="3.0" fill="none" stroke="rgb(0, 0, 0)" stroke-opacity="1.0" stroke-linecap="round" stroke-linejoin="round"/>
    <path d="M 108.0 69.0 C 104.7081069946289 72.63314819335938 107.07058715820312 77.19725036621094 109.22369384765625 73.68028259277344" stroke-width="3.0" fill="none" stroke="rgb(0, 0, 0)" stroke-opacity="1.0" stroke-linecap="round" stroke-linejoin="round"/>
    <path d="M 151.0 59.0 C 146.50802612304688 58.87383270263672 149.02963256835938 55.29642105102539 150.4344482421875 58.60590744018555" stroke-width="3.0" fill="none" stroke="rgb(0, 0, 0)" stroke-opacity="1.0" stroke-linecap="round" stroke-linejoin="round"/>
    <path d="M 63.0 98.0 C 60.653297424316406 92.40099334716797 63.47751998901367 91.0494384765625 68.52500915527344 95.0559310913086" stroke-width="3.0" fill="none" stroke="rgb(0, 0, 0)" stroke-opacity="1.0" stroke-linecap="round" stroke-linejoin="round"/>
    <path d="M 179.0 97.0 C 183.62269592285156 96.62017059326172 179.876708984375 100.28251647949219 182.97674560546875 95.50135803222656" stroke-width="3.0" fill="none" stroke="rgb(0, 0, 0)" stroke-opacity="1.0" stroke-linecap="round" stroke-linejoin="round"/>
    <path d="M 131.0 138.0 C 126.44476318359375 135.74087524414062 121.90193176269531 130.8310546875 126.12320709228516 131.77369689941406" stroke-width="3.0" fill="none" stroke="rgb(0, 0, 0)" stroke-opacity="1.0" stroke-linecap="round" stroke-linejoin="round"/>
    <path d="M 156.0 55.0 C 150.5980987548828 49.6660041809082 145.44154357910156 45.15790557861328 148.87599182128906 44.773948669433594" stroke-width="3.0" fill="none" stroke="rgb(0, 0, 0)" stroke-opacity="1.0" stroke-linecap="round" stroke-linejoin="round"/>
    <path d="M 106.0 158.0 C 101.39134216308594 159.6074981689453 97.55091857910156 159.08416748046875 101.88059997558594 160.62571716308594" stroke-width="3.0" fill="none" stroke="rgb(0, 0, 0)" stroke-opacity="1.0" stroke-linecap="round" stroke-linejoin="round"/>
    <path d="M 149.0 85.0 C 145.0535888671875 85.49879455566406 144.5078125 88.69402313232422 144.33831787109375 86.12837219238281" stroke-width="3.0" fill="none" stroke="rgb(0, 0, 0)" stroke-opacity="1.0" stroke-linecap="round" stroke-linejoin="round"/>
    <path d="M 145.0 134.0 C 145.6793975830078 138.4483184814453 144.989013671875 143.1625213623047 147.94769287109375 147.6233367919922" stroke-width="3.0" fill="none" stroke="rgb(0, 0, 0)" stroke-opacity="1.0" stroke-linecap="round" stroke-linejoin="round"/>
    <path d="M 134.0 71.0 C 133.47349548339844 66.64747619628906 135.0100555419922 68.25580596923828 138.467041015625 71.64192199707031" stroke-width="3.0" fill="none" stroke="rgb(0, 0, 0)" stroke-opacity="1.0" stroke-linecap="round" stroke-linejoin="round"/>
    <path d="M 66.0 38.0 C 64.62554168701172 37.8849983215332 68.4097900390625 36.920433044433594 70.8248291015625 35.04060745239258" stroke-width="3.0" fill="none" stroke="rgb(0, 0, 0)" stroke-opacity="1.0" stroke-linecap="round" stroke-linejoin="round"/>
    <path d="M 96.0 195.0 C 93.11221313476562 192.7723388671875 95.1692123413086 195.19180297851562 93.31761932373047 197.5029296875" stroke-width="3.0" fill="none" stroke="rgb(0, 0, 0)" stroke-opacity="1.0" stroke-linecap="round" stroke-linejoin="round"/>
    <path d="M 194.0 187.0 C 198.39883422851562 189.33255004882812 200.96022033691406 184.63934326171875 200.3662567138672 186.20309448242188" stroke-width="3.0" fill="none" stroke="rgb(0, 0, 0)" stroke-opacity="1.0" stroke-linecap="round" stroke-linejoin="round"/>
    <path d="M 161.0 72.0 C 162.65634155273438 69.80377197265625 162.99099731445312 74.95992279052734 157.43499755859375 72.87295532226562" stroke-width="3.0" fill="none" stroke="rgb(0, 0, 0)" stroke-opacity="1.0" stroke-linecap="round" stroke-linejoin="round"/>
    <path d="M 81.0 45.0 C 83.23622131347656 45.52611541748047 84.55108642578125 49.94978332519531 89.2966079711914 48.488365173339844" stroke-width="3.0" fill="none" stroke="rgb(0, 0, 0)" stroke-opacity="1.0" stroke-linecap="round" stroke-linejoin="round"/>
    <path d="M 57.000003814697266 45.0 C 60.748695373535156 49.2497673034668 64.94000244140625 52.55592346191406 64.9844741821289 47.10851287841797" stroke-width="3.0" fill="none" stroke="rgb(0, 0, 0)" stroke-opacity="1.0" stroke-linecap="round" stroke-linejoin="round"/>
    <path d="M 65.0 58.0 C 61.248809814453125 57.82749938964844 65.39702606201172 58.10139465332031 69.89904022216797 63.20124816894531" stroke-width="3.0" fill="none" stroke="rgb(0, 0, 0)" stroke-opacity="1.0" stroke-linecap="round" stroke-linejoin="round"/>
    <path d="M 100.0 75.0 C 94.69445037841797 71.05238342285156 90.64282989501953 72.848876953125 95.61869049072266 69.93232727050781" stroke-width="3.0" fill="none" stroke="rgb(0, 0, 0)" stroke-opacity="1.0" stroke-linecap="round" stroke-linejoin="round"/>
    <path d="M 35.0 175.0 C 36.696250915527344 171.1290283203125 41.60772705078125 172.43646240234375 45.851905822753906 173.68528747558594" stroke-width="3.0" fill="none" stroke="rgb(0, 0, 0)" stroke-opacity="1.0" stroke-linecap="round" stroke-linejoin="round"/>
    <path d="M 98.0 30.999998092651367 C 100.59751892089844 34.46401596069336 98.32583618164062 30.525705337524414 95.95377349853516 25.174667358398438" stroke-width="3.0" fill="none" stroke="rgb(0, 0, 0)" stroke-opacity="1.0" stroke-linecap="round" stroke-linejoin="round"/>
    <path d="M 110.0 88.0 C 104.43098449707031 83.26991271972656 102.8010025024414 82.6513900756836 99.80606079101562 84.24115753173828" stroke-width="3.0" fill="none" stroke="rgb(0, 0, 0)" stroke-opacity="1.0" stroke-linecap="round" stroke-linejoin="round"/>
    <path d="M 108.0 86.0 C 107.10943603515625 86.97111511230469 106.81451416015625 85.99693298339844 102.94169616699219 87.80886840820312" stroke-width="3.0" fill="none" stroke="rgb(0, 0, 0)" stroke-opacity="1.0" stroke-linecap="round" stroke-linejoin="round"/>
    <path d="M 93.0 78.0 C 90.5675277709961 78.95417785644531 90.82301330566406 77.02153778076172 91.38304901123047 74.89080810546875" stroke-width="3.0" fill="none" stroke="rgb(0, 0, 0)" stroke-opacity="1.0" stroke-linecap="round" stroke-linejoin="round"/>
    <path d="M 105.0 180.0 C 103.63018798828125 177.7723846435547 102.35814666748047 181.96522521972656 101.33554077148438 183.08889770507812" stroke-width="3.0" fill="none" stroke="rgb(0, 0, 0)" stroke-opacity="1.0" stroke-linecap="round" stroke-linejoin="round"/>
    <path d="M 112.0 14.0 C 116.2147445678711 13.073010444641113 119.13068389892578 13.728812217712402 120.86054992675781 17.1697998046875" stroke-width="3.0" fill="none" stroke="rgb(0, 0, 0)" stroke-opacity="1.0" stroke-linecap="round" stroke-linejoin="round"/>
    <path d="M 122.0 14.0 C 124.93562316894531 10.929693222045898 121.62492370605469 10.137446403503418 126.18289184570312 13.589197158813477" stroke-width="3.0" fill="none" stroke="rgb(0, 0, 0)" stroke-opacity="1.0" stroke-linecap="round" stroke-linejoin="round"/>
    <path d="M 214.0 211.0 C 212.05905151367188 214.6444854736328 215.36550903320312 218.20339965820312 213.81825256347656 219.25546264648438" stroke-width="3.0" fill="none" stroke="rgb(0, 0, 0)" stroke-opacity="1.0" stroke-linecap="round" stroke-linejoin="round"/>
    <path d="M 74.0 38.0 C 72.10507202148438 43.3189697265625 69.49021911621094 42.88130187988281 66.56401824951172 42.950767517089844" stroke-width="3.0" fill="none" stroke="rgb(0, 0, 0)" stroke-opacity="1.0" stroke-linecap="round" stroke-linejoin="round"/>
    <path d="M 30.0 184.0 C 29.945178985595703 183.32699584960938 28.594606399536133 180.87359619140625 23.17595672607422 175.6953125" stroke-width="3.0" fill="none" stroke="rgb(0, 0, 0)" stroke-opacity="1.0" stroke-linecap="round" stroke-linejoin="round"/>
    <path d="M 38.0 210.0 C 43.011775970458984 210.5600128173828 46.01163101196289 205.22283935546875 41.7928466796875 209.82980346679688" stroke-width="3.0" fill="none" stroke="rgb(0, 0, 0)" stroke-opacity="1.0" stroke-linecap="round" stroke-linejoin="round"/>
    <path d="M 148.0 72.0 C 149.74530029296875 69.549560546875 148.94851684570312 64.96246337890625 152.07730102539062 68.19824981689453" stroke-width="3.0" fill="none" stroke="rgb(0, 0, 0)" stroke-opacity="1.0" stroke-linecap="round" stroke-linejoin="round"/>
    <path d="M 64.0 156.0 C 60.16533660888672 155.6205291748047 58.633934020996094 151.46136474609375 59.22639465332031 146.28289794921875" stroke-width="3.0" fill="none" stroke="rgb(0, 0, 0)" stroke-opacity="1.0" stroke-linecap="round" stroke-linejoin="round"/>
    <path d="M 20.0 152.0 C 19.60118865966797 154.47679138183594 23.25882339477539 154.74774169921875 19.304292678833008 152.54579162597656" stroke-width="3.0" fill="none" stroke="rgb(0, 0, 0)" stroke-opacity="1.0" stroke-linecap="round" stroke-linejoin="round"/>
    <path d="M 64.0 69.0 C 58.76769256591797 70.13555908203125 60.06895065307617 71.53292846679688 59.840797424316406 68.90445709228516" stroke-width="3.0" fill="none" stroke="rgb(0, 0, 0)" stroke-opacity="1.0" stroke-linecap="round" stroke-linejoin="round"/>
    <path d="M 86.0 53.0 C 89.29446411132812 54.994873046875 89.630859375 52.40111541748047 86.5725326538086 46.94902038574219" stroke-width="3.0" fill="none" stroke="rgb(0, 0, 0)" stroke-opacity="1.0" stroke-linecap="round" stroke-linejoin="round"/>
    <path d="M 153.0 48.0 C 149.06446838378906 45.21182632446289 153.38055419921875 44.165992736816406 151.7559356689453 40.039772033691406" stroke-width="3.0" fill="none" stroke="rgb(0, 0, 0)" stroke-opacity="1.0" stroke-linecap="round" stroke-linejoin="round"/>
    <path d="M 119.0 215.0 C 119.28038024902344 210.02017211914062 122.24191284179688 204.48757934570312 120.88604736328125 204.7187042236328" stroke-width="3.0" fill="none" stroke="rgb(0, 0, 0)" stroke-opacity="1.0" stroke-linecap="round" stroke-linejoin="round"/>
    <path d="M 45.0 114.00000762939453 C 45.701995849609375 111.61833190917969 42.98722457885742 111.29026794433594 40.388877868652344 113.44613647460938" stroke-width="3.0" fill="none" stroke="rgb(0, 0, 0)" stroke-opacity="1.0" stroke-linecap="round" stroke-linejoin="round"/>
    <path d="M 186.0 46.0 C 182.8020782470703 44.584407806396484 187.36273193359375 50.08473205566406 192.5076904296875 47.89962387084961" stroke-width="3.0" fill="none" stroke="rgb(0, 0, 0)" stroke-opacity="1.0" stroke-linecap="round" stroke-linejoin="round"/>
    <path d="M 102.0 116.0 C 107.00428771972656 116.2410888671875 104.37086486816406 113.79861450195312 102.59175109863281 113.5999984741211" stroke-width="3.0" fill="none" stroke="rgb(0, 0, 0)" stroke-opacity="1.0" stroke-linecap="round" stroke-linejoin="round"/>
    <path d="M 70.0 1.0 C 65.32060241699219 -4.30066442489624 64.23130798339844 -1.8852856159210205 60.576446533203125 1.3589200973510742" stroke-width="3.0" fill="none" stroke="rgb(0, 0, 0)" stroke-opacity="1.0" stroke-linecap="round" stroke-linejoin="round"/>
    <path d="M 129.0 145.0 C 129.41395568847656 149.45172119140625 132.44288635253906 147.2333984375 130.88238525390625 143.11585998535156" stroke-width="3.0" fill="none" stroke="rgb(0, 0, 0)" stroke-opacity="1.0" stroke-linecap="round" stroke-linejoin="round"/>
    <path d="M 44.0 69.0 C 45.58035659790039 65.30763244628906 41.00096893310547 64.90409088134766 46.07257843017578 66.14479064941406" stroke-width="3.0" fill="none" stroke="rgb(0, 0, 0)" stroke-opacity="1.0" stroke-linecap="round" stroke-linejoin="round"/>
    <path d="M 74.0 159.0 C 79.51375579833984 157.78790283203125 78.3427734375 158.7043914794922 79.53715515136719 154.52101135253906" stroke-width="3.0" fill="none" stroke="rgb(0, 0, 0)" stroke-opacity="1.0" stroke-linecap="round" stroke-linejoin="round"/>
    <path d="M 186.0 37.0 C 186.39772033691406 42.52739715576172 181.87684631347656 45.367530822753906 182.66519165039062 48.301761627197266" stroke-width="3.0" fill="none" stroke="rgb(0, 0, 0)" stroke-opacity="1.0" stroke-linecap="round" stroke-linejoin="round"/>
    <path d="M 106.0 73.0 C 110.27880859375 77.85474395751953 114.3636474609375 74.91581726074219 109.89429473876953 78.47867584228516" stroke-width="3.0" fill="none" stroke="rgb(0, 0, 0)" stroke-opacity="1.0" stroke-linecap="round" stroke-linejoin="round"/>
    <path d="M 63.0 19.0 C 60.67878723144531 23.894390106201172 62.20321273803711 19.195358276367188 56.95691680908203 17.553043365478516" stroke-width="3.0" fill="none" stroke="rgb(0, 0, 0)" stroke-opacity="1.0" stroke-linecap="round" stroke-linejoin="round"/>
    <path d="M 116.0 200.0 C 116.34710693359375 203.6207275390625 117.69522094726562 206.47218322753906 120.78720092773438 210.9214630126953" stroke-width="3.0" fill="none" stroke="rgb(0, 0, 0)" stroke-opacity="1.0" stroke-linecap="round" stroke-linejoin="round"/>
    <path d="M 92.0 15.0 C 90.80718994140625 13.138211250305176 95.68463134765625 11.16611385345459 98.97537994384766 10.827254295349121" stroke-width="3.0" fill="none" stroke="rgb(0, 0, 0)" stroke-opacity="1.0" stroke-linecap="round" stroke-linejoin="round"/>
    <path d="M 52.0 63.0 C 56.0086784362793 58.58965301513672 59.24342346191406 61.63787841796875 63.81848907470703 62.39462661743164" stroke-width="3.0" fill="none" stroke="rgb(0, 0, 0)" stroke-opacity="1.0" stroke-linecap="round" stroke-linejoin="round"/>
    <path d="M 137.0 150.0 C 132.07281494140625 147.78529357910156 128.2108917236328 143.50750732421875 132.4382781982422 145.63778686523438" stroke-width="3.0" fill="none" stroke="rgb(0, 0, 0)" stroke-opacity="1.0" stroke-linecap="round" stroke-linejoin="round"/>
    <path d="M 110.0 146.0 C 105.32730102539062 148.9163360595703 105.92620849609375 145.8837432861328 103.2593994140625 143.2262420654297" stroke-width="3.0" fill="none" stroke="rgb(0, 0, 0)" stroke-opacity="1.0" stroke-linecap="round" stroke-linejoin="round"/>
    <path d="M 133.0 116.0 C 135.0801239013672 112.43522644042969 129.5802764892578 110.0516128540039 133.5333251953125 109.98545837402344" stroke-width="3.0" fill="none" stroke="rgb(0, 0, 0)" stroke-opacity="1.0" stroke-linecap="round" stroke-linejoin="round"/>
    <path d="M 76.0 189.0 C 80.77725219726562 190.75070190429688 83.78950500488281 192.07774353027344 78.7920150756836 188.55221557617188" stroke-width="3.0" fill="none" stroke="rgb(0, 0, 0)" stroke-opacity="1.0" stroke-linecap="round" stroke-linejoin="round"/>
    <path d="M 123.0 81.0 C 127.66143798828125 82.3861083984375 126.1053695678711 83.57831573486328 125.5640869140625 84.7862319946289" stroke-width="3.0" fill="none" stroke="rgb(0, 0, 0)" stroke-opacity="1.0" stroke-linecap="round" stroke-linejoin="round"/>
    <path d="M 175.0 54.0 C 174.24789428710938 49.17767333984375 170.1511993408203 50.08727264404297 173.60560607910156 44.873470306396484" stroke-width="3.0" fill="none" stroke="rgb(0, 0, 0)" stroke-opacity="1.0" stroke-linecap="round" stroke-linejoin="round"/>
    <path d="M 7.0 39.0 C 3.1203885078430176 41.95709228515625 -0.7418610453605652 38.990787506103516 -0.9994255304336548 40.1577262878418" stroke-width="3.0" fill="none" stroke="rgb(0, 0, 0)" stroke-opacity="1.0" stroke-linecap="round" stroke-linejoin="round"/>
    <path d="M 101.0 176.0 C 106.11418151855469 172.75103759765625 106.61299896240234 167.4415283203125 102.53057861328125 162.4478759765625" stroke-width="3.0" fill="none" stroke="rgb(0, 0, 0)" stroke-opacity="1.0" stroke-linecap="round" stroke-linejoin="round"/>
  </g>
</svg>
