<?xml version="1.0" ?>
<svg xmlns="http://www.w3.org/2000/svg" version="1.1" width="224" height="224">
  <defs/>
  <g>
    <path d="M 37.41739273071289 16.980478286743164 C 35.25628662109375 12.325825691223145 35.35462188720703 12.452560424804688 36.933624267578125 13.540267944335938" stroke-width="3.0" fill="none" stroke="rgb(0, 0, 0)" stroke-opacity="0.7218427" stroke-linecap="round" stroke-linejoin="round"/>
    <path d="M 37.556758880615234 57.125728607177734 C 35.89321517944336 67.36872100830078 40.227020263671875 61.28535461425781 53.44447708129883 56.98544692993164" stroke-width="3.0" fill="none" stroke="rgb(0, 0, 1)" stroke-opacity="1.0007906" stroke-linecap="round" stroke-linejoin="round"/>
    <path d="M 67.33378601074219 132.3380126953125 C 88.76261138916016 114.82392883300781 89.43193817138672 114.61182403564453 73.30265808105469 135.19602966308594" stroke-width="3.0" fill="none" stroke="rgb(0, 0, 0)" stroke-opacity="1.0017822" stroke-linecap="round" stroke-linejoin="round"/>
    <path d="M 108.0852279663086 -5.9890265464782715 C 106.82591247558594 -0.6826130747795105 114.10738372802734 -2.991631269454956 114.15080261230469 -5.398105144500732" stroke-width="3.0" fill="none" stroke="rgb(0, 0, 0)" stroke-opacity="0.93062466" stroke-linecap="round" stroke-linejoin="round"/>
    <path d="M 158.93145751953125 34.5684928894043 C 152.2471923828125 17.007835388183594 131.87783813476562 24.077199935913086 122.59996032714844 31.925411224365234" stroke-width="3.0" fill="none" stroke="rgb(0, 0, 0)" stroke-opacity="1.0009278" stroke-linecap="round" stroke-linejoin="round"/>
    <path d="M 123.00662231445312 195.21652221679688 C 125.13761138916016 208.1830291748047 135.5622100830078 192.61289978027344 152.20193481445312 186.6812286376953" stroke-width="3.0" fill="none" stroke="rgb(-1, 0, 0)" stroke-opacity="1.0010135" stroke-linecap="round" stroke-linejoin="round"/>
    <path d="M 56.11919403076172 69.81419372558594 C 70.8326187133789 78.2275161743164 96.72988891601562 76.1042709350586 91.74041748046875 81.28138732910156" stroke-width="3.0" fill="none" stroke="rgb(0, -1, 0)" stroke-opacity="1.0057037" stroke-linecap="round" stroke-linejoin="round"/>
    <path d="M 147.40826416015625 194.35220336914062 C 148.22720336914062 192.7168426513672 143.53826904296875 185.4629364013672 174.6312713623047 191.3638916015625" stroke-width="3.0" fill="none" stroke="rgb(-1, 0, 0)" stroke-opacity="1.0028099" stroke-linecap="round" stroke-linejoin="round"/>
    <path d="M 96.49144744873047 157.70140075683594 C 84.6738052368164 161.60000610351562 85.9710922241211 162.1239471435547 68.37028503417969 162.04856872558594" stroke-width="3.0" fill="none" stroke="rgb(-1, 0, 0)" stroke-opacity="1.0027891" stroke-linecap="round" stroke-linejoin="round"/>
    <path d="M 65.69986724853516 183.91561889648438 C 75.79580688476562 188.09213256835938 75.50346374511719 191.46493530273438 66.8798599243164 183.68064880371094" stroke-width="3.0" fill="none" stroke="rgb(0, 0, 0)" stroke-opacity="0.9034524" stroke-linecap="round" stroke-linejoin="round"/>
    <path d="M 156.8280487060547 118.25228881835938 C 161.98707580566406 117.82476806640625 157.49078369140625 111.78328704833984 156.98660278320312 98.6324462890625" stroke-width="3.0" fill="none" stroke="rgb(0, 1, -1)" stroke-opacity="0.72507524" stroke-linecap="round" stroke-linejoin="round"/>
    <path d="M 145.20645141601562 36.76761245727539 C 131.79925537109375 21.272489547729492 134.6969757080078 23.530460357666016 136.85244750976562 44.236053466796875" stroke-width="3.0" fill="none" stroke="rgb(0, 0, 0)" stroke-opacity="0.9658898" stroke-linecap="round" stroke-linejoin="round"/>
    <path d="M 108.08909606933594 60.364105224609375 C 113.32484436035156 64.08668518066406 122.96211242675781 67.16831970214844 132.12550354003906 72.30313110351562" stroke-width="3.0" fill="none" stroke="rgb(0, 0, 0)" stroke-opacity="1.0017629" stroke-linecap="round" stroke-linejoin="round"/>
    <path d="M 61.203102111816406 144.26023864746094 C 72.33717346191406 136.6079864501953 85.18070983886719 133.21026611328125 65.57904815673828 131.29043579101562" stroke-width="3.0" fill="none" stroke="rgb(2, -1, 0)" stroke-opacity="0.99965143" stroke-linecap="round" stroke-linejoin="round"/>
    <path d="M 124.26525115966797 39.35118103027344 C 120.86670684814453 35.47533416748047 117.21553039550781 45.44500732421875 130.45033264160156 47.66456604003906" stroke-width="3.0" fill="none" stroke="rgb(0, 0, 0)" stroke-opacity="0.9762161" stroke-linecap="round" stroke-linejoin="round"/>
    <path d="M 124.67768096923828 75.33544921875 C 122.9285888671875 82.51251983642578 124.14501190185547 95.6063003540039 119.2767562866211 85.78729248046875" stroke-width="3.0" fill="none" stroke="rgb(0, 0, 0)" stroke-opacity="0.95286095" stroke-linecap="round" stroke-linejoin="round"/>
    <path d="M 11.38931655883789 -7.274889945983887 C 11.198006629943848 -2.578327178955078 11.951876640319824 -1.8940892219543457 13.968246459960938 -10.261964797973633" stroke-width="3.0" fill="none" stroke="rgb(0, 0, 0)" stroke-opacity="0.8399519" stroke-linecap="round" stroke-linejoin="round"/>
    <path d="M -8.581761360168457 11.383862495422363 C -6.995350360870361 7.204819679260254 -9.448576927185059 11.563309669494629 -12.60527515411377 10.518545150756836" stroke-width="3.0" fill="none" stroke="rgb(0, 0, 0)" stroke-opacity="0.89279646" stroke-linecap="round" stroke-linejoin="round"/>
    <path d="M 166.55303955078125 14.10771369934082 C 158.23638916015625 0.6921584010124207 169.3057403564453 -8.53507137298584 178.6905059814453 -5.042561054229736" stroke-width="3.0" fill="none" stroke="rgb(0, 0, 0)" stroke-opacity="0.5952503" stroke-linecap="round" stroke-linejoin="round"/>
    <path d="M 172.95211791992188 86.60460662841797 C 165.5792694091797 106.08626556396484 172.13197326660156 102.99774169921875 179.8682861328125 104.25978088378906" stroke-width="3.0" fill="none" stroke="rgb(0, 1, -1)" stroke-opacity="0.47863224" stroke-linecap="round" stroke-linejoin="round"/>
    <path d="M 213.45193481445312 180.9994354248047 C 211.1727294921875 181.068115234375 204.3410186767578 169.62098693847656 197.74212646484375 174.72959899902344" stroke-width="3.0" fill="none" stroke="rgb(0, 0, 0)" stroke-opacity="0.9058353" stroke-linecap="round" stroke-linejoin="round"/>
    <path d="M 105.38066101074219 15.550338745117188 C 90.4504623413086 22.188480377197266 98.49198150634766 41.15252685546875 118.05522918701172 36.241756439208984" stroke-width="3.0" fill="none" stroke="rgb(0, -1, -1)" stroke-opacity="1.0069305" stroke-linecap="round" stroke-linejoin="round"/>
    <path d="M 158.93727111816406 56.353511810302734 C 143.30447387695312 45.63813781738281 143.3424835205078 49.44192123413086 149.3553466796875 46.50471496582031" stroke-width="3.0" fill="none" stroke="rgb(0, 0, 0)" stroke-opacity="1.0003467" stroke-linecap="round" stroke-linejoin="round"/>
    <path d="M 141.3576202392578 13.1276216506958 C 145.6627655029297 22.88525390625 143.08447265625 21.48697853088379 125.46090698242188 8.654216766357422" stroke-width="3.0" fill="none" stroke="rgb(0, 1, -1)" stroke-opacity="0.9414735" stroke-linecap="round" stroke-linejoin="round"/>
    <path d="M 142.06912231445312 201.79367065429688 C 135.4605712890625 209.09339904785156 145.97372436523438 198.44131469726562 153.12615966796875 207.2819366455078" stroke-width="3.0" fill="none" stroke="rgb(0, 0, -1)" stroke-opacity="0.99358326" stroke-linecap="round" stroke-linejoin="round"/>
    <path d="M 154.7663116455078 83.14460754394531 C 170.4108123779297 81.98729705810547 158.9665069580078 83.88856506347656 162.2891387939453 73.63140106201172" stroke-width="3.0" fill="none" stroke="rgb(0, 0, 0)" stroke-opacity="0.94417197" stroke-linecap="round" stroke-linejoin="round"/>
    <path d="M 108.27665710449219 67.7452392578125 C 113.83946990966797 71.43602752685547 113.10453033447266 75.55980682373047 109.92737579345703 76.20902252197266" stroke-width="3.0" fill="none" stroke="rgb(0, 0, 0)" stroke-opacity="0.75267917" stroke-linecap="round" stroke-linejoin="round"/>
    <path d="M 159.7283935546875 44.6509895324707 C 170.37217712402344 72.04434204101562 173.06161499023438 63.71967697143555 155.099853515625 52.8150520324707" stroke-width="3.0" fill="none" stroke="rgb(0, 0, 0)" stroke-opacity="1.0030468" stroke-linecap="round" stroke-linejoin="round"/>
    <path d="M 64.96968078613281 104.21171569824219 C 60.11258316040039 100.45197296142578 64.39911651611328 95.8326416015625 83.76323699951172 84.57316589355469" stroke-width="3.0" fill="none" stroke="rgb(0, 1, -2)" stroke-opacity="0.8341912" stroke-linecap="round" stroke-linejoin="round"/>
    <path d="M 185.37420654296875 92.78046417236328 C 186.04278564453125 92.48287200927734 185.64703369140625 91.15165710449219 184.37094116210938 91.87091064453125" stroke-width="3.0" fill="none" stroke="rgb(0, 0, 0)" stroke-opacity="0.7070712" stroke-linecap="round" stroke-linejoin="round"/>
    <path d="M 126.45973205566406 143.33421325683594 C 138.2540283203125 122.51112365722656 123.4735107421875 119.73316955566406 120.7742919921875 117.4947509765625" stroke-width="3.0" fill="none" stroke="rgb(0, 1, -1)" stroke-opacity="0.9000704" stroke-linecap="round" stroke-linejoin="round"/>
    <path d="M 155.57427978515625 55.4427375793457 C 140.18612670898438 42.80279541015625 137.65646362304688 29.642290115356445 166.09320068359375 34.46424102783203" stroke-width="3.0" fill="none" stroke="rgb(0, 0, -1)" stroke-opacity="0.96604663" stroke-linecap="round" stroke-linejoin="round"/>
    <path d="M 107.37420654296875 144.87844848632812 C 104.30767822265625 173.0545654296875 108.85669708251953 172.84359741210938 105.4027328491211 170.46826171875" stroke-width="3.0" fill="none" stroke="rgb(0, 0, 0)" stroke-opacity="0.94686866" stroke-linecap="round" stroke-linejoin="round"/>
    <path d="M 173.1746063232422 73.34573364257812 C 174.0564727783203 83.70171356201172 159.4060821533203 87.5335464477539 130.05447387695312 80.35717010498047" stroke-width="3.0" fill="none" stroke="rgb(0, -1, 0)" stroke-opacity="1.0056839" stroke-linecap="round" stroke-linejoin="round"/>
    <path d="M 133.3115692138672 126.57455444335938 C 142.52166748046875 130.0897216796875 153.18716430664062 146.08465576171875 140.98880004882812 151.5568389892578" stroke-width="3.0" fill="none" stroke="rgb(0, 0, 0)" stroke-opacity="0.8742183" stroke-linecap="round" stroke-linejoin="round"/>
    <path d="M 131.43081665039062 68.53266143798828 C 154.19459533691406 77.28251647949219 156.65660095214844 56.0405387878418 130.56019592285156 49.228755950927734" stroke-width="3.0" fill="none" stroke="rgb(0, 0, 0)" stroke-opacity="1.0008714" stroke-linecap="round" stroke-linejoin="round"/>
    <path d="M 34.1232795715332 61.79136276245117 C 43.68278884887695 26.544435501098633 59.49958801269531 19.74024772644043 74.13716125488281 20.539710998535156" stroke-width="3.0" fill="none" stroke="rgb(0, -1, 0)" stroke-opacity="1.003515" stroke-linecap="round" stroke-linejoin="round"/>
    <path d="M 94.35173034667969 196.1897735595703 C 94.3792953491211 197.08062744140625 98.98664855957031 196.0194549560547 82.6113052368164 185.15200805664062" stroke-width="3.0" fill="none" stroke="rgb(0, 1, 0)" stroke-opacity="0.92472476" stroke-linecap="round" stroke-linejoin="round"/>
    <path d="M 180.69573974609375 187.51248168945312 C 184.6780242919922 175.156494140625 192.53883361816406 170.78750610351562 201.5166015625 179.50177001953125" stroke-width="3.0" fill="none" stroke="rgb(-2, 0, 0)" stroke-opacity="1.0041726" stroke-linecap="round" stroke-linejoin="round"/>
    <path d="M 140.416748046875 76.08946990966797 C 174.85694885253906 74.5665512084961 156.92758178710938 72.9931411743164 148.49212646484375 72.37432098388672" stroke-width="3.0" fill="none" stroke="rgb(0, 0, 1)" stroke-opacity="0.9977312" stroke-linecap="round" stroke-linejoin="round"/>
    <path d="M 81.91172790527344 55.9500617980957 C 76.30144500732422 48.966102600097656 76.92646789550781 44.17947769165039 74.81871032714844 45.05299758911133" stroke-width="3.0" fill="none" stroke="rgb(0, 0, 0)" stroke-opacity="0.85293263" stroke-linecap="round" stroke-linejoin="round"/>
    <path d="M 75.08727264404297 47.195865631103516 C 54.98683166503906 51.61366653442383 53.43478775024414 50.93508529663086 63.84214401245117 47.75643539428711" stroke-width="3.0" fill="none" stroke="rgb(0, 0, 0)" stroke-opacity="0.90167403" stroke-linecap="round" stroke-linejoin="round"/>
    <path d="M 82.21692657470703 69.39746856689453 C 73.84542846679688 68.38356018066406 72.49819946289062 63.888641357421875 73.67596435546875 72.63690948486328" stroke-width="3.0" fill="none" stroke="rgb(0, 0, 1)" stroke-opacity="0.94985723" stroke-linecap="round" stroke-linejoin="round"/>
    <path d="M 121.28836822509766 69.31059265136719 C 88.98870086669922 66.9776611328125 74.5871353149414 66.51862335205078 86.72970581054688 71.79179382324219" stroke-width="3.0" fill="none" stroke="rgb(-1, -1, 0)" stroke-opacity="1.0080167" stroke-linecap="round" stroke-linejoin="round"/>
    <path d="M 40.5555534362793 166.2106170654297 C 34.848411560058594 165.6473388671875 48.369258880615234 162.0031280517578 56.17229080200195 163.8125" stroke-width="3.0" fill="none" stroke="rgb(0, 1, 0)" stroke-opacity="0.7065909" stroke-linecap="round" stroke-linejoin="round"/>
    <path d="M 111.8482666015625 38.80208969116211 C 133.14102172851562 32.83553695678711 117.05437469482422 18.583600997924805 113.9239273071289 15.338785171508789" stroke-width="3.0" fill="none" stroke="rgb(0, 0, 0)" stroke-opacity="0.9849496" stroke-linecap="round" stroke-linejoin="round"/>
    <path d="M 125.84220123291016 120.07183837890625 C 120.14386749267578 73.41763305664062 118.68333435058594 76.76778411865234 102.57603454589844 58.85579299926758" stroke-width="3.0" fill="none" stroke="rgb(0, 0, 0)" stroke-opacity="1.0019542" stroke-linecap="round" stroke-linejoin="round"/>
    <path d="M 92.79908752441406 89.1219711303711 C 115.64320373535156 103.47832489013672 103.47221374511719 93.09525299072266 107.21920013427734 71.48616790771484" stroke-width="3.0" fill="none" stroke="rgb(0, 1, -1)" stroke-opacity="0.7492828" stroke-linecap="round" stroke-linejoin="round"/>
    <path d="M 95.0008773803711 79.09578704833984 C 90.39260864257812 68.23262786865234 94.81071472167969 69.07845306396484 113.46749877929688 73.10112762451172" stroke-width="3.0" fill="none" stroke="rgb(-1, 0, 0)" stroke-opacity="1.0035759" stroke-linecap="round" stroke-linejoin="round"/>
    <path d="M 104.36808013916016 192.02804565429688 C 101.02429962158203 169.47988891601562 99.84693908691406 182.41986083984375 107.38748931884766 202.89923095703125" stroke-width="3.0" fill="none" stroke="rgb(0, 1, -2)" stroke-opacity="1.0010245" stroke-linecap="round" stroke-linejoin="round"/>
    <path d="M 129.3004150390625 8.057991981506348 C 101.54273223876953 2.761686086654663 93.9811782836914 10.594411849975586 103.1632308959961 -1.929791808128357" stroke-width="3.0" fill="none" stroke="rgb(0, 0, 0)" stroke-opacity="0.9964372" stroke-linecap="round" stroke-linejoin="round"/>
    <path d="M 109.42172241210938 16.551528930664062 C 118.40337371826172 25.64162254333496 111.05009460449219 19.737178802490234 112.06423950195312 17.004322052001953" stroke-width="3.0" fill="none" stroke="rgb(1, 0, 0)" stroke-opacity="0.97521263" stroke-linecap="round" stroke-linejoin="round"/>
    <path d="M 227.92196655273438 209.91455078125 C 224.68934631347656 214.3863983154297 225.7234649658203 215.15625 226.6920166015625 215.349853515625" stroke-width="3.0" fill="none" stroke="rgb(0, 0, 0)" stroke-opacity="0.7623814" stroke-linecap="round" stroke-linejoin="round"/>
    <path d="M 74.66384887695312 27.125534057617188 C 75.34154510498047 32.60721969604492 66.49300384521484 36.79995346069336 69.00745391845703 31.726438522338867" stroke-width="3.0" fill="none" stroke="rgb(0, 0, 0)" stroke-opacity="0.8224487" stroke-linecap="round" stroke-linejoin="round"/>
    <path d="M 14.339607238769531 177.8697509765625 C 13.150845527648926 180.00706481933594 20.956836700439453 182.91392517089844 21.610219955444336 184.51129150390625" stroke-width="3.0" fill="none" stroke="rgb(0, 0, 0)" stroke-opacity="0.75744456" stroke-linecap="round" stroke-linejoin="round"/>
    <path d="M 39.87381362915039 213.53872680664062 C 36.660526275634766 210.21835327148438 42.18569564819336 196.82736206054688 72.50409698486328 190.95127868652344" stroke-width="3.0" fill="none" stroke="rgb(-1, 0, 0)" stroke-opacity="1.0038972" stroke-linecap="round" stroke-linejoin="round"/>
    <path d="M 166.25201416015625 77.10657501220703 C 150.79469299316406 81.00981903076172 148.01736450195312 77.20071411132812 153.16531372070312 75.59854125976562" stroke-width="3.0" fill="none" stroke="rgb(0, 0, 0)" stroke-opacity="1.0024629" stroke-linecap="round" stroke-linejoin="round"/>
    <path d="M 78.7949447631836 155.2333221435547 C 56.097145080566406 162.86697387695312 51.088687896728516 151.54986572265625 59.9112663269043 133.44786071777344" stroke-width="3.0" fill="none" stroke="rgb(-1, 0, 0)" stroke-opacity="1.0050031" stroke-linecap="round" stroke-linejoin="round"/>
    <path d="M 28.082351684570312 145.6975860595703 C 35.48772048950195 142.18251037597656 39.09852600097656 139.35154724121094 41.641136169433594 142.32957458496094" stroke-width="3.0" fill="none" stroke="rgb(0, 1, -1)" stroke-opacity="0.77715737" stroke-linecap="round" stroke-linejoin="round"/>
    <path d="M 75.16932678222656 54.596839904785156 C 43.18544387817383 58.23305892944336 49.9558219909668 79.8842544555664 67.14997100830078 74.192138671875" stroke-width="3.0" fill="none" stroke="rgb(0, 0, 1)" stroke-opacity="1.0030464" stroke-linecap="round" stroke-linejoin="round"/>
    <path d="M 98.20179748535156 51.73473358154297 C 101.69985961914062 43.1998176574707 87.5579833984375 50.60483932495117 80.86558532714844 50.21355438232422" stroke-width="3.0" fill="none" stroke="rgb(0, 0, 0)" stroke-opacity="0.8395488" stroke-linecap="round" stroke-linejoin="round"/>
    <path d="M 151.7891082763672 45.9700813293457 C 147.40174865722656 48.50397872924805 158.5878448486328 50.72587585449219 165.4266815185547 44.53963851928711" stroke-width="3.0" fill="none" stroke="rgb(0, 1, -1)" stroke-opacity="0.9986424" stroke-linecap="round" stroke-linejoin="round"/>
    <path d="M 129.8249053955078 202.57904052734375 C 132.82827758789062 198.65321350097656 121.97269439697266 203.16969299316406 127.12516784667969 205.7677001953125" stroke-width="3.0" fill="none" stroke="rgb(1, 0, -1)" stroke-opacity="0.78066987" stroke-linecap="round" stroke-linejoin="round"/>
    <path d="M 41.25186538696289 113.1271743774414 C 41.399871826171875 111.51842498779297 39.757049560546875 115.8866958618164 41.428077697753906 115.72900390625" stroke-width="3.0" fill="none" stroke="rgb(0, 0, 0)" stroke-opacity="0.8245456" stroke-linecap="round" stroke-linejoin="round"/>
    <path d="M 182.482421875 48.14400863647461 C 178.9917755126953 49.24113082885742 180.9556884765625 48.24744415283203 182.25669860839844 44.95238494873047" stroke-width="3.0" fill="none" stroke="rgb(0, 0, 0)" stroke-opacity="0.7143485" stroke-linecap="round" stroke-linejoin="round"/>
    <path d="M 90.3882827758789 131.53668212890625 C 103.62110900878906 120.06261444091797 105.9672622680664 113.3318862915039 117.11884307861328 129.7096405029297" stroke-width="3.0" fill="none" stroke="rgb(0, 0, -1)" stroke-opacity="0.9939579" stroke-linecap="round" stroke-linejoin="round"/>
    <path d="M 60.79640197753906 -3.4036314487457275 C 57.07271957397461 -9.142749786376953 58.92977523803711 -6.555802822113037 63.21107482910156 -6.0652079582214355" stroke-width="3.0" fill="none" stroke="rgb(0, 0, 0)" stroke-opacity="0.8803743" stroke-linecap="round" stroke-linejoin="round"/>
    <path d="M 106.21857452392578 154.89588928222656 C 149.70301818847656 151.14688110351562 140.9757080078125 152.68455505371094 134.52496337890625 153.55426025390625" stroke-width="3.0" fill="none" stroke="rgb(0, 0, 0)" stroke-opacity="1.0048523" stroke-linecap="round" stroke-linejoin="round"/>
    <path d="M 50.640777587890625 54.35905075073242 C 47.495140075683594 66.43041229248047 47.09748458862305 70.58631134033203 53.059959411621094 60.73588562011719" stroke-width="3.0" fill="none" stroke="rgb(0, 0, 0)" stroke-opacity="0.99997133" stroke-linecap="round" stroke-linejoin="round"/>
    <path d="M 93.32494354248047 169.517333984375 C 89.90142059326172 141.6903839111328 89.32666015625 142.30787658691406 78.10765075683594 146.81597900390625" stroke-width="3.0" fill="none" stroke="rgb(0, -1, 0)" stroke-opacity="0.9926714" stroke-linecap="round" stroke-linejoin="round"/>
    <path d="M 194.85897827148438 49.68935775756836 C 196.02464294433594 51.57905578613281 189.30650329589844 48.266109466552734 192.71054077148438 51.226280212402344" stroke-width="3.0" fill="none" stroke="rgb(0, 0, 0)" stroke-opacity="0.7139483" stroke-linecap="round" stroke-linejoin="round"/>
    <path d="M 105.82311248779297 80.89826965332031 C 114.26453399658203 68.73910522460938 110.59991455078125 67.92620086669922 106.68624877929688 80.93929290771484" stroke-width="3.0" fill="none" stroke="rgb(0, 0, 0)" stroke-opacity="0.95640963" stroke-linecap="round" stroke-linejoin="round"/>
    <path d="M 54.407859802246094 30.76750946044922 C 71.02910614013672 23.163145065307617 77.9911880493164 10.998523712158203 60.73244857788086 25.78929328918457" stroke-width="3.0" fill="none" stroke="rgb(0, 0, 0)" stroke-opacity="0.99814034" stroke-linecap="round" stroke-linejoin="round"/>
    <path d="M 115.75726318359375 192.2299346923828 C 115.16157531738281 196.66531372070312 128.35641479492188 198.4194793701172 136.46371459960938 203.67919921875" stroke-width="3.0" fill="none" stroke="rgb(0, 1, 0)" stroke-opacity="0.9915611" stroke-linecap="round" stroke-linejoin="round"/>
    <path d="M 71.56137084960938 20.326417922973633 C 93.94512939453125 10.219385147094727 104.1936264038086 10.119787216186523 118.85025024414062 6.820107460021973" stroke-width="3.0" fill="none" stroke="rgb(0, 0, 0)" stroke-opacity="1.0032566" stroke-linecap="round" stroke-linejoin="round"/>
    <path d="M 69.4571304321289 75.14016723632812 C 99.32571411132812 72.17376708984375 73.8294677734375 59.01206588745117 50.949485778808594 64.5470199584961" stroke-width="3.0" fill="none" stroke="rgb(0, -1, 0)" stroke-opacity="1.0062968" stroke-linecap="round" stroke-linejoin="round"/>
    <path d="M 143.54434204101562 148.83038330078125 C 131.3939971923828 157.67047119140625 128.0941162109375 151.92630004882812 135.8377227783203 144.95370483398438" stroke-width="3.0" fill="none" stroke="rgb(0, 0, 0)" stroke-opacity="1.0024111" stroke-linecap="round" stroke-linejoin="round"/>
    <path d="M 92.9659652709961 153.22027587890625 C 108.03606414794922 159.70291137695312 113.45071411132812 146.13973999023438 95.31744384765625 137.3242950439453" stroke-width="3.0" fill="none" stroke="rgb(0, -1, 0)" stroke-opacity="1.00768" stroke-linecap="round" stroke-linejoin="round"/>
    <path d="M 128.3426055908203 136.05052185058594 C 115.79823303222656 119.50835418701172 118.13140106201172 119.08041381835938 94.25352478027344 122.47276306152344" stroke-width="3.0" fill="none" stroke="rgb(0, 0, 0)" stroke-opacity="0.9677352" stroke-linecap="round" stroke-linejoin="round"/>
    <path d="M 82.75958251953125 197.48538208007812 C 87.7229232788086 185.1831817626953 92.89761352539062 172.09225463867188 94.84477996826172 164.56504821777344" stroke-width="3.0" fill="none" stroke="rgb(0, 0, 0)" stroke-opacity="1.0050758" stroke-linecap="round" stroke-linejoin="round"/>
    <path d="M 138.73512268066406 80.51695251464844 C 127.11123657226562 69.62522888183594 106.30037689208984 71.86982727050781 127.46988677978516 79.33550262451172" stroke-width="3.0" fill="none" stroke="rgb(-1, 0, 0)" stroke-opacity="1.0032018" stroke-linecap="round" stroke-linejoin="round"/>
    <path d="M 181.44615173339844 82.3688735961914 C 182.21437072753906 52.32353973388672 175.4876708984375 53.41399383544922 165.3828582763672 34.56386184692383" stroke-width="3.0" fill="none" stroke="rgb(0, -1, 1)" stroke-opacity="1.0039219" stroke-linecap="round" stroke-linejoin="round"/>
    <path d="M -8.953933715820312 37.52438735961914 C -3.203035354614258 34.335514068603516 -9.958121299743652 32.89236068725586 -10.136746406555176 36.82981491088867" stroke-width="3.0" fill="none" stroke="rgb(0, 0, 0)" stroke-opacity="0.8840832" stroke-linecap="round" stroke-linejoin="round"/>
    <path d="M 117.30459594726562 197.70469665527344 C 104.875732421875 168.78302001953125 104.39005279541016 160.3524169921875 104.90658569335938 166.10604858398438" stroke-width="3.0" fill="none" stroke="rgb(0, 0, -1)" stroke-opacity="1.0006922" stroke-linecap="round" stroke-linejoin="round"/>
  </g>
</svg>
