<?xml version='1.0' encoding='utf-8'?>
<svg xmlns="http://www.w3.org/2000/svg" version="1.1" width="224" height="224">
  <defs />
  <g>
    <path d="M 41.50448989868164 155.24374389648438 C 34.56952667236328 157.01220703125 37.08900451660156 164.8318634033203 44.39525604248047 157.06210327148438" stroke-width="3.0" fill="none" stroke="rgb(1, 0, 0)" stroke-opacity="0.9478731" stroke-linecap="round" stroke-linejoin="round" />
    <path d="M 191.98419189453125 22.312978744506836 C 181.98867797851562 59.97901916503906 225.6968994140625 94.44046020507812 155.1077117919922 104.548583984375" stroke-width="3.0" fill="none" stroke="rgb(0, 0, 0)" stroke-opacity="1.0014783" stroke-linecap="round" stroke-linejoin="round" />
    <path d="M 112.70960235595703 134.09927368164062 C 125.84712982177734 127.52250671386719 114.77482604980469 146.56443786621094 107.61726379394531 164.47271728515625" stroke-width="3.0" fill="none" stroke="rgb(0, 0, 0)" stroke-opacity="0" stroke-linecap="round" stroke-linejoin="round" />
    <path d="M 77.11668395996094 104.34569549560547 C 89.42790222167969 150.1541290283203 59.554840087890625 141.36508178710938 41.00639343261719 128.97390747070312" stroke-width="3.0" fill="none" stroke="rgb(0, 0, 0)" stroke-opacity="0" stroke-linecap="round" stroke-linejoin="round" />
    <path d="M 140.1062469482422 199.40402221679688 C 166.4958038330078 204.65492248535156 161.7897491455078 208.5683135986328 158.9312744140625 186.0513916015625" stroke-width="3.0" fill="none" stroke="rgb(0, 0, 1)" stroke-opacity="1.0017577" stroke-linecap="round" stroke-linejoin="round" />
    <path d="M 81.29676055908203 80.97724151611328 C 86.20117950439453 60.247161865234375 62.48444747924805 54.11172103881836 64.9109878540039 55.306190490722656" stroke-width="3.0" fill="none" stroke="rgb(0, 0, 0)" stroke-opacity="0" stroke-linecap="round" stroke-linejoin="round" />
    <path d="M 73.39517974853516 109.83627319335938 C 107.12687683105469 120.32880401611328 106.52584838867188 189.0475616455078 82.44557189941406 195.99562072753906" stroke-width="3.0" fill="none" stroke="rgb(0, 0, 0)" stroke-opacity="0.9967284" stroke-linecap="round" stroke-linejoin="round" />
    <path d="M 98.52987670898438 198.42184448242188 C 79.73213195800781 174.18344116210938 112.01441955566406 192.91371154785156 115.33291625976562 166.12550354003906" stroke-width="3.0" fill="none" stroke="rgb(1, 0, 0)" stroke-opacity="0.41824314" stroke-linecap="round" stroke-linejoin="round" />
    <path d="M 187.52029418945312 187.41986083984375 C 145.38661193847656 204.73170471191406 162.5811767578125 199.8409881591797 178.7443084716797 114.88658905029297" stroke-width="3.0" fill="none" stroke="rgb(0, 0, 0)" stroke-opacity="1.0032698" stroke-linecap="round" stroke-linejoin="round" />
    <path d="M 47.73407745361328 98.4550552368164 C 26.912939071655273 65.94645690917969 13.962684631347656 101.14142608642578 37.38420104980469 108.73433685302734" stroke-width="3.0" fill="none" stroke="rgb(0, 0, 0)" stroke-opacity="0" stroke-linecap="round" stroke-linejoin="round" />
    <path d="M 74.31707000732422 36.768516540527344 C 80.60365295410156 43.201759338378906 73.90705108642578 45.2149772644043 76.59268188476562 41.64643096923828" stroke-width="3.0" fill="none" stroke="rgb(0, 0, 0)" stroke-opacity="0" stroke-linecap="round" stroke-linejoin="round" />
    <path d="M 56.1091194152832 126.93575286865234 C 74.12360382080078 136.22044372558594 75.61305236816406 128.15487670898438 51.97560501098633 128.837890625" stroke-width="3.0" fill="none" stroke="rgb(0, 0, 0)" stroke-opacity="0" stroke-linecap="round" stroke-linejoin="round" />
    <path d="M 183.1632537841797 62.36863708496094 C 152.55897521972656 80.69538879394531 113.20294952392578 78.93031311035156 150.10177612304688 51.85711669921875" stroke-width="3.0" fill="none" stroke="rgb(0, 0, 0)" stroke-opacity="0" stroke-linecap="round" stroke-linejoin="round" />
    <path d="M 56.178646087646484 35.11362838745117 C 59.689109802246094 38.343318939208984 50.20257568359375 42.83818817138672 65.09347534179688 39.8976936340332" stroke-width="3.0" fill="none" stroke="rgb(0, 0, 0)" stroke-opacity="0" stroke-linecap="round" stroke-linejoin="round" />
    <path d="M 123.04006958007812 44.331825256347656 C 89.50558471679688 54.06502914428711 29.43995475769043 62.54277420043945 29.61025619506836 72.75654602050781" stroke-width="3.0" fill="none" stroke="rgb(0, 0, 0)" stroke-opacity="0" stroke-linecap="round" stroke-linejoin="round" />
    <path d="M 57.84160232543945 91.19034576416016 C 44.74528884887695 104.03800201416016 59.018104553222656 72.70401763916016 58.51541519165039 73.06945037841797" stroke-width="3.0" fill="none" stroke="rgb(0, 0, 0)" stroke-opacity="0" stroke-linecap="round" stroke-linejoin="round" />
    <path d="M 116.8134536743164 150.11476135253906 C 95.09204864501953 172.55691528320312 74.50186920166016 170.28199768066406 53.23456573486328 161.6659393310547" stroke-width="3.0" fill="none" stroke="rgb(0, 0, 0)" stroke-opacity="0" stroke-linecap="round" stroke-linejoin="round" />
    <path d="M 192.2957763671875 10.557869911193848 C 191.0498504638672 19.36648941040039 193.08143615722656 26.851455688476562 193.3831329345703 41.77893829345703" stroke-width="3.0" fill="none" stroke="rgb(-1, -1, 1)" stroke-opacity="1.0054814" stroke-linecap="round" stroke-linejoin="round" />
    <path d="M 139.43141174316406 89.9706039428711 C 155.41009521484375 100.67533874511719 165.44602966308594 59.47658157348633 178.19924926757812 57.57801818847656" stroke-width="3.0" fill="none" stroke="rgb(0, 0, 0)" stroke-opacity="0.99747276" stroke-linecap="round" stroke-linejoin="round" />
    <path d="M 143.7401123046875 65.82051086425781 C 97.20266723632812 73.04289245605469 107.17879486083984 73.2387466430664 131.78941345214844 64.54949188232422" stroke-width="3.0" fill="none" stroke="rgb(-1, 0, 0)" stroke-opacity="1.0035441" stroke-linecap="round" stroke-linejoin="round" />
    <path d="M 34.52962875366211 130.20657348632812 C -17.510900497436523 134.85336303710938 -8.26339340209961 161.47537231445312 -3.0607051849365234 181.84109497070312" stroke-width="3.0" fill="none" stroke="rgb(0, 0, 0)" stroke-opacity="0" stroke-linecap="round" stroke-linejoin="round" />
    <path d="M 131.19427490234375 132.88243103027344 C 139.09170532226562 131.74034118652344 143.33181762695312 142.9718475341797 132.74122619628906 152.82598876953125" stroke-width="3.0" fill="none" stroke="rgb(0, 0, 0)" stroke-opacity="0" stroke-linecap="round" stroke-linejoin="round" />
    <path d="M 159.5097198486328 171.4763946533203 C 167.5047149658203 197.38388061523438 168.82130432128906 205.09970092773438 198.24197387695312 193.9942626953125" stroke-width="3.0" fill="none" stroke="rgb(0, 0, 0)" stroke-opacity="0" stroke-linecap="round" stroke-linejoin="round" />
    <path d="M 87.99646759033203 165.38916015625 C 119.15634155273438 182.56349182128906 111.87628173828125 125.01763153076172 116.844970703125 131.637939453125" stroke-width="3.0" fill="none" stroke="rgb(0, 0, 0)" stroke-opacity="0" stroke-linecap="round" stroke-linejoin="round" />
    <path d="M 62.036590576171875 168.06497192382812 C 81.14683532714844 169.5326385498047 86.06983947753906 172.4416046142578 56.48175048828125 187.2485809326172" stroke-width="3.0" fill="none" stroke="rgb(0, 0, 0)" stroke-opacity="0" stroke-linecap="round" stroke-linejoin="round" />
    <path d="M 76.90503692626953 146.4518585205078 C 93.53630828857422 164.16445922851562 80.9945068359375 170.7379913330078 83.76941680908203 181.31887817382812" stroke-width="3.0" fill="none" stroke="rgb(0, 0, 0)" stroke-opacity="0" stroke-linecap="round" stroke-linejoin="round" />
    <path d="M 103.39391326904297 188.44287109375 C 95.6585922241211 178.75115966796875 91.00753784179688 176.5489044189453 142.5340576171875 157.39646911621094" stroke-width="3.0" fill="none" stroke="rgb(0, -1, 0)" stroke-opacity="0" stroke-linecap="round" stroke-linejoin="round" />
    <path d="M 191.29495239257812 28.978267669677734 C 214.6500701904297 36.156158447265625 220.93724060058594 69.87586212158203 198.80223083496094 62.58094024658203" stroke-width="3.0" fill="none" stroke="rgb(0, 0, 0)" stroke-opacity="0" stroke-linecap="round" stroke-linejoin="round" />
    <path d="M 199.50721740722656 76.58989715576172 C 189.94235229492188 41.68365478515625 199.56748962402344 43.69731140136719 176.69442749023438 27.617908477783203" stroke-width="3.0" fill="none" stroke="rgb(0, 0, 0)" stroke-opacity="0.7273121" stroke-linecap="round" stroke-linejoin="round" />
    <path d="M 173.82308959960938 24.575632095336914 C 152.4154052734375 26.189735412597656 230.89724731445312 -14.405431747436523 155.47201538085938 -8.241822242736816" stroke-width="3.0" fill="none" stroke="rgb(0, -1, 0)" stroke-opacity="1.0024241" stroke-linecap="round" stroke-linejoin="round" />
    <path d="M 161.5880584716797 183.67813110351562 C 174.37429809570312 90.76602172851562 219.8964080810547 39.601646423339844 172.08908081054688 63.81268310546875" stroke-width="3.0" fill="none" stroke="rgb(0, 0, 0)" stroke-opacity="1.0022966" stroke-linecap="round" stroke-linejoin="round" />
    <path d="M 198.78736877441406 -9.836496353149414 C 180.03517150878906 -5.813754558563232 190.15533447265625 8.163372039794922 192.94583129882812 -13.225628852844238" stroke-width="3.0" fill="none" stroke="rgb(0, 0, 0)" stroke-opacity="0.84224683" stroke-linecap="round" stroke-linejoin="round" />
    <path d="M 80.84957885742188 59.90721130371094 C 101.27987670898438 63.61723709106445 108.6386947631836 84.79652404785156 90.02545928955078 80.92778015136719" stroke-width="3.0" fill="none" stroke="rgb(0, 0, 0)" stroke-opacity="0.991616" stroke-linecap="round" stroke-linejoin="round" />
    <path d="M 36.87423324584961 155.9711151123047 C 38.09371566772461 100.89674377441406 47.376121520996094 74.35350036621094 92.08097839355469 67.93478393554688" stroke-width="3.0" fill="none" stroke="rgb(0, 0, 0)" stroke-opacity="0.9995534" stroke-linecap="round" stroke-linejoin="round" />
    <path d="M 154.43130493164062 103.54953002929688 C 189.85743713378906 88.9667739868164 195.64776611328125 113.85992431640625 158.12841796875 130.21826171875" stroke-width="3.0" fill="none" stroke="rgb(0, 0, 0)" stroke-opacity="0" stroke-linecap="round" stroke-linejoin="round" />
    <path d="M 97.35330963134766 -23.188451766967773 C 99.6745376586914 -23.398717880249023 93.74527740478516 4.988345146179199 101.80529022216797 60.31053161621094" stroke-width="3.0" fill="none" stroke="rgb(0, 0, 0)" stroke-opacity="0.99562716" stroke-linecap="round" stroke-linejoin="round" />
    <path d="M 141.03392028808594 61.20780944824219 C 175.81088256835938 55.75979232788086 173.8389434814453 26.621135711669922 173.8297576904297 28.574729919433594" stroke-width="3.0" fill="none" stroke="rgb(0, 0, 0)" stroke-opacity="0" stroke-linecap="round" stroke-linejoin="round" />
    <path d="M 177.79367065429688 102.92523956298828 C 118.69341278076172 119.66004180908203 57.949398040771484 72.4579849243164 140.3907470703125 76.22251892089844" stroke-width="3.0" fill="none" stroke="rgb(0, 0, 0)" stroke-opacity="1.0005642" stroke-linecap="round" stroke-linejoin="round" />
    <path d="M 146.37925720214844 107.61466979980469 C 170.7415008544922 92.77691650390625 161.55816650390625 36.818824768066406 163.13131713867188 47.61990737915039" stroke-width="3.0" fill="none" stroke="rgb(0, 0, 0)" stroke-opacity="0" stroke-linecap="round" stroke-linejoin="round" />
    <path d="M 193.83404541015625 52.06098937988281 C 191.56459045410156 83.75993347167969 182.08644104003906 99.35660552978516 188.11917114257812 78.63803100585938" stroke-width="3.0" fill="none" stroke="rgb(0, 0, 0)" stroke-opacity="0.5567263" stroke-linecap="round" stroke-linejoin="round" />
    <path d="M 222.36119079589844 -21.99212074279785 C 221.5243682861328 -15.041060447692871 232.03761291503906 27.631940841674805 231.84402465820312 40.77505111694336" stroke-width="3.0" fill="none" stroke="rgb(0, 0, 0)" stroke-opacity="0.6104671" stroke-linecap="round" stroke-linejoin="round" />
    <path d="M 175.6375274658203 -24.998069763183594 C 174.07858276367188 -3.2170753479003906 181.23898315429688 3.2609221935272217 196.0380096435547 -10.336588859558105" stroke-width="3.0" fill="none" stroke="rgb(0, 0, 0)" stroke-opacity="0.9896981" stroke-linecap="round" stroke-linejoin="round" />
    <path d="M 74.86620330810547 169.76455688476562 C 89.64443969726562 165.8689727783203 110.06465911865234 110.64799499511719 100.78182983398438 96.05965423583984" stroke-width="3.0" fill="none" stroke="rgb(0, 0, 0)" stroke-opacity="0" stroke-linecap="round" stroke-linejoin="round" />
    <path d="M 165.84512329101562 56.95017623901367 C 172.45225524902344 72.276611328125 147.20851135253906 82.7496566772461 183.25222778320312 84.98037719726562" stroke-width="3.0" fill="none" stroke="rgb(0, 0, 0)" stroke-opacity="0" stroke-linecap="round" stroke-linejoin="round" />
    <path d="M 142.7852325439453 -3.2598745822906494 C 126.72297668457031 -5.331867694854736 133.9173126220703 3.636578321456909 136.69110107421875 -7.157590389251709" stroke-width="3.0" fill="none" stroke="rgb(0, 0, 0)" stroke-opacity="0.9788517" stroke-linecap="round" stroke-linejoin="round" />
    <path d="M 85.65396881103516 -6.959774494171143 C 121.14935302734375 0.9880205988883972 141.81985473632812 26.890600204467773 142.14097595214844 32.413551330566406" stroke-width="3.0" fill="none" stroke="rgb(0, 0, 0)" stroke-opacity="1.0002354" stroke-linecap="round" stroke-linejoin="round" />
    <path d="M 170.00218200683594 13.276065826416016 C 164.85009765625 42.41903305053711 153.88356018066406 64.2724838256836 112.05247497558594 64.5755615234375" stroke-width="3.0" fill="none" stroke="rgb(0, 0, 0)" stroke-opacity="0" stroke-linecap="round" stroke-linejoin="round" />
    <path d="M 50.93224334716797 183.92117309570312 C 24.789955139160156 137.14111328125 33.59946823120117 106.9507827758789 57.5494384765625 81.11650848388672" stroke-width="3.0" fill="none" stroke="rgb(0, 0, 0)" stroke-opacity="1.0010829" stroke-linecap="round" stroke-linejoin="round" />
    <path d="M 154.9567108154297 162.85269165039062 C 129.06182861328125 111.91204071044922 133.0961151123047 112.60879516601562 136.34146118164062 139.37806701660156" stroke-width="3.0" fill="none" stroke="rgb(0, 0, 0)" stroke-opacity="0" stroke-linecap="round" stroke-linejoin="round" />
    <path d="M 119.43031311035156 76.14539337158203 C 84.944091796875 80.05390167236328 107.45838928222656 94.14087677001953 165.72518920898438 72.03971862792969" stroke-width="3.0" fill="none" stroke="rgb(0, 0, 0)" stroke-opacity="0" stroke-linecap="round" stroke-linejoin="round" />
    <path d="M 133.6699676513672 31.011451721191406 C 123.2440414428711 20.937955856323242 96.32884979248047 -7.651185035705566 83.59205627441406 -7.447162628173828" stroke-width="3.0" fill="none" stroke="rgb(0, 0, 0)" stroke-opacity="0.9999174" stroke-linecap="round" stroke-linejoin="round" />
    <path d="M 195.87452697753906 20.382810592651367 C 142.3568115234375 36.6113166809082 154.70620727539062 53.287811279296875 181.4290771484375 66.47930908203125" stroke-width="3.0" fill="none" stroke="rgb(0, 0, 0)" stroke-opacity="0" stroke-linecap="round" stroke-linejoin="round" />
    <path d="M 116.20660400390625 104.6761474609375 C 104.01961517333984 62.52238082885742 157.17079162597656 39.6310920715332 93.68350982666016 87.08715057373047" stroke-width="3.0" fill="none" stroke="rgb(0, 0, 0)" stroke-opacity="0" stroke-linecap="round" stroke-linejoin="round" />
    <path d="M 121.36595916748047 66.95398712158203 C 154.49497985839844 60.95081329345703 165.00827026367188 78.21630096435547 152.80026245117188 75.89665985107422" stroke-width="3.0" fill="none" stroke="rgb(0, 0, 0)" stroke-opacity="0" stroke-linecap="round" stroke-linejoin="round" />
    <path d="M 187.03990173339844 58.683963775634766 C 158.73069763183594 67.6290283203125 162.31285095214844 63.47727584838867 169.71505737304688 60.47684097290039" stroke-width="3.0" fill="none" stroke="rgb(0, 0, 0)" stroke-opacity="1.0007669" stroke-linecap="round" stroke-linejoin="round" />
    <path d="M 140.0673828125 226.21893310546875 C 125.12803649902344 231.27822875976562 118.63880920410156 231.70108032226562 118.88090515136719 226.72463989257812" stroke-width="3.0" fill="none" stroke="rgb(0, 0, 0)" stroke-opacity="0.8040656" stroke-linecap="round" stroke-linejoin="round" />
    <path d="M 200.39881896972656 191.20057678222656 C 173.14071655273438 196.5176544189453 153.22779846191406 187.35379028320312 200.35556030273438 194.162841796875" stroke-width="3.0" fill="none" stroke="rgb(0, 0, 0)" stroke-opacity="0" stroke-linecap="round" stroke-linejoin="round" />
    <path d="M 63.71788787841797 172.80160522460938 C 51.48046112060547 177.6045379638672 53.524391174316406 179.9611053466797 35.14651870727539 173.02975463867188" stroke-width="3.0" fill="none" stroke="rgb(0, 0, 0)" stroke-opacity="0" stroke-linecap="round" stroke-linejoin="round" />
    <path d="M 80.31907653808594 116.932861328125 C 114.27095031738281 165.7873992919922 86.12181854248047 156.89674377441406 90.06511688232422 178.98995971679688" stroke-width="3.0" fill="none" stroke="rgb(0, 0, 0)" stroke-opacity="0" stroke-linecap="round" stroke-linejoin="round" />
    <path d="M 39.80540466308594 153.0740203857422 C -26.68749237060547 118.3698959350586 -29.959197998046875 37.63288879394531 11.666298866271973 22.66197967529297" stroke-width="3.0" fill="none" stroke="rgb(0, 0, 0)" stroke-opacity="0" stroke-linecap="round" stroke-linejoin="round" />
    <path d="M 144.90406799316406 -7.189199447631836 C 106.51062774658203 -64.50287628173828 89.16717529296875 -56.37717819213867 106.7014389038086 56.47524642944336" stroke-width="3.0" fill="none" stroke="rgb(-1, 0, 0)" stroke-opacity="0.99899274" stroke-linecap="round" stroke-linejoin="round" />
    <path d="M 180.33164978027344 68.77064514160156 C 164.90211486816406 75.10540771484375 177.7838897705078 70.26482391357422 198.61386108398438 65.0859603881836" stroke-width="3.0" fill="none" stroke="rgb(-1, 0, 0)" stroke-opacity="0.9542494" stroke-linecap="round" stroke-linejoin="round" />
    <path d="M 250.0680694580078 60.53498840332031 C 241.64666748046875 73.87640380859375 191.3167266845703 77.54010009765625 177.96142578125 81.25679779052734" stroke-width="3.0" fill="none" stroke="rgb(0, -1, 0)" stroke-opacity="0.9593225" stroke-linecap="round" stroke-linejoin="round" />
    <path d="M 31.651935577392578 151.81903076171875 C 46.830718994140625 142.1868133544922 33.29661560058594 149.49501037597656 50.35735321044922 177.12672424316406" stroke-width="3.0" fill="none" stroke="rgb(0, 0, 0)" stroke-opacity="1.0007107" stroke-linecap="round" stroke-linejoin="round" />
    <path d="M 95.8764419555664 10.621367454528809 C 95.31022644042969 6.670470714569092 125.60262298583984 7.502624034881592 137.35508728027344 23.08246612548828" stroke-width="3.0" fill="none" stroke="rgb(0, 0, 0)" stroke-opacity="0" stroke-linecap="round" stroke-linejoin="round" />
    <path d="M 111.54617309570312 164.3639678955078 C 54.451416015625 173.03599548339844 57.155521392822266 180.95445251464844 104.6364517211914 178.2998809814453" stroke-width="3.0" fill="none" stroke="rgb(0, 0, 0)" stroke-opacity="0" stroke-linecap="round" stroke-linejoin="round" />
    <path d="M 192.0345458984375 23.571922302246094 C 182.65554809570312 30.2398738861084 145.7418212890625 11.639188766479492 194.0048828125 44.28187942504883" stroke-width="3.0" fill="none" stroke="rgb(0, 0, 0)" stroke-opacity="0" stroke-linecap="round" stroke-linejoin="round" />
    <path d="M 196.82923889160156 198.242431640625 C 190.1166229248047 202.58058166503906 181.9909210205078 171.2964630126953 138.72378540039062 208.51731872558594" stroke-width="3.0" fill="none" stroke="rgb(0, 0, 0)" stroke-opacity="0" stroke-linecap="round" stroke-linejoin="round" />
    <path d="M 126.36519622802734 69.72500610351562 C 141.80252075195312 35.7491455078125 98.34295654296875 43.75184631347656 94.83887481689453 46.52915573120117" stroke-width="3.0" fill="none" stroke="rgb(0, 0, 0)" stroke-opacity="0" stroke-linecap="round" stroke-linejoin="round" />
    <path d="M 150.8704833984375 157.38134765625 C 176.518798828125 193.228759765625 177.09361267089844 208.03977966308594 195.39955139160156 195.90066528320312" stroke-width="3.0" fill="none" stroke="rgb(0, 0, 0)" stroke-opacity="0" stroke-linecap="round" stroke-linejoin="round" />
    <path d="M 4.758364200592041 91.21893310546875 C 13.089570999145508 142.87753295898438 28.889617919921875 132.7975311279297 44.675384521484375 115.63483428955078" stroke-width="3.0" fill="none" stroke="rgb(0, 0, 0)" stroke-opacity="0" stroke-linecap="round" stroke-linejoin="round" />
    <path d="M 90.06765747070312 160.38262939453125 C 79.0743637084961 156.2406768798828 57.594879150390625 172.2271270751953 80.43550109863281 178.19561767578125" stroke-width="3.0" fill="none" stroke="rgb(0, 0, 0)" stroke-opacity="0" stroke-linecap="round" stroke-linejoin="round" />
    <path d="M 92.70719909667969 201.81094360351562 C 31.497407913208008 174.5457305908203 39.24149703979492 177.51158142089844 80.47489166259766 198.40293884277344" stroke-width="3.0" fill="none" stroke="rgb(0, 0, 0)" stroke-opacity="1.0031317" stroke-linecap="round" stroke-linejoin="round" />
    <path d="M 218.79031372070312 7.969231605529785 C 221.1395263671875 9.235276222229004 208.71649169921875 0.3672250211238861 203.084716796875 7.096495151519775" stroke-width="3.0" fill="none" stroke="rgb(0, 0, 0)" stroke-opacity="0" stroke-linecap="round" stroke-linejoin="round" />
    <path d="M 212.43539428710938 101.65550994873047 C 164.28379821777344 79.05487060546875 183.7141876220703 75.91403198242188 235.57582092285156 98.14413452148438" stroke-width="3.0" fill="none" stroke="rgb(0, 0, 0)" stroke-opacity="0.9945444" stroke-linecap="round" stroke-linejoin="round" />
    <path d="M 151.6739044189453 47.21974182128906 C 156.5786590576172 35.29066467285156 89.34634399414062 19.843881607055664 170.7819061279297 25.003671646118164" stroke-width="3.0" fill="none" stroke="rgb(0, 0, 0)" stroke-opacity="0" stroke-linecap="round" stroke-linejoin="round" />
    <path d="M 90.71587371826172 198.3844757080078 C 113.17579650878906 197.40380859375 91.20807647705078 175.4868621826172 91.5230484008789 187.63272094726562" stroke-width="3.0" fill="none" stroke="rgb(0, 0, 0)" stroke-opacity="0.9732344" stroke-linecap="round" stroke-linejoin="round" />
    <path d="M 180.7085418701172 87.67671966552734 C 204.5758056640625 66.12340545654297 169.35462951660156 49.798828125 172.90745544433594 54.939002990722656" stroke-width="3.0" fill="none" stroke="rgb(0, 0, 0)" stroke-opacity="0" stroke-linecap="round" stroke-linejoin="round" />
    <path d="M 30.732152938842773 84.94627380371094 C 44.124324798583984 84.17655181884766 31.573911666870117 98.0857925415039 34.55996322631836 90.34921264648438" stroke-width="3.0" fill="none" stroke="rgb(0, 0, 0)" stroke-opacity="0" stroke-linecap="round" stroke-linejoin="round" />
    <path d="M 161.3880157470703 55.4659538269043 C 171.65782165527344 75.49231719970703 186.13177490234375 70.25817108154297 187.1943817138672 21.679853439331055" stroke-width="3.0" fill="none" stroke="rgb(0, 0, 0)" stroke-opacity="0" stroke-linecap="round" stroke-linejoin="round" />
    <path d="M 150.3130645751953 32.97186279296875 C 164.37379455566406 46.19063949584961 173.3713836669922 69.54883575439453 183.04693603515625 62.578922271728516" stroke-width="3.0" fill="none" stroke="rgb(0, 0, 0)" stroke-opacity="0" stroke-linecap="round" stroke-linejoin="round" />
    <path d="M 22.711082458496094 84.1477279663086 C -1.8975481986999512 99.78611755371094 11.323019027709961 146.98513793945312 40.255123138427734 143.95797729492188" stroke-width="3.0" fill="none" stroke="rgb(0, 0, 0)" stroke-opacity="0.5298396" stroke-linecap="round" stroke-linejoin="round" />
    <path d="M 136.93016052246094 135.95101928710938 C 134.52304077148438 204.73944091796875 155.0443572998047 211.37039184570312 128.87493896484375 210.2117919921875" stroke-width="3.0" fill="none" stroke="rgb(0, 0, 0)" stroke-opacity="1.001886" stroke-linecap="round" stroke-linejoin="round" />
    <path d="M 161.08689880371094 27.226608276367188 C 196.8530731201172 -6.444023132324219 200.6060791015625 -24.118192672729492 151.93258666992188 -2.0947558879852295" stroke-width="3.0" fill="none" stroke="rgb(0, 0, 0)" stroke-opacity="1.0047994" stroke-linecap="round" stroke-linejoin="round" />
    <path d="M -4.331421375274658 130.13009643554688 C -3.367521286010742 138.4498748779297 -3.0431947708129883 144.8064422607422 -5.7798261642456055 141.40037536621094" stroke-width="3.0" fill="none" stroke="rgb(0, 0, 0)" stroke-opacity="0.90237635" stroke-linecap="round" stroke-linejoin="round" />
    <path d="M 40.40982437133789 143.1244659423828 C 21.190868377685547 168.8239288330078 4.85916805267334 90.9936752319336 57.6049690246582 64.51835632324219" stroke-width="3.0" fill="none" stroke="rgb(-1, -1, 0)" stroke-opacity="1.0044392" stroke-linecap="round" stroke-linejoin="round" />
    <path d="M 184.63612365722656 59.518070220947266 C 139.25892639160156 88.10140991210938 162.92991638183594 77.97779846191406 122.5674057006836 60.7478141784668" stroke-width="3.0" fill="none" stroke="rgb(0, 0, 0)" stroke-opacity="0.998743" stroke-linecap="round" stroke-linejoin="round" />
    <path d="M 105.6116943359375 17.68909454345703 C 112.31490325927734 67.92249298095703 122.03141784667969 31.189929962158203 98.28392791748047 26.31354522705078" stroke-width="3.0" fill="none" stroke="rgb(0, 0, 0)" stroke-opacity="0" stroke-linecap="round" stroke-linejoin="round" />
    <path d="M 126.7621841430664 208.8953094482422 C 133.07444763183594 192.52066040039062 165.5623779296875 186.26878356933594 158.9166717529297 206.90966796875" stroke-width="3.0" fill="none" stroke="rgb(0, -1, 1)" stroke-opacity="0.43033782" stroke-linecap="round" stroke-linejoin="round" />
    <path d="M 90.87107849121094 160.97012329101562 C 82.50975036621094 158.72731018066406 78.38018035888672 178.27708435058594 50.53989028930664 166.5400390625" stroke-width="3.0" fill="none" stroke="rgb(0, 0, 0)" stroke-opacity="0" stroke-linecap="round" stroke-linejoin="round" />
    <path d="M 72.48998260498047 154.71287536621094 C 58.33826446533203 144.27545166015625 75.7582015991211 155.7060546875 76.1583023071289 163.64151000976562" stroke-width="3.0" fill="none" stroke="rgb(0, 0, 0)" stroke-opacity="0" stroke-linecap="round" stroke-linejoin="round" />
    <path d="M 190.11190795898438 34.837135314941406 C 207.0318145751953 -22.897645950317383 171.41598510742188 11.704710960388184 153.25387573242188 29.16243553161621" stroke-width="3.0" fill="none" stroke="rgb(-1, -1, 0)" stroke-opacity="1.0043652" stroke-linecap="round" stroke-linejoin="round" />
    <path d="M 148.32452392578125 20.48076629638672 C 159.18576049804688 -5.939668655395508 184.08473205566406 -31.553512573242188 196.2209014892578 13.9661283493042" stroke-width="3.0" fill="none" stroke="rgb(0, 0, 0)" stroke-opacity="0" stroke-linecap="round" stroke-linejoin="round" />
    <path d="M 192.17857360839844 -4.119915008544922 C 190.28480529785156 16.282331466674805 196.18675231933594 7.57564640045166 195.11410522460938 10.180411338806152" stroke-width="3.0" fill="none" stroke="rgb(-1, -1, 1)" stroke-opacity="0.9171748" stroke-linecap="round" stroke-linejoin="round" />
    <path d="M 115.94843292236328 67.75923919677734 C 122.04461669921875 105.53067779541016 119.13397216796875 117.8344497680664 134.9866180419922 103.18473052978516" stroke-width="3.0" fill="none" stroke="rgb(0, 0, 0)" stroke-opacity="0" stroke-linecap="round" stroke-linejoin="round" />
    <path d="M 185.0885467529297 112.1661605834961 C 185.46241760253906 111.37797546386719 183.6776123046875 107.90103149414062 185.9805908203125 97.68009185791016" stroke-width="3.0" fill="none" stroke="rgb(0, 0, 0)" stroke-opacity="0" stroke-linecap="round" stroke-linejoin="round" />
    <path d="M 95.00619506835938 160.0824737548828 C 108.33897399902344 158.67568969726562 131.00747680664062 132.4962615966797 167.52432250976562 129.5251922607422" stroke-width="3.0" fill="none" stroke="rgb(0, 0, 0)" stroke-opacity="0" stroke-linecap="round" stroke-linejoin="round" />
    <path d="M 120.21871185302734 77.70650482177734 C 167.5179443359375 60.077789306640625 157.4940643310547 38.99211120605469 163.35592651367188 33.96305465698242" stroke-width="3.0" fill="none" stroke="rgb(0, 0, 0)" stroke-opacity="0" stroke-linecap="round" stroke-linejoin="round" />
    <path d="M 33.656490325927734 154.08956909179688 C 32.41918182373047 140.31336975097656 7.950047016143799 110.85167694091797 -2.2016265392303467 134.89268493652344" stroke-width="3.0" fill="none" stroke="rgb(-1, 0, 0)" stroke-opacity="0" stroke-linecap="round" stroke-linejoin="round" />
    <path d="M 110.06256866455078 196.9791259765625 C 102.57635498046875 181.72439575195312 119.51008605957031 217.45005798339844 115.88969421386719 222.888671875" stroke-width="3.0" fill="none" stroke="rgb(0, 0, 0)" stroke-opacity="0" stroke-linecap="round" stroke-linejoin="round" />
    <path d="M 145.3236846923828 204.5756378173828 C 112.65449523925781 211.3675994873047 115.96454620361328 203.91983032226562 145.09474182128906 194.0880126953125" stroke-width="3.0" fill="none" stroke="rgb(0, 0, 0)" stroke-opacity="0.61927927" stroke-linecap="round" stroke-linejoin="round" />
    <path d="M 122.64828491210938 192.2824249267578 C 74.94160461425781 175.57664489746094 91.10077667236328 156.69517517089844 75.30119323730469 170.82569885253906" stroke-width="3.0" fill="none" stroke="rgb(0, 0, 0)" stroke-opacity="0" stroke-linecap="round" stroke-linejoin="round" />
    <path d="M 195.03805541992188 -21.45149040222168 C 197.74807739257812 56.386024475097656 188.3052978515625 73.2718505859375 212.9701385498047 54.9871711730957" stroke-width="3.0" fill="none" stroke="rgb(-1, -1, 1)" stroke-opacity="1.0055712" stroke-linecap="round" stroke-linejoin="round" />
    <path d="M 100.21639251708984 34.004295349121094 C 96.67007446289062 -26.19574546813965 91.18463897705078 45.946170806884766 107.44166564941406 102.24748229980469" stroke-width="3.0" fill="none" stroke="rgb(0, 0, 0)" stroke-opacity="0.98851573" stroke-linecap="round" stroke-linejoin="round" />
    <path d="M 126.9058609008789 208.41116333007812 C 104.9979248046875 154.97470092773438 111.6640625 167.42694091796875 106.40718841552734 146.20285034179688" stroke-width="3.0" fill="none" stroke="rgb(0, 0, 0)" stroke-opacity="0.9560758" stroke-linecap="round" stroke-linejoin="round" />
    <path d="M 79.84504699707031 178.297119140625 C 61.90144729614258 201.93983459472656 72.7254409790039 207.12161254882812 73.89497375488281 172.61756896972656" stroke-width="3.0" fill="none" stroke="rgb(0, 0, 0)" stroke-opacity="0" stroke-linecap="round" stroke-linejoin="round" />
    <path d="M 164.3240203857422 168.16929626464844 C 174.7384796142578 130.38816833496094 176.82249450683594 126.6742172241211 142.6517791748047 149.26943969726562" stroke-width="3.0" fill="none" stroke="rgb(0, 0, 0)" stroke-opacity="0" stroke-linecap="round" stroke-linejoin="round" />
    <path d="M 43.6723518371582 179.6653594970703 C 83.20008087158203 159.7894287109375 80.78209686279297 159.1536865234375 38.20071029663086 180.0063934326172" stroke-width="3.0" fill="none" stroke="rgb(0, 0, 0)" stroke-opacity="0" stroke-linecap="round" stroke-linejoin="round" />
    <path d="M 117.74360656738281 11.009139060974121 C 137.3822784423828 31.311206817626953 115.21852111816406 18.807397842407227 175.1669921875 17.374420166015625" stroke-width="3.0" fill="none" stroke="rgb(0, 0, 0)" stroke-opacity="1.0020698" stroke-linecap="round" stroke-linejoin="round" />
    <path d="M 184.17222595214844 173.2178192138672 C 190.9119873046875 183.6180419921875 221.71400451660156 193.16343688964844 192.4224090576172 180.6212158203125" stroke-width="3.0" fill="none" stroke="rgb(0, 0, 0)" stroke-opacity="0" stroke-linecap="round" stroke-linejoin="round" />
    <path d="M 89.70164489746094 172.6007843017578 C 127.6219253540039 167.09423828125 131.77932739257812 195.37571716308594 111.81121063232422 140.19027709960938" stroke-width="3.0" fill="none" stroke="rgb(0, 0, 0)" stroke-opacity="0" stroke-linecap="round" stroke-linejoin="round" />
    <path d="M 165.43731689453125 64.74855041503906 C 169.77334594726562 73.679443359375 167.38214111328125 73.33287048339844 167.7539520263672 60.025428771972656" stroke-width="3.0" fill="none" stroke="rgb(0, 0, 0)" stroke-opacity="0.417206" stroke-linecap="round" stroke-linejoin="round" />
    <path d="M 141.15707397460938 102.55957794189453 C 142.4503936767578 132.30250549316406 147.98373413085938 125.36366271972656 142.42630004882812 121.74215698242188" stroke-width="3.0" fill="none" stroke="rgb(0, 0, 0)" stroke-opacity="0" stroke-linecap="round" stroke-linejoin="round" />
    <path d="M 92.24168395996094 0.26777198910713196 C 91.23985290527344 2.0431413650512695 95.31389617919922 -4.30879545211792 95.99073791503906 -6.674777507781982" stroke-width="3.0" fill="none" stroke="rgb(0, 0, 0)" stroke-opacity="0" stroke-linecap="round" stroke-linejoin="round" />
    <path d="M 115.9090347290039 12.789698600769043 C 145.4472198486328 39.30434036254883 127.13589477539062 13.58273696899414 95.90949249267578 -1.1695153713226318" stroke-width="3.0" fill="none" stroke="rgb(0, 0, 0)" stroke-opacity="1.0012544" stroke-linecap="round" stroke-linejoin="round" />
    <path d="M 100.53118133544922 42.96846008300781 C 98.72501373291016 32.54677200317383 100.70244598388672 29.942943572998047 119.9754867553711 102.81156158447266" stroke-width="3.0" fill="none" stroke="rgb(0, 0, 0)" stroke-opacity="0.38744146" stroke-linecap="round" stroke-linejoin="round" />
    <path d="M 195.6068115234375 20.965808868408203 C 165.4405975341797 28.022905349731445 186.05882263183594 36.985565185546875 197.42990112304688 71.66170501708984" stroke-width="3.0" fill="none" stroke="rgb(0, 0, 0)" stroke-opacity="0" stroke-linecap="round" stroke-linejoin="round" />
    <path d="M 112.45098114013672 42.09640121459961 C 129.9764404296875 23.5476016998291 126.29035186767578 25.713184356689453 126.8989028930664 -6.451432228088379" stroke-width="3.0" fill="none" stroke="rgb(0, 0, 0)" stroke-opacity="0" stroke-linecap="round" stroke-linejoin="round" />
    <path d="M 120.64265441894531 -5.964636325836182 C 127.7737045288086 -13.49750804901123 138.8489990234375 -12.259888648986816 128.96401977539062 -1.7733981609344482" stroke-width="3.0" fill="none" stroke="rgb(0, 0, 0)" stroke-opacity="0.8731243" stroke-linecap="round" stroke-linejoin="round" />
    <path d="M 94.97447204589844 70.97044372558594 C 98.26851654052734 60.487525939941406 47.30237579345703 51.40070724487305 23.707307815551758 107.64978790283203" stroke-width="3.0" fill="none" stroke="rgb(0, 0, 0)" stroke-opacity="1.0036154" stroke-linecap="round" stroke-linejoin="round" />
    <path d="M 155.21392822265625 207.58358764648438 C 131.1375732421875 209.8498077392578 131.19964599609375 148.4587860107422 138.69509887695312 137.9206085205078" stroke-width="3.0" fill="none" stroke="rgb(0, -1, 0)" stroke-opacity="1.003903" stroke-linecap="round" stroke-linejoin="round" />
    <path d="M 201.62521362304688 160.9745635986328 C 195.45130920410156 127.31681823730469 175.72227478027344 100.44480895996094 165.9722900390625 85.30091857910156" stroke-width="3.0" fill="none" stroke="rgb(0, 0, 0)" stroke-opacity="0" stroke-linecap="round" stroke-linejoin="round" />
    <path d="M 90.62474060058594 121.53411865234375 C 95.2920913696289 145.8584747314453 112.3427963256836 205.91592407226562 139.75747680664062 215.52110290527344" stroke-width="3.0" fill="none" stroke="rgb(0, -1, 0)" stroke-opacity="1.0012995" stroke-linecap="round" stroke-linejoin="round" />
    <path d="M 110.79304504394531 43.87443161010742 C 146.05523681640625 54.73740768432617 156.43521118164062 49.598751068115234 144.0731201171875 33.414825439453125" stroke-width="3.0" fill="none" stroke="rgb(0, 0, 0)" stroke-opacity="0" stroke-linecap="round" stroke-linejoin="round" />
    <path d="M 97.77965545654297 -5.3676066398620605 C 133.5108642578125 -19.040668487548828 167.44754028320312 -31.67045021057129 208.19003295898438 -2.3973546028137207" stroke-width="3.0" fill="none" stroke="rgb(0, 0, 0)" stroke-opacity="0.48250148" stroke-linecap="round" stroke-linejoin="round" />
    <path d="M 31.8101749420166 133.55752563476562 C 42.83916091918945 127.9953842163086 64.38465118408203 90.8506088256836 36.796390533447266 106.01129913330078" stroke-width="3.0" fill="none" stroke="rgb(0, 0, 0)" stroke-opacity="0" stroke-linecap="round" stroke-linejoin="round" />
    <path d="M 127.08614349365234 13.55118465423584 C 112.67740631103516 -20.391443252563477 111.89055633544922 42.57182693481445 122.83854675292969 34.64442443847656" stroke-width="3.0" fill="none" stroke="rgb(0, 0, 0)" stroke-opacity="0" stroke-linecap="round" stroke-linejoin="round" />
    <path d="M 22.545963287353516 165.24029541015625 C 94.71054077148438 209.18243408203125 108.49342346191406 179.74038696289062 98.76107788085938 145.95228576660156" stroke-width="3.0" fill="none" stroke="rgb(0, 0, 0)" stroke-opacity="0.5083949" stroke-linecap="round" stroke-linejoin="round" />
  </g>
</svg>