<?xml version="1.0" ?>
<svg xmlns="http://www.w3.org/2000/svg" version="1.1" width="224" height="224">
  <defs/>
  <g>
    <path d="M 30.999998092651367 143.0 C 33.950592041015625 148.3292999267578 29.21389389038086 152.17507934570312 27.8101749420166 152.37396240234375" stroke-width="3.0" fill="none" stroke="rgb(0, 0, 0)" stroke-opacity="1.0" stroke-linecap="round" stroke-linejoin="round"/>
    <path d="M 170.0 65.0 C 171.36695861816406 59.421165466308594 171.36404418945312 60.12762451171875 168.53970336914062 58.04950714111328" stroke-width="3.0" fill="none" stroke="rgb(0, 0, 0)" stroke-opacity="1.0" stroke-linecap="round" stroke-linejoin="round"/>
    <path d="M 100.0 132.0 C 104.6568603515625 135.19924926757812 105.9707260131836 129.61598205566406 108.60475158691406 134.3411865234375" stroke-width="3.0" fill="none" stroke="rgb(0, 0, 0)" stroke-opacity="1.0" stroke-linecap="round" stroke-linejoin="round"/>
    <path d="M 57.000003814697266 145.0 C 62.0087890625 140.3313751220703 59.1375732421875 136.58743286132812 56.05263900756836 134.80084228515625" stroke-width="3.0" fill="none" stroke="rgb(0, 0, 0)" stroke-opacity="1.0" stroke-linecap="round" stroke-linejoin="round"/>
    <path d="M 173.0 209.0 C 178.15553283691406 209.85769653320312 178.93560791015625 205.46282958984375 182.0238800048828 201.41015625" stroke-width="3.0" fill="none" stroke="rgb(0, 0, 0)" stroke-opacity="1.0" stroke-linecap="round" stroke-linejoin="round"/>
    <path d="M 56.0 41.0 C 53.112525939941406 39.10646057128906 47.75833511352539 42.063987731933594 43.00302505493164 47.06511306762695" stroke-width="3.0" fill="none" stroke="rgb(0, 0, 0)" stroke-opacity="1.0" stroke-linecap="round" stroke-linejoin="round"/>
    <path d="M 64.0 147.0 C 61.1048583984375 148.57876586914062 65.91294860839844 150.40057373046875 67.92333984375 144.9106903076172" stroke-width="3.0" fill="none" stroke="rgb(0, 0, 0)" stroke-opacity="1.0" stroke-linecap="round" stroke-linejoin="round"/>
    <path d="M 92.0 189.0 C 92.41036987304688 188.3177032470703 92.70047760009766 188.74452209472656 90.5694808959961 190.8907012939453" stroke-width="3.0" fill="none" stroke="rgb(0, 0, 0)" stroke-opacity="1.0" stroke-linecap="round" stroke-linejoin="round"/>
    <path d="M 150.0 131.0 C 154.1703338623047 129.4531707763672 156.75938415527344 134.51022338867188 160.58779907226562 139.5244140625" stroke-width="3.0" fill="none" stroke="rgb(0, 0, 0)" stroke-opacity="1.0" stroke-linecap="round" stroke-linejoin="round"/>
    <path d="M 22.0 115.0 C 16.819509506225586 111.32584381103516 15.522880554199219 115.5147705078125 19.403478622436523 110.12554168701172" stroke-width="3.0" fill="none" stroke="rgb(0, 0, 0)" stroke-opacity="1.0" stroke-linecap="round" stroke-linejoin="round"/>
    <path d="M 63.0 36.0 C 63.852317810058594 37.6449089050293 60.453792572021484 32.43706130981445 60.169673919677734 29.0093994140625" stroke-width="3.0" fill="none" stroke="rgb(0, 0, 0)" stroke-opacity="1.0" stroke-linecap="round" stroke-linejoin="round"/>
    <path d="M 75.0 121.00000762939453 C 79.94454956054688 124.83870697021484 82.51773071289062 123.45462799072266 77.5987548828125 128.25650024414062" stroke-width="3.0" fill="none" stroke="rgb(0, 0, 0)" stroke-opacity="1.0" stroke-linecap="round" stroke-linejoin="round"/>
    <path d="M 146.0 64.0 C 141.2659912109375 61.089542388916016 145.331787109375 59.14728927612305 148.7904052734375 63.67615509033203" stroke-width="3.0" fill="none" stroke="rgb(0, 0, 0)" stroke-opacity="1.0" stroke-linecap="round" stroke-linejoin="round"/>
    <path d="M 61.0 35.0 C 55.73793029785156 40.49739456176758 60.307594299316406 45.294944763183594 60.87847137451172 46.853172302246094" stroke-width="3.0" fill="none" stroke="rgb(0, 0, 0)" stroke-opacity="1.0" stroke-linecap="round" stroke-linejoin="round"/>
    <path d="M 59.0 39.0 C 61.61766052246094 41.83308029174805 60.63340377807617 43.00988006591797 57.05320739746094 44.90892028808594" stroke-width="3.0" fill="none" stroke="rgb(0, 0, 0)" stroke-opacity="1.0" stroke-linecap="round" stroke-linejoin="round"/>
    <path d="M 44.0 60.0 C 40.90696334838867 57.67724609375 44.03087615966797 54.12135314941406 45.750831604003906 55.33032989501953" stroke-width="3.0" fill="none" stroke="rgb(0, 0, 0)" stroke-opacity="1.0" stroke-linecap="round" stroke-linejoin="round"/>
    <path d="M 76.0 148.0 C 74.83609771728516 153.32550048828125 69.55365753173828 149.69680786132812 74.94966888427734 151.99588012695312" stroke-width="3.0" fill="none" stroke="rgb(0, 0, 0)" stroke-opacity="1.0" stroke-linecap="round" stroke-linejoin="round"/>
    <path d="M 194.0 44.0 C 189.65386962890625 43.38167953491211 191.4751739501953 38.87025833129883 194.9847869873047 40.31509780883789" stroke-width="3.0" fill="none" stroke="rgb(0, 0, 0)" stroke-opacity="1.0" stroke-linecap="round" stroke-linejoin="round"/>
    <path d="M 137.0 43.0 C 131.6029052734375 43.175498962402344 136.54690551757812 38.64933395385742 139.8539276123047 43.006202697753906" stroke-width="3.0" fill="none" stroke="rgb(0, 0, 0)" stroke-opacity="1.0" stroke-linecap="round" stroke-linejoin="round"/>
    <path d="M 166.0 61.0 C 163.06985473632812 60.247802734375 160.5010986328125 64.45664978027344 159.9668731689453 64.46094512939453" stroke-width="3.0" fill="none" stroke="rgb(0, 0, 0)" stroke-opacity="1.0" stroke-linecap="round" stroke-linejoin="round"/>
    <path d="M 29.0 121.00000762939453 C 30.6724853515625 125.06063079833984 25.56010627746582 130.53805541992188 20.368154525756836 134.93495178222656" stroke-width="3.0" fill="none" stroke="rgb(0, 0, 0)" stroke-opacity="1.0" stroke-linecap="round" stroke-linejoin="round"/>
    <path d="M 127.0 116.0 C 122.47591400146484 119.4145736694336 117.5779800415039 123.6314697265625 122.98980712890625 125.63943481445312" stroke-width="3.0" fill="none" stroke="rgb(0, 0, 0)" stroke-opacity="1.0" stroke-linecap="round" stroke-linejoin="round"/>
    <path d="M 178.0 178.0 C 181.22225952148438 181.19842529296875 179.05615234375 186.1305389404297 178.76683044433594 186.05526733398438" stroke-width="3.0" fill="none" stroke="rgb(0, 0, 0)" stroke-opacity="1.0" stroke-linecap="round" stroke-linejoin="round"/>
    <path d="M 95.0 116.0 C 99.8892822265625 111.58453369140625 96.27163696289062 114.20663452148438 101.2105712890625 110.81652069091797" stroke-width="3.0" fill="none" stroke="rgb(0, 0, 0)" stroke-opacity="1.0" stroke-linecap="round" stroke-linejoin="round"/>
    <path d="M 64.0 178.0 C 66.34808349609375 178.13656616210938 71.84160614013672 174.8437957763672 71.77264404296875 172.2593231201172" stroke-width="3.0" fill="none" stroke="rgb(0, 0, 0)" stroke-opacity="1.0" stroke-linecap="round" stroke-linejoin="round"/>
    <path d="M 79.0 189.0 C 77.82991027832031 188.22625732421875 76.72584533691406 188.902099609375 77.24118041992188 183.80206298828125" stroke-width="3.0" fill="none" stroke="rgb(0, 0, 0)" stroke-opacity="1.0" stroke-linecap="round" stroke-linejoin="round"/>
    <path d="M 81.0 188.0 C 77.68266296386719 186.31607055664062 80.51826477050781 187.49742126464844 82.22584533691406 186.22412109375" stroke-width="3.0" fill="none" stroke="rgb(0, 0, 0)" stroke-opacity="1.0" stroke-linecap="round" stroke-linejoin="round"/>
    <path d="M 174.0 58.0 C 177.21836853027344 53.03830337524414 180.06927490234375 49.551429748535156 174.9486846923828 49.371856689453125" stroke-width="3.0" fill="none" stroke="rgb(0, 0, 0)" stroke-opacity="1.0" stroke-linecap="round" stroke-linejoin="round"/>
    <path d="M 165.0 57.000003814697266 C 164.47256469726562 60.17388916015625 164.13250732421875 59.866539001464844 166.34463500976562 65.4267578125" stroke-width="3.0" fill="none" stroke="rgb(0, 0, 0)" stroke-opacity="1.0" stroke-linecap="round" stroke-linejoin="round"/>
    <path d="M 178.0 10.0 C 182.32171630859375 7.759267330169678 178.0626678466797 12.650203704833984 178.89913940429688 9.563984870910645" stroke-width="3.0" fill="none" stroke="rgb(0, 0, 0)" stroke-opacity="1.0" stroke-linecap="round" stroke-linejoin="round"/>
    <path d="M 173.0 143.0 C 171.8892822265625 147.30958557128906 175.90475463867188 144.3334503173828 175.66111755371094 144.8773193359375" stroke-width="3.0" fill="none" stroke="rgb(0, 0, 0)" stroke-opacity="1.0" stroke-linecap="round" stroke-linejoin="round"/>
    <path d="M 189.0 11.0 C 192.4427947998047 13.357085227966309 195.17459106445312 18.737821578979492 197.62203979492188 13.793190002441406" stroke-width="3.0" fill="none" stroke="rgb(0, 0, 0)" stroke-opacity="1.0" stroke-linecap="round" stroke-linejoin="round"/>
    <path d="M 104.0 77.0 C 101.3001480102539 82.26850128173828 101.35626220703125 81.85195922851562 102.02961730957031 85.8699722290039" stroke-width="3.0" fill="none" stroke="rgb(0, 0, 0)" stroke-opacity="1.0" stroke-linecap="round" stroke-linejoin="round"/>
    <path d="M 24.0 89.0 C 28.12986946105957 83.55235290527344 25.93292236328125 84.14260864257812 29.42919158935547 87.11096954345703" stroke-width="3.0" fill="none" stroke="rgb(0, 0, 0)" stroke-opacity="1.0" stroke-linecap="round" stroke-linejoin="round"/>
    <path d="M 179.0 114.00000762939453 C 181.68157958984375 113.11541748046875 176.72549438476562 111.24291229248047 180.38629150390625 112.98433685302734" stroke-width="3.0" fill="none" stroke="rgb(0, 0, 0)" stroke-opacity="1.0" stroke-linecap="round" stroke-linejoin="round"/>
    <path d="M 123.0 3.0 C 123.66822814941406 7.701033115386963 122.58943176269531 9.113238334655762 118.30601501464844 12.780345916748047" stroke-width="3.0" fill="none" stroke="rgb(0, 0, 0)" stroke-opacity="1.0" stroke-linecap="round" stroke-linejoin="round"/>
    <path d="M 153.0 46.0 C 153.3536834716797 42.938289642333984 154.75454711914062 45.534183502197266 157.57656860351562 45.963829040527344" stroke-width="3.0" fill="none" stroke="rgb(0, 0, 0)" stroke-opacity="1.0" stroke-linecap="round" stroke-linejoin="round"/>
    <path d="M 149.0 66.0 C 147.80299377441406 60.4412841796875 143.73269653320312 59.85246276855469 138.79855346679688 56.94850540161133" stroke-width="3.0" fill="none" stroke="rgb(0, 0, 0)" stroke-opacity="1.0" stroke-linecap="round" stroke-linejoin="round"/>
    <path d="M 165.0 115.0 C 168.31610107421875 112.92230224609375 171.4604949951172 107.93473815917969 165.99307250976562 113.51597595214844" stroke-width="3.0" fill="none" stroke="rgb(0, 0, 0)" stroke-opacity="1.0" stroke-linecap="round" stroke-linejoin="round"/>
    <path d="M 169.0 64.0 C 172.25799560546875 67.03419494628906 175.1742706298828 64.85137939453125 176.57293701171875 62.62737274169922" stroke-width="3.0" fill="none" stroke="rgb(0, 0, 0)" stroke-opacity="1.0" stroke-linecap="round" stroke-linejoin="round"/>
    <path d="M 203.0 7.0 C 198.25624084472656 11.273021697998047 192.71890258789062 12.24100399017334 197.91961669921875 8.003199577331543" stroke-width="3.0" fill="none" stroke="rgb(0, 0, 0)" stroke-opacity="1.0" stroke-linecap="round" stroke-linejoin="round"/>
    <path d="M 182.0 3.0 C 184.70880126953125 5.679771423339844 184.65261840820312 1.7007086277008057 188.84181213378906 3.5054831504821777" stroke-width="3.0" fill="none" stroke="rgb(0, 0, 0)" stroke-opacity="1.0" stroke-linecap="round" stroke-linejoin="round"/>
    <path d="M 77.0 132.0 C 77.5674819946289 128.7734832763672 81.67996215820312 129.76756286621094 81.39130401611328 130.27467346191406" stroke-width="3.0" fill="none" stroke="rgb(0, 0, 0)" stroke-opacity="1.0" stroke-linecap="round" stroke-linejoin="round"/>
    <path d="M 175.0 55.0 C 179.33615112304688 56.51812744140625 176.9239959716797 54.88672637939453 174.31753540039062 50.606937408447266" stroke-width="3.0" fill="none" stroke="rgb(0, 0, 0)" stroke-opacity="1.0" stroke-linecap="round" stroke-linejoin="round"/>
    <path d="M 130.0 3.0 C 125.69367980957031 -2.4679458141326904 122.19912719726562 2.4810736179351807 122.62626647949219 7.312905311584473" stroke-width="3.0" fill="none" stroke="rgb(0, 0, 0)" stroke-opacity="1.0" stroke-linecap="round" stroke-linejoin="round"/>
    <path d="M 152.0 15.0 C 148.5181884765625 10.701597213745117 151.44107055664062 8.658380508422852 155.00192260742188 11.056408882141113" stroke-width="3.0" fill="none" stroke="rgb(0, 0, 0)" stroke-opacity="1.0" stroke-linecap="round" stroke-linejoin="round"/>
    <path d="M 144.0 17.0 C 139.32916259765625 15.81458568572998 141.4658966064453 18.200029373168945 142.12567138671875 23.066858291625977" stroke-width="3.0" fill="none" stroke="rgb(0, 0, 0)" stroke-opacity="1.0" stroke-linecap="round" stroke-linejoin="round"/>
    <path d="M 28.0 123.0 C 30.449949264526367 121.99620056152344 25.237459182739258 119.96178436279297 22.903766632080078 118.44273376464844" stroke-width="3.0" fill="none" stroke="rgb(0, 0, 0)" stroke-opacity="1.0" stroke-linecap="round" stroke-linejoin="round"/>
    <path d="M 122.0 157.0 C 117.19709777832031 152.73648071289062 119.98617553710938 149.2563018798828 122.443359375 146.91043090820312" stroke-width="3.0" fill="none" stroke="rgb(0, 0, 0)" stroke-opacity="1.0" stroke-linecap="round" stroke-linejoin="round"/>
    <path d="M 177.0 48.0 C 173.6519012451172 50.74872589111328 172.42974853515625 48.086143493652344 171.7310028076172 46.56829071044922" stroke-width="3.0" fill="none" stroke="rgb(0, 0, 0)" stroke-opacity="1.0" stroke-linecap="round" stroke-linejoin="round"/>
    <path d="M 130.0 34.0 C 130.4381866455078 37.056941986083984 127.9623031616211 34.68697738647461 130.81549072265625 38.26999282836914" stroke-width="3.0" fill="none" stroke="rgb(0, 0, 0)" stroke-opacity="1.0" stroke-linecap="round" stroke-linejoin="round"/>
    <path d="M 202.0 64.0 C 197.38128662109375 66.26358795166016 193.34750366210938 64.05868530273438 191.32168579101562 64.68159484863281" stroke-width="3.0" fill="none" stroke="rgb(0, 0, 0)" stroke-opacity="1.0" stroke-linecap="round" stroke-linejoin="round"/>
    <path d="M 132.0 69.0 C 130.04959106445312 71.19612121582031 130.20541381835938 68.0483627319336 125.61837768554688 67.45317077636719" stroke-width="3.0" fill="none" stroke="rgb(0, 0, 0)" stroke-opacity="1.0" stroke-linecap="round" stroke-linejoin="round"/>
    <path d="M 151.0 61.999996185302734 C 149.7154541015625 62.64445877075195 151.80850219726562 58.24059295654297 152.81201171875 56.485504150390625" stroke-width="3.0" fill="none" stroke="rgb(0, 0, 0)" stroke-opacity="1.0" stroke-linecap="round" stroke-linejoin="round"/>
    <path d="M 164.0 57.000003814697266 C 168.17648315429688 57.00932312011719 166.88919067382812 54.37651062011719 167.3304443359375 52.20713806152344" stroke-width="3.0" fill="none" stroke="rgb(0, 0, 0)" stroke-opacity="1.0" stroke-linecap="round" stroke-linejoin="round"/>
    <path d="M 135.0 219.0 C 131.06365966796875 222.61727905273438 136.66258239746094 222.1039276123047 132.7246856689453 218.47512817382812" stroke-width="3.0" fill="none" stroke="rgb(0, 0, 0)" stroke-opacity="1.0" stroke-linecap="round" stroke-linejoin="round"/>
    <path d="M 175.0 179.0 C 170.60891723632812 179.33102416992188 174.15533447265625 182.77218627929688 174.3039093017578 177.3806915283203" stroke-width="3.0" fill="none" stroke="rgb(0, 0, 0)" stroke-opacity="1.0" stroke-linecap="round" stroke-linejoin="round"/>
    <path d="M 30.999998092651367 152.0 C 35.76131820678711 155.2169189453125 37.073299407958984 151.6750030517578 34.48473358154297 148.1548309326172" stroke-width="3.0" fill="none" stroke="rgb(0, 0, 0)" stroke-opacity="1.0" stroke-linecap="round" stroke-linejoin="round"/>
    <path d="M 79.0 163.0 C 74.58047485351562 168.2599639892578 72.94989013671875 164.99758911132812 75.34268951416016 161.77423095703125" stroke-width="3.0" fill="none" stroke="rgb(0, 0, 0)" stroke-opacity="1.0" stroke-linecap="round" stroke-linejoin="round"/>
    <path d="M 13.0 136.0 C 12.66826343536377 132.92245483398438 13.839262962341309 134.93215942382812 11.992919921875 129.8736114501953" stroke-width="3.0" fill="none" stroke="rgb(0, 0, 0)" stroke-opacity="1.0" stroke-linecap="round" stroke-linejoin="round"/>
    <path d="M 144.0 4.0 C 144.6912384033203 1.0941365957260132 144.0478973388672 6.3616461753845215 140.2716827392578 11.279767990112305" stroke-width="3.0" fill="none" stroke="rgb(0, 0, 0)" stroke-opacity="1.0" stroke-linecap="round" stroke-linejoin="round"/>
    <path d="M 176.0 60.0 C 171.86587524414062 63.75255584716797 174.64971923828125 62.40501403808594 173.94248962402344 64.69916534423828" stroke-width="3.0" fill="none" stroke="rgb(0, 0, 0)" stroke-opacity="1.0" stroke-linecap="round" stroke-linejoin="round"/>
    <path d="M 179.0 77.0 C 176.7838592529297 77.50308227539062 176.97218322753906 73.44842529296875 172.67361450195312 71.74839782714844" stroke-width="3.0" fill="none" stroke="rgb(0, 0, 0)" stroke-opacity="1.0" stroke-linecap="round" stroke-linejoin="round"/>
    <path d="M 28.0 134.0 C 25.550281524658203 133.68865966796875 23.739511489868164 137.2662811279297 23.89322280883789 141.8165283203125" stroke-width="3.0" fill="none" stroke="rgb(0, 0, 0)" stroke-opacity="1.0" stroke-linecap="round" stroke-linejoin="round"/>
    <path d="M 140.0 20.0 C 140.1910400390625 24.305965423583984 142.13821411132812 19.781005859375 146.07350158691406 24.049503326416016" stroke-width="3.0" fill="none" stroke="rgb(0, 0, 0)" stroke-opacity="1.0" stroke-linecap="round" stroke-linejoin="round"/>
    <path d="M 68.0 139.0 C 63.930389404296875 141.2882080078125 60.35552215576172 141.71182250976562 62.074256896972656 145.1634979248047" stroke-width="3.0" fill="none" stroke="rgb(0, 0, 0)" stroke-opacity="1.0" stroke-linecap="round" stroke-linejoin="round"/>
    <path d="M 157.0 14.0 C 160.3817138671875 14.910243034362793 156.12245178222656 12.816183090209961 157.63719177246094 16.076427459716797" stroke-width="3.0" fill="none" stroke="rgb(0, 0, 0)" stroke-opacity="1.0" stroke-linecap="round" stroke-linejoin="round"/>
    <path d="M 184.0 189.0 C 180.28155517578125 187.36231994628906 181.326904296875 186.45362854003906 181.86851501464844 187.61471557617188" stroke-width="3.0" fill="none" stroke="rgb(0, 0, 0)" stroke-opacity="1.0" stroke-linecap="round" stroke-linejoin="round"/>
    <path d="M 107.0 61.999996185302734 C 111.25953674316406 60.135406494140625 108.88105773925781 63.394065856933594 104.30677795410156 68.65592193603516" stroke-width="3.0" fill="none" stroke="rgb(0, 0, 0)" stroke-opacity="1.0" stroke-linecap="round" stroke-linejoin="round"/>
    <path d="M 176.0 181.0 C 173.1616668701172 185.3567352294922 167.68968200683594 186.2296600341797 170.4709930419922 181.7097625732422" stroke-width="3.0" fill="none" stroke="rgb(0, 0, 0)" stroke-opacity="1.0" stroke-linecap="round" stroke-linejoin="round"/>
    <path d="M 19.0 114.00000762939453 C 14.595369338989258 116.28704071044922 14.836423873901367 120.29694366455078 20.227561950683594 114.95368957519531" stroke-width="3.0" fill="none" stroke="rgb(0, 0, 0)" stroke-opacity="1.0" stroke-linecap="round" stroke-linejoin="round"/>
    <path d="M 65.0 176.0 C 66.3034439086914 178.28656005859375 64.78291320800781 172.87014770507812 68.89725494384766 178.189697265625" stroke-width="3.0" fill="none" stroke="rgb(0, 0, 0)" stroke-opacity="1.0" stroke-linecap="round" stroke-linejoin="round"/>
    <path d="M 53.0 170.0 C 48.40180969238281 164.60086059570312 51.94529342651367 161.95034790039062 49.131107330322266 158.88853454589844" stroke-width="3.0" fill="none" stroke="rgb(0, 0, 0)" stroke-opacity="1.0" stroke-linecap="round" stroke-linejoin="round"/>
    <path d="M 189.0 12.0 C 184.14913940429688 9.440947532653809 189.24249267578125 6.204188346862793 189.92428588867188 11.307543754577637" stroke-width="3.0" fill="none" stroke="rgb(0, 0, 0)" stroke-opacity="1.0" stroke-linecap="round" stroke-linejoin="round"/>
    <path d="M 186.0 75.0 C 183.52169799804688 71.28011322021484 188.7684783935547 76.61872863769531 187.0131072998047 78.13575744628906" stroke-width="3.0" fill="none" stroke="rgb(0, 0, 0)" stroke-opacity="1.0" stroke-linecap="round" stroke-linejoin="round"/>
    <path d="M 132.0 64.0 C 134.57412719726562 65.1602783203125 132.88107299804688 62.30137252807617 134.55172729492188 59.449344635009766" stroke-width="3.0" fill="none" stroke="rgb(0, 0, 0)" stroke-opacity="1.0" stroke-linecap="round" stroke-linejoin="round"/>
    <path d="M 80.0 185.0 C 76.87029266357422 182.94650268554688 74.36698913574219 184.40310668945312 70.2238540649414 179.29324340820312" stroke-width="3.0" fill="none" stroke="rgb(0, 0, 0)" stroke-opacity="1.0" stroke-linecap="round" stroke-linejoin="round"/>
    <path d="M 179.0 42.0 C 174.11767578125 38.74498748779297 173.7956085205078 40.25104904174805 170.96725463867188 40.889434814453125" stroke-width="3.0" fill="none" stroke="rgb(0, 0, 0)" stroke-opacity="1.0" stroke-linecap="round" stroke-linejoin="round"/>
    <path d="M 30.0 121.00000762939453 C 32.54104232788086 125.62313079833984 28.688526153564453 120.84684753417969 26.062686920166016 117.63616180419922" stroke-width="3.0" fill="none" stroke="rgb(0, 0, 0)" stroke-opacity="1.0" stroke-linecap="round" stroke-linejoin="round"/>
    <path d="M 174.0 56.0 C 170.28604125976562 60.52627182006836 170.35748291015625 65.9372329711914 173.57958984375 64.72582244873047" stroke-width="3.0" fill="none" stroke="rgb(0, 0, 0)" stroke-opacity="1.0" stroke-linecap="round" stroke-linejoin="round"/>
    <path d="M 162.0 68.0 C 160.37538146972656 63.66645812988281 161.78172302246094 59.24092102050781 165.98658752441406 56.257896423339844" stroke-width="3.0" fill="none" stroke="rgb(0, 0, 0)" stroke-opacity="1.0" stroke-linecap="round" stroke-linejoin="round"/>
    <path d="M 29.0 109.0 C 24.902280807495117 104.97161865234375 26.33919906616211 108.81356048583984 28.36277198791504 106.55389404296875" stroke-width="3.0" fill="none" stroke="rgb(0, 0, 0)" stroke-opacity="1.0" stroke-linecap="round" stroke-linejoin="round"/>
    <path d="M 176.0 209.0 C 177.83444213867188 212.23497009277344 172.99449157714844 212.32362365722656 168.1663055419922 217.58839416503906" stroke-width="3.0" fill="none" stroke="rgb(0, 0, 0)" stroke-opacity="1.0" stroke-linecap="round" stroke-linejoin="round"/>
    <path d="M 195.0 22.0 C 198.19297790527344 17.629779815673828 199.0363006591797 12.29336929321289 200.0170440673828 11.50269603729248" stroke-width="3.0" fill="none" stroke="rgb(0, 0, 0)" stroke-opacity="1.0" stroke-linecap="round" stroke-linejoin="round"/>
    <path d="M 4.0 138.0 C -0.007867267355322838 136.69168090820312 4.463126182556152 141.76161193847656 0.8115839958190918 139.24635314941406" stroke-width="3.0" fill="none" stroke="rgb(0, 0, 0)" stroke-opacity="1.0" stroke-linecap="round" stroke-linejoin="round"/>
    <path d="M 23.0 100.0 C 22.482471466064453 100.69317626953125 25.53718376159668 103.53860473632812 28.853084564208984 102.28147888183594" stroke-width="3.0" fill="none" stroke="rgb(0, 0, 0)" stroke-opacity="1.0" stroke-linecap="round" stroke-linejoin="round"/>
    <path d="M 174.0 59.0 C 178.68463134765625 57.20950698852539 182.46029663085938 58.65727615356445 186.6256866455078 59.386924743652344" stroke-width="3.0" fill="none" stroke="rgb(0, 0, 0)" stroke-opacity="1.0" stroke-linecap="round" stroke-linejoin="round"/>
    <path d="M 104.0 17.0 C 108.80890655517578 14.116311073303223 107.97766876220703 11.213265419006348 103.94064331054688 16.685890197753906" stroke-width="3.0" fill="none" stroke="rgb(0, 0, 0)" stroke-opacity="1.0" stroke-linecap="round" stroke-linejoin="round"/>
    <path d="M 144.0 209.0 C 144.619873046875 211.33387756347656 139.16575622558594 209.86831665039062 140.41171264648438 211.36398315429688" stroke-width="3.0" fill="none" stroke="rgb(0, 0, 0)" stroke-opacity="1.0" stroke-linecap="round" stroke-linejoin="round"/>
    <path d="M 61.999996185302734 145.0 C 62.12314987182617 148.38348388671875 64.51343536376953 142.8181915283203 60.94959259033203 144.02749633789062" stroke-width="3.0" fill="none" stroke="rgb(0, 0, 0)" stroke-opacity="1.0" stroke-linecap="round" stroke-linejoin="round"/>
    <path d="M 56.0 148.0 C 56.22034454345703 149.6063995361328 61.326698303222656 150.90481567382812 58.65605545043945 148.6810760498047" stroke-width="3.0" fill="none" stroke="rgb(0, 0, 0)" stroke-opacity="1.0" stroke-linecap="round" stroke-linejoin="round"/>
    <path d="M 187.0 39.0 C 186.51593017578125 44.292423248291016 191.70559692382812 46.823097229003906 195.4545135498047 47.66127395629883" stroke-width="3.0" fill="none" stroke="rgb(0, 0, 0)" stroke-opacity="1.0" stroke-linecap="round" stroke-linejoin="round"/>
    <path d="M 150.0 42.0 C 150.06649780273438 39.970890045166016 149.96664428710938 42.39387512207031 154.13421630859375 38.18663787841797" stroke-width="3.0" fill="none" stroke="rgb(0, 0, 0)" stroke-opacity="1.0" stroke-linecap="round" stroke-linejoin="round"/>
    <path d="M 191.0 22.0 C 189.96522521972656 25.878238677978516 193.11582946777344 21.022262573242188 189.95974731445312 16.798595428466797" stroke-width="3.0" fill="none" stroke="rgb(0, 0, 0)" stroke-opacity="1.0" stroke-linecap="round" stroke-linejoin="round"/>
    <path d="M 109.0 95.0 C 110.27262115478516 98.38108825683594 111.45897674560547 99.23431396484375 115.32840728759766 100.63585662841797" stroke-width="3.0" fill="none" stroke="rgb(0, 0, 0)" stroke-opacity="1.0" stroke-linecap="round" stroke-linejoin="round"/>
    <path d="M 158.0 116.0 C 155.775390625 116.07685852050781 158.00599670410156 115.63713073730469 154.6748809814453 114.82469940185547" stroke-width="3.0" fill="none" stroke="rgb(0, 0, 0)" stroke-opacity="1.0" stroke-linecap="round" stroke-linejoin="round"/>
    <path d="M 91.0 198.0 C 95.4410629272461 192.75369262695312 93.94837188720703 187.4398651123047 93.66191101074219 184.8200225830078" stroke-width="3.0" fill="none" stroke="rgb(0, 0, 0)" stroke-opacity="1.0" stroke-linecap="round" stroke-linejoin="round"/>
    <path d="M 163.0 57.000003814697266 C 166.77520751953125 55.236846923828125 169.35067749023438 57.494239807128906 169.0650634765625 53.10619354248047" stroke-width="3.0" fill="none" stroke="rgb(0, 0, 0)" stroke-opacity="1.0" stroke-linecap="round" stroke-linejoin="round"/>
    <path d="M 30.0 155.0 C 33.85467529296875 150.74002075195312 32.66181945800781 148.90048217773438 30.76402473449707 152.65557861328125" stroke-width="3.0" fill="none" stroke="rgb(0, 0, 0)" stroke-opacity="1.0" stroke-linecap="round" stroke-linejoin="round"/>
    <path d="M 128.0 200.0 C 125.26420593261719 205.4892120361328 129.7523956298828 202.3495635986328 125.69944763183594 206.80496215820312" stroke-width="3.0" fill="none" stroke="rgb(0, 0, 0)" stroke-opacity="1.0" stroke-linecap="round" stroke-linejoin="round"/>
    <path d="M 140.0 201.0 C 142.42208862304688 195.5559539794922 146.53680419921875 197.2207794189453 149.24288940429688 199.43063354492188" stroke-width="3.0" fill="none" stroke="rgb(0, 0, 0)" stroke-opacity="1.0" stroke-linecap="round" stroke-linejoin="round"/>
    <path d="M 78.0 177.0 C 75.11912536621094 177.9936981201172 78.7662353515625 176.39268493652344 74.01163482666016 180.93624877929688" stroke-width="3.0" fill="none" stroke="rgb(0, 0, 0)" stroke-opacity="1.0" stroke-linecap="round" stroke-linejoin="round"/>
    <path d="M 192.0 22.0 C 187.2613525390625 21.909446716308594 187.51644897460938 19.862218856811523 183.2656707763672 22.705448150634766" stroke-width="3.0" fill="none" stroke="rgb(0, 0, 0)" stroke-opacity="1.0" stroke-linecap="round" stroke-linejoin="round"/>
    <path d="M 118.0 43.0 C 121.33438110351562 42.21371078491211 122.44256591796875 45.90998840332031 121.97486114501953 41.802589416503906" stroke-width="3.0" fill="none" stroke="rgb(0, 0, 0)" stroke-opacity="1.0" stroke-linecap="round" stroke-linejoin="round"/>
    <path d="M 89.0 183.0 C 89.47189331054688 178.63124084472656 94.26545715332031 173.36880493164062 96.66033172607422 174.8486328125" stroke-width="3.0" fill="none" stroke="rgb(0, 0, 0)" stroke-opacity="1.0" stroke-linecap="round" stroke-linejoin="round"/>
    <path d="M 49.0 204.0 C 50.457393646240234 199.64901733398438 52.57018280029297 198.66458129882812 58.03367614746094 202.37828063964844" stroke-width="3.0" fill="none" stroke="rgb(0, 0, 0)" stroke-opacity="1.0" stroke-linecap="round" stroke-linejoin="round"/>
    <path d="M 173.0 145.0 C 173.53903198242188 141.8784942626953 169.58168029785156 140.44468688964844 172.641357421875 140.39710998535156" stroke-width="3.0" fill="none" stroke="rgb(0, 0, 0)" stroke-opacity="1.0" stroke-linecap="round" stroke-linejoin="round"/>
    <path d="M 38.0 179.0 C 35.14012145996094 183.13641357421875 39.33877944946289 180.70510864257812 38.3380012512207 183.00587463378906" stroke-width="3.0" fill="none" stroke="rgb(0, 0, 0)" stroke-opacity="1.0" stroke-linecap="round" stroke-linejoin="round"/>
    <path d="M 143.0 17.0 C 146.90948486328125 15.804838180541992 148.36956787109375 12.437673568725586 150.66659545898438 11.682634353637695" stroke-width="3.0" fill="none" stroke="rgb(0, 0, 0)" stroke-opacity="1.0" stroke-linecap="round" stroke-linejoin="round"/>
    <path d="M 168.0 190.0 C 171.14588928222656 193.28500366210938 169.31741333007812 197.71847534179688 166.9453887939453 202.5606231689453" stroke-width="3.0" fill="none" stroke="rgb(0, 0, 0)" stroke-opacity="1.0" stroke-linecap="round" stroke-linejoin="round"/>
    <path d="M 93.0 119.0 C 88.17272186279297 118.1060791015625 89.5991439819336 121.15376281738281 93.61407470703125 115.95323944091797" stroke-width="3.0" fill="none" stroke="rgb(0, 0, 0)" stroke-opacity="1.0" stroke-linecap="round" stroke-linejoin="round"/>
    <path d="M 164.0 65.0 C 163.41879272460938 66.14832305908203 167.33847045898438 63.01845169067383 172.41778564453125 67.993408203125" stroke-width="3.0" fill="none" stroke="rgb(0, 0, 0)" stroke-opacity="1.0" stroke-linecap="round" stroke-linejoin="round"/>
    <path d="M 128.0 116.0 C 128.13800048828125 119.11610412597656 126.28549194335938 123.04249572753906 123.4377670288086 120.85467529296875" stroke-width="3.0" fill="none" stroke="rgb(0, 0, 0)" stroke-opacity="1.0" stroke-linecap="round" stroke-linejoin="round"/>
    <path d="M 86.0 23.0 C 88.34133911132812 25.71162986755371 85.37351989746094 23.48000144958496 86.45088958740234 24.670963287353516" stroke-width="3.0" fill="none" stroke="rgb(0, 0, 0)" stroke-opacity="1.0" stroke-linecap="round" stroke-linejoin="round"/>
    <path d="M 127.0 43.0 C 124.36040496826172 43.090423583984375 118.82835388183594 42.695335388183594 122.76207733154297 43.86674118041992" stroke-width="3.0" fill="none" stroke="rgb(0, 0, 0)" stroke-opacity="1.0" stroke-linecap="round" stroke-linejoin="round"/>
    <path d="M 128.0 26.0 C 125.09111022949219 25.63912582397461 128.11471557617188 30.455236434936523 129.20423889160156 28.23386001586914" stroke-width="3.0" fill="none" stroke="rgb(0, 0, 0)" stroke-opacity="1.0" stroke-linecap="round" stroke-linejoin="round"/>
    <path d="M 204.0 38.0 C 204.5621795654297 37.49523162841797 200.486572265625 41.566429138183594 203.683349609375 45.16584396362305" stroke-width="3.0" fill="none" stroke="rgb(0, 0, 0)" stroke-opacity="1.0" stroke-linecap="round" stroke-linejoin="round"/>
    <path d="M 132.0 12.0 C 133.0457763671875 6.827568054199219 129.52810668945312 10.082660675048828 131.4062957763672 12.795294761657715" stroke-width="3.0" fill="none" stroke="rgb(0, 0, 0)" stroke-opacity="1.0" stroke-linecap="round" stroke-linejoin="round"/>
    <path d="M 120.0 41.0 C 120.55171966552734 38.2144775390625 117.79142761230469 35.52439498901367 116.97342681884766 33.418819427490234" stroke-width="3.0" fill="none" stroke="rgb(0, 0, 0)" stroke-opacity="1.0" stroke-linecap="round" stroke-linejoin="round"/>
    <path d="M 51.0 50.0 C 53.74281311035156 49.109230041503906 48.50161361694336 53.538936614990234 49.73537826538086 53.499267578125" stroke-width="3.0" fill="none" stroke="rgb(0, 0, 0)" stroke-opacity="1.0" stroke-linecap="round" stroke-linejoin="round"/>
    <path d="M 143.0 182.0 C 147.23687744140625 181.44195556640625 151.15890502929688 180.26043701171875 145.99876403808594 178.0999298095703" stroke-width="3.0" fill="none" stroke="rgb(0, 0, 0)" stroke-opacity="1.0" stroke-linecap="round" stroke-linejoin="round"/>
    <path d="M 173.0 125.0 C 178.1055908203125 119.98606872558594 182.327880859375 118.72514343261719 176.88816833496094 115.43484497070312" stroke-width="3.0" fill="none" stroke="rgb(0, 0, 0)" stroke-opacity="1.0" stroke-linecap="round" stroke-linejoin="round"/>
    <path d="M 79.0 149.0 C 75.23241424560547 153.3705291748047 77.75127410888672 148.29034423828125 75.74821472167969 143.35397338867188" stroke-width="3.0" fill="none" stroke="rgb(0, 0, 0)" stroke-opacity="1.0" stroke-linecap="round" stroke-linejoin="round"/>
    <path d="M 127.0 47.0 C 128.94349670410156 47.94582748413086 132.1998291015625 52.5391960144043 137.55789184570312 56.77165985107422" stroke-width="3.0" fill="none" stroke="rgb(0, 0, 0)" stroke-opacity="1.0" stroke-linecap="round" stroke-linejoin="round"/>
    <path d="M 127.0 20.0 C 129.94642639160156 20.914609909057617 134.6763153076172 18.019432067871094 138.15664672851562 15.172679901123047" stroke-width="3.0" fill="none" stroke="rgb(0, 0, 0)" stroke-opacity="1.0" stroke-linecap="round" stroke-linejoin="round"/>
    <path d="M 57.000003814697266 138.0 C 57.430946350097656 134.51991271972656 54.855712890625 131.9889678955078 58.23663330078125 128.777099609375" stroke-width="3.0" fill="none" stroke="rgb(0, 0, 0)" stroke-opacity="1.0" stroke-linecap="round" stroke-linejoin="round"/>
    <path d="M 109.0 16.0 C 106.35833740234375 12.981489181518555 107.89104461669922 15.073160171508789 111.92889404296875 17.6102237701416" stroke-width="3.0" fill="none" stroke="rgb(0, 0, 0)" stroke-opacity="1.0" stroke-linecap="round" stroke-linejoin="round"/>
    <path d="M 81.0 193.0 C 79.86433410644531 194.13768005371094 78.21839141845703 192.3118896484375 73.52223205566406 195.20420837402344" stroke-width="3.0" fill="none" stroke="rgb(0, 0, 0)" stroke-opacity="1.0" stroke-linecap="round" stroke-linejoin="round"/>
  </g>
</svg>
