<?xml version="1.0" ?>
<svg xmlns="http://www.w3.org/2000/svg" version="1.1" width="224" height="224">
  <defs/>
  <g>
    <path d="M 38.888145446777344 155.21815490722656 C 43.29012680053711 159.27406311035156 32.705726623535156 160.31350708007812 26.468605041503906 135.49237060546875" stroke-width="3.0" fill="none" stroke="rgb(0, 0, 0)" stroke-opacity="0.8163874" stroke-linecap="round" stroke-linejoin="round"/>
    <path d="M 168.0462646484375 56.392398834228516 C 166.92262268066406 58.741424560546875 167.99298095703125 58.59356689453125 167.32333374023438 54.319610595703125" stroke-width="3.0" fill="none" stroke="rgb(0, 0, 0)" stroke-opacity="0.8833585" stroke-linecap="round" stroke-linejoin="round"/>
    <path d="M 103.56095123291016 125.94013977050781 C 101.87085723876953 118.76492309570312 94.66731262207031 116.32814025878906 103.12714385986328 147.69448852539062" stroke-width="3.0" fill="none" stroke="rgb(0, 0, 0)" stroke-opacity="0.98892397" stroke-linecap="round" stroke-linejoin="round"/>
    <path d="M 58.41136932373047 140.6958770751953 C 61.986026763916016 138.946044921875 56.100399017333984 139.41778564453125 58.15461730957031 142.859130859375" stroke-width="3.0" fill="none" stroke="rgb(0, 0, 0)" stroke-opacity="0.8378232" stroke-linecap="round" stroke-linejoin="round"/>
    <path d="M 162.01779174804688 185.30581665039062 C 182.3358612060547 187.33042907714844 185.65464782714844 193.8893280029297 193.84182739257812 191.35218811035156" stroke-width="3.0" fill="none" stroke="rgb(0, 0, 0)" stroke-opacity="1.0000852" stroke-linecap="round" stroke-linejoin="round"/>
    <path d="M 63.1972770690918 49.58659362792969 C 56.46584701538086 44.68891143798828 49.73933792114258 46.93146896362305 39.93488693237305 50.09618377685547" stroke-width="3.0" fill="none" stroke="rgb(0, 0, 0)" stroke-opacity="1.0007837" stroke-linecap="round" stroke-linejoin="round"/>
    <path d="M 89.7042465209961 146.6021728515625 C 85.87764739990234 151.1571044921875 75.69021606445312 141.7640380859375 68.15403747558594 147.288818359375" stroke-width="3.0" fill="none" stroke="rgb(0, 0, 1)" stroke-opacity="0.94158626" stroke-linecap="round" stroke-linejoin="round"/>
    <path d="M 80.97328186035156 192.31915283203125 C 69.45528411865234 180.3019256591797 75.06657409667969 187.52304077148438 104.31643676757812 189.48178100585938" stroke-width="3.0" fill="none" stroke="rgb(1, 0, 0)" stroke-opacity="0.8158509" stroke-linecap="round" stroke-linejoin="round"/>
    <path d="M 155.8684844970703 145.66574096679688 C 149.55145263671875 146.7936553955078 154.3800506591797 152.5525665283203 166.4422607421875 134.7152557373047" stroke-width="3.0" fill="none" stroke="rgb(0, 0, 0)" stroke-opacity="0.9671186" stroke-linecap="round" stroke-linejoin="round"/>
    <path d="M 26.104707717895508 91.11627960205078 C 41.91154098510742 76.25408935546875 24.117847442626953 108.38428497314453 23.04987907409668 102.54061126708984" stroke-width="3.0" fill="none" stroke="rgb(0, 0, 0)" stroke-opacity="0.9011386" stroke-linecap="round" stroke-linejoin="round"/>
    <path d="M 63.009254455566406 40.38367462158203 C 61.79863357543945 40.23649215698242 64.15235137939453 39.24420166015625 73.55172729492188 36.67619705200195" stroke-width="3.0" fill="none" stroke="rgb(0, 0, 0)" stroke-opacity="0.99644065" stroke-linecap="round" stroke-linejoin="round"/>
    <path d="M 73.49454498291016 119.65110778808594 C 67.14962768554688 124.94217681884766 82.03471374511719 127.91822814941406 81.08544921875 128.86911010742188" stroke-width="3.0" fill="none" stroke="rgb(0, 0, 0)" stroke-opacity="0.80111724" stroke-linecap="round" stroke-linejoin="round"/>
    <path d="M 160.39553833007812 65.93257904052734 C 150.2571563720703 59.984832763671875 127.04656219482422 69.73223876953125 140.6880340576172 71.08805847167969" stroke-width="3.0" fill="none" stroke="rgb(0, 0, 0)" stroke-opacity="0.83551306" stroke-linecap="round" stroke-linejoin="round"/>
    <path d="M 60.57744598388672 43.32865905761719 C 56.964111328125 37.5408935546875 56.375144958496094 48.833030700683594 58.59097671508789 44.867698669433594" stroke-width="3.0" fill="none" stroke="rgb(0, 0, 0)" stroke-opacity="0.78063196" stroke-linecap="round" stroke-linejoin="round"/>
    <path d="M 89.11700439453125 41.09761047363281 C 63.99688720703125 42.015018463134766 63.16508483886719 44.05636978149414 55.355812072753906 48.02687072753906" stroke-width="3.0" fill="none" stroke="rgb(0, -1, 1)" stroke-opacity="1.0052193" stroke-linecap="round" stroke-linejoin="round"/>
    <path d="M 31.921756744384766 64.47162628173828 C 29.979520797729492 71.87616729736328 39.68808364868164 54.183746337890625 45.97047424316406 52.61109161376953" stroke-width="3.0" fill="none" stroke="rgb(0, 0, 0)" stroke-opacity="1.0000925" stroke-linecap="round" stroke-linejoin="round"/>
    <path d="M 82.18107604980469 145.43621826171875 C 79.46672058105469 151.48350524902344 76.47190856933594 151.77243041992188 82.69395446777344 161.8615264892578" stroke-width="3.0" fill="none" stroke="rgb(0, 0, 0)" stroke-opacity="1.0007602" stroke-linecap="round" stroke-linejoin="round"/>
    <path d="M 193.19644165039062 47.70216751098633 C 184.5177764892578 47.420738220214844 185.2480010986328 41.758262634277344 202.7166290283203 44.938289642333984" stroke-width="3.0" fill="none" stroke="rgb(0, 0, 0)" stroke-opacity="0.7961555" stroke-linecap="round" stroke-linejoin="round"/>
    <path d="M 137.6296844482422 41.453121185302734 C 133.8389892578125 54.14576721191406 138.67742919921875 37.75092697143555 157.80181884765625 44.78700256347656" stroke-width="3.0" fill="none" stroke="rgb(0, 0, 0)" stroke-opacity="1.0028961" stroke-linecap="round" stroke-linejoin="round"/>
    <path d="M 167.22096252441406 55.35969543457031 C 159.0491180419922 51.560882568359375 156.7217559814453 48.16867446899414 160.0575408935547 40.170005798339844" stroke-width="3.0" fill="none" stroke="rgb(-1, 0, 0)" stroke-opacity="0.88765657" stroke-linecap="round" stroke-linejoin="round"/>
    <path d="M 31.41461181640625 127.47779846191406 C 20.55457878112793 124.5791015625 25.108112335205078 138.75064086914062 32.69076156616211 136.41246032714844" stroke-width="3.0" fill="none" stroke="rgb(0, 0, 0)" stroke-opacity="0.99042755" stroke-linecap="round" stroke-linejoin="round"/>
    <path d="M 137.8586883544922 114.9747085571289 C 130.68540954589844 124.26922607421875 125.83381652832031 133.4845428466797 124.6313247680664 132.93687438964844" stroke-width="3.0" fill="none" stroke="rgb(0, 0, 0)" stroke-opacity="0.81090343" stroke-linecap="round" stroke-linejoin="round"/>
    <path d="M 168.8055877685547 169.46307373046875 C 178.04998779296875 181.49349975585938 183.45166015625 188.54763793945312 193.10513305664062 192.87705993652344" stroke-width="3.0" fill="none" stroke="rgb(0, 0, 0)" stroke-opacity="0.98385257" stroke-linecap="round" stroke-linejoin="round"/>
    <path d="M 107.1523208618164 134.62481689453125 C 112.11602783203125 136.45175170898438 104.79369354248047 128.65040588378906 110.65924835205078 105.31354522705078" stroke-width="3.0" fill="none" stroke="rgb(0, 0, 0)" stroke-opacity="1.0010955" stroke-linecap="round" stroke-linejoin="round"/>
    <path d="M 58.050289154052734 166.40184020996094 C 81.01944732666016 179.84600830078125 81.97621154785156 184.31813049316406 71.38330078125 175.1181182861328" stroke-width="3.0" fill="none" stroke="rgb(0, 0, 0)" stroke-opacity="0.9662641" stroke-linecap="round" stroke-linejoin="round"/>
    <path d="M 77.56050109863281 174.53036499023438 C 78.6727066040039 177.9385223388672 87.08634948730469 178.4074249267578 84.54993438720703 170.9352264404297" stroke-width="3.0" fill="none" stroke="rgb(0, 0, 0)" stroke-opacity="1.0036714" stroke-linecap="round" stroke-linejoin="round"/>
    <path d="M 91.69129943847656 194.1977996826172 C 83.88555908203125 162.70509338378906 80.8808364868164 182.07269287109375 80.20836639404297 190.77638244628906" stroke-width="3.0" fill="none" stroke="rgb(0, 0, 0)" stroke-opacity="0.87906593" stroke-linecap="round" stroke-linejoin="round"/>
    <path d="M 182.87803649902344 42.342960357666016 C 190.16358947753906 46.712554931640625 186.7708740234375 57.35515213012695 177.53759765625 56.3345947265625" stroke-width="3.0" fill="none" stroke="rgb(0, 0, 0)" stroke-opacity="0.75694233" stroke-linecap="round" stroke-linejoin="round"/>
    <path d="M 163.87425231933594 58.62312316894531 C 172.7180633544922 51.092552185058594 175.60104370117188 56.08448791503906 172.72691345214844 59.872745513916016" stroke-width="3.0" fill="none" stroke="rgb(0, 0, 0)" stroke-opacity="0.87459654" stroke-linecap="round" stroke-linejoin="round"/>
    <path d="M 181.6037139892578 15.49219036102295 C 192.92755126953125 5.8181376457214355 185.4106903076172 10.353534698486328 162.15147399902344 8.931563377380371" stroke-width="3.0" fill="none" stroke="rgb(0, 0, 0)" stroke-opacity="0.9983289" stroke-linecap="round" stroke-linejoin="round"/>
    <path d="M 176.3157501220703 175.74234008789062 C 172.47506713867188 132.16842651367188 174.76397705078125 118.09066772460938 174.1577911376953 127.02510833740234" stroke-width="3.0" fill="none" stroke="rgb(0, 0, 0)" stroke-opacity="0.9984258" stroke-linecap="round" stroke-linejoin="round"/>
    <path d="M 204.20184326171875 1.9101405143737793 C 191.70236206054688 5.877104759216309 181.21749877929688 14.507401466369629 193.48159790039062 -1.582314133644104" stroke-width="3.0" fill="none" stroke="rgb(0, 0, 0)" stroke-opacity="1.0033586" stroke-linecap="round" stroke-linejoin="round"/>
    <path d="M 109.18950653076172 75.45259094238281 C 117.70433044433594 69.22898864746094 108.80033111572266 67.07969665527344 94.31584167480469 81.16035461425781" stroke-width="3.0" fill="none" stroke="rgb(0, 0, 0)" stroke-opacity="0.97498053" stroke-linecap="round" stroke-linejoin="round"/>
    <path d="M 23.48998260498047 93.42695617675781 C 32.00248718261719 81.68816375732422 31.74102783203125 73.70724487304688 42.401519775390625 59.4484977722168" stroke-width="3.0" fill="none" stroke="rgb(0, 0, 0)" stroke-opacity="1.001093" stroke-linecap="round" stroke-linejoin="round"/>
    <path d="M 174.5516357421875 119.29444122314453 C 192.16775512695312 103.6958999633789 193.06935119628906 95.88821411132812 185.66799926757812 117.35888671875" stroke-width="3.0" fill="none" stroke="rgb(0, 0, 1)" stroke-opacity="1.0008546" stroke-linecap="round" stroke-linejoin="round"/>
    <path d="M 120.98333740234375 -9.389448165893555 C 129.8223419189453 1.7671998739242554 120.77851867675781 8.225846290588379 122.58625030517578 22.982431411743164" stroke-width="3.0" fill="none" stroke="rgb(0, 0, 0)" stroke-opacity="1.0004529" stroke-linecap="round" stroke-linejoin="round"/>
    <path d="M 164.85557556152344 49.7575569152832 C 154.89263916015625 54.23063278198242 137.31776428222656 51.91968536376953 150.54151916503906 45.74293899536133" stroke-width="3.0" fill="none" stroke="rgb(0, 0, 0)" stroke-opacity="0.9697052" stroke-linecap="round" stroke-linejoin="round"/>
    <path d="M 154.45960998535156 75.67312622070312 C 136.6156768798828 68.9412612915039 132.96197509765625 68.11127471923828 137.15048217773438 67.76614379882812" stroke-width="3.0" fill="none" stroke="rgb(0, 0, 1)" stroke-opacity="1.0016773" stroke-linecap="round" stroke-linejoin="round"/>
    <path d="M 167.41925048828125 102.45634460449219 C 177.42581176757812 97.58200073242188 170.55648803710938 84.94966888427734 166.8435821533203 97.79075622558594" stroke-width="3.0" fill="none" stroke="rgb(0, 0, 0)" stroke-opacity="0.65608627" stroke-linecap="round" stroke-linejoin="round"/>
    <path d="M 160.4310760498047 62.3202018737793 C 164.51449584960938 69.85539245605469 169.97731018066406 58.32925033569336 165.13111877441406 56.89541244506836" stroke-width="3.0" fill="none" stroke="rgb(0, 0, 0)" stroke-opacity="0.8465724" stroke-linecap="round" stroke-linejoin="round"/>
    <path d="M 208.2313690185547 0.33628955483436584 C 193.08221435546875 6.881725311279297 198.59536743164062 20.33070182800293 196.8401641845703 19.06471061706543" stroke-width="3.0" fill="none" stroke="rgb(0, 0, 0)" stroke-opacity="1.0002244" stroke-linecap="round" stroke-linejoin="round"/>
    <path d="M 197.86512756347656 -3.053459882736206 C 196.11602783203125 15.121986389160156 192.29420471191406 5.3535356521606445 192.77281188964844 -5.434479236602783" stroke-width="3.0" fill="none" stroke="rgb(0, 0, 0)" stroke-opacity="0.972704" stroke-linecap="round" stroke-linejoin="round"/>
    <path d="M 94.85533142089844 137.25164794921875 C 99.49825286865234 129.90232849121094 107.484130859375 108.73529815673828 84.1693344116211 100.4832992553711" stroke-width="3.0" fill="none" stroke="rgb(-1, 0, 0)" stroke-opacity="0.936574" stroke-linecap="round" stroke-linejoin="round"/>
    <path d="M 168.11314392089844 71.13407135009766 C 169.68240356445312 64.8896713256836 171.0751495361328 62.08341979980469 165.70263671875 69.79798889160156" stroke-width="3.0" fill="none" stroke="rgb(0, 0, 0)" stroke-opacity="0.9364661" stroke-linecap="round" stroke-linejoin="round"/>
    <path d="M 145.00424194335938 0.48412850499153137 C 126.37289428710938 -3.995713710784912 135.11764526367188 7.822809219360352 145.00180053710938 0.9585245251655579" stroke-width="3.0" fill="none" stroke="rgb(0, 0, 0)" stroke-opacity="1.0006582" stroke-linecap="round" stroke-linejoin="round"/>
    <path d="M 138.0562744140625 -4.259549617767334 C 139.93455505371094 3.362539768218994 141.80540466308594 9.714542388916016 152.94845581054688 13.66723918914795" stroke-width="3.0" fill="none" stroke="rgb(0, 0, 0)" stroke-opacity="0.8737311" stroke-linecap="round" stroke-linejoin="round"/>
    <path d="M 139.46482849121094 29.223522186279297 C 134.81480407714844 38.603599548339844 132.09597778320312 33.2415771484375 125.80268096923828 13.65836238861084" stroke-width="3.0" fill="none" stroke="rgb(0, 0, 0)" stroke-opacity="0.9098964" stroke-linecap="round" stroke-linejoin="round"/>
    <path d="M 20.323564529418945 128.08889770507812 C 29.47596549987793 129.09600830078125 27.464448928833008 130.44740295410156 26.2026424407959 103.27025604248047" stroke-width="3.0" fill="none" stroke="rgb(0, -1, 1)" stroke-opacity="1.0022595" stroke-linecap="round" stroke-linejoin="round"/>
    <path d="M 123.02501678466797 174.41909790039062 C 110.97740173339844 142.1362762451172 107.34732818603516 130.33277893066406 114.67214965820312 143.8227081298828" stroke-width="3.0" fill="none" stroke="rgb(0, 0, 0)" stroke-opacity="1.0021757" stroke-linecap="round" stroke-linejoin="round"/>
    <path d="M 177.17344665527344 52.635108947753906 C 171.03590393066406 56.48340606689453 164.9337921142578 56.09797668457031 171.13710021972656 57.93628692626953" stroke-width="3.0" fill="none" stroke="rgb(0, 0, 0)" stroke-opacity="0.96937406" stroke-linecap="round" stroke-linejoin="round"/>
    <path d="M 116.6020736694336 27.817407608032227 C 122.7272720336914 32.028465270996094 111.58951568603516 31.837400436401367 114.27745056152344 42.753807067871094" stroke-width="3.0" fill="none" stroke="rgb(0, 0, 0)" stroke-opacity="0.84249747" stroke-linecap="round" stroke-linejoin="round"/>
    <path d="M 211.94798278808594 56.28176498413086 C 181.68218994140625 71.91891479492188 178.59002685546875 72.82914733886719 176.7217254638672 69.67974090576172" stroke-width="3.0" fill="none" stroke="rgb(0, 0, 1)" stroke-opacity="1.0008938" stroke-linecap="round" stroke-linejoin="round"/>
    <path d="M 128.54750061035156 66.47821807861328 C 144.95123291015625 51.19878387451172 156.0423583984375 55.296871185302734 123.11131286621094 68.86848449707031" stroke-width="3.0" fill="none" stroke="rgb(0, 0, 0)" stroke-opacity="0.8073735" stroke-linecap="round" stroke-linejoin="round"/>
    <path d="M 144.92337036132812 70.94210052490234 C 144.57789611816406 69.59329223632812 155.2783660888672 75.99044036865234 165.73159790039062 73.41475677490234" stroke-width="3.0" fill="none" stroke="rgb(0, -1, 1)" stroke-opacity="0.7054799" stroke-linecap="round" stroke-linejoin="round"/>
    <path d="M 175.05926513671875 49.241600036621094 C 166.1337890625 64.5970458984375 164.96664428710938 59.01716613769531 171.28427124023438 56.09713363647461" stroke-width="3.0" fill="none" stroke="rgb(0, 0, 0)" stroke-opacity="0.96492416" stroke-linecap="round" stroke-linejoin="round"/>
    <path d="M 140.06796264648438 226.2142333984375 C 125.33234405517578 231.270751953125 119.77906799316406 231.6201629638672 118.46990966796875 221.0517578125" stroke-width="3.0" fill="none" stroke="rgb(0, 0, 0)" stroke-opacity="0.8287245" stroke-linecap="round" stroke-linejoin="round"/>
    <path d="M 187.0113525390625 183.94618225097656 C 170.1521759033203 188.5365753173828 179.26268005371094 180.7969207763672 195.36734008789062 188.58505249023438" stroke-width="3.0" fill="none" stroke="rgb(0, 0, 0)" stroke-opacity="1.0004803" stroke-linecap="round" stroke-linejoin="round"/>
    <path d="M 29.406064987182617 143.08168029785156 C 47.42390823364258 164.63038635253906 44.69042205810547 160.66287231445312 41.457645416259766 158.66000366210938" stroke-width="3.0" fill="none" stroke="rgb(0, 0, 0)" stroke-opacity="1.0005907" stroke-linecap="round" stroke-linejoin="round"/>
    <path d="M 89.64105224609375 157.36328125 C 82.95025634765625 165.41270446777344 74.21460723876953 151.06985473632812 81.51036071777344 161.12449645996094" stroke-width="3.0" fill="none" stroke="rgb(0, 0, 0)" stroke-opacity="0.856545" stroke-linecap="round" stroke-linejoin="round"/>
    <path d="M 20.4510440826416 144.43148803710938 C -2.3568592071533203 133.40086364746094 -1.6822483539581299 112.60736083984375 15.678430557250977 104.5005111694336" stroke-width="3.0" fill="none" stroke="rgb(0, 0, 0)" stroke-opacity="0.9418701" stroke-linecap="round" stroke-linejoin="round"/>
    <path d="M 137.49452209472656 5.67343807220459 C 130.6787872314453 -14.70121955871582 128.9717559814453 -5.535577297210693 119.724853515625 13.067496299743652" stroke-width="3.0" fill="none" stroke="rgb(0, 0, 0)" stroke-opacity="0.8560367" stroke-linecap="round" stroke-linejoin="round"/>
    <path d="M 165.89993286132812 79.17552947998047 C 160.0026092529297 62.403133392333984 168.4407958984375 62.42364501953125 180.70616149902344 75.22490692138672" stroke-width="3.0" fill="none" stroke="rgb(0, 0, 1)" stroke-opacity="0.7858107" stroke-linecap="round" stroke-linejoin="round"/>
    <path d="M 191.73411560058594 75.7529296875 C 202.22463989257812 78.32237243652344 195.8280487060547 70.58013916015625 166.02667236328125 75.83527374267578" stroke-width="3.0" fill="none" stroke="rgb(0, 0, 0)" stroke-opacity="0.85058504" stroke-linecap="round" stroke-linejoin="round"/>
    <path d="M 25.632125854492188 129.4066925048828 C 40.96967697143555 126.07056427001953 34.4882698059082 115.38175964355469 30.807085037231445 150.37767028808594" stroke-width="3.0" fill="none" stroke="rgb(0, 0, 0)" stroke-opacity="0.85142386" stroke-linecap="round" stroke-linejoin="round"/>
    <path d="M 123.03820037841797 24.42691993713379 C 116.72623443603516 29.427915573120117 140.0970458984375 36.93788146972656 144.6062774658203 31.120256423950195" stroke-width="3.0" fill="none" stroke="rgb(0, 0, 0)" stroke-opacity="0.93299586" stroke-linecap="round" stroke-linejoin="round"/>
    <path d="M 68.10099792480469 150.5155029296875 C 68.17720031738281 148.9998321533203 69.0573959350586 148.94891357421875 68.810302734375 144.93455505371094" stroke-width="3.0" fill="none" stroke="rgb(0, 0, 0)" stroke-opacity="0.9271562" stroke-linecap="round" stroke-linejoin="round"/>
    <path d="M 146.6299285888672 11.507862091064453 C 149.6087646484375 15.539669036865234 148.2408905029297 12.946063995361328 161.9605255126953 7.411022186279297" stroke-width="3.0" fill="none" stroke="rgb(0, 0, 0)" stroke-opacity="0.89036345" stroke-linecap="round" stroke-linejoin="round"/>
    <path d="M 186.73573303222656 195.1580810546875 C 191.29830932617188 200.84518432617188 199.6408233642578 179.66403198242188 188.29837036132812 182.68966674804688" stroke-width="3.0" fill="none" stroke="rgb(0, 0, 0)" stroke-opacity="1.0021307" stroke-linecap="round" stroke-linejoin="round"/>
    <path d="M 125.32320404052734 54.724693298339844 C 115.42469787597656 70.71569061279297 114.4843978881836 69.68071746826172 104.6304931640625 65.94808959960938" stroke-width="3.0" fill="none" stroke="rgb(0, 0, 0)" stroke-opacity="0.7677648" stroke-linecap="round" stroke-linejoin="round"/>
    <path d="M 166.09214782714844 156.47901916503906 C 169.76190185546875 174.69912719726562 181.187744140625 182.32974243164062 178.527587890625 176.20176696777344" stroke-width="3.0" fill="none" stroke="rgb(0, 0, 0)" stroke-opacity="0.96546596" stroke-linecap="round" stroke-linejoin="round"/>
    <path d="M 39.02893829345703 124.03156280517578 C 27.223695755004883 141.096923828125 17.33321189880371 144.80255126953125 12.063966751098633 125.70012664794922" stroke-width="3.0" fill="none" stroke="rgb(0, 0, 0)" stroke-opacity="0.9969156" stroke-linecap="round" stroke-linejoin="round"/>
    <path d="M 73.97296905517578 175.70681762695312 C 61.049617767333984 163.95362854003906 67.72248840332031 172.64450073242188 75.99999237060547 178.85804748535156" stroke-width="3.0" fill="none" stroke="rgb(0, 0, 0)" stroke-opacity="0.9252589" stroke-linecap="round" stroke-linejoin="round"/>
    <path d="M 60.67436218261719 176.89710998535156 C 40.176517486572266 158.9220428466797 41.709434509277344 160.82723999023438 38.366947174072266 163.56736755371094" stroke-width="3.0" fill="none" stroke="rgb(0, 0, 0)" stroke-opacity="1.0017828" stroke-linecap="round" stroke-linejoin="round"/>
    <path d="M 191.2343292236328 20.673185348510742 C 193.77491760253906 22.990394592285156 186.76702880859375 21.164648056030273 178.598876953125 19.448259353637695" stroke-width="3.0" fill="none" stroke="rgb(0, 0, 0)" stroke-opacity="0.7502189" stroke-linecap="round" stroke-linejoin="round"/>
    <path d="M 173.81915283203125 73.74647521972656 C 163.5818634033203 80.71465301513672 184.14964294433594 84.74871826171875 190.5373077392578 102.0846176147461" stroke-width="3.0" fill="none" stroke="rgb(0, 0, 0)" stroke-opacity="0.96859354" stroke-linecap="round" stroke-linejoin="round"/>
    <path d="M 135.33958435058594 63.11089324951172 C 143.49586486816406 55.97737503051758 125.537841796875 55.43457794189453 146.4512939453125 59.82535171508789" stroke-width="3.0" fill="none" stroke="rgb(0, 0, 0)" stroke-opacity="0.96623904" stroke-linecap="round" stroke-linejoin="round"/>
    <path d="M 91.84945678710938 163.237548828125 C 98.6600341796875 176.8194122314453 87.35188293457031 173.119384765625 70.8988265991211 177.35194396972656" stroke-width="3.0" fill="none" stroke="rgb(0, 0, 0)" stroke-opacity="0.97852194" stroke-linecap="round" stroke-linejoin="round"/>
    <path d="M 174.03489685058594 47.57088851928711 C 181.6388397216797 49.531681060791016 179.4551239013672 45.52751541137695 175.41944885253906 46.120697021484375" stroke-width="3.0" fill="none" stroke="rgb(0, 0, 0)" stroke-opacity="0.97300476" stroke-linecap="round" stroke-linejoin="round"/>
    <path d="M 23.98436737060547 124.71393585205078 C 21.713136672973633 120.072021484375 13.750107765197754 122.31580352783203 14.578121185302734 126.76359558105469" stroke-width="3.0" fill="none" stroke="rgb(0, 0, 0)" stroke-opacity="0.7680364" stroke-linecap="round" stroke-linejoin="round"/>
    <path d="M 172.74288940429688 51.268470764160156 C 166.41879272460938 63.67210388183594 167.7952423095703 66.36283874511719 181.1852569580078 44.44242858886719" stroke-width="3.0" fill="none" stroke="rgb(0, 1, 0)" stroke-opacity="0.91718745" stroke-linecap="round" stroke-linejoin="round"/>
    <path d="M 155.29371643066406 75.61527252197266 C 165.72181701660156 81.8105697631836 166.76734924316406 71.0044937133789 158.2211456298828 65.50820922851562" stroke-width="3.0" fill="none" stroke="rgb(0, 0, 0)" stroke-opacity="0.9344961" stroke-linecap="round" stroke-linejoin="round"/>
    <path d="M 22.119421005249023 108.26966857910156 C 25.735464096069336 94.156494140625 21.31641387939453 105.15814208984375 23.540008544921875 105.77017974853516" stroke-width="3.0" fill="none" stroke="rgb(0, 0, 1)" stroke-opacity="0.98945314" stroke-linecap="round" stroke-linejoin="round"/>
    <path d="M 162.19552612304688 198.893798828125 C 160.8743133544922 203.25022888183594 162.30313110351562 208.46707153320312 156.06259155273438 210.80650329589844" stroke-width="3.0" fill="none" stroke="rgb(1, 0, 0)" stroke-opacity="0.8622445" stroke-linecap="round" stroke-linejoin="round"/>
    <path d="M 175.40916442871094 19.809906005859375 C 187.97425842285156 6.378689289093018 187.1382598876953 -1.3047521114349365 189.76605224609375 8.677627563476562" stroke-width="3.0" fill="none" stroke="rgb(0, 0, 0)" stroke-opacity="1.0003424" stroke-linecap="round" stroke-linejoin="round"/>
    <path d="M -4.3299641609191895 130.13059997558594 C -3.3648204803466797 138.44961547851562 -3.0368058681488037 144.80458068847656 -5.775802135467529 141.39791870117188" stroke-width="3.0" fill="none" stroke="rgb(0, 0, 0)" stroke-opacity="0.9023885" stroke-linecap="round" stroke-linejoin="round"/>
    <path d="M 19.77615737915039 120.43243408203125 C 28.04927635192871 106.3782958984375 29.133644104003906 102.72606658935547 30.129364013671875 88.4305648803711" stroke-width="3.0" fill="none" stroke="rgb(0, 0, 0)" stroke-opacity="0.98558795" stroke-linecap="round" stroke-linejoin="round"/>
    <path d="M 170.99278259277344 56.92432403564453 C 179.423583984375 60.63917541503906 198.1195831298828 61.06623840332031 186.3268585205078 51.50672912597656" stroke-width="3.0" fill="none" stroke="rgb(0, 0, 0)" stroke-opacity="0.91260284" stroke-linecap="round" stroke-linejoin="round"/>
    <path d="M 114.02934265136719 20.609174728393555 C 122.64883422851562 16.319021224975586 123.73210144042969 14.620562553405762 118.53438568115234 27.410995483398438" stroke-width="3.0" fill="none" stroke="rgb(0, 0, 0)" stroke-opacity="0.7394216" stroke-linecap="round" stroke-linejoin="round"/>
    <path d="M 136.43077087402344 204.18785095214844 C 133.21368408203125 203.10137939453125 130.482421875 195.8283233642578 151.35560607910156 205.41079711914062" stroke-width="3.0" fill="none" stroke="rgb(0, 0, 0)" stroke-opacity="0.98593503" stroke-linecap="round" stroke-linejoin="round"/>
    <path d="M 72.74646759033203 155.1837921142578 C 63.930511474609375 145.77786254882812 67.63867950439453 141.33319091796875 57.840911865234375 140.69859313964844" stroke-width="3.0" fill="none" stroke="rgb(0, 1, 0)" stroke-opacity="0.8006781" stroke-linecap="round" stroke-linejoin="round"/>
    <path d="M 64.93053436279297 160.10943603515625 C 45.141292572021484 139.839599609375 63.472076416015625 141.6424560546875 65.03960418701172 137.83328247070312" stroke-width="3.0" fill="none" stroke="rgb(1, 1, -1)" stroke-opacity="0.6925914" stroke-linecap="round" stroke-linejoin="round"/>
    <path d="M 180.35757446289062 45.23539352416992 C 191.2061309814453 42.262142181396484 206.1255645751953 39.9506721496582 193.75794982910156 61.35390090942383" stroke-width="3.0" fill="none" stroke="rgb(0, 0, 0)" stroke-opacity="1.0020264" stroke-linecap="round" stroke-linejoin="round"/>
    <path d="M 146.8525848388672 28.143095016479492 C 148.2717742919922 24.34146499633789 146.9765625 25.229572296142578 146.18069458007812 31.124269485473633" stroke-width="3.0" fill="none" stroke="rgb(0, 0, 0)" stroke-opacity="0.6085994" stroke-linecap="round" stroke-linejoin="round"/>
    <path d="M 181.6968536376953 24.69330596923828 C 174.13494873046875 20.288284301757812 185.0499725341797 13.917762756347656 191.7178192138672 12.247956275939941" stroke-width="3.0" fill="none" stroke="rgb(0, 0, 0)" stroke-opacity="0.97207725" stroke-linecap="round" stroke-linejoin="round"/>
    <path d="M 101.53651428222656 91.82321166992188 C 99.68177032470703 92.08849334716797 113.35527038574219 94.74417877197266 113.57799530029297 92.98632049560547" stroke-width="3.0" fill="none" stroke="rgb(0, 0, 0)" stroke-opacity="0.8252368" stroke-linecap="round" stroke-linejoin="round"/>
    <path d="M 150.6351776123047 106.98394012451172 C 151.02940368652344 107.0806884765625 157.7137908935547 97.78168487548828 167.15426635742188 108.1357650756836" stroke-width="3.0" fill="none" stroke="rgb(0, 0, 0)" stroke-opacity="0.66910726" stroke-linecap="round" stroke-linejoin="round"/>
    <path d="M 97.49880981445312 198.6539306640625 C 104.6081314086914 191.18531799316406 96.1148910522461 187.75270080566406 91.55738067626953 178.36265563964844" stroke-width="3.0" fill="none" stroke="rgb(0, 0, 0)" stroke-opacity="0.9572427" stroke-linecap="round" stroke-linejoin="round"/>
    <path d="M 149.21078491210938 60.585235595703125 C 164.7114715576172 59.48005676269531 167.6601104736328 75.52210998535156 175.38809204101562 58.196983337402344" stroke-width="3.0" fill="none" stroke="rgb(0, 0, 1)" stroke-opacity="0.8214805" stroke-linecap="round" stroke-linejoin="round"/>
    <path d="M 20.827800750732422 143.80479431152344 C 36.11625671386719 151.79786682128906 30.920583724975586 134.9055633544922 30.154953002929688 144.79823303222656" stroke-width="3.0" fill="none" stroke="rgb(0, 0, 0)" stroke-opacity="0.8428843" stroke-linecap="round" stroke-linejoin="round"/>
    <path d="M 140.91175842285156 194.7562713623047 C 127.28980255126953 194.72669982910156 128.8647003173828 203.2640838623047 130.5113983154297 206.56321716308594" stroke-width="3.0" fill="none" stroke="rgb(0, 0, 0)" stroke-opacity="0.8672862" stroke-linecap="round" stroke-linejoin="round"/>
    <path d="M 129.8374481201172 195.77175903320312 C 134.64002990722656 185.8321533203125 146.08221435546875 189.88760375976562 164.06576538085938 197.44679260253906" stroke-width="3.0" fill="none" stroke="rgb(0, 0, 0)" stroke-opacity="0.98161656" stroke-linecap="round" stroke-linejoin="round"/>
    <path d="M 77.04312133789062 180.12216186523438 C 73.73099517822266 183.57424926757812 78.9801025390625 174.06527709960938 65.15828704833984 180.46237182617188" stroke-width="3.0" fill="none" stroke="rgb(0, 0, 0)" stroke-opacity="0.97921515" stroke-linecap="round" stroke-linejoin="round"/>
    <path d="M 198.6040802001953 -2.681448221206665 C 195.08993530273438 32.28874588012695 192.22201538085938 38.972801208496094 197.1796417236328 20.685644149780273" stroke-width="3.0" fill="none" stroke="rgb(0, 0, 0)" stroke-opacity="1.001726" stroke-linecap="round" stroke-linejoin="round"/>
    <path d="M 121.6143798828125 34.0104866027832 C 121.94344329833984 42.32478332519531 117.61031341552734 47.984981536865234 122.59295654296875 62.474273681640625" stroke-width="3.0" fill="none" stroke="rgb(0, 0, 0)" stroke-opacity="0.84786206" stroke-linecap="round" stroke-linejoin="round"/>
    <path d="M 97.6832046508789 179.73646545410156 C 83.427490234375 161.29295349121094 80.78987884521484 164.11610412597656 88.8468246459961 159.04576110839844" stroke-width="3.0" fill="none" stroke="rgb(0, 0, 0)" stroke-opacity="0.850188" stroke-linecap="round" stroke-linejoin="round"/>
    <path d="M 58.433692932128906 206.1068572998047 C 61.639217376708984 205.1519012451172 58.01625442504883 203.50045776367188 59.623600006103516 207.31776428222656" stroke-width="3.0" fill="none" stroke="rgb(0, 0, 0)" stroke-opacity="0.8024867" stroke-linecap="round" stroke-linejoin="round"/>
    <path d="M 177.7554168701172 135.61111450195312 C 178.5138702392578 137.53155517578125 179.57467651367188 131.16165161132812 170.35435485839844 141.5892791748047" stroke-width="3.0" fill="none" stroke="rgb(0, 0, 0)" stroke-opacity="0.782116" stroke-linecap="round" stroke-linejoin="round"/>
    <path d="M 28.188203811645508 191.062255859375 C 32.63177490234375 180.3418731689453 45.58586883544922 183.06655883789062 29.854646682739258 180.216796875" stroke-width="3.0" fill="none" stroke="rgb(0, 0, 0)" stroke-opacity="0.6562225" stroke-linecap="round" stroke-linejoin="round"/>
    <path d="M 150.87660217285156 13.188708305358887 C 156.30902099609375 21.255048751831055 159.37733459472656 21.879281997680664 153.4322967529297 14.111493110656738" stroke-width="3.0" fill="none" stroke="rgb(0, 0, 0)" stroke-opacity="0.91692287" stroke-linecap="round" stroke-linejoin="round"/>
    <path d="M 179.98770141601562 184.99749755859375 C 176.97132873535156 173.95867919921875 170.8841094970703 184.4585723876953 163.45565795898438 189.04393005371094" stroke-width="3.0" fill="none" stroke="rgb(0, 0, 0)" stroke-opacity="0.99899226" stroke-linecap="round" stroke-linejoin="round"/>
    <path d="M 93.494873046875 122.0999526977539 C 101.19818115234375 130.00521850585938 106.43242645263672 144.70709228515625 113.06216430664062 125.41935729980469" stroke-width="3.0" fill="none" stroke="rgb(0, 0, 0)" stroke-opacity="0.74099475" stroke-linecap="round" stroke-linejoin="round"/>
    <path d="M 163.85313415527344 76.02635192871094 C 162.05682373046875 78.75959014892578 160.675537109375 76.04386138916016 171.3234100341797 57.78720474243164" stroke-width="3.0" fill="none" stroke="rgb(0, 0, 0)" stroke-opacity="0.91515523" stroke-linecap="round" stroke-linejoin="round"/>
    <path d="M 135.66415405273438 119.7802963256836 C 129.6325225830078 121.52277374267578 134.48817443847656 125.62046813964844 132.30174255371094 124.07197570800781" stroke-width="3.0" fill="none" stroke="rgb(0, 0, 0)" stroke-opacity="0.84335893" stroke-linecap="round" stroke-linejoin="round"/>
    <path d="M 85.64317321777344 15.865900039672852 C 87.79329681396484 17.73873519897461 88.69227600097656 13.49215030670166 79.79756927490234 15.088748931884766" stroke-width="3.0" fill="none" stroke="rgb(0, 0, 0)" stroke-opacity="0.7453881" stroke-linecap="round" stroke-linejoin="round"/>
    <path d="M 127.80616760253906 28.269704818725586 C 125.27651977539062 44.677921295166016 99.40164947509766 41.928199768066406 105.64120483398438 46.572181701660156" stroke-width="3.0" fill="none" stroke="rgb(0, 0, 0)" stroke-opacity="0.88145894" stroke-linecap="round" stroke-linejoin="round"/>
    <path d="M 136.70721435546875 22.413843154907227 C 117.81881713867188 17.239591598510742 126.53485107421875 17.760812759399414 123.11382293701172 27.19425392150879" stroke-width="3.0" fill="none" stroke="rgb(0, 0, 0)" stroke-opacity="1.0004808" stroke-linecap="round" stroke-linejoin="round"/>
    <path d="M 198.55235290527344 34.01317596435547 C 200.9471893310547 27.236270904541016 195.21221923828125 42.23773193359375 200.03541564941406 42.886756896972656" stroke-width="3.0" fill="none" stroke="rgb(0, 0, 0)" stroke-opacity="0.8506655" stroke-linecap="round" stroke-linejoin="round"/>
    <path d="M 130.79917907714844 12.282207489013672 C 129.09197998046875 6.875845432281494 120.46337890625 22.70924949645996 120.32527923583984 1.9151768684387207" stroke-width="3.0" fill="none" stroke="rgb(0, 0, 0)" stroke-opacity="0.99634427" stroke-linecap="round" stroke-linejoin="round"/>
    <path d="M 124.6805191040039 34.84370422363281 C 137.89596557617188 25.907148361206055 137.9688720703125 19.590076446533203 128.3065643310547 27.261777877807617" stroke-width="3.0" fill="none" stroke="rgb(0, 0, 0)" stroke-opacity="0.9759073" stroke-linecap="round" stroke-linejoin="round"/>
    <path d="M 56.378787994384766 40.065616607666016 C 49.39555740356445 48.248992919921875 51.389862060546875 58.74977111816406 34.901485443115234 54.29507064819336" stroke-width="3.0" fill="none" stroke="rgb(0, 0, 1)" stroke-opacity="0.9996193" stroke-linecap="round" stroke-linejoin="round"/>
    <path d="M 157.5707244873047 192.63897705078125 C 149.09515380859375 177.31936645507812 146.50979614257812 164.9046630859375 145.7823028564453 139.32496643066406" stroke-width="3.0" fill="none" stroke="rgb(0, 0, 0)" stroke-opacity="1.0018691" stroke-linecap="round" stroke-linejoin="round"/>
    <path d="M 166.20489501953125 134.96420288085938 C 178.0803985595703 121.51081085205078 181.47308349609375 122.00862121582031 182.8107147216797 118.83496856689453" stroke-width="3.0" fill="none" stroke="rgb(0, 0, 0)" stroke-opacity="1.0004768" stroke-linecap="round" stroke-linejoin="round"/>
    <path d="M 101.81210327148438 135.8853302001953 C 91.37694549560547 154.33726501464844 84.24430847167969 153.7707061767578 82.16841125488281 146.66566467285156" stroke-width="3.0" fill="none" stroke="rgb(0, -1, 1)" stroke-opacity="0.9406481" stroke-linecap="round" stroke-linejoin="round"/>
    <path d="M 124.97958374023438 56.536476135253906 C 135.76458740234375 41.12282180786133 143.11131286621094 44.06365203857422 140.4968719482422 50.155616760253906" stroke-width="3.0" fill="none" stroke="rgb(0, 0, 0)" stroke-opacity="0.8837163" stroke-linecap="round" stroke-linejoin="round"/>
    <path d="M 124.0909652709961 21.741586685180664 C 132.6602325439453 16.1912899017334 131.56900024414062 9.526646614074707 135.17774963378906 19.05902099609375" stroke-width="3.0" fill="none" stroke="rgb(0, 0, 0)" stroke-opacity="0.97204894" stroke-linecap="round" stroke-linejoin="round"/>
    <path d="M 47.4991340637207 145.31373596191406 C 43.135353088378906 143.02557373046875 45.371253967285156 132.6324462890625 50.48078918457031 131.1904754638672" stroke-width="3.0" fill="none" stroke="rgb(0, 0, 0)" stroke-opacity="0.7000497" stroke-linecap="round" stroke-linejoin="round"/>
    <path d="M 121.43486022949219 25.097885131835938 C 106.80025482177734 6.962122917175293 111.02088928222656 7.464772701263428 113.21047973632812 13.056445121765137" stroke-width="3.0" fill="none" stroke="rgb(0, 0, 0)" stroke-opacity="0.45924988" stroke-linecap="round" stroke-linejoin="round"/>
    <path d="M 60.00697326660156 196.238525390625 C 57.210609436035156 202.6951141357422 58.08993148803711 194.80206298828125 57.49691390991211 195.37698364257812" stroke-width="3.0" fill="none" stroke="rgb(0, 0, 0)" stroke-opacity="0.65152967" stroke-linecap="round" stroke-linejoin="round"/>
  </g>
</svg>
