<?xml version="1.0" ?>
<svg xmlns="http://www.w3.org/2000/svg" version="1.1" width="224" height="224">
  <defs/>
  <g>
    <path d="M 127.10277557373047 47.60713577270508 C 184.61758422851562 38.31676483154297 189.8176727294922 57.112300872802734 188.97055053710938 49.85690689086914" stroke-width="3.0" fill="none" stroke="rgb(0, 0, 0)" stroke-opacity="-0.0016489667" stroke-linecap="round" stroke-linejoin="round"/>
    <path d="M 60.23703384399414 171.34083557128906 C 67.75483703613281 172.82118225097656 52.937252044677734 177.56597900390625 34.8020133972168 184.1983642578125" stroke-width="3.0" fill="none" stroke="rgb(0, 0, 0)" stroke-opacity="-0.004958623" stroke-linecap="round" stroke-linejoin="round"/>
    <path d="M 118.77613830566406 159.13482666015625 C 128.94638061523438 166.98696899414062 135.7518768310547 151.38368225097656 109.55679321289062 136.7563018798828" stroke-width="3.0" fill="none" stroke="rgb(0, 0, 0)" stroke-opacity="-0.0024869603" stroke-linecap="round" stroke-linejoin="round"/>
    <path d="M 102.099365234375 116.5691909790039 C 98.8156967163086 110.80081176757812 115.43282318115234 95.57178497314453 93.58918762207031 61.97270202636719" stroke-width="3.0" fill="none" stroke="rgb(0, 0, 0)" stroke-opacity="0.0075629367" stroke-linecap="round" stroke-linejoin="round"/>
    <path d="M 115.72712707519531 10.69434928894043 C 111.78125762939453 2.1626479625701904 111.3949966430664 -0.9886794686317444 143.44525146484375 35.42321014404297" stroke-width="3.0" fill="none" stroke="rgb(0, 0, 0)" stroke-opacity="1.0009044" stroke-linecap="round" stroke-linejoin="round"/>
    <path d="M 123.85523223876953 -9.39466667175293 C 151.4119415283203 18.731201171875 173.0481414794922 31.823869705200195 174.7808380126953 32.46321105957031" stroke-width="3.0" fill="none" stroke="rgb(0, 0, 0)" stroke-opacity="-0.00017388971" stroke-linecap="round" stroke-linejoin="round"/>
    <path d="M 120.78262329101562 191.40847778320312 C 71.47682189941406 121.0467529296875 96.96122741699219 172.12208557128906 91.49497985839844 202.31756591796875" stroke-width="3.0" fill="none" stroke="rgb(0, -1, 0)" stroke-opacity="1.0043573" stroke-linecap="round" stroke-linejoin="round"/>
    <path d="M 206.49700927734375 80.2413558959961 C 174.47413635253906 122.55886840820312 128.6082000732422 122.37580871582031 93.65662384033203 74.8728256225586" stroke-width="3.0" fill="none" stroke="rgb(0, 0, 0)" stroke-opacity="1.0007411" stroke-linecap="round" stroke-linejoin="round"/>
    <path d="M 49.544586181640625 140.4374237060547 C 55.379940032958984 145.0458984375 52.19784927368164 145.87901306152344 51.549808502197266 142.007568359375" stroke-width="3.0" fill="none" stroke="rgb(0, 0, 0)" stroke-opacity="-0.0020000236" stroke-linecap="round" stroke-linejoin="round"/>
    <path d="M 190.34576416015625 -9.867334365844727 C 198.32752990722656 -2.8196680545806885 193.89129638671875 -8.432745933532715 174.7252655029297 -7.795581340789795" stroke-width="3.0" fill="none" stroke="rgb(0, 0, 0)" stroke-opacity="0.79193753" stroke-linecap="round" stroke-linejoin="round"/>
    <path d="M 140.67393493652344 196.8874053955078 C 127.76679992675781 231.72401428222656 146.596435546875 243.14208984375 195.97146606445312 225.53488159179688" stroke-width="3.0" fill="none" stroke="rgb(0, 0, 0)" stroke-opacity="0.14695086" stroke-linecap="round" stroke-linejoin="round"/>
    <path d="M 74.40409851074219 192.86231994628906 C 38.2325553894043 156.97206115722656 35.087066650390625 104.51708984375 61.5318603515625 84.10199737548828" stroke-width="3.0" fill="none" stroke="rgb(0, 0, 0)" stroke-opacity="1.0039325" stroke-linecap="round" stroke-linejoin="round"/>
    <path d="M 123.2801513671875 56.117958068847656 C 174.69497680664062 65.72232818603516 137.26844787597656 76.55394744873047 125.55216979980469 70.68394470214844" stroke-width="3.0" fill="none" stroke="rgb(0, 0, 1)" stroke-opacity="1.0021667" stroke-linecap="round" stroke-linejoin="round"/>
    <path d="M 97.6471176147461 38.32884979248047 C 94.328369140625 21.868017196655273 94.45024871826172 19.671724319458008 93.19792938232422 65.36336517333984" stroke-width="3.0" fill="none" stroke="rgb(0, 0, 1)" stroke-opacity="0.9982298" stroke-linecap="round" stroke-linejoin="round"/>
    <path d="M 85.78934478759766 74.78960418701172 C 98.71401977539062 72.85287475585938 81.95193481445312 39.4227294921875 88.90863037109375 -18.410734176635742" stroke-width="3.0" fill="none" stroke="rgb(0, 0, 0)" stroke-opacity="-0.0018599676" stroke-linecap="round" stroke-linejoin="round"/>
    <path d="M 106.13182067871094 59.875099182128906 C 87.28243255615234 52.56800842285156 88.92816925048828 54.17012405395508 135.03883361816406 76.90757751464844" stroke-width="3.0" fill="none" stroke="rgb(0, 0, 0)" stroke-opacity="-0.00020598661" stroke-linecap="round" stroke-linejoin="round"/>
    <path d="M 29.340940475463867 69.57129669189453 C 6.735611438751221 93.53903198242188 37.089942932128906 104.09232330322266 31.541234970092773 104.26502990722656" stroke-width="3.0" fill="none" stroke="rgb(0, 0, 0)" stroke-opacity="-0.0003321332" stroke-linecap="round" stroke-linejoin="round"/>
    <path d="M 117.91702270507812 77.21981048583984 C 74.98081970214844 72.33220672607422 54.30868911743164 80.79096221923828 46.70672607421875 114.82939910888672" stroke-width="3.0" fill="none" stroke="rgb(0, 0, 0)" stroke-opacity="1.0037984" stroke-linecap="round" stroke-linejoin="round"/>
    <path d="M 230.60562133789062 89.7737045288086 C 186.42091369628906 78.95397186279297 173.10951232910156 75.09771728515625 164.24258422851562 69.23541259765625" stroke-width="3.0" fill="none" stroke="rgb(1, 0, 0)" stroke-opacity="1.0005335" stroke-linecap="round" stroke-linejoin="round"/>
    <path d="M 156.3224639892578 114.13375091552734 C 163.5828399658203 124.2505111694336 180.49119567871094 115.5994644165039 173.59103393554688 119.5627212524414" stroke-width="3.0" fill="none" stroke="rgb(0, 0, 0)" stroke-opacity="0.13464013" stroke-linecap="round" stroke-linejoin="round"/>
    <path d="M 137.344482421875 -4.4696478843688965 C 109.18989562988281 -10.430085182189941 98.86054229736328 18.044822692871094 106.6518325805664 0.08442727476358414" stroke-width="3.0" fill="none" stroke="rgb(0, 0, 0)" stroke-opacity="0.28571743" stroke-linecap="round" stroke-linejoin="round"/>
    <path d="M 141.5443878173828 85.9754638671875 C 156.0803985595703 88.09656524658203 131.56405639648438 74.9930419921875 110.07720184326172 106.0639877319336" stroke-width="3.0" fill="none" stroke="rgb(0, 0, 0)" stroke-opacity="-0.0014407546" stroke-linecap="round" stroke-linejoin="round"/>
    <path d="M 203.9486541748047 76.64208984375 C 200.55105590820312 34.35301971435547 200.090576171875 42.00570297241211 196.6305694580078 64.37740325927734" stroke-width="3.0" fill="none" stroke="rgb(0, 0, 0)" stroke-opacity="1.0005615" stroke-linecap="round" stroke-linejoin="round"/>
    <path d="M 2.8444101810455322 41.11738967895508 C 52.675846099853516 -25.739482879638672 23.559158325195312 54.68254470825195 51.391578674316406 85.8948974609375" stroke-width="3.0" fill="none" stroke="rgb(0, 0, 0)" stroke-opacity="0.12743592" stroke-linecap="round" stroke-linejoin="round"/>
    <path d="M 66.7061767578125 179.4761962890625 C 60.0247802734375 211.82627868652344 35.93662643432617 220.8330535888672 33.57292175292969 178.85513305664062" stroke-width="3.0" fill="none" stroke="rgb(0, 0, 0)" stroke-opacity="-0.00014267238" stroke-linecap="round" stroke-linejoin="round"/>
    <path d="M 196.6826629638672 37.78512191772461 C 179.1793212890625 23.013797760009766 195.6849365234375 30.74489974975586 207.6085662841797 30.69222640991211" stroke-width="3.0" fill="none" stroke="rgb(0, 0, 0)" stroke-opacity="-0.0011243089" stroke-linecap="round" stroke-linejoin="round"/>
    <path d="M 118.25093078613281 122.64185333251953 C 108.3243179321289 95.86483764648438 97.37175750732422 109.64318084716797 121.31954193115234 93.00116729736328" stroke-width="3.0" fill="none" stroke="rgb(0, 0, 0)" stroke-opacity="0.052469183" stroke-linecap="round" stroke-linejoin="round"/>
    <path d="M 155.08338928222656 110.0226821899414 C 113.57063293457031 106.4041519165039 88.3492202758789 85.05941009521484 99.7113265991211 61.607913970947266" stroke-width="3.0" fill="none" stroke="rgb(0, 0, 0)" stroke-opacity="0.94185376" stroke-linecap="round" stroke-linejoin="round"/>
    <path d="M 206.9640655517578 -12.1124849319458 C 205.61544799804688 -11.980367660522461 197.45046997070312 14.772171020507812 170.05345153808594 28.419965744018555" stroke-width="3.0" fill="none" stroke="rgb(0, 0, 0)" stroke-opacity="1.0004979" stroke-linecap="round" stroke-linejoin="round"/>
    <path d="M 68.03923797607422 128.6085662841797 C 54.90196228027344 108.70101928710938 76.93955993652344 104.613037109375 81.68197631835938 126.09369659423828" stroke-width="3.0" fill="none" stroke="rgb(0, 0, 0)" stroke-opacity="-0.0007033408" stroke-linecap="round" stroke-linejoin="round"/>
    <path d="M 110.3641586303711 -2.9835424423217773 C 143.8314971923828 8.40461540222168 137.0994415283203 4.070589065551758 165.56509399414062 32.15238571166992" stroke-width="3.0" fill="none" stroke="rgb(0, 0, 0)" stroke-opacity="0.0052177524" stroke-linecap="round" stroke-linejoin="round"/>
    <path d="M 112.16156005859375 5.852253437042236 C 128.7029266357422 -14.094749450683594 132.1217803955078 -9.776976585388184 119.7472915649414 -8.007926940917969" stroke-width="3.0" fill="none" stroke="rgb(0, 0, 0)" stroke-opacity="0.51166093" stroke-linecap="round" stroke-linejoin="round"/>
    <path d="M 142.91909790039062 142.07107543945312 C 129.8999481201172 199.1795654296875 161.6295928955078 223.22581481933594 164.4380645751953 249.8152313232422" stroke-width="3.0" fill="none" stroke="rgb(0, -1, 0)" stroke-opacity="1.0037801" stroke-linecap="round" stroke-linejoin="round"/>
    <path d="M 142.67689514160156 160.59164428710938 C 140.7079315185547 193.5901641845703 159.31723022460938 212.50555419921875 131.91957092285156 212.5738983154297" stroke-width="3.0" fill="none" stroke="rgb(-1, -1, 1)" stroke-opacity="1.0053397" stroke-linecap="round" stroke-linejoin="round"/>
    <path d="M 110.36406707763672 93.35906982421875 C 100.67770385742188 131.94357299804688 118.47342681884766 190.30397033691406 133.72300720214844 214.4476776123047" stroke-width="3.0" fill="none" stroke="rgb(0, 0, 0)" stroke-opacity="1.0029894" stroke-linecap="round" stroke-linejoin="round"/>
    <path d="M 88.90643310546875 83.14524841308594 C 81.57353973388672 60.70085906982422 62.97386169433594 102.81602478027344 126.95301055908203 130.9217529296875" stroke-width="3.0" fill="none" stroke="rgb(0, 0, 0)" stroke-opacity="0.009375063" stroke-linecap="round" stroke-linejoin="round"/>
    <path d="M 102.58230590820312 -8.075403213500977 C 144.98960876464844 41.31569290161133 160.06192016601562 50.93080139160156 104.14057159423828 0.7783129215240479" stroke-width="3.0" fill="none" stroke="rgb(0, 0, 0)" stroke-opacity="1.0020393" stroke-linecap="round" stroke-linejoin="round"/>
    <path d="M 79.01089477539062 115.98902130126953 C 82.6279067993164 133.05233764648438 104.43986511230469 132.55043029785156 97.83062744140625 130.7943115234375" stroke-width="3.0" fill="none" stroke="rgb(0, 0, 0)" stroke-opacity="-0.0018824211" stroke-linecap="round" stroke-linejoin="round"/>
    <path d="M 193.88394165039062 66.62459564208984 C 172.7542266845703 49.753868103027344 176.09109497070312 63.70437240600586 164.2855682373047 78.51841735839844" stroke-width="3.0" fill="none" stroke="rgb(0, 0, 0)" stroke-opacity="1.0009111" stroke-linecap="round" stroke-linejoin="round"/>
    <path d="M 185.2590789794922 57.85337829589844 C 215.57711791992188 89.35789489746094 200.81549072265625 61.07162857055664 203.21343994140625 22.467182159423828" stroke-width="3.0" fill="none" stroke="rgb(0, 0, 1)" stroke-opacity="0.9971538" stroke-linecap="round" stroke-linejoin="round"/>
    <path d="M 38.070281982421875 18.25828742980957 C 6.97051477432251 48.098060607910156 36.87420654296875 90.81673431396484 51.82781982421875 107.6399917602539" stroke-width="3.0" fill="none" stroke="rgb(0, 0, 0)" stroke-opacity="1.0014913" stroke-linecap="round" stroke-linejoin="round"/>
    <path d="M 200.39007568359375 44.85307312011719 C 197.9176025390625 4.480380535125732 209.3362579345703 0.7983552813529968 184.88970947265625 -14.628791809082031" stroke-width="3.0" fill="none" stroke="rgb(0, 0, 0)" stroke-opacity="1.0010166" stroke-linecap="round" stroke-linejoin="round"/>
    <path d="M 98.67825317382812 232.39346313476562 C 159.68661499023438 232.99302673339844 178.9387969970703 200.9124755859375 155.74420166015625 162.44041442871094" stroke-width="3.0" fill="none" stroke="rgb(0, 0, 0)" stroke-opacity="0.3096609" stroke-linecap="round" stroke-linejoin="round"/>
    <path d="M 240.82994079589844 70.12745666503906 C 131.74581909179688 62.37267303466797 143.12095642089844 76.3124008178711 218.28268432617188 104.266357421875" stroke-width="3.0" fill="none" stroke="rgb(0, 0, 0)" stroke-opacity="0.9882701" stroke-linecap="round" stroke-linejoin="round"/>
    <path d="M 152.25759887695312 163.67491149902344 C 144.98948669433594 166.16270446777344 169.32289123535156 160.6293487548828 171.8835906982422 137.51150512695312" stroke-width="3.0" fill="none" stroke="rgb(0, 0, 0)" stroke-opacity="0.21373305" stroke-linecap="round" stroke-linejoin="round"/>
    <path d="M 19.756616592407227 77.65186309814453 C 21.87348175048828 41.53604507446289 23.808664321899414 15.877105712890625 60.577186584472656 3.772261142730713" stroke-width="3.0" fill="none" stroke="rgb(0, 0, 0)" stroke-opacity="0.022747092" stroke-linecap="round" stroke-linejoin="round"/>
    <path d="M 80.09193420410156 73.54470825195312 C 73.33463287353516 93.3362808227539 98.34877014160156 97.17184448242188 91.00330352783203 96.92424774169922" stroke-width="3.0" fill="none" stroke="rgb(0, 0, 0)" stroke-opacity="0.069731" stroke-linecap="round" stroke-linejoin="round"/>
    <path d="M -7.82280158996582 93.02945709228516 C 2.9673702716827393 113.19599151611328 -4.129476547241211 114.45480346679688 -3.3359928131103516 122.28520202636719" stroke-width="3.0" fill="none" stroke="rgb(0, 0, 0)" stroke-opacity="0.061789647" stroke-linecap="round" stroke-linejoin="round"/>
    <path d="M 48.99480056762695 17.525129318237305 C 26.806203842163086 54.244140625 41.48184585571289 54.07893753051758 43.48563766479492 14.347733497619629" stroke-width="3.0" fill="none" stroke="rgb(0, -1, 1)" stroke-opacity="0.99336857" stroke-linecap="round" stroke-linejoin="round"/>
    <path d="M 71.4167709350586 195.60638427734375 C 83.83013153076172 195.24786376953125 101.39759063720703 212.0923309326172 72.89492797851562 197.42994689941406" stroke-width="3.0" fill="none" stroke="rgb(0, 0, 0)" stroke-opacity="1.0028539" stroke-linecap="round" stroke-linejoin="round"/>
    <path d="M 170.57666015625 131.87734985351562 C 167.46295166015625 169.9276885986328 130.19189453125 169.7908477783203 133.26275634765625 170.3272247314453" stroke-width="3.0" fill="none" stroke="rgb(0, 0, 0)" stroke-opacity="0.18717904" stroke-linecap="round" stroke-linejoin="round"/>
    <path d="M 142.50872802734375 235.23770141601562 C 175.89649963378906 229.56141662597656 138.62106323242188 240.16372680664062 123.78020477294922 226.01165771484375" stroke-width="3.0" fill="none" stroke="rgb(0, 0, 0)" stroke-opacity="0.28871685" stroke-linecap="round" stroke-linejoin="round"/>
    <path d="M 109.82051849365234 190.8187255859375 C 103.80327606201172 213.38046264648438 76.68529510498047 211.11563110351562 85.6944580078125 224.5745391845703" stroke-width="3.0" fill="none" stroke="rgb(0, 0, 0)" stroke-opacity="-0.0002283565" stroke-linecap="round" stroke-linejoin="round"/>
    <path d="M 75.89999389648438 179.40992736816406 C 62.62071228027344 144.71607971191406 63.525455474853516 138.7685546875 57.660091400146484 179.64242553710938" stroke-width="3.0" fill="none" stroke="rgb(0, 0, 0)" stroke-opacity="0.0053765057" stroke-linecap="round" stroke-linejoin="round"/>
    <path d="M 121.73147583007812 194.5409393310547 C 93.04096221923828 198.7620391845703 109.44329833984375 169.58633422851562 85.10779571533203 137.01776123046875" stroke-width="3.0" fill="none" stroke="rgb(0, 0, 0)" stroke-opacity="1.0017873" stroke-linecap="round" stroke-linejoin="round"/>
    <path d="M 147.79541015625 -1.5199439525604248 C 187.0399169921875 -21.854883193969727 203.11546325683594 -11.586498260498047 206.11981201171875 -6.21264123916626" stroke-width="3.0" fill="none" stroke="rgb(0, 0, 0)" stroke-opacity="0.7441489" stroke-linecap="round" stroke-linejoin="round"/>
    <path d="M 38.79553985595703 44.692012786865234 C 91.93060302734375 27.448410034179688 117.10191345214844 6.656438827514648 78.85337829589844 -15.20880126953125" stroke-width="3.0" fill="none" stroke="rgb(0, 0, 0)" stroke-opacity="0.00013035804" stroke-linecap="round" stroke-linejoin="round"/>
    <path d="M 201.77438354492188 -4.024635314941406 C 207.32183837890625 40.249168395996094 195.8651580810547 65.97337341308594 187.96591186523438 54.54045486450195" stroke-width="3.0" fill="none" stroke="rgb(0, 0, 0)" stroke-opacity="0.31385756" stroke-linecap="round" stroke-linejoin="round"/>
    <path d="M 158.24404907226562 88.32828521728516 C 162.77586364746094 70.33439636230469 196.23863220214844 71.61519622802734 202.46705627441406 39.680992126464844" stroke-width="3.0" fill="none" stroke="rgb(0, -1, 0)" stroke-opacity="0.68407184" stroke-linecap="round" stroke-linejoin="round"/>
    <path d="M 203.70574951171875 40.33882141113281 C 207.09852600097656 37.05012893676758 202.0984649658203 53.44792556762695 152.98336791992188 91.11795043945312" stroke-width="3.0" fill="none" stroke="rgb(0, 0, 0)" stroke-opacity="0.99982023" stroke-linecap="round" stroke-linejoin="round"/>
    <path d="M 187.81631469726562 88.11409759521484 C 209.79225158691406 69.32577514648438 233.5087432861328 39.298954010009766 169.15274047851562 37.119075775146484" stroke-width="3.0" fill="none" stroke="rgb(0, 0, 0)" stroke-opacity="-0.0026956198" stroke-linecap="round" stroke-linejoin="round"/>
    <path d="M 60.62398910522461 190.0992889404297 C 50.52587890625 160.9496307373047 52.11259078979492 139.71414184570312 32.9937858581543 120.8995132446289" stroke-width="3.0" fill="none" stroke="rgb(0, 0, 0)" stroke-opacity="0.048448496" stroke-linecap="round" stroke-linejoin="round"/>
    <path d="M 227.02401733398438 51.80329895019531 C 215.59039306640625 14.138273239135742 198.49066162109375 51.357791900634766 191.40309143066406 59.654541015625" stroke-width="3.0" fill="none" stroke="rgb(0, 0, 0)" stroke-opacity="-0.0042963224" stroke-linecap="round" stroke-linejoin="round"/>
    <path d="M 127.77474212646484 42.13098907470703 C 139.63294982910156 73.388671875 127.10619354248047 99.80743408203125 145.150146484375 75.09419250488281" stroke-width="3.0" fill="none" stroke="rgb(0, 0, 0)" stroke-opacity="0.0023929288" stroke-linecap="round" stroke-linejoin="round"/>
    <path d="M 181.93231201171875 101.70132446289062 C 160.51950073242188 126.1576919555664 116.3033676147461 106.33554077148438 106.4485092163086 92.6773910522461" stroke-width="3.0" fill="none" stroke="rgb(0, 0, 0)" stroke-opacity="1.0001918" stroke-linecap="round" stroke-linejoin="round"/>
    <path d="M 108.74159240722656 43.004249572753906 C 88.62715911865234 9.893893241882324 105.19996643066406 8.266660690307617 119.33352661132812 6.4419355392456055" stroke-width="3.0" fill="none" stroke="rgb(0, 0, 0)" stroke-opacity="0.19089581" stroke-linecap="round" stroke-linejoin="round"/>
    <path d="M 158.23895263671875 213.19749450683594 C 161.77590942382812 185.82772827148438 159.5028533935547 154.69664001464844 176.5574951171875 105.7940444946289" stroke-width="3.0" fill="none" stroke="rgb(-1, -1, 1)" stroke-opacity="1.0049276" stroke-linecap="round" stroke-linejoin="round"/>
    <path d="M 133.6855926513672 24.599925994873047 C 146.31568908691406 25.822866439819336 134.82737731933594 23.050294876098633 175.90374755859375 22.948795318603516" stroke-width="3.0" fill="none" stroke="rgb(0, 0, 0)" stroke-opacity="1.0009148" stroke-linecap="round" stroke-linejoin="round"/>
    <path d="M 164.7528076171875 198.70074462890625 C 133.344970703125 224.40487670898438 228.51412963867188 224.2839813232422 186.78189086914062 208.493408203125" stroke-width="3.0" fill="none" stroke="rgb(0, 0, 0)" stroke-opacity="-0.013590395" stroke-linecap="round" stroke-linejoin="round"/>
    <path d="M 165.74400329589844 159.32864379882812 C 136.21786499023438 177.3102569580078 118.72899627685547 172.08273315429688 157.8870849609375 165.52301025390625" stroke-width="3.0" fill="none" stroke="rgb(0, 0, 0)" stroke-opacity="-0.002255368" stroke-linecap="round" stroke-linejoin="round"/>
    <path d="M 138.9940948486328 60.93267059326172 C 154.0356903076172 73.8680419921875 130.1665802001953 60.85133361816406 143.66990661621094 66.4952621459961" stroke-width="3.0" fill="none" stroke="rgb(0, 0, 0)" stroke-opacity="1.0005469" stroke-linecap="round" stroke-linejoin="round"/>
    <path d="M 118.69409942626953 -7.858164310455322 C 122.22557067871094 -8.48290729522705 124.58692932128906 -6.067364692687988 119.5737075805664 -6.953559398651123" stroke-width="3.0" fill="none" stroke="rgb(0, 0, 0)" stroke-opacity="0.93139076" stroke-linecap="round" stroke-linejoin="round"/>
    <path d="M 138.47996520996094 179.2117919921875 C 130.7459716796875 169.674560546875 169.48883056640625 174.730712890625 158.22555541992188 160.32183837890625" stroke-width="3.0" fill="none" stroke="rgb(0, 0, 0)" stroke-opacity="-0.004678924" stroke-linecap="round" stroke-linejoin="round"/>
    <path d="M 66.37918090820312 84.81793212890625 C 26.393125534057617 127.45567321777344 64.31861114501953 185.84820556640625 44.911319732666016 116.83057403564453" stroke-width="3.0" fill="none" stroke="rgb(0, -1, 0)" stroke-opacity="1.0029035" stroke-linecap="round" stroke-linejoin="round"/>
    <path d="M 159.68331909179688 192.18341064453125 C 174.1438751220703 127.95792388916016 169.60409545898438 104.22020721435547 198.6556396484375 96.10326385498047" stroke-width="3.0" fill="none" stroke="rgb(0, 0, 0)" stroke-opacity="1.0003515" stroke-linecap="round" stroke-linejoin="round"/>
    <path d="M 91.9236068725586 170.1889190673828 C 113.63716888427734 164.8214111328125 113.72416687011719 162.549560546875 119.88077545166016 155.61851501464844" stroke-width="3.0" fill="none" stroke="rgb(0, 0, 0)" stroke-opacity="0.06183605" stroke-linecap="round" stroke-linejoin="round"/>
    <path d="M 113.00111389160156 39.384761810302734 C 140.34609985351562 15.361525535583496 171.41600036621094 35.38405227661133 166.38450622558594 25.65113067626953" stroke-width="3.0" fill="none" stroke="rgb(0, 0, 1)" stroke-opacity="0.6299721" stroke-linecap="round" stroke-linejoin="round"/>
    <path d="M 187.93826293945312 66.08035278320312 C 170.7242431640625 72.07434844970703 165.45565795898438 60.6489372253418 215.67120361328125 52.864540100097656" stroke-width="3.0" fill="none" stroke="rgb(0, 0, 0)" stroke-opacity="0.97323895" stroke-linecap="round" stroke-linejoin="round"/>
    <path d="M 128.06394958496094 -8.835553169250488 C 116.39698791503906 -22.281970977783203 101.31603240966797 -31.72783660888672 117.96773529052734 40.8993034362793" stroke-width="3.0" fill="none" stroke="rgb(0, 0, 0)" stroke-opacity="0.9921505" stroke-linecap="round" stroke-linejoin="round"/>
    <path d="M 167.1739959716797 124.16468048095703 C 150.84951782226562 198.27301025390625 160.2642822265625 171.80255126953125 189.11073303222656 170.02035522460938" stroke-width="3.0" fill="none" stroke="rgb(0, 0, 0)" stroke-opacity="-0.00022067492" stroke-linecap="round" stroke-linejoin="round"/>
    <path d="M 104.03497314453125 134.08035278320312 C 101.52986907958984 114.00660705566406 101.47016143798828 120.60843658447266 102.24002075195312 113.40282440185547" stroke-width="3.0" fill="none" stroke="rgb(0, 0, 0)" stroke-opacity="0.05904708" stroke-linecap="round" stroke-linejoin="round"/>
    <path d="M 147.20407104492188 68.67308807373047 C 111.51981353759766 71.43097686767578 99.67658233642578 61.080596923828125 78.28291320800781 60.53426742553711" stroke-width="3.0" fill="none" stroke="rgb(0, -1, 1)" stroke-opacity="1.0054213" stroke-linecap="round" stroke-linejoin="round"/>
    <path d="M 188.132568359375 -5.718354225158691 C 196.6708221435547 -5.163591384887695 204.3513946533203 -4.242447853088379 176.07359313964844 -9.303315162658691" stroke-width="3.0" fill="none" stroke="rgb(0, 0, 0)" stroke-opacity="1.0" stroke-linecap="round" stroke-linejoin="round"/>
    <path d="M 196.377197265625 94.6021499633789 C 215.28201293945312 56.7990837097168 210.67897033691406 72.54595184326172 197.83343505859375 83.95034790039062" stroke-width="3.0" fill="none" stroke="rgb(0, 0, 0)" stroke-opacity="1.001577" stroke-linecap="round" stroke-linejoin="round"/>
    <path d="M 152.24615478515625 67.4914779663086 C 181.60162353515625 74.2379379272461 159.77232360839844 57.700679779052734 142.56890869140625 56.87342071533203" stroke-width="3.0" fill="none" stroke="rgb(0, 0, 0)" stroke-opacity="-0.004144628" stroke-linecap="round" stroke-linejoin="round"/>
    <path d="M -3.378209114074707 145.15789794921875 C -4.63874626159668 136.33668518066406 -5.378180980682373 142.25296020507812 -3.9513309001922607 142.43035888671875" stroke-width="3.0" fill="none" stroke="rgb(0, 0, 0)" stroke-opacity="0.7065205" stroke-linecap="round" stroke-linejoin="round"/>
    <path d="M 119.01410675048828 134.15499877929688 C 118.17437744140625 131.45526123046875 120.61222839355469 136.35829162597656 124.83428192138672 131.82070922851562" stroke-width="3.0" fill="none" stroke="rgb(0, 0, 0)" stroke-opacity="-0.0020369885" stroke-linecap="round" stroke-linejoin="round"/>
    <path d="M 35.86306381225586 177.70399475097656 C 43.448150634765625 188.06121826171875 43.131752014160156 180.23033142089844 76.07276153564453 185.60906982421875" stroke-width="3.0" fill="none" stroke="rgb(0, 0, 0)" stroke-opacity="-0.00021101923" stroke-linecap="round" stroke-linejoin="round"/>
    <path d="M 150.03436279296875 66.24588775634766 C 88.75643920898438 69.4001235961914 162.3757781982422 49.15597915649414 166.2687530517578 83.60025024414062" stroke-width="3.0" fill="none" stroke="rgb(0, -1, 1)" stroke-opacity="1.0027204" stroke-linecap="round" stroke-linejoin="round"/>
    <path d="M 196.21524047851562 -10.583067893981934 C 212.43263244628906 3.7581934928894043 194.40737915039062 -2.6127769947052 168.6986541748047 29.22695541381836" stroke-width="3.0" fill="none" stroke="rgb(0, 0, 0)" stroke-opacity="1.000658" stroke-linecap="round" stroke-linejoin="round"/>
    <path d="M 114.2860107421875 156.86471557617188 C 100.26001739501953 149.24378967285156 106.42488861083984 140.66009521484375 102.76126861572266 133.63037109375" stroke-width="3.0" fill="none" stroke="rgb(0, 0, 0)" stroke-opacity="0.048325934" stroke-linecap="round" stroke-linejoin="round"/>
    <path d="M 123.2837142944336 230.24412536621094 C 158.77972412109375 217.28260803222656 155.9816131591797 212.15621948242188 114.41506958007812 206.2717742919922" stroke-width="3.0" fill="none" stroke="rgb(0, 0, 0)" stroke-opacity="0.4027354" stroke-linecap="round" stroke-linejoin="round"/>
    <path d="M 46.81496810913086 102.04129028320312 C 49.87686538696289 100.09591674804688 21.318035125732422 136.1450653076172 63.238033294677734 155.41041564941406" stroke-width="3.0" fill="none" stroke="rgb(0, 0, 0)" stroke-opacity="0.040435676" stroke-linecap="round" stroke-linejoin="round"/>
    <path d="M 90.68712615966797 169.9920654296875 C 74.59326934814453 167.7262725830078 47.70460510253906 147.44610595703125 41.9357795715332 122.55250549316406" stroke-width="3.0" fill="none" stroke="rgb(0, 0, 1)" stroke-opacity="0.08483659" stroke-linecap="round" stroke-linejoin="round"/>
    <path d="M 75.30758666992188 131.2302703857422 C 65.54779815673828 111.80047607421875 72.7657699584961 96.62272644042969 71.9288101196289 98.30583953857422" stroke-width="3.0" fill="none" stroke="rgb(0, 0, 0)" stroke-opacity="0.0003621003" stroke-linecap="round" stroke-linejoin="round"/>
    <path d="M 31.184045791625977 126.85964965820312 C 56.28593826293945 139.47410583496094 81.32945251464844 114.14261627197266 68.12904357910156 58.90528869628906" stroke-width="3.0" fill="none" stroke="rgb(0, 0, 0)" stroke-opacity="0.0011848821" stroke-linecap="round" stroke-linejoin="round"/>
    <path d="M 92.71222686767578 106.38178253173828 C 91.27140045166016 111.04825592041016 86.1069564819336 100.28897094726562 137.5054168701172 83.52295684814453" stroke-width="3.0" fill="none" stroke="rgb(0, -1, 1)" stroke-opacity="1.004952" stroke-linecap="round" stroke-linejoin="round"/>
    <path d="M 213.4315185546875 -6.551867961883545 C 195.76788330078125 -9.550863265991211 199.87884521484375 -10.923369407653809 199.3126983642578 -9.961016654968262" stroke-width="3.0" fill="none" stroke="rgb(0, 0, 0)" stroke-opacity="0.885776" stroke-linecap="round" stroke-linejoin="round"/>
    <path d="M 155.41099548339844 -3.8000447750091553 C 111.84870147705078 -24.199115753173828 93.3332290649414 -18.578903198242188 96.44005584716797 78.29071807861328" stroke-width="3.0" fill="none" stroke="rgb(0, 0, 0)" stroke-opacity="1.0021331" stroke-linecap="round" stroke-linejoin="round"/>
    <path d="M 205.45005798339844 -18.022926330566406 C 220.02401733398438 -24.458545684814453 227.9724884033203 -13.710092544555664 228.2696990966797 41.408512115478516" stroke-width="3.0" fill="none" stroke="rgb(0, 0, 0)" stroke-opacity="0.34145778" stroke-linecap="round" stroke-linejoin="round"/>
    <path d="M 61.75444412231445 134.587158203125 C 61.2097282409668 140.25437927246094 65.933837890625 123.8181381225586 65.58840942382812 127.23594665527344" stroke-width="3.0" fill="none" stroke="rgb(0, 0, 0)" stroke-opacity="0.046585612" stroke-linecap="round" stroke-linejoin="round"/>
    <path d="M 120.13006591796875 61.822486877441406 C 132.9217071533203 69.05219268798828 127.78144836425781 87.8873062133789 167.23489379882812 72.53177642822266" stroke-width="3.0" fill="none" stroke="rgb(0, 0, 0)" stroke-opacity="-0.0029260959" stroke-linecap="round" stroke-linejoin="round"/>
    <path d="M 36.979034423828125 72.61132049560547 C 15.25941276550293 82.87663269042969 37.10346221923828 70.81529998779297 44.26509475708008 75.94944763183594" stroke-width="3.0" fill="none" stroke="rgb(0, 0, 0)" stroke-opacity="0.13949032" stroke-linecap="round" stroke-linejoin="round"/>
    <path d="M 176.90504455566406 212.89341735839844 C 163.8671875 180.88705444335938 132.63636779785156 180.20953369140625 187.0457763671875 207.33187866210938" stroke-width="3.0" fill="none" stroke="rgb(0, 0, 0)" stroke-opacity="-0.0044602854" stroke-linecap="round" stroke-linejoin="round"/>
    <path d="M 27.15237808227539 73.66561126708984 C 46.22629928588867 50.29324722290039 32.026390075683594 52.15716552734375 60.279537200927734 89.63775634765625" stroke-width="3.0" fill="none" stroke="rgb(-1, 0, 0)" stroke-opacity="0.8448329" stroke-linecap="round" stroke-linejoin="round"/>
    <path d="M 78.6653060913086 76.54598999023438 C 104.68791198730469 88.0777587890625 125.45311737060547 89.38130187988281 81.97852325439453 74.88164520263672" stroke-width="3.0" fill="none" stroke="rgb(0, -1, 1)" stroke-opacity="0.7973545" stroke-linecap="round" stroke-linejoin="round"/>
    <path d="M 73.85871124267578 151.66912841796875 C 59.91902160644531 130.30409240722656 63.84752655029297 126.94049835205078 63.17721939086914 134.6974334716797" stroke-width="3.0" fill="none" stroke="rgb(0, 0, 0)" stroke-opacity="0.009105473" stroke-linecap="round" stroke-linejoin="round"/>
    <path d="M 64.62716674804688 50.934600830078125 C 85.60114288330078 41.63815689086914 74.69149017333984 7.58518648147583 67.99313354492188 36.09089279174805" stroke-width="3.0" fill="none" stroke="rgb(0, 0, 0)" stroke-opacity="-0.0014322074" stroke-linecap="round" stroke-linejoin="round"/>
    <path d="M 202.83677673339844 15.860583305358887 C 203.27365112304688 55.0811882019043 190.2674102783203 17.792945861816406 140.4444122314453 27.953454971313477" stroke-width="3.0" fill="none" stroke="rgb(0, 0, 0)" stroke-opacity="0.98027116" stroke-linecap="round" stroke-linejoin="round"/>
    <path d="M 125.10850524902344 61.99637985229492 C 139.76292419433594 57.57659912109375 173.69100952148438 56.499629974365234 128.5475311279297 67.29313659667969" stroke-width="3.0" fill="none" stroke="rgb(-1, -1, 2)" stroke-opacity="0.99896985" stroke-linecap="round" stroke-linejoin="round"/>
    <path d="M 179.99571228027344 17.674510955810547 C 180.85641479492188 14.240426063537598 174.3594207763672 43.72368240356445 180.96597290039062 66.48609924316406" stroke-width="3.0" fill="none" stroke="rgb(0, 0, 0)" stroke-opacity="0.07141585" stroke-linecap="round" stroke-linejoin="round"/>
    <path d="M 89.12664031982422 204.1442413330078 C 74.445068359375 208.8156280517578 102.70745086669922 204.35536193847656 85.55207824707031 195.82606506347656" stroke-width="3.0" fill="none" stroke="rgb(0, 0, 0)" stroke-opacity="0.21475083" stroke-linecap="round" stroke-linejoin="round"/>
    <path d="M 69.8145980834961 196.1725311279297 C 79.70974731445312 155.44607543945312 83.85478973388672 151.62428283691406 79.83421325683594 157.8341522216797" stroke-width="3.0" fill="none" stroke="rgb(0, 0, 0)" stroke-opacity="0.0017843456" stroke-linecap="round" stroke-linejoin="round"/>
    <path d="M 156.46900939941406 78.9999008178711 C 188.21218872070312 91.27899169921875 208.4855499267578 90.49202728271484 188.1647186279297 105.10987091064453" stroke-width="3.0" fill="none" stroke="rgb(0, 0, 0)" stroke-opacity="0.0050388165" stroke-linecap="round" stroke-linejoin="round"/>
    <path d="M 117.39842224121094 190.6314697265625 C 96.64891815185547 192.15101623535156 60.4710693359375 176.6732177734375 43.206634521484375 141.5478973388672" stroke-width="3.0" fill="none" stroke="rgb(0, 0, 0)" stroke-opacity="0.1480027" stroke-linecap="round" stroke-linejoin="round"/>
    <path d="M 66.88789367675781 172.83729553222656 C 67.23944854736328 175.33453369140625 71.31914520263672 203.70872497558594 67.45991516113281 193.8140869140625" stroke-width="3.0" fill="none" stroke="rgb(0, 0, 0)" stroke-opacity="0.22710393" stroke-linecap="round" stroke-linejoin="round"/>
    <path d="M 191.4863739013672 -16.335010528564453 C 174.56654357910156 51.12897872924805 200.8138885498047 91.77767181396484 194.97756958007812 86.0302963256836" stroke-width="3.0" fill="none" stroke="rgb(0, 0, 0)" stroke-opacity="-0.00014292373" stroke-linecap="round" stroke-linejoin="round"/>
    <path d="M 142.0899658203125 174.35267639160156 C 131.56898498535156 204.1066436767578 137.96481323242188 177.65289306640625 145.05572509765625 148.31268310546875" stroke-width="3.0" fill="none" stroke="rgb(0, 0, 0)" stroke-opacity="0.29884022" stroke-linecap="round" stroke-linejoin="round"/>
    <path d="M 172.2713165283203 117.16400909423828 C 169.9188995361328 103.92593383789062 173.00242614746094 94.93157958984375 175.98167419433594 134.70883178710938" stroke-width="3.0" fill="none" stroke="rgb(0, 0, 2)" stroke-opacity="0.38025466" stroke-linecap="round" stroke-linejoin="round"/>
    <path d="M 53.64006423950195 160.4267120361328 C 75.71772003173828 192.4429473876953 57.19839859008789 176.86453247070312 44.62522888183594 126.41616821289062" stroke-width="3.0" fill="none" stroke="rgb(0, 0, 0)" stroke-opacity="1.0016484" stroke-linecap="round" stroke-linejoin="round"/>
    <path d="M 159.83798217773438 178.32058715820312 C 155.68887329101562 221.35482788085938 185.4965362548828 222.65745544433594 175.55186462402344 190.9264373779297" stroke-width="3.0" fill="none" stroke="rgb(0, 0, 0)" stroke-opacity="-0.005496177" stroke-linecap="round" stroke-linejoin="round"/>
    <path d="M 162.22817993164062 57.83051681518555 C 160.16839599609375 56.669864654541016 205.6439666748047 73.15465545654297 200.39852905273438 93.10393524169922" stroke-width="3.0" fill="none" stroke="rgb(0, 0, 0)" stroke-opacity="-0.0035101105" stroke-linecap="round" stroke-linejoin="round"/>
    <path d="M 148.5602569580078 16.146677017211914 C 155.07899475097656 -19.900733947753906 143.2963104248047 -6.71426248550415 148.88690185546875 18.015445709228516" stroke-width="3.0" fill="none" stroke="rgb(0, 0, 0)" stroke-opacity="-0.0013543875" stroke-linecap="round" stroke-linejoin="round"/>
    <path d="M 158.1810760498047 45.83554458618164 C 155.05592346191406 49.4143180847168 179.43182373046875 75.66645812988281 206.677734375 61.70749282836914" stroke-width="3.0" fill="none" stroke="rgb(0, 0, 0)" stroke-opacity="-0.0021077706" stroke-linecap="round" stroke-linejoin="round"/>
    <path d="M 17.457189559936523 76.07201385498047 C 13.925722122192383 111.91798400878906 40.350711822509766 170.74623107910156 50.06894302368164 149.28590393066406" stroke-width="3.0" fill="none" stroke="rgb(0, 0, 0)" stroke-opacity="-0.0023162193" stroke-linecap="round" stroke-linejoin="round"/>
    <path d="M 65.9749526977539 191.2132568359375 C 35.91554641723633 175.25584411621094 47.02362823486328 186.54676818847656 97.7739486694336 189.5426483154297" stroke-width="3.0" fill="none" stroke="rgb(0, 0, 0)" stroke-opacity="0.20240363" stroke-linecap="round" stroke-linejoin="round"/>
    <path d="M 33.979000091552734 167.3936309814453 C 44.147125244140625 181.8695526123047 42.654361724853516 162.27488708496094 52.25458908081055 171.24574279785156" stroke-width="3.0" fill="none" stroke="rgb(0, 0, 0)" stroke-opacity="-0.0006563539" stroke-linecap="round" stroke-linejoin="round"/>
    <path d="M 169.02540588378906 11.021883010864258 C 164.5140380859375 -15.528727531433105 134.1680145263672 -13.097149848937988 130.7188262939453 -7.0439348220825195" stroke-width="3.0" fill="none" stroke="rgb(0, 0, 0)" stroke-opacity="0.03499432" stroke-linecap="round" stroke-linejoin="round"/>
  </g>
</svg>
