<?xml version="1.0" ?>
<svg xmlns="http://www.w3.org/2000/svg" version="1.1" width="224" height="224">
  <defs/>
  <g>
    <path d="M 145.24795532226562 73.11434173583984 C 140.97032165527344 85.96192169189453 132.47071838378906 116.67362976074219 158.54164123535156 58.56919860839844" stroke-width="3.0" fill="none" stroke="rgb(1, 1, 1)" stroke-opacity="0.97370416" stroke-linecap="round" stroke-linejoin="round"/>
    <path d="M 123.1613540649414 213.58042907714844 C 169.51309204101562 225.9126434326172 123.39532470703125 188.34024047851562 160.3757781982422 193.11328125" stroke-width="3.0" fill="none" stroke="rgb(-2, 0, 1)" stroke-opacity="1.0058529" stroke-linecap="round" stroke-linejoin="round"/>
    <path d="M 103.10516357421875 116.35990142822266 C 100.22024536132812 123.21891021728516 93.77900695800781 104.16529083251953 121.07341766357422 128.5386199951172" stroke-width="3.0" fill="none" stroke="rgb(1, -1, 0)" stroke-opacity="0.27886304" stroke-linecap="round" stroke-linejoin="round"/>
    <path d="M 150.21200561523438 143.11978149414062 C 130.4537353515625 94.07905578613281 145.83583068847656 81.5291519165039 163.78067016601562 29.673234939575195" stroke-width="3.0" fill="none" stroke="rgb(-1, -2, 0)" stroke-opacity="1.0091089" stroke-linecap="round" stroke-linejoin="round"/>
    <path d="M 195.9521942138672 20.890342712402344 C 205.3053741455078 36.447750091552734 205.14633178710938 11.657990455627441 207.05458068847656 14.963142395019531" stroke-width="3.0" fill="none" stroke="rgb(0, 0, 0)" stroke-opacity="0.017154457" stroke-linecap="round" stroke-linejoin="round"/>
    <path d="M 154.49253845214844 107.39985656738281 C 141.8186492919922 82.29779815673828 143.33409118652344 64.18758392333984 172.20884704589844 27.298734664916992" stroke-width="3.0" fill="none" stroke="rgb(0, -1, 1)" stroke-opacity="1.0027978" stroke-linecap="round" stroke-linejoin="round"/>
    <path d="M 81.80265808105469 19.63840103149414 C 121.45780181884766 20.459096908569336 130.6930694580078 -19.998586654663086 144.97601318359375 -2.220008373260498" stroke-width="3.0" fill="none" stroke="rgb(0, 0, 0)" stroke-opacity="-0.004422245" stroke-linecap="round" stroke-linejoin="round"/>
    <path d="M 74.0854721069336 109.19615173339844 C 85.13842010498047 120.34574127197266 88.0489501953125 156.37457275390625 119.8022232055664 158.28424072265625" stroke-width="3.0" fill="none" stroke="rgb(0, 0, 0)" stroke-opacity="0.09201084" stroke-linecap="round" stroke-linejoin="round"/>
    <path d="M 103.63648986816406 117.86577606201172 C 43.73064041137695 98.4214859008789 14.126047134399414 90.5883560180664 36.21388244628906 64.69252014160156" stroke-width="3.0" fill="none" stroke="rgb(0, -1, 1)" stroke-opacity="1.003099" stroke-linecap="round" stroke-linejoin="round"/>
    <path d="M 86.04829406738281 141.49432373046875 C 89.5281982421875 128.0399932861328 77.33665466308594 131.61256408691406 80.74745178222656 129.28680419921875" stroke-width="3.0" fill="none" stroke="rgb(0, 0, 0)" stroke-opacity="0.10066054" stroke-linecap="round" stroke-linejoin="round"/>
    <path d="M 193.36505126953125 51.107608795166016 C 206.8548126220703 34.744468688964844 212.06712341308594 17.32416534423828 168.4158935546875 4.590353012084961" stroke-width="3.0" fill="none" stroke="rgb(0, 0, 0)" stroke-opacity="0.09857555" stroke-linecap="round" stroke-linejoin="round"/>
    <path d="M 100.83494567871094 217.2623748779297 C 46.685787200927734 228.17453002929688 85.73863220214844 216.72552490234375 52.9215202331543 121.4443359375" stroke-width="3.0" fill="none" stroke="rgb(-1, -1, 1)" stroke-opacity="1.0056134" stroke-linecap="round" stroke-linejoin="round"/>
    <path d="M 142.74069213867188 123.88204956054688 C 148.9853973388672 198.0689697265625 170.58604431152344 209.97169494628906 182.37332153320312 100.0847396850586" stroke-width="3.0" fill="none" stroke="rgb(-1, -2, 3)" stroke-opacity="1.0064852" stroke-linecap="round" stroke-linejoin="round"/>
    <path d="M 231.31956481933594 53.40973663330078 C 164.39031982421875 0.372543603181839 240.8636932373047 34.91391372680664 233.62551879882812 82.4296875" stroke-width="3.0" fill="none" stroke="rgb(0, 0, 0)" stroke-opacity="0.5552843" stroke-linecap="round" stroke-linejoin="round"/>
    <path d="M 43.25521469116211 109.08824920654297 C 69.0583724975586 54.715816497802734 69.92691802978516 64.17680358886719 64.15166473388672 62.87160110473633" stroke-width="3.0" fill="none" stroke="rgb(0, 0, 0)" stroke-opacity="0.029232359" stroke-linecap="round" stroke-linejoin="round"/>
    <path d="M 89.81908416748047 26.732206344604492 C 88.56033325195312 32.9465217590332 104.21021270751953 10.697125434875488 76.38552856445312 12.557476997375488" stroke-width="3.0" fill="none" stroke="rgb(-4, -2, 3)" stroke-opacity="1.0067233" stroke-linecap="round" stroke-linejoin="round"/>
    <path d="M 93.15692901611328 74.48204803466797 C 77.56964874267578 65.58796691894531 90.07615661621094 94.1048355102539 76.21593475341797 33.10672378540039" stroke-width="3.0" fill="none" stroke="rgb(-1, 0, 0)" stroke-opacity="0.9955557" stroke-linecap="round" stroke-linejoin="round"/>
    <path d="M 84.09734344482422 94.67554473876953 C 104.78534698486328 132.09039306640625 99.1937484741211 114.2927017211914 101.09080505371094 69.58432006835938" stroke-width="3.0" fill="none" stroke="rgb(0, 0, 0)" stroke-opacity="-0.005085948" stroke-linecap="round" stroke-linejoin="round"/>
    <path d="M 117.48091125488281 164.69046020507812 C 101.7224349975586 99.30247497558594 93.50359344482422 94.4684066772461 131.9423370361328 96.72673034667969" stroke-width="3.0" fill="none" stroke="rgb(0, -2, 1)" stroke-opacity="1.004469" stroke-linecap="round" stroke-linejoin="round"/>
    <path d="M 165.71543884277344 26.92653465270996 C 161.09010314941406 70.67601776123047 129.0487518310547 84.30429077148438 164.5897674560547 110.0257568359375" stroke-width="3.0" fill="none" stroke="rgb(-2, -2, 1)" stroke-opacity="1.002434" stroke-linecap="round" stroke-linejoin="round"/>
    <path d="M 156.82937622070312 120.30020904541016 C 160.44964599609375 64.0389404296875 124.12733459472656 61.445831298828125 151.301025390625 136.861572265625" stroke-width="3.0" fill="none" stroke="rgb(0, -1, 1)" stroke-opacity="1.002857" stroke-linecap="round" stroke-linejoin="round"/>
    <path d="M 151.85704040527344 11.140734672546387 C 173.40921020507812 10.499539375305176 168.94508361816406 56.3583869934082 141.97218322753906 27.031494140625" stroke-width="3.0" fill="none" stroke="rgb(0, 0, 0)" stroke-opacity="-0.0031796582" stroke-linecap="round" stroke-linejoin="round"/>
    <path d="M 204.6122283935547 46.93364334106445 C 230.461669921875 76.80895233154297 217.51145935058594 69.52621459960938 159.0181121826172 113.71312713623047" stroke-width="3.0" fill="none" stroke="rgb(-1, 0, 0)" stroke-opacity="1.0038611" stroke-linecap="round" stroke-linejoin="round"/>
    <path d="M 142.07177734375 154.7056884765625 C 128.69512939453125 94.38456726074219 160.10110473632812 44.504085540771484 141.90432739257812 59.53941345214844" stroke-width="3.0" fill="none" stroke="rgb(0, 0, 1)" stroke-opacity="1.0001662" stroke-linecap="round" stroke-linejoin="round"/>
    <path d="M 143.88232421875 60.21929168701172 C 133.20742797851562 63.621334075927734 113.26371002197266 57.75324249267578 135.8961181640625 61.922672271728516" stroke-width="3.0" fill="none" stroke="rgb(0, 0, 0)" stroke-opacity="-0.0014458727" stroke-linecap="round" stroke-linejoin="round"/>
    <path d="M 116.9715347290039 162.67910766601562 C 95.30014038085938 159.04690551757812 94.77822875976562 181.04136657714844 100.95425415039062 138.05914306640625" stroke-width="3.0" fill="none" stroke="rgb(-1, -2, 1)" stroke-opacity="1.006694" stroke-linecap="round" stroke-linejoin="round"/>
    <path d="M 168.5299835205078 51.169742584228516 C 159.83677673339844 59.97254943847656 163.1225128173828 57.11600875854492 163.73728942871094 46.28981018066406" stroke-width="3.0" fill="none" stroke="rgb(0, 0, 0)" stroke-opacity="0.08373841" stroke-linecap="round" stroke-linejoin="round"/>
    <path d="M 190.45791625976562 60.41969680786133 C 205.81150817871094 98.64562225341797 226.64288330078125 63.7080192565918 202.47438049316406 38.856849670410156" stroke-width="3.0" fill="none" stroke="rgb(0, 0, 0)" stroke-opacity="1.0024576" stroke-linecap="round" stroke-linejoin="round"/>
    <path d="M 159.6078643798828 118.78723907470703 C 164.50245666503906 97.45171356201172 137.5279083251953 91.44998931884766 145.20654296875 62.9872932434082" stroke-width="3.0" fill="none" stroke="rgb(-1, -1, 2)" stroke-opacity="1.0039561" stroke-linecap="round" stroke-linejoin="round"/>
    <path d="M 155.1425018310547 47.216552734375 C 141.83836364746094 3.6794381141662598 131.5497283935547 -4.6061811447143555 121.51239776611328 -8.008346557617188" stroke-width="3.0" fill="none" stroke="rgb(0, 0, 0)" stroke-opacity="0.17452225" stroke-linecap="round" stroke-linejoin="round"/>
    <path d="M 140.03555297851562 140.1914520263672 C 158.33082580566406 125.48529052734375 174.32640075683594 96.23507690429688 154.3238983154297 126.30870056152344" stroke-width="3.0" fill="none" stroke="rgb(0, 0, 0)" stroke-opacity="0.3772158" stroke-linecap="round" stroke-linejoin="round"/>
    <path d="M 180.3955535888672 74.74942016601562 C 206.1438751220703 114.68930053710938 222.05296325683594 133.03614807128906 240.5475616455078 80.69217681884766" stroke-width="3.0" fill="none" stroke="rgb(0, 0, 0)" stroke-opacity="0.008078835" stroke-linecap="round" stroke-linejoin="round"/>
    <path d="M 180.0294647216797 24.105854034423828 C 131.22738647460938 41.660888671875 149.8366241455078 44.310298919677734 143.74703979492188 34.23707962036133" stroke-width="3.0" fill="none" stroke="rgb(-1, 0, 0)" stroke-opacity="0.98227656" stroke-linecap="round" stroke-linejoin="round"/>
    <path d="M 67.62611389160156 206.88650512695312 C 88.72505950927734 214.3549346923828 102.65730285644531 199.57913208007812 99.01844024658203 221.90625" stroke-width="3.0" fill="none" stroke="rgb(-1, 0, 0)" stroke-opacity="1.0020392" stroke-linecap="round" stroke-linejoin="round"/>
    <path d="M 82.63111114501953 159.02650451660156 C 131.0284423828125 170.0583038330078 91.78722381591797 183.9939727783203 72.36371612548828 188.32421875" stroke-width="3.0" fill="none" stroke="rgb(0, 0, 0)" stroke-opacity="-0.002670002" stroke-linecap="round" stroke-linejoin="round"/>
    <path d="M 151.55833435058594 129.37071228027344 C 192.4320526123047 67.0431137084961 180.03492736816406 98.4573745727539 163.33889770507812 198.68321228027344" stroke-width="3.0" fill="none" stroke="rgb(-2, -2, 2)" stroke-opacity="1.0082458" stroke-linecap="round" stroke-linejoin="round"/>
    <path d="M 94.65983581542969 92.44329071044922 C 62.41241455078125 31.803464889526367 122.01559448242188 43.22005081176758 85.61048889160156 120.60887908935547" stroke-width="3.0" fill="none" stroke="rgb(0, 0, 0)" stroke-opacity="1.002232" stroke-linecap="round" stroke-linejoin="round"/>
    <path d="M 165.32762145996094 8.648258209228516 C 217.9112091064453 6.8993353843688965 213.4016571044922 58.878578186035156 238.8966522216797 71.3025894165039" stroke-width="3.0" fill="none" stroke="rgb(-1, 0, 0)" stroke-opacity="1.0035187" stroke-linecap="round" stroke-linejoin="round"/>
    <path d="M 102.15837860107422 104.62512969970703 C 101.96650695800781 155.91477966308594 68.38755798339844 126.39573669433594 76.6724624633789 84.37074279785156" stroke-width="3.0" fill="none" stroke="rgb(0, 0, 0)" stroke-opacity="-0.00046043767" stroke-linecap="round" stroke-linejoin="round"/>
    <path d="M 73.10533142089844 113.6760025024414 C 52.739501953125 82.741943359375 3.178161144256592 106.91834259033203 -7.083609580993652 95.40462493896484" stroke-width="3.0" fill="none" stroke="rgb(0, 0, 0)" stroke-opacity="0.04828378" stroke-linecap="round" stroke-linejoin="round"/>
    <path d="M 143.84877014160156 61.928043365478516 C 195.60459899902344 26.321741104125977 195.71990966796875 9.932744026184082 157.80648803710938 -15.096874237060547" stroke-width="3.0" fill="none" stroke="rgb(0, 0, 0)" stroke-opacity="0.028968813" stroke-linecap="round" stroke-linejoin="round"/>
    <path d="M 130.11158752441406 80.92914581298828 C 64.72203063964844 85.02678680419922 58.13775634765625 47.71159362792969 78.1678237915039 22.992799758911133" stroke-width="3.0" fill="none" stroke="rgb(0, 0, 0)" stroke-opacity="-0.0019628298" stroke-linecap="round" stroke-linejoin="round"/>
    <path d="M 86.94452667236328 41.564388275146484 C 69.09809875488281 31.00108528137207 58.5347785949707 23.018718719482422 82.80992126464844 45.73756408691406" stroke-width="3.0" fill="none" stroke="rgb(-2, -1, 1)" stroke-opacity="1.0065345" stroke-linecap="round" stroke-linejoin="round"/>
    <path d="M 167.32601928710938 103.08294677734375 C 128.6254425048828 151.70745849609375 162.20921325683594 203.9137725830078 163.07998657226562 200.46998596191406" stroke-width="3.0" fill="none" stroke="rgb(0, 0, 0)" stroke-opacity="0.10624419" stroke-linecap="round" stroke-linejoin="round"/>
    <path d="M 135.64649963378906 37.14651870727539 C 117.70368957519531 71.62862396240234 150.20230102539062 101.29403686523438 175.97494506835938 110.40851593017578" stroke-width="3.0" fill="none" stroke="rgb(0, 0, 0)" stroke-opacity="0.009847556" stroke-linecap="round" stroke-linejoin="round"/>
    <path d="M 80.52793884277344 124.0145034790039 C 58.50988006591797 142.1645050048828 35.67546463012695 101.87606811523438 45.02629852294922 133.1354217529297" stroke-width="3.0" fill="none" stroke="rgb(0, 0, 0)" stroke-opacity="-0.0037960436" stroke-linecap="round" stroke-linejoin="round"/>
    <path d="M 91.2170181274414 74.14321899414062 C 70.64974975585938 48.70753860473633 100.93899536132812 63.76439666748047 92.24889373779297 112.45118713378906" stroke-width="3.0" fill="none" stroke="rgb(-1, -1, 2)" stroke-opacity="0.9962835" stroke-linecap="round" stroke-linejoin="round"/>
    <path d="M 150.11465454101562 89.0360336303711 C 153.94566345214844 61.14377975463867 125.5190200805664 59.733943939208984 84.83314514160156 71.81143951416016" stroke-width="3.0" fill="none" stroke="rgb(0, -1, 0)" stroke-opacity="0.5992295" stroke-linecap="round" stroke-linejoin="round"/>
    <path d="M 92.04988861083984 82.9907455444336 C 87.65870666503906 54.75748062133789 73.30296325683594 98.70587921142578 66.86824035644531 117.04426574707031" stroke-width="3.0" fill="none" stroke="rgb(0, 0, 0)" stroke-opacity="-0.0032010993" stroke-linecap="round" stroke-linejoin="round"/>
    <path d="M 50.254844665527344 86.23260498046875 C 69.10774993896484 131.0392608642578 100.28070831298828 95.10663604736328 98.7732162475586 88.2044906616211" stroke-width="3.0" fill="none" stroke="rgb(0, 0, 0)" stroke-opacity="0.050246067" stroke-linecap="round" stroke-linejoin="round"/>
    <path d="M 148.2300567626953 188.94850158691406 C 145.2351531982422 203.39988708496094 157.36277770996094 230.89588928222656 130.5058135986328 234.0947723388672" stroke-width="3.0" fill="none" stroke="rgb(-1, -1, 1)" stroke-opacity="1.0063887" stroke-linecap="round" stroke-linejoin="round"/>
    <path d="M 97.94883728027344 149.65798950195312 C 103.65673828125 100.4512939453125 99.26675415039062 151.0584716796875 145.70558166503906 193.0161895751953" stroke-width="3.0" fill="none" stroke="rgb(-2, -2, 2)" stroke-opacity="1.0122012" stroke-linecap="round" stroke-linejoin="round"/>
    <path d="M 68.37031555175781 222.51316833496094 C 60.79801940917969 148.4737091064453 60.574275970458984 167.05828857421875 68.48497009277344 182.59693908691406" stroke-width="3.0" fill="none" stroke="rgb(-2, -1, 2)" stroke-opacity="1.0088707" stroke-linecap="round" stroke-linejoin="round"/>
    <path d="M 100.04442596435547 120.53398132324219 C 119.68814849853516 146.33688354492188 129.308837890625 183.84971618652344 117.22091674804688 231.4939727783203" stroke-width="3.0" fill="none" stroke="rgb(-3, -2, 3)" stroke-opacity="1.0085917" stroke-linecap="round" stroke-linejoin="round"/>
    <path d="M 143.06024169921875 158.68121337890625 C 159.9241485595703 122.86011505126953 162.45462036132812 64.62606811523438 148.65951538085938 97.59939575195312" stroke-width="3.0" fill="none" stroke="rgb(0, 0, 0)" stroke-opacity="-0.0003133595" stroke-linecap="round" stroke-linejoin="round"/>
    <path d="M 114.68091583251953 230.4155731201172 C 126.20474243164062 182.4676055908203 108.25423431396484 150.2117919921875 93.47672271728516 141.7103271484375" stroke-width="3.0" fill="none" stroke="rgb(-1, 0, 2)" stroke-opacity="1.0044585" stroke-linecap="round" stroke-linejoin="round"/>
    <path d="M 104.45635223388672 38.900794982910156 C 107.0722885131836 38.66136932373047 89.24374389648438 56.938682556152344 64.37922668457031 45.85049057006836" stroke-width="3.0" fill="none" stroke="rgb(0, 0, 0)" stroke-opacity="-0.0041164756" stroke-linecap="round" stroke-linejoin="round"/>
    <path d="M 173.0460662841797 154.00900268554688 C 196.70570373535156 79.20297241210938 181.25680541992188 38.28685760498047 152.79383850097656 71.45729064941406" stroke-width="3.0" fill="none" stroke="rgb(0, 0, 0)" stroke-opacity="0.3477161" stroke-linecap="round" stroke-linejoin="round"/>
    <path d="M 96.58132934570312 22.39573860168457 C 148.30819702148438 -2.334721803665161 144.292236328125 37.72429275512695 173.17259216308594 -2.758617401123047" stroke-width="3.0" fill="none" stroke="rgb(0, 0, 0)" stroke-opacity="1.000053" stroke-linecap="round" stroke-linejoin="round"/>
    <path d="M 91.27687072753906 79.64244842529297 C 80.08980560302734 65.1793441772461 75.98607635498047 25.825695037841797 109.48458862304688 13.334174156188965" stroke-width="3.0" fill="none" stroke="rgb(0, 0, 0)" stroke-opacity="1.0007772" stroke-linecap="round" stroke-linejoin="round"/>
    <path d="M 70.07218933105469 112.3050765991211 C 101.27659606933594 116.70297241210938 107.07601928710938 76.14098358154297 86.30633544921875 67.99105834960938" stroke-width="3.0" fill="none" stroke="rgb(-1, -1, 2)" stroke-opacity="0.9924547" stroke-linecap="round" stroke-linejoin="round"/>
    <path d="M 196.50755310058594 89.02090454101562 C 181.35333251953125 73.0657730102539 171.1805419921875 56.68301010131836 174.81312561035156 53.460208892822266" stroke-width="3.0" fill="none" stroke="rgb(0, 0, 0)" stroke-opacity="0.0023504784" stroke-linecap="round" stroke-linejoin="round"/>
    <path d="M 175.86866760253906 178.5978240966797 C 130.80465698242188 180.9652099609375 136.9949951171875 120.11564636230469 150.7119903564453 129.53738403320312" stroke-width="3.0" fill="none" stroke="rgb(-1, -1, 1)" stroke-opacity="0.9996652" stroke-linecap="round" stroke-linejoin="round"/>
    <path d="M 132.29515075683594 86.58460998535156 C 90.1539535522461 81.53418731689453 93.19212341308594 115.76490783691406 89.07763671875 69.26557922363281" stroke-width="3.0" fill="none" stroke="rgb(0, -1, 1)" stroke-opacity="1.0041927" stroke-linecap="round" stroke-linejoin="round"/>
    <path d="M 162.132568359375 57.420528411865234 C 183.33609008789062 68.02497100830078 192.7860107421875 68.40933990478516 193.28250122070312 43.39771270751953" stroke-width="3.0" fill="none" stroke="rgb(0, 0, 0)" stroke-opacity="-0.0032155477" stroke-linecap="round" stroke-linejoin="round"/>
    <path d="M 101.14163208007812 81.05186462402344 C 134.53543090820312 61.27607727050781 160.33164978027344 94.01578521728516 151.91636657714844 100.69688415527344" stroke-width="3.0" fill="none" stroke="rgb(0, -2, 0)" stroke-opacity="0.96690166" stroke-linecap="round" stroke-linejoin="round"/>
    <path d="M 185.3714599609375 92.47513580322266 C 226.39837646484375 61.9969596862793 236.2777862548828 47.1569709777832 220.5570526123047 56.02337646484375" stroke-width="3.0" fill="none" stroke="rgb(-1, 0, 0)" stroke-opacity="1.0044003" stroke-linecap="round" stroke-linejoin="round"/>
    <path d="M 125.10139465332031 187.40267944335938 C 104.16180419921875 146.75070190429688 102.37122344970703 89.38123321533203 102.88516235351562 146.5634002685547" stroke-width="3.0" fill="none" stroke="rgb(-3, -3, 3)" stroke-opacity="1.0094656" stroke-linecap="round" stroke-linejoin="round"/>
    <path d="M 61.73493194580078 33.53342819213867 C 41.89806365966797 82.39324951171875 90.97212219238281 63.233646392822266 84.13065338134766 60.31283187866211" stroke-width="3.0" fill="none" stroke="rgb(0, 0, 0)" stroke-opacity="-0.002512225" stroke-linecap="round" stroke-linejoin="round"/>
    <path d="M 117.74708557128906 180.1866912841797 C 140.74142456054688 181.28765869140625 149.1774444580078 199.9008331298828 118.28549194335938 195.66665649414062" stroke-width="3.0" fill="none" stroke="rgb(0, 0, 0)" stroke-opacity="0.00082283566" stroke-linecap="round" stroke-linejoin="round"/>
    <path d="M 147.25531005859375 123.06299591064453 C 146.69290161132812 110.74315643310547 127.75194549560547 91.61104583740234 155.3051300048828 91.08931732177734" stroke-width="3.0" fill="none" stroke="rgb(0, -1, 0)" stroke-opacity="0.7486158" stroke-linecap="round" stroke-linejoin="round"/>
    <path d="M 214.71124267578125 117.8145523071289 C 152.48878479003906 128.81497192382812 145.88294982910156 126.26415252685547 144.833740234375 82.69364166259766" stroke-width="3.0" fill="none" stroke="rgb(0, 0, 0)" stroke-opacity="-0.0027992998" stroke-linecap="round" stroke-linejoin="round"/>
    <path d="M 104.88585662841797 19.124406814575195 C 65.05814361572266 18.06576919555664 27.142568588256836 -24.19581413269043 11.375442504882812 -3.1808717250823975" stroke-width="3.0" fill="none" stroke="rgb(0, 0, 0)" stroke-opacity="0.20826165" stroke-linecap="round" stroke-linejoin="round"/>
    <path d="M 99.25420379638672 230.9792938232422 C 83.03861999511719 141.24176025390625 120.55619812011719 156.74839782714844 121.68953704833984 194.5195770263672" stroke-width="3.0" fill="none" stroke="rgb(-2, -2, 0)" stroke-opacity="1.0094045" stroke-linecap="round" stroke-linejoin="round"/>
    <path d="M 109.80853271484375 111.70025634765625 C 144.1825714111328 94.55297088623047 164.00003051757812 147.88743591308594 137.41688537597656 116.72611999511719" stroke-width="3.0" fill="none" stroke="rgb(0, -1, 1)" stroke-opacity="1.0007981" stroke-linecap="round" stroke-linejoin="round"/>
    <path d="M 68.14926147460938 174.4895782470703 C 45.22053527832031 107.36085510253906 27.005943298339844 100.8758544921875 54.87632751464844 150.17803955078125" stroke-width="3.0" fill="none" stroke="rgb(-1, 0, 1)" stroke-opacity="1.0019895" stroke-linecap="round" stroke-linejoin="round"/>
    <path d="M 104.22364044189453 119.05093383789062 C 81.0652084350586 167.30087280273438 123.77470397949219 156.03707885742188 99.20285034179688 131.94239807128906" stroke-width="3.0" fill="none" stroke="rgb(-2, -2, 1)" stroke-opacity="1.0067624" stroke-linecap="round" stroke-linejoin="round"/>
    <path d="M 86.44554901123047 29.91933250427246 C 71.87425994873047 80.15461730957031 92.02299499511719 43.165950775146484 91.88692474365234 25.085386276245117" stroke-width="3.0" fill="none" stroke="rgb(-1, -1, 1)" stroke-opacity="1.0030453" stroke-linecap="round" stroke-linejoin="round"/>
    <path d="M 138.70184326171875 90.00968933105469 C 130.292724609375 42.36080551147461 132.75404357910156 34.468666076660156 145.56307983398438 61.068912506103516" stroke-width="3.0" fill="none" stroke="rgb(0, 0, 0)" stroke-opacity="-0.002642371" stroke-linecap="round" stroke-linejoin="round"/>
    <path d="M 137.4219970703125 25.891693115234375 C 158.29531860351562 44.43057632446289 155.7974395751953 47.852455139160156 150.77017211914062 12.738149642944336" stroke-width="3.0" fill="none" stroke="rgb(0, 0, 0)" stroke-opacity="0.27077007" stroke-linecap="round" stroke-linejoin="round"/>
    <path d="M 153.4148406982422 176.4922637939453 C 149.3514862060547 148.37388610839844 144.4497528076172 139.1156768798828 168.90391540527344 140.08206176757812" stroke-width="3.0" fill="none" stroke="rgb(0, 0, 0)" stroke-opacity="-0.0027265805" stroke-linecap="round" stroke-linejoin="round"/>
    <path d="M 93.70465850830078 66.3836441040039 C 97.8305892944336 30.6407470703125 105.2156982421875 115.94205474853516 101.22758483886719 141.87274169921875" stroke-width="3.0" fill="none" stroke="rgb(-1, -2, 1)" stroke-opacity="1.0016665" stroke-linecap="round" stroke-linejoin="round"/>
    <path d="M -9.312959671020508 83.90068817138672 C -2.1287224292755127 43.13519287109375 -18.500757217407227 68.0983657836914 -1.9354279041290283 34.753543853759766" stroke-width="3.0" fill="none" stroke="rgb(0, 0, 0)" stroke-opacity="0.35467854" stroke-linecap="round" stroke-linejoin="round"/>
    <path d="M 96.0577621459961 22.11957359313965 C 84.08875274658203 43.65899658203125 86.86415100097656 34.38352584838867 86.7175521850586 30.395919799804688" stroke-width="3.0" fill="none" stroke="rgb(0, 0, 0)" stroke-opacity="0.95803285" stroke-linecap="round" stroke-linejoin="round"/>
    <path d="M 84.90880584716797 62.25568389892578 C 88.16098022460938 30.44347381591797 77.58220672607422 38.483848571777344 92.39212036132812 85.0440673828125" stroke-width="3.0" fill="none" stroke="rgb(0, -1, 1)" stroke-opacity="0.99043447" stroke-linecap="round" stroke-linejoin="round"/>
    <path d="M 100.89131164550781 16.2034969329834 C 80.10511016845703 40.07158660888672 66.8519058227539 54.50102615356445 88.46011352539062 37.58583450317383" stroke-width="3.0" fill="none" stroke="rgb(-1, -1, 0)" stroke-opacity="1.002328" stroke-linecap="round" stroke-linejoin="round"/>
    <path d="M 93.14746856689453 200.84703063964844 C 97.47981262207031 112.6645278930664 100.95622253417969 104.63627624511719 96.54255676269531 129.8380889892578" stroke-width="3.0" fill="none" stroke="rgb(0, -1, 0)" stroke-opacity="1.0061182" stroke-linecap="round" stroke-linejoin="round"/>
    <path d="M 108.11784362792969 134.9911651611328 C 102.39399719238281 96.30532836914062 83.89122009277344 70.30274200439453 86.43938446044922 91.91039276123047" stroke-width="3.0" fill="none" stroke="rgb(0, 0, 0)" stroke-opacity="-0.0045331502" stroke-linecap="round" stroke-linejoin="round"/>
    <path d="M 118.7677230834961 199.23341369628906 C 103.28643798828125 120.68622589111328 138.2091827392578 194.00604248046875 169.63966369628906 166.97840881347656" stroke-width="3.0" fill="none" stroke="rgb(0, 0, 0)" stroke-opacity="0.014787521" stroke-linecap="round" stroke-linejoin="round"/>
    <path d="M 1.1632827520370483 73.55160522460938 C 25.261152267456055 107.93572998046875 46.73072052001953 119.56350708007812 62.247886657714844 128.02586364746094" stroke-width="3.0" fill="none" stroke="rgb(0, 0, 0)" stroke-opacity="-0.0007482809" stroke-linecap="round" stroke-linejoin="round"/>
    <path d="M 80.32415771484375 11.491045951843262 C 27.00995445251465 22.110416412353516 21.052734375 56.80154037475586 -1.7694683074951172 87.86754608154297" stroke-width="3.0" fill="none" stroke="rgb(-1, 0, 0)" stroke-opacity="1.0033714" stroke-linecap="round" stroke-linejoin="round"/>
    <path d="M 21.080352783203125 128.69931030273438 C 21.67497444152832 129.5170135498047 19.858598709106445 126.90816497802734 58.89363479614258 128.5582733154297" stroke-width="3.0" fill="none" stroke="rgb(0, 0, 0)" stroke-opacity="-0.002030588" stroke-linecap="round" stroke-linejoin="round"/>
    <path d="M 91.0731430053711 100.34521484375 C 75.78123474121094 128.62474060058594 98.47607421875 160.41856384277344 150.6807098388672 197.4384002685547" stroke-width="3.0" fill="none" stroke="rgb(-2, -1, 2)" stroke-opacity="1.00709" stroke-linecap="round" stroke-linejoin="round"/>
    <path d="M 120.39313507080078 135.82144165039062 C 87.68057250976562 151.9015350341797 83.23681640625 153.3738250732422 95.014892578125 67.57080078125" stroke-width="3.0" fill="none" stroke="rgb(-1, -1, 1)" stroke-opacity="1.001251" stroke-linecap="round" stroke-linejoin="round"/>
    <path d="M 82.13201904296875 115.44448852539062 C 89.97744750976562 112.88980102539062 123.58612823486328 115.34667205810547 93.99031066894531 142.0560302734375" stroke-width="3.0" fill="none" stroke="rgb(-3, -3, 2)" stroke-opacity="0.67598957" stroke-linecap="round" stroke-linejoin="round"/>
    <path d="M 54.334716796875 34.32854080200195 C 88.86290740966797 38.35386657714844 56.300045013427734 36.37346649169922 101.0051498413086 60.49058532714844" stroke-width="3.0" fill="none" stroke="rgb(0, 0, 0)" stroke-opacity="0.3439291" stroke-linecap="round" stroke-linejoin="round"/>
    <path d="M 210.15789794921875 58.422000885009766 C 212.66880798339844 93.41789245605469 174.3837127685547 99.31207275390625 157.1127166748047 121.44766235351562" stroke-width="3.0" fill="none" stroke="rgb(-1, 0, 0)" stroke-opacity="1.0045817" stroke-linecap="round" stroke-linejoin="round"/>
    <path d="M 140.09303283691406 105.23765563964844 C 139.49832153320312 111.22437286376953 136.1345672607422 71.32249450683594 159.75308227539062 67.51898193359375" stroke-width="3.0" fill="none" stroke="rgb(0, -1, 1)" stroke-opacity="1.0006763" stroke-linecap="round" stroke-linejoin="round"/>
    <path d="M 167.02630615234375 36.94746398925781 C 159.9802703857422 45.20915985107422 166.5054931640625 32.022071838378906 167.92330932617188 35.39915466308594" stroke-width="3.0" fill="none" stroke="rgb(0, 0, 0)" stroke-opacity="0.99931836" stroke-linecap="round" stroke-linejoin="round"/>
    <path d="M 86.50652313232422 48.776084899902344 C 95.97373962402344 12.25948715209961 64.26628112792969 4.461122035980225 77.22647094726562 16.615755081176758" stroke-width="3.0" fill="none" stroke="rgb(0, 0, 0)" stroke-opacity="0.021689115" stroke-linecap="round" stroke-linejoin="round"/>
    <path d="M 159.34165954589844 13.563247680664062 C 114.43667602539062 8.163042068481445 85.13691711425781 16.297929763793945 88.41586303710938 32.61082458496094" stroke-width="3.0" fill="none" stroke="rgb(-2, 0, 1)" stroke-opacity="0.9469213" stroke-linecap="round" stroke-linejoin="round"/>
    <path d="M 84.90971374511719 68.84933471679688 C 88.30289459228516 89.74890899658203 99.89559936523438 86.01927947998047 84.43364715576172 68.50733184814453" stroke-width="3.0" fill="none" stroke="rgb(-1, -2, 0)" stroke-opacity="0.9520852" stroke-linecap="round" stroke-linejoin="round"/>
    <path d="M 81.7896957397461 70.35002899169922 C 110.56704711914062 43.008056640625 160.56948852539062 61.540584564208984 145.20420837402344 72.79387664794922" stroke-width="3.0" fill="none" stroke="rgb(0, 0, 0)" stroke-opacity="0.10252169" stroke-linecap="round" stroke-linejoin="round"/>
    <path d="M 84.4929428100586 67.91007995605469 C 95.51232147216797 74.12704467773438 108.0606918334961 87.73046112060547 101.05732727050781 123.48961639404297" stroke-width="3.0" fill="none" stroke="rgb(0, -1, 0)" stroke-opacity="0.98503834" stroke-linecap="round" stroke-linejoin="round"/>
    <path d="M 64.99411010742188 234.7644805908203 C 63.52524948120117 179.8998260498047 63.143123626708984 200.40536499023438 66.9606704711914 242.81008911132812" stroke-width="3.0" fill="none" stroke="rgb(-1, -1, 0)" stroke-opacity="1.0063756" stroke-linecap="round" stroke-linejoin="round"/>
    <path d="M 149.78089904785156 59.25092697143555 C 168.99087524414062 56.57429885864258 167.60687255859375 64.99830627441406 174.12518310546875 58.727516174316406" stroke-width="3.0" fill="none" stroke="rgb(0, 0, 0)" stroke-opacity="0.014482882" stroke-linecap="round" stroke-linejoin="round"/>
    <path d="M 159.948974609375 120.76762390136719 C 152.3563232421875 105.2038803100586 147.4722900390625 71.0705337524414 152.71585083007812 86.57966613769531" stroke-width="3.0" fill="none" stroke="rgb(0, -1, 0)" stroke-opacity="1.0012512" stroke-linecap="round" stroke-linejoin="round"/>
    <path d="M 53.32247543334961 102.0942153930664 C 90.13411712646484 111.67308807373047 80.94580078125 129.03062438964844 3.634650468826294 59.99100875854492" stroke-width="3.0" fill="none" stroke="rgb(-1, 0, 0)" stroke-opacity="1.005656" stroke-linecap="round" stroke-linejoin="round"/>
    <path d="M 188.86558532714844 23.515933990478516 C 160.34918212890625 17.97610855102539 149.47251892089844 39.767032623291016 159.3817596435547 70.19493103027344" stroke-width="3.0" fill="none" stroke="rgb(-1, 0, 0)" stroke-opacity="1.0031004" stroke-linecap="round" stroke-linejoin="round"/>
    <path d="M 139.9282989501953 18.276697158813477 C 112.52828216552734 26.285032272338867 114.45996856689453 12.774500846862793 111.83021545410156 18.272953033447266" stroke-width="3.0" fill="none" stroke="rgb(0, 0, 0)" stroke-opacity="-0.00013572497" stroke-linecap="round" stroke-linejoin="round"/>
    <path d="M 151.16189575195312 96.5402603149414 C 157.93017578125 67.39915466308594 174.1890106201172 38.484310150146484 143.0051727294922 14.266597747802734" stroke-width="3.0" fill="none" stroke="rgb(-1, -1, 0)" stroke-opacity="1.0017861" stroke-linecap="round" stroke-linejoin="round"/>
    <path d="M 170.98281860351562 49.59379196166992 C 161.59324645996094 49.20622253417969 153.06069946289062 53.31269073486328 160.60337829589844 49.95282745361328" stroke-width="3.0" fill="none" stroke="rgb(0, 0, 0)" stroke-opacity="0.030035673" stroke-linecap="round" stroke-linejoin="round"/>
    <path d="M 137.5250244140625 208.4455108642578 C 172.64425659179688 189.959716796875 171.16506958007812 177.5310821533203 176.63821411132812 136.0531005859375" stroke-width="3.0" fill="none" stroke="rgb(-1, -1, 1)" stroke-opacity="1.0025698" stroke-linecap="round" stroke-linejoin="round"/>
    <path d="M 135.4634552001953 128.9580841064453 C 155.7344970703125 107.4875717163086 153.80575561523438 97.8707046508789 142.00222778320312 92.97164916992188" stroke-width="3.0" fill="none" stroke="rgb(0, 0, 0)" stroke-opacity="-0.0042884424" stroke-linecap="round" stroke-linejoin="round"/>
    <path d="M 147.6241455078125 170.62184143066406 C 127.12885284423828 69.72274017333984 150.50079345703125 67.79608917236328 157.64210510253906 133.94190979003906" stroke-width="3.0" fill="none" stroke="rgb(-2, -3, 1)" stroke-opacity="1.0132858" stroke-linecap="round" stroke-linejoin="round"/>
    <path d="M 111.9747543334961 147.6879425048828 C 104.99063873291016 135.714599609375 106.82283020019531 148.4604034423828 126.89688873291016 216.59507751464844" stroke-width="3.0" fill="none" stroke="rgb(-2, -1, 1)" stroke-opacity="1.003987" stroke-linecap="round" stroke-linejoin="round"/>
    <path d="M 147.83860778808594 155.53826904296875 C 150.90701293945312 118.810546875 125.68305206298828 96.12067413330078 143.17111206054688 165.114501953125" stroke-width="3.0" fill="none" stroke="rgb(-1, -1, 2)" stroke-opacity="1.0004817" stroke-linecap="round" stroke-linejoin="round"/>
    <path d="M 153.34637451171875 28.664430618286133 C 168.85804748535156 77.03378295898438 147.07359313964844 74.64384460449219 144.37869262695312 92.0083999633789" stroke-width="3.0" fill="none" stroke="rgb(0, -2, 1)" stroke-opacity="1.0051687" stroke-linecap="round" stroke-linejoin="round"/>
    <path d="M 69.94866180419922 137.14598083496094 C 98.78799438476562 153.34107971191406 99.0398941040039 191.44943237304688 92.67613983154297 158.0811767578125" stroke-width="3.0" fill="none" stroke="rgb(0, 0, 0)" stroke-opacity="-0.004423358" stroke-linecap="round" stroke-linejoin="round"/>
    <path d="M 78.2437744140625 84.99040985107422 C 125.14130401611328 147.14703369140625 89.8580551147461 202.52481079101562 96.09151458740234 142.78375244140625" stroke-width="3.0" fill="none" stroke="rgb(0, 0, 0)" stroke-opacity="-0.0061552157" stroke-linecap="round" stroke-linejoin="round"/>
    <path d="M 132.03106689453125 180.31187438964844 C 114.42298126220703 164.27090454101562 90.24662017822266 124.9581298828125 97.08309173583984 215.6079864501953" stroke-width="3.0" fill="none" stroke="rgb(-2, -2, 2)" stroke-opacity="1.0064867" stroke-linecap="round" stroke-linejoin="round"/>
    <path d="M 94.01570129394531 149.68072509765625 C 115.5657730102539 182.6444854736328 158.73590087890625 169.61102294921875 149.8134765625 223.38275146484375" stroke-width="3.0" fill="none" stroke="rgb(-2, -2, 3)" stroke-opacity="1.0082527" stroke-linecap="round" stroke-linejoin="round"/>
    <path d="M 90.9979476928711 87.73526763916016 C 86.43380737304688 96.87117767333984 93.59873962402344 97.45747375488281 95.54293060302734 80.26884460449219" stroke-width="3.0" fill="none" stroke="rgb(-1, -2, 1)" stroke-opacity="1.0075302" stroke-linecap="round" stroke-linejoin="round"/>
    <path d="M 151.26824951171875 50.035194396972656 C 169.77096557617188 40.31257629394531 200.01568603515625 6.198092460632324 174.88427734375 -0.39465004205703735" stroke-width="3.0" fill="none" stroke="rgb(0, -1, 1)" stroke-opacity="0.07860495" stroke-linecap="round" stroke-linejoin="round"/>
    <path d="M 141.36276245117188 80.68734741210938 C 139.90699768066406 59.54346466064453 141.46812438964844 64.87203216552734 162.6118621826172 47.88409423828125" stroke-width="3.0" fill="none" stroke="rgb(0, -1, 1)" stroke-opacity="0.99890286" stroke-linecap="round" stroke-linejoin="round"/>
    <path d="M 154.77857971191406 75.11677551269531 C 145.7921142578125 101.35803985595703 150.4298858642578 115.34091186523438 165.72848510742188 38.78237533569336" stroke-width="3.0" fill="none" stroke="rgb(0, -1, 1)" stroke-opacity="1.0029385" stroke-linecap="round" stroke-linejoin="round"/>
    <path d="M 87.9564208984375 119.45793914794922 C 27.777790069580078 75.66587829589844 21.949527740478516 79.73446655273438 66.64092254638672 170.92994689941406" stroke-width="3.0" fill="none" stroke="rgb(-3, -1, 1)" stroke-opacity="1.0109655" stroke-linecap="round" stroke-linejoin="round"/>
    <path d="M 99.55964660644531 155.19129943847656 C 124.71919250488281 113.1808090209961 159.45486450195312 152.0243377685547 137.67263793945312 129.3591766357422" stroke-width="3.0" fill="none" stroke="rgb(-2, -2, 3)" stroke-opacity="0.9983" stroke-linecap="round" stroke-linejoin="round"/>
  </g>
</svg>
