<?xml version="1.0" ?>
<svg xmlns="http://www.w3.org/2000/svg" version="1.1" width="224" height="224">
  <defs/>
  <g>
    <path d="M 92.24893188476562 206.301513671875 C 128.2590789794922 218.99205017089844 113.53157806396484 159.84434509277344 132.45751953125 100.54508209228516" stroke-width="3.0" fill="none" stroke="rgb(0, 0, 0)" stroke-opacity="1.0011253" stroke-linecap="round" stroke-linejoin="round"/>
    <path d="M 230.84706115722656 128.82351684570312 C 207.39776611328125 96.07389831542969 164.67539978027344 128.72755432128906 189.05029296875 155.41932678222656" stroke-width="3.0" fill="none" stroke="rgb(0, 0, 0)" stroke-opacity="-0.002356382" stroke-linecap="round" stroke-linejoin="round"/>
    <path d="M 128.56405639648438 107.62223052978516 C 114.73431396484375 164.06622314453125 124.2936019897461 173.32337951660156 134.4407958984375 146.8432159423828" stroke-width="3.0" fill="none" stroke="rgb(0, -1, 1)" stroke-opacity="0.17983897" stroke-linecap="round" stroke-linejoin="round"/>
    <path d="M 62.942604064941406 98.50856018066406 C 15.277501106262207 63.691490173339844 34.46284866333008 78.57203674316406 75.98331451416016 116.76132202148438" stroke-width="3.0" fill="none" stroke="rgb(0, 0, 0)" stroke-opacity="1.0016258" stroke-linecap="round" stroke-linejoin="round"/>
    <path d="M 116.98202514648438 234.7218475341797 C 85.86780548095703 225.603515625 88.08164978027344 235.7314910888672 145.92713928222656 231.5458984375" stroke-width="3.0" fill="none" stroke="rgb(0, 0, 0)" stroke-opacity="1.0" stroke-linecap="round" stroke-linejoin="round"/>
    <path d="M 157.3282470703125 165.11732482910156 C 170.81222534179688 156.90069580078125 167.17465209960938 153.846923828125 179.7054443359375 129.88388061523438" stroke-width="3.0" fill="none" stroke="rgb(0, -1, 0)" stroke-opacity="1.003808" stroke-linecap="round" stroke-linejoin="round"/>
    <path d="M 170.0921173095703 79.82551574707031 C 174.0196075439453 110.482177734375 158.7198028564453 118.7628173828125 154.69985961914062 113.21404266357422" stroke-width="3.0" fill="none" stroke="rgb(0, 0, 0)" stroke-opacity="0.023488248" stroke-linecap="round" stroke-linejoin="round"/>
    <path d="M 180.33653259277344 40.17695999145508 C 177.7341766357422 40.55125427246094 184.83529663085938 43.85411071777344 186.51502990722656 44.660438537597656" stroke-width="3.0" fill="none" stroke="rgb(0, 0, 0)" stroke-opacity="0.063078575" stroke-linecap="round" stroke-linejoin="round"/>
    <path d="M 91.69890594482422 103.92998504638672 C 88.57310485839844 116.43302917480469 91.7601089477539 91.1566390991211 124.55022430419922 104.16806030273438" stroke-width="3.0" fill="none" stroke="rgb(0, 0, 0)" stroke-opacity="1.0031022" stroke-linecap="round" stroke-linejoin="round"/>
    <path d="M 7.996198654174805 90.78209686279297 C 13.357109069824219 93.82230377197266 12.754180908203125 101.97877502441406 45.77799606323242 63.03785705566406" stroke-width="3.0" fill="none" stroke="rgb(0, 0, 0)" stroke-opacity="0.0010564592" stroke-linecap="round" stroke-linejoin="round"/>
    <path d="M 52.20412063598633 165.86447143554688 C 44.14875030517578 158.98419189453125 64.47669982910156 174.35223388671875 38.60896301269531 166.89649963378906" stroke-width="3.0" fill="none" stroke="rgb(0, 0, 0)" stroke-opacity="-0.00023825641" stroke-linecap="round" stroke-linejoin="round"/>
    <path d="M 135.0360870361328 84.56180572509766 C 142.4114532470703 98.24897766113281 138.52206420898438 111.37114715576172 136.7187042236328 90.21671295166016" stroke-width="3.0" fill="none" stroke="rgb(0, 0, 0)" stroke-opacity="0.07701905" stroke-linecap="round" stroke-linejoin="round"/>
    <path d="M 142.69081115722656 57.031742095947266 C 142.49392700195312 116.25236511230469 144.8942413330078 106.98758697509766 127.54263305664062 112.92540740966797" stroke-width="3.0" fill="none" stroke="rgb(0, 0, 0)" stroke-opacity="0.12342256" stroke-linecap="round" stroke-linejoin="round"/>
    <path d="M 119.06366729736328 232.64747619628906 C 127.36913299560547 234.4458770751953 135.80221557617188 227.6105499267578 146.05014038085938 231.27389526367188" stroke-width="3.0" fill="none" stroke="rgb(0, 0, 0)" stroke-opacity="0.2502822" stroke-linecap="round" stroke-linejoin="round"/>
    <path d="M 184.6173858642578 43.55728530883789 C 160.5377655029297 30.847339630126953 160.37051391601562 57.58018112182617 156.3539581298828 58.69416046142578" stroke-width="3.0" fill="none" stroke="rgb(0, 0, 0)" stroke-opacity="0.9980783" stroke-linecap="round" stroke-linejoin="round"/>
    <path d="M 94.4786376953125 73.21451568603516 C 164.20339965820312 72.26153564453125 170.23094177246094 36.099517822265625 122.0421371459961 124.17919158935547" stroke-width="3.0" fill="none" stroke="rgb(0, -1, 0)" stroke-opacity="0.42770368" stroke-linecap="round" stroke-linejoin="round"/>
    <path d="M 153.67706298828125 72.2451171875 C 158.39385986328125 15.37092113494873 145.11532592773438 20.53004264831543 116.06854248046875 21.000751495361328" stroke-width="3.0" fill="none" stroke="rgb(0, -1, 0)" stroke-opacity="1.0037309" stroke-linecap="round" stroke-linejoin="round"/>
    <path d="M 81.77346801757812 126.7940444946289 C 106.14973449707031 84.90509796142578 102.02327728271484 132.8626708984375 27.18906021118164 151.11175537109375" stroke-width="3.0" fill="none" stroke="rgb(0, 0, 0)" stroke-opacity="0.99568623" stroke-linecap="round" stroke-linejoin="round"/>
    <path d="M 115.2459716796875 163.38499450683594 C 160.598876953125 149.52182006835938 146.55245971679688 214.48483276367188 121.12232208251953 193.70826721191406" stroke-width="3.0" fill="none" stroke="rgb(0, 0, 0)" stroke-opacity="-0.00231747" stroke-linecap="round" stroke-linejoin="round"/>
    <path d="M 229.76231384277344 103.42121887207031 C 233.06568908691406 26.675867080688477 244.6177978515625 2.4447436332702637 207.99134826660156 -7.205165863037109" stroke-width="3.0" fill="none" stroke="rgb(0, 0, 0)" stroke-opacity="0.6472467" stroke-linecap="round" stroke-linejoin="round"/>
    <path d="M 151.52427673339844 240.37489318847656 C 150.43870544433594 179.1226806640625 151.58343505859375 157.00289916992188 190.4718017578125 155.13804626464844" stroke-width="3.0" fill="none" stroke="rgb(0, 0, 0)" stroke-opacity="1.0023116" stroke-linecap="round" stroke-linejoin="round"/>
    <path d="M 138.4424285888672 94.81249237060547 C 123.61297607421875 65.57495880126953 164.67889404296875 54.953800201416016 137.2978515625 61.30021667480469" stroke-width="3.0" fill="none" stroke="rgb(1, 0, 0)" stroke-opacity="0.97172946" stroke-linecap="round" stroke-linejoin="round"/>
    <path d="M 123.4098892211914 208.93414306640625 C 109.7044677734375 253.28448486328125 119.00545501708984 216.62442016601562 112.63214874267578 235.79954528808594" stroke-width="3.0" fill="none" stroke="rgb(0, 0, 0)" stroke-opacity="1.0018741" stroke-linecap="round" stroke-linejoin="round"/>
    <path d="M 9.233697891235352 140.2779998779297 C 5.223570823669434 139.28921508789062 -18.32229232788086 159.45352172851562 2.9840614795684814 179.10791015625" stroke-width="3.0" fill="none" stroke="rgb(0, 0, 0)" stroke-opacity="0.045094457" stroke-linecap="round" stroke-linejoin="round"/>
    <path d="M 203.87875366210938 148.8360595703125 C 203.7832489013672 148.45782470703125 162.10787963867188 169.064453125 171.76234436035156 161.0717315673828" stroke-width="3.0" fill="none" stroke="rgb(-1, -1, 1)" stroke-opacity="1.0032068" stroke-linecap="round" stroke-linejoin="round"/>
    <path d="M 203.3408203125 20.323049545288086 C 206.43296813964844 27.79484748840332 225.88616943359375 12.618058204650879 205.0109405517578 -0.7143153548240662" stroke-width="3.0" fill="none" stroke="rgb(0, 0, 0)" stroke-opacity="-0.0032679683" stroke-linecap="round" stroke-linejoin="round"/>
    <path d="M 26.598072052001953 210.6126251220703 C 43.21928405761719 208.6070098876953 28.932451248168945 207.17047119140625 35.18378448486328 204.63629150390625" stroke-width="3.0" fill="none" stroke="rgb(0, 0, 0)" stroke-opacity="-0.0013471703" stroke-linecap="round" stroke-linejoin="round"/>
    <path d="M 34.87184524536133 136.49777221679688 C 32.21202087402344 137.6558074951172 37.150856018066406 128.3632049560547 36.41623306274414 136.85177612304688" stroke-width="3.0" fill="none" stroke="rgb(0, 0, 0)" stroke-opacity="0.023904422" stroke-linecap="round" stroke-linejoin="round"/>
    <path d="M 93.0311279296875 84.84966278076172 C 77.29293060302734 58.93169021606445 89.34944915771484 50.94971466064453 85.14029693603516 53.282432556152344" stroke-width="3.0" fill="none" stroke="rgb(0, 0, 0)" stroke-opacity="0.88562024" stroke-linecap="round" stroke-linejoin="round"/>
    <path d="M 119.86285400390625 156.1969757080078 C 142.3523406982422 136.90484619140625 83.23214721679688 147.98109436035156 91.06925201416016 110.64529418945312" stroke-width="3.0" fill="none" stroke="rgb(0, -1, 1)" stroke-opacity="1.0005252" stroke-linecap="round" stroke-linejoin="round"/>
    <path d="M 77.08480834960938 25.637794494628906 C 47.17565155029297 17.486242294311523 53.58791732788086 37.429744720458984 60.9730224609375 18.030799865722656" stroke-width="3.0" fill="none" stroke="rgb(0, 0, 0)" stroke-opacity="-0.0004802186" stroke-linecap="round" stroke-linejoin="round"/>
    <path d="M 140.6704864501953 215.64584350585938 C 158.3602294921875 222.41903686523438 64.38926696777344 224.40841674804688 98.76151275634766 200.02377319335938" stroke-width="3.0" fill="none" stroke="rgb(0, 0, 0)" stroke-opacity="0.99319226" stroke-linecap="round" stroke-linejoin="round"/>
    <path d="M 93.7791748046875 61.7992057800293 C 94.69294738769531 51.48500061035156 97.91304016113281 68.20103454589844 90.17032623291016 94.8914794921875" stroke-width="3.0" fill="none" stroke="rgb(0, 0, 0)" stroke-opacity="0.9670875" stroke-linecap="round" stroke-linejoin="round"/>
    <path d="M 92.36737823486328 176.4628143310547 C 128.33827209472656 174.72877502441406 123.85045623779297 143.924560546875 141.74656677246094 115.68431091308594" stroke-width="3.0" fill="none" stroke="rgb(0, 0, 0)" stroke-opacity="0.98365724" stroke-linecap="round" stroke-linejoin="round"/>
    <path d="M 96.05715942382812 150.380126953125 C 107.12518310546875 158.82723999023438 143.93048095703125 171.5841827392578 132.67263793945312 107.91936492919922" stroke-width="3.0" fill="none" stroke="rgb(0, -1, 1)" stroke-opacity="0.9988765" stroke-linecap="round" stroke-linejoin="round"/>
    <path d="M 135.05685424804688 49.497493743896484 C 200.44972229003906 24.24278450012207 162.8448028564453 30.12516975402832 194.27157592773438 85.46395111083984" stroke-width="3.0" fill="none" stroke="rgb(0, 0, 0)" stroke-opacity="-0.006292713" stroke-linecap="round" stroke-linejoin="round"/>
    <path d="M 100.27867889404297 85.82814025878906 C 145.64822387695312 72.56697082519531 134.99032592773438 134.97601318359375 151.23475646972656 112.55896759033203" stroke-width="3.0" fill="none" stroke="rgb(0, -1, 1)" stroke-opacity="1.0040654" stroke-linecap="round" stroke-linejoin="round"/>
    <path d="M 78.06754302978516 9.714069366455078 C 75.80057525634766 11.573880195617676 76.30007934570312 15.571440696716309 75.68756866455078 14.938301086425781" stroke-width="3.0" fill="none" stroke="rgb(0, 0, 0)" stroke-opacity="0.0030600028" stroke-linecap="round" stroke-linejoin="round"/>
    <path d="M 84.31877899169922 100.77657318115234 C 84.34635925292969 75.7543716430664 92.29268646240234 98.111328125 93.8637466430664 125.26004791259766" stroke-width="3.0" fill="none" stroke="rgb(0, 0, 0)" stroke-opacity="1.001279" stroke-linecap="round" stroke-linejoin="round"/>
    <path d="M 166.35382080078125 111.98332977294922 C 209.7787322998047 92.65406036376953 244.10035705566406 65.5722885131836 228.7476806640625 12.333273887634277" stroke-width="3.0" fill="none" stroke="rgb(0, 0, 0)" stroke-opacity="1.0002686" stroke-linecap="round" stroke-linejoin="round"/>
    <path d="M 166.06991577148438 207.71420288085938 C 197.46327209472656 162.48812866210938 203.09463500976562 160.72940063476562 199.29588317871094 144.47921752929688" stroke-width="3.0" fill="none" stroke="rgb(0, 0, 0)" stroke-opacity="0.0132588" stroke-linecap="round" stroke-linejoin="round"/>
    <path d="M 91.55522918701172 37.777889251708984 C 69.01123046875 73.76475524902344 117.03272247314453 48.8303337097168 78.38813781738281 112.24609375" stroke-width="3.0" fill="none" stroke="rgb(0, 0, 0)" stroke-opacity="1.0012053" stroke-linecap="round" stroke-linejoin="round"/>
    <path d="M 152.12489318847656 33.95534133911133 C 164.77044677734375 75.94869995117188 150.92959594726562 20.92268180847168 153.09124755859375 48.56079864501953" stroke-width="3.0" fill="none" stroke="rgb(0, 0, 0)" stroke-opacity="0.1763172" stroke-linecap="round" stroke-linejoin="round"/>
    <path d="M 100.05046844482422 181.56674194335938 C 110.37174987792969 119.3634033203125 131.6457061767578 131.83816528320312 149.66725158691406 150.90191650390625" stroke-width="3.0" fill="none" stroke="rgb(0, 0, 0)" stroke-opacity="-0.0015539877" stroke-linecap="round" stroke-linejoin="round"/>
    <path d="M 145.87049865722656 27.173887252807617 C 150.6794891357422 34.86466979980469 165.4897918701172 22.240442276000977 162.60951232910156 23.66596221923828" stroke-width="3.0" fill="none" stroke="rgb(0, 0, 0)" stroke-opacity="0.045912575" stroke-linecap="round" stroke-linejoin="round"/>
    <path d="M 40.94321060180664 190.36431884765625 C 34.924415588378906 188.29208374023438 30.993228912353516 186.2856903076172 36.699249267578125 188.59376525878906" stroke-width="3.0" fill="none" stroke="rgb(0, 0, 0)" stroke-opacity="0.000479675" stroke-linecap="round" stroke-linejoin="round"/>
    <path d="M 172.20787048339844 208.73851013183594 C 169.7723846435547 209.64381408691406 214.9124298095703 227.16949462890625 168.4589385986328 219.29945373535156" stroke-width="3.0" fill="none" stroke="rgb(0, 0, 0)" stroke-opacity="1.0020028" stroke-linecap="round" stroke-linejoin="round"/>
    <path d="M 97.83140563964844 138.46726989746094 C 81.35137939453125 110.21000671386719 115.86261749267578 109.83911895751953 131.43600463867188 131.252685546875" stroke-width="3.0" fill="none" stroke="rgb(0, -1, 1)" stroke-opacity="0.96090823" stroke-linecap="round" stroke-linejoin="round"/>
    <path d="M 152.32720947265625 73.13556671142578 C 133.5832977294922 94.70004272460938 112.72566223144531 134.1482696533203 177.46505737304688 104.45984649658203" stroke-width="3.0" fill="none" stroke="rgb(0, 0, 0)" stroke-opacity="0.9950548" stroke-linecap="round" stroke-linejoin="round"/>
    <path d="M 30.833263397216797 186.03839111328125 C 26.01372528076172 184.0776824951172 26.738487243652344 186.25881958007812 27.277423858642578 184.14479064941406" stroke-width="3.0" fill="none" stroke="rgb(0, 0, 0)" stroke-opacity="0.00334735" stroke-linecap="round" stroke-linejoin="round"/>
    <path d="M 18.021629333496094 -6.9261579513549805 C -2.6195826530456543 2.2060487270355225 -10.080948829650879 58.927955627441406 7.116901397705078 63.25338363647461" stroke-width="3.0" fill="none" stroke="rgb(0, 0, 0)" stroke-opacity="0.100832805" stroke-linecap="round" stroke-linejoin="round"/>
    <path d="M 153.2891082763672 30.972919464111328 C 192.15208435058594 4.190789699554443 225.3151397705078 70.10841369628906 219.6352996826172 72.82770538330078" stroke-width="3.0" fill="none" stroke="rgb(-1, -1, 1)" stroke-opacity="1.0060499" stroke-linecap="round" stroke-linejoin="round"/>
    <path d="M 32.06685256958008 80.5440902709961 C 61.38998031616211 19.03773307800293 88.85958862304688 23.443023681640625 98.706298828125 32.31031036376953" stroke-width="3.0" fill="none" stroke="rgb(0, 0, 0)" stroke-opacity="1.0017595" stroke-linecap="round" stroke-linejoin="round"/>
    <path d="M 173.7614288330078 159.2223663330078 C 187.45201110839844 196.03306579589844 152.6100311279297 292.4829406738281 182.45651245117188 156.96839904785156" stroke-width="3.0" fill="none" stroke="rgb(0, -1, 1)" stroke-opacity="1.0034958" stroke-linecap="round" stroke-linejoin="round"/>
    <path d="M 200.74578857421875 18.24794578552246 C 200.72232055664062 17.544334411621094 199.4356689453125 16.107316970825195 203.0592041015625 25.076934814453125" stroke-width="3.0" fill="none" stroke="rgb(0, 0, 0)" stroke-opacity="-0.005922479" stroke-linecap="round" stroke-linejoin="round"/>
    <path d="M 193.8735809326172 208.4904327392578 C 217.89183044433594 104.86882781982422 256.0889587402344 80.73806762695312 233.4987335205078 120.25749969482422" stroke-width="3.0" fill="none" stroke="rgb(0, 0, 0)" stroke-opacity="1.001388" stroke-linecap="round" stroke-linejoin="round"/>
    <path d="M 197.8099365234375 233.84996032714844 C 185.80880737304688 229.13803100585938 186.31239318847656 228.8068389892578 186.9020233154297 227.87269592285156" stroke-width="3.0" fill="none" stroke="rgb(0, 0, 0)" stroke-opacity="0.8962014" stroke-linecap="round" stroke-linejoin="round"/>
    <path d="M 186.17160034179688 220.377197265625 C 195.13253784179688 227.53782653808594 210.37828063964844 218.7758026123047 163.22348022460938 160.94842529296875" stroke-width="3.0" fill="none" stroke="rgb(0, 0, 0)" stroke-opacity="0.9987682" stroke-linecap="round" stroke-linejoin="round"/>
    <path d="M 76.29334259033203 117.80825805664062 C 71.06195068359375 97.22154998779297 87.35661315917969 124.265625 36.886817932128906 144.50025939941406" stroke-width="3.0" fill="none" stroke="rgb(0, 0, 0)" stroke-opacity="0.995493" stroke-linecap="round" stroke-linejoin="round"/>
    <path d="M 123.71485137939453 21.174734115600586 C 69.17398071289062 26.11805534362793 106.24702453613281 48.77130126953125 85.1063003540039 42.11282730102539" stroke-width="3.0" fill="none" stroke="rgb(0, 0, 0)" stroke-opacity="0.9971757" stroke-linecap="round" stroke-linejoin="round"/>
    <path d="M 226.41859436035156 184.61651611328125 C 223.28343200683594 185.0386505126953 231.99618530273438 183.53208923339844 231.1176300048828 167.28358459472656" stroke-width="3.0" fill="none" stroke="rgb(0, 0, 0)" stroke-opacity="0.57129794" stroke-linecap="round" stroke-linejoin="round"/>
    <path d="M 200.08932495117188 66.11564636230469 C 231.85353088378906 94.7428970336914 235.9837646484375 143.3785400390625 168.15943908691406 167.63864135742188" stroke-width="3.0" fill="none" stroke="rgb(0, 0, 0)" stroke-opacity="0.98584026" stroke-linecap="round" stroke-linejoin="round"/>
    <path d="M 171.11480712890625 17.652387619018555 C 170.06480407714844 27.94806480407715 148.4104766845703 21.6005859375 154.14222717285156 60.063751220703125" stroke-width="3.0" fill="none" stroke="rgb(0, 0, 0)" stroke-opacity="0.060228717" stroke-linecap="round" stroke-linejoin="round"/>
    <path d="M 63.61740493774414 34.75428009033203 C 77.99225616455078 19.721363067626953 93.96659851074219 27.845184326171875 101.6248550415039 28.15205192565918" stroke-width="3.0" fill="none" stroke="rgb(1, 0, 0)" stroke-opacity="0.770134" stroke-linecap="round" stroke-linejoin="round"/>
    <path d="M 29.08792495727539 191.740234375 C 32.88472366333008 188.45343017578125 39.380279541015625 200.44044494628906 33.82567596435547 202.30821228027344" stroke-width="3.0" fill="none" stroke="rgb(0, 0, 0)" stroke-opacity="-0.000423619" stroke-linecap="round" stroke-linejoin="round"/>
    <path d="M 181.15750122070312 77.32280731201172 C 202.41151428222656 100.30591583251953 173.92066955566406 131.87771606445312 157.65232849121094 162.7051239013672" stroke-width="3.0" fill="none" stroke="rgb(0, -1, 0)" stroke-opacity="1.0050008" stroke-linecap="round" stroke-linejoin="round"/>
    <path d="M 101.50413513183594 223.75039672851562 C 95.70287322998047 132.8028564453125 102.4635238647461 129.9415740966797 88.52381896972656 94.93473052978516" stroke-width="3.0" fill="none" stroke="rgb(0, 0, 1)" stroke-opacity="1.0004724" stroke-linecap="round" stroke-linejoin="round"/>
    <path d="M 123.73900604248047 134.526123046875 C 120.24571228027344 234.6071014404297 112.68842315673828 200.38473510742188 139.4456024169922 213.2439422607422" stroke-width="3.0" fill="none" stroke="rgb(0, -1, 0)" stroke-opacity="1.0034119" stroke-linecap="round" stroke-linejoin="round"/>
    <path d="M 232.999755859375 131.10556030273438 C 213.5960693359375 171.23565673828125 196.4497833251953 167.04368591308594 222.20689392089844 154.50897216796875" stroke-width="3.0" fill="none" stroke="rgb(0, 0, 0)" stroke-opacity="0.017088259" stroke-linecap="round" stroke-linejoin="round"/>
    <path d="M 153.84555053710938 39.91872787475586 C 169.3172607421875 89.50292205810547 125.37014770507812 83.85316467285156 127.1535415649414 158.60142517089844" stroke-width="3.0" fill="none" stroke="rgb(0, -1, 0)" stroke-opacity="1.0021316" stroke-linecap="round" stroke-linejoin="round"/>
    <path d="M 158.12493896484375 95.10358428955078 C 170.76898193359375 119.93785858154297 132.4362030029297 120.66890716552734 135.02569580078125 101.47105407714844" stroke-width="3.0" fill="none" stroke="rgb(-1, -1, 0)" stroke-opacity="1.0020449" stroke-linecap="round" stroke-linejoin="round"/>
    <path d="M 4.597605228424072 77.43464660644531 C -11.642362594604492 60.96306228637695 2.9951016902923584 28.562685012817383 19.907569885253906 53.10421371459961" stroke-width="3.0" fill="none" stroke="rgb(0, 0, 0)" stroke-opacity="0.04440888" stroke-linecap="round" stroke-linejoin="round"/>
    <path d="M 114.75521850585938 101.71726989746094 C 76.73993682861328 98.58622741699219 98.71044921875 129.80621337890625 91.87742614746094 108.3572769165039" stroke-width="3.0" fill="none" stroke="rgb(0, -1, 1)" stroke-opacity="0.88931865" stroke-linecap="round" stroke-linejoin="round"/>
    <path d="M 176.18597412109375 139.3766326904297 C 145.267822265625 174.03726196289062 147.4344940185547 202.0643310546875 149.41526794433594 236.123046875" stroke-width="3.0" fill="none" stroke="rgb(0, 0, 0)" stroke-opacity="1.002044" stroke-linecap="round" stroke-linejoin="round"/>
    <path d="M 131.1041717529297 96.52141571044922 C 132.8159637451172 116.28593444824219 131.3920440673828 159.08851623535156 124.99378967285156 219.76596069335938" stroke-width="3.0" fill="none" stroke="rgb(0, -1, 1)" stroke-opacity="1.0013288" stroke-linecap="round" stroke-linejoin="round"/>
    <path d="M 35.89191818237305 185.39175415039062 C 35.13261032104492 182.6149139404297 39.512149810791016 184.79275512695312 37.15800857543945 184.26495361328125" stroke-width="3.0" fill="none" stroke="rgb(0, 0, 0)" stroke-opacity="0.00024284804" stroke-linecap="round" stroke-linejoin="round"/>
    <path d="M 86.43895721435547 101.50172424316406 C 96.671875 51.6297721862793 94.9294662475586 66.40579223632812 83.89652252197266 65.48657989501953" stroke-width="3.0" fill="none" stroke="rgb(0, 0, 0)" stroke-opacity="1.0009626" stroke-linecap="round" stroke-linejoin="round"/>
    <path d="M 84.19707489013672 42.96955490112305 C 100.53508758544922 98.4465560913086 68.13182067871094 111.9099349975586 72.77682495117188 121.95992279052734" stroke-width="3.0" fill="none" stroke="rgb(0, 0, 0)" stroke-opacity="0.9526099" stroke-linecap="round" stroke-linejoin="round"/>
    <path d="M 95.48802947998047 116.58474731445312 C 92.89404296875 72.69430541992188 86.93655395507812 122.54771423339844 56.36567687988281 133.29153442382812" stroke-width="3.0" fill="none" stroke="rgb(0, 0, 0)" stroke-opacity="1.0026304" stroke-linecap="round" stroke-linejoin="round"/>
    <path d="M 145.69732666015625 84.35948181152344 C 130.78570556640625 104.6715087890625 134.58218383789062 160.7454833984375 142.50157165527344 90.36177825927734" stroke-width="3.0" fill="none" stroke="rgb(0, 0, 1)" stroke-opacity="1.0016555" stroke-linecap="round" stroke-linejoin="round"/>
    <path d="M 91.70742797851562 73.56307983398438 C 90.2614517211914 96.66059875488281 98.95564270019531 109.563232421875 71.55195617675781 132.04701232910156" stroke-width="3.0" fill="none" stroke="rgb(0, 0, 0)" stroke-opacity="1.0006846" stroke-linecap="round" stroke-linejoin="round"/>
    <path d="M 202.43310546875 67.52057647705078 C 160.454833984375 29.04128646850586 174.9807586669922 17.185075759887695 198.7789764404297 27.576860427856445" stroke-width="3.0" fill="none" stroke="rgb(0, 0, 0)" stroke-opacity="-0.0008370441" stroke-linecap="round" stroke-linejoin="round"/>
    <path d="M 194.14747619628906 75.9217758178711 C 178.78582763671875 135.50830078125 186.7393798828125 158.59005737304688 186.3044891357422 116.46463012695312" stroke-width="3.0" fill="none" stroke="rgb(0, 0, 0)" stroke-opacity="-0.0013700626" stroke-linecap="round" stroke-linejoin="round"/>
    <path d="M 148.1728057861328 29.40835952758789 C 119.60669708251953 1.3989592790603638 71.98161315917969 30.724382400512695 92.18095397949219 88.54141235351562" stroke-width="3.0" fill="none" stroke="rgb(0, 0, 0)" stroke-opacity="1.002904" stroke-linecap="round" stroke-linejoin="round"/>
  </g>
</svg>
