<?xml version="1.0" ?>
<svg xmlns="http://www.w3.org/2000/svg" version="1.1" width="224" height="224">
  <defs/>
  <g>
    <path d="M 100.20523834228516 199.7783660888672 C 101.63998413085938 192.6765594482422 155.040283203125 193.16055297851562 244.2891845703125 203.25363159179688" stroke-width="30.66783332824707" fill="none" stroke="rgb(134, 123, 80)" stroke-opacity="0.9335113" stroke-linecap="round" stroke-linejoin="round"/>
    <path d="M 105.53901672363281 124.41796875 C 109.56900787353516 154.12551879882812 105.36856842041016 104.30062103271484 113.84895324707031 148.64060974121094" stroke-width="6.927966594696045" fill="none" stroke="rgb(239, 93, 14)" stroke-opacity="0.77461004" stroke-linecap="round" stroke-linejoin="round"/>
    <path d="M 151.19300842285156 90.89328002929688 C 151.57369995117188 56.372657775878906 124.51871490478516 90.43435668945312 125.09638214111328 78.57711029052734" stroke-width="6.9574480056762695" fill="none" stroke="rgb(62, 79, 46)" stroke-opacity="0.7754694" stroke-linecap="round" stroke-linejoin="round"/>
    <path d="M 217.6930694580078 60.24458694458008 C 211.92901611328125 46.6427001953125 162.53054809570312 39.9258918762207 191.81536865234375 74.38011169433594" stroke-width="5.158016204833984" fill="none" stroke="rgb(211, 104, 15)" stroke-opacity="0.63444173" stroke-linecap="round" stroke-linejoin="round"/>
    <path d="M 93.56485748291016 98.33312225341797 C 90.84369659423828 122.34978485107422 76.08397674560547 127.92842864990234 84.07752990722656 125.16264343261719" stroke-width="7.267851829528809" fill="none" stroke="rgb(93, 20, -2)" stroke-opacity="0.99957305" stroke-linecap="round" stroke-linejoin="round"/>
    <path d="M 97.2741470336914 120.89551544189453 C 82.27787780761719 164.19369506835938 109.64360046386719 128.901123046875 97.90026092529297 151.38662719726562" stroke-width="10.488690376281738" fill="none" stroke="rgb(154, 44, 39)" stroke-opacity="0.6474687" stroke-linecap="round" stroke-linejoin="round"/>
    <path d="M 184.79318237304688 137.58279418945312 C 183.20594787597656 128.17568969726562 172.05247497558594 133.6855010986328 184.61180114746094 146.13986206054688" stroke-width="2.167693853378296" fill="none" stroke="rgb(42, 0, -1)" stroke-opacity="1.0006415" stroke-linecap="round" stroke-linejoin="round"/>
    <path d="M 34.79315948486328 119.42716217041016 C 108.77252197265625 125.37310791015625 -85.70305633544922 135.4271240234375 72.48008728027344 122.17263793945312" stroke-width="3.099465847015381" fill="none" stroke="rgb(163, 166, 202)" stroke-opacity="0.14392483" stroke-linecap="round" stroke-linejoin="round"/>
    <path d="M 186.9602508544922 145.07763671875 C 289.15380859375 141.275146484375 182.73915100097656 80.0314712524414 219.2571563720703 169.49664306640625" stroke-width="2.584493398666382" fill="none" stroke="rgb(228, 217, 178)" stroke-opacity="1.0034336" stroke-linecap="round" stroke-linejoin="round"/>
    <path d="M 99.5950698852539 177.31983947753906 C 223.5009002685547 179.09295654296875 66.22528839111328 177.50607299804688 183.58079528808594 179.91798400878906" stroke-width="26.23052978515625" fill="none" stroke="rgb(224, 202, 127)" stroke-opacity="0.91814905" stroke-linecap="round" stroke-linejoin="round"/>
    <path d="M 104.87380981445312 70.64573669433594 C 150.83526611328125 2.6721420288085938 122.05232238769531 27.997669219970703 122.0557861328125 73.2521743774414" stroke-width="10.439885139465332" fill="none" stroke="rgb(122, 195, 89)" stroke-opacity="0.042307295" stroke-linecap="round" stroke-linejoin="round"/>
    <path d="M 85.4710922241211 126.78195190429688 C 101.68892669677734 162.32325744628906 76.52680206298828 112.37194061279297 91.06527709960938 171.5615692138672" stroke-width="9.950193405151367" fill="none" stroke="rgb(92, 30, 6)" stroke-opacity="0.9399988" stroke-linecap="round" stroke-linejoin="round"/>
    <path d="M 34.906917572021484 230.51583862304688 C 30.792694091796875 229.10736083984375 18.748878479003906 226.61363220214844 29.68198013305664 231.74728393554688" stroke-width="2.0" fill="none" stroke="rgb(56, 56, 30)" stroke-opacity="0.7415063" stroke-linecap="round" stroke-linejoin="round"/>
    <path d="M 12.18493938446045 196.2780303955078 C 115.68108367919922 192.6121063232422 69.38705444335938 196.38162231445312 95.8171157836914 189.4050750732422" stroke-width="15.3799467086792" fill="none" stroke="rgb(12, 56, 136)" stroke-opacity="0.29711357" stroke-linecap="round" stroke-linejoin="round"/>
    <path d="M 127.27808380126953 96.3463134765625 C 144.02268981933594 83.4399642944336 158.17526245117188 108.73120880126953 154.8387451171875 88.2353286743164" stroke-width="4.573273181915283" fill="none" stroke="rgb(5, 44, 76)" stroke-opacity="0.8637067" stroke-linecap="round" stroke-linejoin="round"/>
    <path d="M 81.00586700439453 101.6380844116211 C 114.85590362548828 79.12522888183594 106.5089340209961 66.79714965820312 123.13819122314453 68.99493408203125" stroke-width="1.9383882284164429" fill="none" stroke="rgb(84, 51, -2)" stroke-opacity="0.84921575" stroke-linecap="round" stroke-linejoin="round"/>
    <path d="M 57.164306640625 2.500131607055664 C -121.12003326416016 -7.775408744812012 -44.221839904785156 6.034409523010254 177.2848358154297 4.519269943237305" stroke-width="11.88475513458252" fill="none" stroke="rgb(24, 43, 1)" stroke-opacity="0.90719414" stroke-linecap="round" stroke-linejoin="round"/>
    <path d="M 104.02133178710938 119.18253326416016 C 129.8883056640625 103.38746643066406 111.44873046875 117.03091430664062 113.26188659667969 105.0125503540039" stroke-width="7.655549049377441" fill="none" stroke="rgb(61, 0, -1)" stroke-opacity="1.0016274" stroke-linecap="round" stroke-linejoin="round"/>
    <path d="M 166.55850219726562 49.709938049316406 C 172.81216430664062 127.64497375488281 175.49313354492188 61.17333221435547 169.5356903076172 49.2209587097168" stroke-width="7.175119876861572" fill="none" stroke="rgb(9, 29, 37)" stroke-opacity="0.91791517" stroke-linecap="round" stroke-linejoin="round"/>
    <path d="M 119.02417755126953 72.06394958496094 C 91.1567153930664 111.87591552734375 99.3690414428711 133.40997314453125 120.79718780517578 93.55384826660156" stroke-width="8.325118064880371" fill="none" stroke="rgb(83, 71, 52)" stroke-opacity="0.9851091" stroke-linecap="round" stroke-linejoin="round"/>
    <path d="M 118.85137176513672 85.28438568115234 C 103.10291290283203 110.2535629272461 76.2356948852539 118.42879486083984 105.44560241699219 124.15115356445312" stroke-width="18.694040298461914" fill="none" stroke="rgb(39, 3, -1)" stroke-opacity="0.57161546" stroke-linecap="round" stroke-linejoin="round"/>
    <path d="M 194.62094116210938 56.95955276489258 C 215.19027709960938 95.92146301269531 170.1373291015625 71.28887939453125 213.65049743652344 81.51520538330078" stroke-width="9.905511856079102" fill="none" stroke="rgb(110, 77, 14)" stroke-opacity="0.8903146" stroke-linecap="round" stroke-linejoin="round"/>
    <path d="M 84.11670684814453 84.58853149414062 C 116.27835845947266 92.31108093261719 87.22447204589844 80.35432434082031 81.22110748291016 77.23394012451172" stroke-width="1.9445370435714722" fill="none" stroke="rgb(69, 38, 3)" stroke-opacity="0.3031792" stroke-linecap="round" stroke-linejoin="round"/>
    <path d="M 97.406494140625 178.30860900878906 C 106.70321655273438 148.27883911132812 90.41055297851562 181.07211303710938 106.49130249023438 157.60716247558594" stroke-width="19.09355926513672" fill="none" stroke="rgb(206, 70, 8)" stroke-opacity="0.8279621" stroke-linecap="round" stroke-linejoin="round"/>
    <path d="M 223.09474182128906 28.247852325439453 C -159.4205780029297 25.171833038330078 -5.947739601135254 38.5743293762207 87.13595581054688 2.5564639568328857" stroke-width="38.306339263916016" fill="none" stroke="rgb(83, 113, 142)" stroke-opacity="0.61245334" stroke-linecap="round" stroke-linejoin="round"/>
    <path d="M 169.80685424804688 49.00551223754883 C 145.47296142578125 77.87960052490234 192.9184112548828 75.8189697265625 165.30023193359375 56.80675506591797" stroke-width="11.834294319152832" fill="none" stroke="rgb(171, 65, 27)" stroke-opacity="0.81962144" stroke-linecap="round" stroke-linejoin="round"/>
    <path d="M 114.03778076171875 108.96488952636719 C 116.02525329589844 87.36685943603516 129.05072021484375 91.69656372070312 125.74665069580078 79.6812744140625" stroke-width="6.969821453094482" fill="none" stroke="rgb(98, 29, -1)" stroke-opacity="0.74348074" stroke-linecap="round" stroke-linejoin="round"/>
    <path d="M 200.2681427001953 143.39295959472656 C 238.9709930419922 197.369384765625 118.00077056884766 151.61573791503906 224.75059509277344 155.3794403076172" stroke-width="7.314561367034912" fill="none" stroke="rgb(113, 85, -1)" stroke-opacity="0.3636359" stroke-linecap="round" stroke-linejoin="round"/>
    <path d="M 169.2196502685547 108.38935852050781 C 139.39743041992188 80.48269653320312 134.3566131591797 94.90831756591797 115.55398559570312 107.61566162109375" stroke-width="8.024434089660645" fill="none" stroke="rgb(62, 18, 0)" stroke-opacity="0.72808915" stroke-linecap="round" stroke-linejoin="round"/>
    <path d="M 33.90293502807617 8.016290664672852 C -60.076202392578125 12.497973442077637 -63.27800750732422 10.36207103729248 7.883487701416016 4.544356346130371" stroke-width="4.72404146194458" fill="none" stroke="rgb(55, 53, -1)" stroke-opacity="0.44131252" stroke-linecap="round" stroke-linejoin="round"/>
    <path d="M 155.32167053222656 90.50077056884766 C 192.2782440185547 152.96160888671875 167.52056884765625 129.343505859375 179.76634216308594 154.5128936767578" stroke-width="4.778625011444092" fill="none" stroke="rgb(56, 21, 0)" stroke-opacity="0.99103874" stroke-linecap="round" stroke-linejoin="round"/>
    <path d="M -6.408108711242676 178.994140625 C 109.77371215820312 186.84359741210938 152.23745727539062 161.3663787841797 -3.496797800064087 167.13613891601562" stroke-width="7.500710964202881" fill="none" stroke="rgb(45, 102, 127)" stroke-opacity="0.1967983" stroke-linecap="round" stroke-linejoin="round"/>
    <path d="M 198.82374572753906 61.354095458984375 C 187.37039184570312 41.1810188293457 168.52052307128906 37.71974563598633 160.62826538085938 42.50574493408203" stroke-width="3.5285682678222656" fill="none" stroke="rgb(6, 6, 21)" stroke-opacity="0.40273714" stroke-linecap="round" stroke-linejoin="round"/>
    <path d="M 199.2678985595703 77.51882934570312 C 118.01656341552734 74.18916320800781 201.0782470703125 77.40586853027344 222.6732940673828 84.59197998046875" stroke-width="29.291471481323242" fill="none" stroke="rgb(127, 44, 10)" stroke-opacity="0.87091017" stroke-linecap="round" stroke-linejoin="round"/>
    <path d="M 125.1628189086914 65.78263092041016 C 123.61404418945312 81.58161163330078 134.85279846191406 90.07881164550781 126.6575927734375 74.24923706054688" stroke-width="5.7209649085998535" fill="none" stroke="rgb(111, -1, -1)" stroke-opacity="0.65039486" stroke-linecap="round" stroke-linejoin="round"/>
    <path d="M 233.33523559570312 74.94738006591797 C 227.6901092529297 98.87406921386719 229.40658569335938 94.52811431884766 230.30380249023438 96.60879516601562" stroke-width="2.0" fill="none" stroke="rgb(0, 39, 36)" stroke-opacity="0.8408406" stroke-linecap="round" stroke-linejoin="round"/>
    <path d="M 119.9815902709961 60.72233581542969 C 7.311344146728516 67.51276397705078 80.64850616455078 57.823875427246094 22.8509464263916 63.7637939453125" stroke-width="16.09259605407715" fill="none" stroke="rgb(121, 175, 246)" stroke-opacity="0.097334825" stroke-linecap="round" stroke-linejoin="round"/>
    <path d="M 199.01414489746094 100.33905792236328 C 233.78997802734375 95.8734359741211 212.44631958007812 70.63330078125 197.35836791992188 95.55645751953125" stroke-width="11.772160530090332" fill="none" stroke="rgb(86, 35, 14)" stroke-opacity="1.0068327" stroke-linecap="round" stroke-linejoin="round"/>
    <path d="M 111.60426330566406 123.13636779785156 C 97.01031494140625 139.37828063964844 93.6026611328125 95.35298919677734 115.48411560058594 103.12434387207031" stroke-width="3.0522654056549072" fill="none" stroke="rgb(207, 123, 76)" stroke-opacity="0.5444097" stroke-linecap="round" stroke-linejoin="round"/>
    <path d="M 118.51551055908203 77.32637023925781 C 106.34251403808594 92.27154541015625 102.66456604003906 105.93451690673828 126.13117218017578 62.96635055541992" stroke-width="6.993821144104004" fill="none" stroke="rgb(42, 26, 54)" stroke-opacity="0.6450348" stroke-linecap="round" stroke-linejoin="round"/>
    <path d="M 84.41211700439453 138.05123901367188 C 71.175537109375 119.9932632446289 114.98506164550781 150.69235229492188 60.043113708496094 151.94058227539062" stroke-width="3.343045949935913" fill="none" stroke="rgb(78, 30, 22)" stroke-opacity="0.10228843" stroke-linecap="round" stroke-linejoin="round"/>
    <path d="M 100.61770629882812 94.95030212402344 C 117.62423706054688 91.77420043945312 95.48748016357422 61.056297302246094 85.179443359375 109.32501220703125" stroke-width="14.464635848999023" fill="none" stroke="rgb(1, 28, 68)" stroke-opacity="0.16293733" stroke-linecap="round" stroke-linejoin="round"/>
    <path d="M 144.51344299316406 84.44916534423828 C 119.34182739257812 72.98624420166016 98.56797790527344 131.0185546875 119.92280578613281 83.60682678222656" stroke-width="14.93171501159668" fill="none" stroke="rgb(179, 69, 42)" stroke-opacity="0.5855672" stroke-linecap="round" stroke-linejoin="round"/>
    <path d="M 158.1535186767578 97.96434020996094 C 148.1228485107422 44.90803909301758 151.21133422851562 92.97692108154297 153.28079223632812 67.5283203125" stroke-width="8.20545768737793" fill="none" stroke="rgb(14, 25, 39)" stroke-opacity="0.9049238" stroke-linecap="round" stroke-linejoin="round"/>
    <path d="M 147.76885986328125 50.386775970458984 C 130.6941375732422 48.70863342285156 143.80006408691406 54.90096664428711 115.61100769042969 66.651611328125" stroke-width="8.341389656066895" fill="none" stroke="rgb(96, 75, 47)" stroke-opacity="0.6933338" stroke-linecap="round" stroke-linejoin="round"/>
    <path d="M 201.2487030029297 83.12122344970703 C 211.2044219970703 91.9626235961914 208.4887237548828 104.66690826416016 224.82069396972656 91.69222259521484" stroke-width="10.81055736541748" fill="none" stroke="rgb(55, 19, 13)" stroke-opacity="0.53939295" stroke-linecap="round" stroke-linejoin="round"/>
    <path d="M 125.43074798583984 58.51802444458008 C 155.2465362548828 53.21628189086914 130.16505432128906 77.83682250976562 -3.211480140686035 64.6908950805664" stroke-width="30.18882179260254" fill="none" stroke="rgb(-5, 66, 147)" stroke-opacity="0.25961176" stroke-linecap="round" stroke-linejoin="round"/>
    <path d="M -8.272931098937988 47.325653076171875 C 113.15628051757812 47.17525100708008 70.41407012939453 46.90351104736328 139.80380249023438 47.5469856262207" stroke-width="16.27703857421875" fill="none" stroke="rgb(142, 159, 176)" stroke-opacity="0.83835644" stroke-linecap="round" stroke-linejoin="round"/>
    <path d="M 196.37432861328125 179.19558715820312 C 182.94964599609375 173.97618103027344 185.94204711914062 187.49905395507812 236.98825073242188 172.8822021484375" stroke-width="27.661685943603516" fill="none" stroke="rgb(190, 170, 60)" stroke-opacity="0.8453142" stroke-linecap="round" stroke-linejoin="round"/>
    <path d="M 230.3109130859375 45.830589294433594 C 228.24224853515625 46.627193450927734 223.4936981201172 50.57781982421875 226.38735961914062 44.714141845703125" stroke-width="2.0" fill="none" stroke="rgb(32, 28, 7)" stroke-opacity="0.86412984" stroke-linecap="round" stroke-linejoin="round"/>
    <path d="M 168.00692749023438 216.50718688964844 C 166.35958862304688 273.43280029296875 154.4786376953125 202.82830810546875 220.8814239501953 197.4949493408203" stroke-width="39.943302154541016" fill="none" stroke="rgb(84, 191, -1)" stroke-opacity="0.26631135" stroke-linecap="round" stroke-linejoin="round"/>
    <path d="M 85.90918731689453 186.31655883789062 C 81.77873229980469 123.37564086914062 128.75411987304688 164.9792938232422 93.02027893066406 136.25042724609375" stroke-width="2.1848909854888916" fill="none" stroke="rgb(45, 6, 1)" stroke-opacity="0.73439384" stroke-linecap="round" stroke-linejoin="round"/>
    <path d="M 117.56195068359375 75.92247009277344 C 147.76451110839844 61.84270095825195 141.367431640625 58.00973129272461 138.64688110351562 73.17169189453125" stroke-width="3.6362061500549316" fill="none" stroke="rgb(96, 61, 85)" stroke-opacity="1.0010864" stroke-linecap="round" stroke-linejoin="round"/>
    <path d="M 125.56517791748047 85.00972747802734 C 120.98905944824219 97.88643646240234 126.60177612304688 77.1417465209961 149.97921752929688 89.16560363769531" stroke-width="3.0939860343933105" fill="none" stroke="rgb(12, 13, 46)" stroke-opacity="1.0015074" stroke-linecap="round" stroke-linejoin="round"/>
    <path d="M 102.963134765625 84.50444793701172 C 77.47789001464844 129.26266479492188 102.84125518798828 139.11585998535156 101.6588134765625 89.72686004638672" stroke-width="10.68470573425293" fill="none" stroke="rgb(19, 16, 29)" stroke-opacity="0.6275792" stroke-linecap="round" stroke-linejoin="round"/>
    <path d="M 180.19017028808594 111.20655059814453 C 251.19732666015625 114.33426666259766 233.79002380371094 126.35615539550781 174.31011962890625 113.44413757324219" stroke-width="23.75519371032715" fill="none" stroke="rgb(-2, 48, 91)" stroke-opacity="0.27449638" stroke-linecap="round" stroke-linejoin="round"/>
    <path d="M 74.64273071289062 111.81290435791016 C 126.19419860839844 73.37455749511719 82.66284942626953 82.66683197021484 75.16021728515625 101.67247009277344" stroke-width="1.9912452697753906" fill="none" stroke="rgb(39, 3, -2)" stroke-opacity="0.48437348" stroke-linecap="round" stroke-linejoin="round"/>
    <path d="M 180.916259765625 55.747581481933594 C 210.78515625 43.2916374206543 128.72740173339844 30.108827590942383 189.35626220703125 68.06267547607422" stroke-width="2.874624013900757" fill="none" stroke="rgb(134, 47, 8)" stroke-opacity="0.80059254" stroke-linecap="round" stroke-linejoin="round"/>
    <path d="M 83.94019317626953 -8.00516414642334 C 81.75439453125 -8.399856567382812 78.01558685302734 -11.703583717346191 81.4151382446289 -13.949393272399902" stroke-width="2.0" fill="none" stroke="rgb(40, 46, 0)" stroke-opacity="0.8260591" stroke-linecap="round" stroke-linejoin="round"/>
    <path d="M 128.12831115722656 62.987850189208984 C 169.0678253173828 32.7883186340332 202.17568969726562 48.96283721923828 173.26185607910156 47.39402770996094" stroke-width="3.6969218254089355" fill="none" stroke="rgb(155, 69, 55)" stroke-opacity="0.7432388" stroke-linecap="round" stroke-linejoin="round"/>
    <path d="M 155.57763671875 41.73988342285156 C 113.17842102050781 63.62569046020508 127.14044952392578 56.48670196533203 106.53948211669922 79.12983703613281" stroke-width="3.951441764831543" fill="none" stroke="rgb(6, -1, 13)" stroke-opacity="0.8271664" stroke-linecap="round" stroke-linejoin="round"/>
    <path d="M 181.74485778808594 120.51570129394531 C 224.25025939941406 108.47064971923828 262.9993591308594 136.64895629882812 190.92880249023438 137.62745666503906" stroke-width="5.704060077667236" fill="none" stroke="rgb(175, 191, 209)" stroke-opacity="0.6436599" stroke-linecap="round" stroke-linejoin="round"/>
    <path d="M 111.82707977294922 74.50016021728516 C 99.19236755371094 116.25409698486328 101.6242904663086 71.4369888305664 117.63353729248047 71.78916931152344" stroke-width="8.259148597717285" fill="none" stroke="rgb(50, 32, 37)" stroke-opacity="0.37621933" stroke-linecap="round" stroke-linejoin="round"/>
    <path d="M 81.4362564086914 148.21621704101562 C 85.9421615600586 132.7677001953125 95.33930206298828 142.36082458496094 90.29571533203125 167.60372924804688" stroke-width="10.508180618286133" fill="none" stroke="rgb(5, 13, 17)" stroke-opacity="0.5822145" stroke-linecap="round" stroke-linejoin="round"/>
    <path d="M -11.351572036743164 140.14649963378906 C 153.77517700195312 141.6199493408203 84.72815704345703 125.83155822753906 95.16861724853516 188.87332153320312" stroke-width="8.799311637878418" fill="none" stroke="rgb(-2, 20, 76)" stroke-opacity="0.17845786" stroke-linecap="round" stroke-linejoin="round"/>
    <path d="M 184.8521270751953 111.81835174560547 C 182.0978546142578 179.05050659179688 178.93490600585938 127.27305603027344 179.73414611816406 180.32545471191406" stroke-width="6.757480144500732" fill="none" stroke="rgb(202, 94, 43)" stroke-opacity="0.85435325" stroke-linecap="round" stroke-linejoin="round"/>
    <path d="M 75.6233139038086 154.73699951171875 C 107.1086196899414 128.85836791992188 70.83110046386719 121.30348205566406 90.71278381347656 123.24561309814453" stroke-width="3.8055548667907715" fill="none" stroke="rgb(24, 10, 8)" stroke-opacity="0.95840645" stroke-linecap="round" stroke-linejoin="round"/>
    <path d="M 100.8738784790039 121.35693359375 C 103.34102630615234 136.6965789794922 74.11186981201172 111.7798843383789 106.8506851196289 76.83903503417969" stroke-width="9.665823936462402" fill="none" stroke="rgb(2, 0, -1)" stroke-opacity="0.31950653" stroke-linecap="round" stroke-linejoin="round"/>
    <path d="M 143.05357360839844 81.0094985961914 C 167.83216857910156 52.630550384521484 161.67007446289062 45.86418533325195 161.25404357910156 92.40454864501953" stroke-width="8.28930950164795" fill="none" stroke="rgb(255, 111, 55)" stroke-opacity="0.5674589" stroke-linecap="round" stroke-linejoin="round"/>
    <path d="M 109.66844940185547 125.16523742675781 C 110.76455688476562 148.45652770996094 106.17919158935547 128.49415588378906 127.3452377319336 97.29596710205078" stroke-width="6.557077407836914" fill="none" stroke="rgb(184, 90, 50)" stroke-opacity="1.0013847" stroke-linecap="round" stroke-linejoin="round"/>
    <path d="M 157.58200073242188 192.1519012451172 C 181.96160888671875 201.04615783691406 182.46905517578125 134.2191162109375 172.1515350341797 83.97125244140625" stroke-width="4.032146453857422" fill="none" stroke="rgb(129, 75, 54)" stroke-opacity="0.83690614" stroke-linecap="round" stroke-linejoin="round"/>
    <path d="M 111.10286712646484 81.3966064453125 C 112.2013168334961 32.616554260253906 114.50338745117188 41.62186050415039 80.40155029296875 101.56299591064453" stroke-width="11.407673835754395" fill="none" stroke="rgb(0, 67, 180)" stroke-opacity="0.02599034" stroke-linecap="round" stroke-linejoin="round"/>
    <path d="M 111.4787368774414 157.5970458984375 C 94.18224334716797 128.5928497314453 100.43449401855469 167.74505615234375 99.63709259033203 191.66940307617188" stroke-width="3.276907205581665" fill="none" stroke="rgb(1, 30, 48)" stroke-opacity="0.5368069" stroke-linecap="round" stroke-linejoin="round"/>
    <path d="M 128.61622619628906 78.41876220703125 C 127.3045425415039 69.60709381103516 168.45994567871094 72.42156982421875 135.17950439453125 61.202247619628906" stroke-width="20.515214920043945" fill="none" stroke="rgb(56, 8, 1)" stroke-opacity="0.36357033" stroke-linecap="round" stroke-linejoin="round"/>
    <path d="M 129.9304962158203 79.79794311523438 C 119.3666000366211 99.95632934570312 133.42776489257812 81.06192016601562 146.3305206298828 90.09098052978516" stroke-width="9.110974311828613" fill="none" stroke="rgb(119, 38, 0)" stroke-opacity="0.65424865" stroke-linecap="round" stroke-linejoin="round"/>
    <path d="M 216.2930145263672 83.80131530761719 C 254.6853485107422 80.81489562988281 170.31997680664062 67.25262451171875 216.6121063232422 73.96393585205078" stroke-width="18.29680633544922" fill="none" stroke="rgb(120, 28, 10)" stroke-opacity="0.5681357" stroke-linecap="round" stroke-linejoin="round"/>
    <path d="M 176.8507537841797 114.51271057128906 C 174.80711364746094 114.36491394042969 188.24447631835938 126.3043212890625 153.74449157714844 92.56904602050781" stroke-width="13.968862533569336" fill="none" stroke="rgb(80, 42, 30)" stroke-opacity="0.7853286" stroke-linecap="round" stroke-linejoin="round"/>
    <path d="M 98.46825408935547 188.67251586914062 C 97.35485076904297 235.19940185546875 102.93699645996094 174.05223083496094 84.58580780029297 212.16372680664062" stroke-width="8.111655235290527" fill="none" stroke="rgb(111, 60, 36)" stroke-opacity="0.46285373" stroke-linecap="round" stroke-linejoin="round"/>
    <path d="M 115.35327911376953 147.2136993408203 C 97.26332092285156 214.56686401367188 118.73709106445312 143.9084014892578 90.90696716308594 149.65090942382812" stroke-width="2.296677350997925" fill="none" stroke="rgb(165, 70, 25)" stroke-opacity="0.6065388" stroke-linecap="round" stroke-linejoin="round"/>
    <path d="M 123.91944885253906 79.72372436523438 C 126.53329467773438 58.270751953125 130.49317932128906 66.53065490722656 109.0421142578125 109.46417236328125" stroke-width="11.574352264404297" fill="none" stroke="rgb(188, 80, 67)" stroke-opacity="0.2729332" stroke-linecap="round" stroke-linejoin="round"/>
    <path d="M 135.26693725585938 72.34974670410156 C 170.6168670654297 38.143280029296875 162.70359802246094 56.99478530883789 141.45188903808594 71.99272918701172" stroke-width="14.4112548828125" fill="none" stroke="rgb(148, 60, 28)" stroke-opacity="0.8871993" stroke-linecap="round" stroke-linejoin="round"/>
    <path d="M 89.80774688720703 211.4933624267578 C 205.72950744628906 231.82447814941406 156.36630249023438 210.6139678955078 240.54660034179688 220.22181701660156" stroke-width="13.611327171325684" fill="none" stroke="rgb(89, 51, -1)" stroke-opacity="0.5717752" stroke-linecap="round" stroke-linejoin="round"/>
    <path d="M 224.4011993408203 65.93741607666016 C 161.8435516357422 35.82405090332031 166.5988311767578 68.59559631347656 228.5835418701172 49.04632568359375" stroke-width="14.82538890838623" fill="none" stroke="rgb(146, 56, 14)" stroke-opacity="0.8984355" stroke-linecap="round" stroke-linejoin="round"/>
    <path d="M 144.05758666992188 218.88816833496094 C 206.39833068847656 175.19058227539062 144.84765625 259.4677734375 183.63296508789062 178.18258666992188" stroke-width="3.9992358684539795" fill="none" stroke="rgb(102, 25, 72)" stroke-opacity="0.3228227" stroke-linecap="round" stroke-linejoin="round"/>
    <path d="M 105.43091583251953 109.5836410522461 C 92.76654815673828 139.7923126220703 97.85327911376953 137.13485717773438 126.85104370117188 87.58680725097656" stroke-width="7.770413398742676" fill="none" stroke="rgb(131, 42, 5)" stroke-opacity="0.66477853" stroke-linecap="round" stroke-linejoin="round"/>
    <path d="M 165.432861328125 86.28604125976562 C 163.20162963867188 126.74465942382812 173.549072265625 106.30211639404297 146.18975830078125 83.96142578125" stroke-width="7.2178449630737305" fill="none" stroke="rgb(50, 29, 16)" stroke-opacity="0.44758657" stroke-linecap="round" stroke-linejoin="round"/>
    <path d="M 53.82451629638672 55.00740051269531 C 150.76345825195312 67.02753448486328 143.71495056152344 30.49616241455078 40.5169677734375 49.1368522644043" stroke-width="16.44338035583496" fill="none" stroke="rgb(159, 180, 200)" stroke-opacity="0.22288059" stroke-linecap="round" stroke-linejoin="round"/>
    <path d="M 201.27444458007812 82.19965362548828 C 224.30625915527344 111.38551330566406 193.22154235839844 95.21856689453125 226.68389892578125 91.69610595703125" stroke-width="14.268664360046387" fill="none" stroke="rgb(41, 5, 9)" stroke-opacity="0.20640796" stroke-linecap="round" stroke-linejoin="round"/>
    <path d="M 0.4727364480495453 187.26390075683594 C 57.081905364990234 220.0847930908203 47.985164642333984 186.88616943359375 121.83766174316406 228.3269500732422" stroke-width="14.955379486083984" fill="none" stroke="rgb(62, 98, 154)" stroke-opacity="0.29636207" stroke-linecap="round" stroke-linejoin="round"/>
    <path d="M 143.63824462890625 47.28470993041992 C 192.7398681640625 35.42579650878906 180.29750061035156 38.1690559387207 138.7781219482422 56.4761848449707" stroke-width="1.917151689529419" fill="none" stroke="rgb(51, 6, 3)" stroke-opacity="0.28075826" stroke-linecap="round" stroke-linejoin="round"/>
    <path d="M 228.6163330078125 46.90591049194336 C 226.60658264160156 52.85045623779297 235.27471923828125 49.94097137451172 230.7700653076172 52.70896911621094" stroke-width="6.103504657745361" fill="none" stroke="rgb(82, 46, 58)" stroke-opacity="0.6091457" stroke-linecap="round" stroke-linejoin="round"/>
    <path d="M 140.21885681152344 77.78388214111328 C 208.2712860107422 78.13549041748047 189.87913513183594 96.58758544921875 129.5990753173828 81.05595397949219" stroke-width="8.786005973815918" fill="none" stroke="rgb(53, 22, 5)" stroke-opacity="0.24648464" stroke-linecap="round" stroke-linejoin="round"/>
    <path d="M 153.92996215820312 77.06385040283203 C 135.71328735351562 78.0295181274414 121.80097198486328 56.99185562133789 104.23151397705078 118.91603088378906" stroke-width="16.43853187561035" fill="none" stroke="rgb(124, 44, 17)" stroke-opacity="0.36728916" stroke-linecap="round" stroke-linejoin="round"/>
    <path d="M 178.45230102539062 47.26308059692383 C 161.74624633789062 86.95972442626953 182.32000732421875 53.05360794067383 169.0284423828125 89.23410034179688" stroke-width="7.191469669342041" fill="none" stroke="rgb(181, 104, 61)" stroke-opacity="0.7158715" stroke-linecap="round" stroke-linejoin="round"/>
    <path d="M 146.542724609375 43.025630950927734 C 176.88739013671875 8.927572250366211 155.2428741455078 22.356470108032227 153.4697265625 42.63982391357422" stroke-width="8.432068824768066" fill="none" stroke="rgb(127, 151, 183)" stroke-opacity="0.1915306" stroke-linecap="round" stroke-linejoin="round"/>
    <path d="M 174.08212280273438 93.37801361083984 C 195.761962890625 107.63113403320312 183.409912109375 111.14905548095703 229.4065704345703 98.638427734375" stroke-width="4.3685503005981445" fill="none" stroke="rgb(52, 23, 15)" stroke-opacity="1.0051726" stroke-linecap="round" stroke-linejoin="round"/>
    <path d="M 168.8241729736328 53.3080940246582 C 168.02354431152344 79.74518585205078 168.5497589111328 70.03707885742188 169.11669921875 57.71352767944336" stroke-width="2.2325706481933594" fill="none" stroke="rgb(28, -1, 18)" stroke-opacity="0.84858185" stroke-linecap="round" stroke-linejoin="round"/>
    <path d="M 93.4573974609375 117.72817993164062 C 88.59394836425781 101.93170928955078 98.89417266845703 143.43038940429688 92.15786743164062 97.51899719238281" stroke-width="13.725564956665039" fill="none" stroke="rgb(20, 10, 9)" stroke-opacity="0.40848413" stroke-linecap="round" stroke-linejoin="round"/>
    <path d="M 4.861595630645752 188.64035034179688 C 80.2075424194336 184.58790588378906 16.149433135986328 182.48109436035156 85.8402099609375 186.2037811279297" stroke-width="11.410903930664062" fill="none" stroke="rgb(68, 53, 0)" stroke-opacity="0.43108755" stroke-linecap="round" stroke-linejoin="round"/>
    <path d="M 149.0995635986328 80.10147094726562 C 177.5761260986328 40.506019592285156 193.65061950683594 33.08815383911133 173.90977478027344 81.62338256835938" stroke-width="6.906960487365723" fill="none" stroke="rgb(116, 36, 15)" stroke-opacity="0.40680814" stroke-linecap="round" stroke-linejoin="round"/>
    <path d="M 72.81945037841797 38.822181701660156 C 57.61063003540039 -6.101229667663574 68.33541870117188 28.512479782104492 113.32842254638672 66.00493621826172" stroke-width="3.8831565380096436" fill="none" stroke="rgb(107, 154, 199)" stroke-opacity="0.07082388" stroke-linecap="round" stroke-linejoin="round"/>
    <path d="M 58.02412033081055 108.9916763305664 C -88.88990783691406 84.56695556640625 -48.578556060791016 168.03436279296875 55.386009216308594 164.84913635253906" stroke-width="60.51912307739258" fill="none" stroke="rgb(109, 145, 181)" stroke-opacity="0.4647248" stroke-linecap="round" stroke-linejoin="round"/>
    <path d="M 162.74766540527344 42.61568069458008 C 140.518798828125 51.82889938354492 128.58094787597656 54.366214752197266 153.03231811523438 48.13941192626953" stroke-width="4.717827320098877" fill="none" stroke="rgb(85, 59, 58)" stroke-opacity="0.43879116" stroke-linecap="round" stroke-linejoin="round"/>
    <path d="M 168.17076110839844 55.23503875732422 C 163.26541137695312 59.23752212524414 162.0072021484375 97.79792785644531 161.9422149658203 83.3653335571289" stroke-width="14.404083251953125" fill="none" stroke="rgb(102, 41, 26)" stroke-opacity="0.57909214" stroke-linecap="round" stroke-linejoin="round"/>
    <path d="M -7.122069358825684 167.02940368652344 C -9.709425926208496 181.8489227294922 -7.786202430725098 179.5498809814453 -7.379422664642334 178.05458068847656" stroke-width="2.0" fill="none" stroke="rgb(33, 45, 38)" stroke-opacity="0.83951074" stroke-linecap="round" stroke-linejoin="round"/>
    <path d="M 224.0107421875 88.75225067138672 C 201.17752075195312 51.287498474121094 233.18173217773438 105.6719970703125 231.63661193847656 74.79813385009766" stroke-width="13.577900886535645" fill="none" stroke="rgb(120, 42, 7)" stroke-opacity="0.44117394" stroke-linecap="round" stroke-linejoin="round"/>
    <path d="M 168.3441925048828 114.1585693359375 C 172.6616668701172 97.359130859375 167.63063049316406 99.9877700805664 175.0109405517578 124.60399627685547" stroke-width="5.243313789367676" fill="none" stroke="rgb(52, 33, 22)" stroke-opacity="0.77613777" stroke-linecap="round" stroke-linejoin="round"/>
    <path d="M 183.43919372558594 104.18133544921875 C 188.8420867919922 101.29034423828125 191.53610229492188 83.37337493896484 173.59439086914062 94.80807495117188" stroke-width="18.1281681060791" fill="none" stroke="rgb(139, 65, 28)" stroke-opacity="0.8852627" stroke-linecap="round" stroke-linejoin="round"/>
    <path d="M 1.8199554681777954 58.42565155029297 C 187.3059539794922 68.64814758300781 13.120545387268066 15.767655372619629 222.0171661376953 28.55354118347168" stroke-width="10.816436767578125" fill="none" stroke="rgb(120, 138, 156)" stroke-opacity="0.11237634" stroke-linecap="round" stroke-linejoin="round"/>
    <path d="M 140.3658447265625 56.81599426269531 C 181.39920043945312 28.970869064331055 124.36028289794922 49.56926345825195 136.04017639160156 51.43248748779297" stroke-width="1.8233344554901123" fill="none" stroke="rgb(10, 0, 5)" stroke-opacity="0.7684455" stroke-linecap="round" stroke-linejoin="round"/>
    <path d="M 127.59064483642578 78.73218536376953 C 148.289306640625 80.26005554199219 112.77035522460938 90.6615982055664 129.5774688720703 93.15784454345703" stroke-width="13.527657508850098" fill="none" stroke="rgb(172, 72, 29)" stroke-opacity="0.33345175" stroke-linecap="round" stroke-linejoin="round"/>
    <path d="M 122.67587280273438 73.54721069335938 C 160.05230712890625 36.59444046020508 162.7931365966797 44.232582092285156 137.3441162109375 67.46087646484375" stroke-width="3.342787742614746" fill="none" stroke="rgb(144, 57, 41)" stroke-opacity="0.74085265" stroke-linecap="round" stroke-linejoin="round"/>
    <path d="M 189.4658966064453 105.12226104736328 C 155.9200897216797 83.0522232055664 191.69680786132812 77.6593017578125 179.90174865722656 48.99064254760742" stroke-width="7.420572280883789" fill="none" stroke="rgb(42, 0, 10)" stroke-opacity="0.20625523" stroke-linecap="round" stroke-linejoin="round"/>
    <path d="M 36.43714904785156 -9.428568840026855 C 51.31068801879883 -2.817394495010376 57.47846603393555 -3.7994635105133057 45.645694732666016 -7.754281044006348" stroke-width="2.0" fill="none" stroke="rgb(33, 39, 37)" stroke-opacity="0.8383923" stroke-linecap="round" stroke-linejoin="round"/>
    <path d="M -0.45725345611572266 200.98638916015625 C 78.0833511352539 185.24740600585938 -39.854854583740234 179.8914337158203 2.7776174545288086 204.75831604003906" stroke-width="3.669257640838623" fill="none" stroke="rgb(97, 72, -2)" stroke-opacity="0.22503762" stroke-linecap="round" stroke-linejoin="round"/>
    <path d="M 104.4921646118164 210.427978515625 C 194.91183471679688 214.1903076171875 77.7947998046875 209.61181640625 162.70143127441406 210.6929473876953" stroke-width="14.226357460021973" fill="none" stroke="rgb(81, 103, 37)" stroke-opacity="0.52530086" stroke-linecap="round" stroke-linejoin="round"/>
    <path d="M -6.752915382385254 201.43650817871094 C -7.982945919036865 203.32118225097656 -7.647939682006836 203.46754455566406 -8.13676643371582 214.83042907714844" stroke-width="2.0" fill="none" stroke="rgb(27, 25, 20)" stroke-opacity="0.89328223" stroke-linecap="round" stroke-linejoin="round"/>
    <path d="M 220.93148803710938 144.7533721923828 C 196.07391357421875 104.3187255859375 202.19476318359375 152.27110290527344 222.20639038085938 133.9897918701172" stroke-width="3.062938928604126" fill="none" stroke="rgb(124, 101, 0)" stroke-opacity="0.3405309" stroke-linecap="round" stroke-linejoin="round"/>
    <path d="M 21.796415328979492 107.30318450927734 C 88.51809692382812 105.53678894042969 112.64247131347656 109.0304946899414 59.665565490722656 93.72116088867188" stroke-width="6.698637962341309" fill="none" stroke="rgb(136, 131, 166)" stroke-opacity="0.08177035" stroke-linecap="round" stroke-linejoin="round"/>
    <path d="M 104.97946166992188 136.70506286621094 C 100.35420227050781 88.48783111572266 115.91847229003906 87.35250854492188 93.51988983154297 132.83700561523438" stroke-width="6.1495361328125" fill="none" stroke="rgb(102, 32, 25)" stroke-opacity="0.32357565" stroke-linecap="round" stroke-linejoin="round"/>
    <path d="M 113.35687255859375 103.29948425292969 C 117.23615264892578 128.73348999023438 83.29609680175781 133.24087524414062 109.22288513183594 147.82156372070312" stroke-width="15.936393737792969" fill="none" stroke="rgb(128, 42, 18)" stroke-opacity="0.33193123" stroke-linecap="round" stroke-linejoin="round"/>
    <path d="M 115.96558380126953 173.1894073486328 C 339.1179504394531 189.6925506591797 316.5989990234375 152.04469299316406 124.55692291259766 145.97691345214844" stroke-width="43.291011810302734" fill="none" stroke="rgb(-1, 32, 79)" stroke-opacity="0.27408648" stroke-linecap="round" stroke-linejoin="round"/>
    <path d="M 187.7650604248047 107.9682388305664 C 182.07998657226562 139.72715759277344 175.71630859375 143.0446319580078 184.5731658935547 105.38104248046875" stroke-width="5.799289226531982" fill="none" stroke="rgb(160, 75, 42)" stroke-opacity="0.79773355" stroke-linecap="round" stroke-linejoin="round"/>
    <path d="M 111.89561462402344 154.64370727539062 C 86.22222900390625 125.85828399658203 118.67601013183594 130.86277770996094 106.01905822753906 152.51499938964844" stroke-width="9.790213584899902" fill="none" stroke="rgb(186, 91, 53)" stroke-opacity="0.6163506" stroke-linecap="round" stroke-linejoin="round"/>
    <path d="M 102.82784271240234 167.73756408691406 C 96.75227355957031 166.2667694091797 82.77372741699219 163.8231201171875 88.65158081054688 196.14137268066406" stroke-width="4.492822647094727" fill="none" stroke="rgb(86, 48, 28)" stroke-opacity="0.6639465" stroke-linecap="round" stroke-linejoin="round"/>
    <path d="M 228.40199279785156 75.12905883789062 C 226.8510284423828 80.43313598632812 231.85252380371094 74.31893157958984 230.9234619140625 76.4043960571289" stroke-width="2.0" fill="none" stroke="rgb(65, 60, 32)" stroke-opacity="0.7428767" stroke-linecap="round" stroke-linejoin="round"/>
    <path d="M 197.298583984375 80.73926544189453 C 209.75523376464844 79.5002670288086 190.06788635253906 70.86507415771484 223.77210998535156 90.7115249633789" stroke-width="19.27376937866211" fill="none" stroke="rgb(107, 38, 14)" stroke-opacity="0.44941676" stroke-linecap="round" stroke-linejoin="round"/>
    <path d="M 180.2113800048828 65.12933349609375 C 257.888427734375 74.27288055419922 213.79112243652344 35.37492752075195 164.99301147460938 95.11642456054688" stroke-width="11.506328582763672" fill="none" stroke="rgb(132, 57, 19)" stroke-opacity="0.38982522" stroke-linecap="round" stroke-linejoin="round"/>
  </g>
</svg>
