<?xml version="1.0" ?>
<svg xmlns="http://www.w3.org/2000/svg" version="1.1" width="224" height="224">
  <defs/>
  <g>
    <path d="M 178.9306640625 211.99859619140625 C 253.40536499023438 211.6751251220703 81.16329193115234 213.98312377929688 149.364013671875 215.53782653808594" stroke-width="3.0" fill="none" stroke="rgb(0, 0, 0)" stroke-opacity="0.1562405" stroke-linecap="round" stroke-linejoin="round"/>
    <path d="M 116.00083923339844 124.93655395507812 C 84.07752227783203 141.3195037841797 134.2381591796875 111.53028106689453 102.58891296386719 173.17848205566406" stroke-width="3.0" fill="none" stroke="rgb(2, -1, -3)" stroke-opacity="0.08356886" stroke-linecap="round" stroke-linejoin="round"/>
    <path d="M 150.54624938964844 88.38517761230469 C 150.8032684326172 41.358699798583984 186.6740264892578 81.0321044921875 126.24880981445312 113.88075256347656" stroke-width="3.0" fill="none" stroke="rgb(-4, -1, 5)" stroke-opacity="0.039364766" stroke-linecap="round" stroke-linejoin="round"/>
    <path d="M 197.25201416015625 103.65733337402344 C 146.28866577148438 39.06327438354492 206.48135375976562 143.81893920898438 169.8733367919922 47.485294342041016" stroke-width="3.0" fill="none" stroke="rgb(1, 0, -1)" stroke-opacity="0.04406855" stroke-linecap="round" stroke-linejoin="round"/>
    <path d="M 113.8882064819336 166.01071166992188 C 71.7372817993164 93.08660888671875 84.29251098632812 140.28829956054688 95.93648529052734 108.84407806396484" stroke-width="3.0" fill="none" stroke="rgb(2, 0, -2)" stroke-opacity="0.10861955" stroke-linecap="round" stroke-linejoin="round"/>
    <path d="M 101.0101318359375 204.47418212890625 C 95.0109634399414 172.00660705566406 115.9552993774414 174.28575134277344 114.95538330078125 144.4734344482422" stroke-width="3.0" fill="none" stroke="rgb(2, -2, 1)" stroke-opacity="0.2262563" stroke-linecap="round" stroke-linejoin="round"/>
    <path d="M 177.2921142578125 198.66754150390625 C 190.0318603515625 120.5966567993164 225.10198974609375 164.97869873046875 185.6925506591797 153.1531524658203" stroke-width="3.0" fill="none" stroke="rgb(0, 0, 1)" stroke-opacity="0.13804668" stroke-linecap="round" stroke-linejoin="round"/>
    <path d="M 76.23837280273438 136.58956909179688 C 12.174139022827148 132.33082580566406 115.39697265625 130.75067138671875 3.6543948650360107 131.22154235839844" stroke-width="3.0" fill="none" stroke="rgb(-3, 0, 4)" stroke-opacity="0.041535895" stroke-linecap="round" stroke-linejoin="round"/>
    <path d="M 2.827592611312866 144.36415100097656 C 32.85130310058594 146.61375427246094 -33.287025451660156 137.39810180664062 76.65260314941406 144.99281311035156" stroke-width="3.0" fill="none" stroke="rgb(-3, 1, 2)" stroke-opacity="0.04720796" stroke-linecap="round" stroke-linejoin="round"/>
    <path d="M 174.1518096923828 158.6344451904297 C 120.3533935546875 162.31277465820312 168.7418212890625 156.17343139648438 116.5081787109375 159.06703186035156" stroke-width="3.0" fill="none" stroke="rgb(0, 0, 1)" stroke-opacity="0.07015773" stroke-linecap="round" stroke-linejoin="round"/>
    <path d="M 132.4769744873047 69.35113525390625 C 153.0168914794922 71.8617172241211 133.49972534179688 76.83220672607422 134.8762969970703 66.96539306640625" stroke-width="3.0" fill="none" stroke="rgb(1, -1, -2)" stroke-opacity="0.048191577" stroke-linecap="round" stroke-linejoin="round"/>
    <path d="M 97.87354278564453 152.1360626220703 C 93.61067199707031 236.79534912109375 96.77812957763672 86.99446105957031 78.24446105957031 156.64137268066406" stroke-width="3.0" fill="none" stroke="rgb(3, -3, 2)" stroke-opacity="0.30365458" stroke-linecap="round" stroke-linejoin="round"/>
    <path d="M 37.705406188964844 232.45205688476562 C 23.833871841430664 231.53680419921875 27.53871726989746 230.49957275390625 24.451932907104492 231.8112030029297" stroke-width="3.0" fill="none" stroke="rgb(0, 0, 0)" stroke-opacity="0.8245053" stroke-linecap="round" stroke-linejoin="round"/>
    <path d="M -6.105445861816406 192.50494384765625 C 91.2520751953125 199.37738037109375 18.49250030517578 195.74118041992188 89.16837310791016 201.44668579101562" stroke-width="3.0" fill="none" stroke="rgb(0, -1, 1)" stroke-opacity="0.1577823" stroke-linecap="round" stroke-linejoin="round"/>
    <path d="M 141.9676055908203 90.07927703857422 C 82.1009292602539 92.31745147705078 147.76486206054688 98.1041030883789 129.77224731445312 93.59986114501953" stroke-width="3.0" fill="none" stroke="rgb(0, 0, 0)" stroke-opacity="0.029668462" stroke-linecap="round" stroke-linejoin="round"/>
    <path d="M 76.44361877441406 54.98997497558594 C 142.09188842773438 41.447540283203125 135.24717712402344 72.65071105957031 93.6052017211914 98.25336456298828" stroke-width="3.0" fill="none" stroke="rgb(0, 0, 0)" stroke-opacity="0.0131148" stroke-linecap="round" stroke-linejoin="round"/>
    <path d="M 112.98385620117188 10.850638389587402 C -107.75119018554688 12.984007835388184 69.64401245117188 -2.0155580043792725 -0.06248953938484192 9.163475036621094" stroke-width="3.0" fill="none" stroke="rgb(-1, 2, -2)" stroke-opacity="0.15325993" stroke-linecap="round" stroke-linejoin="round"/>
    <path d="M 111.18318939208984 130.67318725585938 C 133.98219299316406 79.81411743164062 136.07745361328125 107.10428619384766 85.82136535644531 128.8566131591797" stroke-width="3.0" fill="none" stroke="rgb(2, -2, -2)" stroke-opacity="0.048797794" stroke-linecap="round" stroke-linejoin="round"/>
    <path d="M 172.90603637695312 82.37849426269531 C 198.94284057617188 31.31484603881836 172.3997039794922 40.016963958740234 168.5825958251953 74.23136138916016" stroke-width="3.0" fill="none" stroke="rgb(0, -1, 1)" stroke-opacity="0.05822616" stroke-linecap="round" stroke-linejoin="round"/>
    <path d="M 114.04925537109375 74.90705108642578 C 80.84650421142578 124.03803253173828 96.72168731689453 99.09060668945312 105.7511215209961 80.47805786132812" stroke-width="3.0" fill="none" stroke="rgb(-3, 0, 3)" stroke-opacity="0.14618468" stroke-linecap="round" stroke-linejoin="round"/>
    <path d="M 166.40875244140625 128.01904296875 C 65.8218765258789 131.15756225585938 89.97398376464844 129.46429443359375 148.4982147216797 120.25769805908203" stroke-width="3.0" fill="none" stroke="rgb(1, -1, 1)" stroke-opacity="0.047695734" stroke-linecap="round" stroke-linejoin="round"/>
    <path d="M 182.1031494140625 52.82488250732422 C 154.84925842285156 121.74970245361328 195.4855499267578 81.29068756103516 175.78871154785156 120.39889526367188" stroke-width="3.0" fill="none" stroke="rgb(-1, 0, 1)" stroke-opacity="0.07672422" stroke-linecap="round" stroke-linejoin="round"/>
    <path d="M 72.0150146484375 73.28941345214844 C 142.06898498535156 45.52315902709961 128.92335510253906 93.49269104003906 83.2412338256836 100.62920379638672" stroke-width="3.0" fill="none" stroke="rgb(0, 0, 0)" stroke-opacity="0.01776091" stroke-linecap="round" stroke-linejoin="round"/>
    <path d="M 218.083251953125 166.89183044433594 C 54.0184211730957 171.14398193359375 56.98731231689453 200.34703063964844 197.48463439941406 187.1499481201172" stroke-width="3.0" fill="none" stroke="rgb(-4, 3, -2)" stroke-opacity="0.069363" stroke-linecap="round" stroke-linejoin="round"/>
    <path d="M 103.61371612548828 -2.6166446208953857 C 108.95873260498047 18.409210205078125 75.22160339355469 6.717466831207275 222.74050903320312 8.0051908493042" stroke-width="3.0" fill="none" stroke="rgb(-4, 3, -5)" stroke-opacity="0.119491816" stroke-linecap="round" stroke-linejoin="round"/>
    <path d="M 170.1365966796875 45.69913864135742 C 152.6985626220703 86.24880981445312 162.23410034179688 50.64691162109375 168.6977996826172 46.7266845703125" stroke-width="3.0" fill="none" stroke="rgb(1, -1, 0)" stroke-opacity="0.05335494" stroke-linecap="round" stroke-linejoin="round"/>
    <path d="M 108.8901596069336 111.38971710205078 C 148.63522338867188 41.08451843261719 173.5491180419922 91.5644302368164 108.18255615234375 78.16352844238281" stroke-width="3.0" fill="none" stroke="rgb(2, -2, -2)" stroke-opacity="0.031444915" stroke-linecap="round" stroke-linejoin="round"/>
    <path d="M 68.08451843261719 156.0376739501953 C -90.02750396728516 152.52456665039062 37.27824020385742 177.26536560058594 1.7001570463180542 159.24044799804688" stroke-width="3.0" fill="none" stroke="rgb(-2, 0, 2)" stroke-opacity="0.0267733" stroke-linecap="round" stroke-linejoin="round"/>
    <path d="M 170.23184204101562 115.44522857666016 C 155.7317352294922 104.50081634521484 150.2476043701172 83.65690612792969 130.07498168945312 98.92352294921875" stroke-width="3.0" fill="none" stroke="rgb(3, -2, -3)" stroke-opacity="0.46531755" stroke-linecap="round" stroke-linejoin="round"/>
    <path d="M 29.5884952545166 8.375860214233398 C -64.3917007446289 13.634403228759766 40.98204803466797 -8.058688163757324 -4.9057769775390625 6.697185039520264" stroke-width="3.0" fill="none" stroke="rgb(-2, 2, -2)" stroke-opacity="0.2018909" stroke-linecap="round" stroke-linejoin="round"/>
    <path d="M 195.9871826171875 161.45785522460938 C 175.822265625 171.85275268554688 181.48483276367188 148.27392578125 190.4471893310547 103.15117645263672" stroke-width="3.0" fill="none" stroke="rgb(1, -1, 0)" stroke-opacity="0.1774483" stroke-linecap="round" stroke-linejoin="round"/>
    <path d="M 12.525394439697266 184.2694549560547 C 54.75005340576172 189.5203857421875 -25.26051139831543 169.80792236328125 26.314191818237305 172.02215576171875" stroke-width="3.0" fill="none" stroke="rgb(0, 0, 0)" stroke-opacity="0.022648357" stroke-linecap="round" stroke-linejoin="round"/>
    <path d="M 139.2440643310547 55.66450500488281 C 163.59092712402344 38.42838668823242 172.13121032714844 30.475650787353516 207.4224395751953 61.76516342163086" stroke-width="3.0" fill="none" stroke="rgb(2, -2, 0)" stroke-opacity="0.0658748" stroke-linecap="round" stroke-linejoin="round"/>
    <path d="M 187.73663330078125 109.73055267333984 C 201.64053344726562 106.4991226196289 199.5260467529297 85.54057312011719 196.44076538085938 86.55606842041016" stroke-width="3.0" fill="none" stroke="rgb(-1, 0, 3)" stroke-opacity="0.18627794" stroke-linecap="round" stroke-linejoin="round"/>
    <path d="M 127.46183776855469 97.93968963623047 C 129.08570861816406 90.92875671386719 120.04399108886719 116.5651626586914 142.96609497070312 86.9649887084961" stroke-width="3.0" fill="none" stroke="rgb(1, -1, 0)" stroke-opacity="0.082650915" stroke-linecap="round" stroke-linejoin="round"/>
    <path d="M 8.102648735046387 89.98259735107422 C 57.21350860595703 91.25114440917969 19.87686538696289 84.17334747314453 44.21291732788086 86.22726440429688" stroke-width="3.0" fill="none" stroke="rgb(0, 0, 0)" stroke-opacity="0.019959094" stroke-linecap="round" stroke-linejoin="round"/>
    <path d="M 85.7845687866211 124.45294189453125 C 127.55242919921875 55.439659118652344 113.61941528320312 62.24360275268555 76.88118743896484 112.0488052368164" stroke-width="3.0" fill="none" stroke="rgb(-2, 1, 1)" stroke-opacity="0.13709542" stroke-linecap="round" stroke-linejoin="round"/>
    <path d="M 199.0599822998047 94.50341033935547 C 209.8889617919922 111.63873291015625 280.15985107421875 85.61317443847656 211.54086303710938 103.20098876953125" stroke-width="3.0" fill="none" stroke="rgb(1, -2, 0)" stroke-opacity="0.25098023" stroke-linecap="round" stroke-linejoin="round"/>
    <path d="M 118.80690002441406 65.82179260253906 C 59.713802337646484 175.27008056640625 86.87162017822266 181.80491638183594 102.93592834472656 84.47716522216797" stroke-width="3.0" fill="none" stroke="rgb(0, -1, 5)" stroke-opacity="0.109747775" stroke-linecap="round" stroke-linejoin="round"/>
    <path d="M 135.8638458251953 48.37687301635742 C 94.06932830810547 37.68045425415039 94.37337493896484 49.23942184448242 134.065185546875 50.5870475769043" stroke-width="3.0" fill="none" stroke="rgb(0, 0, 0)" stroke-opacity="0.018202841" stroke-linecap="round" stroke-linejoin="round"/>
    <path d="M 82.37309265136719 156.16566467285156 C 86.88324737548828 127.73828125 95.29975128173828 121.36294555664062 83.57876586914062 154.32879638671875" stroke-width="3.0" fill="none" stroke="rgb(0, 0, 1)" stroke-opacity="0.4713292" stroke-linecap="round" stroke-linejoin="round"/>
    <path d="M 119.08290100097656 69.40887451171875 C 86.0484619140625 107.1220474243164 96.61320495605469 88.35189056396484 108.11203002929688 81.73408508300781" stroke-width="3.0" fill="none" stroke="rgb(-4, 1, 3)" stroke-opacity="0.21078038" stroke-linecap="round" stroke-linejoin="round"/>
    <path d="M 124.55258178710938 94.20612335205078 C 115.07650756835938 93.70182037353516 105.33206939697266 133.2051239013672 127.13615417480469 92.32435607910156" stroke-width="3.0" fill="none" stroke="rgb(2, -2, -1)" stroke-opacity="0.05661706" stroke-linecap="round" stroke-linejoin="round"/>
    <path d="M 156.4720916748047 106.53836822509766 C 150.57168579101562 54.683349609375 156.47874450683594 93.78057098388672 160.83863830566406 53.15993118286133" stroke-width="3.0" fill="none" stroke="rgb(-2, -1, 2)" stroke-opacity="0.12593013" stroke-linecap="round" stroke-linejoin="round"/>
    <path d="M 121.01226806640625 64.78543090820312 C 162.19454956054688 32.83904266357422 134.52081298828125 44.871429443359375 99.8757553100586 84.51105499267578" stroke-width="3.0" fill="none" stroke="rgb(-3, 4, 0)" stroke-opacity="0.33388305" stroke-linecap="round" stroke-linejoin="round"/>
    <path d="M 220.7807159423828 100.7475357055664 C 134.76318359375 41.17518997192383 154.27322387695312 108.1201171875 230.38133239746094 114.93696594238281" stroke-width="3.0" fill="none" stroke="rgb(-2, 0, 3)" stroke-opacity="0.043296" stroke-linecap="round" stroke-linejoin="round"/>
    <path d="M 148.8588409423828 42.288089752197266 C 98.41900634765625 78.29036712646484 94.09358215332031 79.6160659790039 153.91551208496094 41.15101623535156" stroke-width="3.0" fill="none" stroke="rgb(-3, 1, 4)" stroke-opacity="0.28279725" stroke-linecap="round" stroke-linejoin="round"/>
    <path d="M 69.21268463134766 31.769922256469727 C 67.57649230957031 35.145301818847656 77.19426727294922 33.11297607421875 73.35456085205078 34.26192855834961" stroke-width="3.0" fill="none" stroke="rgb(2, 0, -3)" stroke-opacity="0.053578746" stroke-linecap="round" stroke-linejoin="round"/>
    <path d="M 203.83944702148438 129.27008056640625 C 236.88107299804688 150.2909393310547 191.67718505859375 101.83134460449219 216.254638671875 143.2313995361328" stroke-width="3.0" fill="none" stroke="rgb(0, 1, -3)" stroke-opacity="0.13868085" stroke-linecap="round" stroke-linejoin="round"/>
    <path d="M 226.85885620117188 46.723106384277344 C 241.7899169921875 48.53225326538086 226.2555389404297 51.77586364746094 228.0022430419922 51.76443862915039" stroke-width="3.0" fill="none" stroke="rgb(0, 0, 0)" stroke-opacity="0.4274792" stroke-linecap="round" stroke-linejoin="round"/>
    <path d="M 215.61611938476562 214.0061798095703 C 137.15553283691406 214.00433349609375 207.5868682861328 199.8183135986328 191.1513671875 216.2056427001953" stroke-width="3.0" fill="none" stroke="rgb(-2, 2, -2)" stroke-opacity="0.08488957" stroke-linecap="round" stroke-linejoin="round"/>
    <path d="M 85.98641967773438 188.45335388183594 C 93.2325439453125 140.1144256591797 76.92378234863281 163.3407745361328 94.83464813232422 149.1119384765625" stroke-width="3.0" fill="none" stroke="rgb(-1, 0, 1)" stroke-opacity="0.3858253" stroke-linecap="round" stroke-linejoin="round"/>
    <path d="M 144.1755828857422 65.1304931640625 C 127.16093444824219 69.98689270019531 137.6951904296875 81.8871841430664 142.49403381347656 62.846038818359375" stroke-width="3.0" fill="none" stroke="rgb(1, -1, -1)" stroke-opacity="0.040110342" stroke-linecap="round" stroke-linejoin="round"/>
    <path d="M 137.39178466796875 79.39595031738281 C 87.93679809570312 68.1672134399414 136.37672424316406 64.00487518310547 114.6296157836914 98.56684875488281" stroke-width="3.0" fill="none" stroke="rgb(2, -1, -1)" stroke-opacity="0.030649079" stroke-linecap="round" stroke-linejoin="round"/>
    <path d="M 122.83343505859375 105.9974594116211 C 93.59298706054688 138.96664428710938 81.50582122802734 130.07676696777344 108.52613830566406 75.3526611328125" stroke-width="3.0" fill="none" stroke="rgb(1, 0, -2)" stroke-opacity="0.05682029" stroke-linecap="round" stroke-linejoin="round"/>
    <path d="M 33.27875518798828 97.68150329589844 C 20.176513671875 103.36730194091797 28.9060115814209 93.2799072265625 7.509207248687744 99.66752624511719" stroke-width="3.0" fill="none" stroke="rgb(1, 0, 0)" stroke-opacity="0.033200067" stroke-linecap="round" stroke-linejoin="round"/>
    <path d="M 84.35527801513672 123.96314239501953 C 96.15149688720703 57.69511413574219 129.0709991455078 82.16063690185547 86.73167419433594 85.31825256347656" stroke-width="3.0" fill="none" stroke="rgb(-2, 2, 2)" stroke-opacity="0.24516916" stroke-linecap="round" stroke-linejoin="round"/>
    <path d="M 190.08502197265625 79.14737701416016 C 173.55856323242188 53.4287223815918 190.12557983398438 30.269969940185547 165.3972930908203 52.65848159790039" stroke-width="3.0" fill="none" stroke="rgb(0, 0, 0)" stroke-opacity="0.040887225" stroke-linecap="round" stroke-linejoin="round"/>
    <path d="M 76.27842712402344 8.727653503417969 C 78.88846588134766 -76.37422180175781 73.47856140136719 -23.54911994934082 82.36507415771484 -15.345390319824219" stroke-width="3.0" fill="none" stroke="rgb(-2, 1, -1)" stroke-opacity="0.0959603" stroke-linecap="round" stroke-linejoin="round"/>
    <path d="M 123.74451446533203 57.29412841796875 C 158.93161010742188 41.755985260009766 179.8441925048828 38.58980941772461 135.04977416992188 48.72711944580078" stroke-width="3.0" fill="none" stroke="rgb(-2, -1, 2)" stroke-opacity="0.22346404" stroke-linecap="round" stroke-linejoin="round"/>
    <path d="M 114.97344970703125 80.46336364746094 C 141.7086944580078 47.92388153076172 129.6151580810547 69.63459014892578 96.39118957519531 77.38996887207031" stroke-width="3.0" fill="none" stroke="rgb(0, 0, 1)" stroke-opacity="0.07981349" stroke-linecap="round" stroke-linejoin="round"/>
    <path d="M 216.36065673828125 123.76365661621094 C 181.0322265625 172.9595489501953 263.2393493652344 107.34811401367188 196.03045654296875 145.13088989257812" stroke-width="3.0" fill="none" stroke="rgb(0, 2, -3)" stroke-opacity="0.15184897" stroke-linecap="round" stroke-linejoin="round"/>
    <path d="M 127.696533203125 64.69180297851562 C 114.77554321289062 98.83905792236328 132.28939819335938 108.51374816894531 102.40185546875 101.50389862060547" stroke-width="3.0" fill="none" stroke="rgb(1, -2, 0)" stroke-opacity="0.011690348" stroke-linecap="round" stroke-linejoin="round"/>
    <path d="M 97.12000274658203 140.34388732910156 C 56.98052215576172 104.10941314697266 92.79401397705078 126.09137725830078 90.69851684570312 174.33261108398438" stroke-width="3.0" fill="none" stroke="rgb(4, -2, 0)" stroke-opacity="0.34364086" stroke-linecap="round" stroke-linejoin="round"/>
    <path d="M 97.777099609375 191.01402282714844 C -9.133988380432129 185.40203857421875 -87.8657455444336 181.3802947998047 83.37979888916016 182.46859741210938" stroke-width="3.0" fill="none" stroke="rgb(-2, 1, 0)" stroke-opacity="0.1412372" stroke-linecap="round" stroke-linejoin="round"/>
    <path d="M 221.3697967529297 155.9342498779297 C 174.7054443359375 166.28970336914062 237.73077392578125 137.8799285888672 200.1278076171875 164.053955078125" stroke-width="3.0" fill="none" stroke="rgb(-2, 1, 1)" stroke-opacity="0.15427545" stroke-linecap="round" stroke-linejoin="round"/>
    <path d="M 101.81421661376953 80.77201080322266 C 65.1980972290039 158.6272430419922 118.87422180175781 133.085205078125 78.17191314697266 155.45823669433594" stroke-width="3.0" fill="none" stroke="rgb(0, 1, 1)" stroke-opacity="0.28997523" stroke-linecap="round" stroke-linejoin="round"/>
    <path d="M 120.22444152832031 93.1229476928711 C 116.51637268066406 122.3235855102539 79.1245346069336 133.70191955566406 121.3952865600586 68.74784088134766" stroke-width="3.0" fill="none" stroke="rgb(2, -4, 0)" stroke-opacity="0.053219266" stroke-linecap="round" stroke-linejoin="round"/>
    <path d="M 164.72218322753906 88.16986083984375 C 161.63502502441406 71.75879669189453 169.29664611816406 108.62177276611328 168.43287658691406 49.998138427734375" stroke-width="3.0" fill="none" stroke="rgb(-1, 0, 1)" stroke-opacity="0.09672586" stroke-linecap="round" stroke-linejoin="round"/>
    <path d="M 94.86367797851562 135.72068786621094 C 132.23568725585938 153.6905059814453 88.03518676757812 148.60032653808594 131.49288940429688 81.30552673339844" stroke-width="3.0" fill="none" stroke="rgb(2, -1, -2)" stroke-opacity="0.05764354" stroke-linecap="round" stroke-linejoin="round"/>
    <path d="M 187.7448272705078 122.71491241455078 C 186.90016174316406 152.76597595214844 176.17068481445312 78.85789489746094 183.51318359375 182.65211486816406" stroke-width="3.0" fill="none" stroke="rgb(1, -1, -1)" stroke-opacity="0.14381881" stroke-linecap="round" stroke-linejoin="round"/>
    <path d="M 115.92431640625 60.627384185791016 C 61.73516082763672 125.335205078125 87.25843811035156 109.54724884033203 121.51093292236328 61.15231704711914" stroke-width="3.0" fill="none" stroke="rgb(-3, 2, 0)" stroke-opacity="0.11583854" stroke-linecap="round" stroke-linejoin="round"/>
    <path d="M -2.5201566219329834 203.77984619140625 C 135.03077697753906 219.79026794433594 30.703237533569336 194.2529754638672 189.55780029296875 194.38748168945312" stroke-width="3.0" fill="none" stroke="rgb(-2, 0, 2)" stroke-opacity="0.125209" stroke-linecap="round" stroke-linejoin="round"/>
    <path d="M 133.98028564453125 73.85588073730469 C 163.55491638183594 59.741058349609375 130.76858520507812 75.02513122558594 119.78939056396484 90.89005279541016" stroke-width="3.0" fill="none" stroke="rgb(1, 0, -1)" stroke-opacity="0.032892786" stroke-linecap="round" stroke-linejoin="round"/>
    <path d="M 151.40518188476562 89.52790069580078 C 107.2599868774414 100.98592376708984 140.3676300048828 58.672813415527344 171.388671875 112.92097473144531" stroke-width="3.0" fill="none" stroke="rgb(1, -1, 0)" stroke-opacity="0.15923059" stroke-linecap="round" stroke-linejoin="round"/>
    <path d="M 191.11607360839844 53.01776123046875 C 213.9085235595703 109.89203643798828 216.18905639648438 126.69502258300781 195.76976013183594 74.88616943359375" stroke-width="3.0" fill="none" stroke="rgb(0, -1, 2)" stroke-opacity="0.03476592" stroke-linecap="round" stroke-linejoin="round"/>
    <path d="M 170.1756591796875 107.42959594726562 C 178.0374298095703 171.15753173828125 180.8450927734375 96.30755615234375 169.3959197998047 108.71820068359375" stroke-width="3.0" fill="none" stroke="rgb(0, -1, 1)" stroke-opacity="0.1504475" stroke-linecap="round" stroke-linejoin="round"/>
    <path d="M 78.66278076171875 214.51467895507812 C 111.78488159179688 203.7679443359375 63.537410736083984 248.76992797851562 100.61038970947266 150.03375244140625" stroke-width="3.0" fill="none" stroke="rgb(2, -1, -1)" stroke-opacity="0.18113345" stroke-linecap="round" stroke-linejoin="round"/>
    <path d="M 171.9511260986328 110.85625457763672 C 186.13543701171875 200.67379760742188 164.849609375 176.04641723632812 169.78475952148438 195.01150512695312" stroke-width="3.0" fill="none" stroke="rgb(2, -2, 2)" stroke-opacity="0.34643492" stroke-linecap="round" stroke-linejoin="round"/>
    <path d="M 129.0460205078125 84.82054901123047 C 121.74579620361328 83.29388427734375 166.94863891601562 97.09535217285156 159.0406951904297 67.43545532226562" stroke-width="3.0" fill="none" stroke="rgb(0, -1, 1)" stroke-opacity="0.041027237" stroke-linecap="round" stroke-linejoin="round"/>
    <path d="M 135.98455810546875 58.23875045776367 C 159.56130981445312 50.20347213745117 152.60977172851562 58.90427780151367 127.87603759765625 74.26344299316406" stroke-width="3.0" fill="none" stroke="rgb(1, -1, 0)" stroke-opacity="0.032670416" stroke-linecap="round" stroke-linejoin="round"/>
    <path d="M 82.12213897705078 215.46829223632812 C 265.11016845703125 206.3104248046875 104.55168151855469 200.38821411132812 167.92930603027344 212.16600036621094" stroke-width="3.0" fill="none" stroke="rgb(-1, 1, -1)" stroke-opacity="0.17581867" stroke-linecap="round" stroke-linejoin="round"/>
    <path d="M 229.29515075683594 53.99730682373047 C 234.3414764404297 56.774803161621094 223.23045349121094 54.50331497192383 233.5669708251953 48.38064956665039" stroke-width="3.0" fill="none" stroke="rgb(0, 0, 0)" stroke-opacity="0.36417612" stroke-linecap="round" stroke-linejoin="round"/>
    <path d="M 204.7582550048828 194.36822509765625 C 145.13433837890625 196.4159698486328 115.42024993896484 196.58705139160156 213.7960205078125 196.74537658691406" stroke-width="3.0" fill="none" stroke="rgb(-2, 0, 2)" stroke-opacity="0.09782303" stroke-linecap="round" stroke-linejoin="round"/>
    <path d="M 116.21764373779297 146.978271484375 C 110.22479248046875 133.5257568359375 110.75027465820312 122.28189849853516 133.81016540527344 91.68959045410156" stroke-width="3.0" fill="none" stroke="rgb(2, -2, 1)" stroke-opacity="0.20742737" stroke-linecap="round" stroke-linejoin="round"/>
    <path d="M 150.49139404296875 91.8162841796875 C 180.8000946044922 120.06367492675781 163.9782257080078 112.53691864013672 175.255126953125 132.2449951171875" stroke-width="3.0" fill="none" stroke="rgb(0, -1, 2)" stroke-opacity="0.38367093" stroke-linecap="round" stroke-linejoin="round"/>
    <path d="M 98.22691345214844 84.96369171142578 C 82.51641845703125 98.5822525024414 88.51332092285156 87.49803161621094 76.58915710449219 100.87126159667969" stroke-width="3.0" fill="none" stroke="rgb(-2, 1, 1)" stroke-opacity="0.29874393" stroke-linecap="round" stroke-linejoin="round"/>
    <path d="M 193.52613830566406 106.59136199951172 C 229.96438598632812 104.53862762451172 193.75608825683594 100.60256958007812 194.0744171142578 104.75109100341797" stroke-width="3.0" fill="none" stroke="rgb(3, -2, 2)" stroke-opacity="0.4238133" stroke-linecap="round" stroke-linejoin="round"/>
    <path d="M 10.374629020690918 201.45884704589844 C 38.89665603637695 239.73887634277344 54.272804260253906 225.21571350097656 -1.9006956815719604 186.18234252929688" stroke-width="3.0" fill="none" stroke="rgb(0, 0, 0)" stroke-opacity="0.04159035" stroke-linecap="round" stroke-linejoin="round"/>
    <path d="M 154.00856018066406 43.91353988647461 C 195.08523559570312 32.93648910522461 154.5618438720703 42.94567108154297 163.50701904296875 65.49169921875" stroke-width="3.0" fill="none" stroke="rgb(0, -1, 1)" stroke-opacity="0.071413375" stroke-linecap="round" stroke-linejoin="round"/>
    <path d="M 184.30123901367188 44.096336364746094 C 217.09303283691406 55.44085693359375 237.23280334472656 33.6866455078125 204.38600158691406 47.37895202636719" stroke-width="3.0" fill="none" stroke="rgb(2, -3, 0)" stroke-opacity="0.15922415" stroke-linecap="round" stroke-linejoin="round"/>
    <path d="M 151.44017028808594 78.85603332519531 C 174.71287536621094 123.27486419677734 180.28001403808594 106.7094955444336 142.04356384277344 81.54903411865234" stroke-width="3.0" fill="none" stroke="rgb(-2, 2, 2)" stroke-opacity="0.095645405" stroke-linecap="round" stroke-linejoin="round"/>
    <path d="M 110.7207260131836 75.29700469970703 C 104.78559112548828 124.00408172607422 140.10671997070312 100.64019012451172 111.87853240966797 93.58247375488281" stroke-width="3.0" fill="none" stroke="rgb(0, -1, -1)" stroke-opacity="0.017291114" stroke-linecap="round" stroke-linejoin="round"/>
    <path d="M 187.0662078857422 47.367977142333984 C 168.89236450195312 54.88346481323242 201.27272033691406 80.89790344238281 181.89817810058594 56.19940948486328" stroke-width="3.0" fill="none" stroke="rgb(2, -1, -1)" stroke-opacity="0.10124689" stroke-linecap="round" stroke-linejoin="round"/>
    <path d="M 130.002685546875 69.46945190429688 C 172.31292724609375 39.47522735595703 162.77740478515625 40.211116790771484 125.55134582519531 63.96385192871094" stroke-width="3.0" fill="none" stroke="rgb(1, -1, 0)" stroke-opacity="0.07563253" stroke-linecap="round" stroke-linejoin="round"/>
    <path d="M 229.7144317626953 104.59796905517578 C 228.70843505859375 97.38372802734375 224.02108764648438 105.90094757080078 229.48220825195312 111.93716430664062" stroke-width="3.0" fill="none" stroke="rgb(0, 0, 0)" stroke-opacity="0.83773005" stroke-linecap="round" stroke-linejoin="round"/>
  </g>
</svg>
