<?xml version="1.0" ?>
<svg xmlns="http://www.w3.org/2000/svg" version="1.1" width="224" height="224">
  <defs/>
  <g>
    <path d="M 101.19507598876953 185.7300567626953 C 91.11498260498047 188.61666870117188 154.39324951171875 190.79428100585938 250.2808380126953 205.7886962890625" stroke-width="39.36845016479492" fill="none" stroke="rgb(120, 106, 46)" stroke-opacity="0.9602317" stroke-linecap="round" stroke-linejoin="round"/>
    <path d="M 112.57084655761719 109.54666900634766 C 108.57452392578125 159.62301635742188 114.25218963623047 103.02247619628906 96.90835571289062 158.0416259765625" stroke-width="5.230138778686523" fill="none" stroke="rgb(132, 73, 34)" stroke-opacity="0.8158149" stroke-linecap="round" stroke-linejoin="round"/>
    <path d="M 191.44607543945312 102.15164947509766 C 134.63453674316406 64.17279815673828 97.39131927490234 102.11984252929688 127.49864959716797 67.63805389404297" stroke-width="9.175894737243652" fill="none" stroke="rgb(67, 72, 3)" stroke-opacity="0.65593684" stroke-linecap="round" stroke-linejoin="round"/>
    <path d="M 217.81597900390625 62.21432113647461 C 213.5319061279297 45.67210388183594 172.71295166015625 43.03843307495117 208.7487335205078 67.8163833618164" stroke-width="5.970669746398926" fill="none" stroke="rgb(204, 112, 0)" stroke-opacity="0.80707866" stroke-linecap="round" stroke-linejoin="round"/>
    <path d="M 128.62673950195312 83.7906494140625 C 96.80912780761719 131.28099060058594 108.06658935546875 155.97828674316406 107.71563720703125 140.50270080566406" stroke-width="9.922439575195312" fill="none" stroke="rgb(13, 42, 5)" stroke-opacity="0.82615215" stroke-linecap="round" stroke-linejoin="round"/>
    <path d="M 99.11839294433594 116.18172454833984 C 95.63479614257812 167.3350830078125 120.95338439941406 148.69908142089844 108.96190643310547 150.58164978027344" stroke-width="8.216626167297363" fill="none" stroke="rgb(122, 54, 0)" stroke-opacity="0.4778904" stroke-linecap="round" stroke-linejoin="round"/>
    <path d="M 176.66563415527344 139.650390625 C 188.3953094482422 131.6387481689453 172.95721435546875 141.99208068847656 180.548583984375 146.51394653320312" stroke-width="2.182875394821167" fill="none" stroke="rgb(122, 172, 126)" stroke-opacity="0.23245816" stroke-linecap="round" stroke-linejoin="round"/>
    <path d="M 36.71028518676758 130.04727172851562 C 138.52035522460938 113.48401641845703 -25.127147674560547 120.30033874511719 78.1369400024414 124.82234954833984" stroke-width="2.7343478202819824" fill="none" stroke="rgb(127, 166, 200)" stroke-opacity="0.16681355" stroke-linecap="round" stroke-linejoin="round"/>
    <path d="M 191.8582763671875 163.3157501220703 C 306.8050231933594 133.60353088378906 195.81973266601562 68.61209106445312 206.8492889404297 180.1415557861328" stroke-width="2.3493521213531494" fill="none" stroke="rgb(213, 223, 150)" stroke-opacity="0.99968475" stroke-linecap="round" stroke-linejoin="round"/>
    <path d="M 100.97174835205078 177.59169006347656 C 201.6036376953125 176.55056762695312 47.94850158691406 186.48428344726562 217.9388427734375 173.26051330566406" stroke-width="27.422426223754883" fill="none" stroke="rgb(251, 217, 129)" stroke-opacity="0.71953183" stroke-linecap="round" stroke-linejoin="round"/>
    <path d="M 113.42826843261719 67.6747817993164 C 154.03756713867188 6.986807823181152 142.2167205810547 57.24754333496094 122.65628814697266 97.44172668457031" stroke-width="8.391622543334961" fill="none" stroke="rgb(180, 140, 121)" stroke-opacity="0.0037079041" stroke-linecap="round" stroke-linejoin="round"/>
    <path d="M 89.38069915771484 125.11116790771484 C 102.44725799560547 178.9311065673828 72.5384292602539 135.20664978027344 100.1064453125 170.74533081054688" stroke-width="8.753321647644043" fill="none" stroke="rgb(34, 2, 0)" stroke-opacity="1.0008085" stroke-linecap="round" stroke-linejoin="round"/>
    <path d="M 34.906917572021484 230.51583862304688 C 30.792694091796875 229.10736083984375 18.748878479003906 226.61363220214844 29.68198013305664 231.74728393554688" stroke-width="2.0" fill="none" stroke="rgb(56, 56, 30)" stroke-opacity="0.7415063" stroke-linecap="round" stroke-linejoin="round"/>
    <path d="M 4.743943214416504 190.0125732421875 C 99.70526123046875 218.59852600097656 106.9136734008789 180.8516387939453 105.02667236328125 205.59524536132812" stroke-width="21.13068199157715" fill="none" stroke="rgb(25, 101, 159)" stroke-opacity="0.32168862" stroke-linecap="round" stroke-linejoin="round"/>
    <path d="M 77.39263153076172 101.1446762084961 C 126.26263427734375 96.35222625732422 188.06356811523438 119.8110580444336 221.88221740722656 107.53787994384766" stroke-width="27.35796356201172" fill="none" stroke="rgb(60, 142, 191)" stroke-opacity="0.101771295" stroke-linecap="round" stroke-linejoin="round"/>
    <path d="M 69.10816192626953 61.71734619140625 C 133.26171875 66.99085998535156 112.20148468017578 56.80400085449219 120.99645233154297 65.2810287475586" stroke-width="7.213785171508789" fill="none" stroke="rgb(57, 99, 75)" stroke-opacity="0.37683192" stroke-linecap="round" stroke-linejoin="round"/>
    <path d="M 67.64530944824219 -2.1164486408233643 C -138.9205322265625 -4.678689002990723 -60.90314483642578 3.0284745693206787 179.15628051757812 4.002953052520752" stroke-width="13.090535163879395" fill="none" stroke="rgb(118, 96, -1)" stroke-opacity="0.92691517" stroke-linecap="round" stroke-linejoin="round"/>
    <path d="M 110.3447265625 124.02838897705078 C 110.77255249023438 153.53988647460938 86.24110412597656 143.12564086914062 109.17105865478516 113.84658813476562" stroke-width="9.35368824005127" fill="none" stroke="rgb(255, 81, 66)" stroke-opacity="0.4707025" stroke-linecap="round" stroke-linejoin="round"/>
    <path d="M 173.3452606201172 57.10496139526367 C 185.49803161621094 133.5452117919922 158.55604553222656 77.42041778564453 166.5382843017578 55.53218460083008" stroke-width="10.705707550048828" fill="none" stroke="rgb(87, 15, -6)" stroke-opacity="0.99139726" stroke-linecap="round" stroke-linejoin="round"/>
    <path d="M 122.55979919433594 81.06456756591797 C 71.1086196899414 100.05718231201172 98.9136734008789 168.20941162109375 103.20114135742188 108.14360809326172" stroke-width="8.96026611328125" fill="none" stroke="rgb(69, 8, 0)" stroke-opacity="0.65206873" stroke-linecap="round" stroke-linejoin="round"/>
    <path d="M 124.04534912109375 79.72847747802734 C 96.43401336669922 108.26624298095703 102.79351806640625 115.88972473144531 92.24636840820312 146.49789428710938" stroke-width="29.017412185668945" fill="none" stroke="rgb(40, 8, -1)" stroke-opacity="0.78601223" stroke-linecap="round" stroke-linejoin="round"/>
    <path d="M 194.48472595214844 56.05680847167969 C 223.75302124023438 104.29391479492188 154.9789581298828 85.44879150390625 223.90277099609375 93.22064971923828" stroke-width="6.80973482131958" fill="none" stroke="rgb(0, 5, -1)" stroke-opacity="1.0006249" stroke-linecap="round" stroke-linejoin="round"/>
    <path d="M 79.22618865966797 81.27855682373047 C 150.95086669921875 73.48401641845703 109.6376953125 80.55226135253906 84.33374786376953 87.5088882446289" stroke-width="1.88656747341156" fill="none" stroke="rgb(65, 62, 103)" stroke-opacity="0.61800593" stroke-linecap="round" stroke-linejoin="round"/>
    <path d="M 96.18456268310547 169.47657775878906 C 98.25157165527344 150.39967346191406 98.21707153320312 203.34800720214844 108.34122467041016 141.74717712402344" stroke-width="18.48147964477539" fill="none" stroke="rgb(213, 102, 35)" stroke-opacity="0.849666" stroke-linecap="round" stroke-linejoin="round"/>
    <path d="M 222.03982543945312 22.92976951599121 C -157.51104736328125 24.16629981994629 -14.59595775604248 43.1993408203125 95.43949890136719 1.0999363660812378" stroke-width="47.82481384277344" fill="none" stroke="rgb(76, 134, 213)" stroke-opacity="0.51838094" stroke-linecap="round" stroke-linejoin="round"/>
    <path d="M 174.8424530029297 51.45608901977539 C 137.37547302246094 46.58152770996094 205.80062866210938 55.816986083984375 145.5 79.5899887084961" stroke-width="19.84988021850586" fill="none" stroke="rgb(81, 18, -1)" stroke-opacity="0.6124108" stroke-linecap="round" stroke-linejoin="round"/>
    <path d="M 116.23234558105469 111.89372253417969 C 119.35435485839844 85.51100158691406 117.62293243408203 85.91294860839844 127.68281555175781 68.54939270019531" stroke-width="16.82204818725586" fill="none" stroke="rgb(12, 112, 169)" stroke-opacity="-0.009293944" stroke-linecap="round" stroke-linejoin="round"/>
    <path d="M 181.26336669921875 155.9696807861328 C 238.55810546875 192.0725555419922 126.86647033691406 131.2318115234375 213.64395141601562 151.257568359375" stroke-width="6.003159999847412" fill="none" stroke="rgb(109, 111, 16)" stroke-opacity="0.43570748" stroke-linecap="round" stroke-linejoin="round"/>
    <path d="M 191.4720458984375 103.64497375488281 C 148.3053436279297 73.95680236816406 111.19635009765625 79.1602554321289 110.01215362548828 99.98091125488281" stroke-width="7.322513580322266" fill="none" stroke="rgb(79, 17, 21)" stroke-opacity="0.8113258" stroke-linecap="round" stroke-linejoin="round"/>
    <path d="M 30.406375885009766 -3.3240013122558594 C -75.75223541259766 2.404587745666504 -59.077754974365234 15.194112777709961 21.379579544067383 -3.8317692279815674" stroke-width="7.650826930999756" fill="none" stroke="rgb(-2, 22, 52)" stroke-opacity="0.40223444" stroke-linecap="round" stroke-linejoin="round"/>
    <path d="M 154.0164337158203 88.6583251953125 C 203.72174072265625 136.65269470214844 178.40028381347656 136.3801727294922 195.95237731933594 159.1928253173828" stroke-width="5.701767921447754" fill="none" stroke="rgb(22, 26, 0)" stroke-opacity="0.95477563" stroke-linecap="round" stroke-linejoin="round"/>
    <path d="M -11.932219505310059 167.3931121826172 C 154.8064727783203 177.05335998535156 196.76283264160156 148.01345825195312 -4.894226551055908 150.03372192382812" stroke-width="5.933006286621094" fill="none" stroke="rgb(6, 73, 93)" stroke-opacity="0.13171175" stroke-linecap="round" stroke-linejoin="round"/>
    <path d="M 215.84434509277344 57.13134002685547 C 167.54367065429688 40.74085998535156 173.75668334960938 32.3537712097168 155.1901397705078 48.60560607910156" stroke-width="3.593923568725586" fill="none" stroke="rgb(6, -2, 4)" stroke-opacity="0.57610923" stroke-linecap="round" stroke-linejoin="round"/>
    <path d="M 215.8996124267578 87.31254577636719 C 141.62420654296875 49.02742385864258 228.45074462890625 92.98954010009766 260.9869384765625 77.56232452392578" stroke-width="29.97726821899414" fill="none" stroke="rgb(114, 33, -2)" stroke-opacity="0.9320463" stroke-linecap="round" stroke-linejoin="round"/>
    <path d="M 142.3349609375 72.19984436035156 C 112.09174346923828 95.13480377197266 138.16468811035156 93.35002899169922 107.0676040649414 39.06321334838867" stroke-width="5.996809959411621" fill="none" stroke="rgb(164, 127, 62)" stroke-opacity="0.11539085" stroke-linecap="round" stroke-linejoin="round"/>
    <path d="M 233.33523559570312 74.94738006591797 C 227.6901092529297 98.87406921386719 229.40658569335938 94.52811431884766 230.30380249023438 96.60879516601562" stroke-width="2.0" fill="none" stroke="rgb(0, 39, 36)" stroke-opacity="0.8408406" stroke-linecap="round" stroke-linejoin="round"/>
    <path d="M 120.95291900634766 68.11741638183594 C 16.89548110961914 53.19662857055664 83.2680435180664 60.268402099609375 15.930824279785156 53.38846969604492" stroke-width="17.70760154724121" fill="none" stroke="rgb(68, 96, 192)" stroke-opacity="0.29082188" stroke-linecap="round" stroke-linejoin="round"/>
    <path d="M 204.94073486328125 92.34929656982422 C 266.1302185058594 96.87059783935547 263.8356628417969 91.32675170898438 170.42738342285156 100.6528549194336" stroke-width="18.41974639892578" fill="none" stroke="rgb(46, 0, -2)" stroke-opacity="0.9505777" stroke-linecap="round" stroke-linejoin="round"/>
    <path d="M 180.15646362304688 138.17283630371094 C 59.49981689453125 141.47254943847656 104.3402328491211 126.13078308105469 100.0207290649414 105.47595977783203" stroke-width="9.512521743774414" fill="none" stroke="rgb(17, 78, 119)" stroke-opacity="0.10985589" stroke-linecap="round" stroke-linejoin="round"/>
    <path d="M 113.81061553955078 75.19065856933594 C 86.01603698730469 81.67506408691406 71.85079193115234 81.06851959228516 155.66055297851562 55.69134521484375" stroke-width="15.23801326751709" fill="none" stroke="rgb(4, 50, 45)" stroke-opacity="0.16094905" stroke-linecap="round" stroke-linejoin="round"/>
    <path d="M 98.4233627319336 142.5714569091797 C 62.767417907714844 101.29595184326172 100.31394958496094 127.01144409179688 83.53065490722656 149.37672424316406" stroke-width="1.8931020498275757" fill="none" stroke="rgb(180, 101, 53)" stroke-opacity="0.8144788" stroke-linecap="round" stroke-linejoin="round"/>
    <path d="M 103.60901641845703 95.7524642944336 C 91.30211639404297 71.2903060913086 94.4264144897461 43.52317428588867 106.83769226074219 117.59789276123047" stroke-width="14.8228178024292" fill="none" stroke="rgb(2, 47, 76)" stroke-opacity="0.12634021" stroke-linecap="round" stroke-linejoin="round"/>
    <path d="M 160.38975524902344 74.69883728027344 C 109.57247161865234 66.27926635742188 94.07455444335938 110.06533813476562 109.3879165649414 89.54875946044922" stroke-width="18.477596282958984" fill="none" stroke="rgb(4, 23, 53)" stroke-opacity="0.36285007" stroke-linecap="round" stroke-linejoin="round"/>
    <path d="M 150.67013549804688 93.1860122680664 C 141.6007537841797 45.04142761230469 153.33668518066406 109.8348388671875 164.23745727539062 59.51176452636719" stroke-width="7.708625793457031" fill="none" stroke="rgb(37, 9, 0)" stroke-opacity="0.8663725" stroke-linecap="round" stroke-linejoin="round"/>
    <path d="M 159.19676208496094 51.26015090942383 C 139.41036987304688 32.9886589050293 158.97537231445312 60.238319396972656 116.53640747070312 86.1378173828125" stroke-width="5.9333109855651855" fill="none" stroke="rgb(107, 52, 82)" stroke-opacity="0.7280718" stroke-linecap="round" stroke-linejoin="round"/>
    <path d="M 227.95855712890625 78.63163757324219 C 254.09310913085938 86.95781707763672 214.015380859375 100.48565673828125 202.88436889648438 83.5134048461914" stroke-width="12.73375415802002" fill="none" stroke="rgb(68, 24, 0)" stroke-opacity="0.7415838" stroke-linecap="round" stroke-linejoin="round"/>
    <path d="M 130.52110290527344 56.37314224243164 C 169.9604034423828 50.91796875 152.6651153564453 63.797874450683594 -18.33148956298828 55.57918167114258" stroke-width="31.860578536987305" fill="none" stroke="rgb(72, 137, 141)" stroke-opacity="0.16267407" stroke-linecap="round" stroke-linejoin="round"/>
    <path d="M -12.106863021850586 55.080039978027344 C 106.61676788330078 51.531044006347656 88.82778930664062 47.48396682739258 131.98582458496094 51.02328109741211" stroke-width="22.599611282348633" fill="none" stroke="rgb(163, 192, 241)" stroke-opacity="0.8585428" stroke-linecap="round" stroke-linejoin="round"/>
    <path d="M 177.38543701171875 180.07540893554688 C 165.44322204589844 181.96356201171875 175.56906127929688 181.8690185546875 242.44979858398438 176.40472412109375" stroke-width="26.203136444091797" fill="none" stroke="rgb(204, 204, 52)" stroke-opacity="0.656017" stroke-linecap="round" stroke-linejoin="round"/>
    <path d="M 230.3109130859375 45.830589294433594 C 228.24224853515625 46.627193450927734 223.4936981201172 50.57781982421875 226.38735961914062 44.714141845703125" stroke-width="2.0" fill="none" stroke="rgb(32, 28, 7)" stroke-opacity="0.86412984" stroke-linecap="round" stroke-linejoin="round"/>
    <path d="M 169.4184112548828 215.73814392089844 C 200.22396850585938 277.47406005859375 164.11090087890625 200.4214630126953 224.1435546875 205.4690704345703" stroke-width="41.38258361816406" fill="none" stroke="rgb(135, 209, -1)" stroke-opacity="0.30231255" stroke-linecap="round" stroke-linejoin="round"/>
    <path d="M 72.98583984375 157.84832763671875 C 92.51136779785156 136.86480712890625 141.83612060546875 175.51065063476562 98.58772277832031 134.4521942138672" stroke-width="3.7245490550994873" fill="none" stroke="rgb(225, 156, 144)" stroke-opacity="0.76680785" stroke-linecap="round" stroke-linejoin="round"/>
    <path d="M 136.35107421875 69.01944732666016 C 203.57337951660156 101.59667205810547 127.7613525390625 109.57127380371094 136.40858459472656 71.46493530273438" stroke-width="7.6583757400512695" fill="none" stroke="rgb(35, 14, -1)" stroke-opacity="0.65763557" stroke-linecap="round" stroke-linejoin="round"/>
    <path d="M 128.05905151367188 86.23486328125 C 98.2607192993164 126.32352447509766 122.64347839355469 77.04668426513672 164.4449462890625 103.72855377197266" stroke-width="7.389196872711182" fill="none" stroke="rgb(48, 20, 1)" stroke-opacity="1.003455" stroke-linecap="round" stroke-linejoin="round"/>
    <path d="M 127.64324951171875 100.57259368896484 C 70.13326263427734 130.2757568359375 83.24314880371094 149.08973693847656 84.55785369873047 83.82933807373047" stroke-width="8.867506980895996" fill="none" stroke="rgb(19, 37, 49)" stroke-opacity="-0.003742958" stroke-linecap="round" stroke-linejoin="round"/>
    <path d="M 186.31625366210938 139.0224151611328 C 266.089599609375 108.3722915649414 248.7146453857422 122.1947021484375 187.2711944580078 111.70404052734375" stroke-width="25.243131637573242" fill="none" stroke="rgb(0, 68, 122)" stroke-opacity="0.28094828" stroke-linecap="round" stroke-linejoin="round"/>
    <path d="M 75.41365814208984 103.95008087158203 C 131.38601684570312 48.86674499511719 105.40827941894531 101.70687866210938 82.10047149658203 110.88410949707031" stroke-width="2.4615108966827393" fill="none" stroke="rgb(44, 60, 9)" stroke-opacity="0.53092766" stroke-linecap="round" stroke-linejoin="round"/>
    <path d="M 181.41754150390625 51.55950927734375 C 209.86647033691406 45.354042053222656 132.75343322753906 34.64939880371094 185.08038330078125 67.9012451171875" stroke-width="6.225318431854248" fill="none" stroke="rgb(145, 11, -2)" stroke-opacity="0.39828193" stroke-linecap="round" stroke-linejoin="round"/>
    <path d="M 83.94019317626953 -8.00516414642334 C 81.75439453125 -8.399856567382812 78.01558685302734 -11.703583717346191 81.4151382446289 -13.949393272399902" stroke-width="2.0" fill="none" stroke="rgb(40, 46, 0)" stroke-opacity="0.8260591" stroke-linecap="round" stroke-linejoin="round"/>
    <path d="M 125.03433227539062 67.42167663574219 C 164.4111785888672 34.74304962158203 203.71302795410156 63.17723846435547 162.41439819335938 54.61976623535156" stroke-width="7.203734397888184" fill="none" stroke="rgb(92, 38, 41)" stroke-opacity="0.4630419" stroke-linecap="round" stroke-linejoin="round"/>
    <path d="M 151.3261260986328 44.758056640625 C 123.4730224609375 56.113258361816406 96.88922119140625 71.77798461914062 98.86250305175781 121.87183380126953" stroke-width="5.851884841918945" fill="none" stroke="rgb(-1, 2, 21)" stroke-opacity="0.9967598" stroke-linecap="round" stroke-linejoin="round"/>
    <path d="M 220.10960388183594 127.2270736694336 C 234.58343505859375 104.75586700439453 281.5340270996094 124.4217300415039 213.92388916015625 138.86106872558594" stroke-width="7.790361404418945" fill="none" stroke="rgb(156, 186, 214)" stroke-opacity="0.7400598" stroke-linecap="round" stroke-linejoin="round"/>
    <path d="M 130.40040588378906 69.25098419189453 C 87.26199340820312 91.14713287353516 111.51094818115234 75.9598617553711 116.5350341796875 83.72967529296875" stroke-width="4.022002220153809" fill="none" stroke="rgb(0, 18, 8)" stroke-opacity="0.11521633" stroke-linecap="round" stroke-linejoin="round"/>
    <path d="M 84.24108123779297 143.4415283203125 C 102.91444396972656 128.39292907714844 73.8064956665039 136.98941040039062 92.96733856201172 162.0652618408203" stroke-width="8.808560371398926" fill="none" stroke="rgb(1, 5, 6)" stroke-opacity="0.89006877" stroke-linecap="round" stroke-linejoin="round"/>
    <path d="M -22.418590545654297 130.95074462890625 C 147.00576782226562 134.76715087890625 92.73059844970703 131.1903076171875 81.04279327392578 212.7279052734375" stroke-width="9.479737281799316" fill="none" stroke="rgb(0, 25, 124)" stroke-opacity="0.09824774" stroke-linecap="round" stroke-linejoin="round"/>
    <path d="M 191.9138946533203 91.25208282470703 C 179.20204162597656 133.39817810058594 187.19375610351562 105.56168365478516 178.68544006347656 180.01173400878906" stroke-width="7.836932182312012" fill="none" stroke="rgb(134, 76, 36)" stroke-opacity="1.0041366" stroke-linecap="round" stroke-linejoin="round"/>
    <path d="M 86.95914459228516 179.72811889648438 C 97.38667297363281 123.44951629638672 57.9708366394043 109.83256530761719 77.84061431884766 118.68246459960938" stroke-width="2.28378963470459" fill="none" stroke="rgb(2, -1, 8)" stroke-opacity="0.37532374" stroke-linecap="round" stroke-linejoin="round"/>
    <path d="M 104.26580047607422 134.3887176513672 C 120.10639953613281 133.679931640625 80.2067642211914 76.22207641601562 94.41455078125 59.751625061035156" stroke-width="13.681520462036133" fill="none" stroke="rgb(3, 95, 139)" stroke-opacity="0.040518783" stroke-linecap="round" stroke-linejoin="round"/>
    <path d="M 143.70120239257812 80.28411865234375 C 162.51736450195312 38.825016021728516 166.82925415039062 41.185279846191406 160.4142608642578 95.68635559082031" stroke-width="7.3618998527526855" fill="none" stroke="rgb(212, 84, 8)" stroke-opacity="0.6939661" stroke-linecap="round" stroke-linejoin="round"/>
    <path d="M 109.78854370117188 144.42523193359375 C 104.3461685180664 163.0082550048828 98.45752716064453 104.04237365722656 139.29544067382812 87.20929718017578" stroke-width="5.779094219207764" fill="none" stroke="rgb(119, 27, -1)" stroke-opacity="1.0174876" stroke-linecap="round" stroke-linejoin="round"/>
    <path d="M 161.98739624023438 191.5310821533203 C 183.85415649414062 197.7355194091797 183.14169311523438 128.22061157226562 164.91168212890625 95.77479553222656" stroke-width="4.603719711303711" fill="none" stroke="rgb(39, 0, -1)" stroke-opacity="0.63944215" stroke-linecap="round" stroke-linejoin="round"/>
    <path d="M 97.36966705322266 77.29336547851562 C 148.60662841796875 34.93296432495117 129.41189575195312 41.381465911865234 62.31254959106445 90.27592468261719" stroke-width="15.493705749511719" fill="none" stroke="rgb(92, 141, 252)" stroke-opacity="0.030324789" stroke-linecap="round" stroke-linejoin="round"/>
    <path d="M 85.37344360351562 173.1356964111328 C 87.78141784667969 108.60601043701172 107.39395904541016 133.6246795654297 96.3424072265625 187.96995544433594" stroke-width="1.9313260316848755" fill="none" stroke="rgb(1, 3, 14)" stroke-opacity="0.9672083" stroke-linecap="round" stroke-linejoin="round"/>
    <path d="M 123.15382385253906 79.77467346191406 C 94.36463928222656 84.24961853027344 162.78720092773438 80.16716003417969 147.50547790527344 62.09432601928711" stroke-width="21.276264190673828" fill="none" stroke="rgb(27, 0, -1)" stroke-opacity="0.45547476" stroke-linecap="round" stroke-linejoin="round"/>
    <path d="M 151.50994873046875 68.95696258544922 C 101.3703842163086 93.55779266357422 101.98747253417969 99.5791015625 157.49420166015625 86.74952697753906" stroke-width="8.202737808227539" fill="none" stroke="rgb(127, 40, 3)" stroke-opacity="0.45037034" stroke-linecap="round" stroke-linejoin="round"/>
    <path d="M 218.3194580078125 73.55122375488281 C 250.40701293945312 77.2703857421875 156.7712860107422 35.36846160888672 227.02720642089844 85.84970092773438" stroke-width="20.867919921875" fill="none" stroke="rgb(161, 44, -1)" stroke-opacity="0.36393008" stroke-linecap="round" stroke-linejoin="round"/>
    <path d="M 176.36119079589844 125.8287353515625 C 169.22149658203125 109.61408233642578 174.26693725585938 122.98208618164062 148.102294921875 84.88579559326172" stroke-width="9.396224975585938" fill="none" stroke="rgb(31, 1, -1)" stroke-opacity="0.9205656" stroke-linecap="round" stroke-linejoin="round"/>
    <path d="M 111.96876525878906 181.7985382080078 C 75.76702117919922 221.08709716796875 101.84612274169922 184.60923767089844 85.83805847167969 214.45175170898438" stroke-width="7.819586753845215" fill="none" stroke="rgb(77, 91, 35)" stroke-opacity="0.3232275" stroke-linecap="round" stroke-linejoin="round"/>
    <path d="M 114.1458969116211 148.74681091308594 C 107.18620300292969 209.30296325683594 107.79654693603516 122.15519714355469 93.9124984741211 140.71408081054688" stroke-width="2.496936798095703" fill="none" stroke="rgb(67, -1, 0)" stroke-opacity="0.5037738" stroke-linecap="round" stroke-linejoin="round"/>
    <path d="M 121.40355682373047 74.47016143798828 C 141.04257202148438 101.8428726196289 119.10724639892578 70.73556518554688 97.42565155029297 127.04903411865234" stroke-width="8.561923027038574" fill="none" stroke="rgb(130, 7, 0)" stroke-opacity="0.27886245" stroke-linecap="round" stroke-linejoin="round"/>
    <path d="M 130.3531494140625 72.59368133544922 C 183.9901885986328 48.93787384033203 151.60189819335938 47.79823303222656 133.1236114501953 64.84970092773438" stroke-width="13.460134506225586" fill="none" stroke="rgb(125, 46, 24)" stroke-opacity="0.7707393" stroke-linecap="round" stroke-linejoin="round"/>
    <path d="M 91.96725463867188 208.37069702148438 C 206.9605712890625 223.33242797851562 174.22251892089844 207.90667724609375 243.85064697265625 227.4429168701172" stroke-width="19.31650733947754" fill="none" stroke="rgb(81, 48, 18)" stroke-opacity="0.6672062" stroke-linecap="round" stroke-linejoin="round"/>
    <path d="M 225.07212829589844 71.36023712158203 C 157.4143524169922 31.970935821533203 160.41184997558594 73.53341674804688 230.3251190185547 50.00435256958008" stroke-width="19.66851806640625" fill="none" stroke="rgb(144, 48, -1)" stroke-opacity="0.8866362" stroke-linecap="round" stroke-linejoin="round"/>
    <path d="M 131.3714141845703 217.9087371826172 C 231.4761199951172 205.989013671875 141.13690185546875 265.9808654785156 178.42044067382812 178.42152404785156" stroke-width="4.042149066925049" fill="none" stroke="rgb(104, 61, 33)" stroke-opacity="0.64789635" stroke-linecap="round" stroke-linejoin="round"/>
    <path d="M 135.2655792236328 85.77779388427734 C 81.06183624267578 132.12518310546875 87.61805725097656 129.64622497558594 117.27422332763672 75.52952575683594" stroke-width="4.378523349761963" fill="none" stroke="rgb(3, -1, 0)" stroke-opacity="0.21297261" stroke-linecap="round" stroke-linejoin="round"/>
    <path d="M 182.72897338867188 101.68756866455078 C 182.65748596191406 128.8521270751953 176.9961395263672 113.40003204345703 144.1885223388672 80.06458282470703" stroke-width="10.325871467590332" fill="none" stroke="rgb(14, 0, 0)" stroke-opacity="0.5739161" stroke-linecap="round" stroke-linejoin="round"/>
    <path d="M 49.98955535888672 41.19330978393555 C 129.0369415283203 62.113014221191406 118.90047454833984 34.82042694091797 35.67055892944336 48.682708740234375" stroke-width="15.274249076843262" fill="none" stroke="rgb(134, 175, 217)" stroke-opacity="0.13532566" stroke-linecap="round" stroke-linejoin="round"/>
    <path d="M 200.098876953125 51.65683364868164 C 222.53237915039062 135.63929748535156 175.96539306640625 126.2007064819336 184.8070831298828 116.00811004638672" stroke-width="20.700363159179688" fill="none" stroke="rgb(63, 14, 2)" stroke-opacity="0.059059475" stroke-linecap="round" stroke-linejoin="round"/>
    <path d="M -18.33034324645996 205.8377685546875 C 58.81047439575195 228.01171875 10.53474235534668 196.74810791015625 138.4257354736328 230.68988037109375" stroke-width="23.459293365478516" fill="none" stroke="rgb(4, 12, 21)" stroke-opacity="0.31725356" stroke-linecap="round" stroke-linejoin="round"/>
    <path d="M 125.40198516845703 64.77159118652344 C 178.1687469482422 36.333740234375 164.36668395996094 34.357154846191406 111.10174560546875 72.99742126464844" stroke-width="7.522825717926025" fill="none" stroke="rgb(-2, -2, 8)" stroke-opacity="0.34988666" stroke-linecap="round" stroke-linejoin="round"/>
    <path d="M 228.6163330078125 46.90591049194336 C 226.60658264160156 52.85045623779297 235.27471923828125 49.94097137451172 230.7700653076172 52.70896911621094" stroke-width="6.103504657745361" fill="none" stroke="rgb(82, 46, 58)" stroke-opacity="0.6091457" stroke-linecap="round" stroke-linejoin="round"/>
    <path d="M 128.11013793945312 80.17203521728516 C 189.35240173339844 100.70565795898438 203.05560302734375 86.56381225585938 141.80662536621094 77.57572937011719" stroke-width="11.981968879699707" fill="none" stroke="rgb(21, 0, -1)" stroke-opacity="0.2765038" stroke-linecap="round" stroke-linejoin="round"/>
    <path d="M 142.5967254638672 72.42899322509766 C 150.18096923828125 77.92636108398438 105.75397491455078 56.417396545410156 106.78511810302734 159.93621826171875" stroke-width="20.15032386779785" fill="none" stroke="rgb(110, 34, 0)" stroke-opacity="0.41857648" stroke-linecap="round" stroke-linejoin="round"/>
    <path d="M 179.8610076904297 47.16211700439453 C 170.1625518798828 51.67856216430664 175.76182556152344 57.2991943359375 172.22564697265625 93.39810180664062" stroke-width="7.136002540588379" fill="none" stroke="rgb(190, 109, 72)" stroke-opacity="0.6813357" stroke-linecap="round" stroke-linejoin="round"/>
    <path d="M 137.90728759765625 11.713520050048828 C 221.34097290039062 18.229700088500977 290.0822448730469 -3.0427849292755127 156.82278442382812 -34.864601135253906" stroke-width="6.59494686126709" fill="none" stroke="rgb(176, 202, 228)" stroke-opacity="0.5635107" stroke-linecap="round" stroke-linejoin="round"/>
    <path d="M 178.2445068359375 93.65155029296875 C 178.14141845703125 128.1012420654297 162.25320434570312 144.97621154785156 243.18252563476562 136.11825561523438" stroke-width="3.7602996826171875" fill="none" stroke="rgb(127, 116, 89)" stroke-opacity="0.34030855" stroke-linecap="round" stroke-linejoin="round"/>
    <path d="M 171.3682403564453 46.46813201904297 C 177.56410217285156 72.71652221679688 174.61354064941406 97.08795928955078 168.55393981933594 55.51526641845703" stroke-width="1.9716064929962158" fill="none" stroke="rgb(129, 67, 21)" stroke-opacity="0.35260475" stroke-linecap="round" stroke-linejoin="round"/>
    <path d="M 97.78203582763672 112.44538879394531 C 104.67266082763672 139.75738525390625 100.71863555908203 171.4807586669922 106.21026611328125 57.21887969970703" stroke-width="18.920942306518555" fill="none" stroke="rgb(0, 22, 20)" stroke-opacity="-0.022060303" stroke-linecap="round" stroke-linejoin="round"/>
    <path d="M 1.8459900617599487 196.44053649902344 C 134.03916931152344 190.9919891357422 51.74859619140625 186.64329528808594 94.69696044921875 186.84994506835938" stroke-width="11.349921226501465" fill="none" stroke="rgb(17, 51, 103)" stroke-opacity="0.27850106" stroke-linecap="round" stroke-linejoin="round"/>
    <path d="M 148.35333251953125 80.67257690429688 C 177.62741088867188 33.802574157714844 193.15887451171875 25.050689697265625 171.7047119140625 100.87871551513672" stroke-width="8.615731239318848" fill="none" stroke="rgb(103, 30, -2)" stroke-opacity="0.5349631" stroke-linecap="round" stroke-linejoin="round"/>
    <path d="M 74.3713150024414 39.96005630493164 C 56.09125900268555 -9.700456619262695 71.02027130126953 35.77903366088867 130.40719604492188 72.37572479248047" stroke-width="3.0111517906188965" fill="none" stroke="rgb(120, 174, 245)" stroke-opacity="0.07979071" stroke-linecap="round" stroke-linejoin="round"/>
    <path d="M 62.93053436279297 98.79386138916016 C -134.1730194091797 75.23065185546875 -57.821327209472656 162.9446258544922 50.45047378540039 159.99781799316406" stroke-width="71.47222137451172" fill="none" stroke="rgb(96, 132, 167)" stroke-opacity="0.4818483" stroke-linecap="round" stroke-linejoin="round"/>
    <path d="M 161.69729614257812 38.711978912353516 C 110.10002136230469 31.5113468170166 138.25277709960938 22.017223358154297 148.55010986328125 37.5104866027832" stroke-width="1.9385615587234497" fill="none" stroke="rgb(60, 119, 127)" stroke-opacity="0.043760642" stroke-linecap="round" stroke-linejoin="round"/>
    <path d="M 168.7130126953125 57.994529724121094 C 164.4711151123047 76.24658203125 153.2701416015625 82.47776794433594 166.68797302246094 92.7404556274414" stroke-width="14.731770515441895" fill="none" stroke="rgb(60, 6, -1)" stroke-opacity="0.4478212" stroke-linecap="round" stroke-linejoin="round"/>
    <path d="M -7.122069358825684 167.02940368652344 C -9.709425926208496 181.8489227294922 -7.786202430725098 179.5498809814453 -7.379422664642334 178.05458068847656" stroke-width="2.0" fill="none" stroke="rgb(33, 45, 38)" stroke-opacity="0.83951074" stroke-linecap="round" stroke-linejoin="round"/>
    <path d="M 231.81564331054688 84.02237701416016 C 170.0771026611328 55.28924560546875 214.09091186523438 103.44609069824219 239.1627197265625 76.34774780273438" stroke-width="18.36503791809082" fill="none" stroke="rgb(81, 6, -2)" stroke-opacity="0.35242438" stroke-linecap="round" stroke-linejoin="round"/>
    <path d="M 169.79730224609375 94.0507583618164 C 199.1333465576172 84.06417083740234 173.05728149414062 105.16741180419922 178.90057373046875 140.49305725097656" stroke-width="10.573006629943848" fill="none" stroke="rgb(109, 30, 0)" stroke-opacity="0.5446456" stroke-linecap="round" stroke-linejoin="round"/>
    <path d="M 185.6638641357422 88.263671875 C 192.52313232421875 121.87008666992188 182.45716857910156 85.17630767822266 176.79022216796875 90.62153625488281" stroke-width="20.603967666625977" fill="none" stroke="rgb(145, 57, 11)" stroke-opacity="0.5287387" stroke-linecap="round" stroke-linejoin="round"/>
    <path d="M 0.08136439323425293 57.25778579711914 C 228.08953857421875 55.005802154541016 9.543813705444336 25.961843490600586 236.9351348876953 30.612401962280273" stroke-width="8.237916946411133" fill="none" stroke="rgb(104, 144, 184)" stroke-opacity="0.09759673" stroke-linecap="round" stroke-linejoin="round"/>
    <path d="M 143.2538604736328 47.67142105102539 C 185.55242919921875 37.950653076171875 134.75704956054688 58.92283630371094 143.17388916015625 54.68350601196289" stroke-width="1.9308639764785767" fill="none" stroke="rgb(28, -2, 0)" stroke-opacity="0.39399064" stroke-linecap="round" stroke-linejoin="round"/>
    <path d="M 123.08130645751953 81.30198669433594 C 148.39987182617188 61.42128372192383 110.21781158447266 79.65670013427734 111.36492919921875 114.07040405273438" stroke-width="13.022534370422363" fill="none" stroke="rgb(131, 49, 22)" stroke-opacity="0.21226904" stroke-linecap="round" stroke-linejoin="round"/>
    <path d="M 108.0527114868164 90.26953887939453 C 150.5675048828125 30.859615325927734 145.93035888671875 35.79252624511719 111.8648910522461 88.68144226074219" stroke-width="8.893914222717285" fill="none" stroke="rgb(53, 40, 83)" stroke-opacity="0.18931131" stroke-linecap="round" stroke-linejoin="round"/>
    <path d="M 188.77088928222656 102.79530334472656 C 147.50025939941406 76.9104995727539 210.9275665283203 81.34171295166016 173.1486358642578 47.76596450805664" stroke-width="7.014124393463135" fill="none" stroke="rgb(58, 0, 0)" stroke-opacity="0.28207728" stroke-linecap="round" stroke-linejoin="round"/>
    <path d="M 36.43714904785156 -9.428568840026855 C 51.31068801879883 -2.817394495010376 57.47846603393555 -3.7994635105133057 45.645694732666016 -7.754281044006348" stroke-width="2.0" fill="none" stroke="rgb(33, 39, 37)" stroke-opacity="0.8383923" stroke-linecap="round" stroke-linejoin="round"/>
    <path d="M -12.124009132385254 189.840576171875 C 144.65737915039062 172.98536682128906 -26.190319061279297 188.82154846191406 25.82040023803711 188.1560821533203" stroke-width="2.1963188648223877" fill="none" stroke="rgb(43, 90, -1)" stroke-opacity="0.4195278" stroke-linecap="round" stroke-linejoin="round"/>
    <path d="M 115.85464477539062 206.7825927734375 C 207.29505920410156 217.84600830078125 89.53023529052734 196.3085479736328 196.2587432861328 213.9847412109375" stroke-width="18.31615447998047" fill="none" stroke="rgb(37, 94, 2)" stroke-opacity="0.27347696" stroke-linecap="round" stroke-linejoin="round"/>
    <path d="M -6.752915382385254 201.43650817871094 C -7.982945919036865 203.32118225097656 -7.647939682006836 203.46754455566406 -8.13676643371582 214.83042907714844" stroke-width="2.0" fill="none" stroke="rgb(27, 25, 20)" stroke-opacity="0.89328223" stroke-linecap="round" stroke-linejoin="round"/>
    <path d="M 230.2122344970703 138.06619262695312 C 195.7350616455078 73.67835235595703 214.13076782226562 134.51031494140625 224.9822235107422 106.86164093017578" stroke-width="3.1176517009735107" fill="none" stroke="rgb(75, 117, 58)" stroke-opacity="0.120467044" stroke-linecap="round" stroke-linejoin="round"/>
    <path d="M 5.671004295349121 111.79540252685547 C 107.05984497070312 112.69992065429688 130.8820343017578 100.32318115234375 50.04813003540039 99.86968231201172" stroke-width="5.4427571296691895" fill="none" stroke="rgb(47, 104, 160)" stroke-opacity="0.08702434" stroke-linecap="round" stroke-linejoin="round"/>
    <path d="M 90.22328186035156 145.51858520507812 C 99.48881530761719 96.23812866210938 135.65280151367188 89.27659606933594 62.341102600097656 110.51978302001953" stroke-width="4.233115196228027" fill="none" stroke="rgb(83, 58, 2)" stroke-opacity="0.06261442" stroke-linecap="round" stroke-linejoin="round"/>
    <path d="M 105.57677459716797 133.97528076171875 C 95.5380859375 152.8879852294922 93.35579681396484 108.38945770263672 110.8031997680664 155.361572265625" stroke-width="7.869770526885986" fill="none" stroke="rgb(209, 89, 57)" stroke-opacity="0.4348549" stroke-linecap="round" stroke-linejoin="round"/>
    <path d="M 119.11575317382812 169.8728790283203 C 335.4083557128906 170.53419494628906 266.6094055175781 186.51690673828125 135.1172637939453 123.84051513671875" stroke-width="52.19525146484375" fill="none" stroke="rgb(4, 46, 104)" stroke-opacity="0.26130688" stroke-linecap="round" stroke-linejoin="round"/>
    <path d="M 185.8199005126953 85.75247955322266 C 186.29458618164062 132.3879852294922 177.74673461914062 133.51849365234375 180.7520294189453 105.72571563720703" stroke-width="7.561729431152344" fill="none" stroke="rgb(119, 32, 0)" stroke-opacity="0.47017267" stroke-linecap="round" stroke-linejoin="round"/>
    <path d="M 112.90508270263672 118.71537017822266 C 93.15937042236328 131.2836151123047 113.38570404052734 137.67100524902344 109.53761291503906 164.0624542236328" stroke-width="8.9508638381958" fill="none" stroke="rgb(147, 42, 10)" stroke-opacity="0.45127037" stroke-linecap="round" stroke-linejoin="round"/>
    <path d="M 99.8164291381836 158.6575164794922 C 83.62699890136719 157.05763244628906 98.13374328613281 155.876220703125 94.28006744384766 201.3717498779297" stroke-width="19.037181854248047" fill="none" stroke="rgb(96, 30, 0)" stroke-opacity="0.44458377" stroke-linecap="round" stroke-linejoin="round"/>
    <path d="M 228.40199279785156 75.12905883789062 C 226.8510284423828 80.43313598632812 231.85252380371094 74.31893157958984 230.9234619140625 76.4043960571289" stroke-width="2.0" fill="none" stroke="rgb(65, 60, 32)" stroke-opacity="0.7428767" stroke-linecap="round" stroke-linejoin="round"/>
    <path d="M 226.74253845214844 82.25836181640625 C 208.7344207763672 80.41552734375 180.12620544433594 78.82691192626953 239.05441284179688 64.45630645751953" stroke-width="27.401710510253906" fill="none" stroke="rgb(104, 26, -2)" stroke-opacity="0.29244155" stroke-linecap="round" stroke-linejoin="round"/>
    <path d="M 188.13424682617188 67.9039077758789 C 290.168212890625 75.74224090576172 240.81468200683594 31.210763931274414 162.0870361328125 88.4399642944336" stroke-width="14.328282356262207" fill="none" stroke="rgb(126, 50, 1)" stroke-opacity="0.3130111" stroke-linecap="round" stroke-linejoin="round"/>
  </g>
</svg>
