<?xml version="1.0" ?>
<svg xmlns="http://www.w3.org/2000/svg" version="1.1" width="224" height="224">
  <defs/>
  <g>
    <path d="M 0.9105856418609619 206.76199340820312 C 120.27725219726562 192.60870361328125 111.05343627929688 206.85498046875 1.7585475444793701 213.2728271484375" stroke-width="3.0" fill="none" stroke="rgb(-3, 0, 4)" stroke-opacity="0.0748613" stroke-linecap="round" stroke-linejoin="round"/>
    <path d="M 106.28771209716797 134.82843017578125 C 97.8177719116211 123.72358703613281 96.6670913696289 112.86424255371094 90.48045349121094 160.39622497558594" stroke-width="3.0" fill="none" stroke="rgb(1, -1, 0)" stroke-opacity="0.14891872" stroke-linecap="round" stroke-linejoin="round"/>
    <path d="M 166.78782653808594 99.5449447631836 C 107.5632095336914 101.46765899658203 132.60928344726562 57.74187088012695 176.00843811035156 71.3508071899414" stroke-width="3.0" fill="none" stroke="rgb(1, -1, 0)" stroke-opacity="0.046478886" stroke-linecap="round" stroke-linejoin="round"/>
    <path d="M 152.44773864746094 54.87428665161133 C 165.48265075683594 106.99323272705078 163.59292602539062 96.59111022949219 163.27383422851562 110.0071029663086" stroke-width="3.0" fill="none" stroke="rgb(0, 0, 0)" stroke-opacity="0.04233759" stroke-linecap="round" stroke-linejoin="round"/>
    <path d="M 208.42410278320312 147.62921142578125 C 183.60836791992188 143.05230712890625 217.6573028564453 132.3194580078125 176.40467834472656 99.68933868408203" stroke-width="3.0" fill="none" stroke="rgb(1, 0, 0)" stroke-opacity="0.25616732" stroke-linecap="round" stroke-linejoin="round"/>
    <path d="M 103.18476867675781 145.78260803222656 C 116.45562744140625 176.8547821044922 118.47080993652344 150.23831176757812 111.47598266601562 126.50989532470703" stroke-width="3.0" fill="none" stroke="rgb(2, -2, 0)" stroke-opacity="0.21514823" stroke-linecap="round" stroke-linejoin="round"/>
    <path d="M 194.12310791015625 123.5139389038086 C 207.34519958496094 180.59832763671875 227.77716064453125 170.17660522460938 208.5687713623047 184.5343475341797" stroke-width="3.0" fill="none" stroke="rgb(0, 0, 1)" stroke-opacity="0.4328666" stroke-linecap="round" stroke-linejoin="round"/>
    <path d="M 204.1585235595703 99.21759796142578 C 200.02389526367188 110.40670776367188 207.79359436035156 155.44918823242188 211.75535583496094 184.66839599609375" stroke-width="3.0" fill="none" stroke="rgb(1, -1, 1)" stroke-opacity="0.365799" stroke-linecap="round" stroke-linejoin="round"/>
    <path d="M 102.07778930664062 183.32037353515625 C 98.59083557128906 178.00230407714844 111.1894760131836 163.80308532714844 100.7181625366211 186.376708984375" stroke-width="3.0" fill="none" stroke="rgb(3, -2, 0)" stroke-opacity="0.2982903" stroke-linecap="round" stroke-linejoin="round"/>
    <path d="M 185.29470825195312 145.42935180664062 C 164.63278198242188 241.9088592529297 155.64053344726562 245.6577911376953 183.4412841796875 144.14892578125" stroke-width="3.0" fill="none" stroke="rgb(0, 0, 0)" stroke-opacity="0.04898533" stroke-linecap="round" stroke-linejoin="round"/>
    <path d="M 175.68797302246094 112.90398406982422 C 194.6595458984375 30.552885055541992 173.79299926757812 41.099281311035156 225.83023071289062 57.6478271484375" stroke-width="3.0" fill="none" stroke="rgb(0, -2, 1)" stroke-opacity="0.06851584" stroke-linecap="round" stroke-linejoin="round"/>
    <path d="M 74.64872741699219 152.6017608642578 C 93.94752502441406 133.35438537597656 92.28704071044922 81.34107971191406 96.09886169433594 153.5921630859375" stroke-width="3.0" fill="none" stroke="rgb(0, -1, 1)" stroke-opacity="0.25743166" stroke-linecap="round" stroke-linejoin="round"/>
    <path d="M 52.12617874145508 231.80120849609375 C 49.74795913696289 231.97369384765625 44.7193717956543 233.55322265625 29.224489212036133 231.10443115234375" stroke-width="3.0" fill="none" stroke="rgb(0, 0, 0)" stroke-opacity="0.92176807" stroke-linecap="round" stroke-linejoin="round"/>
    <path d="M 127.81892395019531 214.7971954345703 C 326.86822509765625 212.5288848876953 319.5177917480469 194.78399658203125 102.51300811767578 192.94044494628906" stroke-width="3.0" fill="none" stroke="rgb(0, 0, 1)" stroke-opacity="0.17593062" stroke-linecap="round" stroke-linejoin="round"/>
    <path d="M 140.9774169921875 45.98947525024414 C 77.06558227539062 104.6120834350586 90.52894592285156 109.66585540771484 119.07967376708984 70.60204315185547" stroke-width="3.0" fill="none" stroke="rgb(0, 0, 0)" stroke-opacity="0.43521705" stroke-linecap="round" stroke-linejoin="round"/>
    <path d="M 177.99667358398438 126.98704528808594 C 167.27317810058594 101.99101257324219 137.33644104003906 76.49234771728516 182.1124725341797 135.20387268066406" stroke-width="3.0" fill="none" stroke="rgb(2, -1, 0)" stroke-opacity="0.53481126" stroke-linecap="round" stroke-linejoin="round"/>
    <path d="M 223.74400329589844 -13.36328411102295 C 50.692256927490234 -13.39302921295166 18.701984405517578 -8.278938293457031 219.42495727539062 -13.732556343078613" stroke-width="3.0" fill="none" stroke="rgb(0, 0, 0)" stroke-opacity="0.28935462" stroke-linecap="round" stroke-linejoin="round"/>
    <path d="M 119.85274505615234 61.137908935546875 C 84.6277084350586 160.5841522216797 67.35243225097656 151.23403930664062 122.82967376708984 66.15602111816406" stroke-width="3.0" fill="none" stroke="rgb(0, -2, 2)" stroke-opacity="0.23005094" stroke-linecap="round" stroke-linejoin="round"/>
    <path d="M 120.03054809570312 64.15577697753906 C 132.3141632080078 58.86195755004883 121.40225982666016 77.50682067871094 151.25485229492188 47.035274505615234" stroke-width="3.0" fill="none" stroke="rgb(0, 0, 0)" stroke-opacity="0.027777355" stroke-linecap="round" stroke-linejoin="round"/>
    <path d="M 132.37722778320312 83.0797348022461 C 167.57244873046875 79.72101593017578 165.38209533691406 103.06301879882812 174.38436889648438 136.8492889404297" stroke-width="3.0" fill="none" stroke="rgb(0, -1, 0)" stroke-opacity="0.19930921" stroke-linecap="round" stroke-linejoin="round"/>
    <path d="M 117.86998748779297 77.86900329589844 C 81.64537048339844 162.1645965576172 95.008544921875 217.8583526611328 103.81926727294922 114.41765594482422" stroke-width="3.0" fill="none" stroke="rgb(1, -1, 0)" stroke-opacity="0.06678999" stroke-linecap="round" stroke-linejoin="round"/>
    <path d="M 234.706787109375 76.02870178222656 C 226.4558868408203 79.02586364746094 229.36599731445312 83.94005584716797 232.41720581054688 76.73536682128906" stroke-width="3.0" fill="none" stroke="rgb(0, 0, 0)" stroke-opacity="0.55463606" stroke-linecap="round" stroke-linejoin="round"/>
    <path d="M 75.94075775146484 100.67174530029297 C 119.57949829101562 66.24000549316406 104.60006713867188 96.03128051757812 142.30419921875 45.98860549926758" stroke-width="3.0" fill="none" stroke="rgb(0, -1, 1)" stroke-opacity="0.20228799" stroke-linecap="round" stroke-linejoin="round"/>
    <path d="M 198.5749969482422 158.0764617919922 C 141.02978515625 160.3052215576172 152.9073944091797 160.6656951904297 201.79049682617188 149.84458923339844" stroke-width="3.0" fill="none" stroke="rgb(0, 0, 0)" stroke-opacity="0.06610251" stroke-linecap="round" stroke-linejoin="round"/>
    <path d="M -7.648181915283203 11.61488151550293 C 151.237060546875 5.568272590637207 97.76589965820312 16.735164642333984 44.70784378051758 -11.330097198486328" stroke-width="3.0" fill="none" stroke="rgb(-1, 3, -3)" stroke-opacity="0.16811886" stroke-linecap="round" stroke-linejoin="round"/>
    <path d="M 120.36384582519531 75.84201049804688 C 136.3336944580078 53.911766052246094 161.96673583984375 38.045494079589844 177.71365356445312 38.77488708496094" stroke-width="3.0" fill="none" stroke="rgb(2, -2, 2)" stroke-opacity="0.18678612" stroke-linecap="round" stroke-linejoin="round"/>
    <path d="M 163.46253967285156 85.40283966064453 C 134.0512237548828 68.89676666259766 148.60977172851562 67.73013305664062 117.54399871826172 105.40214538574219" stroke-width="3.0" fill="none" stroke="rgb(2, -1, 0)" stroke-opacity="0.09804238" stroke-linecap="round" stroke-linejoin="round"/>
    <path d="M 95.87653350830078 119.97905731201172 C 127.899169921875 125.55142974853516 104.63616180419922 163.00759887695312 86.87730407714844 210.26170349121094" stroke-width="3.0" fill="none" stroke="rgb(3, -1, 0)" stroke-opacity="0.08496717" stroke-linecap="round" stroke-linejoin="round"/>
    <path d="M 224.24684143066406 155.91720581054688 C 163.68069458007812 161.3369903564453 228.10614013671875 66.07572937011719 196.77658081054688 52.84012222290039" stroke-width="3.0" fill="none" stroke="rgb(-1, -1, 2)" stroke-opacity="0.08496511" stroke-linecap="round" stroke-linejoin="round"/>
    <path d="M 227.5167236328125 7.671768665313721 C 82.766845703125 5.786928176879883 254.89410400390625 4.235927104949951 182.85098266601562 1.6812156438827515" stroke-width="3.0" fill="none" stroke="rgb(-1, 2, -3)" stroke-opacity="0.19424714" stroke-linecap="round" stroke-linejoin="round"/>
    <path d="M 213.72607421875 184.10316467285156 C 211.2566680908203 131.02305603027344 190.7784881591797 108.24463653564453 168.96392822265625 115.44680786132812" stroke-width="3.0" fill="none" stroke="rgb(1, 0, 0)" stroke-opacity="0.34677726" stroke-linecap="round" stroke-linejoin="round"/>
    <path d="M -5.259495258331299 188.31312561035156 C 115.32242584228516 177.88987731933594 -41.382896423339844 184.23831176757812 82.12872314453125 183.88438415527344" stroke-width="3.0" fill="none" stroke="rgb(-1, 1, 0)" stroke-opacity="0.18981542" stroke-linecap="round" stroke-linejoin="round"/>
    <path d="M 228.055908203125 45.381282806396484 C 196.8289337158203 59.96821975708008 178.8394317626953 26.173095703125 173.7430419921875 59.40846633911133" stroke-width="3.0" fill="none" stroke="rgb(1, 0, 0)" stroke-opacity="0.16156213" stroke-linecap="round" stroke-linejoin="round"/>
    <path d="M 73.7475357055664 108.24845886230469 C 95.02760314941406 64.9109115600586 162.02493286132812 39.8633918762207 172.5907440185547 56.4847297668457" stroke-width="3.0" fill="none" stroke="rgb(0, -1, 1)" stroke-opacity="0.026828347" stroke-linecap="round" stroke-linejoin="round"/>
    <path d="M 154.4421844482422 95.29369354248047 C 105.22911071777344 71.75174713134766 107.96229553222656 78.6719741821289 120.84886169433594 62.20557403564453" stroke-width="3.0" fill="none" stroke="rgb(0, 0, 0)" stroke-opacity="0.02643032" stroke-linecap="round" stroke-linejoin="round"/>
    <path d="M 127.78515625 99.98069763183594 C 143.98788452148438 83.48234558105469 164.53611755371094 108.83548736572266 159.8136749267578 93.62010192871094" stroke-width="3.0" fill="none" stroke="rgb(2, -2, 1)" stroke-opacity="0.5391678" stroke-linecap="round" stroke-linejoin="round"/>
    <path d="M 103.27590942382812 129.7501220703125 C 122.1666030883789 72.63612365722656 149.8023223876953 101.04470825195312 76.9867172241211 87.81696319580078" stroke-width="3.0" fill="none" stroke="rgb(1, -1, 0)" stroke-opacity="0.0652409" stroke-linecap="round" stroke-linejoin="round"/>
    <path d="M 164.27105712890625 79.4631576538086 C 176.88455200195312 121.18106079101562 216.90695190429688 135.97804260253906 181.55914306640625 99.53557586669922" stroke-width="3.0" fill="none" stroke="rgb(0, 0, 1)" stroke-opacity="0.20324549" stroke-linecap="round" stroke-linejoin="round"/>
    <path d="M 82.83369445800781 128.509521484375 C 97.97908782958984 102.20043182373047 84.46569061279297 144.4307403564453 78.71739196777344 119.35331726074219" stroke-width="3.0" fill="none" stroke="rgb(0, 0, 0)" stroke-opacity="0.37316746" stroke-linecap="round" stroke-linejoin="round"/>
    <path d="M 174.76441955566406 98.14433288574219 C 178.9689483642578 39.43595886230469 139.37420654296875 59.1640739440918 178.74208068847656 86.73848724365234" stroke-width="3.0" fill="none" stroke="rgb(1, -1, 1)" stroke-opacity="0.076926045" stroke-linecap="round" stroke-linejoin="round"/>
    <path d="M 84.98686981201172 194.79763793945312 C 92.66368865966797 136.94180297851562 70.66474151611328 172.77694702148438 101.64434051513672 144.02197265625" stroke-width="3.0" fill="none" stroke="rgb(1, -1, 1)" stroke-opacity="0.28900778" stroke-linecap="round" stroke-linejoin="round"/>
    <path d="M 172.99581909179688 102.6046371459961 C 213.91236877441406 116.11747741699219 196.7150421142578 110.3807601928711 198.0218963623047 95.07556915283203" stroke-width="3.0" fill="none" stroke="rgb(0, 0, 0)" stroke-opacity="0.14951764" stroke-linecap="round" stroke-linejoin="round"/>
    <path d="M 125.04192352294922 58.33491897583008 C 82.32585144042969 170.6660919189453 78.3436279296875 118.87763977050781 123.36009216308594 57.407779693603516" stroke-width="3.0" fill="none" stroke="rgb(2, -2, 3)" stroke-opacity="0.27496168" stroke-linecap="round" stroke-linejoin="round"/>
    <path d="M 231.00169372558594 74.75968170166016 C 233.33636474609375 70.76734924316406 231.39892578125 75.90595245361328 234.14833068847656 78.6522445678711" stroke-width="3.0" fill="none" stroke="rgb(0, 0, 0)" stroke-opacity="0.7837481" stroke-linecap="round" stroke-linejoin="round"/>
    <path d="M 159.501220703125 84.12538146972656 C 192.95814514160156 40.11030578613281 178.26925659179688 77.3090591430664 207.86387634277344 97.63663482666016" stroke-width="3.0" fill="none" stroke="rgb(0, 0, 0)" stroke-opacity="0.038248476" stroke-linecap="round" stroke-linejoin="round"/>
    <path d="M 110.79466247558594 86.26566314697266 C 55.545841217041016 116.90029907226562 88.0992660522461 95.44715118408203 100.98147583007812 96.23567962646484" stroke-width="3.0" fill="none" stroke="rgb(0, 0, 1)" stroke-opacity="0.36122173" stroke-linecap="round" stroke-linejoin="round"/>
    <path d="M 163.17381286621094 108.895751953125 C 148.9401397705078 13.904585838317871 180.98541259765625 10.77281665802002 172.35101318359375 128.3553009033203" stroke-width="3.0" fill="none" stroke="rgb(2, -2, 0)" stroke-opacity="0.056259006" stroke-linecap="round" stroke-linejoin="round"/>
    <path d="M 155.54705810546875 43.91751480102539 C 101.38555908203125 67.8553237915039 167.32044982910156 23.78030014038086 193.07080078125 45.80915832519531" stroke-width="3.0" fill="none" stroke="rgb(0, 0, 2)" stroke-opacity="0.34304786" stroke-linecap="round" stroke-linejoin="round"/>
    <path d="M 116.16426086425781 180.15077209472656 C 73.69236755371094 180.7792510986328 123.31990814208984 161.71176147460938 91.67462921142578 149.9705047607422" stroke-width="3.0" fill="none" stroke="rgb(0, 0, 0)" stroke-opacity="0.10145619" stroke-linecap="round" stroke-linejoin="round"/>
    <path d="M 196.8697967529297 56.61250686645508 C 136.4821319580078 77.9693603515625 95.08912658691406 95.063232421875 158.85079956054688 75.66532897949219" stroke-width="3.0" fill="none" stroke="rgb(1, 0, 0)" stroke-opacity="0.034658134" stroke-linecap="round" stroke-linejoin="round"/>
    <path d="M 190.04183959960938 190.10397338867188 C -18.113317489624023 223.9341583251953 164.040283203125 175.92335510253906 40.96090316772461 191.37258911132812" stroke-width="3.0" fill="none" stroke="rgb(0, 0, 0)" stroke-opacity="0.12667283" stroke-linecap="round" stroke-linejoin="round"/>
    <path d="M 105.28919982910156 176.5126953125 C 123.91027069091797 111.7712631225586 111.49917602539062 107.51485443115234 80.1336669921875 150.69996643066406" stroke-width="3.0" fill="none" stroke="rgb(2, -1, 0)" stroke-opacity="0.10343604" stroke-linecap="round" stroke-linejoin="round"/>
    <path d="M 157.79803466796875 73.71357727050781 C 86.70287322998047 73.7483139038086 124.1099624633789 83.20223236083984 148.4750213623047 71.20057678222656" stroke-width="3.0" fill="none" stroke="rgb(2, -1, 0)" stroke-opacity="0.036101498" stroke-linecap="round" stroke-linejoin="round"/>
    <path d="M 143.78668212890625 75.78816986083984 C 146.1416473388672 110.61984252929688 97.7896499633789 90.69894409179688 182.85696411132812 72.86720275878906" stroke-width="3.0" fill="none" stroke="rgb(0, 0, 0)" stroke-opacity="0.031388175" stroke-linecap="round" stroke-linejoin="round"/>
    <path d="M 87.74883270263672 86.11918640136719 C 105.21321868896484 78.10491943359375 84.19979858398438 92.3728256225586 84.28277587890625 130.23973083496094" stroke-width="3.0" fill="none" stroke="rgb(2, 0, 0)" stroke-opacity="0.31948116" stroke-linecap="round" stroke-linejoin="round"/>
    <path d="M 191.72789001464844 115.82588958740234 C 147.166748046875 95.945068359375 166.9868621826172 119.83648681640625 185.50689697265625 117.11161804199219" stroke-width="3.0" fill="none" stroke="rgb(0, 0, 0)" stroke-opacity="0.4115294" stroke-linecap="round" stroke-linejoin="round"/>
    <path d="M 180.47850036621094 91.040283203125 C 118.17174530029297 86.75605773925781 86.16167449951172 104.31865692138672 149.8191375732422 123.59778594970703" stroke-width="3.0" fill="none" stroke="rgb(0, 0, 0)" stroke-opacity="0.06061493" stroke-linecap="round" stroke-linejoin="round"/>
    <path d="M 172.6564483642578 50.8040885925293 C 118.76345825195312 59.84085464477539 81.11672973632812 86.82926940917969 146.19485473632812 40.92152786254883" stroke-width="3.0" fill="none" stroke="rgb(0, 0, 0)" stroke-opacity="0.019543018" stroke-linecap="round" stroke-linejoin="round"/>
    <path d="M 30.734540939331055 -9.377166748046875 C 32.72356414794922 -2.120093584060669 33.46856689453125 -13.106544494628906 38.33473205566406 -14.751662254333496" stroke-width="3.0" fill="none" stroke="rgb(0, 0, 0)" stroke-opacity="0.7795964" stroke-linecap="round" stroke-linejoin="round"/>
    <path d="M 215.52859497070312 56.31404495239258 C 277.4585876464844 63.8900032043457 254.91114807128906 30.913881301879883 242.23318481445312 24.913963317871094" stroke-width="3.0" fill="none" stroke="rgb(1, 0, 0)" stroke-opacity="0.02492556" stroke-linecap="round" stroke-linejoin="round"/>
    <path d="M 167.62359619140625 42.54718017578125 C 119.70658111572266 68.32530212402344 106.24291229248047 64.31379699707031 90.59539031982422 109.56658172607422" stroke-width="3.0" fill="none" stroke="rgb(0, -1, 1)" stroke-opacity="0.26545888" stroke-linecap="round" stroke-linejoin="round"/>
    <path d="M 166.7060546875 102.46090698242188 C 188.89654541015625 164.16253662109375 176.14266967773438 188.52183532714844 170.06106567382812 82.25277709960938" stroke-width="3.0" fill="none" stroke="rgb(0, 0, 0)" stroke-opacity="0.29605564" stroke-linecap="round" stroke-linejoin="round"/>
    <path d="M 107.1173324584961 120.93350219726562 C 111.055908203125 81.59852600097656 100.06440734863281 40.10838317871094 146.57647705078125 74.77951049804688" stroke-width="3.0" fill="none" stroke="rgb(0, -1, 0)" stroke-opacity="0.03553708" stroke-linecap="round" stroke-linejoin="round"/>
    <path d="M 5.560284614562988 123.2310562133789 C 26.63855743408203 128.79244995117188 22.527996063232422 129.231689453125 7.2329912185668945 133.06854248046875" stroke-width="3.0" fill="none" stroke="rgb(0, 0, 0)" stroke-opacity="0.018139135" stroke-linecap="round" stroke-linejoin="round"/>
    <path d="M 104.69884490966797 171.239990234375 C 179.1514434814453 169.5614776611328 166.2414093017578 175.21356201171875 232.17855834960938 164.6365509033203" stroke-width="3.0" fill="none" stroke="rgb(-1, 0, 2)" stroke-opacity="0.08482705" stroke-linecap="round" stroke-linejoin="round"/>
    <path d="M 169.63461303710938 183.30996704101562 C 190.68101501464844 150.61801147460938 183.05096435546875 22.120176315307617 177.34085083007812 177.28233337402344" stroke-width="3.0" fill="none" stroke="rgb(1, -1, 1)" stroke-opacity="0.41510454" stroke-linecap="round" stroke-linejoin="round"/>
    <path d="M 155.0049285888672 95.77320098876953 C 190.88136291503906 141.2835693359375 184.2674560546875 78.53372192382812 176.25050354003906 173.40380859375" stroke-width="3.0" fill="none" stroke="rgb(0, 0, 1)" stroke-opacity="0.2803183" stroke-linecap="round" stroke-linejoin="round"/>
    <path d="M 93.38833618164062 165.4798583984375 C 113.9822769165039 116.73019409179688 92.47160339355469 117.55738830566406 69.69698333740234 111.38898468017578" stroke-width="3.0" fill="none" stroke="rgb(0, 0, 0)" stroke-opacity="0.03891416" stroke-linecap="round" stroke-linejoin="round"/>
    <path d="M 128.93788146972656 64.09375762939453 C 89.01445770263672 93.84857177734375 62.15252685546875 91.23484802246094 114.85604858398438 80.91741943359375" stroke-width="3.0" fill="none" stroke="rgb(0, -1, 1)" stroke-opacity="0.17951009" stroke-linecap="round" stroke-linejoin="round"/>
    <path d="M 124.66961669921875 75.04817199707031 C 98.08540344238281 151.6952667236328 104.05342102050781 146.77194213867188 123.75892639160156 77.211669921875" stroke-width="3.0" fill="none" stroke="rgb(0, 0, 0)" stroke-opacity="0.044652045" stroke-linecap="round" stroke-linejoin="round"/>
    <path d="M 95.85769653320312 129.16481018066406 C 291.61309814453125 142.94644165039062 257.25469970703125 155.3854522705078 101.60059356689453 147.74468994140625" stroke-width="3.0" fill="none" stroke="rgb(0, -1, 2)" stroke-opacity="0.049424604" stroke-linecap="round" stroke-linejoin="round"/>
    <path d="M 168.80458068847656 46.294532775878906 C 155.0115203857422 139.7306671142578 159.5615234375 97.33699035644531 177.13418579101562 53.42424392700195" stroke-width="3.0" fill="none" stroke="rgb(0, -1, 1)" stroke-opacity="0.15035957" stroke-linecap="round" stroke-linejoin="round"/>
    <path d="M 66.8568115234375 232.76632690429688 C 10.990091323852539 194.68406677246094 13.90720272064209 195.4600372314453 -14.09453296661377 202.55918884277344" stroke-width="3.0" fill="none" stroke="rgb(0, 0, 1)" stroke-opacity="0.09525611" stroke-linecap="round" stroke-linejoin="round"/>
    <path d="M 182.05482482910156 116.80802154541016 C 139.65882873535156 110.9070816040039 172.88780212402344 86.20759582519531 140.4915313720703 84.71060943603516" stroke-width="3.0" fill="none" stroke="rgb(1, -2, 2)" stroke-opacity="0.5116358" stroke-linecap="round" stroke-linejoin="round"/>
    <path d="M 159.33433532714844 100.35550689697266 C 175.5569305419922 77.22125244140625 166.15716552734375 76.84922790527344 192.6686248779297 116.42965698242188" stroke-width="3.0" fill="none" stroke="rgb(0, 0, 0)" stroke-opacity="0.07715012" stroke-linecap="round" stroke-linejoin="round"/>
    <path d="M 168.31019592285156 79.93147277832031 C 126.01033020019531 63.139404296875 151.08348083496094 98.44634246826172 95.42068481445312 125.14421844482422" stroke-width="3.0" fill="none" stroke="rgb(2, -2, 1)" stroke-opacity="0.069596276" stroke-linecap="round" stroke-linejoin="round"/>
    <path d="M 202.5872039794922 148.21475219726562 C 194.88575744628906 95.39210510253906 149.82113647460938 83.32219696044922 181.8271484375 156.70909118652344" stroke-width="3.0" fill="none" stroke="rgb(1, 0, 0)" stroke-opacity="0.339581" stroke-linecap="round" stroke-linejoin="round"/>
    <path d="M 90.54022216796875 145.46722412109375 C 100.60162353515625 263.55023193359375 105.3593978881836 196.93141174316406 110.0320816040039 216.8123321533203" stroke-width="3.0" fill="none" stroke="rgb(0, 0, 0)" stroke-opacity="0.050384477" stroke-linecap="round" stroke-linejoin="round"/>
    <path d="M 95.5302963256836 133.14259338378906 C 133.5877685546875 174.44468688964844 98.03742980957031 156.2602996826172 98.65619659423828 200.669677734375" stroke-width="3.0" fill="none" stroke="rgb(2, -1, 0)" stroke-opacity="0.2463979" stroke-linecap="round" stroke-linejoin="round"/>
    <path d="M 210.18519592285156 115.0712890625 C 203.17593383789062 116.18228912353516 286.97564697265625 111.18855285644531 243.77365112304688 112.01200866699219" stroke-width="3.0" fill="none" stroke="rgb(-1, 0, 1)" stroke-opacity="0.2734151" stroke-linecap="round" stroke-linejoin="round"/>
    <path d="M 106.46407318115234 72.57776641845703 C 121.79227447509766 70.01017761230469 108.60193634033203 65.04426574707031 132.45326232910156 55.79405975341797" stroke-width="3.0" fill="none" stroke="rgb(-1, 0, 1)" stroke-opacity="0.41939187" stroke-linecap="round" stroke-linejoin="round"/>
    <path d="M 77.54839324951172 230.4477996826172 C 185.8807373046875 212.48687744140625 15.120895385742188 217.49005126953125 223.099609375 198.966064453125" stroke-width="3.0" fill="none" stroke="rgb(0, 0, 0)" stroke-opacity="0.09512469" stroke-linecap="round" stroke-linejoin="round"/>
    <path d="M 199.41680908203125 77.08818817138672 C 188.4333953857422 29.10540199279785 143.28079223632812 35.56789779663086 196.475341796875 102.62908935546875" stroke-width="3.0" fill="none" stroke="rgb(2, -1, 0)" stroke-opacity="0.063151695" stroke-linecap="round" stroke-linejoin="round"/>
    <path d="M 138.71835327148438 223.60618591308594 C -60.555152893066406 199.0242156982422 -70.25603485107422 187.4171905517578 90.29679870605469 195.46145629882812" stroke-width="3.0" fill="none" stroke="rgb(-1, 0, 1)" stroke-opacity="0.15576601" stroke-linecap="round" stroke-linejoin="round"/>
    <path d="M 120.06488037109375 108.36510467529297 C 87.67459869384766 159.14842224121094 99.83430480957031 144.69821166992188 126.85344696044922 75.41268920898438" stroke-width="3.0" fill="none" stroke="rgb(1, -1, 0)" stroke-opacity="0.04458672" stroke-linecap="round" stroke-linejoin="round"/>
    <path d="M 95.25391387939453 119.34442138671875 C 98.63600158691406 69.65744018554688 121.67676544189453 67.6886978149414 80.78677368164062 125.12028503417969" stroke-width="3.0" fill="none" stroke="rgb(1, -1, 1)" stroke-opacity="0.33768517" stroke-linecap="round" stroke-linejoin="round"/>
    <path d="M 111.78936767578125 130.9111328125 C 135.1420440673828 79.8467788696289 138.49037170410156 84.28560638427734 111.51984405517578 128.24676513671875" stroke-width="3.0" fill="none" stroke="rgb(3, -2, 0)" stroke-opacity="0.28641748" stroke-linecap="round" stroke-linejoin="round"/>
    <path d="M 228.68209838867188 103.31019592285156 C 232.3733673095703 96.92457580566406 234.6629180908203 98.1456298828125 236.43743896484375 102.24244689941406" stroke-width="3.0" fill="none" stroke="rgb(0, 0, 0)" stroke-opacity="0.906748" stroke-linecap="round" stroke-linejoin="round"/>
    <path d="M 33.338932037353516 219.29946899414062 C -12.97719955444336 189.72280883789062 20.879913330078125 208.38685607910156 26.865825653076172 246.74835205078125" stroke-width="3.0" fill="none" stroke="rgb(-2, 0, 0)" stroke-opacity="0.073546425" stroke-linecap="round" stroke-linejoin="round"/>
    <path d="M 237.1807403564453 38.258384704589844 C 222.1494598388672 36.10203170776367 258.8011779785156 54.18135452270508 222.9537811279297 70.25135803222656" stroke-width="3.0" fill="none" stroke="rgb(0, 0, 0)" stroke-opacity="0.033458047" stroke-linecap="round" stroke-linejoin="round"/>
    <path d="M 175.37745666503906 43.15645217895508 C 138.97630310058594 61.250213623046875 163.87347412109375 28.93570899963379 134.94129943847656 51.15041732788086" stroke-width="3.0" fill="none" stroke="rgb(0, 0, 0)" stroke-opacity="0.14015765" stroke-linecap="round" stroke-linejoin="round"/>
    <path d="M 178.71630859375 133.6500701904297 C 100.44585418701172 102.42738342285156 116.67879486083984 55.618221282958984 189.29998779296875 87.05049896240234" stroke-width="3.0" fill="none" stroke="rgb(0, 0, 0)" stroke-opacity="0.029958429" stroke-linecap="round" stroke-linejoin="round"/>
    <path d="M 180.20144653320312 123.04496002197266 C 152.20040893554688 81.94710540771484 181.06765747070312 81.78002166748047 178.651123046875 47.58925247192383" stroke-width="3.0" fill="none" stroke="rgb(0, -1, 2)" stroke-opacity="0.22457631" stroke-linecap="round" stroke-linejoin="round"/>
    <path d="M 189.50057983398438 66.9310302734375 C 173.23321533203125 106.66211700439453 210.26646423339844 124.69837188720703 213.71543884277344 68.43811798095703" stroke-width="3.0" fill="none" stroke="rgb(1, -2, 1)" stroke-opacity="0.07401745" stroke-linecap="round" stroke-linejoin="round"/>
    <path d="M 162.06468200683594 62.89695739746094 C 174.2646484375 23.295928955078125 143.86595153808594 22.499723434448242 211.59466552734375 42.7714958190918" stroke-width="3.0" fill="none" stroke="rgb(0, 0, 0)" stroke-opacity="0.002934589" stroke-linecap="round" stroke-linejoin="round"/>
    <path d="M 197.5499267578125 137.0011749267578 C 186.41355895996094 92.52316284179688 141.39418029785156 122.51367950439453 186.8286895751953 117.37739562988281" stroke-width="3.0" fill="none" stroke="rgb(0, 0, 0)" stroke-opacity="0.45380163" stroke-linecap="round" stroke-linejoin="round"/>
  </g>
</svg>
