<?xml version="1.0" ?>
<svg xmlns="http://www.w3.org/2000/svg" version="1.1" width="224" height="224">
  <defs/>
  <g>
    <path d="M 124.0068359375 66.62480926513672 C 141.2721710205078 82.67267608642578 146.5742645263672 119.87139129638672 146.46775817871094 116.94352722167969" stroke-width="1.9717425107955933" fill="none" stroke="rgb(-3, 3, 2)" stroke-opacity="0.41671368" stroke-linecap="round" stroke-linejoin="round"/>
    <path d="M 73.18124389648438 141.94873046875 C 67.72268676757812 139.70999145507812 31.332674026489258 150.66741943359375 42.18842315673828 147.3553924560547" stroke-width="12.913411140441895" fill="none" stroke="rgb(2, -3, 2)" stroke-opacity="0.46959168" stroke-linecap="round" stroke-linejoin="round"/>
    <path d="M 230.7574462890625 198.4099884033203 C 195.85137939453125 201.11026000976562 186.8310089111328 189.32781982421875 227.2690887451172 192.9857940673828" stroke-width="4.243683338165283" fill="none" stroke="rgb(0, 0, 1)" stroke-opacity="0.029090883" stroke-linecap="round" stroke-linejoin="round"/>
    <path d="M 133.74441528320312 138.77090454101562 C 76.6897201538086 64.0028305053711 117.29814147949219 81.84573364257812 136.47972106933594 146.46913146972656" stroke-width="8.033549308776855" fill="none" stroke="rgb(1, -4, 5)" stroke-opacity="0.50454676" stroke-linecap="round" stroke-linejoin="round"/>
    <path d="M 89.31317138671875 170.4463348388672 C 101.58104705810547 116.22073364257812 94.39212799072266 159.42575073242188 93.95702362060547 142.4813232421875" stroke-width="13.435918807983398" fill="none" stroke="rgb(3, -2, -3)" stroke-opacity="0.08520843" stroke-linecap="round" stroke-linejoin="round"/>
    <path d="M 190.70724487304688 118.82744598388672 C 180.87538146972656 79.2628402709961 152.9226837158203 59.69076156616211 122.8998794555664 51.067901611328125" stroke-width="2.2281110286712646" fill="none" stroke="rgb(-2, 2, 2)" stroke-opacity="0.07515923" stroke-linecap="round" stroke-linejoin="round"/>
    <path d="M 190.69052124023438 161.87757873535156 C 106.56141662597656 176.62271118164062 153.29855346679688 138.9321746826172 186.02149963378906 148.91592407226562" stroke-width="9.378148078918457" fill="none" stroke="rgb(4, -1, -3)" stroke-opacity="0.26983282" stroke-linecap="round" stroke-linejoin="round"/>
    <path d="M 29.274621963500977 155.74981689453125 C 60.657588958740234 138.1829376220703 44.15260696411133 150.94969177246094 33.333255767822266 142.5456085205078" stroke-width="1.9678032398223877" fill="none" stroke="rgb(0, 0, 1)" stroke-opacity="0.40376818" stroke-linecap="round" stroke-linejoin="round"/>
    <path d="M -6.387263774871826 169.77621459960938 C 48.62334442138672 171.0992889404297 28.66857147216797 169.41732788085938 30.38871192932129 177.83872985839844" stroke-width="10.222967147827148" fill="none" stroke="rgb(1, -1, -1)" stroke-opacity="0.08629459" stroke-linecap="round" stroke-linejoin="round"/>
    <path d="M 125.84754943847656 208.29066467285156 C 222.7340087890625 204.38490295410156 229.99765014648438 234.8057861328125 206.66159057617188 111.99467468261719" stroke-width="12.755654335021973" fill="none" stroke="rgb(0, 0, 2)" stroke-opacity="0.01879996" stroke-linecap="round" stroke-linejoin="round"/>
    <path d="M 74.80288696289062 167.12457275390625 C 81.72371673583984 177.0507354736328 60.423221588134766 179.03343200683594 119.70425415039062 175.04864501953125" stroke-width="6.7534918785095215" fill="none" stroke="rgb(2, -1, -1)" stroke-opacity="0.21588536" stroke-linecap="round" stroke-linejoin="round"/>
    <path d="M -15.075328826904297 178.70779418945312 C 47.13455581665039 177.76072692871094 110.76312255859375 178.47238159179688 62.523277282714844 177.820556640625" stroke-width="1.907224416732788" fill="none" stroke="rgb(-2, 0, 3)" stroke-opacity="0.15995264" stroke-linecap="round" stroke-linejoin="round"/>
    <path d="M 68.209228515625 166.40621948242188 C -66.10651397705078 164.78843688964844 -103.63404846191406 180.45645141601562 85.30023193359375 176.9154815673828" stroke-width="7.05086088180542" fill="none" stroke="rgb(-2, -2, 2)" stroke-opacity="0.32359558" stroke-linecap="round" stroke-linejoin="round"/>
    <path d="M 2.051703453063965 205.05859375 C 50.97462844848633 201.42913818359375 -45.1629753112793 202.29147338867188 63.63580322265625 203.67404174804688" stroke-width="7.9965972900390625" fill="none" stroke="rgb(-1, 0, 1)" stroke-opacity="0.029125595" stroke-linecap="round" stroke-linejoin="round"/>
    <path d="M 208.9908447265625 139.874267578125 C 213.39651489257812 144.00955200195312 222.19863891601562 160.91107177734375 222.526123046875 148.27635192871094" stroke-width="1.7865285873413086" fill="none" stroke="rgb(-2, 0, 2)" stroke-opacity="0.34644294" stroke-linecap="round" stroke-linejoin="round"/>
    <path d="M 56.40906524658203 135.25450134277344 C 75.62409210205078 134.13104248046875 67.3998031616211 143.9210662841797 53.80376434326172 107.48146057128906" stroke-width="9.580784797668457" fill="none" stroke="rgb(1, -1, 0)" stroke-opacity="0.4241646" stroke-linecap="round" stroke-linejoin="round"/>
    <path d="M 121.2072525024414 123.36783599853516 C 104.47944641113281 85.47327423095703 122.75777435302734 112.07942962646484 93.75294494628906 96.59770202636719" stroke-width="6.0474958419799805" fill="none" stroke="rgb(0, -1, 0)" stroke-opacity="0.27279025" stroke-linecap="round" stroke-linejoin="round"/>
    <path d="M 189.7882537841797 157.19485473632812 C 187.72618103027344 111.96550750732422 205.61416625976562 118.30125427246094 154.84727478027344 148.27589416503906" stroke-width="1.7738049030303955" fill="none" stroke="rgb(-3, 0, 2)" stroke-opacity="0.30241406" stroke-linecap="round" stroke-linejoin="round"/>
    <path d="M 104.78079986572266 215.53924560546875 C 77.53642272949219 222.43353271484375 45.91249465942383 203.83316040039062 115.37859344482422 214.19656372070312" stroke-width="2.7320070266723633" fill="none" stroke="rgb(2, 0, 0)" stroke-opacity="0.031811405" stroke-linecap="round" stroke-linejoin="round"/>
    <path d="M 103.67455291748047 124.50933074951172 C 105.12879180908203 125.16950988769531 96.6954574584961 159.63169860839844 110.26220703125 136.65122985839844" stroke-width="2.915836811065674" fill="none" stroke="rgb(-1, 1, 1)" stroke-opacity="0.19978747" stroke-linecap="round" stroke-linejoin="round"/>
    <path d="M 96.56475067138672 98.48208618164062 C 118.13125610351562 121.4208755493164 132.867919921875 122.69847869873047 104.63923645019531 76.2823715209961" stroke-width="6.849322319030762" fill="none" stroke="rgb(4, -2, 2)" stroke-opacity="0.28207663" stroke-linecap="round" stroke-linejoin="round"/>
    <path d="M 229.3094482421875 178.24478149414062 C 232.24810791015625 194.0652313232422 230.9829559326172 189.6274871826172 235.18345642089844 192.805908203125" stroke-width="2.0" fill="none" stroke="rgb(0, 0, 0)" stroke-opacity="0.9024012" stroke-linecap="round" stroke-linejoin="round"/>
    <path d="M 184.52691650390625 129.43504333496094 C 197.75082397460938 129.3530731201172 181.3291778564453 97.6332015991211 208.8253173828125 137.36599731445312" stroke-width="3.576690196990967" fill="none" stroke="rgb(-2, 0, 1)" stroke-opacity="0.0957477" stroke-linecap="round" stroke-linejoin="round"/>
    <path d="M 100.5263671875 174.48590087890625 C 95.16946411132812 160.61703491210938 112.5700912475586 177.63697814941406 88.90605926513672 162.30532836914062" stroke-width="1.8013232946395874" fill="none" stroke="rgb(-2, 0, 1)" stroke-opacity="0.29577038" stroke-linecap="round" stroke-linejoin="round"/>
    <path d="M 136.9376678466797 169.6695098876953 C 120.50423431396484 148.92201232910156 151.69625854492188 167.72044372558594 125.58660125732422 165.27474975585938" stroke-width="4.837743282318115" fill="none" stroke="rgb(1, 0, -2)" stroke-opacity="0.23989785" stroke-linecap="round" stroke-linejoin="round"/>
    <path d="M 243.4793701171875 156.37069702148438 C 191.29591369628906 157.00393676757812 146.14605712890625 156.6488800048828 148.29095458984375 157.7852020263672" stroke-width="5.128122329711914" fill="none" stroke="rgb(-2, 0, 1)" stroke-opacity="0.8380166" stroke-linecap="round" stroke-linejoin="round"/>
    <path d="M 102.81484985351562 118.92825317382812 C 100.23419952392578 108.36509704589844 90.4834976196289 93.40568542480469 84.66110229492188 90.99298095703125" stroke-width="1.7935816049575806" fill="none" stroke="rgb(-2, 0, 2)" stroke-opacity="0.4404465" stroke-linecap="round" stroke-linejoin="round"/>
    <path d="M 110.71710968017578 139.50540161132812 C 136.17105102539062 139.83560180664062 123.92137145996094 158.82850646972656 148.0807647705078 154.87704467773438" stroke-width="4.921061992645264" fill="none" stroke="rgb(-1, 0, 1)" stroke-opacity="0.42706612" stroke-linecap="round" stroke-linejoin="round"/>
    <path d="M 109.79132843017578 139.3964080810547 C 90.29497528076172 157.05747985839844 107.96688842773438 128.2042999267578 72.68863677978516 140.20240783691406" stroke-width="1.8760201930999756" fill="none" stroke="rgb(0, -1, 1)" stroke-opacity="0.45062494" stroke-linecap="round" stroke-linejoin="round"/>
    <path d="M 73.06693267822266 154.1049041748047 C 81.53307342529297 161.19686889648438 106.80894470214844 167.77297973632812 49.24980545043945 144.467041015625" stroke-width="1.9097135066986084" fill="none" stroke="rgb(0, 0, 0)" stroke-opacity="0.2300161" stroke-linecap="round" stroke-linejoin="round"/>
    <path d="M 208.41522216796875 149.99197387695312 C 167.85194396972656 157.5904083251953 180.24745178222656 166.1739959716797 232.71224975585938 158.5978240966797" stroke-width="15.433581352233887" fill="none" stroke="rgb(3, -3, -3)" stroke-opacity="0.2504685" stroke-linecap="round" stroke-linejoin="round"/>
    <path d="M 102.3883285522461 71.29562377929688 C 109.11770629882812 103.24163818359375 104.67964935302734 100.748779296875 89.3768310546875 93.43132019042969" stroke-width="3.7179229259490967" fill="none" stroke="rgb(3, -1, -3)" stroke-opacity="0.45371386" stroke-linecap="round" stroke-linejoin="round"/>
    <path d="M 159.26243591308594 183.59556579589844 C 202.1726837158203 180.80291748046875 164.4938507080078 185.19801330566406 197.68124389648438 182.94009399414062" stroke-width="3.374109983444214" fill="none" stroke="rgb(0, 0, 0)" stroke-opacity="0.101947755" stroke-linecap="round" stroke-linejoin="round"/>
    <path d="M 151.41781616210938 179.68955993652344 C 100.87959289550781 178.75099182128906 48.21184158325195 182.2779998779297 66.91352844238281 171.4310760498047" stroke-width="3.669095039367676" fill="none" stroke="rgb(-1, 0, 2)" stroke-opacity="0.17772257" stroke-linecap="round" stroke-linejoin="round"/>
    <path d="M 233.89703369140625 159.79132080078125 C 301.8638610839844 166.0749053955078 205.60488891601562 171.05235290527344 169.4244384765625 168.13693237304688" stroke-width="3.6997947692871094" fill="none" stroke="rgb(-2, 1, 1)" stroke-opacity="0.6405313" stroke-linecap="round" stroke-linejoin="round"/>
    <path d="M 121.52251434326172 169.61964416503906 C 330.01068115234375 169.87242126464844 208.86521911621094 168.96803283691406 145.63790893554688 168.369873046875" stroke-width="3.9038846492767334" fill="none" stroke="rgb(-2, 0, 2)" stroke-opacity="0.5101153" stroke-linecap="round" stroke-linejoin="round"/>
    <path d="M 26.74915885925293 154.04510498046875 C -11.038748741149902 171.26617431640625 -10.12808895111084 147.04873657226562 25.617830276489258 159.7664031982422" stroke-width="6.899270534515381" fill="none" stroke="rgb(-2, 0, 2)" stroke-opacity="0.3539387" stroke-linecap="round" stroke-linejoin="round"/>
    <path d="M 64.36014556884766 87.62718963623047 C 76.75422668457031 105.84071350097656 64.151123046875 93.09904479980469 94.45521545410156 133.4125518798828" stroke-width="4.82602071762085" fill="none" stroke="rgb(2, -2, 0)" stroke-opacity="0.30651835" stroke-linecap="round" stroke-linejoin="round"/>
    <path d="M 100.03031158447266 230.3218536376953 C 92.82330322265625 229.5003662109375 96.81938934326172 224.2400360107422 101.21575164794922 231.5607147216797" stroke-width="2.0" fill="none" stroke="rgb(0, 0, 0)" stroke-opacity="0.8172654" stroke-linecap="round" stroke-linejoin="round"/>
    <path d="M 119.90015411376953 52.40866470336914 C 125.5301742553711 60.31834411621094 134.30577087402344 83.77030944824219 124.46296691894531 76.2303466796875" stroke-width="5.863502502441406" fill="none" stroke="rgb(2, -1, -2)" stroke-opacity="0.35082987" stroke-linecap="round" stroke-linejoin="round"/>
    <path d="M 183.3270263671875 143.35943603515625 C 164.99639892578125 151.60684204101562 187.97647094726562 134.9990234375 172.88414001464844 143.2692108154297" stroke-width="12.114319801330566" fill="none" stroke="rgb(0, 0, 0)" stroke-opacity="0.1150538" stroke-linecap="round" stroke-linejoin="round"/>
    <path d="M 111.17141723632812 195.0294952392578 C 65.44453430175781 189.7753143310547 163.14297485351562 196.6632843017578 50.49298858642578 194.81394958496094" stroke-width="7.900519371032715" fill="none" stroke="rgb(0, 0, 1)" stroke-opacity="0.018331932" stroke-linecap="round" stroke-linejoin="round"/>
    <path d="M 0.8254862427711487 176.93226623535156 C -5.320063591003418 237.12950134277344 -3.1584954261779785 211.7723846435547 33.67491149902344 218.1654510498047" stroke-width="3.9405689239501953" fill="none" stroke="rgb(0, 0, 1)" stroke-opacity="0.04560669" stroke-linecap="round" stroke-linejoin="round"/>
    <path d="M 108.38170623779297 142.1882781982422 C 132.64419555664062 146.27609252929688 146.5000762939453 168.84054565429688 131.21182250976562 134.47549438476562" stroke-width="5.110024929046631" fill="none" stroke="rgb(-1, 1, 0)" stroke-opacity="0.59819186" stroke-linecap="round" stroke-linejoin="round"/>
    <path d="M 148.98045349121094 145.35520935058594 C 172.70645141601562 183.48191833496094 208.56292724609375 98.31150817871094 165.08985900878906 154.06414794921875" stroke-width="8.940902709960938" fill="none" stroke="rgb(-2, -4, 3)" stroke-opacity="0.44939604" stroke-linecap="round" stroke-linejoin="round"/>
    <path d="M 95.10594177246094 138.28628540039062 C 40.25090789794922 119.46265411376953 57.270545959472656 136.07081604003906 85.25205993652344 137.68508911132812" stroke-width="7.279717922210693" fill="none" stroke="rgb(-2, 0, 1)" stroke-opacity="0.3048799" stroke-linecap="round" stroke-linejoin="round"/>
    <path d="M 135.50624084472656 142.8335418701172 C 130.0605926513672 139.44021606445312 123.88994598388672 113.4141616821289 138.69638061523438 154.3349609375" stroke-width="2.132216215133667" fill="none" stroke="rgb(-1, 0, 0)" stroke-opacity="0.63650477" stroke-linecap="round" stroke-linejoin="round"/>
    <path d="M 52.56106185913086 183.8557586669922 C -39.190673828125 190.10220336914062 -27.348731994628906 177.43618774414062 -7.318336009979248 185.33326721191406" stroke-width="4.668297290802002" fill="none" stroke="rgb(-2, 0, 1)" stroke-opacity="0.08735576" stroke-linecap="round" stroke-linejoin="round"/>
  </g>
</svg>
