<?xml version="1.0" ?>
<svg xmlns="http://www.w3.org/2000/svg" version="1.1" width="224" height="224">
  <defs/>
  <g>
    <path d="M 147.59713745117188 132.3862762451172 C 143.60073852539062 111.7346420288086 147.98399353027344 142.99362182617188 152.2382049560547 126.21277618408203" stroke-width="3.0" fill="none" stroke="rgb(0, 1, 0)" stroke-opacity="-0.001822214" stroke-linecap="round" stroke-linejoin="round"/>
    <path d="M 75.07532501220703 147.59524536132812 C 86.62789916992188 142.50096130371094 58.02526092529297 150.9396209716797 36.112098693847656 141.55841064453125" stroke-width="3.0" fill="none" stroke="rgb(0, 0, 0)" stroke-opacity="0.34950417" stroke-linecap="round" stroke-linejoin="round"/>
    <path d="M 168.07350158691406 205.59938049316406 C 232.51712036132812 215.7428741455078 138.59080505371094 214.75921630859375 219.12850952148438 217.86444091796875" stroke-width="3.0" fill="none" stroke="rgb(1, 0, -1)" stroke-opacity="0.062494025" stroke-linecap="round" stroke-linejoin="round"/>
    <path d="M 133.43435668945312 137.21221923828125 C 96.58023834228516 71.52064514160156 108.71761322021484 77.8446044921875 128.37550354003906 134.92703247070312" stroke-width="3.0" fill="none" stroke="rgb(0, -1, 2)" stroke-opacity="0.61170584" stroke-linecap="round" stroke-linejoin="round"/>
    <path d="M 128.97988891601562 145.87156677246094 C 65.07935333251953 141.5251007080078 98.62633514404297 154.76438903808594 102.01113891601562 122.42632293701172" stroke-width="3.0" fill="none" stroke="rgb(0, 0, 0)" stroke-opacity="0.042823855" stroke-linecap="round" stroke-linejoin="round"/>
    <path d="M 156.20150756835938 71.64436340332031 C 167.63710021972656 87.92830657958984 164.46087646484375 68.55795288085938 149.24803161621094 64.67215728759766" stroke-width="3.0" fill="none" stroke="rgb(0, 1, -2)" stroke-opacity="0.06518791" stroke-linecap="round" stroke-linejoin="round"/>
    <path d="M 180.80343627929688 149.7242889404297 C 113.34542846679688 137.81280517578125 164.6729736328125 159.21176147460938 188.22438049316406 139.5320587158203" stroke-width="3.0" fill="none" stroke="rgb(0, 0, 0)" stroke-opacity="0.11838988" stroke-linecap="round" stroke-linejoin="round"/>
    <path d="M 68.62248992919922 166.9653778076172 C -0.585594892501831 129.9092254638672 42.41497039794922 167.4709014892578 36.10087966918945 145.9715576171875" stroke-width="3.0" fill="none" stroke="rgb(-2, -1, 2)" stroke-opacity="0.24189645" stroke-linecap="round" stroke-linejoin="round"/>
    <path d="M 21.189496994018555 163.1643829345703 C 4.610790729522705 137.0111846923828 10.08686637878418 204.40374755859375 9.70960521697998 151.52955627441406" stroke-width="3.0" fill="none" stroke="rgb(0, 1, 0)" stroke-opacity="0.20951349" stroke-linecap="round" stroke-linejoin="round"/>
    <path d="M 217.87950134277344 179.98336791992188 C 215.6118621826172 250.03311157226562 190.68182373046875 263.0869140625 212.64700317382812 160.2106170654297" stroke-width="3.0" fill="none" stroke="rgb(-1, 0, 1)" stroke-opacity="0.013981167" stroke-linecap="round" stroke-linejoin="round"/>
    <path d="M 65.75749206542969 192.8662109375 C -40.325565338134766 174.08096313476562 8.039464950561523 219.96295166015625 135.2826385498047 193.5267333984375" stroke-width="3.0" fill="none" stroke="rgb(-1, 1, -1)" stroke-opacity="0.070205666" stroke-linecap="round" stroke-linejoin="round"/>
    <path d="M -10.019929885864258 176.28575134277344 C 72.53276824951172 181.78564453125 86.2196044921875 172.02015686035156 2.320350170135498 196.6307830810547" stroke-width="3.0" fill="none" stroke="rgb(0, 0, -2)" stroke-opacity="0.042417802" stroke-linecap="round" stroke-linejoin="round"/>
    <path d="M 91.69916534423828 193.0025177001953 C -76.32535552978516 194.75576782226562 -57.244415283203125 182.90582275390625 91.05908966064453 184.17550659179688" stroke-width="3.0" fill="none" stroke="rgb(-1, 1, 0)" stroke-opacity="0.092541486" stroke-linecap="round" stroke-linejoin="round"/>
    <path d="M 0.3987220525741577 158.313232421875 C 4.896848678588867 221.64817810058594 -16.44961166381836 198.1788330078125 75.1004638671875 184.04119873046875" stroke-width="3.0" fill="none" stroke="rgb(-2, 0, 2)" stroke-opacity="0.05405558" stroke-linecap="round" stroke-linejoin="round"/>
    <path d="M 193.11822509765625 117.86368560791016 C 194.98069763183594 119.12435150146484 210.7233123779297 135.12625122070312 216.70819091796875 157.84274291992188" stroke-width="3.0" fill="none" stroke="rgb(-1, 0, 1)" stroke-opacity="0.07582238" stroke-linecap="round" stroke-linejoin="round"/>
    <path d="M 74.63581085205078 139.9383544921875 C 94.35872650146484 127.09048461914062 105.84165954589844 159.05511474609375 80.44197082519531 110.89075469970703" stroke-width="3.0" fill="none" stroke="rgb(3, -3, 1)" stroke-opacity="0.40706024" stroke-linecap="round" stroke-linejoin="round"/>
    <path d="M 130.62826538085938 129.04698181152344 C 110.1115493774414 76.64622497558594 100.33390045166016 75.010009765625 125.18309020996094 118.45354461669922" stroke-width="3.0" fill="none" stroke="rgb(4, -3, 3)" stroke-opacity="0.8009027" stroke-linecap="round" stroke-linejoin="round"/>
    <path d="M 210.261474609375 148.15013122558594 C 219.99371337890625 161.61422729492188 210.6688995361328 138.47879028320312 205.93685913085938 134.12185668945312" stroke-width="3.0" fill="none" stroke="rgb(-1, 0, 3)" stroke-opacity="0.08982844" stroke-linecap="round" stroke-linejoin="round"/>
    <path d="M -2.0467944145202637 220.8417510986328 C 40.754974365234375 226.8557586669922 -37.51337432861328 211.1643524169922 42.73948669433594 217.6494140625" stroke-width="3.0" fill="none" stroke="rgb(2, 0, -1)" stroke-opacity="0.055752292" stroke-linecap="round" stroke-linejoin="round"/>
    <path d="M 106.13314056396484 129.6664581298828 C 98.19931030273438 162.9862518310547 112.12926483154297 119.61445617675781 131.11419677734375 149.05291748046875" stroke-width="3.0" fill="none" stroke="rgb(-2, -1, 2)" stroke-opacity="0.3367719" stroke-linecap="round" stroke-linejoin="round"/>
    <path d="M 137.38531494140625 153.69369506835938 C 119.13389587402344 75.503173828125 121.61682891845703 132.8148193359375 128.36862182617188 121.87152099609375" stroke-width="3.0" fill="none" stroke="rgb(0, 0, 0)" stroke-opacity="0.41951793" stroke-linecap="round" stroke-linejoin="round"/>
    <path d="M 227.765869140625 179.24424743652344 C 234.03201293945312 186.08905029296875 232.77667236328125 188.56594848632812 240.29212951660156 191.05679321289062" stroke-width="3.0" fill="none" stroke="rgb(0, 0, 0)" stroke-opacity="0.60159445" stroke-linecap="round" stroke-linejoin="round"/>
    <path d="M 192.35372924804688 114.90286254882812 C 223.1563262939453 100.7332763671875 212.30987548828125 100.96215057373047 241.89646911621094 99.91322326660156" stroke-width="3.0" fill="none" stroke="rgb(-1, -1, 2)" stroke-opacity="0.17733648" stroke-linecap="round" stroke-linejoin="round"/>
    <path d="M 96.1600341796875 133.44386291503906 C 103.04315948486328 171.10763549804688 99.03360748291016 202.17918395996094 108.18273162841797 174.8610076904297" stroke-width="3.0" fill="none" stroke="rgb(-2, 1, 1)" stroke-opacity="0.06252931" stroke-linecap="round" stroke-linejoin="round"/>
    <path d="M 163.96649169921875 191.64547729492188 C 144.508056640625 189.5447998046875 117.86509704589844 189.67198181152344 100.8713607788086 186.251220703125" stroke-width="3.0" fill="none" stroke="rgb(-1, 0, 2)" stroke-opacity="0.10242245" stroke-linecap="round" stroke-linejoin="round"/>
    <path d="M 243.68568420410156 150.9603729248047 C 158.23123168945312 152.98403930664062 184.541015625 151.37454223632812 184.01483154296875 146.10694885253906" stroke-width="3.0" fill="none" stroke="rgb(0, 0, 1)" stroke-opacity="0.5105249" stroke-linecap="round" stroke-linejoin="round"/>
    <path d="M 122.55992889404297 126.02484130859375 C 61.059078216552734 63.28076171875 101.53927612304688 100.08491516113281 103.7461929321289 120.85237121582031" stroke-width="3.0" fill="none" stroke="rgb(-3, -3, 4)" stroke-opacity="0.37016484" stroke-linecap="round" stroke-linejoin="round"/>
    <path d="M 113.88941192626953 126.18254089355469 C 135.0377655029297 137.10845947265625 147.1437225341797 166.2197723388672 128.50631713867188 200.87579345703125" stroke-width="3.0" fill="none" stroke="rgb(-1, 0, 1)" stroke-opacity="0.04793189" stroke-linecap="round" stroke-linejoin="round"/>
    <path d="M 97.1880874633789 142.18690490722656 C 98.53319549560547 149.7616729736328 103.1903305053711 151.17025756835938 107.69720458984375 124.79865264892578" stroke-width="3.0" fill="none" stroke="rgb(0, 0, 1)" stroke-opacity="0.12338453" stroke-linecap="round" stroke-linejoin="round"/>
    <path d="M 100.13424682617188 169.7530517578125 C 96.3949203491211 163.0269317626953 110.16073608398438 174.45660400390625 61.438819885253906 148.6081085205078" stroke-width="3.0" fill="none" stroke="rgb(-3, 3, 2)" stroke-opacity="0.21273825" stroke-linecap="round" stroke-linejoin="round"/>
    <path d="M 228.5179443359375 158.70260620117188 C 161.02261352539062 161.34129333496094 209.18392944335938 157.6952667236328 172.53610229492188 142.66758728027344" stroke-width="3.0" fill="none" stroke="rgb(1, -1, 0)" stroke-opacity="0.44195354" stroke-linecap="round" stroke-linejoin="round"/>
    <path d="M 101.39984893798828 70.49517822265625 C 109.14591979980469 133.77403259277344 114.75857543945312 80.70401000976562 103.74583435058594 76.5559310913086" stroke-width="3.0" fill="none" stroke="rgb(1, 1, -1)" stroke-opacity="0.4705976" stroke-linecap="round" stroke-linejoin="round"/>
    <path d="M 140.59225463867188 194.44850158691406 C 233.13037109375 183.5958709716797 133.07400512695312 193.53199768066406 214.2859649658203 191.2920379638672" stroke-width="3.0" fill="none" stroke="rgb(0, 1, -1)" stroke-opacity="0.06264768" stroke-linecap="round" stroke-linejoin="round"/>
    <path d="M 139.08425903320312 185.81906127929688 C 77.90192413330078 188.0821533203125 138.91029357910156 171.26492309570312 109.66230010986328 185.02389526367188" stroke-width="3.0" fill="none" stroke="rgb(-2, 0, 0)" stroke-opacity="0.15796824" stroke-linecap="round" stroke-linejoin="round"/>
    <path d="M 233.27935791015625 167.85438537597656 C 293.7836608886719 166.43862915039062 280.8182373046875 169.72760009765625 161.92979431152344 170.0533447265625" stroke-width="3.0" fill="none" stroke="rgb(-2, 2, 2)" stroke-opacity="0.62519985" stroke-linecap="round" stroke-linejoin="round"/>
    <path d="M 160.22830200195312 206.15008544921875 C 353.7917175292969 209.85446166992188 337.8144836425781 170.0512237548828 154.9051513671875 185.0165252685547" stroke-width="3.0" fill="none" stroke="rgb(-2, 2, 1)" stroke-opacity="0.08321042" stroke-linecap="round" stroke-linejoin="round"/>
    <path d="M 1.5654513835906982 179.45823669433594 C 7.496212959289551 104.46143341064453 8.889150619506836 226.2976837158203 1.6005669832229614 156.22787475585938" stroke-width="3.0" fill="none" stroke="rgb(0, 1, 0)" stroke-opacity="0.18361837" stroke-linecap="round" stroke-linejoin="round"/>
    <path d="M 94.56522369384766 131.372314453125 C 88.3292465209961 100.01264190673828 44.334842681884766 81.20515441894531 91.4754409790039 130.9352569580078" stroke-width="3.0" fill="none" stroke="rgb(-1, 0, 1)" stroke-opacity="0.0984388" stroke-linecap="round" stroke-linejoin="round"/>
    <path d="M 94.14581298828125 234.5177001953125 C 97.0659408569336 234.6422576904297 102.43923950195312 229.6482696533203 94.66680908203125 231.914794921875" stroke-width="3.0" fill="none" stroke="rgb(0, 0, 0)" stroke-opacity="0.76436365" stroke-linecap="round" stroke-linejoin="round"/>
    <path d="M 119.54383087158203 50.62734603881836 C 129.66134643554688 83.59391021728516 131.7098846435547 68.79192352294922 141.724853515625 97.13136291503906" stroke-width="3.0" fill="none" stroke="rgb(0, 0, 0)" stroke-opacity="0.49116677" stroke-linecap="round" stroke-linejoin="round"/>
    <path d="M 171.16416931152344 145.6240997314453 C 199.3473358154297 153.43527221679688 193.15316772460938 150.54087829589844 147.67520141601562 152.13218688964844" stroke-width="3.0" fill="none" stroke="rgb(-1, 1, 1)" stroke-opacity="0.7997379" stroke-linecap="round" stroke-linejoin="round"/>
    <path d="M 110.3583755493164 199.88963317871094 C 104.14143371582031 191.7054443359375 160.8003692626953 209.45883178710938 25.73780059814453 206.49722290039062" stroke-width="3.0" fill="none" stroke="rgb(2, 0, -2)" stroke-opacity="0.07640131" stroke-linecap="round" stroke-linejoin="round"/>
    <path d="M 33.203556060791016 218.26806640625 C -2.913161039352417 217.2368621826172 54.49185562133789 213.5075225830078 13.060851097106934 208.1491241455078" stroke-width="3.0" fill="none" stroke="rgb(1, -1, -1)" stroke-opacity="0.053261172" stroke-linecap="round" stroke-linejoin="round"/>
    <path d="M 109.59709930419922 139.62986755371094 C 145.8141632080078 157.72560119628906 143.7700653076172 167.7822723388672 146.16648864746094 129.2706298828125" stroke-width="3.0" fill="none" stroke="rgb(-1, 2, -1)" stroke-opacity="0.5621059" stroke-linecap="round" stroke-linejoin="round"/>
    <path d="M 160.75062561035156 151.88241577148438 C 184.6924591064453 135.85997009277344 168.825927734375 138.10040283203125 184.7895050048828 143.4964599609375" stroke-width="3.0" fill="none" stroke="rgb(-3, -1, 4)" stroke-opacity="0.86460507" stroke-linecap="round" stroke-linejoin="round"/>
    <path d="M 101.4072494506836 144.733642578125 C 80.00049591064453 122.20178985595703 7.4776811599731445 124.33267974853516 91.95356750488281 136.22422790527344" stroke-width="3.0" fill="none" stroke="rgb(-1, 1, 0)" stroke-opacity="0.15532164" stroke-linecap="round" stroke-linejoin="round"/>
    <path d="M 136.9036865234375 150.92591857910156 C 116.56629943847656 112.2772216796875 122.01435089111328 102.6017837524414 136.38087463378906 150.55841064453125" stroke-width="3.0" fill="none" stroke="rgb(2, 0, 3)" stroke-opacity="0.90078974" stroke-linecap="round" stroke-linejoin="round"/>
    <path d="M 57.32210159301758 179.544677734375 C -110.45033264160156 179.64242553710938 -72.65913391113281 161.20376586914062 -26.580726623535156 151.021484375" stroke-width="3.0" fill="none" stroke="rgb(0, 0, 0)" stroke-opacity="0.3597441" stroke-linecap="round" stroke-linejoin="round"/>
    <path d="M 165.8760986328125 150.8649444580078 C 210.81234741210938 150.6621551513672 173.6725616455078 136.7988739013672 166.74415588378906 150.6219482421875" stroke-width="3.0" fill="none" stroke="rgb(4, 1, 1)" stroke-opacity="0.8562477" stroke-linecap="round" stroke-linejoin="round"/>
    <path d="M 186.91090393066406 159.9143829345703 C 199.3408203125 144.91331481933594 82.03337097167969 166.56068420410156 137.7899932861328 166.44419860839844" stroke-width="3.0" fill="none" stroke="rgb(2, -2, 0)" stroke-opacity="0.24182846" stroke-linecap="round" stroke-linejoin="round"/>
    <path d="M 41.3603630065918 228.72830200195312 C 33.99890899658203 231.34176635742188 41.17042541503906 230.8380126953125 47.90485382080078 229.9547119140625" stroke-width="3.0" fill="none" stroke="rgb(0, 0, 0)" stroke-opacity="0.5440979" stroke-linecap="round" stroke-linejoin="round"/>
    <path d="M 74.88099670410156 196.75906372070312 C 146.6648406982422 212.25103759765625 124.05791473388672 206.6524658203125 91.36687469482422 171.16708374023438" stroke-width="3.0" fill="none" stroke="rgb(-1, -1, 1)" stroke-opacity="0.04810147" stroke-linecap="round" stroke-linejoin="round"/>
    <path d="M 47.7164306640625 233.8870086669922 C 45.165283203125 237.40370178222656 37.785160064697266 226.3735809326172 51.49919509887695 231.27713012695312" stroke-width="3.0" fill="none" stroke="rgb(0, 0, 0)" stroke-opacity="0.3394026" stroke-linecap="round" stroke-linejoin="round"/>
    <path d="M 228.81179809570312 198.63616943359375 C 226.7154541015625 185.0018310546875 231.80868530273438 195.72845458984375 231.03492736816406 191.10250854492188" stroke-width="3.0" fill="none" stroke="rgb(0, 0, 0)" stroke-opacity="0.83169365" stroke-linecap="round" stroke-linejoin="round"/>
    <path d="M 139.56434631347656 189.60086059570312 C 209.2054443359375 176.41860961914062 113.9354476928711 193.5950927734375 174.14649963378906 196.07266235351562" stroke-width="3.0" fill="none" stroke="rgb(-1, 0, 0)" stroke-opacity="0.05857407" stroke-linecap="round" stroke-linejoin="round"/>
    <path d="M 154.02342224121094 157.98431396484375 C 147.37783813476562 111.65301513671875 149.34249877929688 187.0013885498047 154.33534240722656 145.0650634765625" stroke-width="3.0" fill="none" stroke="rgb(-2, 0, 1)" stroke-opacity="0.5996448" stroke-linecap="round" stroke-linejoin="round"/>
    <path d="M 152.8874969482422 153.39224243164062 C 214.2363739013672 110.35071563720703 205.29803466796875 128.60145568847656 155.3919677734375 146.0679473876953" stroke-width="3.0" fill="none" stroke="rgb(0, 0, 0)" stroke-opacity="0.0772154" stroke-linecap="round" stroke-linejoin="round"/>
    <path d="M 226.853759765625 100.45581817626953 C 187.33056640625 121.57038116455078 180.3150634765625 125.58056640625 201.0519561767578 110.93077087402344" stroke-width="3.0" fill="none" stroke="rgb(1, -1, 2)" stroke-opacity="0.06044504" stroke-linecap="round" stroke-linejoin="round"/>
    <path d="M 111.2767562866211 209.40472412109375 C 11.856609344482422 183.96835327148438 123.97086334228516 226.96136474609375 65.0633316040039 210.35484313964844" stroke-width="3.0" fill="none" stroke="rgb(2, 0, 0)" stroke-opacity="0.039351154" stroke-linecap="round" stroke-linejoin="round"/>
    <path d="M 160.4281768798828 171.40499877929688 C -48.384300231933594 165.65721130371094 -29.342140197753906 183.88763427734375 189.63221740722656 180.07398986816406" stroke-width="3.0" fill="none" stroke="rgb(-2, 2, 0)" stroke-opacity="0.14446445" stroke-linecap="round" stroke-linejoin="round"/>
    <path d="M 148.58213806152344 63.50767135620117 C 73.64549255371094 34.166473388671875 196.6079864501953 91.13399505615234 135.4530487060547 55.487022399902344" stroke-width="3.0" fill="none" stroke="rgb(-1, 2, -1)" stroke-opacity="0.15414782" stroke-linecap="round" stroke-linejoin="round"/>
    <path d="M 121.16819763183594 122.33137512207031 C 112.1429214477539 95.77505493164062 80.23277282714844 80.97886657714844 117.21627807617188 116.45403289794922" stroke-width="3.0" fill="none" stroke="rgb(-1, -3, 2)" stroke-opacity="0.42672375" stroke-linecap="round" stroke-linejoin="round"/>
    <path d="M 130.10182189941406 171.9448699951172 C -22.215564727783203 159.7685546875 3.237778663635254 175.32537841796875 136.9609832763672 160.74375915527344" stroke-width="3.0" fill="none" stroke="rgb(0, -1, 2)" stroke-opacity="0.0797497" stroke-linecap="round" stroke-linejoin="round"/>
    <path d="M 43.78153991699219 162.62503051757812 C -41.643638610839844 169.5487518310547 -31.142635345458984 140.8516845703125 28.466270446777344 159.2054443359375" stroke-width="3.0" fill="none" stroke="rgb(0, -1, 1)" stroke-opacity="0.30459875" stroke-linecap="round" stroke-linejoin="round"/>
    <path d="M 88.26558685302734 198.63046264648438 C 140.38641357421875 181.66146850585938 120.90264129638672 214.86158752441406 138.2300262451172 162.87086486816406" stroke-width="3.0" fill="none" stroke="rgb(0, 0, 2)" stroke-opacity="0.045855284" stroke-linecap="round" stroke-linejoin="round"/>
    <path d="M 146.29794311523438 114.85396575927734 C 137.97373962402344 84.28421783447266 143.43927001953125 103.36101531982422 146.88560485839844 117.06082153320312" stroke-width="3.0" fill="none" stroke="rgb(-2, 0, 1)" stroke-opacity="0.35352647" stroke-linecap="round" stroke-linejoin="round"/>
    <path d="M 86.03572845458984 89.89315795898438 C 123.35521697998047 105.68572235107422 99.1071548461914 104.33106994628906 108.18417358398438 91.95122528076172" stroke-width="3.0" fill="none" stroke="rgb(0, -1, 2)" stroke-opacity="0.41812053" stroke-linecap="round" stroke-linejoin="round"/>
    <path d="M 67.17041778564453 140.91845703125 C 96.8668212890625 123.43971252441406 102.08366394042969 149.66273498535156 40.0648078918457 140.00091552734375" stroke-width="3.0" fill="none" stroke="rgb(-1, 0, 2)" stroke-opacity="0.25477234" stroke-linecap="round" stroke-linejoin="round"/>
    <path d="M 137.58750915527344 149.2316131591797 C 123.12665557861328 122.18881225585938 133.22738647460938 118.86634826660156 138.36781311035156 154.13331604003906" stroke-width="3.0" fill="none" stroke="rgb(0, 1, 2)" stroke-opacity="0.6268374" stroke-linecap="round" stroke-linejoin="round"/>
    <path d="M 84.1187744140625 120.41259765625 C 58.4090461730957 86.69781494140625 62.94272232055664 76.27151489257812 90.77552795410156 127.09246826171875" stroke-width="3.0" fill="none" stroke="rgb(1, -2, 1)" stroke-opacity="0.25354454" stroke-linecap="round" stroke-linejoin="round"/>
    <path d="M 107.16279602050781 82.61152648925781 C 113.06919860839844 94.35592651367188 126.18622589111328 87.30868530273438 138.96861267089844 148.580078125" stroke-width="3.0" fill="none" stroke="rgb(0, 2, -2)" stroke-opacity="0.14414535" stroke-linecap="round" stroke-linejoin="round"/>
    <path d="M 64.11241149902344 84.44023895263672 C 86.12252807617188 146.7034149169922 59.17868423461914 74.46949005126953 69.53234100341797 124.9135971069336" stroke-width="3.0" fill="none" stroke="rgb(-2, -1, 3)" stroke-opacity="0.32960504" stroke-linecap="round" stroke-linejoin="round"/>
    <path d="M 162.93231201171875 150.41372680664062 C 178.03814697265625 144.19627380371094 194.3909912109375 151.88156127929688 175.19580078125 142.28578186035156" stroke-width="3.0" fill="none" stroke="rgb(1, 2, 4)" stroke-opacity="0.91702515" stroke-linecap="round" stroke-linejoin="round"/>
    <path d="M 100.67792510986328 72.67437744140625 C 131.9548797607422 154.0364532470703 132.9616241455078 107.75756072998047 100.39013671875 70.94770812988281" stroke-width="3.0" fill="none" stroke="rgb(4, -3, -2)" stroke-opacity="0.36368924" stroke-linecap="round" stroke-linejoin="round"/>
    <path d="M 158.575439453125 146.18475341796875 C 206.10107421875 119.38922119140625 179.2134246826172 118.43055725097656 186.0036163330078 155.32337951660156" stroke-width="3.0" fill="none" stroke="rgb(-1, -1, 1)" stroke-opacity="0.18180294" stroke-linecap="round" stroke-linejoin="round"/>
    <path d="M 51.6356201171875 104.70758056640625 C 58.77042007446289 154.68299865722656 61.13877868652344 116.40328216552734 51.89594268798828 106.10962677001953" stroke-width="3.0" fill="none" stroke="rgb(-2, 2, -1)" stroke-opacity="0.46872" stroke-linecap="round" stroke-linejoin="round"/>
    <path d="M 164.84475708007812 199.76153564453125 C 85.77224731445312 209.21592712402344 83.35317993164062 178.9988250732422 152.03248596191406 198.7930450439453" stroke-width="3.0" fill="none" stroke="rgb(0, 0, 2)" stroke-opacity="0.04840504" stroke-linecap="round" stroke-linejoin="round"/>
    <path d="M 210.79258728027344 142.18353271484375 C 222.3553466796875 158.56912231445312 249.8607635498047 156.69683837890625 194.89419555664062 155.919189453125" stroke-width="3.0" fill="none" stroke="rgb(0, 0, 2)" stroke-opacity="0.5462181" stroke-linecap="round" stroke-linejoin="round"/>
    <path d="M 50.73414993286133 166.26995849609375 C -38.1794319152832 165.47264099121094 -71.01850128173828 168.99301147460938 74.07174682617188 168.68521118164062" stroke-width="3.0" fill="none" stroke="rgb(-4, -2, 4)" stroke-opacity="0.4146204" stroke-linecap="round" stroke-linejoin="round"/>
    <path d="M 131.9757080078125 188.25953674316406 C 101.07628631591797 176.516845703125 138.2067108154297 215.61045837402344 122.43663024902344 146.57766723632812" stroke-width="3.0" fill="none" stroke="rgb(0, 0, 0)" stroke-opacity="0.063361056" stroke-linecap="round" stroke-linejoin="round"/>
    <path d="M 198.219482421875 203.88772583007812 C 130.33541870117188 216.14291381835938 156.73507690429688 204.62164306640625 135.70645141601562 209.1651153564453" stroke-width="3.0" fill="none" stroke="rgb(1, -1, 0)" stroke-opacity="0.062442355" stroke-linecap="round" stroke-linejoin="round"/>
    <path d="M 26.89089012145996 181.1792449951172 C 147.22467041015625 187.35723876953125 185.72036743164062 177.67408752441406 68.75871276855469 180.37966918945312" stroke-width="3.0" fill="none" stroke="rgb(-1, 1, 1)" stroke-opacity="0.2153174" stroke-linecap="round" stroke-linejoin="round"/>
    <path d="M -18.52627182006836 202.2268829345703 C 45.50606155395508 209.6941680908203 31.255002975463867 194.32598876953125 87.94892883300781 190.4051055908203" stroke-width="3.0" fill="none" stroke="rgb(0, 0, 0)" stroke-opacity="0.049433146" stroke-linecap="round" stroke-linejoin="round"/>
    <path d="M 133.8030242919922 54.66141891479492 C 91.03474426269531 34.0770149230957 170.5362091064453 98.41087341308594 104.20272827148438 71.07125854492188" stroke-width="3.0" fill="none" stroke="rgb(2, 0, -3)" stroke-opacity="0.21314181" stroke-linecap="round" stroke-linejoin="round"/>
    <path d="M -2.4725465774536133 163.1595001220703 C -11.270994186401367 157.88607788085938 -11.64715576171875 157.3857421875 -6.166247844696045 164.09909057617188" stroke-width="3.0" fill="none" stroke="rgb(0, 0, 0)" stroke-opacity="0.9500768" stroke-linecap="round" stroke-linejoin="round"/>
    <path d="M 194.85118103027344 167.53567504882812 C 189.8548126220703 172.9264373779297 216.28466796875 167.72634887695312 144.86495971679688 169.44248962402344" stroke-width="3.0" fill="none" stroke="rgb(-2, 3, 2)" stroke-opacity="0.7077225" stroke-linecap="round" stroke-linejoin="round"/>
    <path d="M 160.27195739746094 92.72234344482422 C 132.97129821777344 40.938968658447266 191.37510681152344 87.20182037353516 189.5569610595703 127.24299621582031" stroke-width="3.0" fill="none" stroke="rgb(-2, 2, 2)" stroke-opacity="0.06006112" stroke-linecap="round" stroke-linejoin="round"/>
    <path d="M 29.821773529052734 153.2384033203125 C 35.707767486572266 162.19287109375 -44.838653564453125 160.7609100341797 35.467864990234375 153.15138244628906" stroke-width="3.0" fill="none" stroke="rgb(-2, 2, 0)" stroke-opacity="0.33533773" stroke-linecap="round" stroke-linejoin="round"/>
    <path d="M 187.61012268066406 156.05990600585938 C 188.83282470703125 107.57817840576172 184.3765869140625 158.6058807373047 192.55540466308594 125.64698028564453" stroke-width="3.0" fill="none" stroke="rgb(-2, 0, 1)" stroke-opacity="0.2050977" stroke-linecap="round" stroke-linejoin="round"/>
    <path d="M 164.0191192626953 148.5538787841797 C 193.93121337890625 123.24207305908203 191.59255981445312 139.4204864501953 172.076904296875 142.61529541015625" stroke-width="3.0" fill="none" stroke="rgb(-1, -1, 3)" stroke-opacity="0.24819806" stroke-linecap="round" stroke-linejoin="round"/>
    <path d="M 168.48585510253906 215.61793518066406 C -2.593632698059082 217.28201293945312 98.08734130859375 223.213623046875 54.75801467895508 216.54037475585938" stroke-width="3.0" fill="none" stroke="rgb(0, -1, 4)" stroke-opacity="0.042411294" stroke-linecap="round" stroke-linejoin="round"/>
    <path d="M 111.43795776367188 137.60394287109375 C 145.33187866210938 152.4974822998047 126.94955444335938 159.53192138671875 194.9412841796875 158.15419006347656" stroke-width="3.0" fill="none" stroke="rgb(-2, 1, 2)" stroke-opacity="0.5231066" stroke-linecap="round" stroke-linejoin="round"/>
    <path d="M 219.0109100341797 212.54257202148438 C 172.07261657714844 229.99073791503906 144.37026977539062 225.92686462402344 176.9549102783203 220.35699462890625" stroke-width="3.0" fill="none" stroke="rgb(0, 0, 2)" stroke-opacity="0.048011884" stroke-linecap="round" stroke-linejoin="round"/>
    <path d="M 69.56644439697266 84.79825592041016 C 146.42588806152344 131.44174194335938 118.11180877685547 99.70879364013672 65.64910125732422 84.4015121459961" stroke-width="3.0" fill="none" stroke="rgb(1, -2, 2)" stroke-opacity="0.11437086" stroke-linecap="round" stroke-linejoin="round"/>
    <path d="M 197.9217071533203 149.38084411621094 C 251.3768310546875 139.01473999023438 148.282958984375 151.2803497314453 213.0478515625 149.09202575683594" stroke-width="3.0" fill="none" stroke="rgb(-3, 0, 2)" stroke-opacity="0.67794514" stroke-linecap="round" stroke-linejoin="round"/>
    <path d="M 3.3989298343658447 151.1715545654297 C 168.83245849609375 177.462890625 87.46522521972656 149.5171356201172 -3.0953545570373535 178.2060089111328" stroke-width="3.0" fill="none" stroke="rgb(0, 0, 0)" stroke-opacity="0.03471451" stroke-linecap="round" stroke-linejoin="round"/>
  </g>
</svg>
